%TF.GenerationSoftware,KiCad,Pcbnew,9.0.1*%
%TF.CreationDate,2025-05-19T08:35:17+02:00*%
%TF.ProjectId,sdiskII_stm32,73646973-6b49-4495-9f73-746d33322e6b,6*%
%TF.SameCoordinates,Original*%
%TF.FileFunction,Legend,Bot*%
%TF.FilePolarity,Positive*%
%FSLAX46Y46*%
G04 Gerber Fmt 4.6, Leading zero omitted, Abs format (unit mm)*
G04 Created by KiCad (PCBNEW 9.0.1) date 2025-05-19 08:35:17*
%MOMM*%
%LPD*%
G01*
G04 APERTURE LIST*
%ADD10C,0.150000*%
%ADD11C,0.203200*%
%ADD12C,0.120000*%
%ADD13C,0.250000*%
G04 APERTURE END LIST*
D10*
X157973332Y-106432295D02*
X158239999Y-106051342D01*
X158430475Y-106432295D02*
X158430475Y-105632295D01*
X158430475Y-105632295D02*
X158125713Y-105632295D01*
X158125713Y-105632295D02*
X158049523Y-105670390D01*
X158049523Y-105670390D02*
X158011428Y-105708485D01*
X158011428Y-105708485D02*
X157973332Y-105784676D01*
X157973332Y-105784676D02*
X157973332Y-105898961D01*
X157973332Y-105898961D02*
X158011428Y-105975152D01*
X158011428Y-105975152D02*
X158049523Y-106013247D01*
X158049523Y-106013247D02*
X158125713Y-106051342D01*
X158125713Y-106051342D02*
X158430475Y-106051342D01*
X157249523Y-105632295D02*
X157630475Y-105632295D01*
X157630475Y-105632295D02*
X157668571Y-106013247D01*
X157668571Y-106013247D02*
X157630475Y-105975152D01*
X157630475Y-105975152D02*
X157554285Y-105937057D01*
X157554285Y-105937057D02*
X157363809Y-105937057D01*
X157363809Y-105937057D02*
X157287618Y-105975152D01*
X157287618Y-105975152D02*
X157249523Y-106013247D01*
X157249523Y-106013247D02*
X157211428Y-106089438D01*
X157211428Y-106089438D02*
X157211428Y-106279914D01*
X157211428Y-106279914D02*
X157249523Y-106356104D01*
X157249523Y-106356104D02*
X157287618Y-106394200D01*
X157287618Y-106394200D02*
X157363809Y-106432295D01*
X157363809Y-106432295D02*
X157554285Y-106432295D01*
X157554285Y-106432295D02*
X157630475Y-106394200D01*
X157630475Y-106394200D02*
X157668571Y-106356104D01*
D11*
X167160601Y-87883453D02*
X167644411Y-87883453D01*
X167644411Y-87883453D02*
X167692792Y-88367263D01*
X167692792Y-88367263D02*
X167644411Y-88318882D01*
X167644411Y-88318882D02*
X167547649Y-88270501D01*
X167547649Y-88270501D02*
X167305744Y-88270501D01*
X167305744Y-88270501D02*
X167208982Y-88318882D01*
X167208982Y-88318882D02*
X167160601Y-88367263D01*
X167160601Y-88367263D02*
X167112220Y-88464025D01*
X167112220Y-88464025D02*
X167112220Y-88705930D01*
X167112220Y-88705930D02*
X167160601Y-88802692D01*
X167160601Y-88802692D02*
X167208982Y-88851073D01*
X167208982Y-88851073D02*
X167305744Y-88899453D01*
X167305744Y-88899453D02*
X167547649Y-88899453D01*
X167547649Y-88899453D02*
X167644411Y-88851073D01*
X167644411Y-88851073D02*
X167692792Y-88802692D01*
X166821935Y-87883453D02*
X166483268Y-88899453D01*
X166483268Y-88899453D02*
X166144601Y-87883453D01*
D10*
X157983332Y-126912295D02*
X158249999Y-126531342D01*
X158440475Y-126912295D02*
X158440475Y-126112295D01*
X158440475Y-126112295D02*
X158135713Y-126112295D01*
X158135713Y-126112295D02*
X158059523Y-126150390D01*
X158059523Y-126150390D02*
X158021428Y-126188485D01*
X158021428Y-126188485D02*
X157983332Y-126264676D01*
X157983332Y-126264676D02*
X157983332Y-126378961D01*
X157983332Y-126378961D02*
X158021428Y-126455152D01*
X158021428Y-126455152D02*
X158059523Y-126493247D01*
X158059523Y-126493247D02*
X158135713Y-126531342D01*
X158135713Y-126531342D02*
X158440475Y-126531342D01*
X157297618Y-126378961D02*
X157297618Y-126912295D01*
X157488094Y-126074200D02*
X157678571Y-126645628D01*
X157678571Y-126645628D02*
X157183332Y-126645628D01*
D12*
%TO.C,R5*%
X158067064Y-105335000D02*
X157612936Y-105335000D01*
X158067064Y-106805000D02*
X157612936Y-106805000D01*
D13*
%TO.C,\u03BCC1*%
X172170003Y-138070003D02*
G75*
G02*
X171170000Y-139070003I-1000003J3D01*
G01*
X171170003Y-86070000D02*
G75*
G02*
X172170000Y-87070003I-3J-1000000D01*
G01*
X152169997Y-139069997D02*
G75*
G02*
X151170000Y-138069994I2J999999D01*
G01*
X151169997Y-87069997D02*
G75*
G02*
X152170000Y-86070000I999999J-2D01*
G01*
X172170000Y-87070000D02*
X172170000Y-138070000D01*
X171170000Y-139070000D02*
X152170000Y-139069994D01*
X152170000Y-86070000D02*
X171170000Y-86070000D01*
X151170000Y-138069994D02*
X151170000Y-87070000D01*
D12*
%TO.C,R4*%
X158077064Y-127285000D02*
X157622936Y-127285000D01*
X158077064Y-125815000D02*
X157622936Y-125815000D01*
%TD*%
M02*
