%TF.GenerationSoftware,KiCad,Pcbnew,9.0.1*%
%TF.CreationDate,2025-05-19T08:35:17+02:00*%
%TF.ProjectId,sdiskII_stm32,73646973-6b49-4495-9f73-746d33322e6b,6*%
%TF.SameCoordinates,Original*%
%TF.FileFunction,Soldermask,Top*%
%TF.FilePolarity,Negative*%
%FSLAX46Y46*%
G04 Gerber Fmt 4.6, Leading zero omitted, Abs format (unit mm)*
G04 Created by KiCad (PCBNEW 9.0.1) date 2025-05-19 08:35:17*
%MOMM*%
%LPD*%
G01*
G04 APERTURE LIST*
G04 Aperture macros list*
%AMRoundRect*
0 Rectangle with rounded corners*
0 $1 Rounding radius*
0 $2 $3 $4 $5 $6 $7 $8 $9 X,Y pos of 4 corners*
0 Add a 4 corners polygon primitive as box body*
4,1,4,$2,$3,$4,$5,$6,$7,$8,$9,$2,$3,0*
0 Add four circle primitives for the rounded corners*
1,1,$1+$1,$2,$3*
1,1,$1+$1,$4,$5*
1,1,$1+$1,$6,$7*
1,1,$1+$1,$8,$9*
0 Add four rect primitives between the rounded corners*
20,1,$1+$1,$2,$3,$4,$5,0*
20,1,$1+$1,$4,$5,$6,$7,0*
20,1,$1+$1,$6,$7,$8,$9,0*
20,1,$1+$1,$8,$9,$2,$3,0*%
%AMFreePoly0*
4,1,23,0.500000,-0.750000,0.000000,-0.750000,0.000000,-0.745722,-0.065263,-0.745722,-0.191342,-0.711940,-0.304381,-0.646677,-0.396677,-0.554381,-0.461940,-0.441342,-0.495722,-0.315263,-0.495722,-0.250000,-0.500000,-0.250000,-0.500000,0.250000,-0.495722,0.250000,-0.495722,0.315263,-0.461940,0.441342,-0.396677,0.554381,-0.304381,0.646677,-0.191342,0.711940,-0.065263,0.745722,0.000000,0.745722,
0.000000,0.750000,0.500000,0.750000,0.500000,-0.750000,0.500000,-0.750000,$1*%
%AMFreePoly1*
4,1,23,0.000000,0.745722,0.065263,0.745722,0.191342,0.711940,0.304381,0.646677,0.396677,0.554381,0.461940,0.441342,0.495722,0.315263,0.495722,0.250000,0.500000,0.250000,0.500000,-0.250000,0.495722,-0.250000,0.495722,-0.315263,0.461940,-0.441342,0.396677,-0.554381,0.304381,-0.646677,0.191342,-0.711940,0.065263,-0.745722,0.000000,-0.745722,0.000000,-0.750000,-0.500000,-0.750000,
-0.500000,0.750000,0.000000,0.750000,0.000000,0.745722,0.000000,0.745722,$1*%
G04 Aperture macros list end*
%ADD10RoundRect,0.250000X0.450000X-0.325000X0.450000X0.325000X-0.450000X0.325000X-0.450000X-0.325000X0*%
%ADD11C,1.700000*%
%ADD12R,1.524000X1.524000*%
%ADD13R,1.700000X1.700000*%
%ADD14RoundRect,0.250000X0.600000X-0.600000X0.600000X0.600000X-0.600000X0.600000X-0.600000X-0.600000X0*%
%ADD15R,1.600000X1.600000*%
%ADD16O,1.600000X1.600000*%
%ADD17O,1.700000X1.700000*%
%ADD18C,2.000000*%
%ADD19C,1.824000*%
%ADD20C,1.800000*%
%ADD21FreePoly0,180.000000*%
%ADD22FreePoly1,180.000000*%
%ADD23RoundRect,0.102000X-0.754000X-0.754000X0.754000X-0.754000X0.754000X0.754000X-0.754000X0.754000X0*%
%ADD24C,1.712000*%
%ADD25C,3.204000*%
%ADD26R,1.600000X1.400000*%
%ADD27C,1.000000*%
%ADD28R,1.200000X2.200000*%
%ADD29R,0.700000X1.600000*%
%ADD30R,1.200000X1.400000*%
G04 APERTURE END LIST*
D10*
%TO.C,D3*%
X201470000Y-111830000D03*
X201470000Y-109780000D03*
%TD*%
%TO.C,D2*%
X205000000Y-111840000D03*
X205000000Y-109790000D03*
%TD*%
D11*
%TO.C,\u03BCC1*%
X165480000Y-132890000D03*
X162940000Y-132890000D03*
X160400000Y-132890000D03*
D12*
X157860000Y-132890000D03*
D13*
X169290000Y-88440000D03*
D11*
X169290000Y-90980000D03*
X169290000Y-93520000D03*
X169290000Y-96060000D03*
X169290000Y-98600000D03*
X169290000Y-101140000D03*
X169290000Y-103680000D03*
X169290000Y-106220000D03*
X169290000Y-108760000D03*
X169290000Y-111300000D03*
X169290000Y-113840000D03*
X169290000Y-116380000D03*
X169290000Y-118920000D03*
X169290000Y-121460000D03*
X169290000Y-124000000D03*
X169290000Y-126540000D03*
X169290000Y-129080000D03*
X169290000Y-131620000D03*
X169290000Y-134160000D03*
X169290000Y-136700000D03*
X154050000Y-136700000D03*
X154050000Y-134160000D03*
X154050000Y-131620000D03*
X154050000Y-129080000D03*
X154050000Y-126540000D03*
X154050000Y-124000000D03*
X154050000Y-121460000D03*
X154050000Y-118920000D03*
X154050000Y-116380000D03*
X154050000Y-113840000D03*
X154050000Y-111300000D03*
X154050000Y-108760000D03*
X154050000Y-106220000D03*
X154050000Y-103680000D03*
X154050000Y-101140000D03*
X154050000Y-98600000D03*
X154050000Y-96060000D03*
X154050000Y-93520000D03*
X154050000Y-90980000D03*
D13*
X154050000Y-88440000D03*
%TD*%
D14*
%TO.C,J2*%
X178290000Y-92490000D03*
D11*
X178290000Y-89950000D03*
X180830000Y-92490000D03*
X180830000Y-89950000D03*
X183370000Y-92490000D03*
X183370000Y-89950000D03*
X185910000Y-92490000D03*
X185910000Y-89950000D03*
X188450000Y-92490000D03*
X188450000Y-89950000D03*
X190990000Y-92490000D03*
X190990000Y-89950000D03*
X193530000Y-92490000D03*
X193530000Y-89950000D03*
X196070000Y-92490000D03*
X196070000Y-89950000D03*
X198610000Y-92490000D03*
X198610000Y-89950000D03*
X201150000Y-92490000D03*
X201150000Y-89950000D03*
%TD*%
D15*
%TO.C,D1*%
X205000000Y-114840000D03*
D16*
X205000000Y-107220000D03*
%TD*%
D13*
%TO.C,J5*%
X134880000Y-116370000D03*
D11*
X134880000Y-118910000D03*
X134880000Y-121450000D03*
X134880000Y-123990000D03*
%TD*%
D13*
%TO.C,J3*%
X205030000Y-118910000D03*
D17*
X205030000Y-121450000D03*
X205030000Y-123990000D03*
X205030000Y-126530000D03*
X205030000Y-129070000D03*
X205030000Y-131610000D03*
%TD*%
D18*
%TO.C,UP1*%
X190040000Y-130950000D03*
X183540000Y-130950000D03*
X190040000Y-126450000D03*
X183540000Y-126450000D03*
%TD*%
D19*
%TO.C,BZ1*%
X140500000Y-131750000D03*
D20*
X147000000Y-131750000D03*
%TD*%
D13*
%TO.C,J4*%
X135240000Y-104975000D03*
D17*
X135240000Y-107515000D03*
X135240000Y-110055000D03*
%TD*%
D21*
%TO.C,JP1*%
X205650000Y-104680000D03*
D22*
X204350000Y-104680000D03*
%TD*%
D13*
%TO.C,J1*%
X205000000Y-98810000D03*
D17*
X205000000Y-101350000D03*
%TD*%
D18*
%TO.C,ENTR1*%
X198540000Y-129700000D03*
X198540000Y-136200000D03*
X194040000Y-129700000D03*
X194040000Y-136200000D03*
%TD*%
D13*
%TO.C,J6*%
X135000000Y-128180000D03*
D17*
X135000000Y-130720000D03*
X135000000Y-133260000D03*
X135000000Y-135800000D03*
%TD*%
D23*
%TO.C,U8*%
X182980000Y-98950000D03*
D24*
X185520000Y-98950000D03*
X188060000Y-98950000D03*
X190600000Y-98950000D03*
D25*
X175790000Y-99450000D03*
X197790000Y-99450000D03*
X197790000Y-121450000D03*
X175790000Y-121450000D03*
%TD*%
D26*
%TO.C,U2*%
X134540000Y-98750000D03*
D27*
X138340000Y-88850000D03*
X146340000Y-88850000D03*
D28*
X149140000Y-89250000D03*
D29*
X139140000Y-99350000D03*
X140240000Y-99350000D03*
X141340000Y-99350000D03*
X142440000Y-99350000D03*
X143540000Y-99350000D03*
X144640000Y-99350000D03*
X145740000Y-99350000D03*
X146840000Y-99350000D03*
X147940000Y-99350000D03*
D30*
X149140000Y-98750000D03*
D28*
X133640000Y-89150000D03*
%TD*%
D18*
%TO.C,RET1*%
X179540000Y-129700000D03*
X179540000Y-136200000D03*
X175040000Y-129700000D03*
X175040000Y-136200000D03*
%TD*%
%TO.C,DOWN1*%
X183540000Y-134950000D03*
X190040000Y-134950000D03*
X183540000Y-139450000D03*
X190040000Y-139450000D03*
%TD*%
M02*
