M48
; DRILL file {KiCad 9.0.1} date 2025-05-19T08:35:15+0200
; FORMAT={-:-/ absolute / inch / decimal}
; #@! TF.CreationDate,2025-05-19T08:35:15+02:00
; #@! TF.GenerationSoftware,Kicad,Pcbnew,9.0.1
; #@! TF.FileFunction,Plated,1,2,PTH
FMAT,2
INCH
; #@! TA.AperFunction,Plated,PTH,ViaDrill
T1C0.0118
; #@! TA.AperFunction,Plated,PTH,ComponentDrill
T2C0.0315
; #@! TA.AperFunction,Plated,PTH,ComponentDrill
T3C0.0394
; #@! TA.AperFunction,Plated,PTH,ComponentDrill
T4C0.0433
; #@! TA.AperFunction,Plated,PTH,ComponentDrill
T5C0.0787
%
G90
G05
T1
X5.2264Y-3.7992
X5.2264Y-3.9331
X5.3579Y-3.8268
X5.415Y-3.6319
X5.4917Y-4.1752
X5.5646Y-4.2559
X5.6945Y-4.0748
X5.8728Y-4.0
X6.1886Y-3.878
X6.3189Y-4.9577
X6.4366Y-4.878
X6.4937Y-4.9311
X6.537Y-4.2299
X6.537Y-4.2819
X6.6079Y-4.2299
X6.8572Y-4.2302
X7.2429Y-4.3988
X7.7067Y-3.7411
X7.8189Y-4.3988
X7.9134Y-3.7411
X7.9941Y-3.5236
T2
X8.0709Y-4.2213
X8.0709Y-4.5213
T3
X5.3102Y-4.5815
X5.3102Y-4.6815
X5.3102Y-4.7815
X5.3102Y-4.8815
X5.315Y-5.0465
X5.315Y-5.1465
X5.315Y-5.2465
X5.315Y-5.3465
X5.3244Y-4.1329
X5.3244Y-4.2329
X5.3244Y-4.3329
X5.5315Y-5.187
X5.7874Y-5.187
X6.065Y-3.4819
X6.065Y-3.5819
X6.065Y-3.6819
X6.065Y-3.7819
X6.065Y-3.8819
X6.065Y-3.9819
X6.065Y-4.0819
X6.065Y-4.1819
X6.065Y-4.2819
X6.065Y-4.3819
X6.065Y-4.4819
X6.065Y-4.5819
X6.065Y-4.6819
X6.065Y-4.7819
X6.065Y-4.8819
X6.065Y-4.9819
X6.065Y-5.0819
X6.065Y-5.1819
X6.065Y-5.2819
X6.065Y-5.3819
X6.215Y-5.2319
X6.315Y-5.2319
X6.415Y-5.2319
X6.515Y-5.2319
X6.665Y-3.4819
X6.665Y-3.5819
X6.665Y-3.6819
X6.665Y-3.7819
X6.665Y-3.8819
X6.665Y-3.9819
X6.665Y-4.0819
X6.665Y-4.1819
X6.665Y-4.2819
X6.665Y-4.3819
X6.665Y-4.4819
X6.665Y-4.5819
X6.665Y-4.6819
X6.665Y-4.7819
X6.665Y-4.8819
X6.665Y-4.9819
X6.665Y-5.0819
X6.665Y-5.1819
X6.665Y-5.2819
X6.665Y-5.3819
X7.0193Y-3.5413
X7.0193Y-3.6413
X7.1193Y-3.5413
X7.1193Y-3.6413
X7.2039Y-3.8957
X7.2193Y-3.5413
X7.2193Y-3.6413
X7.3039Y-3.8957
X7.3193Y-3.5413
X7.3193Y-3.6413
X7.4039Y-3.8957
X7.4193Y-3.5413
X7.4193Y-3.6413
X7.5039Y-3.8957
X7.5193Y-3.5413
X7.5193Y-3.6413
X7.6193Y-3.5413
X7.6193Y-3.6413
X7.7193Y-3.5413
X7.7193Y-3.6413
X7.8193Y-3.5413
X7.8193Y-3.6413
X7.9193Y-3.5413
X7.9193Y-3.6413
X8.0709Y-3.8902
X8.0709Y-3.9902
X8.072Y-4.6815
X8.072Y-4.7815
X8.072Y-4.8815
X8.072Y-4.9815
X8.072Y-5.0815
X8.072Y-5.1815
T4
X6.8913Y-5.1063
X6.8913Y-5.3622
X7.0685Y-5.1063
X7.0685Y-5.3622
X7.226Y-4.9783
X7.226Y-5.1555
X7.226Y-5.313
X7.226Y-5.4902
X7.4819Y-4.9783
X7.4819Y-5.1555
X7.4819Y-5.313
X7.4819Y-5.4902
X7.6394Y-5.1063
X7.6394Y-5.3622
X7.8165Y-5.1063
X7.8165Y-5.3622
T5
X6.9209Y-3.9154
X6.9209Y-4.7815
X7.787Y-3.9154
X7.787Y-4.7815
M30
