%TF.GenerationSoftware,KiCad,Pcbnew,8.0.5*%
%TF.CreationDate,2024-12-26T15:28:07+01:00*%
%TF.ProjectId,sdiskII_stm32,73646973-6b49-4495-9f73-746d33322e6b,3*%
%TF.SameCoordinates,Original*%
%TF.FileFunction,Copper,L2,Bot*%
%TF.FilePolarity,Positive*%
%FSLAX46Y46*%
G04 Gerber Fmt 4.6, Leading zero omitted, Abs format (unit mm)*
G04 Created by KiCad (PCBNEW 8.0.5) date 2024-12-26 15:28:07*
%MOMM*%
%LPD*%
G01*
G04 APERTURE LIST*
G04 Aperture macros list*
%AMRoundRect*
0 Rectangle with rounded corners*
0 $1 Rounding radius*
0 $2 $3 $4 $5 $6 $7 $8 $9 X,Y pos of 4 corners*
0 Add a 4 corners polygon primitive as box body*
4,1,4,$2,$3,$4,$5,$6,$7,$8,$9,$2,$3,0*
0 Add four circle primitives for the rounded corners*
1,1,$1+$1,$2,$3*
1,1,$1+$1,$4,$5*
1,1,$1+$1,$6,$7*
1,1,$1+$1,$8,$9*
0 Add four rect primitives between the rounded corners*
20,1,$1+$1,$2,$3,$4,$5,0*
20,1,$1+$1,$4,$5,$6,$7,0*
20,1,$1+$1,$6,$7,$8,$9,0*
20,1,$1+$1,$8,$9,$2,$3,0*%
G04 Aperture macros list end*
%TA.AperFunction,ComponentPad*%
%ADD10RoundRect,0.250000X0.600000X-0.600000X0.600000X0.600000X-0.600000X0.600000X-0.600000X-0.600000X0*%
%TD*%
%TA.AperFunction,ComponentPad*%
%ADD11C,1.700000*%
%TD*%
%TA.AperFunction,ComponentPad*%
%ADD12R,1.700000X1.700000*%
%TD*%
%TA.AperFunction,ComponentPad*%
%ADD13O,1.700000X1.700000*%
%TD*%
%TA.AperFunction,ComponentPad*%
%ADD14C,2.000000*%
%TD*%
%TA.AperFunction,ComponentPad*%
%ADD15C,1.824000*%
%TD*%
%TA.AperFunction,ComponentPad*%
%ADD16C,1.800000*%
%TD*%
%TA.AperFunction,ComponentPad*%
%ADD17R,1.524000X1.524000*%
%TD*%
%TA.AperFunction,ComponentPad*%
%ADD18R,1.508000X1.508000*%
%TD*%
%TA.AperFunction,ComponentPad*%
%ADD19C,1.508000*%
%TD*%
%TA.AperFunction,ComponentPad*%
%ADD20C,3.000000*%
%TD*%
%TA.AperFunction,ViaPad*%
%ADD21C,1.000000*%
%TD*%
%TA.AperFunction,ViaPad*%
%ADD22C,0.600000*%
%TD*%
%TA.AperFunction,Conductor*%
%ADD23C,0.500000*%
%TD*%
%TA.AperFunction,Conductor*%
%ADD24C,0.250000*%
%TD*%
G04 APERTURE END LIST*
D10*
%TO.P,J2,1,Pin_1*%
%TO.N,GND*%
X178290000Y-92490000D03*
D11*
%TO.P,J2,2,Pin_2*%
%TO.N,STEP0*%
X178290000Y-89950000D03*
%TO.P,J2,3,Pin_3*%
%TO.N,GND*%
X180830000Y-92490000D03*
%TO.P,J2,4,Pin_4*%
%TO.N,STEP1*%
X180830000Y-89950000D03*
%TO.P,J2,5,Pin_5*%
%TO.N,GND*%
X183370000Y-92490000D03*
%TO.P,J2,6,Pin_6*%
%TO.N,STEP2*%
X183370000Y-89950000D03*
%TO.P,J2,7,Pin_7*%
%TO.N,3.5DSK*%
X185910000Y-92490000D03*
%TO.P,J2,8,Pin_8*%
%TO.N,STEP3*%
X185910000Y-89950000D03*
%TO.P,J2,9,Pin_9*%
%TO.N,unconnected-(J2-Pin_9-Pad9)*%
X188450000Y-92490000D03*
%TO.P,J2,10,Pin_10*%
%TO.N,WR_REQ*%
X188450000Y-89950000D03*
%TO.P,J2,11,Pin_11*%
%TO.N,VCC*%
X190990000Y-92490000D03*
%TO.P,J2,12,Pin_12*%
%TO.N,SELECT*%
X190990000Y-89950000D03*
%TO.P,J2,13,Pin_13*%
%TO.N,unconnected-(J2-Pin_13-Pad13)*%
X193530000Y-92490000D03*
%TO.P,J2,14,Pin_14*%
%TO.N,DEVICE_ENABLE*%
X193530000Y-89950000D03*
%TO.P,J2,15,Pin_15*%
%TO.N,unconnected-(J2-Pin_15-Pad15)*%
X196070000Y-92490000D03*
%TO.P,J2,16,Pin_16*%
%TO.N,RD_DATA*%
X196070000Y-89950000D03*
%TO.P,J2,17,Pin_17*%
%TO.N,unconnected-(J2-Pin_17-Pad17)*%
X198610000Y-92490000D03*
%TO.P,J2,18,Pin_18*%
%TO.N,WR_DATA*%
X198610000Y-89950000D03*
%TO.P,J2,19,Pin_19*%
%TO.N,unconnected-(J2-Pin_19-Pad19)*%
X201150000Y-92490000D03*
%TO.P,J2,20,Pin_20*%
%TO.N,WR_PROTECT*%
X201150000Y-89950000D03*
%TD*%
D12*
%TO.P,J3,1,Pin_1*%
%TO.N,RD_DATA*%
X205000000Y-113050000D03*
D13*
%TO.P,J3,2,Pin_2*%
%TO.N,WR_REQ*%
X205000000Y-115590000D03*
%TO.P,J3,3,Pin_3*%
%TO.N,DEVICE_ENABLE*%
X205000000Y-118130000D03*
%TO.P,J3,4,Pin_4*%
%TO.N,WR_PROTECT*%
X205000000Y-120670000D03*
%TO.P,J3,5,Pin_5*%
%TO.N,WR_DATA*%
X205000000Y-123210000D03*
%TO.P,J3,6,Pin_6*%
%TO.N,GND*%
X205000000Y-125750000D03*
%TD*%
D14*
%TO.P,UP1,1,1*%
%TO.N,+3.3V*%
X190040000Y-130950000D03*
X183540000Y-130950000D03*
%TO.P,UP1,2,2*%
%TO.N,BTN_UP*%
X190040000Y-126450000D03*
X183540000Y-126450000D03*
%TD*%
D12*
%TO.P,DEBUG,1,Pin_1*%
%TO.N,TIM2_CH3*%
X135000000Y-116500000D03*
D13*
%TO.P,DEBUG,2,Pin_2*%
%TO.N,TIM3_CH4*%
X135000000Y-119040000D03*
%TO.P,DEBUG,3,Pin_3*%
%TO.N,DEBUG*%
X135000000Y-121580000D03*
%TO.P,DEBUG,4,Pin_4*%
%TO.N,GND*%
X135000000Y-124120000D03*
%TD*%
D15*
%TO.P,BZ1,1,+*%
%TO.N,TIM1_CH2N*%
X140500000Y-131750000D03*
D16*
%TO.P,BZ1,2,-*%
%TO.N,GND*%
X147000000Y-131750000D03*
%TD*%
D12*
%TO.P,J4,1,Pin_1*%
%TO.N,USART1_TX*%
X135240000Y-104975000D03*
D13*
%TO.P,J4,2,Pin_2*%
%TO.N,USART1_RX*%
X135240000Y-107515000D03*
%TO.P,J4,3,Pin_3*%
%TO.N,GND*%
X135240000Y-110055000D03*
%TD*%
D12*
%TO.P,\u03BCC1,1,B12*%
%TO.N,BTN_RET*%
X154050000Y-88440000D03*
D11*
%TO.P,\u03BCC1,2,B13*%
%TO.N,SD_EJECT*%
X154050000Y-90980000D03*
%TO.P,\u03BCC1,3,B14*%
%TO.N,TIM1_CH2N*%
X154050000Y-93520000D03*
%TO.P,\u03BCC1,4,B15*%
%TO.N,SDIO_CK*%
X154050000Y-96060000D03*
%TO.P,\u03BCC1,5,A8*%
%TO.N,SDIO_D1*%
X154050000Y-98600000D03*
%TO.P,\u03BCC1,6,A9*%
%TO.N,SDIO_D2*%
X154050000Y-101140000D03*
%TO.P,\u03BCC1,7,A10*%
%TO.N,DEBUG*%
X154050000Y-103680000D03*
%TO.P,\u03BCC1,8,A11*%
%TO.N,3.5DSK*%
X154050000Y-106220000D03*
%TO.P,\u03BCC1,9,A12*%
%TO.N,unconnected-(\u03BCC1-A12-Pad9)*%
X154050000Y-108760000D03*
%TO.P,\u03BCC1,10,A15*%
%TO.N,USART1_TX*%
X154050000Y-111300000D03*
%TO.P,\u03BCC1,11,B3*%
%TO.N,USART1_RX*%
X154050000Y-113840000D03*
%TO.P,\u03BCC1,12,B4*%
%TO.N,SDIO_DO*%
X154050000Y-116380000D03*
%TO.P,\u03BCC1,13,B5*%
%TO.N,SDIO_D3*%
X154050000Y-118920000D03*
%TO.P,\u03BCC1,14,B6*%
%TO.N,I2C_SCL*%
X154050000Y-121460000D03*
%TO.P,\u03BCC1,15,B7*%
%TO.N,I2C_SDA*%
X154050000Y-124000000D03*
%TO.P,\u03BCC1,16,B8*%
%TO.N,SELECT*%
X154050000Y-126540000D03*
%TO.P,\u03BCC1,17,B9*%
%TO.N,WR_REQ*%
X154050000Y-129080000D03*
%TO.P,\u03BCC1,18,5Vi*%
%TO.N,PWR_IN*%
X154050000Y-131620000D03*
%TO.P,\u03BCC1,19,GNDi*%
%TO.N,GND*%
X154050000Y-134160000D03*
%TO.P,\u03BCC1,20,3.3i*%
%TO.N,+3.3V*%
X154050000Y-136700000D03*
%TO.P,\u03BCC1,21,VB*%
%TO.N,unconnected-(\u03BCC1-VB-Pad21)*%
X169290000Y-136700000D03*
%TO.P,\u03BCC1,22,C13*%
%TO.N,BTN_DOWN*%
X169290000Y-134160000D03*
%TO.P,\u03BCC1,23,C14*%
%TO.N,BTN_UP*%
X169290000Y-131620000D03*
%TO.P,\u03BCC1,24,C15*%
%TO.N,BTN_ENTR*%
X169290000Y-129080000D03*
%TO.P,\u03BCC1,25,R*%
%TO.N,unconnected-(\u03BCC1-R-Pad25)*%
X169290000Y-126540000D03*
%TO.P,\u03BCC1,26,A0*%
%TO.N,STEP0*%
X169290000Y-124000000D03*
%TO.P,\u03BCC1,27,A1*%
%TO.N,STEP1*%
X169290000Y-121460000D03*
%TO.P,\u03BCC1,28,A2*%
%TO.N,STEP2*%
X169290000Y-118920000D03*
%TO.P,\u03BCC1,29,A3*%
%TO.N,STEP3*%
X169290000Y-116380000D03*
%TO.P,\u03BCC1,30,A4*%
%TO.N,DEVICE_ENABLE*%
X169290000Y-113840000D03*
%TO.P,\u03BCC1,31,A5*%
%TO.N,WR_DATA*%
X169290000Y-111300000D03*
%TO.P,\u03BCC1,32,A6*%
%TO.N,SDIO_CMD*%
X169290000Y-108760000D03*
%TO.P,\u03BCC1,33,A7*%
%TO.N,WR_DATA*%
X169290000Y-106220000D03*
%TO.P,\u03BCC1,34,B0*%
%TO.N,RD_DATA*%
X169290000Y-103680000D03*
%TO.P,\u03BCC1,35,B1*%
%TO.N,TIM3_CH4*%
X169290000Y-101140000D03*
%TO.P,\u03BCC1,36,B2*%
%TO.N,WR_PROTECT*%
X169290000Y-98600000D03*
%TO.P,\u03BCC1,37,B10*%
%TO.N,TIM2_CH3*%
X169290000Y-96060000D03*
%TO.P,\u03BCC1,38,3.3ii*%
%TO.N,unconnected-(\u03BCC1-3.3ii-Pad38)*%
X169290000Y-93520000D03*
%TO.P,\u03BCC1,39,GNDii*%
%TO.N,GND*%
X169290000Y-90980000D03*
D12*
%TO.P,\u03BCC1,40,5Vii*%
%TO.N,unconnected-(\u03BCC1-5Vii-Pad40)*%
X169290000Y-88440000D03*
D17*
%TO.P,\u03BCC1,41,3.3V*%
%TO.N,+3.3V*%
X157860000Y-132890000D03*
D11*
%TO.P,\u03BCC1,42,SDIO*%
%TO.N,SDIO*%
X160400000Y-132890000D03*
%TO.P,\u03BCC1,43,SCK*%
%TO.N,SCK*%
X162940000Y-132890000D03*
%TO.P,\u03BCC1,44,GND*%
%TO.N,GND*%
X165480000Y-132890000D03*
%TD*%
D12*
%TO.P,J1,1,Pin_1*%
%TO.N,VCC*%
X205000000Y-98810000D03*
D13*
%TO.P,J1,2,Pin_2*%
%TO.N,PWR_IN*%
X205000000Y-101350000D03*
%TD*%
D14*
%TO.P,ENTR1,1,1*%
%TO.N,+3.3V*%
X198540000Y-129700000D03*
X198540000Y-136200000D03*
%TO.P,ENTR1,2,2*%
%TO.N,BTN_ENTR*%
X194040000Y-129700000D03*
X194040000Y-136200000D03*
%TD*%
D12*
%TO.P,J6,1,Pin_1*%
%TO.N,+3.3V*%
X135000000Y-128180000D03*
D13*
%TO.P,J6,2,Pin_2*%
%TO.N,SDIO*%
X135000000Y-130720000D03*
%TO.P,J6,3,Pin_3*%
%TO.N,SCK*%
X135000000Y-133260000D03*
%TO.P,J6,4,Pin_4*%
%TO.N,GND*%
X135000000Y-135800000D03*
%TD*%
D18*
%TO.P,U8,1,GND*%
%TO.N,GND*%
X182980000Y-98950000D03*
D19*
%TO.P,U8,2,VCC_IN*%
%TO.N,+3.3V*%
X185520000Y-98950000D03*
%TO.P,U8,3,SCL*%
%TO.N,I2C_SCL*%
X188060000Y-98950000D03*
%TO.P,U8,4,SDA*%
%TO.N,I2C_SDA*%
X190600000Y-98950000D03*
D20*
%TO.P,U8,S1*%
%TO.N,N/C*%
X175790000Y-99450000D03*
%TO.P,U8,S2*%
X197790000Y-99450000D03*
%TO.P,U8,S3*%
X197790000Y-121450000D03*
%TO.P,U8,S4*%
X175790000Y-121450000D03*
%TD*%
D14*
%TO.P,RET1,1,1*%
%TO.N,+3.3V*%
X179540000Y-129700000D03*
X179540000Y-136200000D03*
%TO.P,RET1,2,2*%
%TO.N,BTN_RET*%
X175040000Y-129700000D03*
X175040000Y-136200000D03*
%TD*%
%TO.P,DOWN1,1,1*%
%TO.N,+3.3V*%
X183540000Y-134950000D03*
X190040000Y-134950000D03*
%TO.P,DOWN1,2,2*%
%TO.N,BTN_DOWN*%
X183540000Y-139450000D03*
X190040000Y-139450000D03*
%TD*%
D21*
%TO.N,GND*%
X144640000Y-103500000D03*
X137540000Y-92250000D03*
D22*
%TO.N,WR_REQ*%
X157190000Y-98500000D03*
%TO.N,WR_PROTECT*%
X201000000Y-95025000D03*
X195750000Y-95025000D03*
%TO.N,RD_DATA*%
X203050000Y-89500000D03*
%TO.N,SDIO_CMD*%
X141340000Y-108100000D03*
X166040000Y-108760000D03*
%TO.N,SDIO_D2*%
X139490000Y-106050000D03*
%TO.N,DEBUG*%
X132750000Y-99900000D03*
X132750000Y-96500000D03*
%TO.N,TIM3_CH4*%
X164940000Y-125250000D03*
%TO.N,SELECT*%
X160500000Y-125925000D03*
%TO.N,TIM2_CH3*%
X163490000Y-123900000D03*
%TD*%
D23*
%TO.N,GND*%
X132715000Y-111475000D02*
X134135000Y-110055000D01*
X132990000Y-103300000D02*
X132990000Y-109000000D01*
X178290000Y-92490000D02*
X180830000Y-92490000D01*
X134045000Y-110055000D02*
X135240000Y-110055000D01*
X170800000Y-92490000D02*
X169290000Y-90980000D01*
X135440000Y-102800000D02*
X133490000Y-102800000D01*
X133090000Y-137900000D02*
X132715000Y-137525000D01*
X144640000Y-103500000D02*
X143740000Y-104400000D01*
X154050000Y-134160000D02*
X149610000Y-138600000D01*
X132715000Y-126750000D02*
X132715000Y-111475000D01*
X132990000Y-109000000D02*
X134045000Y-110055000D01*
X178290000Y-92490000D02*
X170800000Y-92490000D01*
X132715000Y-126405000D02*
X132715000Y-126750000D01*
X133090000Y-137900000D02*
X135190000Y-135800000D01*
X180830000Y-92490000D02*
X183370000Y-92490000D01*
X137540000Y-92250000D02*
X136090000Y-93700000D01*
X132715000Y-137525000D02*
X132715000Y-126750000D01*
X136090000Y-102150000D02*
X135440000Y-102800000D01*
X134135000Y-110055000D02*
X135240000Y-110055000D01*
X136090000Y-93700000D02*
X136090000Y-102150000D01*
X133490000Y-102800000D02*
X132990000Y-103300000D01*
X135000000Y-124120000D02*
X132715000Y-126405000D01*
X149610000Y-138600000D02*
X133790000Y-138600000D01*
X143740000Y-104400000D02*
X141090000Y-104400000D01*
X141090000Y-104400000D02*
X139490000Y-102800000D01*
X133790000Y-138600000D02*
X133090000Y-137900000D01*
X139490000Y-102800000D02*
X135440000Y-102800000D01*
D24*
%TO.N,3.5DSK*%
X168835000Y-89665000D02*
X170515000Y-89665000D01*
X184685000Y-89532588D02*
X184685000Y-91265000D01*
X183452412Y-88300000D02*
X184685000Y-89532588D01*
X155275000Y-104995000D02*
X155275000Y-103225000D01*
X171880000Y-88300000D02*
X183452412Y-88300000D01*
X184685000Y-91265000D02*
X185910000Y-92490000D01*
X170515000Y-89665000D02*
X171880000Y-88300000D01*
X155275000Y-103225000D02*
X168835000Y-89665000D01*
X154050000Y-106220000D02*
X155275000Y-104995000D01*
%TO.N,WR_REQ*%
X201547106Y-86950000D02*
X206750000Y-92152894D01*
X191450000Y-86950000D02*
X201547106Y-86950000D01*
X166990000Y-86950000D02*
X185450000Y-86950000D01*
X206750000Y-113840000D02*
X205000000Y-115590000D01*
X185450000Y-86950000D02*
X188450000Y-89950000D01*
X157190000Y-96750000D02*
X166990000Y-86950000D01*
X206750000Y-92152894D02*
X206750000Y-113840000D01*
X188450000Y-89950000D02*
X191450000Y-86950000D01*
X157190000Y-98500000D02*
X157190000Y-96750000D01*
%TO.N,WR_PROTECT*%
X195750000Y-95025000D02*
X173815000Y-95025000D01*
X201000000Y-95025000D02*
X201250000Y-95275000D01*
X173815000Y-95025000D02*
X170240000Y-98600000D01*
X201250000Y-95275000D02*
X201250000Y-116920000D01*
X204840000Y-120000000D02*
X204840000Y-120410000D01*
X201250000Y-116920000D02*
X205000000Y-120670000D01*
X170240000Y-98600000D02*
X169290000Y-98600000D01*
%TO.N,BTN_RET*%
X131990000Y-137950000D02*
X133440000Y-139400000D01*
X171840000Y-139400000D02*
X175040000Y-136200000D01*
X133440000Y-139400000D02*
X171840000Y-139400000D01*
X153110000Y-87500000D02*
X133100000Y-87500000D01*
X133100000Y-87500000D02*
X131990000Y-88610000D01*
X131990000Y-88610000D02*
X131990000Y-137950000D01*
X154050000Y-88440000D02*
X153110000Y-87500000D01*
%TO.N,WR_DATA*%
X199835000Y-91175000D02*
X198610000Y-89950000D01*
X198300000Y-97200000D02*
X200500000Y-99400000D01*
X198300000Y-97200000D02*
X199835000Y-95665000D01*
X176520000Y-106220000D02*
X171440000Y-111300000D01*
X200500000Y-118710000D02*
X205000000Y-123210000D01*
X170040000Y-106200000D02*
X169514000Y-106726000D01*
X171440000Y-111300000D02*
X169290000Y-111300000D01*
X176520000Y-106220000D02*
X177540000Y-105200000D01*
X177540000Y-102050000D02*
X182390000Y-97200000D01*
X177540000Y-105200000D02*
X177540000Y-102050000D01*
X200500000Y-99400000D02*
X200500000Y-118710000D01*
X199835000Y-95665000D02*
X199835000Y-91175000D01*
X182390000Y-97200000D02*
X198300000Y-97200000D01*
X169985592Y-106200000D02*
X169647796Y-105862204D01*
X170040000Y-106200000D02*
X169985592Y-106200000D01*
X176520000Y-106220000D02*
X169290000Y-106220000D01*
%TO.N,RD_DATA*%
X204940000Y-112820000D02*
X204940000Y-112950000D01*
X171740000Y-101230000D02*
X169290000Y-103680000D01*
X175890000Y-95700000D02*
X171740000Y-99850000D01*
X196070000Y-89950000D02*
X197295000Y-91175000D01*
X197295000Y-91175000D02*
X197295000Y-94705000D01*
X203050000Y-89500000D02*
X203000000Y-89550000D01*
X203000000Y-111050000D02*
X205000000Y-113050000D01*
X203000000Y-89550000D02*
X203000000Y-111050000D01*
X196300000Y-95700000D02*
X175890000Y-95700000D01*
X197295000Y-94705000D02*
X196300000Y-95700000D01*
X168594408Y-103700000D02*
X168932204Y-104037796D01*
X171740000Y-99850000D02*
X171740000Y-101230000D01*
%TO.N,I2C_SDA*%
X168782588Y-117695000D02*
X168777588Y-117700000D01*
X169802412Y-117700000D02*
X169797412Y-117695000D01*
X168777588Y-117700000D02*
X161090000Y-117700000D01*
X169797412Y-117695000D02*
X168782588Y-117695000D01*
X161090000Y-117700000D02*
X154790000Y-124000000D01*
X176090000Y-117700000D02*
X169802412Y-117700000D01*
X190600000Y-98950000D02*
X190600000Y-103190000D01*
X190600000Y-103190000D02*
X176090000Y-117700000D01*
X154790000Y-124000000D02*
X154050000Y-124000000D01*
%TO.N,USART1_RX*%
X141565000Y-113840000D02*
X154050000Y-113840000D01*
X135240000Y-107515000D02*
X141565000Y-113840000D01*
%TO.N,I2C_SCL*%
X188060000Y-98950000D02*
X188060000Y-102480000D01*
X160360000Y-115150000D02*
X154050000Y-121460000D01*
X188060000Y-102480000D02*
X175390000Y-115150000D01*
X175390000Y-115150000D02*
X160360000Y-115150000D01*
%TO.N,USART1_TX*%
X141565000Y-111300000D02*
X154050000Y-111300000D01*
X135240000Y-104975000D02*
X141565000Y-111300000D01*
%TO.N,SDIO_CMD*%
X164815000Y-109985000D02*
X166040000Y-108760000D01*
X142975000Y-109985000D02*
X164815000Y-109985000D01*
X141340000Y-108100000D02*
X141340000Y-108350000D01*
X141340000Y-108350000D02*
X142975000Y-109985000D01*
%TO.N,SDIO_D2*%
X154000000Y-101140000D02*
X154050000Y-101140000D01*
X148490000Y-106650000D02*
X154000000Y-101140000D01*
X140090000Y-106650000D02*
X148490000Y-106650000D01*
X139490000Y-106050000D02*
X140090000Y-106650000D01*
%TO.N,DEBUG*%
X132750000Y-99900000D02*
X132750000Y-96500000D01*
%TO.N,TIM3_CH4*%
X164940000Y-125250000D02*
X162390000Y-127800000D01*
X143830000Y-127800000D02*
X135240000Y-119210000D01*
X162390000Y-127800000D02*
X143830000Y-127800000D01*
%TO.N,SELECT*%
X159885000Y-126540000D02*
X154050000Y-126540000D01*
X160500000Y-125925000D02*
X159885000Y-126540000D01*
%TO.N,DEVICE_ENABLE*%
X191290000Y-93950000D02*
X172000000Y-93950000D01*
X192290000Y-91190000D02*
X192290000Y-92950000D01*
X202000000Y-93372412D02*
X202000000Y-115130000D01*
X171200000Y-94750000D02*
X168340000Y-94750000D01*
X202040000Y-88150000D02*
X202375000Y-88485000D01*
X202000000Y-115130000D02*
X205000000Y-118130000D01*
X168340000Y-94750000D02*
X167390000Y-95700000D01*
X195330000Y-88150000D02*
X202040000Y-88150000D01*
X172000000Y-93950000D02*
X171200000Y-94750000D01*
X202375000Y-88485000D02*
X202375000Y-92997412D01*
X167390000Y-111940000D02*
X169290000Y-113840000D01*
X192290000Y-92950000D02*
X191290000Y-93950000D01*
X167390000Y-95700000D02*
X167390000Y-111940000D01*
X202375000Y-92997412D02*
X202000000Y-93372412D01*
X193530000Y-89950000D02*
X192290000Y-91190000D01*
X193530000Y-89950000D02*
X195330000Y-88150000D01*
X204840000Y-117870000D02*
X204840000Y-117340000D01*
%TO.N,TIM2_CH3*%
X162140000Y-125250000D02*
X143820000Y-125250000D01*
X163490000Y-123900000D02*
X162140000Y-125250000D01*
X143820000Y-125250000D02*
X135240000Y-116670000D01*
%TO.N,SCK*%
X156622412Y-135000000D02*
X154557412Y-132935000D01*
X135515000Y-132935000D02*
X135190000Y-133260000D01*
X148750000Y-134000000D02*
X138750000Y-134000000D01*
X138010000Y-133260000D02*
X135240000Y-133260000D01*
X162940000Y-132890000D02*
X160830000Y-135000000D01*
X149815000Y-132935000D02*
X148750000Y-134000000D01*
X160830000Y-135000000D02*
X156622412Y-135000000D01*
X154557412Y-132935000D02*
X149815000Y-132935000D01*
X138750000Y-134000000D02*
X138010000Y-133260000D01*
%TO.N,SDIO*%
X137780000Y-130720000D02*
X135240000Y-130720000D01*
X149250000Y-129750000D02*
X138750000Y-129750000D01*
X149895000Y-130395000D02*
X149250000Y-129750000D01*
X138750000Y-129750000D02*
X137780000Y-130720000D01*
X160400000Y-132890000D02*
X157905000Y-130395000D01*
X135655000Y-130305000D02*
X135240000Y-130720000D01*
X157905000Y-130395000D02*
X149895000Y-130395000D01*
X135605000Y-130305000D02*
X135190000Y-130720000D01*
%TD*%
%TA.AperFunction,Conductor*%
%TO.N,GND*%
G36*
X144187473Y-103312536D02*
G01*
X144636203Y-103497437D01*
X144642546Y-103503757D01*
X144642563Y-103503797D01*
X144827462Y-103952523D01*
X144827445Y-103961477D01*
X144822549Y-103967080D01*
X144117465Y-104379326D01*
X144108594Y-104380544D01*
X144103287Y-104377499D01*
X143762500Y-104036712D01*
X143759073Y-104028439D01*
X143760671Y-104022538D01*
X144172919Y-103317449D01*
X144180053Y-103312037D01*
X144187473Y-103312536D01*
G37*
%TD.AperFunction*%
%TD*%
%TA.AperFunction,Conductor*%
%TO.N,GND*%
G36*
X137087473Y-92062536D02*
G01*
X137536203Y-92247437D01*
X137542546Y-92253757D01*
X137542563Y-92253797D01*
X137727462Y-92702523D01*
X137727445Y-92711477D01*
X137722549Y-92717080D01*
X137017465Y-93129326D01*
X137008594Y-93130544D01*
X137003287Y-93127499D01*
X136662500Y-92786712D01*
X136659073Y-92778439D01*
X136660671Y-92772538D01*
X137072919Y-92067449D01*
X137080053Y-92062037D01*
X137087473Y-92062536D01*
G37*
%TD.AperFunction*%
%TD*%
%TA.AperFunction,Conductor*%
%TO.N,WR_REQ*%
G36*
X157314680Y-97903427D02*
G01*
X157317571Y-97908199D01*
X157463970Y-98375012D01*
X157463176Y-98383931D01*
X157457317Y-98389309D01*
X157194511Y-98499115D01*
X157185556Y-98499142D01*
X157185489Y-98499115D01*
X156922682Y-98389309D01*
X156916370Y-98382957D01*
X156916029Y-98375013D01*
X157062429Y-97908199D01*
X157068175Y-97901330D01*
X157073593Y-97900000D01*
X157306407Y-97900000D01*
X157314680Y-97903427D01*
G37*
%TD.AperFunction*%
%TD*%
%TA.AperFunction,Conductor*%
%TO.N,WR_PROTECT*%
G36*
X195633931Y-94751823D02*
G01*
X195639309Y-94757682D01*
X195749115Y-95020489D01*
X195749142Y-95029444D01*
X195749115Y-95029511D01*
X195639309Y-95292317D01*
X195632957Y-95298629D01*
X195625012Y-95298970D01*
X195158199Y-95152571D01*
X195151330Y-95146825D01*
X195150000Y-95141407D01*
X195150000Y-94908592D01*
X195153427Y-94900319D01*
X195158196Y-94897429D01*
X195625013Y-94751029D01*
X195633931Y-94751823D01*
G37*
%TD.AperFunction*%
%TD*%
%TA.AperFunction,Conductor*%
%TO.N,SDIO_CMD*%
G36*
X165772707Y-108649248D02*
G01*
X166036184Y-108757436D01*
X166042536Y-108763748D01*
X166042563Y-108763815D01*
X166150751Y-109027292D01*
X166150724Y-109036247D01*
X166145346Y-109042106D01*
X165711740Y-109268673D01*
X165702821Y-109269467D01*
X165698049Y-109266576D01*
X165533423Y-109101950D01*
X165529996Y-109093677D01*
X165531324Y-109088264D01*
X165757894Y-108654651D01*
X165764762Y-108648907D01*
X165772707Y-108649248D01*
G37*
%TD.AperFunction*%
%TD*%
%TA.AperFunction,Conductor*%
%TO.N,SDIO_CMD*%
G36*
X141629454Y-108099975D02*
G01*
X141637719Y-108103421D01*
X141641066Y-108110492D01*
X141681663Y-108509920D01*
X141679090Y-108518497D01*
X141678296Y-108519376D01*
X141513749Y-108683923D01*
X141505476Y-108687350D01*
X141497203Y-108683923D01*
X141497175Y-108683896D01*
X141136059Y-108320377D01*
X141132660Y-108312092D01*
X141136058Y-108303887D01*
X141335851Y-108102757D01*
X141344111Y-108099304D01*
X141629454Y-108099975D01*
G37*
%TD.AperFunction*%
%TD*%
%TA.AperFunction,Conductor*%
%TO.N,SDIO_D2*%
G36*
X139766247Y-105939275D02*
G01*
X139772105Y-105944652D01*
X139971974Y-106327164D01*
X139998673Y-106378259D01*
X139999467Y-106387178D01*
X139996576Y-106391950D01*
X139831950Y-106556576D01*
X139823677Y-106560003D01*
X139818260Y-106558673D01*
X139384652Y-106332105D01*
X139378907Y-106325237D01*
X139379247Y-106317293D01*
X139487436Y-106053814D01*
X139493746Y-106047464D01*
X139757293Y-105939248D01*
X139766247Y-105939275D01*
G37*
%TD.AperFunction*%
%TD*%
%TA.AperFunction,Conductor*%
%TO.N,TIM3_CH4*%
G36*
X164672707Y-125139248D02*
G01*
X164936184Y-125247436D01*
X164942536Y-125253748D01*
X164942563Y-125253815D01*
X165050751Y-125517292D01*
X165050724Y-125526247D01*
X165045346Y-125532106D01*
X164611740Y-125758673D01*
X164602821Y-125759467D01*
X164598049Y-125756576D01*
X164433423Y-125591950D01*
X164429996Y-125583677D01*
X164431324Y-125578264D01*
X164657894Y-125144651D01*
X164664762Y-125138907D01*
X164672707Y-125139248D01*
G37*
%TD.AperFunction*%
%TD*%
%TA.AperFunction,Conductor*%
%TO.N,SELECT*%
G36*
X160232707Y-125814248D02*
G01*
X160496184Y-125922436D01*
X160502536Y-125928748D01*
X160502563Y-125928815D01*
X160610751Y-126192292D01*
X160610724Y-126201247D01*
X160605346Y-126207106D01*
X160171740Y-126433673D01*
X160162821Y-126434467D01*
X160158049Y-126431576D01*
X159993423Y-126266950D01*
X159989996Y-126258677D01*
X159991324Y-126253264D01*
X160217894Y-125819651D01*
X160224762Y-125813907D01*
X160232707Y-125814248D01*
G37*
%TD.AperFunction*%
%TD*%
%TA.AperFunction,Conductor*%
%TO.N,TIM2_CH3*%
G36*
X163222707Y-123789248D02*
G01*
X163486184Y-123897436D01*
X163492536Y-123903748D01*
X163492563Y-123903815D01*
X163600751Y-124167292D01*
X163600724Y-124176247D01*
X163595346Y-124182106D01*
X163161740Y-124408673D01*
X163152821Y-124409467D01*
X163148049Y-124406576D01*
X162983423Y-124241950D01*
X162979996Y-124233677D01*
X162981324Y-124228264D01*
X163207894Y-123794651D01*
X163214762Y-123788907D01*
X163222707Y-123789248D01*
G37*
%TD.AperFunction*%
%TD*%
M02*
