%TF.GenerationSoftware,KiCad,Pcbnew,9.0.3*%
%TF.CreationDate,2025-08-20T09:57:48+02:00*%
%TF.ProjectId,sdiskII_stm32,73646973-6b49-4495-9f73-746d33322e6b,7*%
%TF.SameCoordinates,Original*%
%TF.FileFunction,Copper,L1,Top*%
%TF.FilePolarity,Positive*%
%FSLAX46Y46*%
G04 Gerber Fmt 4.6, Leading zero omitted, Abs format (unit mm)*
G04 Created by KiCad (PCBNEW 9.0.3) date 2025-08-20 09:57:48*
%MOMM*%
%LPD*%
G01*
G04 APERTURE LIST*
G04 Aperture macros list*
%AMRoundRect*
0 Rectangle with rounded corners*
0 $1 Rounding radius*
0 $2 $3 $4 $5 $6 $7 $8 $9 X,Y pos of 4 corners*
0 Add a 4 corners polygon primitive as box body*
4,1,4,$2,$3,$4,$5,$6,$7,$8,$9,$2,$3,0*
0 Add four circle primitives for the rounded corners*
1,1,$1+$1,$2,$3*
1,1,$1+$1,$4,$5*
1,1,$1+$1,$6,$7*
1,1,$1+$1,$8,$9*
0 Add four rect primitives between the rounded corners*
20,1,$1+$1,$2,$3,$4,$5,0*
20,1,$1+$1,$4,$5,$6,$7,0*
20,1,$1+$1,$6,$7,$8,$9,0*
20,1,$1+$1,$8,$9,$2,$3,0*%
%AMFreePoly0*
4,1,23,0.500000,-0.750000,0.000000,-0.750000,0.000000,-0.745722,-0.065263,-0.745722,-0.191342,-0.711940,-0.304381,-0.646677,-0.396677,-0.554381,-0.461940,-0.441342,-0.495722,-0.315263,-0.495722,-0.250000,-0.500000,-0.250000,-0.500000,0.250000,-0.495722,0.250000,-0.495722,0.315263,-0.461940,0.441342,-0.396677,0.554381,-0.304381,0.646677,-0.191342,0.711940,-0.065263,0.745722,0.000000,0.745722,
0.000000,0.750000,0.500000,0.750000,0.500000,-0.750000,0.500000,-0.750000,$1*%
%AMFreePoly1*
4,1,23,0.000000,0.745722,0.065263,0.745722,0.191342,0.711940,0.304381,0.646677,0.396677,0.554381,0.461940,0.441342,0.495722,0.315263,0.495722,0.250000,0.500000,0.250000,0.500000,-0.250000,0.495722,-0.250000,0.495722,-0.315263,0.461940,-0.441342,0.396677,-0.554381,0.304381,-0.646677,0.191342,-0.711940,0.065263,-0.745722,0.000000,-0.745722,0.000000,-0.750000,-0.500000,-0.750000,
-0.500000,0.750000,0.000000,0.750000,0.000000,0.745722,0.000000,0.745722,$1*%
G04 Aperture macros list end*
%TA.AperFunction,ComponentPad*%
%ADD10RoundRect,0.250000X0.600000X-0.600000X0.600000X0.600000X-0.600000X0.600000X-0.600000X-0.600000X0*%
%TD*%
%TA.AperFunction,ComponentPad*%
%ADD11C,1.700000*%
%TD*%
%TA.AperFunction,ComponentPad*%
%ADD12R,1.600000X1.600000*%
%TD*%
%TA.AperFunction,ComponentPad*%
%ADD13O,1.600000X1.600000*%
%TD*%
%TA.AperFunction,ComponentPad*%
%ADD14R,1.700000X1.700000*%
%TD*%
%TA.AperFunction,ComponentPad*%
%ADD15O,1.700000X1.700000*%
%TD*%
%TA.AperFunction,ComponentPad*%
%ADD16C,2.000000*%
%TD*%
%TA.AperFunction,SMDPad,CuDef*%
%ADD17RoundRect,0.250000X-0.450000X0.325000X-0.450000X-0.325000X0.450000X-0.325000X0.450000X0.325000X0*%
%TD*%
%TA.AperFunction,SMDPad,CuDef*%
%ADD18RoundRect,0.250000X0.475000X-0.337500X0.475000X0.337500X-0.475000X0.337500X-0.475000X-0.337500X0*%
%TD*%
%TA.AperFunction,ComponentPad*%
%ADD19C,1.824000*%
%TD*%
%TA.AperFunction,ComponentPad*%
%ADD20C,1.800000*%
%TD*%
%TA.AperFunction,SMDPad,CuDef*%
%ADD21FreePoly0,270.000000*%
%TD*%
%TA.AperFunction,SMDPad,CuDef*%
%ADD22FreePoly1,270.000000*%
%TD*%
%TA.AperFunction,ComponentPad*%
%ADD23R,1.524000X1.524000*%
%TD*%
%TA.AperFunction,SMDPad,CuDef*%
%ADD24RoundRect,0.375000X0.375000X-0.625000X0.375000X0.625000X-0.375000X0.625000X-0.375000X-0.625000X0*%
%TD*%
%TA.AperFunction,SMDPad,CuDef*%
%ADD25RoundRect,0.500000X1.400000X-0.500000X1.400000X0.500000X-1.400000X0.500000X-1.400000X-0.500000X0*%
%TD*%
%TA.AperFunction,SMDPad,CuDef*%
%ADD26FreePoly0,180.000000*%
%TD*%
%TA.AperFunction,SMDPad,CuDef*%
%ADD27FreePoly1,180.000000*%
%TD*%
%TA.AperFunction,ComponentPad*%
%ADD28R,1.508000X1.508000*%
%TD*%
%TA.AperFunction,ComponentPad*%
%ADD29C,1.508000*%
%TD*%
%TA.AperFunction,ComponentPad*%
%ADD30C,3.000000*%
%TD*%
%TA.AperFunction,SMDPad,CuDef*%
%ADD31R,1.600000X1.400000*%
%TD*%
%TA.AperFunction,SMDPad,CuDef*%
%ADD32R,1.200000X2.200000*%
%TD*%
%TA.AperFunction,SMDPad,CuDef*%
%ADD33R,0.700000X1.600000*%
%TD*%
%TA.AperFunction,SMDPad,CuDef*%
%ADD34R,1.200000X1.400000*%
%TD*%
%TA.AperFunction,SMDPad,CuDef*%
%ADD35RoundRect,0.250000X-0.350000X-0.450000X0.350000X-0.450000X0.350000X0.450000X-0.350000X0.450000X0*%
%TD*%
%TA.AperFunction,ViaPad*%
%ADD36C,0.600000*%
%TD*%
%TA.AperFunction,ViaPad*%
%ADD37C,1.000000*%
%TD*%
%TA.AperFunction,Conductor*%
%ADD38C,0.500000*%
%TD*%
%TA.AperFunction,Conductor*%
%ADD39C,0.250000*%
%TD*%
G04 APERTURE END LIST*
D10*
%TO.P,J2,1,Pin_1*%
%TO.N,GND*%
X178290000Y-92490000D03*
D11*
%TO.P,J2,2,Pin_2*%
%TO.N,STEP0*%
X178290000Y-89950000D03*
%TO.P,J2,3,Pin_3*%
%TO.N,GND*%
X180830000Y-92490000D03*
%TO.P,J2,4,Pin_4*%
%TO.N,STEP1*%
X180830000Y-89950000D03*
%TO.P,J2,5,Pin_5*%
%TO.N,GND*%
X183370000Y-92490000D03*
%TO.P,J2,6,Pin_6*%
%TO.N,STEP2*%
X183370000Y-89950000D03*
%TO.P,J2,7,Pin_7*%
%TO.N,3.5DSK_D*%
X185910000Y-92490000D03*
%TO.P,J2,8,Pin_8*%
%TO.N,STEP3*%
X185910000Y-89950000D03*
%TO.P,J2,9,Pin_9*%
%TO.N,unconnected-(J2-Pin_9-Pad9)*%
X188450000Y-92490000D03*
%TO.P,J2,10,Pin_10*%
%TO.N,WR_REQ*%
X188450000Y-89950000D03*
%TO.P,J2,11,Pin_11*%
%TO.N,VCC*%
X190990000Y-92490000D03*
%TO.P,J2,12,Pin_12*%
%TO.N,SELECT_D*%
X190990000Y-89950000D03*
%TO.P,J2,13,Pin_13*%
%TO.N,unconnected-(J2-Pin_13-Pad13)*%
X193530000Y-92490000D03*
%TO.P,J2,14,Pin_14*%
%TO.N,DEVICE_ENABLE*%
X193530000Y-89950000D03*
%TO.P,J2,15,Pin_15*%
%TO.N,unconnected-(J2-Pin_15-Pad15)*%
X196070000Y-92490000D03*
%TO.P,J2,16,Pin_16*%
%TO.N,RD_DATA*%
X196070000Y-89950000D03*
%TO.P,J2,17,Pin_17*%
%TO.N,unconnected-(J2-Pin_17-Pad17)*%
X198610000Y-92490000D03*
%TO.P,J2,18,Pin_18*%
%TO.N,WR_DATA*%
X198610000Y-89950000D03*
%TO.P,J2,19,Pin_19*%
%TO.N,unconnected-(J2-Pin_19-Pad19)*%
X201150000Y-92490000D03*
%TO.P,J2,20,Pin_20*%
%TO.N,WR_PROTECT_D*%
X201150000Y-89950000D03*
%TD*%
D12*
%TO.P,D1,1,K*%
%TO.N,PWR_RD*%
X204775000Y-102925000D03*
D13*
%TO.P,D1,2,A*%
%TO.N,Net-(D1-A)*%
X204775000Y-110545000D03*
%TD*%
D14*
%TO.P,J5,1,Pin_1*%
%TO.N,TIM2_CH3*%
X134880000Y-116370000D03*
D11*
%TO.P,J5,2,Pin_2*%
%TO.N,TIM3_CH4*%
X134880000Y-118910000D03*
%TO.P,J5,3,Pin_3*%
%TO.N,DEBUG*%
X134880000Y-121450000D03*
%TO.P,J5,4,Pin_4*%
%TO.N,GND*%
X134880000Y-123990000D03*
%TD*%
D14*
%TO.P,J3,1,Pin_1*%
%TO.N,RD_DATA*%
X204714746Y-120691427D03*
D15*
%TO.P,J3,2,Pin_2*%
%TO.N,WR_REQ*%
X204714746Y-123231427D03*
%TO.P,J3,3,Pin_3*%
%TO.N,DEVICE_ENABLE*%
X204714746Y-125771427D03*
%TO.P,J3,4,Pin_4*%
%TO.N,WR_PROTECT_D*%
X204714746Y-128311427D03*
%TO.P,J3,5,Pin_5*%
%TO.N,WR_DATA*%
X204714746Y-130851427D03*
%TO.P,J3,6,Pin_6*%
%TO.N,GND*%
X204714746Y-133391427D03*
%TD*%
D16*
%TO.P,UP1,1,1*%
%TO.N,+3.3V*%
X190040000Y-130950000D03*
X183540000Y-130950000D03*
%TO.P,UP1,2,2*%
%TO.N,BTN_UP*%
X190040000Y-126450000D03*
X183540000Y-126450000D03*
%TD*%
D17*
%TO.P,D2,1,K*%
%TO.N,PWR_RD*%
X204775000Y-105925000D03*
%TO.P,D2,2,A*%
%TO.N,Net-(D1-A)*%
X204775000Y-107975000D03*
%TD*%
%TO.P,Fu2,1*%
%TO.N,Net-(D1-A)*%
X204750000Y-112750000D03*
%TO.P,Fu2,2*%
%TO.N,VCC*%
X204750000Y-114800000D03*
%TD*%
D18*
%TO.P,C2,1*%
%TO.N,PWR_RD*%
X149400000Y-107720000D03*
%TO.P,C2,2*%
%TO.N,GND*%
X149400000Y-105645000D03*
%TD*%
D19*
%TO.P,BZ1,1,+*%
%TO.N,TIM1_CH2N*%
X140500000Y-131750000D03*
D20*
%TO.P,BZ1,2,-*%
%TO.N,GND*%
X147000000Y-131750000D03*
%TD*%
D14*
%TO.P,J4,1,Pin_1*%
%TO.N,USART1_TX*%
X134910000Y-104975000D03*
D15*
%TO.P,J4,2,Pin_2*%
%TO.N,USART1_RX*%
X134910000Y-107515000D03*
%TO.P,J4,3,Pin_3*%
%TO.N,GND*%
X134910000Y-110055000D03*
%TD*%
D21*
%TO.P,3V,1,A*%
%TO.N,Net-(J7-Pin_2)*%
X138275000Y-120925000D03*
D22*
%TO.P,3V,2,B*%
%TO.N,+3.3V*%
X138275000Y-122225000D03*
%TD*%
D14*
%TO.P,\u03BCC1,1,B12*%
%TO.N,BTN_RET*%
X154050000Y-88440000D03*
D11*
%TO.P,\u03BCC1,2,B13*%
%TO.N,SD_EJECT*%
X154050000Y-90980000D03*
%TO.P,\u03BCC1,3,B14*%
%TO.N,TIM1_CH2N*%
X154050000Y-93520000D03*
%TO.P,\u03BCC1,4,B15*%
%TO.N,SDIO_CK*%
X154050000Y-96060000D03*
%TO.P,\u03BCC1,5,A8*%
%TO.N,SDIO_D1*%
X154050000Y-98600000D03*
%TO.P,\u03BCC1,6,A9*%
%TO.N,SDIO_D2*%
X154050000Y-101140000D03*
%TO.P,\u03BCC1,7,A10*%
%TO.N,DEBUG*%
X154050000Y-103680000D03*
%TO.P,\u03BCC1,8,A11*%
%TO.N,3.5DSK*%
X154050000Y-106220000D03*
%TO.P,\u03BCC1,9,A12*%
%TO.N,unconnected-(\u03BCC1-A12-Pad9)*%
X154050000Y-108760000D03*
%TO.P,\u03BCC1,10,A15*%
%TO.N,USART1_TX*%
X154050000Y-111300000D03*
%TO.P,\u03BCC1,11,B3*%
%TO.N,USART1_RX*%
X154050000Y-113840000D03*
%TO.P,\u03BCC1,12,B4*%
%TO.N,SDIO_DO*%
X154050000Y-116380000D03*
%TO.P,\u03BCC1,13,B5*%
%TO.N,SDIO_D3*%
X154050000Y-118920000D03*
%TO.P,\u03BCC1,14,B6*%
%TO.N,I2C_SCL*%
X154050000Y-121460000D03*
%TO.P,\u03BCC1,15,B7*%
%TO.N,I2C_SDA*%
X154050000Y-124000000D03*
%TO.P,\u03BCC1,16,B8*%
%TO.N,SELECT*%
X154050000Y-126540000D03*
%TO.P,\u03BCC1,17,B9*%
%TO.N,WR_REQ*%
X154050000Y-129080000D03*
%TO.P,\u03BCC1,18,5Vi*%
%TO.N,PWR_5VIN*%
X154050000Y-131620000D03*
%TO.P,\u03BCC1,19,GNDi*%
%TO.N,GND*%
X154050000Y-134160000D03*
%TO.P,\u03BCC1,20,3.3i*%
%TO.N,+3.3V*%
X154050000Y-136700000D03*
%TO.P,\u03BCC1,21,VB*%
%TO.N,unconnected-(\u03BCC1-VB-Pad21)*%
X169290000Y-136700000D03*
%TO.P,\u03BCC1,22,C13*%
%TO.N,BTN_DOWN*%
X169290000Y-134160000D03*
%TO.P,\u03BCC1,23,C14*%
%TO.N,BTN_UP*%
X169290000Y-131620000D03*
%TO.P,\u03BCC1,24,C15*%
%TO.N,BTN_ENTR*%
X169290000Y-129080000D03*
%TO.P,\u03BCC1,25,R*%
%TO.N,unconnected-(\u03BCC1-R-Pad25)*%
X169290000Y-126540000D03*
%TO.P,\u03BCC1,26,A0*%
%TO.N,STEP0*%
X169290000Y-124000000D03*
%TO.P,\u03BCC1,27,A1*%
%TO.N,STEP1*%
X169290000Y-121460000D03*
%TO.P,\u03BCC1,28,A2*%
%TO.N,STEP2*%
X169290000Y-118920000D03*
%TO.P,\u03BCC1,29,A3*%
%TO.N,STEP3*%
X169290000Y-116380000D03*
%TO.P,\u03BCC1,30,A4*%
%TO.N,DEVICE_ENABLE*%
X169290000Y-113840000D03*
%TO.P,\u03BCC1,31,A5*%
%TO.N,WR_DATA*%
X169290000Y-111300000D03*
%TO.P,\u03BCC1,32,A6*%
%TO.N,SDIO_CMD*%
X169290000Y-108760000D03*
%TO.P,\u03BCC1,33,A7*%
%TO.N,WR_DATA*%
X169290000Y-106220000D03*
%TO.P,\u03BCC1,34,B0*%
%TO.N,RD_DATA*%
X169290000Y-103680000D03*
%TO.P,\u03BCC1,35,B1*%
%TO.N,TIM3_CH4*%
X169290000Y-101140000D03*
%TO.P,\u03BCC1,36,B2*%
%TO.N,WR_PROTECT*%
X169290000Y-98600000D03*
%TO.P,\u03BCC1,37,B10*%
%TO.N,TIM2_CH3*%
X169290000Y-96060000D03*
%TO.P,\u03BCC1,38,3.3ii*%
%TO.N,unconnected-(\u03BCC1-3.3ii-Pad38)*%
X169290000Y-93520000D03*
%TO.P,\u03BCC1,39,GNDii*%
%TO.N,GND*%
X169290000Y-90980000D03*
D14*
%TO.P,\u03BCC1,40,5Vii*%
%TO.N,unconnected-(\u03BCC1-5Vii-Pad40)*%
X169290000Y-88440000D03*
D23*
%TO.P,\u03BCC1,41,3.3V*%
%TO.N,+3.3V*%
X157860000Y-132890000D03*
D11*
%TO.P,\u03BCC1,42,SDIO*%
%TO.N,SDIO*%
X160400000Y-132890000D03*
%TO.P,\u03BCC1,43,SCK*%
%TO.N,SCK*%
X162940000Y-132890000D03*
%TO.P,\u03BCC1,44,GND*%
%TO.N,GND*%
X165480000Y-132890000D03*
%TD*%
D24*
%TO.P,U1,1,GND*%
%TO.N,GND*%
X141187500Y-115950000D03*
%TO.P,U1,2,VO*%
%TO.N,Net-(J7-Pin_2)*%
X143487500Y-115950000D03*
D25*
X143487500Y-109650000D03*
D24*
%TO.P,U1,3,VI*%
%TO.N,PWR_RD*%
X145787500Y-115950000D03*
%TD*%
D26*
%TO.P,BPF,1,A*%
%TO.N,Net-(D1-A)*%
X205375000Y-117275000D03*
D27*
%TO.P,BPF,2,B*%
%TO.N,VCC*%
X204075000Y-117275000D03*
%TD*%
D21*
%TO.P,JP1,1,A*%
%TO.N,PWR_RD*%
X148800000Y-120925000D03*
D22*
%TO.P,JP1,2,B*%
%TO.N,PWR_5VIN*%
X148800000Y-122225000D03*
%TD*%
D14*
%TO.P,J1,1,Pin_1*%
%TO.N,PWR_5VIN*%
X145455000Y-122850000D03*
D15*
%TO.P,J1,2,Pin_2*%
%TO.N,PWR_RD*%
X145455000Y-120310000D03*
%TD*%
D16*
%TO.P,ENTR1,1,1*%
%TO.N,+3.3V*%
X198540000Y-129700000D03*
X198540000Y-136200000D03*
%TO.P,ENTR1,2,2*%
%TO.N,BTN_ENTR*%
X194040000Y-129700000D03*
X194040000Y-136200000D03*
%TD*%
D14*
%TO.P,J6,1,Pin_1*%
%TO.N,+3.3V*%
X135000000Y-128180000D03*
D15*
%TO.P,J6,2,Pin_2*%
%TO.N,SDIO*%
X135000000Y-130720000D03*
%TO.P,J6,3,Pin_3*%
%TO.N,SCK*%
X135000000Y-133260000D03*
%TO.P,J6,4,Pin_4*%
%TO.N,GND*%
X135000000Y-135800000D03*
%TD*%
D28*
%TO.P,U8,1,GND*%
%TO.N,GND*%
X182980000Y-98950000D03*
D29*
%TO.P,U8,2,VCC_IN*%
%TO.N,+3.3V*%
X185520000Y-98950000D03*
%TO.P,U8,3,SCL*%
%TO.N,I2C_SCL*%
X188060000Y-98950000D03*
%TO.P,U8,4,SDA*%
%TO.N,I2C_SDA*%
X190600000Y-98950000D03*
D30*
%TO.P,U8,S1*%
%TO.N,N/C*%
X175790000Y-99450000D03*
%TO.P,U8,S2*%
X197790000Y-99450000D03*
%TO.P,U8,S3*%
X197790000Y-121450000D03*
%TO.P,U8,S4*%
X175790000Y-121450000D03*
%TD*%
D18*
%TO.P,C1,1*%
%TO.N,Net-(J7-Pin_2)*%
X138430000Y-116995000D03*
%TO.P,C1,2*%
%TO.N,GND*%
X138430000Y-114920000D03*
%TD*%
D31*
%TO.P,U2,*%
%TO.N,GND*%
X134540000Y-98750000D03*
D32*
X149140000Y-89250000D03*
D33*
%TO.P,U2,1,D2*%
%TO.N,SDIO_D2*%
X139140000Y-99350000D03*
%TO.P,U2,2,D3*%
%TO.N,SDIO_D3*%
X140240000Y-99350000D03*
%TO.P,U2,3,CMD*%
%TO.N,SDIO_CMD*%
X141340000Y-99350000D03*
%TO.P,U2,4,VDD*%
%TO.N,+3.3V*%
X142440000Y-99350000D03*
%TO.P,U2,5,SCLK*%
%TO.N,SDIO_CK*%
X143540000Y-99350000D03*
%TO.P,U2,6,GND*%
%TO.N,GND*%
X144640000Y-99350000D03*
%TO.P,U2,7,DO*%
%TO.N,SDIO_DO*%
X145740000Y-99350000D03*
%TO.P,U2,8,D1*%
%TO.N,SDIO_D1*%
X146840000Y-99350000D03*
%TO.P,U2,9,CD*%
%TO.N,SD_EJECT*%
X147940000Y-99350000D03*
D34*
%TO.P,U2,10,GND*%
%TO.N,GND*%
X149140000Y-98750000D03*
D32*
%TO.P,U2,~*%
X133640000Y-89150000D03*
%TD*%
D35*
%TO.P,R4,1*%
%TO.N,WR_REQ*%
X156825000Y-120325000D03*
%TO.P,R4,2*%
%TO.N,PWR_RD*%
X158825000Y-120325000D03*
%TD*%
D16*
%TO.P,RET1,1,1*%
%TO.N,+3.3V*%
X179540000Y-129700000D03*
X179540000Y-136200000D03*
%TO.P,RET1,2,2*%
%TO.N,BTN_RET*%
X175040000Y-129700000D03*
X175040000Y-136200000D03*
%TD*%
D14*
%TO.P,J7,1,Pin_1*%
%TO.N,+3.3V*%
X141590000Y-122850000D03*
D11*
%TO.P,J7,2,Pin_2*%
%TO.N,Net-(J7-Pin_2)*%
X141590000Y-120310000D03*
%TD*%
D16*
%TO.P,DOWN1,1,1*%
%TO.N,+3.3V*%
X183540000Y-134950000D03*
X190040000Y-134950000D03*
%TO.P,DOWN1,2,2*%
%TO.N,BTN_DOWN*%
X183540000Y-139450000D03*
X190040000Y-139450000D03*
%TD*%
D36*
%TO.N,GND*%
X136090000Y-97200000D03*
D37*
X144640000Y-102820000D03*
X137540000Y-92250000D03*
X149170000Y-101600000D03*
D36*
%TO.N,WR_REQ*%
X157190000Y-96750000D03*
%TO.N,RD_DATA*%
X203224000Y-89850000D03*
%TO.N,SDIO_DO*%
X150110000Y-113320000D03*
%TO.N,SD_EJECT*%
X149760000Y-97285000D03*
%TO.N,SDIO_CK*%
X149760000Y-96060000D03*
%TO.N,SDIO_D1*%
X148454766Y-103445000D03*
%TO.N,SDIO_CMD*%
X141740000Y-105170000D03*
X166040000Y-108760000D03*
%TO.N,SDIO_D2*%
X139500000Y-103750000D03*
%TO.N,SDIO_D3*%
X149260060Y-113330365D03*
%TO.N,DEBUG*%
X132769798Y-98934798D03*
X149390000Y-86500000D03*
X132742702Y-97052702D03*
%TO.N,TIM3_CH4*%
X164940000Y-125250000D03*
%TO.N,SELECT*%
X156090000Y-124430000D03*
%TO.N,TIM1_CH2N*%
X149760000Y-93520000D03*
%TO.N,TIM2_CH3*%
X163490000Y-123900000D03*
%TO.N,PWR_RD*%
X151500000Y-113320000D03*
X159825000Y-111680000D03*
%TO.N,SELECT_D*%
X160500000Y-122380000D03*
X160500000Y-125925000D03*
%TO.N,WR_PROTECT_D*%
X201041000Y-95370000D03*
X195790000Y-95360000D03*
%TD*%
D38*
%TO.N,GND*%
X201890000Y-119890000D02*
X201880000Y-119900000D01*
X165126341Y-90960000D02*
X169270000Y-90960000D01*
D39*
X161075000Y-128485000D02*
X159725000Y-128485000D01*
D38*
X136040000Y-90650000D02*
X136040000Y-90640000D01*
X138430000Y-113245000D02*
X135240000Y-110055000D01*
X138430000Y-114920000D02*
X138430000Y-113245000D01*
X201880000Y-130556681D02*
X204714746Y-133391427D01*
X149170000Y-98780000D02*
X149140000Y-98750000D01*
X194730000Y-100030000D02*
X194730000Y-112730000D01*
D39*
X137540000Y-92250000D02*
X137540000Y-92150000D01*
D38*
X135240000Y-110055000D02*
X134910000Y-110055000D01*
X159725000Y-128485000D02*
X154050000Y-134160000D01*
X165116341Y-90950000D02*
X165126341Y-90960000D01*
X177140000Y-96540000D02*
X177140000Y-93640000D01*
X161540000Y-94526341D02*
X165116341Y-90950000D01*
X149170000Y-101600000D02*
X149400000Y-101830000D01*
D39*
X146240000Y-92150000D02*
X149140000Y-89250000D01*
D38*
X159725000Y-128485000D02*
X161540000Y-126670000D01*
D39*
X137540000Y-92150000D02*
X146240000Y-92150000D01*
D38*
X177140000Y-93640000D02*
X178290000Y-92490000D01*
X141217500Y-115980000D02*
X141217500Y-116540000D01*
X149400000Y-101830000D02*
X149400000Y-105645000D01*
D39*
X165480000Y-132890000D02*
X161075000Y-128485000D01*
D38*
X138430000Y-114920000D02*
X140157500Y-114920000D01*
X168659000Y-90980000D02*
X168659000Y-90950000D01*
X184530000Y-97400000D02*
X192100000Y-97400000D01*
X192100000Y-97400000D02*
X194730000Y-100030000D01*
X169270000Y-90960000D02*
X169290000Y-90980000D01*
X140157500Y-114920000D02*
X141217500Y-115980000D01*
X135560000Y-97200000D02*
X134540000Y-98220000D01*
X134540000Y-98220000D02*
X134540000Y-98750000D01*
X161540000Y-126670000D02*
X161540000Y-94526341D01*
X182980000Y-98950000D02*
X179550000Y-98950000D01*
X201880000Y-119900000D02*
X201880000Y-130556681D01*
X136090000Y-97200000D02*
X135560000Y-97200000D01*
X137540000Y-92150000D02*
X136040000Y-90650000D01*
X144640000Y-102820000D02*
X144640000Y-99583884D01*
X135240000Y-135800000D02*
X142950000Y-135800000D01*
X194730000Y-112730000D02*
X201890000Y-119890000D01*
X149170000Y-101600000D02*
X149170000Y-98780000D01*
X182980000Y-98950000D02*
X184530000Y-97400000D01*
X134550000Y-89150000D02*
X133640000Y-89150000D01*
X142950000Y-135800000D02*
X147000000Y-131750000D01*
X179550000Y-98950000D02*
X177140000Y-96540000D01*
X136040000Y-90640000D02*
X134550000Y-89150000D01*
%TO.N,VCC*%
X190990000Y-92490000D02*
X194870000Y-96370000D01*
X202400158Y-109310158D02*
X202410000Y-109320000D01*
X203650000Y-114800000D02*
X204750000Y-114800000D01*
X199530000Y-96370000D02*
X202400158Y-99240158D01*
X202410000Y-109825000D02*
X202410000Y-112025000D01*
X202410000Y-109320000D02*
X202410000Y-109825000D01*
X194870000Y-96370000D02*
X199530000Y-96370000D01*
X202410000Y-112025000D02*
X202410000Y-113560000D01*
X204075000Y-117275000D02*
X202410000Y-115610000D01*
X202410000Y-115610000D02*
X202410000Y-112025000D01*
X202400158Y-99240158D02*
X202400158Y-109310158D01*
X202410000Y-113560000D02*
X203650000Y-114800000D01*
D39*
%TO.N,STEP2*%
X175290000Y-87950000D02*
X175040000Y-88200000D01*
X171290000Y-117250000D02*
X169620000Y-118920000D01*
X181370000Y-87950000D02*
X175290000Y-87950000D01*
X175040000Y-88200000D02*
X171290000Y-91950000D01*
X171290000Y-91950000D02*
X171290000Y-117250000D01*
X183370000Y-89950000D02*
X181370000Y-87950000D01*
%TO.N,WR_REQ*%
X156910000Y-97030000D02*
X156910000Y-126220000D01*
X156910000Y-126220000D02*
X154050000Y-129080000D01*
X157190000Y-96750000D02*
X156910000Y-97030000D01*
%TO.N,STEP3*%
X170540000Y-91450000D02*
X170540000Y-115415000D01*
X183410000Y-87450000D02*
X174540000Y-87450000D01*
X170540000Y-115415000D02*
X169575000Y-116380000D01*
X174540000Y-87450000D02*
X170540000Y-91450000D01*
X185910000Y-89950000D02*
X183410000Y-87450000D01*
%TO.N,STEP0*%
X173040000Y-93200000D02*
X173040000Y-120500000D01*
X176290000Y-89950000D02*
X173040000Y-93200000D01*
X173040000Y-120500000D02*
X169540000Y-124000000D01*
X178290000Y-89950000D02*
X176290000Y-89950000D01*
%TO.N,STEP1*%
X176165000Y-88700000D02*
X175865000Y-89000000D01*
X175865000Y-89000000D02*
X172040000Y-92825000D01*
X172040000Y-92825000D02*
X172040000Y-119000000D01*
X179580000Y-88700000D02*
X176165000Y-88700000D01*
X180830000Y-89950000D02*
X179580000Y-88700000D01*
X172040000Y-119000000D02*
X169580000Y-121460000D01*
%TO.N,BTN_DOWN*%
X183540000Y-139450000D02*
X190040000Y-139450000D01*
X174580000Y-139450000D02*
X169290000Y-134160000D01*
X183540000Y-139450000D02*
X174580000Y-139450000D01*
%TO.N,BTN_ENTR*%
X191740213Y-124650213D02*
X173719787Y-124650213D01*
X173719787Y-124650213D02*
X169290000Y-129080000D01*
X194040000Y-126950000D02*
X191740213Y-124650213D01*
X194040000Y-129700000D02*
X194040000Y-136200000D01*
X194040000Y-129700000D02*
X194040000Y-126950000D01*
%TO.N,BTN_RET*%
X175040000Y-136200000D02*
X175040000Y-129700000D01*
%TO.N,BTN_UP*%
X190040000Y-126450000D02*
X183540000Y-126450000D01*
X183540000Y-126450000D02*
X174460000Y-126450000D01*
X174460000Y-126450000D02*
X169290000Y-131620000D01*
D38*
%TO.N,+3.3V*%
X190040000Y-134950000D02*
X190040000Y-130950000D01*
X142440000Y-98050000D02*
X141490000Y-97100000D01*
X142440000Y-99350000D02*
X142440000Y-98050000D01*
X153610000Y-136700000D02*
X154050000Y-136700000D01*
X183540000Y-130950000D02*
X182290000Y-129700000D01*
X185520000Y-115180000D02*
X198540000Y-128200000D01*
X190040000Y-130950000D02*
X183540000Y-130950000D01*
X133376000Y-102424000D02*
X133376000Y-110806000D01*
X157860000Y-132890000D02*
X157860000Y-135130000D01*
X141590000Y-122850000D02*
X141590000Y-123130000D01*
X155170000Y-137820000D02*
X154602250Y-137252250D01*
X138275000Y-122225000D02*
X138925000Y-122875000D01*
X185520000Y-98950000D02*
X185520000Y-115180000D01*
X133376000Y-110806000D02*
X136840000Y-114270000D01*
X198540000Y-136200000D02*
X193790000Y-140950000D01*
X157860000Y-135130000D02*
X155170000Y-137820000D01*
X183540000Y-134950000D02*
X190040000Y-134950000D01*
X179540000Y-136200000D02*
X179540000Y-129700000D01*
X157590000Y-140240000D02*
X155170000Y-137820000D01*
X146640000Y-128180000D02*
X150790000Y-132330000D01*
X196540000Y-138200000D02*
X193290000Y-138200000D01*
X198540000Y-129700000D02*
X198540000Y-136200000D01*
X182290000Y-136200000D02*
X183540000Y-134950000D01*
X179540000Y-136200000D02*
X182290000Y-136200000D01*
X138700000Y-97100000D02*
X133376000Y-102424000D01*
X150790000Y-132330000D02*
X150790000Y-133880000D01*
X158300000Y-140950000D02*
X157590000Y-140240000D01*
X138925000Y-122875000D02*
X141565000Y-122875000D01*
X135190000Y-128180000D02*
X145280000Y-128180000D01*
X182290000Y-129700000D02*
X179540000Y-129700000D01*
X136840000Y-114270000D02*
X136840000Y-121455594D01*
X141590000Y-123130000D02*
X146640000Y-128180000D01*
X137609406Y-122225000D02*
X138275000Y-122225000D01*
X150790000Y-133880000D02*
X153610000Y-136700000D01*
X141490000Y-97100000D02*
X138700000Y-97100000D01*
X193790000Y-140950000D02*
X158300000Y-140950000D01*
X136840000Y-121455594D02*
X137609406Y-122225000D01*
X193290000Y-138200000D02*
X190040000Y-134950000D01*
X145280000Y-128180000D02*
X146640000Y-128180000D01*
X141565000Y-122875000D02*
X141590000Y-122850000D01*
X198540000Y-128200000D02*
X198540000Y-129700000D01*
X183540000Y-134950000D02*
X183540000Y-130950000D01*
D39*
%TO.N,RD_DATA*%
X203280000Y-89730000D02*
X202050000Y-88500000D01*
X202050000Y-88500000D02*
X197520000Y-88500000D01*
X203224000Y-89850000D02*
X203280000Y-89794000D01*
X197520000Y-88500000D02*
X196070000Y-89950000D01*
X203280000Y-89794000D02*
X203280000Y-89730000D01*
%TO.N,SDIO_DO*%
X150110000Y-110930000D02*
X145740000Y-106560000D01*
X145740000Y-106560000D02*
X145740000Y-99350000D01*
X150110000Y-113320000D02*
X150110000Y-110930000D01*
%TO.N,SD_EJECT*%
X147940000Y-97860000D02*
X148515000Y-97285000D01*
X147940000Y-99350000D02*
X147940000Y-97860000D01*
X148515000Y-97285000D02*
X149600000Y-97285000D01*
%TO.N,SDIO_CK*%
X149650000Y-96060000D02*
X145740000Y-96060000D01*
X143540000Y-98260000D02*
X143540000Y-99350000D01*
X145740000Y-96060000D02*
X143540000Y-98260000D01*
%TO.N,SDIO_D1*%
X148309766Y-103300000D02*
X148240000Y-103300000D01*
X146840000Y-101900000D02*
X146840000Y-99350000D01*
X148240000Y-103300000D02*
X146840000Y-101900000D01*
X154050000Y-98600000D02*
X154050000Y-98990000D01*
X148454766Y-103445000D02*
X148309766Y-103300000D01*
%TO.N,SDIO_CMD*%
X141740000Y-105170000D02*
X141550000Y-105170000D01*
X141340000Y-104960000D02*
X141340000Y-99350000D01*
X141550000Y-105170000D02*
X141340000Y-104960000D01*
X169290000Y-108760000D02*
X166040000Y-108760000D01*
%TO.N,SDIO_D2*%
X139140000Y-103390000D02*
X139140000Y-99350000D01*
X139500000Y-103750000D02*
X139140000Y-103390000D01*
%TO.N,SDIO_D3*%
X149290000Y-113300425D02*
X149290000Y-111060000D01*
X149290000Y-111060000D02*
X144970000Y-106740000D01*
X144970000Y-106740000D02*
X142200000Y-106740000D01*
X142200000Y-106740000D02*
X140240000Y-104780000D01*
X154050000Y-118920000D02*
X154050000Y-118590000D01*
X140240000Y-104780000D02*
X140240000Y-99350000D01*
X149260060Y-113330365D02*
X149290000Y-113300425D01*
%TO.N,DEBUG*%
X132000000Y-95750000D02*
X132000000Y-87750000D01*
X132750000Y-119330000D02*
X135000000Y-121580000D01*
X132742702Y-97052702D02*
X132742702Y-96492702D01*
X132769798Y-98934798D02*
X132750000Y-98954596D01*
X132000000Y-87750000D02*
X133250000Y-86500000D01*
X132750000Y-98954596D02*
X132750000Y-119330000D01*
X132742702Y-96492702D02*
X132000000Y-95750000D01*
X133250000Y-86500000D02*
X149390000Y-86500000D01*
%TO.N,TIM3_CH4*%
X164940000Y-105490000D02*
X164940000Y-125250000D01*
X169290000Y-101140000D02*
X164940000Y-105490000D01*
%TO.N,SELECT*%
X156065000Y-124600000D02*
X155990000Y-124600000D01*
X155990000Y-124600000D02*
X154050000Y-126540000D01*
X156090000Y-124430000D02*
X156090000Y-124575000D01*
X156090000Y-124575000D02*
X156065000Y-124600000D01*
%TO.N,TIM1_CH2N*%
X132000000Y-129500000D02*
X134500000Y-132000000D01*
X139000000Y-131500000D02*
X140500000Y-131500000D01*
X149760000Y-93520000D02*
X137230000Y-93520000D01*
X138500000Y-132000000D02*
X139000000Y-131500000D01*
X137230000Y-93520000D02*
X132000000Y-98750000D01*
X134500000Y-132000000D02*
X138500000Y-132000000D01*
X132000000Y-98750000D02*
X132000000Y-129500000D01*
%TO.N,TIM2_CH3*%
X163490000Y-101860000D02*
X163490000Y-123900000D01*
X169290000Y-96060000D02*
X163490000Y-101860000D01*
D38*
%TO.N,PWR_RD*%
X149400000Y-107720000D02*
X151390000Y-109710000D01*
X159825000Y-111680000D02*
X159540000Y-111680000D01*
X148700000Y-120825000D02*
X145970000Y-120825000D01*
X158880000Y-112340000D02*
X158880000Y-120270000D01*
X151390000Y-109710000D02*
X151500000Y-109710000D01*
X149990000Y-115950000D02*
X145787500Y-115950000D01*
X151500000Y-109710000D02*
X151500000Y-113320000D01*
X204775000Y-88245000D02*
X204775000Y-105925000D01*
X151500000Y-113320000D02*
X151500000Y-114440000D01*
X158880000Y-120270000D02*
X158825000Y-120325000D01*
X202480000Y-85950000D02*
X204775000Y-88245000D01*
X151500000Y-88288000D02*
X153838000Y-85950000D01*
X159540000Y-111680000D02*
X158880000Y-112340000D01*
X145817500Y-119947500D02*
X145455000Y-120310000D01*
X145817500Y-116540000D02*
X145817500Y-119947500D01*
X153838000Y-85950000D02*
X202480000Y-85950000D01*
X145970000Y-120825000D02*
X145455000Y-120310000D01*
X151500000Y-109710000D02*
X151500000Y-88288000D01*
X145787500Y-115950000D02*
X145787500Y-116510000D01*
X148800000Y-120925000D02*
X148700000Y-120825000D01*
X145787500Y-116510000D02*
X145817500Y-116540000D01*
X151500000Y-114440000D02*
X149990000Y-115950000D01*
D39*
%TO.N,SELECT_D*%
X160500000Y-93400000D02*
X166950000Y-86950000D01*
X160500000Y-125925000D02*
X160500000Y-122380000D01*
X187990000Y-86950000D02*
X190990000Y-89950000D01*
X166950000Y-86950000D02*
X187990000Y-86950000D01*
X160500000Y-125925000D02*
X160375000Y-125800000D01*
X160500000Y-122380000D02*
X160500000Y-93400000D01*
%TO.N,WR_PROTECT_D*%
X201031000Y-95360000D02*
X195790000Y-95360000D01*
X201115000Y-95296000D02*
X201115000Y-95025000D01*
X202440000Y-93700000D02*
X202440000Y-91240000D01*
X202440000Y-91240000D02*
X201150000Y-89950000D01*
X201115000Y-95025000D02*
X202440000Y-93700000D01*
X201041000Y-95370000D02*
X201031000Y-95360000D01*
X201041000Y-95370000D02*
X201115000Y-95296000D01*
D38*
%TO.N,Net-(J7-Pin_2)*%
X143487500Y-109650000D02*
X143487500Y-110945000D01*
X138900000Y-120300000D02*
X138812500Y-120387500D01*
X143517500Y-118382500D02*
X141590000Y-120310000D01*
X138430000Y-116995000D02*
X138430000Y-120005000D01*
X141590000Y-120310000D02*
X141580000Y-120300000D01*
X143517500Y-116540000D02*
X143517500Y-118382500D01*
X138430000Y-120005000D02*
X138812500Y-120387500D01*
X143517500Y-110975000D02*
X143517500Y-110240000D01*
X143487500Y-110945000D02*
X143517500Y-110975000D01*
X138812500Y-120387500D02*
X138275000Y-120925000D01*
X143510000Y-116547500D02*
X143517500Y-116540000D01*
X141580000Y-120300000D02*
X138900000Y-120300000D01*
X143517500Y-116540000D02*
X143517500Y-110975000D01*
%TO.N,PWR_5VIN*%
X145455000Y-122850000D02*
X145455000Y-123025000D01*
X145455000Y-122850000D02*
X148175000Y-122850000D01*
X148175000Y-122850000D02*
X148800000Y-122225000D01*
X145455000Y-123025000D02*
X154050000Y-131620000D01*
X154050000Y-131590000D02*
X154050000Y-131620000D01*
%TO.N,Net-(D1-A)*%
X206225000Y-114225000D02*
X204750000Y-112750000D01*
X206225000Y-116425000D02*
X206225000Y-114225000D01*
X204750000Y-112750000D02*
X204775000Y-112725000D01*
X205375000Y-117275000D02*
X206225000Y-116425000D01*
X204775000Y-112725000D02*
X204775000Y-107975000D01*
%TD*%
%TA.AperFunction,Conductor*%
%TO.N,GND*%
G36*
X137649823Y-91763260D02*
G01*
X138521013Y-92022511D01*
X138527965Y-92028155D01*
X138529376Y-92033725D01*
X138529376Y-92268076D01*
X138525949Y-92276349D01*
X138523307Y-92278332D01*
X137827169Y-92660581D01*
X137818268Y-92661559D01*
X137811821Y-92656841D01*
X137556669Y-92276349D01*
X137541712Y-92254045D01*
X137539951Y-92245267D01*
X137635020Y-91772170D01*
X137640010Y-91764735D01*
X137648796Y-91763005D01*
X137649823Y-91763260D01*
G37*
%TD.AperFunction*%
%TD*%
%TA.AperFunction,Conductor*%
%TO.N,GND*%
G36*
X149590471Y-101683494D02*
G01*
X149650878Y-101695633D01*
X149658314Y-101700623D01*
X149660272Y-101707249D01*
X149650143Y-102523973D01*
X149646614Y-102532203D01*
X149638444Y-102535528D01*
X149156615Y-102535528D01*
X149148342Y-102532101D01*
X149146590Y-102529860D01*
X148760007Y-101887329D01*
X148758678Y-101878473D01*
X148763514Y-101871582D01*
X149165954Y-101601712D01*
X149174732Y-101599951D01*
X149590471Y-101683494D01*
G37*
%TD.AperFunction*%
%TD*%
%TA.AperFunction,Conductor*%
%TO.N,GND*%
G36*
X136028555Y-96909969D02*
G01*
X136033782Y-96917239D01*
X136033861Y-96917600D01*
X136090241Y-97196984D01*
X136090243Y-97201602D01*
X136033801Y-97482644D01*
X136028812Y-97490080D01*
X136020026Y-97491811D01*
X136019906Y-97491786D01*
X135694749Y-97422917D01*
X135688900Y-97419744D01*
X135352661Y-97083505D01*
X135349234Y-97075232D01*
X135352661Y-97066959D01*
X135358257Y-97063842D01*
X136019718Y-96908524D01*
X136028555Y-96909969D01*
G37*
%TD.AperFunction*%
%TD*%
%TA.AperFunction,Conductor*%
%TO.N,GND*%
G36*
X137074469Y-91328358D02*
G01*
X137808213Y-91827750D01*
X137813124Y-91835238D01*
X137811371Y-91843903D01*
X137542009Y-92248749D01*
X137538749Y-92252009D01*
X137135440Y-92520349D01*
X137126654Y-92522079D01*
X137119218Y-92517089D01*
X137118427Y-92515704D01*
X136716525Y-91683947D01*
X136716012Y-91675008D01*
X136718786Y-91670587D01*
X137059616Y-91329757D01*
X137067888Y-91326331D01*
X137074469Y-91328358D01*
G37*
%TD.AperFunction*%
%TD*%
%TA.AperFunction,Conductor*%
%TO.N,GND*%
G36*
X144889306Y-101833034D02*
G01*
X144892331Y-101838265D01*
X145127147Y-102710401D01*
X145125989Y-102719281D01*
X145118891Y-102724741D01*
X145118154Y-102724914D01*
X144642305Y-102820536D01*
X144637695Y-102820536D01*
X144161845Y-102724914D01*
X144154409Y-102719924D01*
X144152679Y-102711138D01*
X144152852Y-102710401D01*
X144387669Y-101838265D01*
X144393129Y-101831167D01*
X144398967Y-101829607D01*
X144881033Y-101829607D01*
X144889306Y-101833034D01*
G37*
%TD.AperFunction*%
%TD*%
%TA.AperFunction,Conductor*%
%TO.N,GND*%
G36*
X149419306Y-100613034D02*
G01*
X149422331Y-100618265D01*
X149657147Y-101490401D01*
X149655989Y-101499281D01*
X149648891Y-101504741D01*
X149648154Y-101504914D01*
X149172305Y-101600536D01*
X149167695Y-101600536D01*
X148691845Y-101504914D01*
X148684409Y-101499924D01*
X148682679Y-101491138D01*
X148682852Y-101490401D01*
X148917669Y-100618265D01*
X148923129Y-100611167D01*
X148928967Y-100609607D01*
X149411033Y-100609607D01*
X149419306Y-100613034D01*
G37*
%TD.AperFunction*%
%TD*%
%TA.AperFunction,Conductor*%
%TO.N,WR_REQ*%
G36*
X157185209Y-96748063D02*
G01*
X157192671Y-96753014D01*
X157192704Y-96753064D01*
X157350387Y-96989998D01*
X157352118Y-96998784D01*
X157347429Y-97006014D01*
X157038045Y-97226090D01*
X157031263Y-97228256D01*
X156799361Y-97228256D01*
X156791088Y-97224829D01*
X156787661Y-97216556D01*
X156787902Y-97214192D01*
X156834164Y-96989998D01*
X156893424Y-96702810D01*
X156898451Y-96695403D01*
X156907125Y-96693694D01*
X157185209Y-96748063D01*
G37*
%TD.AperFunction*%
%TD*%
%TA.AperFunction,Conductor*%
%TO.N,RD_DATA*%
G36*
X203007720Y-89279614D02*
G01*
X203382654Y-89593840D01*
X203386794Y-89601780D01*
X203384888Y-89609275D01*
X203227409Y-89846634D01*
X203219980Y-89851633D01*
X203219936Y-89851642D01*
X203219911Y-89851647D01*
X202940844Y-89906354D01*
X202932066Y-89904583D01*
X202927200Y-89897531D01*
X202824208Y-89455839D01*
X202825666Y-89447006D01*
X202827325Y-89444915D01*
X202991933Y-89280307D01*
X203000205Y-89276881D01*
X203007720Y-89279614D01*
G37*
%TD.AperFunction*%
%TD*%
%TA.AperFunction,Conductor*%
%TO.N,SDIO_DO*%
G36*
X150234699Y-112729191D02*
G01*
X150237583Y-112733940D01*
X150400315Y-113249062D01*
X150399539Y-113257983D01*
X150392682Y-113263743D01*
X150391478Y-113264054D01*
X150112320Y-113320530D01*
X150107680Y-113320530D01*
X149874553Y-113273366D01*
X149828520Y-113264053D01*
X149821092Y-113259054D01*
X149819373Y-113250266D01*
X149819680Y-113249075D01*
X149982417Y-112733939D01*
X149988177Y-112727083D01*
X149993574Y-112725764D01*
X150226426Y-112725764D01*
X150234699Y-112729191D01*
G37*
%TD.AperFunction*%
%TD*%
%TA.AperFunction,Conductor*%
%TO.N,SD_EJECT*%
G36*
X149697983Y-96995460D02*
G01*
X149703743Y-97002317D01*
X149704054Y-97003521D01*
X149760530Y-97282680D01*
X149760530Y-97287320D01*
X149704054Y-97566478D01*
X149699054Y-97573907D01*
X149690266Y-97575626D01*
X149689062Y-97575315D01*
X149173940Y-97412582D01*
X149167083Y-97406822D01*
X149165764Y-97401425D01*
X149165764Y-97168574D01*
X149169191Y-97160301D01*
X149173940Y-97157417D01*
X149689063Y-96994684D01*
X149697983Y-96995460D01*
G37*
%TD.AperFunction*%
%TD*%
%TA.AperFunction,Conductor*%
%TO.N,SDIO_CK*%
G36*
X149697983Y-95770460D02*
G01*
X149703743Y-95777317D01*
X149704054Y-95778521D01*
X149760530Y-96057680D01*
X149760530Y-96062320D01*
X149704054Y-96341478D01*
X149699054Y-96348907D01*
X149690266Y-96350626D01*
X149689062Y-96350315D01*
X149173940Y-96187582D01*
X149167083Y-96181822D01*
X149165764Y-96176425D01*
X149165764Y-95943574D01*
X149169191Y-95935301D01*
X149173940Y-95932417D01*
X149689063Y-95769684D01*
X149697983Y-95770460D01*
G37*
%TD.AperFunction*%
%TD*%
%TA.AperFunction,Conductor*%
%TO.N,SDIO_D1*%
G36*
X148095329Y-102974353D02*
G01*
X148608411Y-103190082D01*
X148614708Y-103196446D01*
X148614660Y-103205401D01*
X148613624Y-103207334D01*
X148456781Y-103443734D01*
X148453500Y-103447015D01*
X148215276Y-103605068D01*
X148206488Y-103606787D01*
X148199059Y-103601787D01*
X148198928Y-103601585D01*
X148100896Y-103447015D01*
X147916324Y-103155995D01*
X147914787Y-103147176D01*
X147917930Y-103141460D01*
X148082525Y-102976865D01*
X148090797Y-102973439D01*
X148095329Y-102974353D01*
G37*
%TD.AperFunction*%
%TD*%
%TA.AperFunction,Conductor*%
%TO.N,SDIO_CMD*%
G36*
X141465818Y-104828621D02*
G01*
X141786288Y-104874029D01*
X141793998Y-104878582D01*
X141796230Y-104887254D01*
X141796123Y-104887888D01*
X141740946Y-105166223D01*
X141735975Y-105173672D01*
X141735942Y-105173694D01*
X141501217Y-105329591D01*
X141492430Y-105331314D01*
X141484998Y-105326318D01*
X141484459Y-105325422D01*
X141224369Y-104845783D01*
X141223438Y-104836877D01*
X141229077Y-104829921D01*
X141234654Y-104828506D01*
X141464178Y-104828506D01*
X141465818Y-104828621D01*
G37*
%TD.AperFunction*%
%TD*%
%TA.AperFunction,Conductor*%
%TO.N,SDIO_CMD*%
G36*
X166110929Y-108469681D02*
G01*
X166626060Y-108632417D01*
X166632917Y-108638177D01*
X166634236Y-108643574D01*
X166634236Y-108876425D01*
X166630809Y-108884698D01*
X166626060Y-108887582D01*
X166110937Y-109050315D01*
X166102016Y-109049539D01*
X166096256Y-109042682D01*
X166095949Y-109041494D01*
X166039469Y-108762318D01*
X166039469Y-108757680D01*
X166062554Y-108643574D01*
X166095946Y-108478518D01*
X166100945Y-108471092D01*
X166109733Y-108469373D01*
X166110929Y-108469681D01*
G37*
%TD.AperFunction*%
%TD*%
%TA.AperFunction,Conductor*%
%TO.N,SDIO_D2*%
G36*
X139267426Y-103306063D02*
G01*
X139654641Y-103494698D01*
X139660578Y-103501402D01*
X139660035Y-103510340D01*
X139659257Y-103511698D01*
X139502704Y-103746935D01*
X139495268Y-103751924D01*
X139495209Y-103751936D01*
X139215452Y-103806632D01*
X139206675Y-103804856D01*
X139202266Y-103799293D01*
X139184324Y-103751924D01*
X139021001Y-103320724D01*
X139021275Y-103311775D01*
X139027798Y-103305640D01*
X139031942Y-103304881D01*
X139262302Y-103304881D01*
X139267426Y-103306063D01*
G37*
%TD.AperFunction*%
%TD*%
%TA.AperFunction,Conductor*%
%TO.N,SDIO_D3*%
G36*
X149414227Y-112739556D02*
G01*
X149417277Y-112744885D01*
X149551185Y-113259876D01*
X149549951Y-113268745D01*
X149542806Y-113274143D01*
X149542182Y-113274288D01*
X149262380Y-113330895D01*
X149257740Y-113330895D01*
X148979241Y-113274552D01*
X148971812Y-113269552D01*
X148970093Y-113260764D01*
X148970592Y-113259013D01*
X149162166Y-112743752D01*
X149168262Y-112737191D01*
X149173133Y-112736129D01*
X149405954Y-112736129D01*
X149414227Y-112739556D01*
G37*
%TD.AperFunction*%
%TD*%
%TA.AperFunction,Conductor*%
%TO.N,DEBUG*%
G36*
X132810574Y-96392958D02*
G01*
X132813257Y-96397126D01*
X133032120Y-96981317D01*
X133031814Y-96990267D01*
X133025269Y-96996378D01*
X133023478Y-96996891D01*
X132748181Y-97052445D01*
X132739394Y-97050722D01*
X132739361Y-97050700D01*
X132501247Y-96891374D01*
X132496276Y-96883925D01*
X132496950Y-96877158D01*
X132629217Y-96559020D01*
X132631744Y-96555242D01*
X132794029Y-96392957D01*
X132802301Y-96389531D01*
X132810574Y-96392958D01*
G37*
%TD.AperFunction*%
%TD*%
%TA.AperFunction,Conductor*%
%TO.N,DEBUG*%
G36*
X133050842Y-98990656D02*
G01*
X133058271Y-98995656D01*
X133059990Y-99004444D01*
X133059555Y-99006017D01*
X132877755Y-99521227D01*
X132871771Y-99527889D01*
X132866722Y-99529034D01*
X132633883Y-99529034D01*
X132625610Y-99525607D01*
X132622613Y-99520478D01*
X132478942Y-99005442D01*
X132480020Y-98996552D01*
X132487068Y-98991028D01*
X132487878Y-98990833D01*
X132767480Y-98934267D01*
X132772116Y-98934267D01*
X133050842Y-98990656D01*
G37*
%TD.AperFunction*%
%TD*%
%TA.AperFunction,Conductor*%
%TO.N,TIM3_CH4*%
G36*
X165064699Y-124659191D02*
G01*
X165067583Y-124663940D01*
X165230315Y-125179062D01*
X165229539Y-125187983D01*
X165222682Y-125193743D01*
X165221478Y-125194054D01*
X164942320Y-125250530D01*
X164937680Y-125250530D01*
X164704553Y-125203366D01*
X164658520Y-125194053D01*
X164651092Y-125189054D01*
X164649373Y-125180266D01*
X164649680Y-125179075D01*
X164812417Y-124663939D01*
X164818177Y-124657083D01*
X164823574Y-124655764D01*
X165056426Y-124655764D01*
X165064699Y-124659191D01*
G37*
%TD.AperFunction*%
%TD*%
%TA.AperFunction,Conductor*%
%TO.N,SELECT*%
G36*
X155850402Y-124270106D02*
G01*
X155852338Y-124271144D01*
X156088734Y-124427984D01*
X156092015Y-124431265D01*
X156250070Y-124669491D01*
X156251789Y-124678279D01*
X156246789Y-124685708D01*
X156246590Y-124685838D01*
X155801114Y-124968553D01*
X155792293Y-124970092D01*
X155786572Y-124966947D01*
X155621982Y-124802357D01*
X155618555Y-124794084D01*
X155619467Y-124789555D01*
X155835084Y-124276359D01*
X155841447Y-124270061D01*
X155850402Y-124270106D01*
G37*
%TD.AperFunction*%
%TD*%
%TA.AperFunction,Conductor*%
%TO.N,TIM1_CH2N*%
G36*
X149697983Y-93230460D02*
G01*
X149703743Y-93237317D01*
X149704054Y-93238521D01*
X149760530Y-93517680D01*
X149760530Y-93522320D01*
X149704054Y-93801478D01*
X149699054Y-93808907D01*
X149690266Y-93810626D01*
X149689062Y-93810315D01*
X149173940Y-93647582D01*
X149167083Y-93641822D01*
X149165764Y-93636425D01*
X149165764Y-93403574D01*
X149169191Y-93395301D01*
X149173940Y-93392417D01*
X149689063Y-93229684D01*
X149697983Y-93230460D01*
G37*
%TD.AperFunction*%
%TD*%
%TA.AperFunction,Conductor*%
%TO.N,TIM2_CH3*%
G36*
X163614699Y-123309191D02*
G01*
X163617583Y-123313940D01*
X163780315Y-123829062D01*
X163779539Y-123837983D01*
X163772682Y-123843743D01*
X163771478Y-123844054D01*
X163492320Y-123900530D01*
X163487680Y-123900530D01*
X163254553Y-123853366D01*
X163208520Y-123844053D01*
X163201092Y-123839054D01*
X163199373Y-123830266D01*
X163199680Y-123829075D01*
X163362417Y-123313939D01*
X163368177Y-123307083D01*
X163373574Y-123305764D01*
X163606426Y-123305764D01*
X163614699Y-123309191D01*
G37*
%TD.AperFunction*%
%TD*%
%TA.AperFunction,Conductor*%
%TO.N,PWR_RD*%
G36*
X151747500Y-112729191D02*
G01*
X151750887Y-112736501D01*
X151793379Y-113251104D01*
X151790645Y-113259631D01*
X151784039Y-113263535D01*
X151502320Y-113320530D01*
X151497680Y-113320530D01*
X151215960Y-113263535D01*
X151208531Y-113258535D01*
X151206620Y-113251104D01*
X151249113Y-112736501D01*
X151253209Y-112728538D01*
X151260773Y-112725764D01*
X151739227Y-112725764D01*
X151747500Y-112729191D01*
G37*
%TD.AperFunction*%
%TD*%
%TA.AperFunction,Conductor*%
%TO.N,PWR_RD*%
G36*
X151784039Y-113376464D02*
G01*
X151791468Y-113381464D01*
X151793379Y-113388895D01*
X151750887Y-113903499D01*
X151746791Y-113911462D01*
X151739227Y-113914236D01*
X151260773Y-113914236D01*
X151252500Y-113910809D01*
X151249113Y-113903499D01*
X151206620Y-113388895D01*
X151209354Y-113380368D01*
X151215959Y-113376464D01*
X151497682Y-113319469D01*
X151502318Y-113319469D01*
X151784039Y-113376464D01*
G37*
%TD.AperFunction*%
%TD*%
%TA.AperFunction,Conductor*%
%TO.N,PWR_RD*%
G36*
X159664390Y-111439566D02*
G01*
X159824387Y-111677332D01*
X159826161Y-111681613D01*
X159881424Y-111963509D01*
X159879653Y-111972287D01*
X159872969Y-111977062D01*
X159501932Y-112076397D01*
X159493054Y-112075226D01*
X159490633Y-112073368D01*
X159152705Y-111735440D01*
X159149278Y-111727167D01*
X159152705Y-111718894D01*
X159155181Y-111717004D01*
X159648894Y-111435929D01*
X159657780Y-111434815D01*
X159664390Y-111439566D01*
G37*
%TD.AperFunction*%
%TD*%
%TA.AperFunction,Conductor*%
%TO.N,SELECT_D*%
G36*
X160781479Y-122435946D02*
G01*
X160788907Y-122440945D01*
X160790626Y-122449733D01*
X160790315Y-122450937D01*
X160627583Y-122966060D01*
X160621823Y-122972917D01*
X160616426Y-122974236D01*
X160383574Y-122974236D01*
X160375301Y-122970809D01*
X160372417Y-122966060D01*
X160209684Y-122450937D01*
X160210460Y-122442016D01*
X160217317Y-122436256D01*
X160218500Y-122435950D01*
X160497682Y-122379469D01*
X160502318Y-122379469D01*
X160781479Y-122435946D01*
G37*
%TD.AperFunction*%
%TD*%
%TA.AperFunction,Conductor*%
%TO.N,SELECT_D*%
G36*
X160624699Y-125334191D02*
G01*
X160627583Y-125338940D01*
X160790315Y-125854062D01*
X160789539Y-125862983D01*
X160782682Y-125868743D01*
X160781478Y-125869054D01*
X160502320Y-125925530D01*
X160497680Y-125925530D01*
X160264553Y-125878366D01*
X160218520Y-125869053D01*
X160211092Y-125864054D01*
X160209373Y-125855266D01*
X160209680Y-125854075D01*
X160372417Y-125338939D01*
X160378177Y-125332083D01*
X160383574Y-125330764D01*
X160616426Y-125330764D01*
X160624699Y-125334191D01*
G37*
%TD.AperFunction*%
%TD*%
%TA.AperFunction,Conductor*%
%TO.N,SELECT_D*%
G36*
X160624699Y-121789191D02*
G01*
X160627583Y-121793940D01*
X160790315Y-122309062D01*
X160789539Y-122317983D01*
X160782682Y-122323743D01*
X160781478Y-122324054D01*
X160502320Y-122380530D01*
X160497680Y-122380530D01*
X160264553Y-122333366D01*
X160218520Y-122324053D01*
X160211092Y-122319054D01*
X160209373Y-122310266D01*
X160209680Y-122309075D01*
X160372417Y-121793939D01*
X160378177Y-121787083D01*
X160383574Y-121785764D01*
X160616426Y-121785764D01*
X160624699Y-121789191D01*
G37*
%TD.AperFunction*%
%TD*%
%TA.AperFunction,Conductor*%
%TO.N,WR_PROTECT_D*%
G36*
X195860929Y-95069681D02*
G01*
X196376060Y-95232417D01*
X196382917Y-95238177D01*
X196384236Y-95243574D01*
X196384236Y-95476425D01*
X196380809Y-95484698D01*
X196376060Y-95487582D01*
X195860937Y-95650315D01*
X195852016Y-95649539D01*
X195846256Y-95642682D01*
X195845949Y-95641494D01*
X195789469Y-95362318D01*
X195789469Y-95357680D01*
X195812554Y-95243574D01*
X195845946Y-95078518D01*
X195850945Y-95071092D01*
X195859733Y-95069373D01*
X195860929Y-95069681D01*
G37*
%TD.AperFunction*%
%TD*%
%TA.AperFunction,Conductor*%
%TO.N,WR_PROTECT_D*%
G36*
X200979115Y-95080337D02*
G01*
X200984757Y-95087290D01*
X200985010Y-95088304D01*
X201041530Y-95367680D01*
X201041530Y-95372320D01*
X200985098Y-95651260D01*
X200980098Y-95658689D01*
X200971310Y-95660408D01*
X200969918Y-95660035D01*
X200454752Y-95487672D01*
X200447993Y-95481798D01*
X200446764Y-95476577D01*
X200446764Y-95243728D01*
X200450191Y-95235455D01*
X200455129Y-95232513D01*
X200970209Y-95079409D01*
X200979115Y-95080337D01*
G37*
%TD.AperFunction*%
%TD*%
%TA.AperFunction,Conductor*%
%TO.N,WR_PROTECT_D*%
G36*
X201206590Y-94773193D02*
G01*
X201206905Y-94773497D01*
X201371262Y-94937854D01*
X201374689Y-94946127D01*
X201374650Y-94947082D01*
X201336303Y-95415483D01*
X201332213Y-95423449D01*
X201323687Y-95426189D01*
X201322392Y-95426009D01*
X201268698Y-95415483D01*
X201042613Y-95371161D01*
X201038332Y-95369387D01*
X200802907Y-95210965D01*
X200797956Y-95203503D01*
X200799732Y-95194726D01*
X200800852Y-95193312D01*
X201190055Y-94773811D01*
X201198194Y-94770078D01*
X201206590Y-94773193D01*
G37*
%TD.AperFunction*%
%TD*%
M02*
