%TF.GenerationSoftware,KiCad,Pcbnew,9.0.3*%
%TF.CreationDate,2025-08-20T09:57:48+02:00*%
%TF.ProjectId,sdiskII_stm32,73646973-6b49-4495-9f73-746d33322e6b,7*%
%TF.SameCoordinates,Original*%
%TF.FileFunction,Legend,Top*%
%TF.FilePolarity,Positive*%
%FSLAX46Y46*%
G04 Gerber Fmt 4.6, Leading zero omitted, Abs format (unit mm)*
G04 Created by KiCad (PCBNEW 9.0.3) date 2025-08-20 09:57:48*
%MOMM*%
%LPD*%
G01*
G04 APERTURE LIST*
%ADD10C,0.160000*%
%ADD11C,0.150000*%
%ADD12C,0.187500*%
%ADD13C,0.100000*%
%ADD14C,0.203200*%
%ADD15C,0.300000*%
%ADD16C,0.120000*%
%ADD17C,0.250000*%
%ADD18C,0.000000*%
%ADD19C,0.127000*%
%ADD20C,0.200000*%
G04 APERTURE END LIST*
D10*
X174789548Y-104134225D02*
X174980024Y-104934225D01*
X174980024Y-104934225D02*
X175132405Y-104362796D01*
X175132405Y-104362796D02*
X175284786Y-104934225D01*
X175284786Y-104934225D02*
X175475263Y-104134225D01*
X175741929Y-104705653D02*
X176122882Y-104705653D01*
X175665739Y-104934225D02*
X175932406Y-104134225D01*
X175932406Y-104134225D02*
X176199072Y-104934225D01*
X176922882Y-104934225D02*
X176656215Y-104553272D01*
X176465739Y-104934225D02*
X176465739Y-104134225D01*
X176465739Y-104134225D02*
X176770501Y-104134225D01*
X176770501Y-104134225D02*
X176846691Y-104172320D01*
X176846691Y-104172320D02*
X176884786Y-104210415D01*
X176884786Y-104210415D02*
X176922882Y-104286606D01*
X176922882Y-104286606D02*
X176922882Y-104400891D01*
X176922882Y-104400891D02*
X176884786Y-104477082D01*
X176884786Y-104477082D02*
X176846691Y-104515177D01*
X176846691Y-104515177D02*
X176770501Y-104553272D01*
X176770501Y-104553272D02*
X176465739Y-104553272D01*
X177265739Y-104934225D02*
X177265739Y-104134225D01*
X177265739Y-104134225D02*
X177722882Y-104934225D01*
X177722882Y-104934225D02*
X177722882Y-104134225D01*
X178103834Y-104934225D02*
X178103834Y-104134225D01*
X178484786Y-104934225D02*
X178484786Y-104134225D01*
X178484786Y-104134225D02*
X178941929Y-104934225D01*
X178941929Y-104934225D02*
X178941929Y-104134225D01*
X179741928Y-104172320D02*
X179665738Y-104134225D01*
X179665738Y-104134225D02*
X179551452Y-104134225D01*
X179551452Y-104134225D02*
X179437166Y-104172320D01*
X179437166Y-104172320D02*
X179360976Y-104248510D01*
X179360976Y-104248510D02*
X179322881Y-104324701D01*
X179322881Y-104324701D02*
X179284785Y-104477082D01*
X179284785Y-104477082D02*
X179284785Y-104591368D01*
X179284785Y-104591368D02*
X179322881Y-104743749D01*
X179322881Y-104743749D02*
X179360976Y-104819939D01*
X179360976Y-104819939D02*
X179437166Y-104896130D01*
X179437166Y-104896130D02*
X179551452Y-104934225D01*
X179551452Y-104934225D02*
X179627643Y-104934225D01*
X179627643Y-104934225D02*
X179741928Y-104896130D01*
X179741928Y-104896130D02*
X179780024Y-104858034D01*
X179780024Y-104858034D02*
X179780024Y-104591368D01*
X179780024Y-104591368D02*
X179627643Y-104591368D01*
X180122881Y-104858034D02*
X180160976Y-104896130D01*
X180160976Y-104896130D02*
X180122881Y-104934225D01*
X180122881Y-104934225D02*
X180084785Y-104896130D01*
X180084785Y-104896130D02*
X180122881Y-104858034D01*
X180122881Y-104858034D02*
X180122881Y-104934225D01*
X180122881Y-104438987D02*
X180160976Y-104477082D01*
X180160976Y-104477082D02*
X180122881Y-104515177D01*
X180122881Y-104515177D02*
X180084785Y-104477082D01*
X180084785Y-104477082D02*
X180122881Y-104438987D01*
X180122881Y-104438987D02*
X180122881Y-104515177D01*
X175018120Y-105422180D02*
X175170501Y-105422180D01*
X175170501Y-105422180D02*
X175246691Y-105460275D01*
X175246691Y-105460275D02*
X175322882Y-105536465D01*
X175322882Y-105536465D02*
X175360977Y-105688846D01*
X175360977Y-105688846D02*
X175360977Y-105955513D01*
X175360977Y-105955513D02*
X175322882Y-106107894D01*
X175322882Y-106107894D02*
X175246691Y-106184085D01*
X175246691Y-106184085D02*
X175170501Y-106222180D01*
X175170501Y-106222180D02*
X175018120Y-106222180D01*
X175018120Y-106222180D02*
X174941929Y-106184085D01*
X174941929Y-106184085D02*
X174865739Y-106107894D01*
X174865739Y-106107894D02*
X174827643Y-105955513D01*
X174827643Y-105955513D02*
X174827643Y-105688846D01*
X174827643Y-105688846D02*
X174865739Y-105536465D01*
X174865739Y-105536465D02*
X174941929Y-105460275D01*
X174941929Y-105460275D02*
X175018120Y-105422180D01*
X175703834Y-106222180D02*
X175703834Y-105422180D01*
X175703834Y-105422180D02*
X176160977Y-106222180D01*
X176160977Y-106222180D02*
X176160977Y-105422180D01*
X176922881Y-106222180D02*
X176541929Y-106222180D01*
X176541929Y-106222180D02*
X176541929Y-105422180D01*
X177341929Y-105841227D02*
X177341929Y-106222180D01*
X177075262Y-105422180D02*
X177341929Y-105841227D01*
X177341929Y-105841227D02*
X177608595Y-105422180D01*
X178903833Y-106222180D02*
X178446690Y-106222180D01*
X178675262Y-106222180D02*
X178675262Y-105422180D01*
X178675262Y-105422180D02*
X178599071Y-105536465D01*
X178599071Y-105536465D02*
X178522881Y-105612656D01*
X178522881Y-105612656D02*
X178446690Y-105650751D01*
X179856215Y-106222180D02*
X179856215Y-105422180D01*
X179856215Y-105422180D02*
X180160977Y-105422180D01*
X180160977Y-105422180D02*
X180237167Y-105460275D01*
X180237167Y-105460275D02*
X180275262Y-105498370D01*
X180275262Y-105498370D02*
X180313358Y-105574561D01*
X180313358Y-105574561D02*
X180313358Y-105688846D01*
X180313358Y-105688846D02*
X180275262Y-105765037D01*
X180275262Y-105765037D02*
X180237167Y-105803132D01*
X180237167Y-105803132D02*
X180160977Y-105841227D01*
X180160977Y-105841227D02*
X179856215Y-105841227D01*
X180580024Y-105422180D02*
X180770500Y-106222180D01*
X180770500Y-106222180D02*
X180922881Y-105650751D01*
X180922881Y-105650751D02*
X181075262Y-106222180D01*
X181075262Y-106222180D02*
X181265739Y-105422180D01*
X182027644Y-106222180D02*
X181760977Y-105841227D01*
X181570501Y-106222180D02*
X181570501Y-105422180D01*
X181570501Y-105422180D02*
X181875263Y-105422180D01*
X181875263Y-105422180D02*
X181951453Y-105460275D01*
X181951453Y-105460275D02*
X181989548Y-105498370D01*
X181989548Y-105498370D02*
X182027644Y-105574561D01*
X182027644Y-105574561D02*
X182027644Y-105688846D01*
X182027644Y-105688846D02*
X181989548Y-105765037D01*
X181989548Y-105765037D02*
X181951453Y-105803132D01*
X181951453Y-105803132D02*
X181875263Y-105841227D01*
X181875263Y-105841227D02*
X181570501Y-105841227D01*
X182941929Y-106184085D02*
X183056215Y-106222180D01*
X183056215Y-106222180D02*
X183246691Y-106222180D01*
X183246691Y-106222180D02*
X183322882Y-106184085D01*
X183322882Y-106184085D02*
X183360977Y-106145989D01*
X183360977Y-106145989D02*
X183399072Y-106069799D01*
X183399072Y-106069799D02*
X183399072Y-105993608D01*
X183399072Y-105993608D02*
X183360977Y-105917418D01*
X183360977Y-105917418D02*
X183322882Y-105879323D01*
X183322882Y-105879323D02*
X183246691Y-105841227D01*
X183246691Y-105841227D02*
X183094310Y-105803132D01*
X183094310Y-105803132D02*
X183018120Y-105765037D01*
X183018120Y-105765037D02*
X182980025Y-105726942D01*
X182980025Y-105726942D02*
X182941929Y-105650751D01*
X182941929Y-105650751D02*
X182941929Y-105574561D01*
X182941929Y-105574561D02*
X182980025Y-105498370D01*
X182980025Y-105498370D02*
X183018120Y-105460275D01*
X183018120Y-105460275D02*
X183094310Y-105422180D01*
X183094310Y-105422180D02*
X183284787Y-105422180D01*
X183284787Y-105422180D02*
X183399072Y-105460275D01*
X184199073Y-106222180D02*
X183932406Y-105841227D01*
X183741930Y-106222180D02*
X183741930Y-105422180D01*
X183741930Y-105422180D02*
X184046692Y-105422180D01*
X184046692Y-105422180D02*
X184122882Y-105460275D01*
X184122882Y-105460275D02*
X184160977Y-105498370D01*
X184160977Y-105498370D02*
X184199073Y-105574561D01*
X184199073Y-105574561D02*
X184199073Y-105688846D01*
X184199073Y-105688846D02*
X184160977Y-105765037D01*
X184160977Y-105765037D02*
X184122882Y-105803132D01*
X184122882Y-105803132D02*
X184046692Y-105841227D01*
X184046692Y-105841227D02*
X183741930Y-105841227D01*
X184999073Y-106145989D02*
X184960977Y-106184085D01*
X184960977Y-106184085D02*
X184846692Y-106222180D01*
X184846692Y-106222180D02*
X184770501Y-106222180D01*
X184770501Y-106222180D02*
X184656215Y-106184085D01*
X184656215Y-106184085D02*
X184580025Y-106107894D01*
X184580025Y-106107894D02*
X184541930Y-106031704D01*
X184541930Y-106031704D02*
X184503834Y-105879323D01*
X184503834Y-105879323D02*
X184503834Y-105765037D01*
X184503834Y-105765037D02*
X184541930Y-105612656D01*
X184541930Y-105612656D02*
X184580025Y-105536465D01*
X184580025Y-105536465D02*
X184656215Y-105460275D01*
X184656215Y-105460275D02*
X184770501Y-105422180D01*
X184770501Y-105422180D02*
X184846692Y-105422180D01*
X184846692Y-105422180D02*
X184960977Y-105460275D01*
X184960977Y-105460275D02*
X184999073Y-105498370D01*
X174865739Y-107205373D02*
X175475263Y-107205373D01*
X176389548Y-106710135D02*
X176884786Y-106710135D01*
X176884786Y-106710135D02*
X176618120Y-107014897D01*
X176618120Y-107014897D02*
X176732405Y-107014897D01*
X176732405Y-107014897D02*
X176808596Y-107052992D01*
X176808596Y-107052992D02*
X176846691Y-107091087D01*
X176846691Y-107091087D02*
X176884786Y-107167278D01*
X176884786Y-107167278D02*
X176884786Y-107357754D01*
X176884786Y-107357754D02*
X176846691Y-107433944D01*
X176846691Y-107433944D02*
X176808596Y-107472040D01*
X176808596Y-107472040D02*
X176732405Y-107510135D01*
X176732405Y-107510135D02*
X176503834Y-107510135D01*
X176503834Y-107510135D02*
X176427643Y-107472040D01*
X176427643Y-107472040D02*
X176389548Y-107433944D01*
X177113358Y-106710135D02*
X177380025Y-107510135D01*
X177380025Y-107510135D02*
X177646691Y-106710135D01*
X174865739Y-108493328D02*
X175475263Y-108493328D01*
X176846691Y-107998090D02*
X176465739Y-107998090D01*
X176465739Y-107998090D02*
X176427643Y-108379042D01*
X176427643Y-108379042D02*
X176465739Y-108340947D01*
X176465739Y-108340947D02*
X176541929Y-108302852D01*
X176541929Y-108302852D02*
X176732405Y-108302852D01*
X176732405Y-108302852D02*
X176808596Y-108340947D01*
X176808596Y-108340947D02*
X176846691Y-108379042D01*
X176846691Y-108379042D02*
X176884786Y-108455233D01*
X176884786Y-108455233D02*
X176884786Y-108645709D01*
X176884786Y-108645709D02*
X176846691Y-108721899D01*
X176846691Y-108721899D02*
X176808596Y-108759995D01*
X176808596Y-108759995D02*
X176732405Y-108798090D01*
X176732405Y-108798090D02*
X176541929Y-108798090D01*
X176541929Y-108798090D02*
X176465739Y-108759995D01*
X176465739Y-108759995D02*
X176427643Y-108721899D01*
X177113358Y-107998090D02*
X177380025Y-108798090D01*
X177380025Y-108798090D02*
X177646691Y-107998090D01*
X174865739Y-109781283D02*
X175475263Y-109781283D01*
X176427643Y-110047950D02*
X176541929Y-110086045D01*
X176541929Y-110086045D02*
X176732405Y-110086045D01*
X176732405Y-110086045D02*
X176808596Y-110047950D01*
X176808596Y-110047950D02*
X176846691Y-110009854D01*
X176846691Y-110009854D02*
X176884786Y-109933664D01*
X176884786Y-109933664D02*
X176884786Y-109857473D01*
X176884786Y-109857473D02*
X176846691Y-109781283D01*
X176846691Y-109781283D02*
X176808596Y-109743188D01*
X176808596Y-109743188D02*
X176732405Y-109705092D01*
X176732405Y-109705092D02*
X176580024Y-109666997D01*
X176580024Y-109666997D02*
X176503834Y-109628902D01*
X176503834Y-109628902D02*
X176465739Y-109590807D01*
X176465739Y-109590807D02*
X176427643Y-109514616D01*
X176427643Y-109514616D02*
X176427643Y-109438426D01*
X176427643Y-109438426D02*
X176465739Y-109362235D01*
X176465739Y-109362235D02*
X176503834Y-109324140D01*
X176503834Y-109324140D02*
X176580024Y-109286045D01*
X176580024Y-109286045D02*
X176770501Y-109286045D01*
X176770501Y-109286045D02*
X176884786Y-109324140D01*
X177227644Y-110086045D02*
X177227644Y-109286045D01*
X177227644Y-109286045D02*
X177418120Y-109286045D01*
X177418120Y-109286045D02*
X177532406Y-109324140D01*
X177532406Y-109324140D02*
X177608596Y-109400330D01*
X177608596Y-109400330D02*
X177646691Y-109476521D01*
X177646691Y-109476521D02*
X177684787Y-109628902D01*
X177684787Y-109628902D02*
X177684787Y-109743188D01*
X177684787Y-109743188D02*
X177646691Y-109895569D01*
X177646691Y-109895569D02*
X177608596Y-109971759D01*
X177608596Y-109971759D02*
X177532406Y-110047950D01*
X177532406Y-110047950D02*
X177418120Y-110086045D01*
X177418120Y-110086045D02*
X177227644Y-110086045D01*
X178027644Y-110086045D02*
X178027644Y-109286045D01*
X178560977Y-109286045D02*
X178713358Y-109286045D01*
X178713358Y-109286045D02*
X178789548Y-109324140D01*
X178789548Y-109324140D02*
X178865739Y-109400330D01*
X178865739Y-109400330D02*
X178903834Y-109552711D01*
X178903834Y-109552711D02*
X178903834Y-109819378D01*
X178903834Y-109819378D02*
X178865739Y-109971759D01*
X178865739Y-109971759D02*
X178789548Y-110047950D01*
X178789548Y-110047950D02*
X178713358Y-110086045D01*
X178713358Y-110086045D02*
X178560977Y-110086045D01*
X178560977Y-110086045D02*
X178484786Y-110047950D01*
X178484786Y-110047950D02*
X178408596Y-109971759D01*
X178408596Y-109971759D02*
X178370500Y-109819378D01*
X178370500Y-109819378D02*
X178370500Y-109552711D01*
X178370500Y-109552711D02*
X178408596Y-109400330D01*
X178408596Y-109400330D02*
X178484786Y-109324140D01*
X178484786Y-109324140D02*
X178560977Y-109286045D01*
X179780024Y-109286045D02*
X180275262Y-109286045D01*
X180275262Y-109286045D02*
X180008596Y-109590807D01*
X180008596Y-109590807D02*
X180122881Y-109590807D01*
X180122881Y-109590807D02*
X180199072Y-109628902D01*
X180199072Y-109628902D02*
X180237167Y-109666997D01*
X180237167Y-109666997D02*
X180275262Y-109743188D01*
X180275262Y-109743188D02*
X180275262Y-109933664D01*
X180275262Y-109933664D02*
X180237167Y-110009854D01*
X180237167Y-110009854D02*
X180199072Y-110047950D01*
X180199072Y-110047950D02*
X180122881Y-110086045D01*
X180122881Y-110086045D02*
X179894310Y-110086045D01*
X179894310Y-110086045D02*
X179818119Y-110047950D01*
X179818119Y-110047950D02*
X179780024Y-110009854D01*
X180503834Y-109286045D02*
X180770501Y-110086045D01*
X180770501Y-110086045D02*
X181037167Y-109286045D01*
X174865739Y-112661955D02*
X174865739Y-111861955D01*
X174865739Y-111861955D02*
X175056215Y-111861955D01*
X175056215Y-111861955D02*
X175170501Y-111900050D01*
X175170501Y-111900050D02*
X175246691Y-111976240D01*
X175246691Y-111976240D02*
X175284786Y-112052431D01*
X175284786Y-112052431D02*
X175322882Y-112204812D01*
X175322882Y-112204812D02*
X175322882Y-112319098D01*
X175322882Y-112319098D02*
X175284786Y-112471479D01*
X175284786Y-112471479D02*
X175246691Y-112547669D01*
X175246691Y-112547669D02*
X175170501Y-112623860D01*
X175170501Y-112623860D02*
X175056215Y-112661955D01*
X175056215Y-112661955D02*
X174865739Y-112661955D01*
X175665739Y-112242907D02*
X175932405Y-112242907D01*
X176046691Y-112661955D02*
X175665739Y-112661955D01*
X175665739Y-112661955D02*
X175665739Y-111861955D01*
X175665739Y-111861955D02*
X176046691Y-111861955D01*
X176656215Y-112242907D02*
X176770501Y-112281002D01*
X176770501Y-112281002D02*
X176808596Y-112319098D01*
X176808596Y-112319098D02*
X176846692Y-112395288D01*
X176846692Y-112395288D02*
X176846692Y-112509574D01*
X176846692Y-112509574D02*
X176808596Y-112585764D01*
X176808596Y-112585764D02*
X176770501Y-112623860D01*
X176770501Y-112623860D02*
X176694311Y-112661955D01*
X176694311Y-112661955D02*
X176389549Y-112661955D01*
X176389549Y-112661955D02*
X176389549Y-111861955D01*
X176389549Y-111861955D02*
X176656215Y-111861955D01*
X176656215Y-111861955D02*
X176732406Y-111900050D01*
X176732406Y-111900050D02*
X176770501Y-111938145D01*
X176770501Y-111938145D02*
X176808596Y-112014336D01*
X176808596Y-112014336D02*
X176808596Y-112090526D01*
X176808596Y-112090526D02*
X176770501Y-112166717D01*
X176770501Y-112166717D02*
X176732406Y-112204812D01*
X176732406Y-112204812D02*
X176656215Y-112242907D01*
X176656215Y-112242907D02*
X176389549Y-112242907D01*
X177189549Y-111861955D02*
X177189549Y-112509574D01*
X177189549Y-112509574D02*
X177227644Y-112585764D01*
X177227644Y-112585764D02*
X177265739Y-112623860D01*
X177265739Y-112623860D02*
X177341930Y-112661955D01*
X177341930Y-112661955D02*
X177494311Y-112661955D01*
X177494311Y-112661955D02*
X177570501Y-112623860D01*
X177570501Y-112623860D02*
X177608596Y-112585764D01*
X177608596Y-112585764D02*
X177646692Y-112509574D01*
X177646692Y-112509574D02*
X177646692Y-111861955D01*
X178446691Y-111900050D02*
X178370501Y-111861955D01*
X178370501Y-111861955D02*
X178256215Y-111861955D01*
X178256215Y-111861955D02*
X178141929Y-111900050D01*
X178141929Y-111900050D02*
X178065739Y-111976240D01*
X178065739Y-111976240D02*
X178027644Y-112052431D01*
X178027644Y-112052431D02*
X177989548Y-112204812D01*
X177989548Y-112204812D02*
X177989548Y-112319098D01*
X177989548Y-112319098D02*
X178027644Y-112471479D01*
X178027644Y-112471479D02*
X178065739Y-112547669D01*
X178065739Y-112547669D02*
X178141929Y-112623860D01*
X178141929Y-112623860D02*
X178256215Y-112661955D01*
X178256215Y-112661955D02*
X178332406Y-112661955D01*
X178332406Y-112661955D02*
X178446691Y-112623860D01*
X178446691Y-112623860D02*
X178484787Y-112585764D01*
X178484787Y-112585764D02*
X178484787Y-112319098D01*
X178484787Y-112319098D02*
X178332406Y-112319098D01*
X179437168Y-112661955D02*
X179437168Y-111861955D01*
X179437168Y-111861955D02*
X179741930Y-111861955D01*
X179741930Y-111861955D02*
X179818120Y-111900050D01*
X179818120Y-111900050D02*
X179856215Y-111938145D01*
X179856215Y-111938145D02*
X179894311Y-112014336D01*
X179894311Y-112014336D02*
X179894311Y-112128621D01*
X179894311Y-112128621D02*
X179856215Y-112204812D01*
X179856215Y-112204812D02*
X179818120Y-112242907D01*
X179818120Y-112242907D02*
X179741930Y-112281002D01*
X179741930Y-112281002D02*
X179437168Y-112281002D01*
X180237168Y-112661955D02*
X180237168Y-111861955D01*
X180618120Y-112661955D02*
X180618120Y-111861955D01*
X180618120Y-111861955D02*
X181075263Y-112661955D01*
X181075263Y-112661955D02*
X181075263Y-111861955D01*
X181608596Y-111861955D02*
X181760977Y-111861955D01*
X181760977Y-111861955D02*
X181837167Y-111900050D01*
X181837167Y-111900050D02*
X181913358Y-111976240D01*
X181913358Y-111976240D02*
X181951453Y-112128621D01*
X181951453Y-112128621D02*
X181951453Y-112395288D01*
X181951453Y-112395288D02*
X181913358Y-112547669D01*
X181913358Y-112547669D02*
X181837167Y-112623860D01*
X181837167Y-112623860D02*
X181760977Y-112661955D01*
X181760977Y-112661955D02*
X181608596Y-112661955D01*
X181608596Y-112661955D02*
X181532405Y-112623860D01*
X181532405Y-112623860D02*
X181456215Y-112547669D01*
X181456215Y-112547669D02*
X181418119Y-112395288D01*
X181418119Y-112395288D02*
X181418119Y-112128621D01*
X181418119Y-112128621D02*
X181456215Y-111976240D01*
X181456215Y-111976240D02*
X181532405Y-111900050D01*
X181532405Y-111900050D02*
X181608596Y-111861955D01*
X182294310Y-111861955D02*
X182294310Y-112509574D01*
X182294310Y-112509574D02*
X182332405Y-112585764D01*
X182332405Y-112585764D02*
X182370500Y-112623860D01*
X182370500Y-112623860D02*
X182446691Y-112661955D01*
X182446691Y-112661955D02*
X182599072Y-112661955D01*
X182599072Y-112661955D02*
X182675262Y-112623860D01*
X182675262Y-112623860D02*
X182713357Y-112585764D01*
X182713357Y-112585764D02*
X182751453Y-112509574D01*
X182751453Y-112509574D02*
X182751453Y-111861955D01*
X183018119Y-111861955D02*
X183475262Y-111861955D01*
X183246690Y-112661955D02*
X183246690Y-111861955D01*
X183741929Y-112585764D02*
X183780024Y-112623860D01*
X183780024Y-112623860D02*
X183741929Y-112661955D01*
X183741929Y-112661955D02*
X183703833Y-112623860D01*
X183703833Y-112623860D02*
X183741929Y-112585764D01*
X183741929Y-112585764D02*
X183741929Y-112661955D01*
X183741929Y-112166717D02*
X183780024Y-112204812D01*
X183780024Y-112204812D02*
X183741929Y-112242907D01*
X183741929Y-112242907D02*
X183703833Y-112204812D01*
X183703833Y-112204812D02*
X183741929Y-112166717D01*
X183741929Y-112166717D02*
X183741929Y-112242907D01*
X174865739Y-113645148D02*
X175475263Y-113645148D01*
X176351453Y-113149910D02*
X176808596Y-113149910D01*
X176580024Y-113949910D02*
X176580024Y-113149910D01*
X177075263Y-113949910D02*
X177075263Y-113149910D01*
X177456215Y-113949910D02*
X177456215Y-113149910D01*
X177456215Y-113149910D02*
X177722881Y-113721338D01*
X177722881Y-113721338D02*
X177989548Y-113149910D01*
X177989548Y-113149910D02*
X177989548Y-113949910D01*
X178332405Y-113226100D02*
X178370501Y-113188005D01*
X178370501Y-113188005D02*
X178446691Y-113149910D01*
X178446691Y-113149910D02*
X178637167Y-113149910D01*
X178637167Y-113149910D02*
X178713358Y-113188005D01*
X178713358Y-113188005D02*
X178751453Y-113226100D01*
X178751453Y-113226100D02*
X178789548Y-113302291D01*
X178789548Y-113302291D02*
X178789548Y-113378481D01*
X178789548Y-113378481D02*
X178751453Y-113492767D01*
X178751453Y-113492767D02*
X178294310Y-113949910D01*
X178294310Y-113949910D02*
X178789548Y-113949910D01*
X179589549Y-113873719D02*
X179551453Y-113911815D01*
X179551453Y-113911815D02*
X179437168Y-113949910D01*
X179437168Y-113949910D02*
X179360977Y-113949910D01*
X179360977Y-113949910D02*
X179246691Y-113911815D01*
X179246691Y-113911815D02*
X179170501Y-113835624D01*
X179170501Y-113835624D02*
X179132406Y-113759434D01*
X179132406Y-113759434D02*
X179094310Y-113607053D01*
X179094310Y-113607053D02*
X179094310Y-113492767D01*
X179094310Y-113492767D02*
X179132406Y-113340386D01*
X179132406Y-113340386D02*
X179170501Y-113264195D01*
X179170501Y-113264195D02*
X179246691Y-113188005D01*
X179246691Y-113188005D02*
X179360977Y-113149910D01*
X179360977Y-113149910D02*
X179437168Y-113149910D01*
X179437168Y-113149910D02*
X179551453Y-113188005D01*
X179551453Y-113188005D02*
X179589549Y-113226100D01*
X179932406Y-113949910D02*
X179932406Y-113149910D01*
X179932406Y-113530862D02*
X180389549Y-113530862D01*
X180389549Y-113949910D02*
X180389549Y-113149910D01*
X180694310Y-113149910D02*
X181189548Y-113149910D01*
X181189548Y-113149910D02*
X180922882Y-113454672D01*
X180922882Y-113454672D02*
X181037167Y-113454672D01*
X181037167Y-113454672D02*
X181113358Y-113492767D01*
X181113358Y-113492767D02*
X181151453Y-113530862D01*
X181151453Y-113530862D02*
X181189548Y-113607053D01*
X181189548Y-113607053D02*
X181189548Y-113797529D01*
X181189548Y-113797529D02*
X181151453Y-113873719D01*
X181151453Y-113873719D02*
X181113358Y-113911815D01*
X181113358Y-113911815D02*
X181037167Y-113949910D01*
X181037167Y-113949910D02*
X180808596Y-113949910D01*
X180808596Y-113949910D02*
X180732405Y-113911815D01*
X180732405Y-113911815D02*
X180694310Y-113873719D01*
X174865739Y-114933103D02*
X175475263Y-114933103D01*
X176351453Y-114437865D02*
X176808596Y-114437865D01*
X176580024Y-115237865D02*
X176580024Y-114437865D01*
X177075263Y-115237865D02*
X177075263Y-114437865D01*
X177456215Y-115237865D02*
X177456215Y-114437865D01*
X177456215Y-114437865D02*
X177722881Y-115009293D01*
X177722881Y-115009293D02*
X177989548Y-114437865D01*
X177989548Y-114437865D02*
X177989548Y-115237865D01*
X178294310Y-114437865D02*
X178789548Y-114437865D01*
X178789548Y-114437865D02*
X178522882Y-114742627D01*
X178522882Y-114742627D02*
X178637167Y-114742627D01*
X178637167Y-114742627D02*
X178713358Y-114780722D01*
X178713358Y-114780722D02*
X178751453Y-114818817D01*
X178751453Y-114818817D02*
X178789548Y-114895008D01*
X178789548Y-114895008D02*
X178789548Y-115085484D01*
X178789548Y-115085484D02*
X178751453Y-115161674D01*
X178751453Y-115161674D02*
X178713358Y-115199770D01*
X178713358Y-115199770D02*
X178637167Y-115237865D01*
X178637167Y-115237865D02*
X178408596Y-115237865D01*
X178408596Y-115237865D02*
X178332405Y-115199770D01*
X178332405Y-115199770D02*
X178294310Y-115161674D01*
X179589549Y-115161674D02*
X179551453Y-115199770D01*
X179551453Y-115199770D02*
X179437168Y-115237865D01*
X179437168Y-115237865D02*
X179360977Y-115237865D01*
X179360977Y-115237865D02*
X179246691Y-115199770D01*
X179246691Y-115199770D02*
X179170501Y-115123579D01*
X179170501Y-115123579D02*
X179132406Y-115047389D01*
X179132406Y-115047389D02*
X179094310Y-114895008D01*
X179094310Y-114895008D02*
X179094310Y-114780722D01*
X179094310Y-114780722D02*
X179132406Y-114628341D01*
X179132406Y-114628341D02*
X179170501Y-114552150D01*
X179170501Y-114552150D02*
X179246691Y-114475960D01*
X179246691Y-114475960D02*
X179360977Y-114437865D01*
X179360977Y-114437865D02*
X179437168Y-114437865D01*
X179437168Y-114437865D02*
X179551453Y-114475960D01*
X179551453Y-114475960D02*
X179589549Y-114514055D01*
X179932406Y-115237865D02*
X179932406Y-114437865D01*
X179932406Y-114818817D02*
X180389549Y-114818817D01*
X180389549Y-115237865D02*
X180389549Y-114437865D01*
X181113358Y-114704531D02*
X181113358Y-115237865D01*
X180922882Y-114399770D02*
X180732405Y-114971198D01*
X180732405Y-114971198D02*
X181227644Y-114971198D01*
X174865739Y-116221058D02*
X175475263Y-116221058D01*
X176465739Y-116525820D02*
X176465739Y-115725820D01*
X176465739Y-115725820D02*
X176656215Y-115725820D01*
X176656215Y-115725820D02*
X176770501Y-115763915D01*
X176770501Y-115763915D02*
X176846691Y-115840105D01*
X176846691Y-115840105D02*
X176884786Y-115916296D01*
X176884786Y-115916296D02*
X176922882Y-116068677D01*
X176922882Y-116068677D02*
X176922882Y-116182963D01*
X176922882Y-116182963D02*
X176884786Y-116335344D01*
X176884786Y-116335344D02*
X176846691Y-116411534D01*
X176846691Y-116411534D02*
X176770501Y-116487725D01*
X176770501Y-116487725D02*
X176656215Y-116525820D01*
X176656215Y-116525820D02*
X176465739Y-116525820D01*
X177265739Y-116106772D02*
X177532405Y-116106772D01*
X177646691Y-116525820D02*
X177265739Y-116525820D01*
X177265739Y-116525820D02*
X177265739Y-115725820D01*
X177265739Y-115725820D02*
X177646691Y-115725820D01*
X178256215Y-116106772D02*
X178370501Y-116144867D01*
X178370501Y-116144867D02*
X178408596Y-116182963D01*
X178408596Y-116182963D02*
X178446692Y-116259153D01*
X178446692Y-116259153D02*
X178446692Y-116373439D01*
X178446692Y-116373439D02*
X178408596Y-116449629D01*
X178408596Y-116449629D02*
X178370501Y-116487725D01*
X178370501Y-116487725D02*
X178294311Y-116525820D01*
X178294311Y-116525820D02*
X177989549Y-116525820D01*
X177989549Y-116525820D02*
X177989549Y-115725820D01*
X177989549Y-115725820D02*
X178256215Y-115725820D01*
X178256215Y-115725820D02*
X178332406Y-115763915D01*
X178332406Y-115763915D02*
X178370501Y-115802010D01*
X178370501Y-115802010D02*
X178408596Y-115878201D01*
X178408596Y-115878201D02*
X178408596Y-115954391D01*
X178408596Y-115954391D02*
X178370501Y-116030582D01*
X178370501Y-116030582D02*
X178332406Y-116068677D01*
X178332406Y-116068677D02*
X178256215Y-116106772D01*
X178256215Y-116106772D02*
X177989549Y-116106772D01*
X178789549Y-115725820D02*
X178789549Y-116373439D01*
X178789549Y-116373439D02*
X178827644Y-116449629D01*
X178827644Y-116449629D02*
X178865739Y-116487725D01*
X178865739Y-116487725D02*
X178941930Y-116525820D01*
X178941930Y-116525820D02*
X179094311Y-116525820D01*
X179094311Y-116525820D02*
X179170501Y-116487725D01*
X179170501Y-116487725D02*
X179208596Y-116449629D01*
X179208596Y-116449629D02*
X179246692Y-116373439D01*
X179246692Y-116373439D02*
X179246692Y-115725820D01*
X180046691Y-115763915D02*
X179970501Y-115725820D01*
X179970501Y-115725820D02*
X179856215Y-115725820D01*
X179856215Y-115725820D02*
X179741929Y-115763915D01*
X179741929Y-115763915D02*
X179665739Y-115840105D01*
X179665739Y-115840105D02*
X179627644Y-115916296D01*
X179627644Y-115916296D02*
X179589548Y-116068677D01*
X179589548Y-116068677D02*
X179589548Y-116182963D01*
X179589548Y-116182963D02*
X179627644Y-116335344D01*
X179627644Y-116335344D02*
X179665739Y-116411534D01*
X179665739Y-116411534D02*
X179741929Y-116487725D01*
X179741929Y-116487725D02*
X179856215Y-116525820D01*
X179856215Y-116525820D02*
X179932406Y-116525820D01*
X179932406Y-116525820D02*
X180046691Y-116487725D01*
X180046691Y-116487725D02*
X180084787Y-116449629D01*
X180084787Y-116449629D02*
X180084787Y-116182963D01*
X180084787Y-116182963D02*
X179932406Y-116182963D01*
X181265739Y-116830582D02*
X181227644Y-116792486D01*
X181227644Y-116792486D02*
X181151453Y-116678201D01*
X181151453Y-116678201D02*
X181113358Y-116602010D01*
X181113358Y-116602010D02*
X181075263Y-116487725D01*
X181075263Y-116487725D02*
X181037168Y-116297248D01*
X181037168Y-116297248D02*
X181037168Y-116144867D01*
X181037168Y-116144867D02*
X181075263Y-115954391D01*
X181075263Y-115954391D02*
X181113358Y-115840105D01*
X181113358Y-115840105D02*
X181151453Y-115763915D01*
X181151453Y-115763915D02*
X181227644Y-115649629D01*
X181227644Y-115649629D02*
X181265739Y-115611534D01*
X181532405Y-116297248D02*
X181913358Y-116297248D01*
X181456215Y-116525820D02*
X181722882Y-115725820D01*
X181722882Y-115725820D02*
X181989548Y-116525820D01*
X182675262Y-116525820D02*
X182218119Y-116525820D01*
X182446691Y-116525820D02*
X182446691Y-115725820D01*
X182446691Y-115725820D02*
X182370500Y-115840105D01*
X182370500Y-115840105D02*
X182294310Y-115916296D01*
X182294310Y-115916296D02*
X182218119Y-115954391D01*
X183170501Y-115725820D02*
X183246691Y-115725820D01*
X183246691Y-115725820D02*
X183322882Y-115763915D01*
X183322882Y-115763915D02*
X183360977Y-115802010D01*
X183360977Y-115802010D02*
X183399072Y-115878201D01*
X183399072Y-115878201D02*
X183437167Y-116030582D01*
X183437167Y-116030582D02*
X183437167Y-116221058D01*
X183437167Y-116221058D02*
X183399072Y-116373439D01*
X183399072Y-116373439D02*
X183360977Y-116449629D01*
X183360977Y-116449629D02*
X183322882Y-116487725D01*
X183322882Y-116487725D02*
X183246691Y-116525820D01*
X183246691Y-116525820D02*
X183170501Y-116525820D01*
X183170501Y-116525820D02*
X183094310Y-116487725D01*
X183094310Y-116487725D02*
X183056215Y-116449629D01*
X183056215Y-116449629D02*
X183018120Y-116373439D01*
X183018120Y-116373439D02*
X182980024Y-116221058D01*
X182980024Y-116221058D02*
X182980024Y-116030582D01*
X182980024Y-116030582D02*
X183018120Y-115878201D01*
X183018120Y-115878201D02*
X183056215Y-115802010D01*
X183056215Y-115802010D02*
X183094310Y-115763915D01*
X183094310Y-115763915D02*
X183170501Y-115725820D01*
X183703834Y-116830582D02*
X183741929Y-116792486D01*
X183741929Y-116792486D02*
X183818120Y-116678201D01*
X183818120Y-116678201D02*
X183856215Y-116602010D01*
X183856215Y-116602010D02*
X183894310Y-116487725D01*
X183894310Y-116487725D02*
X183932406Y-116297248D01*
X183932406Y-116297248D02*
X183932406Y-116144867D01*
X183932406Y-116144867D02*
X183894310Y-115954391D01*
X183894310Y-115954391D02*
X183856215Y-115840105D01*
X183856215Y-115840105D02*
X183818120Y-115763915D01*
X183818120Y-115763915D02*
X183741929Y-115649629D01*
X183741929Y-115649629D02*
X183703834Y-115611534D01*
X174865739Y-117509013D02*
X175475263Y-117509013D01*
X176884786Y-117051870D02*
X176808596Y-117013775D01*
X176808596Y-117013775D02*
X176694310Y-117013775D01*
X176694310Y-117013775D02*
X176580024Y-117051870D01*
X176580024Y-117051870D02*
X176503834Y-117128060D01*
X176503834Y-117128060D02*
X176465739Y-117204251D01*
X176465739Y-117204251D02*
X176427643Y-117356632D01*
X176427643Y-117356632D02*
X176427643Y-117470918D01*
X176427643Y-117470918D02*
X176465739Y-117623299D01*
X176465739Y-117623299D02*
X176503834Y-117699489D01*
X176503834Y-117699489D02*
X176580024Y-117775680D01*
X176580024Y-117775680D02*
X176694310Y-117813775D01*
X176694310Y-117813775D02*
X176770501Y-117813775D01*
X176770501Y-117813775D02*
X176884786Y-117775680D01*
X176884786Y-117775680D02*
X176922882Y-117737584D01*
X176922882Y-117737584D02*
X176922882Y-117470918D01*
X176922882Y-117470918D02*
X176770501Y-117470918D01*
X177265739Y-117813775D02*
X177265739Y-117013775D01*
X177265739Y-117013775D02*
X177722882Y-117813775D01*
X177722882Y-117813775D02*
X177722882Y-117013775D01*
X178103834Y-117813775D02*
X178103834Y-117013775D01*
X178103834Y-117013775D02*
X178294310Y-117013775D01*
X178294310Y-117013775D02*
X178408596Y-117051870D01*
X178408596Y-117051870D02*
X178484786Y-117128060D01*
X178484786Y-117128060D02*
X178522881Y-117204251D01*
X178522881Y-117204251D02*
X178560977Y-117356632D01*
X178560977Y-117356632D02*
X178560977Y-117470918D01*
X178560977Y-117470918D02*
X178522881Y-117623299D01*
X178522881Y-117623299D02*
X178484786Y-117699489D01*
X178484786Y-117699489D02*
X178408596Y-117775680D01*
X178408596Y-117775680D02*
X178294310Y-117813775D01*
X178294310Y-117813775D02*
X178103834Y-117813775D01*
D11*
X141419046Y-118724200D02*
X141533332Y-118762295D01*
X141533332Y-118762295D02*
X141723808Y-118762295D01*
X141723808Y-118762295D02*
X141799999Y-118724200D01*
X141799999Y-118724200D02*
X141838094Y-118686104D01*
X141838094Y-118686104D02*
X141876189Y-118609914D01*
X141876189Y-118609914D02*
X141876189Y-118533723D01*
X141876189Y-118533723D02*
X141838094Y-118457533D01*
X141838094Y-118457533D02*
X141799999Y-118419438D01*
X141799999Y-118419438D02*
X141723808Y-118381342D01*
X141723808Y-118381342D02*
X141571427Y-118343247D01*
X141571427Y-118343247D02*
X141495237Y-118305152D01*
X141495237Y-118305152D02*
X141457142Y-118267057D01*
X141457142Y-118267057D02*
X141419046Y-118190866D01*
X141419046Y-118190866D02*
X141419046Y-118114676D01*
X141419046Y-118114676D02*
X141457142Y-118038485D01*
X141457142Y-118038485D02*
X141495237Y-118000390D01*
X141495237Y-118000390D02*
X141571427Y-117962295D01*
X141571427Y-117962295D02*
X141761904Y-117962295D01*
X141761904Y-117962295D02*
X141876189Y-118000390D01*
X142219047Y-118343247D02*
X142485713Y-118343247D01*
X142599999Y-118762295D02*
X142219047Y-118762295D01*
X142219047Y-118762295D02*
X142219047Y-117962295D01*
X142219047Y-117962295D02*
X142599999Y-117962295D01*
X143323809Y-118762295D02*
X142942857Y-118762295D01*
X142942857Y-118762295D02*
X142942857Y-117962295D01*
X143590476Y-118343247D02*
X143857142Y-118343247D01*
X143971428Y-118762295D02*
X143590476Y-118762295D01*
X143590476Y-118762295D02*
X143590476Y-117962295D01*
X143590476Y-117962295D02*
X143971428Y-117962295D01*
X144771429Y-118686104D02*
X144733333Y-118724200D01*
X144733333Y-118724200D02*
X144619048Y-118762295D01*
X144619048Y-118762295D02*
X144542857Y-118762295D01*
X144542857Y-118762295D02*
X144428571Y-118724200D01*
X144428571Y-118724200D02*
X144352381Y-118648009D01*
X144352381Y-118648009D02*
X144314286Y-118571819D01*
X144314286Y-118571819D02*
X144276190Y-118419438D01*
X144276190Y-118419438D02*
X144276190Y-118305152D01*
X144276190Y-118305152D02*
X144314286Y-118152771D01*
X144314286Y-118152771D02*
X144352381Y-118076580D01*
X144352381Y-118076580D02*
X144428571Y-118000390D01*
X144428571Y-118000390D02*
X144542857Y-117962295D01*
X144542857Y-117962295D02*
X144619048Y-117962295D01*
X144619048Y-117962295D02*
X144733333Y-118000390D01*
X144733333Y-118000390D02*
X144771429Y-118038485D01*
X145000000Y-117962295D02*
X145457143Y-117962295D01*
X145228571Y-118762295D02*
X145228571Y-117962295D01*
D12*
X137052878Y-135460440D02*
X136976688Y-135422345D01*
X136976688Y-135422345D02*
X136862402Y-135422345D01*
X136862402Y-135422345D02*
X136748116Y-135460440D01*
X136748116Y-135460440D02*
X136671926Y-135536630D01*
X136671926Y-135536630D02*
X136633831Y-135612821D01*
X136633831Y-135612821D02*
X136595735Y-135765202D01*
X136595735Y-135765202D02*
X136595735Y-135879488D01*
X136595735Y-135879488D02*
X136633831Y-136031869D01*
X136633831Y-136031869D02*
X136671926Y-136108059D01*
X136671926Y-136108059D02*
X136748116Y-136184250D01*
X136748116Y-136184250D02*
X136862402Y-136222345D01*
X136862402Y-136222345D02*
X136938593Y-136222345D01*
X136938593Y-136222345D02*
X137052878Y-136184250D01*
X137052878Y-136184250D02*
X137090974Y-136146154D01*
X137090974Y-136146154D02*
X137090974Y-135879488D01*
X137090974Y-135879488D02*
X136938593Y-135879488D01*
X137433831Y-136222345D02*
X137433831Y-135422345D01*
X137433831Y-135422345D02*
X137890974Y-136222345D01*
X137890974Y-136222345D02*
X137890974Y-135422345D01*
X138271926Y-136222345D02*
X138271926Y-135422345D01*
X138271926Y-135422345D02*
X138462402Y-135422345D01*
X138462402Y-135422345D02*
X138576688Y-135460440D01*
X138576688Y-135460440D02*
X138652878Y-135536630D01*
X138652878Y-135536630D02*
X138690973Y-135612821D01*
X138690973Y-135612821D02*
X138729069Y-135765202D01*
X138729069Y-135765202D02*
X138729069Y-135879488D01*
X138729069Y-135879488D02*
X138690973Y-136031869D01*
X138690973Y-136031869D02*
X138652878Y-136108059D01*
X138652878Y-136108059D02*
X138576688Y-136184250D01*
X138576688Y-136184250D02*
X138462402Y-136222345D01*
X138462402Y-136222345D02*
X138271926Y-136222345D01*
X182605488Y-102564740D02*
X182557869Y-102659978D01*
X182557869Y-102659978D02*
X182557869Y-102802835D01*
X182557869Y-102802835D02*
X182605488Y-102945692D01*
X182605488Y-102945692D02*
X182700726Y-103040930D01*
X182700726Y-103040930D02*
X182795964Y-103088549D01*
X182795964Y-103088549D02*
X182986440Y-103136168D01*
X182986440Y-103136168D02*
X183129297Y-103136168D01*
X183129297Y-103136168D02*
X183319773Y-103088549D01*
X183319773Y-103088549D02*
X183415011Y-103040930D01*
X183415011Y-103040930D02*
X183510250Y-102945692D01*
X183510250Y-102945692D02*
X183557869Y-102802835D01*
X183557869Y-102802835D02*
X183557869Y-102707597D01*
X183557869Y-102707597D02*
X183510250Y-102564740D01*
X183510250Y-102564740D02*
X183462630Y-102517121D01*
X183462630Y-102517121D02*
X183129297Y-102517121D01*
X183129297Y-102517121D02*
X183129297Y-102707597D01*
X183557869Y-102088549D02*
X182557869Y-102088549D01*
X182557869Y-102088549D02*
X183557869Y-101517121D01*
X183557869Y-101517121D02*
X182557869Y-101517121D01*
X183557869Y-101040930D02*
X182557869Y-101040930D01*
X182557869Y-101040930D02*
X182557869Y-100802835D01*
X182557869Y-100802835D02*
X182605488Y-100659978D01*
X182605488Y-100659978D02*
X182700726Y-100564740D01*
X182700726Y-100564740D02*
X182795964Y-100517121D01*
X182795964Y-100517121D02*
X182986440Y-100469502D01*
X182986440Y-100469502D02*
X183129297Y-100469502D01*
X183129297Y-100469502D02*
X183319773Y-100517121D01*
X183319773Y-100517121D02*
X183415011Y-100564740D01*
X183415011Y-100564740D02*
X183510250Y-100659978D01*
X183510250Y-100659978D02*
X183557869Y-100802835D01*
X183557869Y-100802835D02*
X183557869Y-101040930D01*
X200823354Y-122892345D02*
X201013830Y-123692345D01*
X201013830Y-123692345D02*
X201166211Y-123120916D01*
X201166211Y-123120916D02*
X201318592Y-123692345D01*
X201318592Y-123692345D02*
X201509069Y-122892345D01*
X202270974Y-123692345D02*
X202004307Y-123311392D01*
X201813831Y-123692345D02*
X201813831Y-122892345D01*
X201813831Y-122892345D02*
X202118593Y-122892345D01*
X202118593Y-122892345D02*
X202194783Y-122930440D01*
X202194783Y-122930440D02*
X202232878Y-122968535D01*
X202232878Y-122968535D02*
X202270974Y-123044726D01*
X202270974Y-123044726D02*
X202270974Y-123159011D01*
X202270974Y-123159011D02*
X202232878Y-123235202D01*
X202232878Y-123235202D02*
X202194783Y-123273297D01*
X202194783Y-123273297D02*
X202118593Y-123311392D01*
X202118593Y-123311392D02*
X201813831Y-123311392D01*
X203147164Y-123768535D02*
X203070974Y-123730440D01*
X203070974Y-123730440D02*
X202994783Y-123654250D01*
X202994783Y-123654250D02*
X202880497Y-123539964D01*
X202880497Y-123539964D02*
X202804307Y-123501869D01*
X202804307Y-123501869D02*
X202728116Y-123501869D01*
X202766212Y-123692345D02*
X202690021Y-123654250D01*
X202690021Y-123654250D02*
X202613831Y-123578059D01*
X202613831Y-123578059D02*
X202575735Y-123425678D01*
X202575735Y-123425678D02*
X202575735Y-123159011D01*
X202575735Y-123159011D02*
X202613831Y-123006630D01*
X202613831Y-123006630D02*
X202690021Y-122930440D01*
X202690021Y-122930440D02*
X202766212Y-122892345D01*
X202766212Y-122892345D02*
X202918593Y-122892345D01*
X202918593Y-122892345D02*
X202994783Y-122930440D01*
X202994783Y-122930440D02*
X203070974Y-123006630D01*
X203070974Y-123006630D02*
X203109069Y-123159011D01*
X203109069Y-123159011D02*
X203109069Y-123425678D01*
X203109069Y-123425678D02*
X203070974Y-123578059D01*
X203070974Y-123578059D02*
X202994783Y-123654250D01*
X202994783Y-123654250D02*
X202918593Y-123692345D01*
X202918593Y-123692345D02*
X202766212Y-123692345D01*
X200861449Y-127965253D02*
X201051925Y-128765253D01*
X201051925Y-128765253D02*
X201204306Y-128193824D01*
X201204306Y-128193824D02*
X201356687Y-128765253D01*
X201356687Y-128765253D02*
X201547164Y-127965253D01*
X202309069Y-128765253D02*
X202042402Y-128384300D01*
X201851926Y-128765253D02*
X201851926Y-127965253D01*
X201851926Y-127965253D02*
X202156688Y-127965253D01*
X202156688Y-127965253D02*
X202232878Y-128003348D01*
X202232878Y-128003348D02*
X202270973Y-128041443D01*
X202270973Y-128041443D02*
X202309069Y-128117634D01*
X202309069Y-128117634D02*
X202309069Y-128231919D01*
X202309069Y-128231919D02*
X202270973Y-128308110D01*
X202270973Y-128308110D02*
X202232878Y-128346205D01*
X202232878Y-128346205D02*
X202156688Y-128384300D01*
X202156688Y-128384300D02*
X201851926Y-128384300D01*
X202651926Y-128765253D02*
X202651926Y-127965253D01*
X202651926Y-127965253D02*
X202956688Y-127965253D01*
X202956688Y-127965253D02*
X203032878Y-128003348D01*
X203032878Y-128003348D02*
X203070973Y-128041443D01*
X203070973Y-128041443D02*
X203109069Y-128117634D01*
X203109069Y-128117634D02*
X203109069Y-128231919D01*
X203109069Y-128231919D02*
X203070973Y-128308110D01*
X203070973Y-128308110D02*
X203032878Y-128346205D01*
X203032878Y-128346205D02*
X202956688Y-128384300D01*
X202956688Y-128384300D02*
X202651926Y-128384300D01*
X133067869Y-122438549D02*
X132067869Y-122438549D01*
X132067869Y-122438549D02*
X132067869Y-122200454D01*
X132067869Y-122200454D02*
X132115488Y-122057597D01*
X132115488Y-122057597D02*
X132210726Y-121962359D01*
X132210726Y-121962359D02*
X132305964Y-121914740D01*
X132305964Y-121914740D02*
X132496440Y-121867121D01*
X132496440Y-121867121D02*
X132639297Y-121867121D01*
X132639297Y-121867121D02*
X132829773Y-121914740D01*
X132829773Y-121914740D02*
X132925011Y-121962359D01*
X132925011Y-121962359D02*
X133020250Y-122057597D01*
X133020250Y-122057597D02*
X133067869Y-122200454D01*
X133067869Y-122200454D02*
X133067869Y-122438549D01*
X132544059Y-121438549D02*
X132544059Y-121105216D01*
X133067869Y-120962359D02*
X133067869Y-121438549D01*
X133067869Y-121438549D02*
X132067869Y-121438549D01*
X132067869Y-121438549D02*
X132067869Y-120962359D01*
X132544059Y-120200454D02*
X132591678Y-120057597D01*
X132591678Y-120057597D02*
X132639297Y-120009978D01*
X132639297Y-120009978D02*
X132734535Y-119962359D01*
X132734535Y-119962359D02*
X132877392Y-119962359D01*
X132877392Y-119962359D02*
X132972630Y-120009978D01*
X132972630Y-120009978D02*
X133020250Y-120057597D01*
X133020250Y-120057597D02*
X133067869Y-120152835D01*
X133067869Y-120152835D02*
X133067869Y-120533787D01*
X133067869Y-120533787D02*
X132067869Y-120533787D01*
X132067869Y-120533787D02*
X132067869Y-120200454D01*
X132067869Y-120200454D02*
X132115488Y-120105216D01*
X132115488Y-120105216D02*
X132163107Y-120057597D01*
X132163107Y-120057597D02*
X132258345Y-120009978D01*
X132258345Y-120009978D02*
X132353583Y-120009978D01*
X132353583Y-120009978D02*
X132448821Y-120057597D01*
X132448821Y-120057597D02*
X132496440Y-120105216D01*
X132496440Y-120105216D02*
X132544059Y-120200454D01*
X132544059Y-120200454D02*
X132544059Y-120533787D01*
X132067869Y-119533787D02*
X132877392Y-119533787D01*
X132877392Y-119533787D02*
X132972630Y-119486168D01*
X132972630Y-119486168D02*
X133020250Y-119438549D01*
X133020250Y-119438549D02*
X133067869Y-119343311D01*
X133067869Y-119343311D02*
X133067869Y-119152835D01*
X133067869Y-119152835D02*
X133020250Y-119057597D01*
X133020250Y-119057597D02*
X132972630Y-119009978D01*
X132972630Y-119009978D02*
X132877392Y-118962359D01*
X132877392Y-118962359D02*
X132067869Y-118962359D01*
X132115488Y-117962359D02*
X132067869Y-118057597D01*
X132067869Y-118057597D02*
X132067869Y-118200454D01*
X132067869Y-118200454D02*
X132115488Y-118343311D01*
X132115488Y-118343311D02*
X132210726Y-118438549D01*
X132210726Y-118438549D02*
X132305964Y-118486168D01*
X132305964Y-118486168D02*
X132496440Y-118533787D01*
X132496440Y-118533787D02*
X132639297Y-118533787D01*
X132639297Y-118533787D02*
X132829773Y-118486168D01*
X132829773Y-118486168D02*
X132925011Y-118438549D01*
X132925011Y-118438549D02*
X133020250Y-118343311D01*
X133020250Y-118343311D02*
X133067869Y-118200454D01*
X133067869Y-118200454D02*
X133067869Y-118105216D01*
X133067869Y-118105216D02*
X133020250Y-117962359D01*
X133020250Y-117962359D02*
X132972630Y-117914740D01*
X132972630Y-117914740D02*
X132639297Y-117914740D01*
X132639297Y-117914740D02*
X132639297Y-118105216D01*
X201432878Y-133055440D02*
X201356688Y-133017345D01*
X201356688Y-133017345D02*
X201242402Y-133017345D01*
X201242402Y-133017345D02*
X201128116Y-133055440D01*
X201128116Y-133055440D02*
X201051926Y-133131630D01*
X201051926Y-133131630D02*
X201013831Y-133207821D01*
X201013831Y-133207821D02*
X200975735Y-133360202D01*
X200975735Y-133360202D02*
X200975735Y-133474488D01*
X200975735Y-133474488D02*
X201013831Y-133626869D01*
X201013831Y-133626869D02*
X201051926Y-133703059D01*
X201051926Y-133703059D02*
X201128116Y-133779250D01*
X201128116Y-133779250D02*
X201242402Y-133817345D01*
X201242402Y-133817345D02*
X201318593Y-133817345D01*
X201318593Y-133817345D02*
X201432878Y-133779250D01*
X201432878Y-133779250D02*
X201470974Y-133741154D01*
X201470974Y-133741154D02*
X201470974Y-133474488D01*
X201470974Y-133474488D02*
X201318593Y-133474488D01*
X201813831Y-133817345D02*
X201813831Y-133017345D01*
X201813831Y-133017345D02*
X202270974Y-133817345D01*
X202270974Y-133817345D02*
X202270974Y-133017345D01*
X202651926Y-133817345D02*
X202651926Y-133017345D01*
X202651926Y-133017345D02*
X202842402Y-133017345D01*
X202842402Y-133017345D02*
X202956688Y-133055440D01*
X202956688Y-133055440D02*
X203032878Y-133131630D01*
X203032878Y-133131630D02*
X203070973Y-133207821D01*
X203070973Y-133207821D02*
X203109069Y-133360202D01*
X203109069Y-133360202D02*
X203109069Y-133474488D01*
X203109069Y-133474488D02*
X203070973Y-133626869D01*
X203070973Y-133626869D02*
X203032878Y-133703059D01*
X203032878Y-133703059D02*
X202956688Y-133779250D01*
X202956688Y-133779250D02*
X202842402Y-133817345D01*
X202842402Y-133817345D02*
X202651926Y-133817345D01*
X136665735Y-130994250D02*
X136780021Y-131032345D01*
X136780021Y-131032345D02*
X136970497Y-131032345D01*
X136970497Y-131032345D02*
X137046688Y-130994250D01*
X137046688Y-130994250D02*
X137084783Y-130956154D01*
X137084783Y-130956154D02*
X137122878Y-130879964D01*
X137122878Y-130879964D02*
X137122878Y-130803773D01*
X137122878Y-130803773D02*
X137084783Y-130727583D01*
X137084783Y-130727583D02*
X137046688Y-130689488D01*
X137046688Y-130689488D02*
X136970497Y-130651392D01*
X136970497Y-130651392D02*
X136818116Y-130613297D01*
X136818116Y-130613297D02*
X136741926Y-130575202D01*
X136741926Y-130575202D02*
X136703831Y-130537107D01*
X136703831Y-130537107D02*
X136665735Y-130460916D01*
X136665735Y-130460916D02*
X136665735Y-130384726D01*
X136665735Y-130384726D02*
X136703831Y-130308535D01*
X136703831Y-130308535D02*
X136741926Y-130270440D01*
X136741926Y-130270440D02*
X136818116Y-130232345D01*
X136818116Y-130232345D02*
X137008593Y-130232345D01*
X137008593Y-130232345D02*
X137122878Y-130270440D01*
X137465736Y-131032345D02*
X137465736Y-130232345D01*
X137465736Y-130232345D02*
X137656212Y-130232345D01*
X137656212Y-130232345D02*
X137770498Y-130270440D01*
X137770498Y-130270440D02*
X137846688Y-130346630D01*
X137846688Y-130346630D02*
X137884783Y-130422821D01*
X137884783Y-130422821D02*
X137922879Y-130575202D01*
X137922879Y-130575202D02*
X137922879Y-130689488D01*
X137922879Y-130689488D02*
X137884783Y-130841869D01*
X137884783Y-130841869D02*
X137846688Y-130918059D01*
X137846688Y-130918059D02*
X137770498Y-130994250D01*
X137770498Y-130994250D02*
X137656212Y-131032345D01*
X137656212Y-131032345D02*
X137465736Y-131032345D01*
X138265736Y-131032345D02*
X138265736Y-130232345D01*
X138799069Y-130232345D02*
X138951450Y-130232345D01*
X138951450Y-130232345D02*
X139027640Y-130270440D01*
X139027640Y-130270440D02*
X139103831Y-130346630D01*
X139103831Y-130346630D02*
X139141926Y-130499011D01*
X139141926Y-130499011D02*
X139141926Y-130765678D01*
X139141926Y-130765678D02*
X139103831Y-130918059D01*
X139103831Y-130918059D02*
X139027640Y-130994250D01*
X139027640Y-130994250D02*
X138951450Y-131032345D01*
X138951450Y-131032345D02*
X138799069Y-131032345D01*
X138799069Y-131032345D02*
X138722878Y-130994250D01*
X138722878Y-130994250D02*
X138646688Y-130918059D01*
X138646688Y-130918059D02*
X138608592Y-130765678D01*
X138608592Y-130765678D02*
X138608592Y-130499011D01*
X138608592Y-130499011D02*
X138646688Y-130346630D01*
X138646688Y-130346630D02*
X138722878Y-130270440D01*
X138722878Y-130270440D02*
X138799069Y-130232345D01*
X200861449Y-130457190D02*
X201051925Y-131257190D01*
X201051925Y-131257190D02*
X201204306Y-130685761D01*
X201204306Y-130685761D02*
X201356687Y-131257190D01*
X201356687Y-131257190D02*
X201547164Y-130457190D01*
X202309069Y-131257190D02*
X202042402Y-130876237D01*
X201851926Y-131257190D02*
X201851926Y-130457190D01*
X201851926Y-130457190D02*
X202156688Y-130457190D01*
X202156688Y-130457190D02*
X202232878Y-130495285D01*
X202232878Y-130495285D02*
X202270973Y-130533380D01*
X202270973Y-130533380D02*
X202309069Y-130609571D01*
X202309069Y-130609571D02*
X202309069Y-130723856D01*
X202309069Y-130723856D02*
X202270973Y-130800047D01*
X202270973Y-130800047D02*
X202232878Y-130838142D01*
X202232878Y-130838142D02*
X202156688Y-130876237D01*
X202156688Y-130876237D02*
X201851926Y-130876237D01*
X202651926Y-131257190D02*
X202651926Y-130457190D01*
X202651926Y-130457190D02*
X202842402Y-130457190D01*
X202842402Y-130457190D02*
X202956688Y-130495285D01*
X202956688Y-130495285D02*
X203032878Y-130571475D01*
X203032878Y-130571475D02*
X203070973Y-130647666D01*
X203070973Y-130647666D02*
X203109069Y-130800047D01*
X203109069Y-130800047D02*
X203109069Y-130914333D01*
X203109069Y-130914333D02*
X203070973Y-131066714D01*
X203070973Y-131066714D02*
X203032878Y-131142904D01*
X203032878Y-131142904D02*
X202956688Y-131219095D01*
X202956688Y-131219095D02*
X202842402Y-131257190D01*
X202842402Y-131257190D02*
X202651926Y-131257190D01*
X157603831Y-114820250D02*
X157746688Y-114867869D01*
X157746688Y-114867869D02*
X157984783Y-114867869D01*
X157984783Y-114867869D02*
X158080021Y-114820250D01*
X158080021Y-114820250D02*
X158127640Y-114772630D01*
X158127640Y-114772630D02*
X158175259Y-114677392D01*
X158175259Y-114677392D02*
X158175259Y-114582154D01*
X158175259Y-114582154D02*
X158127640Y-114486916D01*
X158127640Y-114486916D02*
X158080021Y-114439297D01*
X158080021Y-114439297D02*
X157984783Y-114391678D01*
X157984783Y-114391678D02*
X157794307Y-114344059D01*
X157794307Y-114344059D02*
X157699069Y-114296440D01*
X157699069Y-114296440D02*
X157651450Y-114248821D01*
X157651450Y-114248821D02*
X157603831Y-114153583D01*
X157603831Y-114153583D02*
X157603831Y-114058345D01*
X157603831Y-114058345D02*
X157651450Y-113963107D01*
X157651450Y-113963107D02*
X157699069Y-113915488D01*
X157699069Y-113915488D02*
X157794307Y-113867869D01*
X157794307Y-113867869D02*
X158032402Y-113867869D01*
X158032402Y-113867869D02*
X158175259Y-113915488D01*
X158460974Y-113867869D02*
X159032402Y-113867869D01*
X158746688Y-114867869D02*
X158746688Y-113867869D01*
X159365736Y-114867869D02*
X159365736Y-113867869D01*
X159365736Y-113867869D02*
X159699069Y-114582154D01*
X159699069Y-114582154D02*
X160032402Y-113867869D01*
X160032402Y-113867869D02*
X160032402Y-114867869D01*
X160413355Y-113867869D02*
X161032402Y-113867869D01*
X161032402Y-113867869D02*
X160699069Y-114248821D01*
X160699069Y-114248821D02*
X160841926Y-114248821D01*
X160841926Y-114248821D02*
X160937164Y-114296440D01*
X160937164Y-114296440D02*
X160984783Y-114344059D01*
X160984783Y-114344059D02*
X161032402Y-114439297D01*
X161032402Y-114439297D02*
X161032402Y-114677392D01*
X161032402Y-114677392D02*
X160984783Y-114772630D01*
X160984783Y-114772630D02*
X160937164Y-114820250D01*
X160937164Y-114820250D02*
X160841926Y-114867869D01*
X160841926Y-114867869D02*
X160556212Y-114867869D01*
X160556212Y-114867869D02*
X160460974Y-114820250D01*
X160460974Y-114820250D02*
X160413355Y-114772630D01*
X161413355Y-113963107D02*
X161460974Y-113915488D01*
X161460974Y-113915488D02*
X161556212Y-113867869D01*
X161556212Y-113867869D02*
X161794307Y-113867869D01*
X161794307Y-113867869D02*
X161889545Y-113915488D01*
X161889545Y-113915488D02*
X161937164Y-113963107D01*
X161937164Y-113963107D02*
X161984783Y-114058345D01*
X161984783Y-114058345D02*
X161984783Y-114153583D01*
X161984783Y-114153583D02*
X161937164Y-114296440D01*
X161937164Y-114296440D02*
X161365736Y-114867869D01*
X161365736Y-114867869D02*
X161984783Y-114867869D01*
X162746688Y-114344059D02*
X162413355Y-114344059D01*
X162413355Y-114867869D02*
X162413355Y-113867869D01*
X162413355Y-113867869D02*
X162889545Y-113867869D01*
X163699069Y-114201202D02*
X163699069Y-114867869D01*
X163460974Y-113820250D02*
X163222879Y-114534535D01*
X163222879Y-114534535D02*
X163841926Y-114534535D01*
X164746688Y-114867869D02*
X164175260Y-114867869D01*
X164460974Y-114867869D02*
X164460974Y-113867869D01*
X164460974Y-113867869D02*
X164365736Y-114010726D01*
X164365736Y-114010726D02*
X164270498Y-114105964D01*
X164270498Y-114105964D02*
X164175260Y-114153583D01*
X165699069Y-114867869D02*
X165127641Y-114867869D01*
X165413355Y-114867869D02*
X165413355Y-113867869D01*
X165413355Y-113867869D02*
X165318117Y-114010726D01*
X165318117Y-114010726D02*
X165222879Y-114105964D01*
X165222879Y-114105964D02*
X165127641Y-114153583D01*
X133070250Y-134686168D02*
X133117869Y-134543311D01*
X133117869Y-134543311D02*
X133117869Y-134305216D01*
X133117869Y-134305216D02*
X133070250Y-134209978D01*
X133070250Y-134209978D02*
X133022630Y-134162359D01*
X133022630Y-134162359D02*
X132927392Y-134114740D01*
X132927392Y-134114740D02*
X132832154Y-134114740D01*
X132832154Y-134114740D02*
X132736916Y-134162359D01*
X132736916Y-134162359D02*
X132689297Y-134209978D01*
X132689297Y-134209978D02*
X132641678Y-134305216D01*
X132641678Y-134305216D02*
X132594059Y-134495692D01*
X132594059Y-134495692D02*
X132546440Y-134590930D01*
X132546440Y-134590930D02*
X132498821Y-134638549D01*
X132498821Y-134638549D02*
X132403583Y-134686168D01*
X132403583Y-134686168D02*
X132308345Y-134686168D01*
X132308345Y-134686168D02*
X132213107Y-134638549D01*
X132213107Y-134638549D02*
X132165488Y-134590930D01*
X132165488Y-134590930D02*
X132117869Y-134495692D01*
X132117869Y-134495692D02*
X132117869Y-134257597D01*
X132117869Y-134257597D02*
X132165488Y-134114740D01*
X132117869Y-133829025D02*
X132117869Y-133257597D01*
X133117869Y-133543311D02*
X132117869Y-133543311D01*
X133117869Y-132448073D02*
X133117869Y-132924263D01*
X133117869Y-132924263D02*
X132117869Y-132924263D01*
X133117869Y-132114739D02*
X132117869Y-132114739D01*
X133117869Y-131638549D02*
X132117869Y-131638549D01*
X132117869Y-131638549D02*
X133117869Y-131067121D01*
X133117869Y-131067121D02*
X132117869Y-131067121D01*
X133117869Y-130590930D02*
X132117869Y-130590930D01*
X133117869Y-130019502D02*
X132546440Y-130448073D01*
X132117869Y-130019502D02*
X132689297Y-130590930D01*
X188610250Y-102986168D02*
X188657869Y-102843311D01*
X188657869Y-102843311D02*
X188657869Y-102605216D01*
X188657869Y-102605216D02*
X188610250Y-102509978D01*
X188610250Y-102509978D02*
X188562630Y-102462359D01*
X188562630Y-102462359D02*
X188467392Y-102414740D01*
X188467392Y-102414740D02*
X188372154Y-102414740D01*
X188372154Y-102414740D02*
X188276916Y-102462359D01*
X188276916Y-102462359D02*
X188229297Y-102509978D01*
X188229297Y-102509978D02*
X188181678Y-102605216D01*
X188181678Y-102605216D02*
X188134059Y-102795692D01*
X188134059Y-102795692D02*
X188086440Y-102890930D01*
X188086440Y-102890930D02*
X188038821Y-102938549D01*
X188038821Y-102938549D02*
X187943583Y-102986168D01*
X187943583Y-102986168D02*
X187848345Y-102986168D01*
X187848345Y-102986168D02*
X187753107Y-102938549D01*
X187753107Y-102938549D02*
X187705488Y-102890930D01*
X187705488Y-102890930D02*
X187657869Y-102795692D01*
X187657869Y-102795692D02*
X187657869Y-102557597D01*
X187657869Y-102557597D02*
X187705488Y-102414740D01*
X188562630Y-101414740D02*
X188610250Y-101462359D01*
X188610250Y-101462359D02*
X188657869Y-101605216D01*
X188657869Y-101605216D02*
X188657869Y-101700454D01*
X188657869Y-101700454D02*
X188610250Y-101843311D01*
X188610250Y-101843311D02*
X188515011Y-101938549D01*
X188515011Y-101938549D02*
X188419773Y-101986168D01*
X188419773Y-101986168D02*
X188229297Y-102033787D01*
X188229297Y-102033787D02*
X188086440Y-102033787D01*
X188086440Y-102033787D02*
X187895964Y-101986168D01*
X187895964Y-101986168D02*
X187800726Y-101938549D01*
X187800726Y-101938549D02*
X187705488Y-101843311D01*
X187705488Y-101843311D02*
X187657869Y-101700454D01*
X187657869Y-101700454D02*
X187657869Y-101605216D01*
X187657869Y-101605216D02*
X187705488Y-101462359D01*
X187705488Y-101462359D02*
X187753107Y-101414740D01*
X188657869Y-100509978D02*
X188657869Y-100986168D01*
X188657869Y-100986168D02*
X187657869Y-100986168D01*
X201509069Y-121117345D02*
X201242402Y-120736392D01*
X201051926Y-121117345D02*
X201051926Y-120317345D01*
X201051926Y-120317345D02*
X201356688Y-120317345D01*
X201356688Y-120317345D02*
X201432878Y-120355440D01*
X201432878Y-120355440D02*
X201470973Y-120393535D01*
X201470973Y-120393535D02*
X201509069Y-120469726D01*
X201509069Y-120469726D02*
X201509069Y-120584011D01*
X201509069Y-120584011D02*
X201470973Y-120660202D01*
X201470973Y-120660202D02*
X201432878Y-120698297D01*
X201432878Y-120698297D02*
X201356688Y-120736392D01*
X201356688Y-120736392D02*
X201051926Y-120736392D01*
X201851926Y-121117345D02*
X201851926Y-120317345D01*
X201851926Y-120317345D02*
X202042402Y-120317345D01*
X202042402Y-120317345D02*
X202156688Y-120355440D01*
X202156688Y-120355440D02*
X202232878Y-120431630D01*
X202232878Y-120431630D02*
X202270973Y-120507821D01*
X202270973Y-120507821D02*
X202309069Y-120660202D01*
X202309069Y-120660202D02*
X202309069Y-120774488D01*
X202309069Y-120774488D02*
X202270973Y-120926869D01*
X202270973Y-120926869D02*
X202232878Y-121003059D01*
X202232878Y-121003059D02*
X202156688Y-121079250D01*
X202156688Y-121079250D02*
X202042402Y-121117345D01*
X202042402Y-121117345D02*
X201851926Y-121117345D01*
X202651926Y-121117345D02*
X202651926Y-120317345D01*
X202651926Y-120317345D02*
X202842402Y-120317345D01*
X202842402Y-120317345D02*
X202956688Y-120355440D01*
X202956688Y-120355440D02*
X203032878Y-120431630D01*
X203032878Y-120431630D02*
X203070973Y-120507821D01*
X203070973Y-120507821D02*
X203109069Y-120660202D01*
X203109069Y-120660202D02*
X203109069Y-120774488D01*
X203109069Y-120774488D02*
X203070973Y-120926869D01*
X203070973Y-120926869D02*
X203032878Y-121003059D01*
X203032878Y-121003059D02*
X202956688Y-121079250D01*
X202956688Y-121079250D02*
X202842402Y-121117345D01*
X202842402Y-121117345D02*
X202651926Y-121117345D01*
X192257598Y-140570250D02*
X192400455Y-140617869D01*
X192400455Y-140617869D02*
X192638550Y-140617869D01*
X192638550Y-140617869D02*
X192733788Y-140570250D01*
X192733788Y-140570250D02*
X192781407Y-140522630D01*
X192781407Y-140522630D02*
X192829026Y-140427392D01*
X192829026Y-140427392D02*
X192829026Y-140332154D01*
X192829026Y-140332154D02*
X192781407Y-140236916D01*
X192781407Y-140236916D02*
X192733788Y-140189297D01*
X192733788Y-140189297D02*
X192638550Y-140141678D01*
X192638550Y-140141678D02*
X192448074Y-140094059D01*
X192448074Y-140094059D02*
X192352836Y-140046440D01*
X192352836Y-140046440D02*
X192305217Y-139998821D01*
X192305217Y-139998821D02*
X192257598Y-139903583D01*
X192257598Y-139903583D02*
X192257598Y-139808345D01*
X192257598Y-139808345D02*
X192305217Y-139713107D01*
X192305217Y-139713107D02*
X192352836Y-139665488D01*
X192352836Y-139665488D02*
X192448074Y-139617869D01*
X192448074Y-139617869D02*
X192686169Y-139617869D01*
X192686169Y-139617869D02*
X192829026Y-139665488D01*
X193257598Y-140617869D02*
X193257598Y-139617869D01*
X193257598Y-139617869D02*
X193590931Y-140332154D01*
X193590931Y-140332154D02*
X193924264Y-139617869D01*
X193924264Y-139617869D02*
X193924264Y-140617869D01*
X194352836Y-140332154D02*
X194829026Y-140332154D01*
X194257598Y-140617869D02*
X194590931Y-139617869D01*
X194590931Y-139617869D02*
X194924264Y-140617869D01*
X195829026Y-140617869D02*
X195495693Y-140141678D01*
X195257598Y-140617869D02*
X195257598Y-139617869D01*
X195257598Y-139617869D02*
X195638550Y-139617869D01*
X195638550Y-139617869D02*
X195733788Y-139665488D01*
X195733788Y-139665488D02*
X195781407Y-139713107D01*
X195781407Y-139713107D02*
X195829026Y-139808345D01*
X195829026Y-139808345D02*
X195829026Y-139951202D01*
X195829026Y-139951202D02*
X195781407Y-140046440D01*
X195781407Y-140046440D02*
X195733788Y-140094059D01*
X195733788Y-140094059D02*
X195638550Y-140141678D01*
X195638550Y-140141678D02*
X195257598Y-140141678D01*
X196114741Y-139617869D02*
X196686169Y-139617869D01*
X196400455Y-140617869D02*
X196400455Y-139617869D01*
X197019503Y-140617869D02*
X197019503Y-139617869D01*
X197019503Y-139617869D02*
X197257598Y-139617869D01*
X197257598Y-139617869D02*
X197400455Y-139665488D01*
X197400455Y-139665488D02*
X197495693Y-139760726D01*
X197495693Y-139760726D02*
X197543312Y-139855964D01*
X197543312Y-139855964D02*
X197590931Y-140046440D01*
X197590931Y-140046440D02*
X197590931Y-140189297D01*
X197590931Y-140189297D02*
X197543312Y-140379773D01*
X197543312Y-140379773D02*
X197495693Y-140475011D01*
X197495693Y-140475011D02*
X197400455Y-140570250D01*
X197400455Y-140570250D02*
X197257598Y-140617869D01*
X197257598Y-140617869D02*
X197019503Y-140617869D01*
X198019503Y-140617869D02*
X198019503Y-139617869D01*
X198448074Y-140570250D02*
X198590931Y-140617869D01*
X198590931Y-140617869D02*
X198829026Y-140617869D01*
X198829026Y-140617869D02*
X198924264Y-140570250D01*
X198924264Y-140570250D02*
X198971883Y-140522630D01*
X198971883Y-140522630D02*
X199019502Y-140427392D01*
X199019502Y-140427392D02*
X199019502Y-140332154D01*
X199019502Y-140332154D02*
X198971883Y-140236916D01*
X198971883Y-140236916D02*
X198924264Y-140189297D01*
X198924264Y-140189297D02*
X198829026Y-140141678D01*
X198829026Y-140141678D02*
X198638550Y-140094059D01*
X198638550Y-140094059D02*
X198543312Y-140046440D01*
X198543312Y-140046440D02*
X198495693Y-139998821D01*
X198495693Y-139998821D02*
X198448074Y-139903583D01*
X198448074Y-139903583D02*
X198448074Y-139808345D01*
X198448074Y-139808345D02*
X198495693Y-139713107D01*
X198495693Y-139713107D02*
X198543312Y-139665488D01*
X198543312Y-139665488D02*
X198638550Y-139617869D01*
X198638550Y-139617869D02*
X198876645Y-139617869D01*
X198876645Y-139617869D02*
X199019502Y-139665488D01*
X199448074Y-140617869D02*
X199448074Y-139617869D01*
X200019502Y-140617869D02*
X199590931Y-140046440D01*
X200019502Y-139617869D02*
X199448074Y-140189297D01*
X201209979Y-140617869D02*
X201209979Y-139617869D01*
X201686169Y-140617869D02*
X201686169Y-139617869D01*
X203495692Y-140617869D02*
X203162359Y-140141678D01*
X202924264Y-140617869D02*
X202924264Y-139617869D01*
X202924264Y-139617869D02*
X203305216Y-139617869D01*
X203305216Y-139617869D02*
X203400454Y-139665488D01*
X203400454Y-139665488D02*
X203448073Y-139713107D01*
X203448073Y-139713107D02*
X203495692Y-139808345D01*
X203495692Y-139808345D02*
X203495692Y-139951202D01*
X203495692Y-139951202D02*
X203448073Y-140046440D01*
X203448073Y-140046440D02*
X203400454Y-140094059D01*
X203400454Y-140094059D02*
X203305216Y-140141678D01*
X203305216Y-140141678D02*
X202924264Y-140141678D01*
X203924264Y-140094059D02*
X204257597Y-140094059D01*
X204400454Y-140617869D02*
X203924264Y-140617869D01*
X203924264Y-140617869D02*
X203924264Y-139617869D01*
X203924264Y-139617869D02*
X204400454Y-139617869D01*
X204686169Y-139617869D02*
X205019502Y-140617869D01*
X205019502Y-140617869D02*
X205352835Y-139617869D01*
X205686169Y-140522630D02*
X205733788Y-140570250D01*
X205733788Y-140570250D02*
X205686169Y-140617869D01*
X205686169Y-140617869D02*
X205638550Y-140570250D01*
X205638550Y-140570250D02*
X205686169Y-140522630D01*
X205686169Y-140522630D02*
X205686169Y-140617869D01*
X206067121Y-139617869D02*
X206733787Y-139617869D01*
X206733787Y-139617869D02*
X206305216Y-140617869D01*
X185776916Y-104688549D02*
X185776916Y-103926645D01*
X186157869Y-104307597D02*
X185395964Y-104307597D01*
X185157869Y-103545692D02*
X185157869Y-102926645D01*
X185157869Y-102926645D02*
X185538821Y-103259978D01*
X185538821Y-103259978D02*
X185538821Y-103117121D01*
X185538821Y-103117121D02*
X185586440Y-103021883D01*
X185586440Y-103021883D02*
X185634059Y-102974264D01*
X185634059Y-102974264D02*
X185729297Y-102926645D01*
X185729297Y-102926645D02*
X185967392Y-102926645D01*
X185967392Y-102926645D02*
X186062630Y-102974264D01*
X186062630Y-102974264D02*
X186110250Y-103021883D01*
X186110250Y-103021883D02*
X186157869Y-103117121D01*
X186157869Y-103117121D02*
X186157869Y-103402835D01*
X186157869Y-103402835D02*
X186110250Y-103498073D01*
X186110250Y-103498073D02*
X186062630Y-103545692D01*
X186062630Y-102498073D02*
X186110250Y-102450454D01*
X186110250Y-102450454D02*
X186157869Y-102498073D01*
X186157869Y-102498073D02*
X186110250Y-102545692D01*
X186110250Y-102545692D02*
X186062630Y-102498073D01*
X186062630Y-102498073D02*
X186157869Y-102498073D01*
X185157869Y-102117121D02*
X185157869Y-101498074D01*
X185157869Y-101498074D02*
X185538821Y-101831407D01*
X185538821Y-101831407D02*
X185538821Y-101688550D01*
X185538821Y-101688550D02*
X185586440Y-101593312D01*
X185586440Y-101593312D02*
X185634059Y-101545693D01*
X185634059Y-101545693D02*
X185729297Y-101498074D01*
X185729297Y-101498074D02*
X185967392Y-101498074D01*
X185967392Y-101498074D02*
X186062630Y-101545693D01*
X186062630Y-101545693D02*
X186110250Y-101593312D01*
X186110250Y-101593312D02*
X186157869Y-101688550D01*
X186157869Y-101688550D02*
X186157869Y-101974264D01*
X186157869Y-101974264D02*
X186110250Y-102069502D01*
X186110250Y-102069502D02*
X186062630Y-102117121D01*
X185157869Y-101212359D02*
X186157869Y-100879026D01*
X186157869Y-100879026D02*
X185157869Y-100545693D01*
X191160250Y-102936168D02*
X191207869Y-102793311D01*
X191207869Y-102793311D02*
X191207869Y-102555216D01*
X191207869Y-102555216D02*
X191160250Y-102459978D01*
X191160250Y-102459978D02*
X191112630Y-102412359D01*
X191112630Y-102412359D02*
X191017392Y-102364740D01*
X191017392Y-102364740D02*
X190922154Y-102364740D01*
X190922154Y-102364740D02*
X190826916Y-102412359D01*
X190826916Y-102412359D02*
X190779297Y-102459978D01*
X190779297Y-102459978D02*
X190731678Y-102555216D01*
X190731678Y-102555216D02*
X190684059Y-102745692D01*
X190684059Y-102745692D02*
X190636440Y-102840930D01*
X190636440Y-102840930D02*
X190588821Y-102888549D01*
X190588821Y-102888549D02*
X190493583Y-102936168D01*
X190493583Y-102936168D02*
X190398345Y-102936168D01*
X190398345Y-102936168D02*
X190303107Y-102888549D01*
X190303107Y-102888549D02*
X190255488Y-102840930D01*
X190255488Y-102840930D02*
X190207869Y-102745692D01*
X190207869Y-102745692D02*
X190207869Y-102507597D01*
X190207869Y-102507597D02*
X190255488Y-102364740D01*
X191207869Y-101936168D02*
X190207869Y-101936168D01*
X190207869Y-101936168D02*
X190207869Y-101698073D01*
X190207869Y-101698073D02*
X190255488Y-101555216D01*
X190255488Y-101555216D02*
X190350726Y-101459978D01*
X190350726Y-101459978D02*
X190445964Y-101412359D01*
X190445964Y-101412359D02*
X190636440Y-101364740D01*
X190636440Y-101364740D02*
X190779297Y-101364740D01*
X190779297Y-101364740D02*
X190969773Y-101412359D01*
X190969773Y-101412359D02*
X191065011Y-101459978D01*
X191065011Y-101459978D02*
X191160250Y-101555216D01*
X191160250Y-101555216D02*
X191207869Y-101698073D01*
X191207869Y-101698073D02*
X191207869Y-101936168D01*
X190922154Y-100983787D02*
X190922154Y-100507597D01*
X191207869Y-101079025D02*
X190207869Y-100745692D01*
X190207869Y-100745692D02*
X191207869Y-100412359D01*
D11*
X145297619Y-124437295D02*
X144916667Y-124437295D01*
X144916667Y-124437295D02*
X144878571Y-124818247D01*
X144878571Y-124818247D02*
X144916667Y-124780152D01*
X144916667Y-124780152D02*
X144992857Y-124742057D01*
X144992857Y-124742057D02*
X145183333Y-124742057D01*
X145183333Y-124742057D02*
X145259524Y-124780152D01*
X145259524Y-124780152D02*
X145297619Y-124818247D01*
X145297619Y-124818247D02*
X145335714Y-124894438D01*
X145335714Y-124894438D02*
X145335714Y-125084914D01*
X145335714Y-125084914D02*
X145297619Y-125161104D01*
X145297619Y-125161104D02*
X145259524Y-125199200D01*
X145259524Y-125199200D02*
X145183333Y-125237295D01*
X145183333Y-125237295D02*
X144992857Y-125237295D01*
X144992857Y-125237295D02*
X144916667Y-125199200D01*
X144916667Y-125199200D02*
X144878571Y-125161104D01*
X145564286Y-124437295D02*
X145830953Y-125237295D01*
X145830953Y-125237295D02*
X146097619Y-124437295D01*
X141015476Y-124487295D02*
X141510714Y-124487295D01*
X141510714Y-124487295D02*
X141244048Y-124792057D01*
X141244048Y-124792057D02*
X141358333Y-124792057D01*
X141358333Y-124792057D02*
X141434524Y-124830152D01*
X141434524Y-124830152D02*
X141472619Y-124868247D01*
X141472619Y-124868247D02*
X141510714Y-124944438D01*
X141510714Y-124944438D02*
X141510714Y-125134914D01*
X141510714Y-125134914D02*
X141472619Y-125211104D01*
X141472619Y-125211104D02*
X141434524Y-125249200D01*
X141434524Y-125249200D02*
X141358333Y-125287295D01*
X141358333Y-125287295D02*
X141129762Y-125287295D01*
X141129762Y-125287295D02*
X141053571Y-125249200D01*
X141053571Y-125249200D02*
X141015476Y-125211104D01*
X141739286Y-124487295D02*
X142005953Y-125287295D01*
X142005953Y-125287295D02*
X142272619Y-124487295D01*
D10*
X203149727Y-114812594D02*
X203149727Y-115079260D01*
X203568775Y-115079260D02*
X202768775Y-115079260D01*
X202768775Y-115079260D02*
X202768775Y-114698308D01*
X202768775Y-114393546D02*
X203416394Y-114393546D01*
X203416394Y-114393546D02*
X203492584Y-114355451D01*
X203492584Y-114355451D02*
X203530680Y-114317356D01*
X203530680Y-114317356D02*
X203568775Y-114241165D01*
X203568775Y-114241165D02*
X203568775Y-114088784D01*
X203568775Y-114088784D02*
X203530680Y-114012594D01*
X203530680Y-114012594D02*
X203492584Y-113974499D01*
X203492584Y-113974499D02*
X203416394Y-113936403D01*
X203416394Y-113936403D02*
X202768775Y-113936403D01*
X203530680Y-113593547D02*
X203568775Y-113479261D01*
X203568775Y-113479261D02*
X203568775Y-113288785D01*
X203568775Y-113288785D02*
X203530680Y-113212594D01*
X203530680Y-113212594D02*
X203492584Y-113174499D01*
X203492584Y-113174499D02*
X203416394Y-113136404D01*
X203416394Y-113136404D02*
X203340203Y-113136404D01*
X203340203Y-113136404D02*
X203264013Y-113174499D01*
X203264013Y-113174499D02*
X203225918Y-113212594D01*
X203225918Y-113212594D02*
X203187822Y-113288785D01*
X203187822Y-113288785D02*
X203149727Y-113441166D01*
X203149727Y-113441166D02*
X203111632Y-113517356D01*
X203111632Y-113517356D02*
X203073537Y-113555451D01*
X203073537Y-113555451D02*
X202997346Y-113593547D01*
X202997346Y-113593547D02*
X202921156Y-113593547D01*
X202921156Y-113593547D02*
X202844965Y-113555451D01*
X202844965Y-113555451D02*
X202806870Y-113517356D01*
X202806870Y-113517356D02*
X202768775Y-113441166D01*
X202768775Y-113441166D02*
X202768775Y-113250689D01*
X202768775Y-113250689D02*
X202806870Y-113136404D01*
X203149727Y-112793546D02*
X203149727Y-112526880D01*
X203568775Y-112412594D02*
X203568775Y-112793546D01*
X203568775Y-112793546D02*
X202768775Y-112793546D01*
X202768775Y-112793546D02*
X202768775Y-112412594D01*
D12*
X142196212Y-140061202D02*
X142434307Y-140727869D01*
X142434307Y-140727869D02*
X142672402Y-140061202D01*
X143053355Y-140727869D02*
X143053355Y-140061202D01*
X143053355Y-139727869D02*
X143005736Y-139775488D01*
X143005736Y-139775488D02*
X143053355Y-139823107D01*
X143053355Y-139823107D02*
X143100974Y-139775488D01*
X143100974Y-139775488D02*
X143053355Y-139727869D01*
X143053355Y-139727869D02*
X143053355Y-139823107D01*
X143529545Y-140061202D02*
X143529545Y-140727869D01*
X143529545Y-140156440D02*
X143577164Y-140108821D01*
X143577164Y-140108821D02*
X143672402Y-140061202D01*
X143672402Y-140061202D02*
X143815259Y-140061202D01*
X143815259Y-140061202D02*
X143910497Y-140108821D01*
X143910497Y-140108821D02*
X143958116Y-140204059D01*
X143958116Y-140204059D02*
X143958116Y-140727869D01*
X144862878Y-140680250D02*
X144767640Y-140727869D01*
X144767640Y-140727869D02*
X144577164Y-140727869D01*
X144577164Y-140727869D02*
X144481926Y-140680250D01*
X144481926Y-140680250D02*
X144434307Y-140632630D01*
X144434307Y-140632630D02*
X144386688Y-140537392D01*
X144386688Y-140537392D02*
X144386688Y-140251678D01*
X144386688Y-140251678D02*
X144434307Y-140156440D01*
X144434307Y-140156440D02*
X144481926Y-140108821D01*
X144481926Y-140108821D02*
X144577164Y-140061202D01*
X144577164Y-140061202D02*
X144767640Y-140061202D01*
X144767640Y-140061202D02*
X144862878Y-140108821D01*
X145672402Y-140680250D02*
X145577164Y-140727869D01*
X145577164Y-140727869D02*
X145386688Y-140727869D01*
X145386688Y-140727869D02*
X145291450Y-140680250D01*
X145291450Y-140680250D02*
X145243831Y-140585011D01*
X145243831Y-140585011D02*
X145243831Y-140204059D01*
X145243831Y-140204059D02*
X145291450Y-140108821D01*
X145291450Y-140108821D02*
X145386688Y-140061202D01*
X145386688Y-140061202D02*
X145577164Y-140061202D01*
X145577164Y-140061202D02*
X145672402Y-140108821D01*
X145672402Y-140108821D02*
X145720021Y-140204059D01*
X145720021Y-140204059D02*
X145720021Y-140299297D01*
X145720021Y-140299297D02*
X145243831Y-140394535D01*
X146148593Y-140061202D02*
X146148593Y-140727869D01*
X146148593Y-140156440D02*
X146196212Y-140108821D01*
X146196212Y-140108821D02*
X146291450Y-140061202D01*
X146291450Y-140061202D02*
X146434307Y-140061202D01*
X146434307Y-140061202D02*
X146529545Y-140108821D01*
X146529545Y-140108821D02*
X146577164Y-140204059D01*
X146577164Y-140204059D02*
X146577164Y-140727869D01*
X146910498Y-140061202D02*
X147291450Y-140061202D01*
X147053355Y-139727869D02*
X147053355Y-140585011D01*
X147053355Y-140585011D02*
X147100974Y-140680250D01*
X147100974Y-140680250D02*
X147196212Y-140727869D01*
X147196212Y-140727869D02*
X147291450Y-140727869D01*
X148243831Y-140251678D02*
X148196212Y-140204059D01*
X148196212Y-140204059D02*
X148100974Y-140156440D01*
X148100974Y-140156440D02*
X148005736Y-140156440D01*
X148005736Y-140156440D02*
X147910498Y-140204059D01*
X147910498Y-140204059D02*
X147862879Y-140251678D01*
X147862879Y-140251678D02*
X147815260Y-140346916D01*
X147815260Y-140346916D02*
X147815260Y-140442154D01*
X147815260Y-140442154D02*
X147862879Y-140537392D01*
X147862879Y-140537392D02*
X147910498Y-140585011D01*
X147910498Y-140585011D02*
X148005736Y-140632630D01*
X148005736Y-140632630D02*
X148100974Y-140632630D01*
X148100974Y-140632630D02*
X148196212Y-140585011D01*
X148196212Y-140585011D02*
X148243831Y-140537392D01*
X148243831Y-140156440D02*
X148243831Y-140537392D01*
X148243831Y-140537392D02*
X148291450Y-140585011D01*
X148291450Y-140585011D02*
X148339069Y-140585011D01*
X148339069Y-140585011D02*
X148434308Y-140537392D01*
X148434308Y-140537392D02*
X148481927Y-140442154D01*
X148481927Y-140442154D02*
X148481927Y-140204059D01*
X148481927Y-140204059D02*
X148386689Y-140061202D01*
X148386689Y-140061202D02*
X148243831Y-139965964D01*
X148243831Y-139965964D02*
X148053355Y-139918345D01*
X148053355Y-139918345D02*
X147862879Y-139965964D01*
X147862879Y-139965964D02*
X147720022Y-140061202D01*
X147720022Y-140061202D02*
X147624784Y-140204059D01*
X147624784Y-140204059D02*
X147577165Y-140394535D01*
X147577165Y-140394535D02*
X147624784Y-140585011D01*
X147624784Y-140585011D02*
X147720022Y-140727869D01*
X147720022Y-140727869D02*
X147862879Y-140823107D01*
X147862879Y-140823107D02*
X148053355Y-140870726D01*
X148053355Y-140870726D02*
X148243831Y-140823107D01*
X148243831Y-140823107D02*
X148386689Y-140727869D01*
X148910498Y-140727869D02*
X148910498Y-139727869D01*
X148910498Y-140108821D02*
X149005736Y-140061202D01*
X149005736Y-140061202D02*
X149196212Y-140061202D01*
X149196212Y-140061202D02*
X149291450Y-140108821D01*
X149291450Y-140108821D02*
X149339069Y-140156440D01*
X149339069Y-140156440D02*
X149386688Y-140251678D01*
X149386688Y-140251678D02*
X149386688Y-140537392D01*
X149386688Y-140537392D02*
X149339069Y-140632630D01*
X149339069Y-140632630D02*
X149291450Y-140680250D01*
X149291450Y-140680250D02*
X149196212Y-140727869D01*
X149196212Y-140727869D02*
X149005736Y-140727869D01*
X149005736Y-140727869D02*
X148910498Y-140680250D01*
X150196212Y-140680250D02*
X150100974Y-140727869D01*
X150100974Y-140727869D02*
X149910498Y-140727869D01*
X149910498Y-140727869D02*
X149815260Y-140680250D01*
X149815260Y-140680250D02*
X149767641Y-140585011D01*
X149767641Y-140585011D02*
X149767641Y-140204059D01*
X149767641Y-140204059D02*
X149815260Y-140108821D01*
X149815260Y-140108821D02*
X149910498Y-140061202D01*
X149910498Y-140061202D02*
X150100974Y-140061202D01*
X150100974Y-140061202D02*
X150196212Y-140108821D01*
X150196212Y-140108821D02*
X150243831Y-140204059D01*
X150243831Y-140204059D02*
X150243831Y-140299297D01*
X150243831Y-140299297D02*
X149767641Y-140394535D01*
X150624784Y-140680250D02*
X150720022Y-140727869D01*
X150720022Y-140727869D02*
X150910498Y-140727869D01*
X150910498Y-140727869D02*
X151005736Y-140680250D01*
X151005736Y-140680250D02*
X151053355Y-140585011D01*
X151053355Y-140585011D02*
X151053355Y-140537392D01*
X151053355Y-140537392D02*
X151005736Y-140442154D01*
X151005736Y-140442154D02*
X150910498Y-140394535D01*
X150910498Y-140394535D02*
X150767641Y-140394535D01*
X150767641Y-140394535D02*
X150672403Y-140346916D01*
X150672403Y-140346916D02*
X150624784Y-140251678D01*
X150624784Y-140251678D02*
X150624784Y-140204059D01*
X150624784Y-140204059D02*
X150672403Y-140108821D01*
X150672403Y-140108821D02*
X150767641Y-140061202D01*
X150767641Y-140061202D02*
X150910498Y-140061202D01*
X150910498Y-140061202D02*
X151005736Y-140108821D01*
X151434308Y-140680250D02*
X151529546Y-140727869D01*
X151529546Y-140727869D02*
X151720022Y-140727869D01*
X151720022Y-140727869D02*
X151815260Y-140680250D01*
X151815260Y-140680250D02*
X151862879Y-140585011D01*
X151862879Y-140585011D02*
X151862879Y-140537392D01*
X151862879Y-140537392D02*
X151815260Y-140442154D01*
X151815260Y-140442154D02*
X151720022Y-140394535D01*
X151720022Y-140394535D02*
X151577165Y-140394535D01*
X151577165Y-140394535D02*
X151481927Y-140346916D01*
X151481927Y-140346916D02*
X151434308Y-140251678D01*
X151434308Y-140251678D02*
X151434308Y-140204059D01*
X151434308Y-140204059D02*
X151481927Y-140108821D01*
X151481927Y-140108821D02*
X151577165Y-140061202D01*
X151577165Y-140061202D02*
X151720022Y-140061202D01*
X151720022Y-140061202D02*
X151815260Y-140108821D01*
X152434308Y-140727869D02*
X152339070Y-140680250D01*
X152339070Y-140680250D02*
X152291451Y-140632630D01*
X152291451Y-140632630D02*
X152243832Y-140537392D01*
X152243832Y-140537392D02*
X152243832Y-140251678D01*
X152243832Y-140251678D02*
X152291451Y-140156440D01*
X152291451Y-140156440D02*
X152339070Y-140108821D01*
X152339070Y-140108821D02*
X152434308Y-140061202D01*
X152434308Y-140061202D02*
X152577165Y-140061202D01*
X152577165Y-140061202D02*
X152672403Y-140108821D01*
X152672403Y-140108821D02*
X152720022Y-140156440D01*
X152720022Y-140156440D02*
X152767641Y-140251678D01*
X152767641Y-140251678D02*
X152767641Y-140537392D01*
X152767641Y-140537392D02*
X152720022Y-140632630D01*
X152720022Y-140632630D02*
X152672403Y-140680250D01*
X152672403Y-140680250D02*
X152577165Y-140727869D01*
X152577165Y-140727869D02*
X152434308Y-140727869D01*
X153196213Y-140061202D02*
X153196213Y-140727869D01*
X153196213Y-140156440D02*
X153243832Y-140108821D01*
X153243832Y-140108821D02*
X153339070Y-140061202D01*
X153339070Y-140061202D02*
X153481927Y-140061202D01*
X153481927Y-140061202D02*
X153577165Y-140108821D01*
X153577165Y-140108821D02*
X153624784Y-140204059D01*
X153624784Y-140204059D02*
X153624784Y-140727869D01*
X154100975Y-140632630D02*
X154148594Y-140680250D01*
X154148594Y-140680250D02*
X154100975Y-140727869D01*
X154100975Y-140727869D02*
X154053356Y-140680250D01*
X154053356Y-140680250D02*
X154100975Y-140632630D01*
X154100975Y-140632630D02*
X154100975Y-140727869D01*
X154577165Y-140727869D02*
X154577165Y-139727869D01*
X154577165Y-140108821D02*
X154672403Y-140061202D01*
X154672403Y-140061202D02*
X154862879Y-140061202D01*
X154862879Y-140061202D02*
X154958117Y-140108821D01*
X154958117Y-140108821D02*
X155005736Y-140156440D01*
X155005736Y-140156440D02*
X155053355Y-140251678D01*
X155053355Y-140251678D02*
X155053355Y-140537392D01*
X155053355Y-140537392D02*
X155005736Y-140632630D01*
X155005736Y-140632630D02*
X154958117Y-140680250D01*
X154958117Y-140680250D02*
X154862879Y-140727869D01*
X154862879Y-140727869D02*
X154672403Y-140727869D01*
X154672403Y-140727869D02*
X154577165Y-140680250D01*
X155862879Y-140680250D02*
X155767641Y-140727869D01*
X155767641Y-140727869D02*
X155577165Y-140727869D01*
X155577165Y-140727869D02*
X155481927Y-140680250D01*
X155481927Y-140680250D02*
X155434308Y-140585011D01*
X155434308Y-140585011D02*
X155434308Y-140204059D01*
X155434308Y-140204059D02*
X155481927Y-140108821D01*
X155481927Y-140108821D02*
X155577165Y-140061202D01*
X155577165Y-140061202D02*
X155767641Y-140061202D01*
X155767641Y-140061202D02*
X155862879Y-140108821D01*
X155862879Y-140108821D02*
X155910498Y-140204059D01*
X155910498Y-140204059D02*
X155910498Y-140299297D01*
X155910498Y-140299297D02*
X155434308Y-140394535D01*
X136549545Y-104612345D02*
X137006688Y-104612345D01*
X136778116Y-105412345D02*
X136778116Y-104612345D01*
X137197164Y-104612345D02*
X137730498Y-105412345D01*
X137730498Y-104612345D02*
X137197164Y-105412345D01*
X132117869Y-108888549D02*
X132927392Y-108888549D01*
X132927392Y-108888549D02*
X133022630Y-108840930D01*
X133022630Y-108840930D02*
X133070250Y-108793311D01*
X133070250Y-108793311D02*
X133117869Y-108698073D01*
X133117869Y-108698073D02*
X133117869Y-108507597D01*
X133117869Y-108507597D02*
X133070250Y-108412359D01*
X133070250Y-108412359D02*
X133022630Y-108364740D01*
X133022630Y-108364740D02*
X132927392Y-108317121D01*
X132927392Y-108317121D02*
X132117869Y-108317121D01*
X132832154Y-107888549D02*
X132832154Y-107412359D01*
X133117869Y-107983787D02*
X132117869Y-107650454D01*
X132117869Y-107650454D02*
X133117869Y-107317121D01*
X133117869Y-106412359D02*
X132641678Y-106745692D01*
X133117869Y-106983787D02*
X132117869Y-106983787D01*
X132117869Y-106983787D02*
X132117869Y-106602835D01*
X132117869Y-106602835D02*
X132165488Y-106507597D01*
X132165488Y-106507597D02*
X132213107Y-106459978D01*
X132213107Y-106459978D02*
X132308345Y-106412359D01*
X132308345Y-106412359D02*
X132451202Y-106412359D01*
X132451202Y-106412359D02*
X132546440Y-106459978D01*
X132546440Y-106459978D02*
X132594059Y-106507597D01*
X132594059Y-106507597D02*
X132641678Y-106602835D01*
X132641678Y-106602835D02*
X132641678Y-106983787D01*
X132117869Y-106126644D02*
X132117869Y-105555216D01*
X133117869Y-105840930D02*
X132117869Y-105840930D01*
D11*
X157367618Y-122137295D02*
X156910475Y-122137295D01*
X157139047Y-122137295D02*
X157139047Y-121337295D01*
X157139047Y-121337295D02*
X157062856Y-121451580D01*
X157062856Y-121451580D02*
X156986666Y-121527771D01*
X156986666Y-121527771D02*
X156910475Y-121565866D01*
X157710476Y-122137295D02*
X157710476Y-121337295D01*
X158167619Y-122137295D02*
X157824761Y-121680152D01*
X158167619Y-121337295D02*
X157710476Y-121794438D01*
X158891428Y-121337295D02*
X158510476Y-121337295D01*
X158510476Y-121337295D02*
X158472380Y-121718247D01*
X158472380Y-121718247D02*
X158510476Y-121680152D01*
X158510476Y-121680152D02*
X158586666Y-121642057D01*
X158586666Y-121642057D02*
X158777142Y-121642057D01*
X158777142Y-121642057D02*
X158853333Y-121680152D01*
X158853333Y-121680152D02*
X158891428Y-121718247D01*
X158891428Y-121718247D02*
X158929523Y-121794438D01*
X158929523Y-121794438D02*
X158929523Y-121984914D01*
X158929523Y-121984914D02*
X158891428Y-122061104D01*
X158891428Y-122061104D02*
X158853333Y-122099200D01*
X158853333Y-122099200D02*
X158777142Y-122137295D01*
X158777142Y-122137295D02*
X158586666Y-122137295D01*
X158586666Y-122137295D02*
X158510476Y-122099200D01*
X158510476Y-122099200D02*
X158472380Y-122061104D01*
X148562856Y-109602295D02*
X148105713Y-109602295D01*
X148334285Y-109602295D02*
X148334285Y-108802295D01*
X148334285Y-108802295D02*
X148258094Y-108916580D01*
X148258094Y-108916580D02*
X148181904Y-108992771D01*
X148181904Y-108992771D02*
X148105713Y-109030866D01*
X149058095Y-108802295D02*
X149134285Y-108802295D01*
X149134285Y-108802295D02*
X149210476Y-108840390D01*
X149210476Y-108840390D02*
X149248571Y-108878485D01*
X149248571Y-108878485D02*
X149286666Y-108954676D01*
X149286666Y-108954676D02*
X149324761Y-109107057D01*
X149324761Y-109107057D02*
X149324761Y-109297533D01*
X149324761Y-109297533D02*
X149286666Y-109449914D01*
X149286666Y-109449914D02*
X149248571Y-109526104D01*
X149248571Y-109526104D02*
X149210476Y-109564200D01*
X149210476Y-109564200D02*
X149134285Y-109602295D01*
X149134285Y-109602295D02*
X149058095Y-109602295D01*
X149058095Y-109602295D02*
X148981904Y-109564200D01*
X148981904Y-109564200D02*
X148943809Y-109526104D01*
X148943809Y-109526104D02*
X148905714Y-109449914D01*
X148905714Y-109449914D02*
X148867618Y-109297533D01*
X148867618Y-109297533D02*
X148867618Y-109107057D01*
X148867618Y-109107057D02*
X148905714Y-108954676D01*
X148905714Y-108954676D02*
X148943809Y-108878485D01*
X148943809Y-108878485D02*
X148981904Y-108840390D01*
X148981904Y-108840390D02*
X149058095Y-108802295D01*
X150010476Y-109068961D02*
X150010476Y-109602295D01*
X149667619Y-109068961D02*
X149667619Y-109488009D01*
X149667619Y-109488009D02*
X149705714Y-109564200D01*
X149705714Y-109564200D02*
X149781904Y-109602295D01*
X149781904Y-109602295D02*
X149896190Y-109602295D01*
X149896190Y-109602295D02*
X149972381Y-109564200D01*
X149972381Y-109564200D02*
X150010476Y-109526104D01*
X150658095Y-109183247D02*
X150391429Y-109183247D01*
X150391429Y-109602295D02*
X150391429Y-108802295D01*
X150391429Y-108802295D02*
X150772381Y-108802295D01*
D12*
X201928116Y-126192345D02*
X201928116Y-125392345D01*
X201928116Y-125392345D02*
X202118592Y-125392345D01*
X202118592Y-125392345D02*
X202232878Y-125430440D01*
X202232878Y-125430440D02*
X202309068Y-125506630D01*
X202309068Y-125506630D02*
X202347163Y-125582821D01*
X202347163Y-125582821D02*
X202385259Y-125735202D01*
X202385259Y-125735202D02*
X202385259Y-125849488D01*
X202385259Y-125849488D02*
X202347163Y-126001869D01*
X202347163Y-126001869D02*
X202309068Y-126078059D01*
X202309068Y-126078059D02*
X202232878Y-126154250D01*
X202232878Y-126154250D02*
X202118592Y-126192345D01*
X202118592Y-126192345D02*
X201928116Y-126192345D01*
X202728116Y-125773297D02*
X202994782Y-125773297D01*
X203109068Y-126192345D02*
X202728116Y-126192345D01*
X202728116Y-126192345D02*
X202728116Y-125392345D01*
X202728116Y-125392345D02*
X203109068Y-125392345D01*
D11*
X148622619Y-123562295D02*
X148241667Y-123562295D01*
X148241667Y-123562295D02*
X148203571Y-123943247D01*
X148203571Y-123943247D02*
X148241667Y-123905152D01*
X148241667Y-123905152D02*
X148317857Y-123867057D01*
X148317857Y-123867057D02*
X148508333Y-123867057D01*
X148508333Y-123867057D02*
X148584524Y-123905152D01*
X148584524Y-123905152D02*
X148622619Y-123943247D01*
X148622619Y-123943247D02*
X148660714Y-124019438D01*
X148660714Y-124019438D02*
X148660714Y-124209914D01*
X148660714Y-124209914D02*
X148622619Y-124286104D01*
X148622619Y-124286104D02*
X148584524Y-124324200D01*
X148584524Y-124324200D02*
X148508333Y-124362295D01*
X148508333Y-124362295D02*
X148317857Y-124362295D01*
X148317857Y-124362295D02*
X148241667Y-124324200D01*
X148241667Y-124324200D02*
X148203571Y-124286104D01*
X148889286Y-123562295D02*
X149155953Y-124362295D01*
X149155953Y-124362295D02*
X149422619Y-123562295D01*
D12*
X136665735Y-133574250D02*
X136780021Y-133612345D01*
X136780021Y-133612345D02*
X136970497Y-133612345D01*
X136970497Y-133612345D02*
X137046688Y-133574250D01*
X137046688Y-133574250D02*
X137084783Y-133536154D01*
X137084783Y-133536154D02*
X137122878Y-133459964D01*
X137122878Y-133459964D02*
X137122878Y-133383773D01*
X137122878Y-133383773D02*
X137084783Y-133307583D01*
X137084783Y-133307583D02*
X137046688Y-133269488D01*
X137046688Y-133269488D02*
X136970497Y-133231392D01*
X136970497Y-133231392D02*
X136818116Y-133193297D01*
X136818116Y-133193297D02*
X136741926Y-133155202D01*
X136741926Y-133155202D02*
X136703831Y-133117107D01*
X136703831Y-133117107D02*
X136665735Y-133040916D01*
X136665735Y-133040916D02*
X136665735Y-132964726D01*
X136665735Y-132964726D02*
X136703831Y-132888535D01*
X136703831Y-132888535D02*
X136741926Y-132850440D01*
X136741926Y-132850440D02*
X136818116Y-132812345D01*
X136818116Y-132812345D02*
X137008593Y-132812345D01*
X137008593Y-132812345D02*
X137122878Y-132850440D01*
X137922879Y-133536154D02*
X137884783Y-133574250D01*
X137884783Y-133574250D02*
X137770498Y-133612345D01*
X137770498Y-133612345D02*
X137694307Y-133612345D01*
X137694307Y-133612345D02*
X137580021Y-133574250D01*
X137580021Y-133574250D02*
X137503831Y-133498059D01*
X137503831Y-133498059D02*
X137465736Y-133421869D01*
X137465736Y-133421869D02*
X137427640Y-133269488D01*
X137427640Y-133269488D02*
X137427640Y-133155202D01*
X137427640Y-133155202D02*
X137465736Y-133002821D01*
X137465736Y-133002821D02*
X137503831Y-132926630D01*
X137503831Y-132926630D02*
X137580021Y-132850440D01*
X137580021Y-132850440D02*
X137694307Y-132812345D01*
X137694307Y-132812345D02*
X137770498Y-132812345D01*
X137770498Y-132812345D02*
X137884783Y-132850440D01*
X137884783Y-132850440D02*
X137922879Y-132888535D01*
X138265736Y-133612345D02*
X138265736Y-132812345D01*
X138722879Y-133612345D02*
X138380021Y-133155202D01*
X138722879Y-132812345D02*
X138265736Y-133269488D01*
X136940974Y-107962345D02*
X136674307Y-107581392D01*
X136483831Y-107962345D02*
X136483831Y-107162345D01*
X136483831Y-107162345D02*
X136788593Y-107162345D01*
X136788593Y-107162345D02*
X136864783Y-107200440D01*
X136864783Y-107200440D02*
X136902878Y-107238535D01*
X136902878Y-107238535D02*
X136940974Y-107314726D01*
X136940974Y-107314726D02*
X136940974Y-107429011D01*
X136940974Y-107429011D02*
X136902878Y-107505202D01*
X136902878Y-107505202D02*
X136864783Y-107543297D01*
X136864783Y-107543297D02*
X136788593Y-107581392D01*
X136788593Y-107581392D02*
X136483831Y-107581392D01*
X137207640Y-107162345D02*
X137740974Y-107962345D01*
X137740974Y-107162345D02*
X137207640Y-107962345D01*
X206273297Y-114394502D02*
X206273297Y-114661168D01*
X206692345Y-114661168D02*
X205892345Y-114661168D01*
X205892345Y-114661168D02*
X205892345Y-114280216D01*
X206159011Y-113632597D02*
X206692345Y-113632597D01*
X206159011Y-113975454D02*
X206578059Y-113975454D01*
X206578059Y-113975454D02*
X206654250Y-113937359D01*
X206654250Y-113937359D02*
X206692345Y-113861169D01*
X206692345Y-113861169D02*
X206692345Y-113746883D01*
X206692345Y-113746883D02*
X206654250Y-113670692D01*
X206654250Y-113670692D02*
X206616154Y-113632597D01*
X206692345Y-112832597D02*
X206692345Y-113289740D01*
X206692345Y-113061168D02*
X205892345Y-113061168D01*
X205892345Y-113061168D02*
X206006630Y-113137359D01*
X206006630Y-113137359D02*
X206082821Y-113213549D01*
X206082821Y-113213549D02*
X206120916Y-113289740D01*
X136912878Y-109710440D02*
X136836688Y-109672345D01*
X136836688Y-109672345D02*
X136722402Y-109672345D01*
X136722402Y-109672345D02*
X136608116Y-109710440D01*
X136608116Y-109710440D02*
X136531926Y-109786630D01*
X136531926Y-109786630D02*
X136493831Y-109862821D01*
X136493831Y-109862821D02*
X136455735Y-110015202D01*
X136455735Y-110015202D02*
X136455735Y-110129488D01*
X136455735Y-110129488D02*
X136493831Y-110281869D01*
X136493831Y-110281869D02*
X136531926Y-110358059D01*
X136531926Y-110358059D02*
X136608116Y-110434250D01*
X136608116Y-110434250D02*
X136722402Y-110472345D01*
X136722402Y-110472345D02*
X136798593Y-110472345D01*
X136798593Y-110472345D02*
X136912878Y-110434250D01*
X136912878Y-110434250D02*
X136950974Y-110396154D01*
X136950974Y-110396154D02*
X136950974Y-110129488D01*
X136950974Y-110129488D02*
X136798593Y-110129488D01*
X137293831Y-110472345D02*
X137293831Y-109672345D01*
X137293831Y-109672345D02*
X137750974Y-110472345D01*
X137750974Y-110472345D02*
X137750974Y-109672345D01*
X138131926Y-110472345D02*
X138131926Y-109672345D01*
X138131926Y-109672345D02*
X138322402Y-109672345D01*
X138322402Y-109672345D02*
X138436688Y-109710440D01*
X138436688Y-109710440D02*
X138512878Y-109786630D01*
X138512878Y-109786630D02*
X138550973Y-109862821D01*
X138550973Y-109862821D02*
X138589069Y-110015202D01*
X138589069Y-110015202D02*
X138589069Y-110129488D01*
X138589069Y-110129488D02*
X138550973Y-110281869D01*
X138550973Y-110281869D02*
X138512878Y-110358059D01*
X138512878Y-110358059D02*
X138436688Y-110434250D01*
X138436688Y-110434250D02*
X138322402Y-110472345D01*
X138322402Y-110472345D02*
X138131926Y-110472345D01*
D11*
X143073810Y-124537295D02*
X143226191Y-124537295D01*
X143226191Y-124537295D02*
X143302381Y-124575390D01*
X143302381Y-124575390D02*
X143378572Y-124651580D01*
X143378572Y-124651580D02*
X143416667Y-124803961D01*
X143416667Y-124803961D02*
X143416667Y-125070628D01*
X143416667Y-125070628D02*
X143378572Y-125223009D01*
X143378572Y-125223009D02*
X143302381Y-125299200D01*
X143302381Y-125299200D02*
X143226191Y-125337295D01*
X143226191Y-125337295D02*
X143073810Y-125337295D01*
X143073810Y-125337295D02*
X142997619Y-125299200D01*
X142997619Y-125299200D02*
X142921429Y-125223009D01*
X142921429Y-125223009D02*
X142883333Y-125070628D01*
X142883333Y-125070628D02*
X142883333Y-124803961D01*
X142883333Y-124803961D02*
X142921429Y-124651580D01*
X142921429Y-124651580D02*
X142997619Y-124575390D01*
X142997619Y-124575390D02*
X143073810Y-124537295D01*
X144216667Y-125337295D02*
X143950000Y-124956342D01*
X143759524Y-125337295D02*
X143759524Y-124537295D01*
X143759524Y-124537295D02*
X144064286Y-124537295D01*
X144064286Y-124537295D02*
X144140476Y-124575390D01*
X144140476Y-124575390D02*
X144178571Y-124613485D01*
X144178571Y-124613485D02*
X144216667Y-124689676D01*
X144216667Y-124689676D02*
X144216667Y-124803961D01*
X144216667Y-124803961D02*
X144178571Y-124880152D01*
X144178571Y-124880152D02*
X144140476Y-124918247D01*
X144140476Y-124918247D02*
X144064286Y-124956342D01*
X144064286Y-124956342D02*
X143759524Y-124956342D01*
D12*
X136787640Y-127717345D02*
X137282878Y-127717345D01*
X137282878Y-127717345D02*
X137016212Y-128022107D01*
X137016212Y-128022107D02*
X137130497Y-128022107D01*
X137130497Y-128022107D02*
X137206688Y-128060202D01*
X137206688Y-128060202D02*
X137244783Y-128098297D01*
X137244783Y-128098297D02*
X137282878Y-128174488D01*
X137282878Y-128174488D02*
X137282878Y-128364964D01*
X137282878Y-128364964D02*
X137244783Y-128441154D01*
X137244783Y-128441154D02*
X137206688Y-128479250D01*
X137206688Y-128479250D02*
X137130497Y-128517345D01*
X137130497Y-128517345D02*
X136901926Y-128517345D01*
X136901926Y-128517345D02*
X136825735Y-128479250D01*
X136825735Y-128479250D02*
X136787640Y-128441154D01*
X137511450Y-127717345D02*
X137778117Y-128517345D01*
X137778117Y-128517345D02*
X138044783Y-127717345D01*
D11*
X175244819Y-91783333D02*
X175959104Y-91783333D01*
X175959104Y-91783333D02*
X176101961Y-91830952D01*
X176101961Y-91830952D02*
X176197200Y-91926190D01*
X176197200Y-91926190D02*
X176244819Y-92069047D01*
X176244819Y-92069047D02*
X176244819Y-92164285D01*
X175340057Y-91354761D02*
X175292438Y-91307142D01*
X175292438Y-91307142D02*
X175244819Y-91211904D01*
X175244819Y-91211904D02*
X175244819Y-90973809D01*
X175244819Y-90973809D02*
X175292438Y-90878571D01*
X175292438Y-90878571D02*
X175340057Y-90830952D01*
X175340057Y-90830952D02*
X175435295Y-90783333D01*
X175435295Y-90783333D02*
X175530533Y-90783333D01*
X175530533Y-90783333D02*
X175673390Y-90830952D01*
X175673390Y-90830952D02*
X176244819Y-91402380D01*
X176244819Y-91402380D02*
X176244819Y-90783333D01*
X206927295Y-105855475D02*
X206127295Y-105855475D01*
X206127295Y-105855475D02*
X206127295Y-105664999D01*
X206127295Y-105664999D02*
X206165390Y-105550713D01*
X206165390Y-105550713D02*
X206241580Y-105474523D01*
X206241580Y-105474523D02*
X206317771Y-105436428D01*
X206317771Y-105436428D02*
X206470152Y-105398332D01*
X206470152Y-105398332D02*
X206584438Y-105398332D01*
X206584438Y-105398332D02*
X206736819Y-105436428D01*
X206736819Y-105436428D02*
X206813009Y-105474523D01*
X206813009Y-105474523D02*
X206889200Y-105550713D01*
X206889200Y-105550713D02*
X206927295Y-105664999D01*
X206927295Y-105664999D02*
X206927295Y-105855475D01*
X206927295Y-104636428D02*
X206927295Y-105093571D01*
X206927295Y-104864999D02*
X206127295Y-104864999D01*
X206127295Y-104864999D02*
X206241580Y-104941190D01*
X206241580Y-104941190D02*
X206317771Y-105017380D01*
X206317771Y-105017380D02*
X206355866Y-105093571D01*
X185528095Y-128154819D02*
X185528095Y-128964342D01*
X185528095Y-128964342D02*
X185575714Y-129059580D01*
X185575714Y-129059580D02*
X185623333Y-129107200D01*
X185623333Y-129107200D02*
X185718571Y-129154819D01*
X185718571Y-129154819D02*
X185909047Y-129154819D01*
X185909047Y-129154819D02*
X186004285Y-129107200D01*
X186004285Y-129107200D02*
X186051904Y-129059580D01*
X186051904Y-129059580D02*
X186099523Y-128964342D01*
X186099523Y-128964342D02*
X186099523Y-128154819D01*
X186575714Y-129154819D02*
X186575714Y-128154819D01*
X186575714Y-128154819D02*
X186956666Y-128154819D01*
X186956666Y-128154819D02*
X187051904Y-128202438D01*
X187051904Y-128202438D02*
X187099523Y-128250057D01*
X187099523Y-128250057D02*
X187147142Y-128345295D01*
X187147142Y-128345295D02*
X187147142Y-128488152D01*
X187147142Y-128488152D02*
X187099523Y-128583390D01*
X187099523Y-128583390D02*
X187051904Y-128631009D01*
X187051904Y-128631009D02*
X186956666Y-128678628D01*
X186956666Y-128678628D02*
X186575714Y-128678628D01*
X188099523Y-129154819D02*
X187528095Y-129154819D01*
X187813809Y-129154819D02*
X187813809Y-128154819D01*
X187813809Y-128154819D02*
X187718571Y-128297676D01*
X187718571Y-128297676D02*
X187623333Y-128392914D01*
X187623333Y-128392914D02*
X187528095Y-128440533D01*
X206947295Y-108845475D02*
X206147295Y-108845475D01*
X206147295Y-108845475D02*
X206147295Y-108654999D01*
X206147295Y-108654999D02*
X206185390Y-108540713D01*
X206185390Y-108540713D02*
X206261580Y-108464523D01*
X206261580Y-108464523D02*
X206337771Y-108426428D01*
X206337771Y-108426428D02*
X206490152Y-108388332D01*
X206490152Y-108388332D02*
X206604438Y-108388332D01*
X206604438Y-108388332D02*
X206756819Y-108426428D01*
X206756819Y-108426428D02*
X206833009Y-108464523D01*
X206833009Y-108464523D02*
X206909200Y-108540713D01*
X206909200Y-108540713D02*
X206947295Y-108654999D01*
X206947295Y-108654999D02*
X206947295Y-108845475D01*
X206223485Y-108083571D02*
X206185390Y-108045475D01*
X206185390Y-108045475D02*
X206147295Y-107969285D01*
X206147295Y-107969285D02*
X206147295Y-107778809D01*
X206147295Y-107778809D02*
X206185390Y-107702618D01*
X206185390Y-107702618D02*
X206223485Y-107664523D01*
X206223485Y-107664523D02*
X206299676Y-107626428D01*
X206299676Y-107626428D02*
X206375866Y-107626428D01*
X206375866Y-107626428D02*
X206490152Y-107664523D01*
X206490152Y-107664523D02*
X206947295Y-108121666D01*
X206947295Y-108121666D02*
X206947295Y-107626428D01*
X149286667Y-104526104D02*
X149248571Y-104564200D01*
X149248571Y-104564200D02*
X149134286Y-104602295D01*
X149134286Y-104602295D02*
X149058095Y-104602295D01*
X149058095Y-104602295D02*
X148943809Y-104564200D01*
X148943809Y-104564200D02*
X148867619Y-104488009D01*
X148867619Y-104488009D02*
X148829524Y-104411819D01*
X148829524Y-104411819D02*
X148791428Y-104259438D01*
X148791428Y-104259438D02*
X148791428Y-104145152D01*
X148791428Y-104145152D02*
X148829524Y-103992771D01*
X148829524Y-103992771D02*
X148867619Y-103916580D01*
X148867619Y-103916580D02*
X148943809Y-103840390D01*
X148943809Y-103840390D02*
X149058095Y-103802295D01*
X149058095Y-103802295D02*
X149134286Y-103802295D01*
X149134286Y-103802295D02*
X149248571Y-103840390D01*
X149248571Y-103840390D02*
X149286667Y-103878485D01*
X149591428Y-103878485D02*
X149629524Y-103840390D01*
X149629524Y-103840390D02*
X149705714Y-103802295D01*
X149705714Y-103802295D02*
X149896190Y-103802295D01*
X149896190Y-103802295D02*
X149972381Y-103840390D01*
X149972381Y-103840390D02*
X150010476Y-103878485D01*
X150010476Y-103878485D02*
X150048571Y-103954676D01*
X150048571Y-103954676D02*
X150048571Y-104030866D01*
X150048571Y-104030866D02*
X150010476Y-104145152D01*
X150010476Y-104145152D02*
X149553333Y-104602295D01*
X149553333Y-104602295D02*
X150048571Y-104602295D01*
D13*
X142869047Y-131183609D02*
X143011904Y-131231228D01*
X143011904Y-131231228D02*
X143059523Y-131278847D01*
X143059523Y-131278847D02*
X143107142Y-131374085D01*
X143107142Y-131374085D02*
X143107142Y-131516942D01*
X143107142Y-131516942D02*
X143059523Y-131612180D01*
X143059523Y-131612180D02*
X143011904Y-131659800D01*
X143011904Y-131659800D02*
X142916666Y-131707419D01*
X142916666Y-131707419D02*
X142535714Y-131707419D01*
X142535714Y-131707419D02*
X142535714Y-130707419D01*
X142535714Y-130707419D02*
X142869047Y-130707419D01*
X142869047Y-130707419D02*
X142964285Y-130755038D01*
X142964285Y-130755038D02*
X143011904Y-130802657D01*
X143011904Y-130802657D02*
X143059523Y-130897895D01*
X143059523Y-130897895D02*
X143059523Y-130993133D01*
X143059523Y-130993133D02*
X143011904Y-131088371D01*
X143011904Y-131088371D02*
X142964285Y-131135990D01*
X142964285Y-131135990D02*
X142869047Y-131183609D01*
X142869047Y-131183609D02*
X142535714Y-131183609D01*
X143440476Y-130707419D02*
X144107142Y-130707419D01*
X144107142Y-130707419D02*
X143440476Y-131707419D01*
X143440476Y-131707419D02*
X144107142Y-131707419D01*
X145011904Y-131707419D02*
X144440476Y-131707419D01*
X144726190Y-131707419D02*
X144726190Y-130707419D01*
X144726190Y-130707419D02*
X144630952Y-130850276D01*
X144630952Y-130850276D02*
X144535714Y-130945514D01*
X144535714Y-130945514D02*
X144440476Y-130993133D01*
X139889598Y-134353371D02*
X139841979Y-134305752D01*
X139841979Y-134305752D02*
X139746741Y-134162895D01*
X139746741Y-134162895D02*
X139699122Y-134067657D01*
X139699122Y-134067657D02*
X139651503Y-133924800D01*
X139651503Y-133924800D02*
X139603884Y-133686704D01*
X139603884Y-133686704D02*
X139603884Y-133496228D01*
X139603884Y-133496228D02*
X139651503Y-133258133D01*
X139651503Y-133258133D02*
X139699122Y-133115276D01*
X139699122Y-133115276D02*
X139746741Y-133020038D01*
X139746741Y-133020038D02*
X139841979Y-132877180D01*
X139841979Y-132877180D02*
X139889598Y-132829561D01*
X140270551Y-133591466D02*
X141032456Y-133591466D01*
X140651503Y-133972419D02*
X140651503Y-133210514D01*
X141413408Y-134353371D02*
X141461027Y-134305752D01*
X141461027Y-134305752D02*
X141556265Y-134162895D01*
X141556265Y-134162895D02*
X141603884Y-134067657D01*
X141603884Y-134067657D02*
X141651503Y-133924800D01*
X141651503Y-133924800D02*
X141699122Y-133686704D01*
X141699122Y-133686704D02*
X141699122Y-133496228D01*
X141699122Y-133496228D02*
X141651503Y-133258133D01*
X141651503Y-133258133D02*
X141603884Y-133115276D01*
X141603884Y-133115276D02*
X141556265Y-133020038D01*
X141556265Y-133020038D02*
X141461027Y-132877180D01*
X141461027Y-132877180D02*
X141413408Y-132829561D01*
X146327693Y-133170038D02*
X146232455Y-133122419D01*
X146232455Y-133122419D02*
X146089598Y-133122419D01*
X146089598Y-133122419D02*
X145946741Y-133170038D01*
X145946741Y-133170038D02*
X145851503Y-133265276D01*
X145851503Y-133265276D02*
X145803884Y-133360514D01*
X145803884Y-133360514D02*
X145756265Y-133550990D01*
X145756265Y-133550990D02*
X145756265Y-133693847D01*
X145756265Y-133693847D02*
X145803884Y-133884323D01*
X145803884Y-133884323D02*
X145851503Y-133979561D01*
X145851503Y-133979561D02*
X145946741Y-134074800D01*
X145946741Y-134074800D02*
X146089598Y-134122419D01*
X146089598Y-134122419D02*
X146184836Y-134122419D01*
X146184836Y-134122419D02*
X146327693Y-134074800D01*
X146327693Y-134074800D02*
X146375312Y-134027180D01*
X146375312Y-134027180D02*
X146375312Y-133693847D01*
X146375312Y-133693847D02*
X146184836Y-133693847D01*
X146803884Y-134122419D02*
X146803884Y-133122419D01*
X146803884Y-133122419D02*
X147375312Y-134122419D01*
X147375312Y-134122419D02*
X147375312Y-133122419D01*
X147851503Y-134122419D02*
X147851503Y-133122419D01*
X147851503Y-133122419D02*
X148089598Y-133122419D01*
X148089598Y-133122419D02*
X148232455Y-133170038D01*
X148232455Y-133170038D02*
X148327693Y-133265276D01*
X148327693Y-133265276D02*
X148375312Y-133360514D01*
X148375312Y-133360514D02*
X148422931Y-133550990D01*
X148422931Y-133550990D02*
X148422931Y-133693847D01*
X148422931Y-133693847D02*
X148375312Y-133884323D01*
X148375312Y-133884323D02*
X148327693Y-133979561D01*
X148327693Y-133979561D02*
X148232455Y-134074800D01*
X148232455Y-134074800D02*
X148089598Y-134122419D01*
X148089598Y-134122419D02*
X147851503Y-134122419D01*
X141637217Y-129098609D02*
X141780074Y-129146228D01*
X141780074Y-129146228D02*
X141827693Y-129193847D01*
X141827693Y-129193847D02*
X141875312Y-129289085D01*
X141875312Y-129289085D02*
X141875312Y-129431942D01*
X141875312Y-129431942D02*
X141827693Y-129527180D01*
X141827693Y-129527180D02*
X141780074Y-129574800D01*
X141780074Y-129574800D02*
X141684836Y-129622419D01*
X141684836Y-129622419D02*
X141303884Y-129622419D01*
X141303884Y-129622419D02*
X141303884Y-128622419D01*
X141303884Y-128622419D02*
X141637217Y-128622419D01*
X141637217Y-128622419D02*
X141732455Y-128670038D01*
X141732455Y-128670038D02*
X141780074Y-128717657D01*
X141780074Y-128717657D02*
X141827693Y-128812895D01*
X141827693Y-128812895D02*
X141827693Y-128908133D01*
X141827693Y-128908133D02*
X141780074Y-129003371D01*
X141780074Y-129003371D02*
X141732455Y-129050990D01*
X141732455Y-129050990D02*
X141637217Y-129098609D01*
X141637217Y-129098609D02*
X141303884Y-129098609D01*
X142303884Y-128622419D02*
X142303884Y-129431942D01*
X142303884Y-129431942D02*
X142351503Y-129527180D01*
X142351503Y-129527180D02*
X142399122Y-129574800D01*
X142399122Y-129574800D02*
X142494360Y-129622419D01*
X142494360Y-129622419D02*
X142684836Y-129622419D01*
X142684836Y-129622419D02*
X142780074Y-129574800D01*
X142780074Y-129574800D02*
X142827693Y-129527180D01*
X142827693Y-129527180D02*
X142875312Y-129431942D01*
X142875312Y-129431942D02*
X142875312Y-128622419D01*
X143256265Y-128622419D02*
X143922931Y-128622419D01*
X143922931Y-128622419D02*
X143256265Y-129622419D01*
X143256265Y-129622419D02*
X143922931Y-129622419D01*
X144208646Y-128622419D02*
X144875312Y-128622419D01*
X144875312Y-128622419D02*
X144208646Y-129622419D01*
X144208646Y-129622419D02*
X144875312Y-129622419D01*
X145256265Y-129098609D02*
X145589598Y-129098609D01*
X145732455Y-129622419D02*
X145256265Y-129622419D01*
X145256265Y-129622419D02*
X145256265Y-128622419D01*
X145256265Y-128622419D02*
X145732455Y-128622419D01*
X146732455Y-129622419D02*
X146399122Y-129146228D01*
X146161027Y-129622419D02*
X146161027Y-128622419D01*
X146161027Y-128622419D02*
X146541979Y-128622419D01*
X146541979Y-128622419D02*
X146637217Y-128670038D01*
X146637217Y-128670038D02*
X146684836Y-128717657D01*
X146684836Y-128717657D02*
X146732455Y-128812895D01*
X146732455Y-128812895D02*
X146732455Y-128955752D01*
X146732455Y-128955752D02*
X146684836Y-129050990D01*
X146684836Y-129050990D02*
X146637217Y-129098609D01*
X146637217Y-129098609D02*
X146541979Y-129146228D01*
X146541979Y-129146228D02*
X146161027Y-129146228D01*
D11*
X137605476Y-123477295D02*
X138100714Y-123477295D01*
X138100714Y-123477295D02*
X137834048Y-123782057D01*
X137834048Y-123782057D02*
X137948333Y-123782057D01*
X137948333Y-123782057D02*
X138024524Y-123820152D01*
X138024524Y-123820152D02*
X138062619Y-123858247D01*
X138062619Y-123858247D02*
X138100714Y-123934438D01*
X138100714Y-123934438D02*
X138100714Y-124124914D01*
X138100714Y-124124914D02*
X138062619Y-124201104D01*
X138062619Y-124201104D02*
X138024524Y-124239200D01*
X138024524Y-124239200D02*
X137948333Y-124277295D01*
X137948333Y-124277295D02*
X137719762Y-124277295D01*
X137719762Y-124277295D02*
X137643571Y-124239200D01*
X137643571Y-124239200D02*
X137605476Y-124201104D01*
X138329286Y-123477295D02*
X138595953Y-124277295D01*
X138595953Y-124277295D02*
X138862619Y-123477295D01*
X160408095Y-109818152D02*
X160408095Y-110818152D01*
X160884285Y-110341961D02*
X160931904Y-110437200D01*
X160931904Y-110437200D02*
X161027142Y-110484819D01*
X160408095Y-110341961D02*
X160455714Y-110437200D01*
X160455714Y-110437200D02*
X160550952Y-110484819D01*
X160550952Y-110484819D02*
X160741428Y-110484819D01*
X160741428Y-110484819D02*
X160836666Y-110437200D01*
X160836666Y-110437200D02*
X160884285Y-110341961D01*
X160884285Y-110341961D02*
X160884285Y-109818152D01*
X162027142Y-110389580D02*
X161979523Y-110437200D01*
X161979523Y-110437200D02*
X161836666Y-110484819D01*
X161836666Y-110484819D02*
X161741428Y-110484819D01*
X161741428Y-110484819D02*
X161598571Y-110437200D01*
X161598571Y-110437200D02*
X161503333Y-110341961D01*
X161503333Y-110341961D02*
X161455714Y-110246723D01*
X161455714Y-110246723D02*
X161408095Y-110056247D01*
X161408095Y-110056247D02*
X161408095Y-109913390D01*
X161408095Y-109913390D02*
X161455714Y-109722914D01*
X161455714Y-109722914D02*
X161503333Y-109627676D01*
X161503333Y-109627676D02*
X161598571Y-109532438D01*
X161598571Y-109532438D02*
X161741428Y-109484819D01*
X161741428Y-109484819D02*
X161836666Y-109484819D01*
X161836666Y-109484819D02*
X161979523Y-109532438D01*
X161979523Y-109532438D02*
X162027142Y-109580057D01*
X162979523Y-110484819D02*
X162408095Y-110484819D01*
X162693809Y-110484819D02*
X162693809Y-109484819D01*
X162693809Y-109484819D02*
X162598571Y-109627676D01*
X162598571Y-109627676D02*
X162503333Y-109722914D01*
X162503333Y-109722914D02*
X162408095Y-109770533D01*
D10*
X158892381Y-103642727D02*
X159006667Y-103680822D01*
X159006667Y-103680822D02*
X159044762Y-103718918D01*
X159044762Y-103718918D02*
X159082858Y-103795108D01*
X159082858Y-103795108D02*
X159082858Y-103909394D01*
X159082858Y-103909394D02*
X159044762Y-103985584D01*
X159044762Y-103985584D02*
X159006667Y-104023680D01*
X159006667Y-104023680D02*
X158930477Y-104061775D01*
X158930477Y-104061775D02*
X158625715Y-104061775D01*
X158625715Y-104061775D02*
X158625715Y-103261775D01*
X158625715Y-103261775D02*
X158892381Y-103261775D01*
X158892381Y-103261775D02*
X158968572Y-103299870D01*
X158968572Y-103299870D02*
X159006667Y-103337965D01*
X159006667Y-103337965D02*
X159044762Y-103414156D01*
X159044762Y-103414156D02*
X159044762Y-103490346D01*
X159044762Y-103490346D02*
X159006667Y-103566537D01*
X159006667Y-103566537D02*
X158968572Y-103604632D01*
X158968572Y-103604632D02*
X158892381Y-103642727D01*
X158892381Y-103642727D02*
X158625715Y-103642727D01*
X159806667Y-104061775D02*
X159425715Y-104061775D01*
X159425715Y-104061775D02*
X159425715Y-103261775D01*
X160035238Y-103833203D02*
X160416191Y-103833203D01*
X159959048Y-104061775D02*
X160225715Y-103261775D01*
X160225715Y-103261775D02*
X160492381Y-104061775D01*
X161216191Y-103985584D02*
X161178095Y-104023680D01*
X161178095Y-104023680D02*
X161063810Y-104061775D01*
X161063810Y-104061775D02*
X160987619Y-104061775D01*
X160987619Y-104061775D02*
X160873333Y-104023680D01*
X160873333Y-104023680D02*
X160797143Y-103947489D01*
X160797143Y-103947489D02*
X160759048Y-103871299D01*
X160759048Y-103871299D02*
X160720952Y-103718918D01*
X160720952Y-103718918D02*
X160720952Y-103604632D01*
X160720952Y-103604632D02*
X160759048Y-103452251D01*
X160759048Y-103452251D02*
X160797143Y-103376060D01*
X160797143Y-103376060D02*
X160873333Y-103299870D01*
X160873333Y-103299870D02*
X160987619Y-103261775D01*
X160987619Y-103261775D02*
X161063810Y-103261775D01*
X161063810Y-103261775D02*
X161178095Y-103299870D01*
X161178095Y-103299870D02*
X161216191Y-103337965D01*
X161559048Y-104061775D02*
X161559048Y-103261775D01*
X162016191Y-104061775D02*
X161673333Y-103604632D01*
X162016191Y-103261775D02*
X161559048Y-103718918D01*
X162359048Y-104061775D02*
X162359048Y-103261775D01*
X162359048Y-103261775D02*
X162663810Y-103261775D01*
X162663810Y-103261775D02*
X162740000Y-103299870D01*
X162740000Y-103299870D02*
X162778095Y-103337965D01*
X162778095Y-103337965D02*
X162816191Y-103414156D01*
X162816191Y-103414156D02*
X162816191Y-103528441D01*
X162816191Y-103528441D02*
X162778095Y-103604632D01*
X162778095Y-103604632D02*
X162740000Y-103642727D01*
X162740000Y-103642727D02*
X162663810Y-103680822D01*
X162663810Y-103680822D02*
X162359048Y-103680822D01*
X163159048Y-104061775D02*
X163159048Y-103261775D01*
X163920952Y-104061775D02*
X163540000Y-104061775D01*
X163540000Y-104061775D02*
X163540000Y-103261775D01*
X164568571Y-104061775D02*
X164187619Y-104061775D01*
X164187619Y-104061775D02*
X164187619Y-103261775D01*
X156679523Y-101131775D02*
X157136666Y-101131775D01*
X156908094Y-101931775D02*
X156908094Y-101131775D01*
X157403333Y-101931775D02*
X157403333Y-101131775D01*
X157403333Y-101512727D02*
X157860476Y-101512727D01*
X157860476Y-101931775D02*
X157860476Y-101131775D01*
X158241428Y-101931775D02*
X158241428Y-101131775D01*
X158584284Y-101893680D02*
X158698570Y-101931775D01*
X158698570Y-101931775D02*
X158889046Y-101931775D01*
X158889046Y-101931775D02*
X158965237Y-101893680D01*
X158965237Y-101893680D02*
X159003332Y-101855584D01*
X159003332Y-101855584D02*
X159041427Y-101779394D01*
X159041427Y-101779394D02*
X159041427Y-101703203D01*
X159041427Y-101703203D02*
X159003332Y-101627013D01*
X159003332Y-101627013D02*
X158965237Y-101588918D01*
X158965237Y-101588918D02*
X158889046Y-101550822D01*
X158889046Y-101550822D02*
X158736665Y-101512727D01*
X158736665Y-101512727D02*
X158660475Y-101474632D01*
X158660475Y-101474632D02*
X158622380Y-101436537D01*
X158622380Y-101436537D02*
X158584284Y-101360346D01*
X158584284Y-101360346D02*
X158584284Y-101284156D01*
X158584284Y-101284156D02*
X158622380Y-101207965D01*
X158622380Y-101207965D02*
X158660475Y-101169870D01*
X158660475Y-101169870D02*
X158736665Y-101131775D01*
X158736665Y-101131775D02*
X158927142Y-101131775D01*
X158927142Y-101131775D02*
X159041427Y-101169870D01*
X159955713Y-101893680D02*
X160069999Y-101931775D01*
X160069999Y-101931775D02*
X160260475Y-101931775D01*
X160260475Y-101931775D02*
X160336666Y-101893680D01*
X160336666Y-101893680D02*
X160374761Y-101855584D01*
X160374761Y-101855584D02*
X160412856Y-101779394D01*
X160412856Y-101779394D02*
X160412856Y-101703203D01*
X160412856Y-101703203D02*
X160374761Y-101627013D01*
X160374761Y-101627013D02*
X160336666Y-101588918D01*
X160336666Y-101588918D02*
X160260475Y-101550822D01*
X160260475Y-101550822D02*
X160108094Y-101512727D01*
X160108094Y-101512727D02*
X160031904Y-101474632D01*
X160031904Y-101474632D02*
X159993809Y-101436537D01*
X159993809Y-101436537D02*
X159955713Y-101360346D01*
X159955713Y-101360346D02*
X159955713Y-101284156D01*
X159955713Y-101284156D02*
X159993809Y-101207965D01*
X159993809Y-101207965D02*
X160031904Y-101169870D01*
X160031904Y-101169870D02*
X160108094Y-101131775D01*
X160108094Y-101131775D02*
X160298571Y-101131775D01*
X160298571Y-101131775D02*
X160412856Y-101169870D01*
X160755714Y-101931775D02*
X160755714Y-101131775D01*
X161136666Y-101931775D02*
X161136666Y-101131775D01*
X161136666Y-101131775D02*
X161327142Y-101131775D01*
X161327142Y-101131775D02*
X161441428Y-101169870D01*
X161441428Y-101169870D02*
X161517618Y-101246060D01*
X161517618Y-101246060D02*
X161555713Y-101322251D01*
X161555713Y-101322251D02*
X161593809Y-101474632D01*
X161593809Y-101474632D02*
X161593809Y-101588918D01*
X161593809Y-101588918D02*
X161555713Y-101741299D01*
X161555713Y-101741299D02*
X161517618Y-101817489D01*
X161517618Y-101817489D02*
X161441428Y-101893680D01*
X161441428Y-101893680D02*
X161327142Y-101931775D01*
X161327142Y-101931775D02*
X161136666Y-101931775D01*
X161936666Y-101512727D02*
X162203332Y-101512727D01*
X162317618Y-101931775D02*
X161936666Y-101931775D01*
X161936666Y-101931775D02*
X161936666Y-101131775D01*
X161936666Y-101131775D02*
X162317618Y-101131775D01*
X163536666Y-101512727D02*
X163270000Y-101512727D01*
X163270000Y-101931775D02*
X163270000Y-101131775D01*
X163270000Y-101131775D02*
X163650952Y-101131775D01*
X163917618Y-101703203D02*
X164298571Y-101703203D01*
X163841428Y-101931775D02*
X164108095Y-101131775D01*
X164108095Y-101131775D02*
X164374761Y-101931775D01*
X165098571Y-101855584D02*
X165060475Y-101893680D01*
X165060475Y-101893680D02*
X164946190Y-101931775D01*
X164946190Y-101931775D02*
X164869999Y-101931775D01*
X164869999Y-101931775D02*
X164755713Y-101893680D01*
X164755713Y-101893680D02*
X164679523Y-101817489D01*
X164679523Y-101817489D02*
X164641428Y-101741299D01*
X164641428Y-101741299D02*
X164603332Y-101588918D01*
X164603332Y-101588918D02*
X164603332Y-101474632D01*
X164603332Y-101474632D02*
X164641428Y-101322251D01*
X164641428Y-101322251D02*
X164679523Y-101246060D01*
X164679523Y-101246060D02*
X164755713Y-101169870D01*
X164755713Y-101169870D02*
X164869999Y-101131775D01*
X164869999Y-101131775D02*
X164946190Y-101131775D01*
X164946190Y-101131775D02*
X165060475Y-101169870D01*
X165060475Y-101169870D02*
X165098571Y-101207965D01*
X165441428Y-101512727D02*
X165708094Y-101512727D01*
X165822380Y-101931775D02*
X165441428Y-101931775D01*
X165441428Y-101931775D02*
X165441428Y-101131775D01*
X165441428Y-101131775D02*
X165822380Y-101131775D01*
X166127142Y-101893680D02*
X166241428Y-101931775D01*
X166241428Y-101931775D02*
X166431904Y-101931775D01*
X166431904Y-101931775D02*
X166508095Y-101893680D01*
X166508095Y-101893680D02*
X166546190Y-101855584D01*
X166546190Y-101855584D02*
X166584285Y-101779394D01*
X166584285Y-101779394D02*
X166584285Y-101703203D01*
X166584285Y-101703203D02*
X166546190Y-101627013D01*
X166546190Y-101627013D02*
X166508095Y-101588918D01*
X166508095Y-101588918D02*
X166431904Y-101550822D01*
X166431904Y-101550822D02*
X166279523Y-101512727D01*
X166279523Y-101512727D02*
X166203333Y-101474632D01*
X166203333Y-101474632D02*
X166165238Y-101436537D01*
X166165238Y-101436537D02*
X166127142Y-101360346D01*
X166127142Y-101360346D02*
X166127142Y-101284156D01*
X166127142Y-101284156D02*
X166165238Y-101207965D01*
X166165238Y-101207965D02*
X166203333Y-101169870D01*
X166203333Y-101169870D02*
X166279523Y-101131775D01*
X166279523Y-101131775D02*
X166470000Y-101131775D01*
X166470000Y-101131775D02*
X166584285Y-101169870D01*
X158774762Y-93355584D02*
X158736666Y-93393680D01*
X158736666Y-93393680D02*
X158622381Y-93431775D01*
X158622381Y-93431775D02*
X158546190Y-93431775D01*
X158546190Y-93431775D02*
X158431904Y-93393680D01*
X158431904Y-93393680D02*
X158355714Y-93317489D01*
X158355714Y-93317489D02*
X158317619Y-93241299D01*
X158317619Y-93241299D02*
X158279523Y-93088918D01*
X158279523Y-93088918D02*
X158279523Y-92974632D01*
X158279523Y-92974632D02*
X158317619Y-92822251D01*
X158317619Y-92822251D02*
X158355714Y-92746060D01*
X158355714Y-92746060D02*
X158431904Y-92669870D01*
X158431904Y-92669870D02*
X158546190Y-92631775D01*
X158546190Y-92631775D02*
X158622381Y-92631775D01*
X158622381Y-92631775D02*
X158736666Y-92669870D01*
X158736666Y-92669870D02*
X158774762Y-92707965D01*
X159270000Y-92631775D02*
X159422381Y-92631775D01*
X159422381Y-92631775D02*
X159498571Y-92669870D01*
X159498571Y-92669870D02*
X159574762Y-92746060D01*
X159574762Y-92746060D02*
X159612857Y-92898441D01*
X159612857Y-92898441D02*
X159612857Y-93165108D01*
X159612857Y-93165108D02*
X159574762Y-93317489D01*
X159574762Y-93317489D02*
X159498571Y-93393680D01*
X159498571Y-93393680D02*
X159422381Y-93431775D01*
X159422381Y-93431775D02*
X159270000Y-93431775D01*
X159270000Y-93431775D02*
X159193809Y-93393680D01*
X159193809Y-93393680D02*
X159117619Y-93317489D01*
X159117619Y-93317489D02*
X159079523Y-93165108D01*
X159079523Y-93165108D02*
X159079523Y-92898441D01*
X159079523Y-92898441D02*
X159117619Y-92746060D01*
X159117619Y-92746060D02*
X159193809Y-92669870D01*
X159193809Y-92669870D02*
X159270000Y-92631775D01*
X159955714Y-93431775D02*
X159955714Y-92631775D01*
X159955714Y-92631775D02*
X160412857Y-93431775D01*
X160412857Y-93431775D02*
X160412857Y-92631775D01*
X160793809Y-93431775D02*
X160793809Y-92631775D01*
X160793809Y-92631775D02*
X161250952Y-93431775D01*
X161250952Y-93431775D02*
X161250952Y-92631775D01*
X161631904Y-93012727D02*
X161898570Y-93012727D01*
X162012856Y-93431775D02*
X161631904Y-93431775D01*
X161631904Y-93431775D02*
X161631904Y-92631775D01*
X161631904Y-92631775D02*
X162012856Y-92631775D01*
X162812857Y-93355584D02*
X162774761Y-93393680D01*
X162774761Y-93393680D02*
X162660476Y-93431775D01*
X162660476Y-93431775D02*
X162584285Y-93431775D01*
X162584285Y-93431775D02*
X162469999Y-93393680D01*
X162469999Y-93393680D02*
X162393809Y-93317489D01*
X162393809Y-93317489D02*
X162355714Y-93241299D01*
X162355714Y-93241299D02*
X162317618Y-93088918D01*
X162317618Y-93088918D02*
X162317618Y-92974632D01*
X162317618Y-92974632D02*
X162355714Y-92822251D01*
X162355714Y-92822251D02*
X162393809Y-92746060D01*
X162393809Y-92746060D02*
X162469999Y-92669870D01*
X162469999Y-92669870D02*
X162584285Y-92631775D01*
X162584285Y-92631775D02*
X162660476Y-92631775D01*
X162660476Y-92631775D02*
X162774761Y-92669870D01*
X162774761Y-92669870D02*
X162812857Y-92707965D01*
X163041428Y-92631775D02*
X163498571Y-92631775D01*
X163269999Y-93431775D02*
X163269999Y-92631775D01*
X163917619Y-92631775D02*
X164070000Y-92631775D01*
X164070000Y-92631775D02*
X164146190Y-92669870D01*
X164146190Y-92669870D02*
X164222381Y-92746060D01*
X164222381Y-92746060D02*
X164260476Y-92898441D01*
X164260476Y-92898441D02*
X164260476Y-93165108D01*
X164260476Y-93165108D02*
X164222381Y-93317489D01*
X164222381Y-93317489D02*
X164146190Y-93393680D01*
X164146190Y-93393680D02*
X164070000Y-93431775D01*
X164070000Y-93431775D02*
X163917619Y-93431775D01*
X163917619Y-93431775D02*
X163841428Y-93393680D01*
X163841428Y-93393680D02*
X163765238Y-93317489D01*
X163765238Y-93317489D02*
X163727142Y-93165108D01*
X163727142Y-93165108D02*
X163727142Y-92898441D01*
X163727142Y-92898441D02*
X163765238Y-92746060D01*
X163765238Y-92746060D02*
X163841428Y-92669870D01*
X163841428Y-92669870D02*
X163917619Y-92631775D01*
X165060476Y-93431775D02*
X164793809Y-93050822D01*
X164603333Y-93431775D02*
X164603333Y-92631775D01*
X164603333Y-92631775D02*
X164908095Y-92631775D01*
X164908095Y-92631775D02*
X164984285Y-92669870D01*
X164984285Y-92669870D02*
X165022380Y-92707965D01*
X165022380Y-92707965D02*
X165060476Y-92784156D01*
X165060476Y-92784156D02*
X165060476Y-92898441D01*
X165060476Y-92898441D02*
X165022380Y-92974632D01*
X165022380Y-92974632D02*
X164984285Y-93012727D01*
X164984285Y-93012727D02*
X164908095Y-93050822D01*
X164908095Y-93050822D02*
X164603333Y-93050822D01*
D14*
X166773554Y-87883453D02*
X166289744Y-87883453D01*
X166289744Y-87883453D02*
X166241363Y-88367263D01*
X166241363Y-88367263D02*
X166289744Y-88318882D01*
X166289744Y-88318882D02*
X166386506Y-88270501D01*
X166386506Y-88270501D02*
X166628411Y-88270501D01*
X166628411Y-88270501D02*
X166725173Y-88318882D01*
X166725173Y-88318882D02*
X166773554Y-88367263D01*
X166773554Y-88367263D02*
X166821935Y-88464025D01*
X166821935Y-88464025D02*
X166821935Y-88705930D01*
X166821935Y-88705930D02*
X166773554Y-88802692D01*
X166773554Y-88802692D02*
X166725173Y-88851073D01*
X166725173Y-88851073D02*
X166628411Y-88899453D01*
X166628411Y-88899453D02*
X166386506Y-88899453D01*
X166386506Y-88899453D02*
X166289744Y-88851073D01*
X166289744Y-88851073D02*
X166241363Y-88802692D01*
X167112220Y-87883453D02*
X167450887Y-88899453D01*
X167450887Y-88899453D02*
X167789554Y-87883453D01*
D11*
X142870476Y-112442295D02*
X142870476Y-113089914D01*
X142870476Y-113089914D02*
X142908571Y-113166104D01*
X142908571Y-113166104D02*
X142946666Y-113204200D01*
X142946666Y-113204200D02*
X143022857Y-113242295D01*
X143022857Y-113242295D02*
X143175238Y-113242295D01*
X143175238Y-113242295D02*
X143251428Y-113204200D01*
X143251428Y-113204200D02*
X143289523Y-113166104D01*
X143289523Y-113166104D02*
X143327619Y-113089914D01*
X143327619Y-113089914D02*
X143327619Y-112442295D01*
X144127618Y-113242295D02*
X143670475Y-113242295D01*
X143899047Y-113242295D02*
X143899047Y-112442295D01*
X143899047Y-112442295D02*
X143822856Y-112556580D01*
X143822856Y-112556580D02*
X143746666Y-112632771D01*
X143746666Y-112632771D02*
X143670475Y-112670866D01*
D10*
X202447727Y-117730714D02*
X202485822Y-117616428D01*
X202485822Y-117616428D02*
X202523918Y-117578333D01*
X202523918Y-117578333D02*
X202600108Y-117540237D01*
X202600108Y-117540237D02*
X202714394Y-117540237D01*
X202714394Y-117540237D02*
X202790584Y-117578333D01*
X202790584Y-117578333D02*
X202828680Y-117616428D01*
X202828680Y-117616428D02*
X202866775Y-117692618D01*
X202866775Y-117692618D02*
X202866775Y-117997380D01*
X202866775Y-117997380D02*
X202066775Y-117997380D01*
X202066775Y-117997380D02*
X202066775Y-117730714D01*
X202066775Y-117730714D02*
X202104870Y-117654523D01*
X202104870Y-117654523D02*
X202142965Y-117616428D01*
X202142965Y-117616428D02*
X202219156Y-117578333D01*
X202219156Y-117578333D02*
X202295346Y-117578333D01*
X202295346Y-117578333D02*
X202371537Y-117616428D01*
X202371537Y-117616428D02*
X202409632Y-117654523D01*
X202409632Y-117654523D02*
X202447727Y-117730714D01*
X202447727Y-117730714D02*
X202447727Y-117997380D01*
X202866775Y-117197380D02*
X202066775Y-117197380D01*
X202066775Y-117197380D02*
X202066775Y-116892618D01*
X202066775Y-116892618D02*
X202104870Y-116816428D01*
X202104870Y-116816428D02*
X202142965Y-116778333D01*
X202142965Y-116778333D02*
X202219156Y-116740237D01*
X202219156Y-116740237D02*
X202333441Y-116740237D01*
X202333441Y-116740237D02*
X202409632Y-116778333D01*
X202409632Y-116778333D02*
X202447727Y-116816428D01*
X202447727Y-116816428D02*
X202485822Y-116892618D01*
X202485822Y-116892618D02*
X202485822Y-117197380D01*
X202447727Y-116130714D02*
X202447727Y-116397380D01*
X202866775Y-116397380D02*
X202066775Y-116397380D01*
X202066775Y-116397380D02*
X202066775Y-116016428D01*
D11*
X196221009Y-135045237D02*
X196221009Y-134711904D01*
X196744819Y-134569047D02*
X196744819Y-135045237D01*
X196744819Y-135045237D02*
X195744819Y-135045237D01*
X195744819Y-135045237D02*
X195744819Y-134569047D01*
X196744819Y-134140475D02*
X195744819Y-134140475D01*
X195744819Y-134140475D02*
X196744819Y-133569047D01*
X196744819Y-133569047D02*
X195744819Y-133569047D01*
X195744819Y-133235713D02*
X195744819Y-132664285D01*
X196744819Y-132949999D02*
X195744819Y-132949999D01*
X196744819Y-131759523D02*
X196268628Y-132092856D01*
X196744819Y-132330951D02*
X195744819Y-132330951D01*
X195744819Y-132330951D02*
X195744819Y-131949999D01*
X195744819Y-131949999D02*
X195792438Y-131854761D01*
X195792438Y-131854761D02*
X195840057Y-131807142D01*
X195840057Y-131807142D02*
X195935295Y-131759523D01*
X195935295Y-131759523D02*
X196078152Y-131759523D01*
X196078152Y-131759523D02*
X196173390Y-131807142D01*
X196173390Y-131807142D02*
X196221009Y-131854761D01*
X196221009Y-131854761D02*
X196268628Y-131949999D01*
X196268628Y-131949999D02*
X196268628Y-132330951D01*
X196744819Y-130807142D02*
X196744819Y-131378570D01*
X196744819Y-131092856D02*
X195744819Y-131092856D01*
X195744819Y-131092856D02*
X195887676Y-131188094D01*
X195887676Y-131188094D02*
X195982914Y-131283332D01*
X195982914Y-131283332D02*
X196030533Y-131378570D01*
D15*
D11*
X138296667Y-113706104D02*
X138258571Y-113744200D01*
X138258571Y-113744200D02*
X138144286Y-113782295D01*
X138144286Y-113782295D02*
X138068095Y-113782295D01*
X138068095Y-113782295D02*
X137953809Y-113744200D01*
X137953809Y-113744200D02*
X137877619Y-113668009D01*
X137877619Y-113668009D02*
X137839524Y-113591819D01*
X137839524Y-113591819D02*
X137801428Y-113439438D01*
X137801428Y-113439438D02*
X137801428Y-113325152D01*
X137801428Y-113325152D02*
X137839524Y-113172771D01*
X137839524Y-113172771D02*
X137877619Y-113096580D01*
X137877619Y-113096580D02*
X137953809Y-113020390D01*
X137953809Y-113020390D02*
X138068095Y-112982295D01*
X138068095Y-112982295D02*
X138144286Y-112982295D01*
X138144286Y-112982295D02*
X138258571Y-113020390D01*
X138258571Y-113020390D02*
X138296667Y-113058485D01*
X139058571Y-113782295D02*
X138601428Y-113782295D01*
X138830000Y-113782295D02*
X138830000Y-112982295D01*
X138830000Y-112982295D02*
X138753809Y-113096580D01*
X138753809Y-113096580D02*
X138677619Y-113172771D01*
X138677619Y-113172771D02*
X138601428Y-113210866D01*
X141988095Y-90704819D02*
X141988095Y-91514342D01*
X141988095Y-91514342D02*
X142035714Y-91609580D01*
X142035714Y-91609580D02*
X142083333Y-91657200D01*
X142083333Y-91657200D02*
X142178571Y-91704819D01*
X142178571Y-91704819D02*
X142369047Y-91704819D01*
X142369047Y-91704819D02*
X142464285Y-91657200D01*
X142464285Y-91657200D02*
X142511904Y-91609580D01*
X142511904Y-91609580D02*
X142559523Y-91514342D01*
X142559523Y-91514342D02*
X142559523Y-90704819D01*
X142988095Y-90800057D02*
X143035714Y-90752438D01*
X143035714Y-90752438D02*
X143130952Y-90704819D01*
X143130952Y-90704819D02*
X143369047Y-90704819D01*
X143369047Y-90704819D02*
X143464285Y-90752438D01*
X143464285Y-90752438D02*
X143511904Y-90800057D01*
X143511904Y-90800057D02*
X143559523Y-90895295D01*
X143559523Y-90895295D02*
X143559523Y-90990533D01*
X143559523Y-90990533D02*
X143511904Y-91133390D01*
X143511904Y-91133390D02*
X142940476Y-91704819D01*
X142940476Y-91704819D02*
X143559523Y-91704819D01*
X157691667Y-119237295D02*
X157425000Y-118856342D01*
X157234524Y-119237295D02*
X157234524Y-118437295D01*
X157234524Y-118437295D02*
X157539286Y-118437295D01*
X157539286Y-118437295D02*
X157615476Y-118475390D01*
X157615476Y-118475390D02*
X157653571Y-118513485D01*
X157653571Y-118513485D02*
X157691667Y-118589676D01*
X157691667Y-118589676D02*
X157691667Y-118703961D01*
X157691667Y-118703961D02*
X157653571Y-118780152D01*
X157653571Y-118780152D02*
X157615476Y-118818247D01*
X157615476Y-118818247D02*
X157539286Y-118856342D01*
X157539286Y-118856342D02*
X157234524Y-118856342D01*
X158377381Y-118703961D02*
X158377381Y-119237295D01*
X158186905Y-118399200D02*
X157996428Y-118970628D01*
X157996428Y-118970628D02*
X158491667Y-118970628D01*
X177744819Y-133950000D02*
X177268628Y-134283333D01*
X177744819Y-134521428D02*
X176744819Y-134521428D01*
X176744819Y-134521428D02*
X176744819Y-134140476D01*
X176744819Y-134140476D02*
X176792438Y-134045238D01*
X176792438Y-134045238D02*
X176840057Y-133997619D01*
X176840057Y-133997619D02*
X176935295Y-133950000D01*
X176935295Y-133950000D02*
X177078152Y-133950000D01*
X177078152Y-133950000D02*
X177173390Y-133997619D01*
X177173390Y-133997619D02*
X177221009Y-134045238D01*
X177221009Y-134045238D02*
X177268628Y-134140476D01*
X177268628Y-134140476D02*
X177268628Y-134521428D01*
X177221009Y-133521428D02*
X177221009Y-133188095D01*
X177744819Y-133045238D02*
X177744819Y-133521428D01*
X177744819Y-133521428D02*
X176744819Y-133521428D01*
X176744819Y-133521428D02*
X176744819Y-133045238D01*
X176744819Y-132759523D02*
X176744819Y-132188095D01*
X177744819Y-132473809D02*
X176744819Y-132473809D01*
X177744819Y-131330952D02*
X177744819Y-131902380D01*
X177744819Y-131616666D02*
X176744819Y-131616666D01*
X176744819Y-131616666D02*
X176887676Y-131711904D01*
X176887676Y-131711904D02*
X176982914Y-131807142D01*
X176982914Y-131807142D02*
X177030533Y-131902380D01*
X184432857Y-137654819D02*
X184432857Y-136654819D01*
X184432857Y-136654819D02*
X184670952Y-136654819D01*
X184670952Y-136654819D02*
X184813809Y-136702438D01*
X184813809Y-136702438D02*
X184909047Y-136797676D01*
X184909047Y-136797676D02*
X184956666Y-136892914D01*
X184956666Y-136892914D02*
X185004285Y-137083390D01*
X185004285Y-137083390D02*
X185004285Y-137226247D01*
X185004285Y-137226247D02*
X184956666Y-137416723D01*
X184956666Y-137416723D02*
X184909047Y-137511961D01*
X184909047Y-137511961D02*
X184813809Y-137607200D01*
X184813809Y-137607200D02*
X184670952Y-137654819D01*
X184670952Y-137654819D02*
X184432857Y-137654819D01*
X185623333Y-136654819D02*
X185813809Y-136654819D01*
X185813809Y-136654819D02*
X185909047Y-136702438D01*
X185909047Y-136702438D02*
X186004285Y-136797676D01*
X186004285Y-136797676D02*
X186051904Y-136988152D01*
X186051904Y-136988152D02*
X186051904Y-137321485D01*
X186051904Y-137321485D02*
X186004285Y-137511961D01*
X186004285Y-137511961D02*
X185909047Y-137607200D01*
X185909047Y-137607200D02*
X185813809Y-137654819D01*
X185813809Y-137654819D02*
X185623333Y-137654819D01*
X185623333Y-137654819D02*
X185528095Y-137607200D01*
X185528095Y-137607200D02*
X185432857Y-137511961D01*
X185432857Y-137511961D02*
X185385238Y-137321485D01*
X185385238Y-137321485D02*
X185385238Y-136988152D01*
X185385238Y-136988152D02*
X185432857Y-136797676D01*
X185432857Y-136797676D02*
X185528095Y-136702438D01*
X185528095Y-136702438D02*
X185623333Y-136654819D01*
X186385238Y-136654819D02*
X186623333Y-137654819D01*
X186623333Y-137654819D02*
X186813809Y-136940533D01*
X186813809Y-136940533D02*
X187004285Y-137654819D01*
X187004285Y-137654819D02*
X187242381Y-136654819D01*
X187623333Y-137654819D02*
X187623333Y-136654819D01*
X187623333Y-136654819D02*
X188194761Y-137654819D01*
X188194761Y-137654819D02*
X188194761Y-136654819D01*
X189194761Y-137654819D02*
X188623333Y-137654819D01*
X188909047Y-137654819D02*
X188909047Y-136654819D01*
X188909047Y-136654819D02*
X188813809Y-136797676D01*
X188813809Y-136797676D02*
X188718571Y-136892914D01*
X188718571Y-136892914D02*
X188623333Y-136940533D01*
D16*
%TO.C,J2*%
X173080000Y-86660000D02*
X206360000Y-86660000D01*
X173080000Y-95780000D02*
X173080000Y-86660000D01*
X174380000Y-87970000D02*
X205060000Y-87970000D01*
X174380000Y-94470000D02*
X174380000Y-87970000D01*
X177790000Y-97170000D02*
X178790000Y-97170000D01*
X178290000Y-96170000D02*
X177790000Y-97170000D01*
X178790000Y-97170000D02*
X178290000Y-96170000D01*
X187670000Y-94470000D02*
X174380000Y-94470000D01*
X187670000Y-95780000D02*
X187670000Y-94470000D01*
X191770000Y-94470000D02*
X191770000Y-94470000D01*
X191770000Y-94470000D02*
X191770000Y-95780000D01*
X205060000Y-87970000D02*
X205060000Y-94470000D01*
X205060000Y-94470000D02*
X191770000Y-94470000D01*
X206360000Y-86660000D02*
X206360000Y-95780000D01*
X206360000Y-95780000D02*
X173080000Y-95780000D01*
%TO.C,D1*%
X203655000Y-104615000D02*
X203655000Y-108855000D01*
X203655000Y-108855000D02*
X205895000Y-108855000D01*
X204775000Y-103965000D02*
X204775000Y-104615000D01*
X204775000Y-109505000D02*
X204775000Y-108855000D01*
X205895000Y-104615000D02*
X203655000Y-104615000D01*
X205895000Y-105215000D02*
X203655000Y-105215000D01*
X205895000Y-105335000D02*
X203655000Y-105335000D01*
X205895000Y-105455000D02*
X203655000Y-105455000D01*
X205895000Y-108855000D02*
X205895000Y-104615000D01*
%TO.C,J5*%
X133500000Y-114990000D02*
X134880000Y-114990000D01*
X133500000Y-116370000D02*
X133500000Y-114990000D01*
X133500000Y-117640000D02*
X133500000Y-125370000D01*
X133500000Y-117640000D02*
X136260000Y-117640000D01*
X133500000Y-125370000D02*
X136260000Y-125370000D01*
X136260000Y-117640000D02*
X136260000Y-125370000D01*
%TO.C,J3*%
X203384746Y-119361427D02*
X204714746Y-119361427D01*
X203384746Y-120691427D02*
X203384746Y-119361427D01*
X203384746Y-121961427D02*
X203384746Y-134721427D01*
X203384746Y-121961427D02*
X206044746Y-121961427D01*
X203384746Y-134721427D02*
X206044746Y-134721427D01*
X206044746Y-121961427D02*
X206044746Y-134721427D01*
%TO.C,UP1*%
X183290000Y-127950000D02*
X183290000Y-129450000D01*
X184540000Y-131950000D02*
X189040000Y-131950000D01*
X189040000Y-125450000D02*
X184540000Y-125450000D01*
X190290000Y-129450000D02*
X190290000Y-127950000D01*
%TO.C,D2*%
X203815000Y-105090000D02*
X203815000Y-107950000D01*
X205735000Y-105090000D02*
X203815000Y-105090000D01*
X205735000Y-107950000D02*
X205735000Y-105090000D01*
%TO.C,Fu2*%
X204040000Y-113513748D02*
X204040000Y-114036252D01*
X205460000Y-113513748D02*
X205460000Y-114036252D01*
%TO.C,C2*%
X148665000Y-106943752D02*
X148665000Y-106421248D01*
X150135000Y-106943752D02*
X150135000Y-106421248D01*
D13*
%TO.C,BZ1*%
X141000000Y-126250000D02*
X146500000Y-126250000D01*
X149924545Y-131750000D02*
G75*
G02*
X137575455Y-131750000I-6174545J0D01*
G01*
X137575455Y-131750000D02*
G75*
G02*
X149924545Y-131750000I6174545J0D01*
G01*
D16*
%TO.C,J4*%
X133580000Y-103645000D02*
X134910000Y-103645000D01*
X133580000Y-104975000D02*
X133580000Y-103645000D01*
X133580000Y-106245000D02*
X133580000Y-111385000D01*
X133580000Y-106245000D02*
X136240000Y-106245000D01*
X133580000Y-111385000D02*
X136240000Y-111385000D01*
X136240000Y-106245000D02*
X136240000Y-111385000D01*
%TO.C,3V*%
X137275000Y-122275000D02*
X137275000Y-120875000D01*
X137975000Y-120175000D02*
X138575000Y-120175000D01*
X138575000Y-122975000D02*
X137975000Y-122975000D01*
X139275000Y-120875000D02*
X139275000Y-122275000D01*
X137275000Y-120875000D02*
G75*
G02*
X137975000Y-120175000I699999J1D01*
G01*
X137975000Y-122975000D02*
G75*
G02*
X137275000Y-122275000I0J700000D01*
G01*
X138575000Y-120175000D02*
G75*
G02*
X139275000Y-120875000I1J-699999D01*
G01*
X139275000Y-122275000D02*
G75*
G02*
X138575000Y-122975000I-700000J0D01*
G01*
D17*
%TO.C,\u03BCC1*%
X151170000Y-138069994D02*
X151170000Y-87070000D01*
X152170000Y-86070000D02*
X171170000Y-86070003D01*
D16*
X161670000Y-87805000D02*
X161035000Y-88440000D01*
X161670000Y-87805000D02*
X162305000Y-88440000D01*
X161670000Y-90980000D02*
X161670000Y-87805000D01*
D17*
X171170000Y-139070000D02*
X152170000Y-139069994D01*
X172170000Y-87070003D02*
X172170000Y-138070000D01*
X151169997Y-87069997D02*
G75*
G02*
X152170000Y-86070000I999999J-2D01*
G01*
X152169997Y-139069997D02*
G75*
G02*
X151170000Y-138069994I2J999999D01*
G01*
X171170003Y-86070000D02*
G75*
G02*
X172170000Y-87070003I-3J-1000000D01*
G01*
X172170003Y-138070003D02*
G75*
G02*
X171170000Y-139070003I-1000003J3D01*
G01*
D16*
%TO.C,U1*%
X140077500Y-110890000D02*
X141337500Y-110890000D01*
X140077500Y-114650000D02*
X140077500Y-110890000D01*
X146897500Y-110890000D02*
X145637500Y-110890000D01*
X146897500Y-114650000D02*
X146897500Y-110890000D01*
X140177500Y-115930000D02*
X139847500Y-116170000D01*
X139847500Y-115690000D01*
X140177500Y-115930000D01*
G36*
X140177500Y-115930000D02*
G01*
X139847500Y-116170000D01*
X139847500Y-115690000D01*
X140177500Y-115930000D01*
G37*
%TO.C,BPF*%
X203325000Y-117575000D02*
X203325000Y-116975000D01*
X204025000Y-116275000D02*
X205425000Y-116275000D01*
X205425000Y-118275000D02*
X204025000Y-118275000D01*
X206125000Y-116975000D02*
X206125000Y-117575000D01*
X203325000Y-116975000D02*
G75*
G02*
X204025000Y-116275000I700000J0D01*
G01*
X204025000Y-118275000D02*
G75*
G02*
X203325000Y-117575000I0J700000D01*
G01*
X205425000Y-116275000D02*
G75*
G02*
X206125000Y-116975000I1J-699999D01*
G01*
X206125000Y-117575000D02*
G75*
G02*
X205425000Y-118275000I-699999J-1D01*
G01*
%TO.C,JP1*%
X147800000Y-122275000D02*
X147800000Y-120875000D01*
X148500000Y-120175000D02*
X149100000Y-120175000D01*
X149100000Y-122975000D02*
X148500000Y-122975000D01*
X149800000Y-120875000D02*
X149800000Y-122275000D01*
X147800000Y-120875000D02*
G75*
G02*
X148500000Y-120175000I699999J1D01*
G01*
X148500000Y-122975000D02*
G75*
G02*
X147800000Y-122275000I0J700000D01*
G01*
X149100000Y-120175000D02*
G75*
G02*
X149800000Y-120875000I1J-699999D01*
G01*
X149800000Y-122275000D02*
G75*
G02*
X149100000Y-122975000I-700000J0D01*
G01*
%TO.C,J1*%
X144125000Y-121580000D02*
X144125000Y-118980000D01*
X146785000Y-118980000D02*
X144125000Y-118980000D01*
X146785000Y-121580000D02*
X144125000Y-121580000D01*
X146785000Y-121580000D02*
X146785000Y-118980000D01*
X146785000Y-122850000D02*
X146785000Y-124180000D01*
X146785000Y-124180000D02*
X145455000Y-124180000D01*
%TO.C,ENTR1*%
X193040000Y-130700000D02*
X193040000Y-135200000D01*
X195540000Y-136450000D02*
X197040000Y-136450000D01*
X197040000Y-129450000D02*
X195540000Y-129450000D01*
X199540000Y-135200000D02*
X199540000Y-130700000D01*
%TO.C,J6*%
X133670000Y-126850000D02*
X135000000Y-126850000D01*
X133670000Y-128180000D02*
X133670000Y-126850000D01*
X133670000Y-129450000D02*
X133670000Y-137130000D01*
X133670000Y-129450000D02*
X136330000Y-129450000D01*
X133670000Y-137130000D02*
X136330000Y-137130000D01*
X136330000Y-129450000D02*
X136330000Y-137130000D01*
D18*
%TO.C, *%
G36*
X136661542Y-139644324D02*
G01*
X136711936Y-139670819D01*
X136739986Y-139699954D01*
X136752013Y-139736895D01*
X136753896Y-139774330D01*
X136743798Y-139841649D01*
X136712769Y-139885206D01*
X136659706Y-139906162D01*
X136626498Y-139908534D01*
X136562007Y-139897274D01*
X136530949Y-139876685D01*
X136504014Y-139829852D01*
X136496974Y-139771789D01*
X136509220Y-139714889D01*
X136540142Y-139671550D01*
X136541059Y-139670819D01*
X136600142Y-139642121D01*
X136661542Y-139644324D01*
G37*
G36*
X136680415Y-139956011D02*
G01*
X136752370Y-139958600D01*
X136811757Y-139963346D01*
X136851187Y-139970249D01*
X136862184Y-139975418D01*
X136871387Y-140000460D01*
X136877552Y-140054725D01*
X136880758Y-140139170D01*
X136881294Y-140206327D01*
X136881294Y-140418127D01*
X136825557Y-140418127D01*
X136769820Y-140418127D01*
X136769820Y-140649036D01*
X136769820Y-140879945D01*
X136626498Y-140879945D01*
X136483175Y-140879945D01*
X136483175Y-140649036D01*
X136483175Y-140418127D01*
X136427438Y-140418127D01*
X136371701Y-140418127D01*
X136371701Y-140206327D01*
X136373130Y-140102894D01*
X136377470Y-140030227D01*
X136384800Y-139987370D01*
X136390811Y-139975418D01*
X136414741Y-139967223D01*
X136463057Y-139961185D01*
X136528369Y-139957303D01*
X136603285Y-139955578D01*
X136680415Y-139956011D01*
G37*
G36*
X134530212Y-139964258D02*
G01*
X134549931Y-139973015D01*
X134589257Y-139997266D01*
X134626487Y-140028455D01*
X134654771Y-140059558D01*
X134667256Y-140083549D01*
X134665043Y-140091052D01*
X134648880Y-140100409D01*
X134614462Y-140118509D01*
X134598147Y-140126834D01*
X134536505Y-140158034D01*
X134499341Y-140120871D01*
X134450514Y-140091146D01*
X134394504Y-140084995D01*
X134343837Y-140103767D01*
X134343440Y-140104056D01*
X134313401Y-140143847D01*
X134298047Y-140201865D01*
X134297384Y-140268068D01*
X134311418Y-140332419D01*
X134340153Y-140384877D01*
X134343280Y-140388472D01*
X134385835Y-140414061D01*
X134438746Y-140417083D01*
X134490624Y-140398244D01*
X134515566Y-140377781D01*
X134541061Y-140352646D01*
X134561820Y-140346013D01*
X134591608Y-140355999D01*
X134610355Y-140364806D01*
X134646599Y-140384746D01*
X134666463Y-140400841D01*
X134667751Y-140403930D01*
X134655932Y-140429484D01*
X134626108Y-140464438D01*
X134586731Y-140500459D01*
X134546253Y-140529213D01*
X134534151Y-140535660D01*
X134453264Y-140558321D01*
X134363191Y-140558190D01*
X134276485Y-140535753D01*
X134253071Y-140524779D01*
X134182528Y-140470452D01*
X134135364Y-140395276D01*
X134112511Y-140300999D01*
X134110385Y-140257411D01*
X134116297Y-140170066D01*
X134136311Y-140102583D01*
X134173846Y-140044821D01*
X134187040Y-140029990D01*
X134258661Y-139975536D01*
X134344573Y-139945668D01*
X134437511Y-139941529D01*
X134530212Y-139964258D01*
G37*
G36*
X135110666Y-139964951D02*
G01*
X135113528Y-139966082D01*
X135150100Y-139986534D01*
X135187834Y-140016298D01*
X135219687Y-140048373D01*
X135238613Y-140075760D01*
X135238799Y-140090587D01*
X135222324Y-140100243D01*
X135187687Y-140118535D01*
X135171438Y-140126834D01*
X135109796Y-140158034D01*
X135072633Y-140120871D01*
X135023805Y-140091146D01*
X134967795Y-140084995D01*
X134917129Y-140103767D01*
X134916731Y-140104056D01*
X134886692Y-140143847D01*
X134871339Y-140201865D01*
X134870676Y-140268068D01*
X134884709Y-140332419D01*
X134913445Y-140384877D01*
X134916571Y-140388472D01*
X134959127Y-140414061D01*
X135012037Y-140417083D01*
X135063915Y-140398244D01*
X135088858Y-140377781D01*
X135114352Y-140352646D01*
X135135111Y-140346013D01*
X135164899Y-140355999D01*
X135183646Y-140364806D01*
X135220044Y-140386566D01*
X135239840Y-140406966D01*
X135241043Y-140411464D01*
X135229013Y-140434377D01*
X135198562Y-140466956D01*
X135158150Y-140501783D01*
X135116235Y-140531439D01*
X135086952Y-140546592D01*
X135013138Y-140561098D01*
X134928943Y-140556914D01*
X134848852Y-140535253D01*
X134826362Y-140524779D01*
X134755820Y-140470452D01*
X134708655Y-140395276D01*
X134685802Y-140300999D01*
X134683676Y-140257411D01*
X134689588Y-140170066D01*
X134709602Y-140102583D01*
X134747138Y-140044821D01*
X134760332Y-140029990D01*
X134832220Y-139975370D01*
X134918943Y-139945533D01*
X135013944Y-139941664D01*
X135110666Y-139964951D01*
G37*
G36*
X140559055Y-139768288D02*
G01*
X140663448Y-139801447D01*
X140754520Y-139857537D01*
X140772723Y-139873557D01*
X140841750Y-139955143D01*
X140894956Y-140050553D01*
X140908699Y-140086627D01*
X140921789Y-140151811D01*
X140927180Y-140235517D01*
X140925080Y-140325417D01*
X140915697Y-140409180D01*
X140902322Y-140465825D01*
X140860659Y-140550277D01*
X140796479Y-140631438D01*
X140718451Y-140699541D01*
X140667145Y-140730810D01*
X140589475Y-140759018D01*
X140497487Y-140775728D01*
X140404004Y-140779764D01*
X140321846Y-140769953D01*
X140301812Y-140764297D01*
X140200186Y-140714552D01*
X140117178Y-140641462D01*
X140056730Y-140549448D01*
X140024766Y-140453575D01*
X140014491Y-140402202D01*
X140135918Y-140402202D01*
X140199125Y-140403346D01*
X140236458Y-140407578D01*
X140253834Y-140416102D01*
X140257344Y-140426880D01*
X140270382Y-140476661D01*
X140303091Y-140525125D01*
X140345863Y-140558422D01*
X140349809Y-140560173D01*
X140418237Y-140577555D01*
X140489842Y-140578195D01*
X140551953Y-140562644D01*
X140573478Y-140550474D01*
X140606501Y-140517474D01*
X140640546Y-140470092D01*
X140652588Y-140449044D01*
X140671211Y-140408739D01*
X140681619Y-140369865D01*
X140685406Y-140321859D01*
X140684169Y-140254155D01*
X140683705Y-140242947D01*
X140674600Y-140145745D01*
X140655341Y-140073823D01*
X140623599Y-140021590D01*
X140577046Y-139983452D01*
X140575205Y-139982354D01*
X140508877Y-139958745D01*
X140436411Y-139957556D01*
X140367069Y-139976613D01*
X140310111Y-140013739D01*
X140281501Y-140051336D01*
X140261058Y-140098376D01*
X140260954Y-140122549D01*
X140281382Y-140125655D01*
X140289193Y-140123519D01*
X140313503Y-140119334D01*
X140315575Y-140130012D01*
X140294537Y-140156941D01*
X140249518Y-140201511D01*
X140227497Y-140221937D01*
X140137549Y-140304432D01*
X140046161Y-140216611D01*
X140003470Y-140174836D01*
X139971435Y-140142062D01*
X139955570Y-140123973D01*
X139954773Y-140122361D01*
X139968156Y-140118761D01*
X139989528Y-140119725D01*
X140016633Y-140114942D01*
X140031697Y-140087844D01*
X140034690Y-140075744D01*
X140056608Y-140010156D01*
X140091368Y-139941663D01*
X140131327Y-139884338D01*
X140148302Y-139866538D01*
X140235964Y-139807185D01*
X140338311Y-139771078D01*
X140448342Y-139758139D01*
X140559055Y-139768288D01*
G37*
G36*
X134867932Y-139273312D02*
G01*
X135006218Y-139307043D01*
X135107731Y-139348182D01*
X135262067Y-139440661D01*
X135391240Y-139550363D01*
X135496666Y-139679183D01*
X135579765Y-139829013D01*
X135641955Y-140001750D01*
X135664426Y-140091669D01*
X135670641Y-140114362D01*
X135676519Y-140115842D01*
X135684110Y-140092766D01*
X135695458Y-140041788D01*
X135695724Y-140040527D01*
X135740446Y-139899897D01*
X135813297Y-139762192D01*
X135910714Y-139633487D01*
X135971126Y-139570963D01*
X136068036Y-139485693D01*
X136158739Y-139422540D01*
X136252840Y-139375972D01*
X136359944Y-139340458D01*
X136381024Y-139334895D01*
X136536397Y-139309170D01*
X136697705Y-139307928D01*
X136855947Y-139330430D01*
X137002125Y-139375938D01*
X137029948Y-139388118D01*
X137155428Y-139460445D01*
X137271623Y-139554747D01*
X137374254Y-139665598D01*
X137459042Y-139787572D01*
X137521708Y-139915244D01*
X137557974Y-140043187D01*
X137560759Y-140061232D01*
X137570312Y-140104959D01*
X137582086Y-140128453D01*
X137592447Y-140128497D01*
X137597766Y-140101872D01*
X137597908Y-140094162D01*
X137604951Y-140048033D01*
X137624098Y-139982392D01*
X137652375Y-139905781D01*
X137686807Y-139826743D01*
X137687626Y-139825065D01*
X137884846Y-139825065D01*
X137898691Y-139835628D01*
X137936181Y-139855683D01*
X137991607Y-139882358D01*
X138059261Y-139912784D01*
X138059803Y-139913020D01*
X138234469Y-139989166D01*
X138302364Y-139918416D01*
X138363440Y-139865198D01*
X138420425Y-139838622D01*
X138429977Y-139836515D01*
X138467059Y-139827706D01*
X138484357Y-139812940D01*
X138489407Y-139781988D01*
X138489695Y-139755477D01*
X138490979Y-139712154D01*
X138499495Y-139691903D01*
X138522243Y-139685949D01*
X138545432Y-139685588D01*
X138580335Y-139687293D01*
X138596401Y-139698342D01*
X138600939Y-139727638D01*
X138601168Y-139753481D01*
X138601168Y-139821373D01*
X138679805Y-139840053D01*
X138735543Y-139856834D01*
X138784996Y-139877524D01*
X138800398Y-139886223D01*
X138842354Y-139913714D01*
X138779698Y-139976370D01*
X138743252Y-140011651D01*
X138719403Y-140027621D01*
X138698298Y-140027558D01*
X138670085Y-140014743D01*
X138667859Y-140013592D01*
X138612377Y-139994118D01*
X138554925Y-139988569D01*
X138502840Y-139995500D01*
X138463458Y-140013470D01*
X138444113Y-140041034D01*
X138444170Y-140057601D01*
X138459002Y-140072537D01*
X138499825Y-140097371D01*
X138567426Y-140132500D01*
X138662598Y-140178326D01*
X138786129Y-140235247D01*
X138871889Y-140273863D01*
X138997910Y-140330528D01*
X139097555Y-140375051D01*
X139173914Y-140407384D01*
X139230075Y-140427478D01*
X139269128Y-140435283D01*
X139294162Y-140430752D01*
X139308266Y-140413835D01*
X139314529Y-140384484D01*
X139316039Y-140342649D01*
X139315916Y-140298631D01*
X139671292Y-140298631D01*
X139684122Y-140418560D01*
X139711130Y-140523953D01*
X139714379Y-140532656D01*
X139781880Y-140664767D01*
X139875285Y-140783431D01*
X139990072Y-140884621D01*
X140121720Y-140964312D01*
X140257344Y-141016172D01*
X140354064Y-141033139D01*
X140465825Y-141036524D01*
X140578958Y-141026536D01*
X140657764Y-141010043D01*
X140783077Y-140964225D01*
X140894899Y-140898072D01*
X141002279Y-140806173D01*
X141007936Y-140800563D01*
X141106359Y-140681875D01*
X141175606Y-140550960D01*
X141216114Y-140406748D01*
X141228377Y-140258879D01*
X141214893Y-140103135D01*
X141173668Y-139961945D01*
X141103542Y-139832516D01*
X141003354Y-139712056D01*
X140999320Y-139708000D01*
X140879640Y-139607048D01*
X140751243Y-139536082D01*
X140610934Y-139493777D01*
X140455521Y-139478812D01*
X140446137Y-139478755D01*
X140295229Y-139493814D01*
X140152415Y-139537601D01*
X140021291Y-139607315D01*
X139905450Y-139700153D01*
X139808486Y-139813314D01*
X139733993Y-139943996D01*
X139690818Y-140067572D01*
X139673302Y-140177268D01*
X139671292Y-140298631D01*
X139315916Y-140298631D01*
X139315887Y-140288281D01*
X139316006Y-140266842D01*
X139303572Y-140107638D01*
X139262411Y-139962087D01*
X139192212Y-139829458D01*
X139092667Y-139709020D01*
X139069787Y-139686872D01*
X138955221Y-139594821D01*
X138836267Y-139531199D01*
X138706615Y-139493543D01*
X138559954Y-139479390D01*
X138537469Y-139479144D01*
X138386387Y-139491399D01*
X138250112Y-139529870D01*
X138124491Y-139596316D01*
X138005368Y-139692495D01*
X137984084Y-139713314D01*
X137939705Y-139759156D01*
X137905590Y-139796834D01*
X137886877Y-139820560D01*
X137884846Y-139825065D01*
X137687626Y-139825065D01*
X137701465Y-139796703D01*
X137748000Y-139723572D01*
X137814960Y-139642820D01*
X137894690Y-139561856D01*
X137979533Y-139488091D01*
X138061834Y-139428934D01*
X138108530Y-139402696D01*
X138267345Y-139343005D01*
X138436191Y-139311163D01*
X138608884Y-139307606D01*
X138779237Y-139332773D01*
X138844532Y-139350726D01*
X138981323Y-139408818D01*
X139109945Y-139492380D01*
X139225979Y-139596552D01*
X139325002Y-139716478D01*
X139402595Y-139847297D01*
X139454337Y-139984151D01*
X139465671Y-140033365D01*
X139476828Y-140084222D01*
X139487456Y-140119683D01*
X139494547Y-140131481D01*
X139502349Y-140117245D01*
X139510857Y-140080955D01*
X139514973Y-140054620D01*
X139526826Y-140004570D01*
X139549506Y-139938281D01*
X139578807Y-139867596D01*
X139589494Y-139844742D01*
X139654535Y-139734875D01*
X139739943Y-139626957D01*
X139838229Y-139528687D01*
X139941903Y-139447765D01*
X140019501Y-139402696D01*
X140177389Y-139343366D01*
X140345610Y-139311428D01*
X140517454Y-139307367D01*
X140686210Y-139331667D01*
X140752160Y-139349693D01*
X140894724Y-139410369D01*
X141028119Y-139497834D01*
X141147644Y-139607343D01*
X141248596Y-139734151D01*
X141326273Y-139873513D01*
X141360515Y-139963610D01*
X141385032Y-140074670D01*
X141396833Y-140202675D01*
X141395917Y-140335639D01*
X141382280Y-140461578D01*
X141360684Y-140554149D01*
X141296725Y-140706646D01*
X141207907Y-140842737D01*
X141097741Y-140960488D01*
X140969739Y-141057965D01*
X140827413Y-141133232D01*
X140674275Y-141184356D01*
X140513837Y-141209404D01*
X140349611Y-141206439D01*
X140219061Y-141182907D01*
X140081263Y-141137816D01*
X139959693Y-141075227D01*
X139845306Y-140989900D01*
X139778283Y-140927525D01*
X139663774Y-140793690D01*
X139579371Y-140649540D01*
X139525001Y-140494948D01*
X139518377Y-140465901D01*
X139506784Y-140414942D01*
X139497518Y-140390385D01*
X139488682Y-140393415D01*
X139478380Y-140425217D01*
X139464715Y-140486977D01*
X139461772Y-140501265D01*
X139425940Y-140622041D01*
X139368038Y-140735219D01*
X139284714Y-140846503D01*
X139215520Y-140920339D01*
X139107096Y-141018097D01*
X139000511Y-141091319D01*
X138886616Y-141145359D01*
X138766849Y-141182907D01*
X138601307Y-141210490D01*
X138437862Y-141207111D01*
X138308089Y-141182907D01*
X138170291Y-141137816D01*
X138048721Y-141075227D01*
X137934334Y-140989900D01*
X137867311Y-140927525D01*
X137752803Y-140793690D01*
X137668399Y-140649540D01*
X137614029Y-140494948D01*
X137607405Y-140465901D01*
X137595812Y-140414942D01*
X137586546Y-140390385D01*
X137577710Y-140393415D01*
X137567408Y-140425217D01*
X137553743Y-140486977D01*
X137550801Y-140501265D01*
X137514968Y-140622041D01*
X137457067Y-140735219D01*
X137373742Y-140846503D01*
X137304548Y-140920339D01*
X137196124Y-141018097D01*
X137089540Y-141091319D01*
X136975644Y-141145359D01*
X136855878Y-141182907D01*
X136684440Y-141210644D01*
X136511035Y-141206618D01*
X136415379Y-141191009D01*
X136273897Y-141145845D01*
X136137707Y-141073771D01*
X136011299Y-140979236D01*
X135899160Y-140866692D01*
X135805781Y-140740589D01*
X135735648Y-140605376D01*
X135695659Y-140477435D01*
X135684618Y-140428745D01*
X135675842Y-140405508D01*
X135667183Y-140409098D01*
X135656491Y-140440891D01*
X135641618Y-140502260D01*
X135638991Y-140513675D01*
X135590679Y-140656051D01*
X135514533Y-140792177D01*
X135414503Y-140917853D01*
X135294541Y-141028877D01*
X135158595Y-141121046D01*
X135010617Y-141190160D01*
X134999095Y-141194314D01*
X134897916Y-141220720D01*
X134778996Y-141237166D01*
X134654254Y-141243064D01*
X134535608Y-141237826D01*
X134439047Y-141221914D01*
X134275992Y-141164814D01*
X134126061Y-141080695D01*
X133992436Y-140972798D01*
X133878297Y-140844360D01*
X133786823Y-140698622D01*
X133721195Y-140538821D01*
X133703028Y-140472264D01*
X133684696Y-140346351D01*
X133683366Y-140225258D01*
X133870426Y-140225258D01*
X133878442Y-140370919D01*
X133914016Y-140514585D01*
X133978182Y-140652584D01*
X134009035Y-140700976D01*
X134107423Y-140817580D01*
X134225129Y-140913094D01*
X134357431Y-140985708D01*
X134499608Y-141033613D01*
X134646941Y-141054999D01*
X134794709Y-141048058D01*
X134872688Y-141031983D01*
X135017413Y-140979119D01*
X135148739Y-140900019D01*
X135235367Y-140827661D01*
X135337612Y-140716820D01*
X135410521Y-140600890D01*
X135456417Y-140474490D01*
X135477621Y-140332239D01*
X135479725Y-140261442D01*
X135475230Y-140203143D01*
X135850508Y-140203143D01*
X135854220Y-140363762D01*
X135887084Y-140511577D01*
X135949135Y-140646661D01*
X136040409Y-140769091D01*
X136160940Y-140878942D01*
X136166437Y-140883126D01*
X136299860Y-140964843D01*
X136443120Y-141016850D01*
X136593186Y-141038572D01*
X136747029Y-141029437D01*
X136835820Y-141010043D01*
X136961133Y-140964225D01*
X137072956Y-140898072D01*
X137180336Y-140806173D01*
X137185993Y-140800563D01*
X137284415Y-140681875D01*
X137353663Y-140550960D01*
X137394171Y-140406748D01*
X137406433Y-140258879D01*
X137406065Y-140254623D01*
X137757156Y-140254623D01*
X137770883Y-140410054D01*
X137812730Y-140551347D01*
X137883692Y-140680915D01*
X137981296Y-140797686D01*
X138103991Y-140900475D01*
X138239387Y-140975465D01*
X138384288Y-141021660D01*
X138535498Y-141038063D01*
X138689823Y-141023678D01*
X138699914Y-141021648D01*
X138824931Y-140982114D01*
X138948235Y-140918492D01*
X139060960Y-140836593D01*
X139154238Y-140742226D01*
X139181461Y-140706159D01*
X139206260Y-140667870D01*
X139219823Y-140641894D01*
X139220619Y-140635709D01*
X139201158Y-140625477D01*
X139160822Y-140606882D01*
X139106508Y-140582864D01*
X139045112Y-140556362D01*
X138983531Y-140530317D01*
X138928664Y-140507668D01*
X138887406Y-140491355D01*
X138866654Y-140484317D01*
X138865484Y-140484345D01*
X138857496Y-140501313D01*
X138843066Y-140535983D01*
X138840256Y-140542994D01*
X138805314Y-140595037D01*
X138749174Y-140641458D01*
X138682409Y-140674392D01*
X138652663Y-140682530D01*
X138620548Y-140691434D01*
X138605627Y-140707762D01*
X138601358Y-140741672D01*
X138601168Y-140762500D01*
X138599873Y-140805735D01*
X138591298Y-140825912D01*
X138568412Y-140831819D01*
X138545432Y-140832171D01*
X138510836Y-140830549D01*
X138494696Y-140819823D01*
X138489975Y-140791199D01*
X138489695Y-140762545D01*
X138488224Y-140719078D01*
X138478316Y-140697337D01*
X138451730Y-140687196D01*
X138424535Y-140682499D01*
X138362487Y-140666577D01*
X138299306Y-140640862D01*
X138246912Y-140610846D01*
X138222294Y-140589338D01*
X138215964Y-140571300D01*
X138227867Y-140547346D01*
X138261389Y-140510960D01*
X138264713Y-140507701D01*
X138325567Y-140448278D01*
X138402041Y-140488939D01*
X138481466Y-140520081D01*
X138555244Y-140528107D01*
X138616676Y-140512548D01*
X138629475Y-140504810D01*
X138657599Y-140468907D01*
X138664033Y-140424131D01*
X138652680Y-140393381D01*
X138636696Y-140384141D01*
X138596047Y-140363998D01*
X138535173Y-140334980D01*
X138458515Y-140299113D01*
X138370515Y-140258423D01*
X138275613Y-140214939D01*
X138178252Y-140170687D01*
X138082871Y-140127694D01*
X137993913Y-140087986D01*
X137915818Y-140053592D01*
X137853027Y-140026537D01*
X137811026Y-140009256D01*
X137795841Y-140018211D01*
X137781487Y-140052737D01*
X137769342Y-140106560D01*
X137760783Y-140173405D01*
X137757189Y-140246998D01*
X137757156Y-140254623D01*
X137406065Y-140254623D01*
X137392959Y-140103174D01*
X137351758Y-139962023D01*
X137281661Y-139832618D01*
X137181500Y-139712149D01*
X137177284Y-139707908D01*
X137057302Y-139606882D01*
X136928454Y-139535888D01*
X136788364Y-139494035D01*
X136634659Y-139480430D01*
X136576686Y-139482207D01*
X136421394Y-139506400D01*
X136278958Y-139559586D01*
X136150545Y-139641130D01*
X136037324Y-139750396D01*
X136001650Y-139794873D01*
X135924275Y-139917856D01*
X135875322Y-140046047D01*
X135851601Y-140188060D01*
X135850508Y-140203143D01*
X135475230Y-140203143D01*
X135467403Y-140101627D01*
X135429776Y-139959229D01*
X135365159Y-139830294D01*
X135271866Y-139710871D01*
X135224584Y-139663407D01*
X135114700Y-139572648D01*
X135002844Y-139508330D01*
X134882661Y-139468221D01*
X134747800Y-139450084D01*
X134618430Y-139450201D01*
X134539634Y-139455336D01*
X134480326Y-139463757D01*
X134428143Y-139478369D01*
X134370727Y-139502081D01*
X134343148Y-139514944D01*
X134207529Y-139595494D01*
X134093264Y-139696072D01*
X134001388Y-139813009D01*
X133932933Y-139942632D01*
X133888934Y-140081272D01*
X133870426Y-140225258D01*
X133683366Y-140225258D01*
X133683167Y-140207122D01*
X133697724Y-140067858D01*
X133727649Y-139941841D01*
X133732485Y-139927536D01*
X133800878Y-139776663D01*
X133893825Y-139637824D01*
X134007112Y-139514927D01*
X134136525Y-139411880D01*
X134277851Y-139332592D01*
X134426876Y-139280971D01*
X134430522Y-139280102D01*
X134570509Y-139258880D01*
X134719504Y-139256937D01*
X134867932Y-139273312D01*
G37*
D19*
%TO.C,U8*%
X173790000Y-97450000D02*
X199790000Y-97450000D01*
X173790000Y-123450000D02*
X173790000Y-97450000D01*
X179790000Y-121450000D02*
X179790000Y-123450000D01*
X179790000Y-123450000D02*
X173790000Y-123450000D01*
X193790000Y-121450000D02*
X179790000Y-121450000D01*
X193790000Y-123450000D02*
X193790000Y-121450000D01*
X199790000Y-97450000D02*
X199790000Y-123450000D01*
X199790000Y-123450000D02*
X193790000Y-123450000D01*
D20*
X182890000Y-96950000D02*
G75*
G02*
X182690000Y-96950000I-100000J0D01*
G01*
X182690000Y-96950000D02*
G75*
G02*
X182890000Y-96950000I100000J0D01*
G01*
D16*
%TO.C,C1*%
X137695000Y-116218752D02*
X137695000Y-115696248D01*
X139165000Y-116218752D02*
X139165000Y-115696248D01*
D17*
%TO.C,U2*%
X134040000Y-84450000D02*
X134040000Y-87650000D01*
X134040000Y-90650000D02*
X134040000Y-97650000D01*
X137040000Y-84450000D02*
X134040000Y-84450000D01*
X137340000Y-84750000D02*
X137040000Y-84450000D01*
X137740000Y-84950000D02*
X137340000Y-84750000D01*
X138340000Y-85050000D02*
X137740000Y-84950000D01*
X138390000Y-98950000D02*
X135890000Y-98950000D01*
X139040000Y-85150000D02*
X138340000Y-85050000D01*
X148740000Y-85150000D02*
X139040000Y-85150000D01*
X148740000Y-85150000D02*
X148740000Y-87650000D01*
X148740000Y-97650000D02*
X148740000Y-90650000D01*
D16*
%TO.C,R4*%
X157597936Y-119590000D02*
X158052064Y-119590000D01*
X157597936Y-121060000D02*
X158052064Y-121060000D01*
%TO.C,RET1*%
X174040000Y-130700000D02*
X174040000Y-135200000D01*
X176540000Y-136450000D02*
X178040000Y-136450000D01*
X178040000Y-129450000D02*
X176540000Y-129450000D01*
X180540000Y-135200000D02*
X180540000Y-130700000D01*
%TO.C,J7*%
X140210000Y-121580000D02*
X140210000Y-118930000D01*
X142970000Y-118930000D02*
X140210000Y-118930000D01*
X142970000Y-121580000D02*
X140210000Y-121580000D01*
X142970000Y-121580000D02*
X142970000Y-118930000D01*
X142970000Y-122850000D02*
X142970000Y-124230000D01*
X142970000Y-124230000D02*
X141590000Y-124230000D01*
%TO.C,DOWN1*%
X183290000Y-136450000D02*
X183290000Y-137950000D01*
X184540000Y-140450000D02*
X189040000Y-140450000D01*
X189040000Y-133950000D02*
X184540000Y-133950000D01*
X190290000Y-137950000D02*
X190290000Y-136450000D01*
%TD*%
M02*
