%TF.GenerationSoftware,KiCad,Pcbnew,9.0.3*%
%TF.CreationDate,2025-08-12T06:34:47+02:00*%
%TF.ProjectId,sdiskII_stm32,73646973-6b49-4495-9f73-746d33322e6b,7*%
%TF.SameCoordinates,Original*%
%TF.FileFunction,Copper,L2,Bot*%
%TF.FilePolarity,Positive*%
%FSLAX46Y46*%
G04 Gerber Fmt 4.6, Leading zero omitted, Abs format (unit mm)*
G04 Created by KiCad (PCBNEW 9.0.3) date 2025-08-12 06:34:47*
%MOMM*%
%LPD*%
G01*
G04 APERTURE LIST*
G04 Aperture macros list*
%AMRoundRect*
0 Rectangle with rounded corners*
0 $1 Rounding radius*
0 $2 $3 $4 $5 $6 $7 $8 $9 X,Y pos of 4 corners*
0 Add a 4 corners polygon primitive as box body*
4,1,4,$2,$3,$4,$5,$6,$7,$8,$9,$2,$3,0*
0 Add four circle primitives for the rounded corners*
1,1,$1+$1,$2,$3*
1,1,$1+$1,$4,$5*
1,1,$1+$1,$6,$7*
1,1,$1+$1,$8,$9*
0 Add four rect primitives between the rounded corners*
20,1,$1+$1,$2,$3,$4,$5,0*
20,1,$1+$1,$4,$5,$6,$7,0*
20,1,$1+$1,$6,$7,$8,$9,0*
20,1,$1+$1,$8,$9,$2,$3,0*%
G04 Aperture macros list end*
%TA.AperFunction,ComponentPad*%
%ADD10RoundRect,0.250000X0.600000X-0.600000X0.600000X0.600000X-0.600000X0.600000X-0.600000X-0.600000X0*%
%TD*%
%TA.AperFunction,ComponentPad*%
%ADD11C,1.700000*%
%TD*%
%TA.AperFunction,ComponentPad*%
%ADD12R,1.600000X1.600000*%
%TD*%
%TA.AperFunction,ComponentPad*%
%ADD13O,1.600000X1.600000*%
%TD*%
%TA.AperFunction,ComponentPad*%
%ADD14R,1.700000X1.700000*%
%TD*%
%TA.AperFunction,ComponentPad*%
%ADD15O,1.700000X1.700000*%
%TD*%
%TA.AperFunction,ComponentPad*%
%ADD16C,2.000000*%
%TD*%
%TA.AperFunction,ComponentPad*%
%ADD17C,1.824000*%
%TD*%
%TA.AperFunction,ComponentPad*%
%ADD18C,1.800000*%
%TD*%
%TA.AperFunction,ComponentPad*%
%ADD19R,1.524000X1.524000*%
%TD*%
%TA.AperFunction,ComponentPad*%
%ADD20R,1.508000X1.508000*%
%TD*%
%TA.AperFunction,ComponentPad*%
%ADD21C,1.508000*%
%TD*%
%TA.AperFunction,ComponentPad*%
%ADD22C,3.000000*%
%TD*%
%TA.AperFunction,SMDPad,CuDef*%
%ADD23RoundRect,0.250000X0.350000X0.450000X-0.350000X0.450000X-0.350000X-0.450000X0.350000X-0.450000X0*%
%TD*%
%TA.AperFunction,ViaPad*%
%ADD24C,0.600000*%
%TD*%
%TA.AperFunction,ViaPad*%
%ADD25C,1.000000*%
%TD*%
%TA.AperFunction,Conductor*%
%ADD26C,0.250000*%
%TD*%
%TA.AperFunction,Conductor*%
%ADD27C,0.500000*%
%TD*%
%TA.AperFunction,Conductor*%
%ADD28C,0.300000*%
%TD*%
G04 APERTURE END LIST*
D10*
%TO.P,J2,1,Pin_1*%
%TO.N,GND*%
X178290000Y-92490000D03*
D11*
%TO.P,J2,2,Pin_2*%
%TO.N,STEP0*%
X178290000Y-89950000D03*
%TO.P,J2,3,Pin_3*%
%TO.N,GND*%
X180830000Y-92490000D03*
%TO.P,J2,4,Pin_4*%
%TO.N,STEP1*%
X180830000Y-89950000D03*
%TO.P,J2,5,Pin_5*%
%TO.N,GND*%
X183370000Y-92490000D03*
%TO.P,J2,6,Pin_6*%
%TO.N,STEP2*%
X183370000Y-89950000D03*
%TO.P,J2,7,Pin_7*%
%TO.N,3.5DSK_D*%
X185910000Y-92490000D03*
%TO.P,J2,8,Pin_8*%
%TO.N,STEP3*%
X185910000Y-89950000D03*
%TO.P,J2,9,Pin_9*%
%TO.N,unconnected-(J2-Pin_9-Pad9)*%
X188450000Y-92490000D03*
%TO.P,J2,10,Pin_10*%
%TO.N,WR_REQ*%
X188450000Y-89950000D03*
%TO.P,J2,11,Pin_11*%
%TO.N,VCC*%
X190990000Y-92490000D03*
%TO.P,J2,12,Pin_12*%
%TO.N,SELECT_D*%
X190990000Y-89950000D03*
%TO.P,J2,13,Pin_13*%
%TO.N,unconnected-(J2-Pin_13-Pad13)*%
X193530000Y-92490000D03*
%TO.P,J2,14,Pin_14*%
%TO.N,DEVICE_ENABLE*%
X193530000Y-89950000D03*
%TO.P,J2,15,Pin_15*%
%TO.N,unconnected-(J2-Pin_15-Pad15)*%
X196070000Y-92490000D03*
%TO.P,J2,16,Pin_16*%
%TO.N,RD_DATA*%
X196070000Y-89950000D03*
%TO.P,J2,17,Pin_17*%
%TO.N,unconnected-(J2-Pin_17-Pad17)*%
X198610000Y-92490000D03*
%TO.P,J2,18,Pin_18*%
%TO.N,WR_DATA*%
X198610000Y-89950000D03*
%TO.P,J2,19,Pin_19*%
%TO.N,unconnected-(J2-Pin_19-Pad19)*%
X201150000Y-92490000D03*
%TO.P,J2,20,Pin_20*%
%TO.N,WR_PROTECT_D*%
X201150000Y-89950000D03*
%TD*%
D12*
%TO.P,D1,1,K*%
%TO.N,PWR_RD*%
X204710000Y-97905000D03*
D13*
%TO.P,D1,2,A*%
%TO.N,Net-(D1-A)*%
X204710000Y-105525000D03*
%TD*%
D14*
%TO.P,J5,1,Pin_1*%
%TO.N,TIM2_CH3*%
X134880000Y-116370000D03*
D11*
%TO.P,J5,2,Pin_2*%
%TO.N,TIM3_CH4*%
X134880000Y-118910000D03*
%TO.P,J5,3,Pin_3*%
%TO.N,DEBUG*%
X134880000Y-121450000D03*
%TO.P,J5,4,Pin_4*%
%TO.N,GND*%
X134880000Y-123990000D03*
%TD*%
D14*
%TO.P,J3,1,Pin_1*%
%TO.N,RD_DATA*%
X204690000Y-116170000D03*
D15*
%TO.P,J3,2,Pin_2*%
%TO.N,WR_REQ*%
X204690000Y-118710000D03*
%TO.P,J3,3,Pin_3*%
%TO.N,DEVICE_ENABLE*%
X204690000Y-121250000D03*
%TO.P,J3,4,Pin_4*%
%TO.N,WR_PROTECT_D*%
X204690000Y-123790000D03*
%TO.P,J3,5,Pin_5*%
%TO.N,WR_DATA*%
X204690000Y-126330000D03*
%TO.P,J3,6,Pin_6*%
%TO.N,GND*%
X204690000Y-128870000D03*
%TD*%
D16*
%TO.P,UP1,1,1*%
%TO.N,+3.3V*%
X190040000Y-130950000D03*
X183540000Y-130950000D03*
%TO.P,UP1,2,2*%
%TO.N,BTN_UP*%
X190040000Y-126450000D03*
X183540000Y-126450000D03*
%TD*%
D17*
%TO.P,BZ1,1,+*%
%TO.N,TIM1_CH2N*%
X140500000Y-131750000D03*
D18*
%TO.P,BZ1,2,-*%
%TO.N,GND*%
X147000000Y-131750000D03*
%TD*%
D14*
%TO.P,J4,1,Pin_1*%
%TO.N,USART1_TX*%
X134910000Y-104975000D03*
D15*
%TO.P,J4,2,Pin_2*%
%TO.N,USART1_RX*%
X134910000Y-107515000D03*
%TO.P,J4,3,Pin_3*%
%TO.N,GND*%
X134910000Y-110055000D03*
%TD*%
D14*
%TO.P,\u03BCC1,1,B12*%
%TO.N,BTN_RET*%
X154050000Y-88440000D03*
D11*
%TO.P,\u03BCC1,2,B13*%
%TO.N,SD_EJECT*%
X154050000Y-90980000D03*
%TO.P,\u03BCC1,3,B14*%
%TO.N,TIM1_CH2N*%
X154050000Y-93520000D03*
%TO.P,\u03BCC1,4,B15*%
%TO.N,SDIO_CK*%
X154050000Y-96060000D03*
%TO.P,\u03BCC1,5,A8*%
%TO.N,SDIO_D1*%
X154050000Y-98600000D03*
%TO.P,\u03BCC1,6,A9*%
%TO.N,SDIO_D2*%
X154050000Y-101140000D03*
%TO.P,\u03BCC1,7,A10*%
%TO.N,DEBUG*%
X154050000Y-103680000D03*
%TO.P,\u03BCC1,8,A11*%
%TO.N,3.5DSK*%
X154050000Y-106220000D03*
%TO.P,\u03BCC1,9,A12*%
%TO.N,unconnected-(\u03BCC1-A12-Pad9)*%
X154050000Y-108760000D03*
%TO.P,\u03BCC1,10,A15*%
%TO.N,USART1_TX*%
X154050000Y-111300000D03*
%TO.P,\u03BCC1,11,B3*%
%TO.N,USART1_RX*%
X154050000Y-113840000D03*
%TO.P,\u03BCC1,12,B4*%
%TO.N,SDIO_DO*%
X154050000Y-116380000D03*
%TO.P,\u03BCC1,13,B5*%
%TO.N,SDIO_D3*%
X154050000Y-118920000D03*
%TO.P,\u03BCC1,14,B6*%
%TO.N,I2C_SCL*%
X154050000Y-121460000D03*
%TO.P,\u03BCC1,15,B7*%
%TO.N,I2C_SDA*%
X154050000Y-124000000D03*
%TO.P,\u03BCC1,16,B8*%
%TO.N,SELECT*%
X154050000Y-126540000D03*
%TO.P,\u03BCC1,17,B9*%
%TO.N,WR_REQ*%
X154050000Y-129080000D03*
%TO.P,\u03BCC1,18,5Vi*%
%TO.N,PWR_5VIN*%
X154050000Y-131620000D03*
%TO.P,\u03BCC1,19,GNDi*%
%TO.N,GND*%
X154050000Y-134160000D03*
%TO.P,\u03BCC1,20,3.3i*%
%TO.N,+3.3V*%
X154050000Y-136700000D03*
%TO.P,\u03BCC1,21,VB*%
%TO.N,unconnected-(\u03BCC1-VB-Pad21)*%
X169290000Y-136700000D03*
%TO.P,\u03BCC1,22,C13*%
%TO.N,BTN_DOWN*%
X169290000Y-134160000D03*
%TO.P,\u03BCC1,23,C14*%
%TO.N,BTN_UP*%
X169290000Y-131620000D03*
%TO.P,\u03BCC1,24,C15*%
%TO.N,BTN_ENTR*%
X169290000Y-129080000D03*
%TO.P,\u03BCC1,25,R*%
%TO.N,unconnected-(\u03BCC1-R-Pad25)*%
X169290000Y-126540000D03*
%TO.P,\u03BCC1,26,A0*%
%TO.N,STEP0*%
X169290000Y-124000000D03*
%TO.P,\u03BCC1,27,A1*%
%TO.N,STEP1*%
X169290000Y-121460000D03*
%TO.P,\u03BCC1,28,A2*%
%TO.N,STEP2*%
X169290000Y-118920000D03*
%TO.P,\u03BCC1,29,A3*%
%TO.N,STEP3*%
X169290000Y-116380000D03*
%TO.P,\u03BCC1,30,A4*%
%TO.N,DEVICE_ENABLE*%
X169290000Y-113840000D03*
%TO.P,\u03BCC1,31,A5*%
%TO.N,WR_DATA*%
X169290000Y-111300000D03*
%TO.P,\u03BCC1,32,A6*%
%TO.N,SDIO_CMD*%
X169290000Y-108760000D03*
%TO.P,\u03BCC1,33,A7*%
%TO.N,WR_DATA*%
X169290000Y-106220000D03*
%TO.P,\u03BCC1,34,B0*%
%TO.N,RD_DATA*%
X169290000Y-103680000D03*
%TO.P,\u03BCC1,35,B1*%
%TO.N,TIM3_CH4*%
X169290000Y-101140000D03*
%TO.P,\u03BCC1,36,B2*%
%TO.N,WR_PROTECT*%
X169290000Y-98600000D03*
%TO.P,\u03BCC1,37,B10*%
%TO.N,TIM2_CH3*%
X169290000Y-96060000D03*
%TO.P,\u03BCC1,38,3.3ii*%
%TO.N,unconnected-(\u03BCC1-3.3ii-Pad38)*%
X169290000Y-93520000D03*
%TO.P,\u03BCC1,39,GNDii*%
%TO.N,GND*%
X169290000Y-90980000D03*
D14*
%TO.P,\u03BCC1,40,5Vii*%
%TO.N,unconnected-(\u03BCC1-5Vii-Pad40)*%
X169290000Y-88440000D03*
D19*
%TO.P,\u03BCC1,41,3.3V*%
%TO.N,+3.3V*%
X157860000Y-132890000D03*
D11*
%TO.P,\u03BCC1,42,SDIO*%
%TO.N,SDIO*%
X160400000Y-132890000D03*
%TO.P,\u03BCC1,43,SCK*%
%TO.N,SCK*%
X162940000Y-132890000D03*
%TO.P,\u03BCC1,44,GND*%
%TO.N,GND*%
X165480000Y-132890000D03*
%TD*%
D14*
%TO.P,J1,1,Pin_1*%
%TO.N,PWR_5VIN*%
X148390000Y-122700000D03*
D15*
%TO.P,J1,2,Pin_2*%
%TO.N,PWR_RD*%
X148390000Y-120160000D03*
%TD*%
D16*
%TO.P,ENTR1,1,1*%
%TO.N,+3.3V*%
X198540000Y-129700000D03*
X198540000Y-136200000D03*
%TO.P,ENTR1,2,2*%
%TO.N,BTN_ENTR*%
X194040000Y-129700000D03*
X194040000Y-136200000D03*
%TD*%
D14*
%TO.P,J6,1,Pin_1*%
%TO.N,+3.3V*%
X135000000Y-128180000D03*
D15*
%TO.P,J6,2,Pin_2*%
%TO.N,SDIO*%
X135000000Y-130720000D03*
%TO.P,J6,3,Pin_3*%
%TO.N,SCK*%
X135000000Y-133260000D03*
%TO.P,J6,4,Pin_4*%
%TO.N,GND*%
X135000000Y-135800000D03*
%TD*%
D20*
%TO.P,U8,1,GND*%
%TO.N,GND*%
X182980000Y-98950000D03*
D21*
%TO.P,U8,2,VCC_IN*%
%TO.N,+3.3V*%
X185520000Y-98950000D03*
%TO.P,U8,3,SCL*%
%TO.N,I2C_SCL*%
X188060000Y-98950000D03*
%TO.P,U8,4,SDA*%
%TO.N,I2C_SDA*%
X190600000Y-98950000D03*
D22*
%TO.P,U8,S1*%
%TO.N,N/C*%
X175790000Y-99450000D03*
%TO.P,U8,S2*%
X197790000Y-99450000D03*
%TO.P,U8,S3*%
X197790000Y-121450000D03*
%TO.P,U8,S4*%
X175790000Y-121450000D03*
%TD*%
D16*
%TO.P,RET1,1,1*%
%TO.N,+3.3V*%
X179540000Y-129700000D03*
X179540000Y-136200000D03*
%TO.P,RET1,2,2*%
%TO.N,BTN_RET*%
X175040000Y-129700000D03*
X175040000Y-136200000D03*
%TD*%
D14*
%TO.P,J7,1,Pin_1*%
%TO.N,+3.3V*%
X138710000Y-122670000D03*
D11*
%TO.P,J7,2,Pin_2*%
%TO.N,Net-(J7-Pin_2)*%
X138710000Y-120130000D03*
%TD*%
D16*
%TO.P,DOWN1,1,1*%
%TO.N,+3.3V*%
X183540000Y-134950000D03*
X190040000Y-134950000D03*
%TO.P,DOWN1,2,2*%
%TO.N,BTN_DOWN*%
X183540000Y-139450000D03*
X190040000Y-139450000D03*
%TD*%
D23*
%TO.P,R5,1*%
%TO.N,DEVICE_ENABLE*%
X167000000Y-111690000D03*
%TO.P,R5,2*%
%TO.N,PWR_RD*%
X165000000Y-111690000D03*
%TD*%
%TO.P,R3,1*%
%TO.N,SELECT_D*%
X158850000Y-126550000D03*
%TO.P,R3,2*%
%TO.N,SELECT*%
X156850000Y-126550000D03*
%TD*%
%TO.P,R1,1*%
%TO.N,WR_PROTECT_D*%
X183160000Y-95360000D03*
%TO.P,R1,2*%
%TO.N,WR_PROTECT*%
X181160000Y-95360000D03*
%TD*%
%TO.P,R2,1*%
%TO.N,3.5DSK_D*%
X158840000Y-106070000D03*
%TO.P,R2,2*%
%TO.N,3.5DSK*%
X156840000Y-106070000D03*
%TD*%
D24*
%TO.N,GND*%
X136090000Y-97200000D03*
D25*
X144640000Y-102820000D03*
X137540000Y-92250000D03*
X149170000Y-101600000D03*
D24*
%TO.N,WR_REQ*%
X157190000Y-96750000D03*
%TO.N,RD_DATA*%
X203224000Y-89850000D03*
%TO.N,SDIO_DO*%
X150110000Y-113320000D03*
%TO.N,SD_EJECT*%
X149760000Y-97285000D03*
%TO.N,SDIO_CK*%
X149760000Y-96060000D03*
%TO.N,SDIO_D1*%
X148454766Y-103445000D03*
%TO.N,SDIO_CMD*%
X141740000Y-105170000D03*
X166040000Y-108760000D03*
%TO.N,SDIO_D2*%
X139500000Y-103750000D03*
%TO.N,SDIO_D3*%
X149260060Y-113330365D03*
%TO.N,DEBUG*%
X132750000Y-99900000D03*
X149390000Y-86500000D03*
X132750000Y-96500000D03*
%TO.N,TIM3_CH4*%
X164940000Y-125250000D03*
%TO.N,TIM1_CH2N*%
X149760000Y-93520000D03*
%TO.N,TIM2_CH3*%
X163490000Y-123900000D03*
%TO.N,PWR_RD*%
X151500000Y-113320000D03*
X159825000Y-111680000D03*
%TO.N,SELECT_D*%
X160500000Y-125925000D03*
%TO.N,WR_PROTECT_D*%
X201041000Y-95370000D03*
X195790000Y-95360000D03*
%TD*%
D26*
%TO.N,WR_REQ*%
X206740000Y-116660000D02*
X206740000Y-114470000D01*
X206740000Y-114470000D02*
X206750000Y-114460000D01*
%TO.N,RD_DATA*%
X203224000Y-89850000D02*
X203224000Y-107594000D01*
X203224000Y-107594000D02*
X204690000Y-109060000D01*
X204690000Y-109060000D02*
X204690000Y-116170000D01*
%TO.N,DEVICE_ENABLE*%
X202040000Y-88150000D02*
X202520000Y-88630000D01*
X202520000Y-88630000D02*
X202520000Y-119100000D01*
X202520000Y-119100000D02*
X204680000Y-121260000D01*
%TO.N,WR_DATA*%
X204680000Y-126340000D02*
X200540000Y-122200000D01*
X200540000Y-122200000D02*
X200540000Y-99440000D01*
X200540000Y-99440000D02*
X198300000Y-97200000D01*
%TO.N,WR_PROTECT_D*%
X204680000Y-123800000D02*
X201041000Y-120161000D01*
X201041000Y-120161000D02*
X201041000Y-95370000D01*
D27*
%TO.N,GND*%
X132715000Y-111475000D02*
X134135000Y-110055000D01*
X132990000Y-103300000D02*
X132990000Y-109000000D01*
X136090000Y-93700000D02*
X137540000Y-92250000D01*
X178290000Y-92490000D02*
X180830000Y-92490000D01*
X134045000Y-110055000D02*
X135240000Y-110055000D01*
X170800000Y-92490000D02*
X169290000Y-90980000D01*
X144640000Y-102820000D02*
X144670000Y-102850000D01*
X135440000Y-102800000D02*
X133490000Y-102800000D01*
X133090000Y-137900000D02*
X132715000Y-137525000D01*
X136090000Y-97200000D02*
X136090000Y-102150000D01*
X143940000Y-102800000D02*
X135440000Y-102800000D01*
X136090000Y-97200000D02*
X136090000Y-93700000D01*
X154050000Y-134160000D02*
X149610000Y-138600000D01*
X132715000Y-126750000D02*
X132715000Y-111475000D01*
X144640000Y-102820000D02*
X143960000Y-102820000D01*
X132990000Y-109000000D02*
X134045000Y-110055000D01*
X144670000Y-102850000D02*
X147920000Y-102850000D01*
X178290000Y-92490000D02*
X170800000Y-92490000D01*
X132715000Y-126405000D02*
X132715000Y-126750000D01*
X133090000Y-137900000D02*
X135190000Y-135800000D01*
X180830000Y-92490000D02*
X183370000Y-92490000D01*
X132715000Y-137525000D02*
X132715000Y-126750000D01*
X134135000Y-110055000D02*
X135240000Y-110055000D01*
X133490000Y-102800000D02*
X132990000Y-103300000D01*
X136090000Y-102150000D02*
X135440000Y-102800000D01*
X143960000Y-102820000D02*
X143940000Y-102800000D01*
X135000000Y-124120000D02*
X132715000Y-126405000D01*
X149610000Y-138600000D02*
X133790000Y-138600000D01*
X133790000Y-138600000D02*
X133090000Y-137900000D01*
X147920000Y-102850000D02*
X149170000Y-101600000D01*
D26*
%TO.N,3.5DSK*%
X156670000Y-106090000D02*
X154180000Y-106090000D01*
X154180000Y-106090000D02*
X154050000Y-106220000D01*
%TO.N,WR_REQ*%
X188450000Y-89950000D02*
X191450000Y-86950000D01*
X166990000Y-86950000D02*
X185450000Y-86950000D01*
X185450000Y-86950000D02*
X188450000Y-89950000D01*
X206740000Y-116660000D02*
X204680000Y-118720000D01*
X206750000Y-92152894D02*
X206750000Y-114460000D01*
X157190000Y-96750000D02*
X166990000Y-86950000D01*
X201547106Y-86950000D02*
X206750000Y-92152894D01*
X191450000Y-86950000D02*
X201547106Y-86950000D01*
%TO.N,WR_PROTECT*%
X170920000Y-98600000D02*
X169290000Y-98600000D01*
X174150000Y-95360000D02*
X174155000Y-95365000D01*
X174155000Y-95365000D02*
X170920000Y-98600000D01*
X181160000Y-95360000D02*
X174150000Y-95360000D01*
%TO.N,BTN_RET*%
X131990000Y-137950000D02*
X133440000Y-139400000D01*
X171840000Y-139400000D02*
X175040000Y-136200000D01*
X133440000Y-139400000D02*
X171840000Y-139400000D01*
X153110000Y-87500000D02*
X133100000Y-87500000D01*
X133100000Y-87500000D02*
X131990000Y-88610000D01*
X131990000Y-88610000D02*
X131990000Y-137950000D01*
X154050000Y-88440000D02*
X153110000Y-87500000D01*
%TO.N,WR_DATA*%
X199835000Y-91175000D02*
X198610000Y-89950000D01*
X198300000Y-97200000D02*
X199835000Y-95665000D01*
X176520000Y-106220000D02*
X171440000Y-111300000D01*
X170040000Y-106200000D02*
X169514000Y-106726000D01*
X171440000Y-111300000D02*
X169290000Y-111300000D01*
X176520000Y-106220000D02*
X177540000Y-105200000D01*
X177540000Y-102050000D02*
X182390000Y-97200000D01*
X177540000Y-105200000D02*
X177540000Y-102050000D01*
X199835000Y-95665000D02*
X199835000Y-91175000D01*
X182390000Y-97200000D02*
X198300000Y-97200000D01*
X169985592Y-106200000D02*
X169647796Y-105862204D01*
X170040000Y-106200000D02*
X169985592Y-106200000D01*
X176520000Y-106220000D02*
X169290000Y-106220000D01*
%TO.N,RD_DATA*%
X171740000Y-99850000D02*
X171740000Y-101230000D01*
X174960000Y-96630000D02*
X171740000Y-99850000D01*
X197295000Y-95485000D02*
X196150000Y-96630000D01*
X196070000Y-89950000D02*
X197295000Y-91175000D01*
X197295000Y-91175000D02*
X197295000Y-95485000D01*
X171740000Y-101230000D02*
X169290000Y-103680000D01*
X196150000Y-96630000D02*
X174960000Y-96630000D01*
X168594408Y-103700000D02*
X168932204Y-104037796D01*
%TO.N,SDIO_DO*%
X150110000Y-113810000D02*
X152680000Y-116380000D01*
X150110000Y-113320000D02*
X150110000Y-113810000D01*
X152680000Y-116380000D02*
X154050000Y-116380000D01*
%TO.N,SD_EJECT*%
X155840000Y-92770000D02*
X154050000Y-90980000D01*
X155305000Y-97285000D02*
X155840000Y-96750000D01*
X155840000Y-96750000D02*
X155840000Y-92770000D01*
X149600000Y-97285000D02*
X155305000Y-97285000D01*
%TO.N,SDIO_CK*%
X149650000Y-96060000D02*
X154050000Y-96060000D01*
%TO.N,I2C_SDA*%
X168782588Y-117695000D02*
X168777588Y-117700000D01*
X169802412Y-117700000D02*
X169797412Y-117695000D01*
X168777588Y-117700000D02*
X161090000Y-117700000D01*
X169797412Y-117695000D02*
X168782588Y-117695000D01*
X161090000Y-117700000D02*
X154790000Y-124000000D01*
X176090000Y-117700000D02*
X169802412Y-117700000D01*
X190600000Y-98950000D02*
X190600000Y-103190000D01*
X190600000Y-103190000D02*
X176090000Y-117700000D01*
X154790000Y-124000000D02*
X154050000Y-124000000D01*
%TO.N,USART1_RX*%
X139855000Y-112130000D02*
X152340000Y-112130000D01*
X135240000Y-107515000D02*
X139855000Y-112130000D01*
X152340000Y-112130000D02*
X154050000Y-113840000D01*
X134910000Y-107515000D02*
X135240000Y-107515000D01*
%TO.N,I2C_SCL*%
X188060000Y-98950000D02*
X188060000Y-102480000D01*
X160360000Y-115150000D02*
X154050000Y-121460000D01*
X188060000Y-102480000D02*
X175390000Y-115150000D01*
X175390000Y-115150000D02*
X160360000Y-115150000D01*
%TO.N,USART1_TX*%
X141405000Y-111140000D02*
X153890000Y-111140000D01*
X134910000Y-104975000D02*
X135240000Y-104975000D01*
X135240000Y-104975000D02*
X141405000Y-111140000D01*
X153890000Y-111140000D02*
X154050000Y-111300000D01*
%TO.N,SDIO_D1*%
X149580000Y-103460000D02*
X154050000Y-98990000D01*
X148469766Y-103460000D02*
X149580000Y-103460000D01*
X148454766Y-103445000D02*
X148469766Y-103460000D01*
%TO.N,SDIO_CMD*%
X141740000Y-105170000D02*
X146555000Y-109985000D01*
X146555000Y-109985000D02*
X164815000Y-109985000D01*
X164815000Y-109985000D02*
X166040000Y-108760000D01*
%TO.N,SDIO_D2*%
X151020000Y-104120000D02*
X154000000Y-101140000D01*
X154000000Y-101140000D02*
X154050000Y-101140000D01*
X139870000Y-104120000D02*
X151020000Y-104120000D01*
X139500000Y-103750000D02*
X139870000Y-104120000D01*
%TO.N,SDIO_D3*%
X149260060Y-113330365D02*
X149260000Y-113330425D01*
X149260000Y-115120000D02*
X153060000Y-118920000D01*
X153060000Y-118920000D02*
X154050000Y-118920000D01*
X149260000Y-113330425D02*
X149260000Y-115120000D01*
%TO.N,DEBUG*%
X154050000Y-103680000D02*
X156515000Y-101215000D01*
X156515000Y-101215000D02*
X156515000Y-88488883D01*
X132750000Y-99900000D02*
X132750000Y-96500000D01*
X154526117Y-86500000D02*
X149390000Y-86500000D01*
X156515000Y-88488883D02*
X154526117Y-86500000D01*
%TO.N,TIM3_CH4*%
X136510000Y-125070000D02*
X136510000Y-120480000D01*
X136510000Y-120480000D02*
X135240000Y-119210000D01*
X139240000Y-127800000D02*
X136510000Y-125070000D01*
X162390000Y-127800000D02*
X139240000Y-127800000D01*
X164940000Y-125250000D02*
X162390000Y-127800000D01*
%TO.N,SELECT*%
X156850000Y-126550000D02*
X154060000Y-126550000D01*
X154060000Y-126550000D02*
X154050000Y-126540000D01*
%TO.N,DEVICE_ENABLE*%
X202040000Y-88150000D02*
X202380000Y-88490000D01*
X195330000Y-88150000D02*
X202040000Y-88150000D01*
X191290000Y-93950000D02*
X172000000Y-93950000D01*
X171200000Y-94750000D02*
X168340000Y-94750000D01*
X192290000Y-92950000D02*
X191290000Y-93950000D01*
X168340000Y-94750000D02*
X167020000Y-96070000D01*
X192290000Y-91190000D02*
X192290000Y-92950000D01*
X167020000Y-111570000D02*
X169290000Y-113840000D01*
X172000000Y-93950000D02*
X171200000Y-94750000D01*
X167020000Y-96070000D02*
X167020000Y-111570000D01*
X193530000Y-89950000D02*
X195330000Y-88150000D01*
X193530000Y-89950000D02*
X192290000Y-91190000D01*
%TO.N,TIM1_CH2N*%
X154050000Y-93520000D02*
X149760000Y-93520000D01*
%TO.N,TIM2_CH3*%
X163490000Y-123900000D02*
X162140000Y-125250000D01*
X146680000Y-125250000D02*
X138100000Y-116670000D01*
X138100000Y-116670000D02*
X135240000Y-116670000D01*
X162140000Y-125250000D02*
X146680000Y-125250000D01*
%TO.N,SCK*%
X156622412Y-135000000D02*
X154557412Y-132935000D01*
X135515000Y-132935000D02*
X135190000Y-133260000D01*
X148750000Y-134000000D02*
X138750000Y-134000000D01*
X138010000Y-133260000D02*
X135240000Y-133260000D01*
X162940000Y-132890000D02*
X160830000Y-135000000D01*
X149815000Y-132935000D02*
X148750000Y-134000000D01*
X160830000Y-135000000D02*
X156622412Y-135000000D01*
X154557412Y-132935000D02*
X149815000Y-132935000D01*
X138750000Y-134000000D02*
X138010000Y-133260000D01*
%TO.N,SDIO*%
X137780000Y-130720000D02*
X135240000Y-130720000D01*
X149250000Y-129750000D02*
X138750000Y-129750000D01*
X149895000Y-130395000D02*
X149250000Y-129750000D01*
X138750000Y-129750000D02*
X137780000Y-130720000D01*
X160400000Y-132890000D02*
X157905000Y-130395000D01*
X135655000Y-130305000D02*
X135240000Y-130720000D01*
X157905000Y-130395000D02*
X149895000Y-130395000D01*
X135605000Y-130305000D02*
X135190000Y-130720000D01*
D27*
%TO.N,PWR_RD*%
X164990000Y-111680000D02*
X165000000Y-111690000D01*
D28*
X151500000Y-113320000D02*
X153290000Y-115110000D01*
X159540000Y-111680000D02*
X159825000Y-111680000D01*
X159210000Y-112010000D02*
X159540000Y-111680000D01*
X159200000Y-112010000D02*
X159210000Y-112010000D01*
X153290000Y-115110000D02*
X156100000Y-115110000D01*
X156100000Y-115110000D02*
X159200000Y-112010000D01*
D27*
X159825000Y-111680000D02*
X164990000Y-111680000D01*
D26*
%TO.N,SELECT_D*%
X159875000Y-126550000D02*
X158850000Y-126550000D01*
X160500000Y-125925000D02*
X159875000Y-126550000D01*
%TO.N,3.5DSK_D*%
X172900000Y-88300000D02*
X171446000Y-89754000D01*
X184685000Y-91265000D02*
X184685000Y-89532588D01*
X184685000Y-89532588D02*
X183452412Y-88300000D01*
X183452412Y-88300000D02*
X172900000Y-88300000D01*
X185910000Y-92490000D02*
X184685000Y-91265000D01*
X158950000Y-98750000D02*
X158950000Y-105810000D01*
X158950000Y-105810000D02*
X158670000Y-106090000D01*
X167946000Y-89754000D02*
X158950000Y-98750000D01*
X171446000Y-89754000D02*
X167946000Y-89754000D01*
%TO.N,WR_PROTECT_D*%
X195790000Y-95360000D02*
X183160000Y-95360000D01*
%TD*%
%TA.AperFunction,Conductor*%
%TO.N,RD_DATA*%
G36*
X203505479Y-89905946D02*
G01*
X203512907Y-89910945D01*
X203514626Y-89919733D01*
X203514315Y-89920937D01*
X203351583Y-90436060D01*
X203345823Y-90442917D01*
X203340426Y-90444236D01*
X203107574Y-90444236D01*
X203099301Y-90440809D01*
X203096417Y-90436060D01*
X202933684Y-89920937D01*
X202934460Y-89912016D01*
X202941317Y-89906256D01*
X202942500Y-89905950D01*
X203221682Y-89849469D01*
X203226318Y-89849469D01*
X203505479Y-89905946D01*
G37*
%TD.AperFunction*%
%TD*%
%TA.AperFunction,Conductor*%
%TO.N,WR_PROTECT_D*%
G36*
X201322479Y-95425946D02*
G01*
X201329907Y-95430945D01*
X201331626Y-95439733D01*
X201331315Y-95440937D01*
X201168583Y-95956060D01*
X201162823Y-95962917D01*
X201157426Y-95964236D01*
X200924574Y-95964236D01*
X200916301Y-95960809D01*
X200913417Y-95956060D01*
X200750684Y-95440937D01*
X200751460Y-95432016D01*
X200758317Y-95426256D01*
X200759500Y-95425950D01*
X201038682Y-95369469D01*
X201043318Y-95369469D01*
X201322479Y-95425946D01*
G37*
%TD.AperFunction*%
%TD*%
%TA.AperFunction,Conductor*%
%TO.N,GND*%
G36*
X137134014Y-91978730D02*
G01*
X137134657Y-91979129D01*
X137538749Y-92247990D01*
X137542009Y-92251250D01*
X137810870Y-92655342D01*
X137812600Y-92664128D01*
X137807610Y-92671564D01*
X137806967Y-92671963D01*
X137024234Y-93122616D01*
X137015354Y-93123774D01*
X137010123Y-93120749D01*
X136669250Y-92779876D01*
X136665823Y-92771603D01*
X136667382Y-92765768D01*
X137118038Y-91983030D01*
X137125134Y-91977572D01*
X137134014Y-91978730D01*
G37*
%TD.AperFunction*%
%TD*%
%TA.AperFunction,Conductor*%
%TO.N,GND*%
G36*
X136374039Y-97256464D02*
G01*
X136381468Y-97261464D01*
X136383379Y-97268895D01*
X136340887Y-97783499D01*
X136336791Y-97791462D01*
X136329227Y-97794236D01*
X135850773Y-97794236D01*
X135842500Y-97790809D01*
X135839113Y-97783499D01*
X135796620Y-97268895D01*
X135799354Y-97260368D01*
X135805959Y-97256464D01*
X136087682Y-97199469D01*
X136092318Y-97199469D01*
X136374039Y-97256464D01*
G37*
%TD.AperFunction*%
%TD*%
%TA.AperFunction,Conductor*%
%TO.N,GND*%
G36*
X136337500Y-96609191D02*
G01*
X136340887Y-96616501D01*
X136383379Y-97131104D01*
X136380645Y-97139631D01*
X136374039Y-97143535D01*
X136092320Y-97200530D01*
X136087680Y-97200530D01*
X135805960Y-97143535D01*
X135798531Y-97138535D01*
X135796620Y-97131104D01*
X135839113Y-96616501D01*
X135843209Y-96608538D01*
X135850773Y-96605764D01*
X136329227Y-96605764D01*
X136337500Y-96609191D01*
G37*
%TD.AperFunction*%
%TD*%
%TA.AperFunction,Conductor*%
%TO.N,GND*%
G36*
X144368697Y-102414161D02*
G01*
X144369692Y-102415446D01*
X144636350Y-102814192D01*
X144638100Y-102822974D01*
X144636339Y-102827215D01*
X144367638Y-103227652D01*
X144360183Y-103232613D01*
X144353280Y-103231872D01*
X144108681Y-103126126D01*
X143779030Y-102983609D01*
X143772797Y-102977182D01*
X143772935Y-102968228D01*
X143775398Y-102964601D01*
X144116550Y-102623449D01*
X144116999Y-102623024D01*
X144352178Y-102413218D01*
X144360632Y-102410269D01*
X144368697Y-102414161D01*
G37*
%TD.AperFunction*%
%TD*%
%TA.AperFunction,Conductor*%
%TO.N,GND*%
G36*
X144749864Y-102333337D02*
G01*
X145622085Y-102597484D01*
X145629009Y-102603161D01*
X145630393Y-102608681D01*
X145630393Y-103090736D01*
X145626966Y-103099009D01*
X145621377Y-103102124D01*
X144749317Y-103307618D01*
X144740478Y-103306180D01*
X144735245Y-103298914D01*
X144735162Y-103298535D01*
X144639463Y-102822305D01*
X144639463Y-102817695D01*
X144735008Y-102342229D01*
X144739997Y-102334796D01*
X144748783Y-102333066D01*
X144749864Y-102333337D01*
G37*
%TD.AperFunction*%
%TD*%
%TA.AperFunction,Conductor*%
%TO.N,GND*%
G36*
X148764014Y-101328730D02*
G01*
X148764657Y-101329129D01*
X149168749Y-101597990D01*
X149172009Y-101601250D01*
X149440870Y-102005342D01*
X149442600Y-102014128D01*
X149437610Y-102021564D01*
X149436967Y-102021963D01*
X148654234Y-102472616D01*
X148645354Y-102473774D01*
X148640123Y-102470749D01*
X148299250Y-102129876D01*
X148295823Y-102121603D01*
X148297382Y-102115768D01*
X148748038Y-101333030D01*
X148755134Y-101327572D01*
X148764014Y-101328730D01*
G37*
%TD.AperFunction*%
%TD*%
%TA.AperFunction,Conductor*%
%TO.N,WR_REQ*%
G36*
X157527861Y-96247486D02*
G01*
X157692513Y-96412138D01*
X157695940Y-96420411D01*
X157694621Y-96425808D01*
X157445444Y-96905123D01*
X157438587Y-96910883D01*
X157429666Y-96910107D01*
X157428595Y-96909475D01*
X157191265Y-96752015D01*
X157187984Y-96748734D01*
X157030524Y-96511404D01*
X157028805Y-96502616D01*
X157033805Y-96495187D01*
X157034859Y-96494564D01*
X157514193Y-96245377D01*
X157523112Y-96244602D01*
X157527861Y-96247486D01*
G37*
%TD.AperFunction*%
%TD*%
%TA.AperFunction,Conductor*%
%TO.N,SDIO_DO*%
G36*
X150391444Y-113375958D02*
G01*
X150398879Y-113380946D01*
X150400610Y-113389732D01*
X150400292Y-113390964D01*
X150272956Y-113792598D01*
X150270076Y-113797335D01*
X150106957Y-113960454D01*
X150098684Y-113963881D01*
X150090411Y-113960454D01*
X150088151Y-113957275D01*
X150010801Y-113797335D01*
X149864977Y-113495806D01*
X149864460Y-113486866D01*
X149868976Y-113481006D01*
X150105243Y-113322017D01*
X150114019Y-113320242D01*
X150391444Y-113375958D01*
G37*
%TD.AperFunction*%
%TD*%
%TA.AperFunction,Conductor*%
%TO.N,SD_EJECT*%
G36*
X149830929Y-96994681D02*
G01*
X150346060Y-97157417D01*
X150352917Y-97163177D01*
X150354236Y-97168574D01*
X150354236Y-97401425D01*
X150350809Y-97409698D01*
X150346060Y-97412582D01*
X149830937Y-97575315D01*
X149822016Y-97574539D01*
X149816256Y-97567682D01*
X149815949Y-97566494D01*
X149759469Y-97287318D01*
X149759469Y-97282680D01*
X149782554Y-97168574D01*
X149815946Y-97003518D01*
X149820945Y-96996092D01*
X149829733Y-96994373D01*
X149830929Y-96994681D01*
G37*
%TD.AperFunction*%
%TD*%
%TA.AperFunction,Conductor*%
%TO.N,SDIO_CK*%
G36*
X149830929Y-95769681D02*
G01*
X150346060Y-95932417D01*
X150352917Y-95938177D01*
X150354236Y-95943574D01*
X150354236Y-96176425D01*
X150350809Y-96184698D01*
X150346060Y-96187582D01*
X149830937Y-96350315D01*
X149822016Y-96349539D01*
X149816256Y-96342682D01*
X149815949Y-96341494D01*
X149759469Y-96062318D01*
X149759469Y-96057680D01*
X149782554Y-95943574D01*
X149815946Y-95778518D01*
X149820945Y-95771092D01*
X149829733Y-95769373D01*
X149830929Y-95769681D01*
G37*
%TD.AperFunction*%
%TD*%
%TA.AperFunction,Conductor*%
%TO.N,SDIO_D1*%
G36*
X148525918Y-103155106D02*
G01*
X148595406Y-103179003D01*
X149041108Y-103332285D01*
X149047816Y-103338215D01*
X149049002Y-103343348D01*
X149049002Y-103576193D01*
X149045575Y-103584466D01*
X149040539Y-103587436D01*
X148525482Y-103735726D01*
X148516584Y-103734722D01*
X148511002Y-103727720D01*
X148510780Y-103726818D01*
X148454235Y-103447318D01*
X148454235Y-103442680D01*
X148474331Y-103343348D01*
X148510645Y-103163848D01*
X148515645Y-103156421D01*
X148524433Y-103154702D01*
X148525918Y-103155106D01*
G37*
%TD.AperFunction*%
%TD*%
%TA.AperFunction,Conductor*%
%TO.N,SDIO_CMD*%
G36*
X141994812Y-105013805D02*
G01*
X141995444Y-105014876D01*
X142244621Y-105494191D01*
X142245397Y-105503112D01*
X142242513Y-105507861D01*
X142077861Y-105672513D01*
X142069588Y-105675940D01*
X142064191Y-105674621D01*
X141584876Y-105425444D01*
X141579116Y-105418587D01*
X141579892Y-105409666D01*
X141580516Y-105408607D01*
X141737985Y-105171263D01*
X141741263Y-105167985D01*
X141978596Y-105010523D01*
X141987383Y-105008805D01*
X141994812Y-105013805D01*
G37*
%TD.AperFunction*%
%TD*%
%TA.AperFunction,Conductor*%
%TO.N,SDIO_CMD*%
G36*
X165800333Y-108599892D02*
G01*
X165801400Y-108600521D01*
X166027419Y-108750477D01*
X166038734Y-108757984D01*
X166042015Y-108761265D01*
X166199475Y-108998595D01*
X166201194Y-109007383D01*
X166196194Y-109014812D01*
X166195123Y-109015444D01*
X165715808Y-109264621D01*
X165706887Y-109265397D01*
X165702138Y-109262513D01*
X165537486Y-109097861D01*
X165534059Y-109089588D01*
X165535377Y-109084194D01*
X165784557Y-108604874D01*
X165791412Y-108599116D01*
X165800333Y-108599892D01*
G37*
%TD.AperFunction*%
%TD*%
%TA.AperFunction,Conductor*%
%TO.N,SDIO_D2*%
G36*
X139754320Y-103594135D02*
G01*
X139755188Y-103595681D01*
X139939885Y-103992652D01*
X139940977Y-103997588D01*
X139940977Y-104227687D01*
X139937550Y-104235960D01*
X139929277Y-104239387D01*
X139924914Y-104238543D01*
X139450449Y-104047843D01*
X139444050Y-104041578D01*
X139443329Y-104034742D01*
X139498063Y-103754790D01*
X139503013Y-103747329D01*
X139738099Y-103590876D01*
X139746884Y-103589146D01*
X139754320Y-103594135D01*
G37*
%TD.AperFunction*%
%TD*%
%TA.AperFunction,Conductor*%
%TO.N,SDIO_D3*%
G36*
X149541538Y-113386311D02*
G01*
X149548966Y-113391310D01*
X149550685Y-113400098D01*
X149550373Y-113401304D01*
X149387583Y-113916427D01*
X149381823Y-113923283D01*
X149376427Y-113924601D01*
X149143575Y-113924601D01*
X149135302Y-113921174D01*
X149132418Y-113916424D01*
X148969743Y-113401302D01*
X148970520Y-113392381D01*
X148977377Y-113386622D01*
X148978574Y-113386312D01*
X149257742Y-113329834D01*
X149262378Y-113329834D01*
X149541538Y-113386311D01*
G37*
%TD.AperFunction*%
%TD*%
%TA.AperFunction,Conductor*%
%TO.N,TIM3_CH4*%
G36*
X164700333Y-125089892D02*
G01*
X164701400Y-125090521D01*
X164927419Y-125240477D01*
X164938734Y-125247984D01*
X164942015Y-125251265D01*
X165099475Y-125488595D01*
X165101194Y-125497383D01*
X165096194Y-125504812D01*
X165095123Y-125505444D01*
X164615808Y-125754621D01*
X164606887Y-125755397D01*
X164602138Y-125752513D01*
X164437486Y-125587861D01*
X164434059Y-125579588D01*
X164435377Y-125574194D01*
X164684557Y-125094874D01*
X164691412Y-125089116D01*
X164700333Y-125089892D01*
G37*
%TD.AperFunction*%
%TD*%
%TA.AperFunction,Conductor*%
%TO.N,TIM1_CH2N*%
G36*
X149830929Y-93229681D02*
G01*
X150346060Y-93392417D01*
X150352917Y-93398177D01*
X150354236Y-93403574D01*
X150354236Y-93636425D01*
X150350809Y-93644698D01*
X150346060Y-93647582D01*
X149830937Y-93810315D01*
X149822016Y-93809539D01*
X149816256Y-93802682D01*
X149815949Y-93801494D01*
X149759469Y-93522318D01*
X149759469Y-93517680D01*
X149782554Y-93403574D01*
X149815946Y-93238518D01*
X149820945Y-93231092D01*
X149829733Y-93229373D01*
X149830929Y-93229681D01*
G37*
%TD.AperFunction*%
%TD*%
%TA.AperFunction,Conductor*%
%TO.N,TIM2_CH3*%
G36*
X163250333Y-123739892D02*
G01*
X163251400Y-123740521D01*
X163477419Y-123890477D01*
X163488734Y-123897984D01*
X163492015Y-123901265D01*
X163649475Y-124138595D01*
X163651194Y-124147383D01*
X163646194Y-124154812D01*
X163645123Y-124155444D01*
X163165808Y-124404621D01*
X163156887Y-124405397D01*
X163152138Y-124402513D01*
X162987486Y-124237861D01*
X162984059Y-124229588D01*
X162985377Y-124224194D01*
X163234557Y-123744874D01*
X163241412Y-123739116D01*
X163250333Y-123739892D01*
G37*
%TD.AperFunction*%
%TD*%
%TA.AperFunction,Conductor*%
%TO.N,PWR_RD*%
G36*
X151755269Y-113163502D02*
G01*
X151755660Y-113164132D01*
X152021780Y-113626351D01*
X152022938Y-113635231D01*
X152019913Y-113640462D01*
X151820462Y-113839913D01*
X151812189Y-113843340D01*
X151806351Y-113841780D01*
X151344132Y-113575660D01*
X151338672Y-113568562D01*
X151339830Y-113559682D01*
X151340210Y-113559068D01*
X151497985Y-113321263D01*
X151501263Y-113317985D01*
X151739053Y-113160220D01*
X151747840Y-113158502D01*
X151755269Y-113163502D01*
G37*
%TD.AperFunction*%
%TD*%
%TA.AperFunction,Conductor*%
%TO.N,PWR_RD*%
G36*
X159664849Y-111440341D02*
G01*
X159665501Y-111441218D01*
X159824387Y-111677332D01*
X159826161Y-111681613D01*
X159880985Y-111961269D01*
X159879214Y-111970047D01*
X159871755Y-111975001D01*
X159870348Y-111975189D01*
X159430032Y-112007047D01*
X159421533Y-112004227D01*
X159420915Y-112003651D01*
X159221707Y-111804443D01*
X159218280Y-111796170D01*
X159221707Y-111787897D01*
X159222565Y-111787119D01*
X159648386Y-111438694D01*
X159656958Y-111436108D01*
X159664849Y-111440341D01*
G37*
%TD.AperFunction*%
%TD*%
%TA.AperFunction,Conductor*%
%TO.N,PWR_RD*%
G36*
X160408499Y-111429113D02*
G01*
X160416462Y-111433209D01*
X160419236Y-111440773D01*
X160419236Y-111919226D01*
X160415809Y-111927499D01*
X160408499Y-111930886D01*
X159893895Y-111973379D01*
X159885368Y-111970645D01*
X159881464Y-111964039D01*
X159824469Y-111682320D01*
X159824469Y-111677680D01*
X159874578Y-111430000D01*
X159881464Y-111395959D01*
X159886464Y-111388531D01*
X159893894Y-111386620D01*
X160408499Y-111429113D01*
G37*
%TD.AperFunction*%
%TD*%
%TA.AperFunction,Conductor*%
%TO.N,SELECT_D*%
G36*
X160260333Y-125764892D02*
G01*
X160261400Y-125765521D01*
X160487419Y-125915477D01*
X160498734Y-125922984D01*
X160502015Y-125926265D01*
X160659475Y-126163595D01*
X160661194Y-126172383D01*
X160656194Y-126179812D01*
X160655123Y-126180444D01*
X160175808Y-126429621D01*
X160166887Y-126430397D01*
X160162138Y-126427513D01*
X159997486Y-126262861D01*
X159994059Y-126254588D01*
X159995377Y-126249194D01*
X160244557Y-125769874D01*
X160251412Y-125764116D01*
X160260333Y-125764892D01*
G37*
%TD.AperFunction*%
%TD*%
%TA.AperFunction,Conductor*%
%TO.N,WR_PROTECT_D*%
G36*
X195727983Y-95070460D02*
G01*
X195733743Y-95077317D01*
X195734054Y-95078521D01*
X195790530Y-95357680D01*
X195790530Y-95362320D01*
X195734054Y-95641478D01*
X195729054Y-95648907D01*
X195720266Y-95650626D01*
X195719062Y-95650315D01*
X195203940Y-95487582D01*
X195197083Y-95481822D01*
X195195764Y-95476425D01*
X195195764Y-95243574D01*
X195199191Y-95235301D01*
X195203940Y-95232417D01*
X195719063Y-95069684D01*
X195727983Y-95070460D01*
G37*
%TD.AperFunction*%
%TD*%
M02*
