%TF.GenerationSoftware,KiCad,Pcbnew,9.0.3*%
%TF.CreationDate,2025-08-12T06:34:47+02:00*%
%TF.ProjectId,sdiskII_stm32,73646973-6b49-4495-9f73-746d33322e6b,7*%
%TF.SameCoordinates,Original*%
%TF.FileFunction,Soldermask,Top*%
%TF.FilePolarity,Negative*%
%FSLAX46Y46*%
G04 Gerber Fmt 4.6, Leading zero omitted, Abs format (unit mm)*
G04 Created by KiCad (PCBNEW 9.0.3) date 2025-08-12 06:34:47*
%MOMM*%
%LPD*%
G01*
G04 APERTURE LIST*
G04 Aperture macros list*
%AMRoundRect*
0 Rectangle with rounded corners*
0 $1 Rounding radius*
0 $2 $3 $4 $5 $6 $7 $8 $9 X,Y pos of 4 corners*
0 Add a 4 corners polygon primitive as box body*
4,1,4,$2,$3,$4,$5,$6,$7,$8,$9,$2,$3,0*
0 Add four circle primitives for the rounded corners*
1,1,$1+$1,$2,$3*
1,1,$1+$1,$4,$5*
1,1,$1+$1,$6,$7*
1,1,$1+$1,$8,$9*
0 Add four rect primitives between the rounded corners*
20,1,$1+$1,$2,$3,$4,$5,0*
20,1,$1+$1,$4,$5,$6,$7,0*
20,1,$1+$1,$6,$7,$8,$9,0*
20,1,$1+$1,$8,$9,$2,$3,0*%
%AMFreePoly0*
4,1,23,0.500000,-0.750000,0.000000,-0.750000,0.000000,-0.745722,-0.065263,-0.745722,-0.191342,-0.711940,-0.304381,-0.646677,-0.396677,-0.554381,-0.461940,-0.441342,-0.495722,-0.315263,-0.495722,-0.250000,-0.500000,-0.250000,-0.500000,0.250000,-0.495722,0.250000,-0.495722,0.315263,-0.461940,0.441342,-0.396677,0.554381,-0.304381,0.646677,-0.191342,0.711940,-0.065263,0.745722,0.000000,0.745722,
0.000000,0.750000,0.500000,0.750000,0.500000,-0.750000,0.500000,-0.750000,$1*%
%AMFreePoly1*
4,1,23,0.000000,0.745722,0.065263,0.745722,0.191342,0.711940,0.304381,0.646677,0.396677,0.554381,0.461940,0.441342,0.495722,0.315263,0.495722,0.250000,0.500000,0.250000,0.500000,-0.250000,0.495722,-0.250000,0.495722,-0.315263,0.461940,-0.441342,0.396677,-0.554381,0.304381,-0.646677,0.191342,-0.711940,0.065263,-0.745722,0.000000,-0.745722,0.000000,-0.750000,-0.500000,-0.750000,
-0.500000,0.750000,0.000000,0.750000,0.000000,0.745722,0.000000,0.745722,$1*%
G04 Aperture macros list end*
%ADD10FreePoly0,180.000000*%
%ADD11FreePoly1,180.000000*%
%ADD12RoundRect,0.250000X0.600000X-0.600000X0.600000X0.600000X-0.600000X0.600000X-0.600000X-0.600000X0*%
%ADD13C,1.700000*%
%ADD14R,1.600000X1.600000*%
%ADD15O,1.600000X1.600000*%
%ADD16R,1.700000X1.700000*%
%ADD17O,1.700000X1.700000*%
%ADD18C,2.000000*%
%ADD19RoundRect,0.250000X-0.450000X0.325000X-0.450000X-0.325000X0.450000X-0.325000X0.450000X0.325000X0*%
%ADD20RoundRect,0.250000X0.475000X-0.337500X0.475000X0.337500X-0.475000X0.337500X-0.475000X-0.337500X0*%
%ADD21C,1.824000*%
%ADD22C,1.800000*%
%ADD23FreePoly0,270.000000*%
%ADD24FreePoly1,270.000000*%
%ADD25R,1.524000X1.524000*%
%ADD26RoundRect,0.375000X0.375000X-0.625000X0.375000X0.625000X-0.375000X0.625000X-0.375000X-0.625000X0*%
%ADD27RoundRect,0.500000X1.400000X-0.500000X1.400000X0.500000X-1.400000X0.500000X-1.400000X-0.500000X0*%
%ADD28RoundRect,0.102000X-0.754000X-0.754000X0.754000X-0.754000X0.754000X0.754000X-0.754000X0.754000X0*%
%ADD29C,1.712000*%
%ADD30C,3.204000*%
%ADD31R,1.600000X1.400000*%
%ADD32C,1.000000*%
%ADD33R,1.200000X2.200000*%
%ADD34R,0.700000X1.600000*%
%ADD35R,1.200000X1.400000*%
%ADD36RoundRect,0.250000X-0.350000X-0.450000X0.350000X-0.450000X0.350000X0.450000X-0.350000X0.450000X0*%
G04 APERTURE END LIST*
%TO.C,BYP*%
G36*
X204860000Y-113550000D02*
G01*
X204560000Y-113550000D01*
X204560000Y-112050000D01*
X204860000Y-112050000D01*
X204860000Y-113550000D01*
G37*
%TO.C,3V*%
G36*
X142850000Y-121000000D02*
G01*
X141350000Y-121000000D01*
X141350000Y-121300000D01*
X142850000Y-121300000D01*
X142850000Y-121000000D01*
G37*
%TD*%
D10*
%TO.C,BYP*%
X205360000Y-112800000D03*
D11*
X204060000Y-112800000D03*
%TD*%
D12*
%TO.C,J2*%
X178290000Y-92490000D03*
D13*
X178290000Y-89950000D03*
X180830000Y-92490000D03*
X180830000Y-89950000D03*
X183370000Y-92490000D03*
X183370000Y-89950000D03*
X185910000Y-92490000D03*
X185910000Y-89950000D03*
X188450000Y-92490000D03*
X188450000Y-89950000D03*
X190990000Y-92490000D03*
X190990000Y-89950000D03*
X193530000Y-92490000D03*
X193530000Y-89950000D03*
X196070000Y-92490000D03*
X196070000Y-89950000D03*
X198610000Y-92490000D03*
X198610000Y-89950000D03*
X201150000Y-92490000D03*
X201150000Y-89950000D03*
%TD*%
D14*
%TO.C,D1*%
X204710000Y-97905000D03*
D15*
X204710000Y-105525000D03*
%TD*%
D16*
%TO.C,J5*%
X134880000Y-116370000D03*
D13*
X134880000Y-118910000D03*
X134880000Y-121450000D03*
X134880000Y-123990000D03*
%TD*%
D16*
%TO.C,J3*%
X204690000Y-116170000D03*
D17*
X204690000Y-118710000D03*
X204690000Y-121250000D03*
X204690000Y-123790000D03*
X204690000Y-126330000D03*
X204690000Y-128870000D03*
%TD*%
D18*
%TO.C,UP1*%
X190040000Y-130950000D03*
X183540000Y-130950000D03*
X190040000Y-126450000D03*
X183540000Y-126450000D03*
%TD*%
D19*
%TO.C,D2*%
X204710000Y-100905000D03*
X204710000Y-102955000D03*
%TD*%
%TO.C,Fu2*%
X204720000Y-108055000D03*
X204720000Y-110105000D03*
%TD*%
D20*
%TO.C,C2*%
X149400000Y-107720000D03*
X149400000Y-105645000D03*
%TD*%
D21*
%TO.C,BZ1*%
X140500000Y-131750000D03*
D22*
X147000000Y-131750000D03*
%TD*%
D16*
%TO.C,J4*%
X134910000Y-104975000D03*
D17*
X134910000Y-107515000D03*
X134910000Y-110055000D03*
%TD*%
D23*
%TO.C,3V*%
X142100000Y-120500000D03*
D24*
X142100000Y-121800000D03*
%TD*%
D16*
%TO.C,\u03BCC1*%
X154050000Y-88440000D03*
D13*
X154050000Y-90980000D03*
X154050000Y-93520000D03*
X154050000Y-96060000D03*
X154050000Y-98600000D03*
X154050000Y-101140000D03*
X154050000Y-103680000D03*
X154050000Y-106220000D03*
X154050000Y-108760000D03*
X154050000Y-111300000D03*
X154050000Y-113840000D03*
X154050000Y-116380000D03*
X154050000Y-118920000D03*
X154050000Y-121460000D03*
X154050000Y-124000000D03*
X154050000Y-126540000D03*
X154050000Y-129080000D03*
X154050000Y-131620000D03*
X154050000Y-134160000D03*
X154050000Y-136700000D03*
X169290000Y-136700000D03*
X169290000Y-134160000D03*
X169290000Y-131620000D03*
X169290000Y-129080000D03*
X169290000Y-126540000D03*
X169290000Y-124000000D03*
X169290000Y-121460000D03*
X169290000Y-118920000D03*
X169290000Y-116380000D03*
X169290000Y-113840000D03*
X169290000Y-111300000D03*
X169290000Y-108760000D03*
X169290000Y-106220000D03*
X169290000Y-103680000D03*
X169290000Y-101140000D03*
X169290000Y-98600000D03*
X169290000Y-96060000D03*
X169290000Y-93520000D03*
X169290000Y-90980000D03*
D16*
X169290000Y-88440000D03*
D25*
X157860000Y-132890000D03*
D13*
X160400000Y-132890000D03*
X162940000Y-132890000D03*
X165480000Y-132890000D03*
%TD*%
D26*
%TO.C,U1*%
X141217500Y-116540000D03*
X143517500Y-116540000D03*
D27*
X143517500Y-110240000D03*
D26*
X145817500Y-116540000D03*
%TD*%
D23*
%TO.C,JP1*%
X144970000Y-120500000D03*
D24*
X144970000Y-121800000D03*
%TD*%
D16*
%TO.C,J1*%
X148390000Y-122700000D03*
D17*
X148390000Y-120160000D03*
%TD*%
D18*
%TO.C,ENTR1*%
X198540000Y-129700000D03*
X198540000Y-136200000D03*
X194040000Y-129700000D03*
X194040000Y-136200000D03*
%TD*%
D16*
%TO.C,J6*%
X135000000Y-128180000D03*
D17*
X135000000Y-130720000D03*
X135000000Y-133260000D03*
X135000000Y-135800000D03*
%TD*%
D28*
%TO.C,U8*%
X182980000Y-98950000D03*
D29*
X185520000Y-98950000D03*
X188060000Y-98950000D03*
X190600000Y-98950000D03*
D30*
X175790000Y-99450000D03*
X197790000Y-99450000D03*
X197790000Y-121450000D03*
X175790000Y-121450000D03*
%TD*%
D20*
%TO.C,C1*%
X138430000Y-116995000D03*
X138430000Y-114920000D03*
%TD*%
D31*
%TO.C,U2*%
X134540000Y-98750000D03*
D32*
X138340000Y-88850000D03*
X146340000Y-88850000D03*
D33*
X149140000Y-89250000D03*
D34*
X139140000Y-99350000D03*
X140240000Y-99350000D03*
X141340000Y-99350000D03*
X142440000Y-99350000D03*
X143540000Y-99350000D03*
X144640000Y-99350000D03*
X145740000Y-99350000D03*
X146840000Y-99350000D03*
X147940000Y-99350000D03*
D35*
X149140000Y-98750000D03*
D33*
X133640000Y-89150000D03*
%TD*%
D36*
%TO.C,R4*%
X156910000Y-120340000D03*
X158910000Y-120340000D03*
%TD*%
D18*
%TO.C,RET1*%
X179540000Y-129700000D03*
X179540000Y-136200000D03*
X175040000Y-129700000D03*
X175040000Y-136200000D03*
%TD*%
D16*
%TO.C,J7*%
X138710000Y-122670000D03*
D13*
X138710000Y-120130000D03*
%TD*%
D18*
%TO.C,DOWN1*%
X183540000Y-134950000D03*
X190040000Y-134950000D03*
X183540000Y-139450000D03*
X190040000Y-139450000D03*
%TD*%
M02*
