M48
; DRILL file {KiCad 9.0.3} date 2025-08-20T09:57:50+0200
; FORMAT={-:-/ absolute / inch / decimal}
; #@! TF.CreationDate,2025-08-20T09:57:50+02:00
; #@! TF.GenerationSoftware,Kicad,Pcbnew,9.0.3
; #@! TF.FileFunction,Plated,1,2,PTH
FMAT,2
INCH
; #@! TA.AperFunction,Plated,PTH,ViaDrill
T1C0.0118
; #@! TA.AperFunction,Plated,PTH,ComponentDrill
T2C0.0315
; #@! TA.AperFunction,Plated,PTH,ComponentDrill
T3C0.0394
; #@! TA.AperFunction,Plated,PTH,ComponentDrill
T4C0.0433
; #@! TA.AperFunction,Plated,PTH,ComponentDrill
T5C0.0787
%
G90
G05
T1
X5.2261Y-3.821
X5.2272Y-3.8951
X5.3579Y-3.8268
X5.415Y-3.6319
X5.4921Y-4.0846
X5.5803Y-4.1406
X5.6945Y-4.048
X5.8447Y-4.0726
X5.8728Y-4.0
X5.8764Y-4.4618
X5.8815Y-3.4055
X5.8961Y-3.6819
X5.8961Y-3.7819
X5.8961Y-3.8301
X5.9098Y-4.4614
X5.9646Y-4.4614
X6.1453Y-4.8988
X6.1886Y-3.8091
X6.2923Y-4.3969
X6.3189Y-4.8181
X6.3189Y-4.9577
X6.4366Y-4.878
X6.4937Y-4.9311
X6.537Y-4.2819
X7.7083Y-3.7543
X7.915Y-3.7547
X8.0009Y-3.5374
T2
X8.062Y-4.0522
X8.062Y-4.3522
T3
X5.3102Y-4.5815
X5.3102Y-4.6815
X5.3102Y-4.7815
X5.3102Y-4.8815
X5.3114Y-4.1329
X5.3114Y-4.2329
X5.3114Y-4.3329
X5.315Y-5.0465
X5.315Y-5.1465
X5.315Y-5.2465
X5.315Y-5.3465
X5.5315Y-5.187
X5.5744Y-4.7366
X5.5744Y-4.8366
X5.7266Y-4.7366
X5.7266Y-4.8366
X5.7874Y-5.187
X6.065Y-3.4819
X6.065Y-3.5819
X6.065Y-3.6819
X6.065Y-3.7819
X6.065Y-3.8819
X6.065Y-3.9819
X6.065Y-4.0819
X6.065Y-4.1819
X6.065Y-4.2819
X6.065Y-4.3819
X6.065Y-4.4819
X6.065Y-4.5819
X6.065Y-4.6819
X6.065Y-4.7819
X6.065Y-4.8819
X6.065Y-4.9819
X6.065Y-5.0819
X6.065Y-5.1819
X6.065Y-5.2819
X6.065Y-5.3819
X6.215Y-5.2319
X6.315Y-5.2319
X6.415Y-5.2319
X6.515Y-5.2319
X6.665Y-3.4819
X6.665Y-3.5819
X6.665Y-3.6819
X6.665Y-3.7819
X6.665Y-3.8819
X6.665Y-3.9819
X6.665Y-4.0819
X6.665Y-4.1819
X6.665Y-4.2819
X6.665Y-4.3819
X6.665Y-4.4819
X6.665Y-4.5819
X6.665Y-4.6819
X6.665Y-4.7819
X6.665Y-4.8819
X6.665Y-4.9819
X6.665Y-5.0819
X6.665Y-5.1819
X6.665Y-5.2819
X6.665Y-5.3819
X7.0193Y-3.5413
X7.0193Y-3.6413
X7.1193Y-3.5413
X7.1193Y-3.6413
X7.2039Y-3.8957
X7.2193Y-3.5413
X7.2193Y-3.6413
X7.3039Y-3.8957
X7.3193Y-3.5413
X7.3193Y-3.6413
X7.4039Y-3.8957
X7.4193Y-3.5413
X7.4193Y-3.6413
X7.5039Y-3.8957
X7.5193Y-3.5413
X7.5193Y-3.6413
X7.6193Y-3.5413
X7.6193Y-3.6413
X7.7193Y-3.5413
X7.7193Y-3.6413
X7.8193Y-3.5413
X7.8193Y-3.6413
X7.9193Y-3.5413
X7.9193Y-3.6413
X8.0596Y-4.7516
X8.0596Y-4.8516
X8.0596Y-4.9516
X8.0596Y-5.0516
X8.0596Y-5.1516
X8.0596Y-5.2516
T4
X6.8913Y-5.1063
X6.8913Y-5.3622
X7.0685Y-5.1063
X7.0685Y-5.3622
X7.226Y-4.9783
X7.226Y-5.1555
X7.226Y-5.313
X7.226Y-5.4902
X7.4819Y-4.9783
X7.4819Y-5.1555
X7.4819Y-5.313
X7.4819Y-5.4902
X7.6394Y-5.1063
X7.6394Y-5.3622
X7.8165Y-5.1063
X7.8165Y-5.3622
T5
X6.9209Y-3.9154
X6.9209Y-4.7815
X7.787Y-3.9154
X7.787Y-4.7815
M30
