%TF.GenerationSoftware,KiCad,Pcbnew,9.0.1*%
%TF.CreationDate,2025-05-04T19:13:47+02:00*%
%TF.ProjectId,sdiskII_stm32,73646973-6b49-4495-9f73-746d33322e6b,3*%
%TF.SameCoordinates,Original*%
%TF.FileFunction,Copper,L2,Bot*%
%TF.FilePolarity,Positive*%
%FSLAX46Y46*%
G04 Gerber Fmt 4.6, Leading zero omitted, Abs format (unit mm)*
G04 Created by KiCad (PCBNEW 9.0.1) date 2025-05-04 19:13:47*
%MOMM*%
%LPD*%
G01*
G04 APERTURE LIST*
G04 Aperture macros list*
%AMRoundRect*
0 Rectangle with rounded corners*
0 $1 Rounding radius*
0 $2 $3 $4 $5 $6 $7 $8 $9 X,Y pos of 4 corners*
0 Add a 4 corners polygon primitive as box body*
4,1,4,$2,$3,$4,$5,$6,$7,$8,$9,$2,$3,0*
0 Add four circle primitives for the rounded corners*
1,1,$1+$1,$2,$3*
1,1,$1+$1,$4,$5*
1,1,$1+$1,$6,$7*
1,1,$1+$1,$8,$9*
0 Add four rect primitives between the rounded corners*
20,1,$1+$1,$2,$3,$4,$5,0*
20,1,$1+$1,$4,$5,$6,$7,0*
20,1,$1+$1,$6,$7,$8,$9,0*
20,1,$1+$1,$8,$9,$2,$3,0*%
G04 Aperture macros list end*
%TA.AperFunction,ComponentPad*%
%ADD10RoundRect,0.250000X0.600000X-0.600000X0.600000X0.600000X-0.600000X0.600000X-0.600000X-0.600000X0*%
%TD*%
%TA.AperFunction,ComponentPad*%
%ADD11C,1.700000*%
%TD*%
%TA.AperFunction,ComponentPad*%
%ADD12R,1.600000X1.600000*%
%TD*%
%TA.AperFunction,ComponentPad*%
%ADD13O,1.600000X1.600000*%
%TD*%
%TA.AperFunction,ComponentPad*%
%ADD14R,1.700000X1.700000*%
%TD*%
%TA.AperFunction,ComponentPad*%
%ADD15O,1.700000X1.700000*%
%TD*%
%TA.AperFunction,ComponentPad*%
%ADD16C,2.000000*%
%TD*%
%TA.AperFunction,ComponentPad*%
%ADD17C,1.824000*%
%TD*%
%TA.AperFunction,ComponentPad*%
%ADD18C,1.800000*%
%TD*%
%TA.AperFunction,ComponentPad*%
%ADD19R,1.524000X1.524000*%
%TD*%
%TA.AperFunction,ComponentPad*%
%ADD20R,1.508000X1.508000*%
%TD*%
%TA.AperFunction,ComponentPad*%
%ADD21C,1.508000*%
%TD*%
%TA.AperFunction,ComponentPad*%
%ADD22C,3.000000*%
%TD*%
%TA.AperFunction,ViaPad*%
%ADD23C,0.600000*%
%TD*%
%TA.AperFunction,ViaPad*%
%ADD24C,1.000000*%
%TD*%
%TA.AperFunction,Conductor*%
%ADD25C,0.500000*%
%TD*%
%TA.AperFunction,Conductor*%
%ADD26C,0.250000*%
%TD*%
G04 APERTURE END LIST*
D10*
%TO.P,J2,1,Pin_1*%
%TO.N,GND*%
X178290000Y-92490000D03*
D11*
%TO.P,J2,2,Pin_2*%
%TO.N,STEP0*%
X178290000Y-89950000D03*
%TO.P,J2,3,Pin_3*%
%TO.N,GND*%
X180830000Y-92490000D03*
%TO.P,J2,4,Pin_4*%
%TO.N,STEP1*%
X180830000Y-89950000D03*
%TO.P,J2,5,Pin_5*%
%TO.N,GND*%
X183370000Y-92490000D03*
%TO.P,J2,6,Pin_6*%
%TO.N,STEP2*%
X183370000Y-89950000D03*
%TO.P,J2,7,Pin_7*%
%TO.N,3.5DSK*%
X185910000Y-92490000D03*
%TO.P,J2,8,Pin_8*%
%TO.N,STEP3*%
X185910000Y-89950000D03*
%TO.P,J2,9,Pin_9*%
%TO.N,unconnected-(J2-Pin_9-Pad9)*%
X188450000Y-92490000D03*
%TO.P,J2,10,Pin_10*%
%TO.N,WR_REQ*%
X188450000Y-89950000D03*
%TO.P,J2,11,Pin_11*%
%TO.N,VCC*%
X190990000Y-92490000D03*
%TO.P,J2,12,Pin_12*%
%TO.N,SELECT*%
X190990000Y-89950000D03*
%TO.P,J2,13,Pin_13*%
%TO.N,unconnected-(J2-Pin_13-Pad13)*%
X193530000Y-92490000D03*
%TO.P,J2,14,Pin_14*%
%TO.N,DEVICE_ENABLE*%
X193530000Y-89950000D03*
%TO.P,J2,15,Pin_15*%
%TO.N,unconnected-(J2-Pin_15-Pad15)*%
X196070000Y-92490000D03*
%TO.P,J2,16,Pin_16*%
%TO.N,RD_DATA*%
X196070000Y-89950000D03*
%TO.P,J2,17,Pin_17*%
%TO.N,unconnected-(J2-Pin_17-Pad17)*%
X198610000Y-92490000D03*
%TO.P,J2,18,Pin_18*%
%TO.N,WR_DATA*%
X198610000Y-89950000D03*
%TO.P,J2,19,Pin_19*%
%TO.N,unconnected-(J2-Pin_19-Pad19)*%
X201150000Y-92490000D03*
%TO.P,J2,20,Pin_20*%
%TO.N,WR_PROTECT*%
X201150000Y-89950000D03*
%TD*%
D12*
%TO.P,D1,1,K*%
%TO.N,PWR_IN*%
X205000000Y-114840000D03*
D13*
%TO.P,D1,2,A*%
%TO.N,PWR_RD*%
X205000000Y-107220000D03*
%TD*%
D14*
%TO.P,J5,1,Pin_1*%
%TO.N,TIM2_CH3*%
X134880000Y-116370000D03*
D11*
%TO.P,J5,2,Pin_2*%
%TO.N,TIM3_CH4*%
X134880000Y-118910000D03*
%TO.P,J5,3,Pin_3*%
%TO.N,DEBUG*%
X134880000Y-121450000D03*
%TO.P,J5,4,Pin_4*%
%TO.N,GND*%
X134880000Y-123990000D03*
%TD*%
D14*
%TO.P,J3,1,Pin_1*%
%TO.N,RD_DATA*%
X205030000Y-118910000D03*
D15*
%TO.P,J3,2,Pin_2*%
%TO.N,WR_REQ*%
X205030000Y-121450000D03*
%TO.P,J3,3,Pin_3*%
%TO.N,DEVICE_ENABLE*%
X205030000Y-123990000D03*
%TO.P,J3,4,Pin_4*%
%TO.N,WR_PROTECT*%
X205030000Y-126530000D03*
%TO.P,J3,5,Pin_5*%
%TO.N,WR_DATA*%
X205030000Y-129070000D03*
%TO.P,J3,6,Pin_6*%
%TO.N,GND*%
X205030000Y-131610000D03*
%TD*%
D16*
%TO.P,UP1,1,1*%
%TO.N,+3.3V*%
X190040000Y-130950000D03*
X183540000Y-130950000D03*
%TO.P,UP1,2,2*%
%TO.N,BTN_UP*%
X190040000Y-126450000D03*
X183540000Y-126450000D03*
%TD*%
D17*
%TO.P,BZ1,1,+*%
%TO.N,TIM1_CH2N*%
X140500000Y-131750000D03*
D18*
%TO.P,BZ1,2,-*%
%TO.N,GND*%
X147000000Y-131750000D03*
%TD*%
D14*
%TO.P,J4,1,Pin_1*%
%TO.N,USART1_TX*%
X135240000Y-104975000D03*
D15*
%TO.P,J4,2,Pin_2*%
%TO.N,USART1_RX*%
X135240000Y-107515000D03*
%TO.P,J4,3,Pin_3*%
%TO.N,GND*%
X135240000Y-110055000D03*
%TD*%
D14*
%TO.P,\u03BCC1,1,B12*%
%TO.N,BTN_RET*%
X154050000Y-88440000D03*
D11*
%TO.P,\u03BCC1,2,B13*%
%TO.N,SD_EJECT*%
X154050000Y-90980000D03*
%TO.P,\u03BCC1,3,B14*%
%TO.N,TIM1_CH2N*%
X154050000Y-93520000D03*
%TO.P,\u03BCC1,4,B15*%
%TO.N,SDIO_CK*%
X154050000Y-96060000D03*
%TO.P,\u03BCC1,5,A8*%
%TO.N,SDIO_D1*%
X154050000Y-98600000D03*
%TO.P,\u03BCC1,6,A9*%
%TO.N,SDIO_D2*%
X154050000Y-101140000D03*
%TO.P,\u03BCC1,7,A10*%
%TO.N,DEBUG*%
X154050000Y-103680000D03*
%TO.P,\u03BCC1,8,A11*%
%TO.N,3.5DSK*%
X154050000Y-106220000D03*
%TO.P,\u03BCC1,9,A12*%
%TO.N,unconnected-(\u03BCC1-A12-Pad9)*%
X154050000Y-108760000D03*
%TO.P,\u03BCC1,10,A15*%
%TO.N,USART1_TX*%
X154050000Y-111300000D03*
%TO.P,\u03BCC1,11,B3*%
%TO.N,USART1_RX*%
X154050000Y-113840000D03*
%TO.P,\u03BCC1,12,B4*%
%TO.N,SDIO_DO*%
X154050000Y-116380000D03*
%TO.P,\u03BCC1,13,B5*%
%TO.N,SDIO_D3*%
X154050000Y-118920000D03*
%TO.P,\u03BCC1,14,B6*%
%TO.N,I2C_SCL*%
X154050000Y-121460000D03*
%TO.P,\u03BCC1,15,B7*%
%TO.N,I2C_SDA*%
X154050000Y-124000000D03*
%TO.P,\u03BCC1,16,B8*%
%TO.N,SELECT*%
X154050000Y-126540000D03*
%TO.P,\u03BCC1,17,B9*%
%TO.N,WR_REQ*%
X154050000Y-129080000D03*
%TO.P,\u03BCC1,18,5Vi*%
%TO.N,PWR_IN*%
X154050000Y-131620000D03*
%TO.P,\u03BCC1,19,GNDi*%
%TO.N,GND*%
X154050000Y-134160000D03*
%TO.P,\u03BCC1,20,3.3i*%
%TO.N,+3.3V*%
X154050000Y-136700000D03*
%TO.P,\u03BCC1,21,VB*%
%TO.N,unconnected-(\u03BCC1-VB-Pad21)*%
X169290000Y-136700000D03*
%TO.P,\u03BCC1,22,C13*%
%TO.N,BTN_DOWN*%
X169290000Y-134160000D03*
%TO.P,\u03BCC1,23,C14*%
%TO.N,BTN_UP*%
X169290000Y-131620000D03*
%TO.P,\u03BCC1,24,C15*%
%TO.N,BTN_ENTR*%
X169290000Y-129080000D03*
%TO.P,\u03BCC1,25,R*%
%TO.N,unconnected-(\u03BCC1-R-Pad25)*%
X169290000Y-126540000D03*
%TO.P,\u03BCC1,26,A0*%
%TO.N,STEP0*%
X169290000Y-124000000D03*
%TO.P,\u03BCC1,27,A1*%
%TO.N,STEP1*%
X169290000Y-121460000D03*
%TO.P,\u03BCC1,28,A2*%
%TO.N,STEP2*%
X169290000Y-118920000D03*
%TO.P,\u03BCC1,29,A3*%
%TO.N,STEP3*%
X169290000Y-116380000D03*
%TO.P,\u03BCC1,30,A4*%
%TO.N,DEVICE_ENABLE*%
X169290000Y-113840000D03*
%TO.P,\u03BCC1,31,A5*%
%TO.N,WR_DATA*%
X169290000Y-111300000D03*
%TO.P,\u03BCC1,32,A6*%
%TO.N,SDIO_CMD*%
X169290000Y-108760000D03*
%TO.P,\u03BCC1,33,A7*%
%TO.N,WR_DATA*%
X169290000Y-106220000D03*
%TO.P,\u03BCC1,34,B0*%
%TO.N,RD_DATA*%
X169290000Y-103680000D03*
%TO.P,\u03BCC1,35,B1*%
%TO.N,TIM3_CH4*%
X169290000Y-101140000D03*
%TO.P,\u03BCC1,36,B2*%
%TO.N,WR_PROTECT*%
X169290000Y-98600000D03*
%TO.P,\u03BCC1,37,B10*%
%TO.N,TIM2_CH3*%
X169290000Y-96060000D03*
%TO.P,\u03BCC1,38,3.3ii*%
%TO.N,unconnected-(\u03BCC1-3.3ii-Pad38)*%
X169290000Y-93520000D03*
%TO.P,\u03BCC1,39,GNDii*%
%TO.N,GND*%
X169290000Y-90980000D03*
D14*
%TO.P,\u03BCC1,40,5Vii*%
%TO.N,unconnected-(\u03BCC1-5Vii-Pad40)*%
X169290000Y-88440000D03*
D19*
%TO.P,\u03BCC1,41,3.3V*%
%TO.N,+3.3V*%
X157860000Y-132890000D03*
D11*
%TO.P,\u03BCC1,42,SDIO*%
%TO.N,SDIO*%
X160400000Y-132890000D03*
%TO.P,\u03BCC1,43,SCK*%
%TO.N,SCK*%
X162940000Y-132890000D03*
%TO.P,\u03BCC1,44,GND*%
%TO.N,GND*%
X165480000Y-132890000D03*
%TD*%
D14*
%TO.P,J1,1,Pin_1*%
%TO.N,VCC*%
X205000000Y-98810000D03*
D15*
%TO.P,J1,2,Pin_2*%
%TO.N,PWR_RD*%
X205000000Y-101350000D03*
%TD*%
D16*
%TO.P,ENTR1,1,1*%
%TO.N,+3.3V*%
X198540000Y-129700000D03*
X198540000Y-136200000D03*
%TO.P,ENTR1,2,2*%
%TO.N,BTN_ENTR*%
X194040000Y-129700000D03*
X194040000Y-136200000D03*
%TD*%
D14*
%TO.P,J6,1,Pin_1*%
%TO.N,+3.3V*%
X135000000Y-128180000D03*
D15*
%TO.P,J6,2,Pin_2*%
%TO.N,SDIO*%
X135000000Y-130720000D03*
%TO.P,J6,3,Pin_3*%
%TO.N,SCK*%
X135000000Y-133260000D03*
%TO.P,J6,4,Pin_4*%
%TO.N,GND*%
X135000000Y-135800000D03*
%TD*%
D20*
%TO.P,U8,1,GND*%
%TO.N,GND*%
X182980000Y-98950000D03*
D21*
%TO.P,U8,2,VCC_IN*%
%TO.N,+3.3V*%
X185520000Y-98950000D03*
%TO.P,U8,3,SCL*%
%TO.N,I2C_SCL*%
X188060000Y-98950000D03*
%TO.P,U8,4,SDA*%
%TO.N,I2C_SDA*%
X190600000Y-98950000D03*
D22*
%TO.P,U8,S1*%
%TO.N,N/C*%
X175790000Y-99450000D03*
%TO.P,U8,S2*%
X197790000Y-99450000D03*
%TO.P,U8,S3*%
X197790000Y-121450000D03*
%TO.P,U8,S4*%
X175790000Y-121450000D03*
%TD*%
D16*
%TO.P,RET1,1,1*%
%TO.N,+3.3V*%
X179540000Y-129700000D03*
X179540000Y-136200000D03*
%TO.P,RET1,2,2*%
%TO.N,BTN_RET*%
X175040000Y-129700000D03*
X175040000Y-136200000D03*
%TD*%
%TO.P,DOWN1,1,1*%
%TO.N,+3.3V*%
X183540000Y-134950000D03*
X190040000Y-134950000D03*
%TO.P,DOWN1,2,2*%
%TO.N,BTN_DOWN*%
X183540000Y-139450000D03*
X190040000Y-139450000D03*
%TD*%
D23*
%TO.N,GND*%
X136090000Y-96930000D03*
D24*
X144640000Y-103500000D03*
X137540000Y-92250000D03*
D23*
%TO.N,WR_REQ*%
X157190000Y-98500000D03*
%TO.N,WR_PROTECT*%
X201000000Y-95025000D03*
X195750000Y-95025000D03*
%TO.N,RD_DATA*%
X203050000Y-89500000D03*
%TO.N,SDIO_CMD*%
X141340000Y-108100000D03*
X166040000Y-108760000D03*
%TO.N,SDIO_D2*%
X139490000Y-106050000D03*
%TO.N,DEBUG*%
X132750000Y-99900000D03*
X132750000Y-96500000D03*
%TO.N,TIM3_CH4*%
X164940000Y-125250000D03*
%TO.N,SELECT*%
X160500000Y-125925000D03*
%TO.N,TIM2_CH3*%
X163490000Y-123900000D03*
%TD*%
D25*
%TO.N,GND*%
X132715000Y-111475000D02*
X134135000Y-110055000D01*
X132990000Y-103300000D02*
X132990000Y-109000000D01*
X178290000Y-92490000D02*
X180830000Y-92490000D01*
X134045000Y-110055000D02*
X135240000Y-110055000D01*
X170800000Y-92490000D02*
X169290000Y-90980000D01*
X135440000Y-102800000D02*
X133490000Y-102800000D01*
X133090000Y-137900000D02*
X132715000Y-137525000D01*
X144640000Y-103500000D02*
X143740000Y-104400000D01*
X136090000Y-96930000D02*
X136090000Y-102150000D01*
X136090000Y-96930000D02*
X136090000Y-93700000D01*
X154050000Y-134160000D02*
X149610000Y-138600000D01*
X132715000Y-126750000D02*
X132715000Y-111475000D01*
X132990000Y-109000000D02*
X134045000Y-110055000D01*
X178290000Y-92490000D02*
X170800000Y-92490000D01*
X136090000Y-93700000D02*
X137540000Y-92250000D01*
X132715000Y-126405000D02*
X132715000Y-126750000D01*
X133090000Y-137900000D02*
X135190000Y-135800000D01*
X180830000Y-92490000D02*
X183370000Y-92490000D01*
X136090000Y-102150000D02*
X135440000Y-102800000D01*
X132715000Y-137525000D02*
X132715000Y-126750000D01*
X134135000Y-110055000D02*
X135240000Y-110055000D01*
X133490000Y-102800000D02*
X132990000Y-103300000D01*
X135000000Y-124120000D02*
X132715000Y-126405000D01*
X149610000Y-138600000D02*
X133790000Y-138600000D01*
X143740000Y-104400000D02*
X141090000Y-104400000D01*
X141090000Y-104400000D02*
X139490000Y-102800000D01*
X133790000Y-138600000D02*
X133090000Y-137900000D01*
X139490000Y-102800000D02*
X135440000Y-102800000D01*
D26*
%TO.N,3.5DSK*%
X168835000Y-89665000D02*
X170515000Y-89665000D01*
X184685000Y-89532588D02*
X184685000Y-91265000D01*
X183452412Y-88300000D02*
X184685000Y-89532588D01*
X155275000Y-104995000D02*
X155275000Y-103225000D01*
X171880000Y-88300000D02*
X183452412Y-88300000D01*
X184685000Y-91265000D02*
X185910000Y-92490000D01*
X170515000Y-89665000D02*
X171880000Y-88300000D01*
X155275000Y-103225000D02*
X168835000Y-89665000D01*
X154050000Y-106220000D02*
X155275000Y-104995000D01*
%TO.N,WR_REQ*%
X201547106Y-86950000D02*
X206750000Y-92152894D01*
X188450000Y-89950000D02*
X191450000Y-86950000D01*
X166990000Y-86950000D02*
X185450000Y-86950000D01*
X206750000Y-119730000D02*
X205030000Y-121450000D01*
X185450000Y-86950000D02*
X188450000Y-89950000D01*
X157190000Y-96750000D02*
X166990000Y-86950000D01*
X191450000Y-86950000D02*
X201547106Y-86950000D01*
X206750000Y-92152894D02*
X206750000Y-119730000D01*
X157190000Y-98500000D02*
X157190000Y-96750000D01*
%TO.N,WR_PROTECT*%
X195750000Y-95025000D02*
X173815000Y-95025000D01*
X173815000Y-95025000D02*
X170240000Y-98600000D01*
X201250000Y-122750000D02*
X205030000Y-126530000D01*
X201000000Y-95025000D02*
X201250000Y-95275000D01*
X170240000Y-98600000D02*
X169290000Y-98600000D01*
X201250000Y-95275000D02*
X201250000Y-122750000D01*
%TO.N,BTN_RET*%
X131990000Y-137950000D02*
X133440000Y-139400000D01*
X171840000Y-139400000D02*
X175040000Y-136200000D01*
X133440000Y-139400000D02*
X171840000Y-139400000D01*
X153110000Y-87500000D02*
X133100000Y-87500000D01*
X133100000Y-87500000D02*
X131990000Y-88610000D01*
X131990000Y-88610000D02*
X131990000Y-137950000D01*
X154050000Y-88440000D02*
X153110000Y-87500000D01*
%TO.N,WR_DATA*%
X199835000Y-91175000D02*
X198610000Y-89950000D01*
X200500000Y-99400000D02*
X200500000Y-124540000D01*
X198300000Y-97200000D02*
X199835000Y-95665000D01*
X176520000Y-106220000D02*
X171440000Y-111300000D01*
X200500000Y-124540000D02*
X205030000Y-129070000D01*
X170040000Y-106200000D02*
X169514000Y-106726000D01*
X171440000Y-111300000D02*
X169290000Y-111300000D01*
X176520000Y-106220000D02*
X177540000Y-105200000D01*
X198300000Y-97200000D02*
X200500000Y-99400000D01*
X177540000Y-102050000D02*
X182390000Y-97200000D01*
X177540000Y-105200000D02*
X177540000Y-102050000D01*
X199835000Y-95665000D02*
X199835000Y-91175000D01*
X182390000Y-97200000D02*
X198300000Y-97200000D01*
X169985592Y-106200000D02*
X169647796Y-105862204D01*
X170040000Y-106200000D02*
X169985592Y-106200000D01*
X176520000Y-106220000D02*
X169290000Y-106220000D01*
%TO.N,RD_DATA*%
X171740000Y-101230000D02*
X169290000Y-103680000D01*
X175890000Y-95700000D02*
X171740000Y-99850000D01*
X196070000Y-89950000D02*
X197295000Y-91175000D01*
X197295000Y-91175000D02*
X197295000Y-94705000D01*
X203000000Y-89550000D02*
X203000000Y-116880000D01*
X203000000Y-116880000D02*
X205030000Y-118910000D01*
X203050000Y-89500000D02*
X203000000Y-89550000D01*
X196300000Y-95700000D02*
X175890000Y-95700000D01*
X197295000Y-94705000D02*
X196300000Y-95700000D01*
X168594408Y-103700000D02*
X168932204Y-104037796D01*
X171740000Y-99850000D02*
X171740000Y-101230000D01*
%TO.N,I2C_SDA*%
X168782588Y-117695000D02*
X168777588Y-117700000D01*
X169802412Y-117700000D02*
X169797412Y-117695000D01*
X168777588Y-117700000D02*
X161090000Y-117700000D01*
X169797412Y-117695000D02*
X168782588Y-117695000D01*
X161090000Y-117700000D02*
X154790000Y-124000000D01*
X176090000Y-117700000D02*
X169802412Y-117700000D01*
X190600000Y-98950000D02*
X190600000Y-103190000D01*
X190600000Y-103190000D02*
X176090000Y-117700000D01*
X154790000Y-124000000D02*
X154050000Y-124000000D01*
%TO.N,USART1_RX*%
X141565000Y-113840000D02*
X154050000Y-113840000D01*
X135240000Y-107515000D02*
X141565000Y-113840000D01*
%TO.N,I2C_SCL*%
X188060000Y-98950000D02*
X188060000Y-102480000D01*
X160360000Y-115150000D02*
X154050000Y-121460000D01*
X188060000Y-102480000D02*
X175390000Y-115150000D01*
X175390000Y-115150000D02*
X160360000Y-115150000D01*
%TO.N,USART1_TX*%
X141565000Y-111300000D02*
X154050000Y-111300000D01*
X135240000Y-104975000D02*
X141565000Y-111300000D01*
%TO.N,SDIO_CMD*%
X164815000Y-109985000D02*
X166040000Y-108760000D01*
X142975000Y-109985000D02*
X164815000Y-109985000D01*
X141340000Y-108100000D02*
X141340000Y-108350000D01*
X141340000Y-108350000D02*
X142975000Y-109985000D01*
%TO.N,SDIO_D2*%
X154000000Y-101140000D02*
X154050000Y-101140000D01*
X148490000Y-106650000D02*
X154000000Y-101140000D01*
X140090000Y-106650000D02*
X148490000Y-106650000D01*
X139490000Y-106050000D02*
X140090000Y-106650000D01*
%TO.N,DEBUG*%
X132750000Y-99900000D02*
X132750000Y-96500000D01*
%TO.N,TIM3_CH4*%
X164940000Y-125250000D02*
X162390000Y-127800000D01*
X143830000Y-127800000D02*
X135240000Y-119210000D01*
X162390000Y-127800000D02*
X143830000Y-127800000D01*
%TO.N,SELECT*%
X159885000Y-126540000D02*
X154050000Y-126540000D01*
X160500000Y-125925000D02*
X159885000Y-126540000D01*
%TO.N,DEVICE_ENABLE*%
X191290000Y-93950000D02*
X172000000Y-93950000D01*
X192290000Y-91190000D02*
X192290000Y-92950000D01*
X202375000Y-92997412D02*
X202000000Y-93372412D01*
X171200000Y-94750000D02*
X168340000Y-94750000D01*
X202000000Y-93372412D02*
X202000000Y-120960000D01*
X202000000Y-120960000D02*
X205030000Y-123990000D01*
X168340000Y-94750000D02*
X167390000Y-95700000D01*
X193530000Y-89950000D02*
X195330000Y-88150000D01*
X172000000Y-93950000D02*
X171200000Y-94750000D01*
X202040000Y-88150000D02*
X202375000Y-88485000D01*
X202375000Y-88485000D02*
X202375000Y-92997412D01*
X195330000Y-88150000D02*
X202040000Y-88150000D01*
X167390000Y-111940000D02*
X169290000Y-113840000D01*
X192290000Y-92950000D02*
X191290000Y-93950000D01*
X167390000Y-95700000D02*
X167390000Y-111940000D01*
X193530000Y-89950000D02*
X192290000Y-91190000D01*
%TO.N,TIM2_CH3*%
X162140000Y-125250000D02*
X143820000Y-125250000D01*
X163490000Y-123900000D02*
X162140000Y-125250000D01*
X143820000Y-125250000D02*
X135240000Y-116670000D01*
%TO.N,SCK*%
X156622412Y-135000000D02*
X154557412Y-132935000D01*
X135515000Y-132935000D02*
X135190000Y-133260000D01*
X148750000Y-134000000D02*
X138750000Y-134000000D01*
X138010000Y-133260000D02*
X135240000Y-133260000D01*
X162940000Y-132890000D02*
X160830000Y-135000000D01*
X149815000Y-132935000D02*
X148750000Y-134000000D01*
X160830000Y-135000000D02*
X156622412Y-135000000D01*
X154557412Y-132935000D02*
X149815000Y-132935000D01*
X138750000Y-134000000D02*
X138010000Y-133260000D01*
%TO.N,SDIO*%
X137780000Y-130720000D02*
X135240000Y-130720000D01*
X149250000Y-129750000D02*
X138750000Y-129750000D01*
X149895000Y-130395000D02*
X149250000Y-129750000D01*
X138750000Y-129750000D02*
X137780000Y-130720000D01*
X160400000Y-132890000D02*
X157905000Y-130395000D01*
X135655000Y-130305000D02*
X135240000Y-130720000D01*
X157905000Y-130395000D02*
X149895000Y-130395000D01*
X135605000Y-130305000D02*
X135190000Y-130720000D01*
%TD*%
%TA.AperFunction,Conductor*%
%TO.N,GND*%
G36*
X144234014Y-103228730D02*
G01*
X144234657Y-103229129D01*
X144638749Y-103497990D01*
X144642009Y-103501250D01*
X144910870Y-103905342D01*
X144912600Y-103914128D01*
X144907610Y-103921564D01*
X144906967Y-103921963D01*
X144124234Y-104372616D01*
X144115354Y-104373774D01*
X144110123Y-104370749D01*
X143769250Y-104029876D01*
X143765823Y-104021603D01*
X143767382Y-104015768D01*
X144218038Y-103233030D01*
X144225134Y-103227572D01*
X144234014Y-103228730D01*
G37*
%TD.AperFunction*%
%TD*%
%TA.AperFunction,Conductor*%
%TO.N,GND*%
G36*
X136374039Y-96986464D02*
G01*
X136381468Y-96991464D01*
X136383379Y-96998895D01*
X136340887Y-97513499D01*
X136336791Y-97521462D01*
X136329227Y-97524236D01*
X135850773Y-97524236D01*
X135842500Y-97520809D01*
X135839113Y-97513499D01*
X135796620Y-96998895D01*
X135799354Y-96990368D01*
X135805959Y-96986464D01*
X136087682Y-96929469D01*
X136092318Y-96929469D01*
X136374039Y-96986464D01*
G37*
%TD.AperFunction*%
%TD*%
%TA.AperFunction,Conductor*%
%TO.N,GND*%
G36*
X136337500Y-96339191D02*
G01*
X136340887Y-96346501D01*
X136383379Y-96861104D01*
X136380645Y-96869631D01*
X136374039Y-96873535D01*
X136092320Y-96930530D01*
X136087680Y-96930530D01*
X135805960Y-96873535D01*
X135798531Y-96868535D01*
X135796620Y-96861104D01*
X135839113Y-96346501D01*
X135843209Y-96338538D01*
X135850773Y-96335764D01*
X136329227Y-96335764D01*
X136337500Y-96339191D01*
G37*
%TD.AperFunction*%
%TD*%
%TA.AperFunction,Conductor*%
%TO.N,GND*%
G36*
X137134014Y-91978730D02*
G01*
X137134657Y-91979129D01*
X137538749Y-92247990D01*
X137542009Y-92251250D01*
X137810870Y-92655342D01*
X137812600Y-92664128D01*
X137807610Y-92671564D01*
X137806967Y-92671963D01*
X137024234Y-93122616D01*
X137015354Y-93123774D01*
X137010123Y-93120749D01*
X136669250Y-92779876D01*
X136665823Y-92771603D01*
X136667382Y-92765768D01*
X137118038Y-91983030D01*
X137125134Y-91977572D01*
X137134014Y-91978730D01*
G37*
%TD.AperFunction*%
%TD*%
%TA.AperFunction,Conductor*%
%TO.N,WR_REQ*%
G36*
X157314699Y-97909191D02*
G01*
X157317583Y-97913940D01*
X157480315Y-98429062D01*
X157479539Y-98437983D01*
X157472682Y-98443743D01*
X157471478Y-98444054D01*
X157192320Y-98500530D01*
X157187680Y-98500530D01*
X156954553Y-98453366D01*
X156908520Y-98444053D01*
X156901092Y-98439054D01*
X156899373Y-98430266D01*
X156899680Y-98429075D01*
X157062417Y-97913939D01*
X157068177Y-97907083D01*
X157073574Y-97905764D01*
X157306426Y-97905764D01*
X157314699Y-97909191D01*
G37*
%TD.AperFunction*%
%TD*%
%TA.AperFunction,Conductor*%
%TO.N,WR_PROTECT*%
G36*
X195687983Y-94735460D02*
G01*
X195693743Y-94742317D01*
X195694054Y-94743521D01*
X195750530Y-95022680D01*
X195750530Y-95027320D01*
X195694054Y-95306478D01*
X195689054Y-95313907D01*
X195680266Y-95315626D01*
X195679062Y-95315315D01*
X195163940Y-95152582D01*
X195157083Y-95146822D01*
X195155764Y-95141425D01*
X195155764Y-94908574D01*
X195159191Y-94900301D01*
X195163940Y-94897417D01*
X195679063Y-94734684D01*
X195687983Y-94735460D01*
G37*
%TD.AperFunction*%
%TD*%
%TA.AperFunction,Conductor*%
%TO.N,SDIO_CMD*%
G36*
X165800333Y-108599892D02*
G01*
X165801400Y-108600521D01*
X166027419Y-108750477D01*
X166038734Y-108757984D01*
X166042015Y-108761265D01*
X166199475Y-108998595D01*
X166201194Y-109007383D01*
X166196194Y-109014812D01*
X166195123Y-109015444D01*
X165715808Y-109264621D01*
X165706887Y-109265397D01*
X165702138Y-109262513D01*
X165537486Y-109097861D01*
X165534059Y-109089588D01*
X165535377Y-109084194D01*
X165784557Y-108604874D01*
X165791412Y-108599116D01*
X165800333Y-108599892D01*
G37*
%TD.AperFunction*%
%TD*%
%TA.AperFunction,Conductor*%
%TO.N,SDIO_CMD*%
G36*
X141630475Y-108045702D02*
G01*
X141635429Y-108053161D01*
X141635583Y-108054178D01*
X141684166Y-108512423D01*
X141681630Y-108521012D01*
X141680804Y-108521930D01*
X141516357Y-108686377D01*
X141508084Y-108689804D01*
X141499811Y-108686377D01*
X141499707Y-108686272D01*
X141100352Y-108276714D01*
X141097030Y-108268398D01*
X141100561Y-108260169D01*
X141102192Y-108258842D01*
X141337334Y-108100611D01*
X141341612Y-108098838D01*
X141621697Y-108043931D01*
X141630475Y-108045702D01*
G37*
%TD.AperFunction*%
%TD*%
%TA.AperFunction,Conductor*%
%TO.N,SDIO_D2*%
G36*
X139744812Y-105893805D02*
G01*
X139745444Y-105894876D01*
X139994621Y-106374191D01*
X139995397Y-106383112D01*
X139992513Y-106387861D01*
X139827861Y-106552513D01*
X139819588Y-106555940D01*
X139814191Y-106554621D01*
X139334876Y-106305444D01*
X139329116Y-106298587D01*
X139329892Y-106289666D01*
X139330516Y-106288607D01*
X139487985Y-106051263D01*
X139491263Y-106047985D01*
X139728596Y-105890523D01*
X139737383Y-105888805D01*
X139744812Y-105893805D01*
G37*
%TD.AperFunction*%
%TD*%
%TA.AperFunction,Conductor*%
%TO.N,TIM3_CH4*%
G36*
X164700333Y-125089892D02*
G01*
X164701400Y-125090521D01*
X164927419Y-125240477D01*
X164938734Y-125247984D01*
X164942015Y-125251265D01*
X165099475Y-125488595D01*
X165101194Y-125497383D01*
X165096194Y-125504812D01*
X165095123Y-125505444D01*
X164615808Y-125754621D01*
X164606887Y-125755397D01*
X164602138Y-125752513D01*
X164437486Y-125587861D01*
X164434059Y-125579588D01*
X164435377Y-125574194D01*
X164684557Y-125094874D01*
X164691412Y-125089116D01*
X164700333Y-125089892D01*
G37*
%TD.AperFunction*%
%TD*%
%TA.AperFunction,Conductor*%
%TO.N,SELECT*%
G36*
X160260333Y-125764892D02*
G01*
X160261400Y-125765521D01*
X160487419Y-125915477D01*
X160498734Y-125922984D01*
X160502015Y-125926265D01*
X160659475Y-126163595D01*
X160661194Y-126172383D01*
X160656194Y-126179812D01*
X160655123Y-126180444D01*
X160175808Y-126429621D01*
X160166887Y-126430397D01*
X160162138Y-126427513D01*
X159997486Y-126262861D01*
X159994059Y-126254588D01*
X159995377Y-126249194D01*
X160244557Y-125769874D01*
X160251412Y-125764116D01*
X160260333Y-125764892D01*
G37*
%TD.AperFunction*%
%TD*%
%TA.AperFunction,Conductor*%
%TO.N,TIM2_CH3*%
G36*
X163250333Y-123739892D02*
G01*
X163251400Y-123740521D01*
X163477419Y-123890477D01*
X163488734Y-123897984D01*
X163492015Y-123901265D01*
X163649475Y-124138595D01*
X163651194Y-124147383D01*
X163646194Y-124154812D01*
X163645123Y-124155444D01*
X163165808Y-124404621D01*
X163156887Y-124405397D01*
X163152138Y-124402513D01*
X162987486Y-124237861D01*
X162984059Y-124229588D01*
X162985377Y-124224194D01*
X163234557Y-123744874D01*
X163241412Y-123739116D01*
X163250333Y-123739892D01*
G37*
%TD.AperFunction*%
%TD*%
M02*
