%TF.GenerationSoftware,KiCad,Pcbnew,8.0.5*%
%TF.CreationDate,2024-11-21T15:57:14+01:00*%
%TF.ProjectId,sdiskII_stm32,73646973-6b49-4495-9f73-746d33322e6b,rev?*%
%TF.SameCoordinates,Original*%
%TF.FileFunction,Legend,Top*%
%TF.FilePolarity,Positive*%
%FSLAX46Y46*%
G04 Gerber Fmt 4.6, Leading zero omitted, Abs format (unit mm)*
G04 Created by KiCad (PCBNEW 8.0.5) date 2024-11-21 15:57:14*
%MOMM*%
%LPD*%
G01*
G04 APERTURE LIST*
%ADD10C,0.187500*%
%ADD11C,0.150000*%
%ADD12C,0.300000*%
%ADD13C,0.100000*%
%ADD14C,0.160000*%
%ADD15C,0.203200*%
%ADD16C,0.120000*%
%ADD17C,0.000000*%
%ADD18C,0.250000*%
%ADD19C,0.127000*%
%ADD20C,0.200000*%
G04 APERTURE END LIST*
D10*
X137258593Y-115867869D02*
X137830021Y-115867869D01*
X137544307Y-116867869D02*
X137544307Y-115867869D01*
X138163355Y-116867869D02*
X138163355Y-115867869D01*
X138639545Y-116867869D02*
X138639545Y-115867869D01*
X138639545Y-115867869D02*
X138972878Y-116582154D01*
X138972878Y-116582154D02*
X139306211Y-115867869D01*
X139306211Y-115867869D02*
X139306211Y-116867869D01*
X139734783Y-115963107D02*
X139782402Y-115915488D01*
X139782402Y-115915488D02*
X139877640Y-115867869D01*
X139877640Y-115867869D02*
X140115735Y-115867869D01*
X140115735Y-115867869D02*
X140210973Y-115915488D01*
X140210973Y-115915488D02*
X140258592Y-115963107D01*
X140258592Y-115963107D02*
X140306211Y-116058345D01*
X140306211Y-116058345D02*
X140306211Y-116153583D01*
X140306211Y-116153583D02*
X140258592Y-116296440D01*
X140258592Y-116296440D02*
X139687164Y-116867869D01*
X139687164Y-116867869D02*
X140306211Y-116867869D01*
X141306211Y-116772630D02*
X141258592Y-116820250D01*
X141258592Y-116820250D02*
X141115735Y-116867869D01*
X141115735Y-116867869D02*
X141020497Y-116867869D01*
X141020497Y-116867869D02*
X140877640Y-116820250D01*
X140877640Y-116820250D02*
X140782402Y-116725011D01*
X140782402Y-116725011D02*
X140734783Y-116629773D01*
X140734783Y-116629773D02*
X140687164Y-116439297D01*
X140687164Y-116439297D02*
X140687164Y-116296440D01*
X140687164Y-116296440D02*
X140734783Y-116105964D01*
X140734783Y-116105964D02*
X140782402Y-116010726D01*
X140782402Y-116010726D02*
X140877640Y-115915488D01*
X140877640Y-115915488D02*
X141020497Y-115867869D01*
X141020497Y-115867869D02*
X141115735Y-115867869D01*
X141115735Y-115867869D02*
X141258592Y-115915488D01*
X141258592Y-115915488D02*
X141306211Y-115963107D01*
X141734783Y-116867869D02*
X141734783Y-115867869D01*
X141734783Y-116344059D02*
X142306211Y-116344059D01*
X142306211Y-116867869D02*
X142306211Y-115867869D01*
X142687164Y-115867869D02*
X143306211Y-115867869D01*
X143306211Y-115867869D02*
X142972878Y-116248821D01*
X142972878Y-116248821D02*
X143115735Y-116248821D01*
X143115735Y-116248821D02*
X143210973Y-116296440D01*
X143210973Y-116296440D02*
X143258592Y-116344059D01*
X143258592Y-116344059D02*
X143306211Y-116439297D01*
X143306211Y-116439297D02*
X143306211Y-116677392D01*
X143306211Y-116677392D02*
X143258592Y-116772630D01*
X143258592Y-116772630D02*
X143210973Y-116820250D01*
X143210973Y-116820250D02*
X143115735Y-116867869D01*
X143115735Y-116867869D02*
X142830021Y-116867869D01*
X142830021Y-116867869D02*
X142734783Y-116820250D01*
X142734783Y-116820250D02*
X142687164Y-116772630D01*
X137385259Y-135415488D02*
X137290021Y-135367869D01*
X137290021Y-135367869D02*
X137147164Y-135367869D01*
X137147164Y-135367869D02*
X137004307Y-135415488D01*
X137004307Y-135415488D02*
X136909069Y-135510726D01*
X136909069Y-135510726D02*
X136861450Y-135605964D01*
X136861450Y-135605964D02*
X136813831Y-135796440D01*
X136813831Y-135796440D02*
X136813831Y-135939297D01*
X136813831Y-135939297D02*
X136861450Y-136129773D01*
X136861450Y-136129773D02*
X136909069Y-136225011D01*
X136909069Y-136225011D02*
X137004307Y-136320250D01*
X137004307Y-136320250D02*
X137147164Y-136367869D01*
X137147164Y-136367869D02*
X137242402Y-136367869D01*
X137242402Y-136367869D02*
X137385259Y-136320250D01*
X137385259Y-136320250D02*
X137432878Y-136272630D01*
X137432878Y-136272630D02*
X137432878Y-135939297D01*
X137432878Y-135939297D02*
X137242402Y-135939297D01*
X137861450Y-136367869D02*
X137861450Y-135367869D01*
X137861450Y-135367869D02*
X138432878Y-136367869D01*
X138432878Y-136367869D02*
X138432878Y-135367869D01*
X138909069Y-136367869D02*
X138909069Y-135367869D01*
X138909069Y-135367869D02*
X139147164Y-135367869D01*
X139147164Y-135367869D02*
X139290021Y-135415488D01*
X139290021Y-135415488D02*
X139385259Y-135510726D01*
X139385259Y-135510726D02*
X139432878Y-135605964D01*
X139432878Y-135605964D02*
X139480497Y-135796440D01*
X139480497Y-135796440D02*
X139480497Y-135939297D01*
X139480497Y-135939297D02*
X139432878Y-136129773D01*
X139432878Y-136129773D02*
X139385259Y-136225011D01*
X139385259Y-136225011D02*
X139290021Y-136320250D01*
X139290021Y-136320250D02*
X139147164Y-136367869D01*
X139147164Y-136367869D02*
X138909069Y-136367869D01*
X182605488Y-102564740D02*
X182557869Y-102659978D01*
X182557869Y-102659978D02*
X182557869Y-102802835D01*
X182557869Y-102802835D02*
X182605488Y-102945692D01*
X182605488Y-102945692D02*
X182700726Y-103040930D01*
X182700726Y-103040930D02*
X182795964Y-103088549D01*
X182795964Y-103088549D02*
X182986440Y-103136168D01*
X182986440Y-103136168D02*
X183129297Y-103136168D01*
X183129297Y-103136168D02*
X183319773Y-103088549D01*
X183319773Y-103088549D02*
X183415011Y-103040930D01*
X183415011Y-103040930D02*
X183510250Y-102945692D01*
X183510250Y-102945692D02*
X183557869Y-102802835D01*
X183557869Y-102802835D02*
X183557869Y-102707597D01*
X183557869Y-102707597D02*
X183510250Y-102564740D01*
X183510250Y-102564740D02*
X183462630Y-102517121D01*
X183462630Y-102517121D02*
X183129297Y-102517121D01*
X183129297Y-102517121D02*
X183129297Y-102707597D01*
X183557869Y-102088549D02*
X182557869Y-102088549D01*
X182557869Y-102088549D02*
X183557869Y-101517121D01*
X183557869Y-101517121D02*
X182557869Y-101517121D01*
X183557869Y-101040930D02*
X182557869Y-101040930D01*
X182557869Y-101040930D02*
X182557869Y-100802835D01*
X182557869Y-100802835D02*
X182605488Y-100659978D01*
X182605488Y-100659978D02*
X182700726Y-100564740D01*
X182700726Y-100564740D02*
X182795964Y-100517121D01*
X182795964Y-100517121D02*
X182986440Y-100469502D01*
X182986440Y-100469502D02*
X183129297Y-100469502D01*
X183129297Y-100469502D02*
X183319773Y-100517121D01*
X183319773Y-100517121D02*
X183415011Y-100564740D01*
X183415011Y-100564740D02*
X183510250Y-100659978D01*
X183510250Y-100659978D02*
X183557869Y-100802835D01*
X183557869Y-100802835D02*
X183557869Y-101040930D01*
X200266212Y-109617869D02*
X200504307Y-110617869D01*
X200504307Y-110617869D02*
X200694783Y-109903583D01*
X200694783Y-109903583D02*
X200885259Y-110617869D01*
X200885259Y-110617869D02*
X201123355Y-109617869D01*
X202075735Y-110617869D02*
X201742402Y-110141678D01*
X201504307Y-110617869D02*
X201504307Y-109617869D01*
X201504307Y-109617869D02*
X201885259Y-109617869D01*
X201885259Y-109617869D02*
X201980497Y-109665488D01*
X201980497Y-109665488D02*
X202028116Y-109713107D01*
X202028116Y-109713107D02*
X202075735Y-109808345D01*
X202075735Y-109808345D02*
X202075735Y-109951202D01*
X202075735Y-109951202D02*
X202028116Y-110046440D01*
X202028116Y-110046440D02*
X201980497Y-110094059D01*
X201980497Y-110094059D02*
X201885259Y-110141678D01*
X201885259Y-110141678D02*
X201504307Y-110141678D01*
X203170973Y-110713107D02*
X203075735Y-110665488D01*
X203075735Y-110665488D02*
X202980497Y-110570250D01*
X202980497Y-110570250D02*
X202837640Y-110427392D01*
X202837640Y-110427392D02*
X202742402Y-110379773D01*
X202742402Y-110379773D02*
X202647164Y-110379773D01*
X202694783Y-110617869D02*
X202599545Y-110570250D01*
X202599545Y-110570250D02*
X202504307Y-110475011D01*
X202504307Y-110475011D02*
X202456688Y-110284535D01*
X202456688Y-110284535D02*
X202456688Y-109951202D01*
X202456688Y-109951202D02*
X202504307Y-109760726D01*
X202504307Y-109760726D02*
X202599545Y-109665488D01*
X202599545Y-109665488D02*
X202694783Y-109617869D01*
X202694783Y-109617869D02*
X202885259Y-109617869D01*
X202885259Y-109617869D02*
X202980497Y-109665488D01*
X202980497Y-109665488D02*
X203075735Y-109760726D01*
X203075735Y-109760726D02*
X203123354Y-109951202D01*
X203123354Y-109951202D02*
X203123354Y-110284535D01*
X203123354Y-110284535D02*
X203075735Y-110475011D01*
X203075735Y-110475011D02*
X202980497Y-110570250D01*
X202980497Y-110570250D02*
X202885259Y-110617869D01*
X202885259Y-110617869D02*
X202694783Y-110617869D01*
X137258593Y-118367869D02*
X137830021Y-118367869D01*
X137544307Y-119367869D02*
X137544307Y-118367869D01*
X138163355Y-119367869D02*
X138163355Y-118367869D01*
X138639545Y-119367869D02*
X138639545Y-118367869D01*
X138639545Y-118367869D02*
X138972878Y-119082154D01*
X138972878Y-119082154D02*
X139306211Y-118367869D01*
X139306211Y-118367869D02*
X139306211Y-119367869D01*
X139687164Y-118367869D02*
X140306211Y-118367869D01*
X140306211Y-118367869D02*
X139972878Y-118748821D01*
X139972878Y-118748821D02*
X140115735Y-118748821D01*
X140115735Y-118748821D02*
X140210973Y-118796440D01*
X140210973Y-118796440D02*
X140258592Y-118844059D01*
X140258592Y-118844059D02*
X140306211Y-118939297D01*
X140306211Y-118939297D02*
X140306211Y-119177392D01*
X140306211Y-119177392D02*
X140258592Y-119272630D01*
X140258592Y-119272630D02*
X140210973Y-119320250D01*
X140210973Y-119320250D02*
X140115735Y-119367869D01*
X140115735Y-119367869D02*
X139830021Y-119367869D01*
X139830021Y-119367869D02*
X139734783Y-119320250D01*
X139734783Y-119320250D02*
X139687164Y-119272630D01*
X141306211Y-119272630D02*
X141258592Y-119320250D01*
X141258592Y-119320250D02*
X141115735Y-119367869D01*
X141115735Y-119367869D02*
X141020497Y-119367869D01*
X141020497Y-119367869D02*
X140877640Y-119320250D01*
X140877640Y-119320250D02*
X140782402Y-119225011D01*
X140782402Y-119225011D02*
X140734783Y-119129773D01*
X140734783Y-119129773D02*
X140687164Y-118939297D01*
X140687164Y-118939297D02*
X140687164Y-118796440D01*
X140687164Y-118796440D02*
X140734783Y-118605964D01*
X140734783Y-118605964D02*
X140782402Y-118510726D01*
X140782402Y-118510726D02*
X140877640Y-118415488D01*
X140877640Y-118415488D02*
X141020497Y-118367869D01*
X141020497Y-118367869D02*
X141115735Y-118367869D01*
X141115735Y-118367869D02*
X141258592Y-118415488D01*
X141258592Y-118415488D02*
X141306211Y-118463107D01*
X141734783Y-119367869D02*
X141734783Y-118367869D01*
X141734783Y-118844059D02*
X142306211Y-118844059D01*
X142306211Y-119367869D02*
X142306211Y-118367869D01*
X143210973Y-118701202D02*
X143210973Y-119367869D01*
X142972878Y-118320250D02*
X142734783Y-119034535D01*
X142734783Y-119034535D02*
X143353830Y-119034535D01*
X200216212Y-114617869D02*
X200454307Y-115617869D01*
X200454307Y-115617869D02*
X200644783Y-114903583D01*
X200644783Y-114903583D02*
X200835259Y-115617869D01*
X200835259Y-115617869D02*
X201073355Y-114617869D01*
X202025735Y-115617869D02*
X201692402Y-115141678D01*
X201454307Y-115617869D02*
X201454307Y-114617869D01*
X201454307Y-114617869D02*
X201835259Y-114617869D01*
X201835259Y-114617869D02*
X201930497Y-114665488D01*
X201930497Y-114665488D02*
X201978116Y-114713107D01*
X201978116Y-114713107D02*
X202025735Y-114808345D01*
X202025735Y-114808345D02*
X202025735Y-114951202D01*
X202025735Y-114951202D02*
X201978116Y-115046440D01*
X201978116Y-115046440D02*
X201930497Y-115094059D01*
X201930497Y-115094059D02*
X201835259Y-115141678D01*
X201835259Y-115141678D02*
X201454307Y-115141678D01*
X202454307Y-115617869D02*
X202454307Y-114617869D01*
X202454307Y-114617869D02*
X202835259Y-114617869D01*
X202835259Y-114617869D02*
X202930497Y-114665488D01*
X202930497Y-114665488D02*
X202978116Y-114713107D01*
X202978116Y-114713107D02*
X203025735Y-114808345D01*
X203025735Y-114808345D02*
X203025735Y-114951202D01*
X203025735Y-114951202D02*
X202978116Y-115046440D01*
X202978116Y-115046440D02*
X202930497Y-115094059D01*
X202930497Y-115094059D02*
X202835259Y-115141678D01*
X202835259Y-115141678D02*
X202454307Y-115141678D01*
X136563831Y-131070250D02*
X136706688Y-131117869D01*
X136706688Y-131117869D02*
X136944783Y-131117869D01*
X136944783Y-131117869D02*
X137040021Y-131070250D01*
X137040021Y-131070250D02*
X137087640Y-131022630D01*
X137087640Y-131022630D02*
X137135259Y-130927392D01*
X137135259Y-130927392D02*
X137135259Y-130832154D01*
X137135259Y-130832154D02*
X137087640Y-130736916D01*
X137087640Y-130736916D02*
X137040021Y-130689297D01*
X137040021Y-130689297D02*
X136944783Y-130641678D01*
X136944783Y-130641678D02*
X136754307Y-130594059D01*
X136754307Y-130594059D02*
X136659069Y-130546440D01*
X136659069Y-130546440D02*
X136611450Y-130498821D01*
X136611450Y-130498821D02*
X136563831Y-130403583D01*
X136563831Y-130403583D02*
X136563831Y-130308345D01*
X136563831Y-130308345D02*
X136611450Y-130213107D01*
X136611450Y-130213107D02*
X136659069Y-130165488D01*
X136659069Y-130165488D02*
X136754307Y-130117869D01*
X136754307Y-130117869D02*
X136992402Y-130117869D01*
X136992402Y-130117869D02*
X137135259Y-130165488D01*
X137563831Y-131117869D02*
X137563831Y-130117869D01*
X137563831Y-130117869D02*
X137801926Y-130117869D01*
X137801926Y-130117869D02*
X137944783Y-130165488D01*
X137944783Y-130165488D02*
X138040021Y-130260726D01*
X138040021Y-130260726D02*
X138087640Y-130355964D01*
X138087640Y-130355964D02*
X138135259Y-130546440D01*
X138135259Y-130546440D02*
X138135259Y-130689297D01*
X138135259Y-130689297D02*
X138087640Y-130879773D01*
X138087640Y-130879773D02*
X138040021Y-130975011D01*
X138040021Y-130975011D02*
X137944783Y-131070250D01*
X137944783Y-131070250D02*
X137801926Y-131117869D01*
X137801926Y-131117869D02*
X137563831Y-131117869D01*
X138563831Y-131117869D02*
X138563831Y-130117869D01*
X139230497Y-130117869D02*
X139420973Y-130117869D01*
X139420973Y-130117869D02*
X139516211Y-130165488D01*
X139516211Y-130165488D02*
X139611449Y-130260726D01*
X139611449Y-130260726D02*
X139659068Y-130451202D01*
X139659068Y-130451202D02*
X139659068Y-130784535D01*
X139659068Y-130784535D02*
X139611449Y-130975011D01*
X139611449Y-130975011D02*
X139516211Y-131070250D01*
X139516211Y-131070250D02*
X139420973Y-131117869D01*
X139420973Y-131117869D02*
X139230497Y-131117869D01*
X139230497Y-131117869D02*
X139135259Y-131070250D01*
X139135259Y-131070250D02*
X139040021Y-130975011D01*
X139040021Y-130975011D02*
X138992402Y-130784535D01*
X138992402Y-130784535D02*
X138992402Y-130451202D01*
X138992402Y-130451202D02*
X139040021Y-130260726D01*
X139040021Y-130260726D02*
X139135259Y-130165488D01*
X139135259Y-130165488D02*
X139230497Y-130117869D01*
X157603831Y-114820250D02*
X157746688Y-114867869D01*
X157746688Y-114867869D02*
X157984783Y-114867869D01*
X157984783Y-114867869D02*
X158080021Y-114820250D01*
X158080021Y-114820250D02*
X158127640Y-114772630D01*
X158127640Y-114772630D02*
X158175259Y-114677392D01*
X158175259Y-114677392D02*
X158175259Y-114582154D01*
X158175259Y-114582154D02*
X158127640Y-114486916D01*
X158127640Y-114486916D02*
X158080021Y-114439297D01*
X158080021Y-114439297D02*
X157984783Y-114391678D01*
X157984783Y-114391678D02*
X157794307Y-114344059D01*
X157794307Y-114344059D02*
X157699069Y-114296440D01*
X157699069Y-114296440D02*
X157651450Y-114248821D01*
X157651450Y-114248821D02*
X157603831Y-114153583D01*
X157603831Y-114153583D02*
X157603831Y-114058345D01*
X157603831Y-114058345D02*
X157651450Y-113963107D01*
X157651450Y-113963107D02*
X157699069Y-113915488D01*
X157699069Y-113915488D02*
X157794307Y-113867869D01*
X157794307Y-113867869D02*
X158032402Y-113867869D01*
X158032402Y-113867869D02*
X158175259Y-113915488D01*
X158460974Y-113867869D02*
X159032402Y-113867869D01*
X158746688Y-114867869D02*
X158746688Y-113867869D01*
X159365736Y-114867869D02*
X159365736Y-113867869D01*
X159365736Y-113867869D02*
X159699069Y-114582154D01*
X159699069Y-114582154D02*
X160032402Y-113867869D01*
X160032402Y-113867869D02*
X160032402Y-114867869D01*
X160413355Y-113867869D02*
X161032402Y-113867869D01*
X161032402Y-113867869D02*
X160699069Y-114248821D01*
X160699069Y-114248821D02*
X160841926Y-114248821D01*
X160841926Y-114248821D02*
X160937164Y-114296440D01*
X160937164Y-114296440D02*
X160984783Y-114344059D01*
X160984783Y-114344059D02*
X161032402Y-114439297D01*
X161032402Y-114439297D02*
X161032402Y-114677392D01*
X161032402Y-114677392D02*
X160984783Y-114772630D01*
X160984783Y-114772630D02*
X160937164Y-114820250D01*
X160937164Y-114820250D02*
X160841926Y-114867869D01*
X160841926Y-114867869D02*
X160556212Y-114867869D01*
X160556212Y-114867869D02*
X160460974Y-114820250D01*
X160460974Y-114820250D02*
X160413355Y-114772630D01*
X161413355Y-113963107D02*
X161460974Y-113915488D01*
X161460974Y-113915488D02*
X161556212Y-113867869D01*
X161556212Y-113867869D02*
X161794307Y-113867869D01*
X161794307Y-113867869D02*
X161889545Y-113915488D01*
X161889545Y-113915488D02*
X161937164Y-113963107D01*
X161937164Y-113963107D02*
X161984783Y-114058345D01*
X161984783Y-114058345D02*
X161984783Y-114153583D01*
X161984783Y-114153583D02*
X161937164Y-114296440D01*
X161937164Y-114296440D02*
X161365736Y-114867869D01*
X161365736Y-114867869D02*
X161984783Y-114867869D01*
X162746688Y-114344059D02*
X162413355Y-114344059D01*
X162413355Y-114867869D02*
X162413355Y-113867869D01*
X162413355Y-113867869D02*
X162889545Y-113867869D01*
X163699069Y-114201202D02*
X163699069Y-114867869D01*
X163460974Y-113820250D02*
X163222879Y-114534535D01*
X163222879Y-114534535D02*
X163841926Y-114534535D01*
X164746688Y-114867869D02*
X164175260Y-114867869D01*
X164460974Y-114867869D02*
X164460974Y-113867869D01*
X164460974Y-113867869D02*
X164365736Y-114010726D01*
X164365736Y-114010726D02*
X164270498Y-114105964D01*
X164270498Y-114105964D02*
X164175260Y-114153583D01*
X165699069Y-114867869D02*
X165127641Y-114867869D01*
X165413355Y-114867869D02*
X165413355Y-113867869D01*
X165413355Y-113867869D02*
X165318117Y-114010726D01*
X165318117Y-114010726D02*
X165222879Y-114105964D01*
X165222879Y-114105964D02*
X165127641Y-114153583D01*
X133070250Y-134686168D02*
X133117869Y-134543311D01*
X133117869Y-134543311D02*
X133117869Y-134305216D01*
X133117869Y-134305216D02*
X133070250Y-134209978D01*
X133070250Y-134209978D02*
X133022630Y-134162359D01*
X133022630Y-134162359D02*
X132927392Y-134114740D01*
X132927392Y-134114740D02*
X132832154Y-134114740D01*
X132832154Y-134114740D02*
X132736916Y-134162359D01*
X132736916Y-134162359D02*
X132689297Y-134209978D01*
X132689297Y-134209978D02*
X132641678Y-134305216D01*
X132641678Y-134305216D02*
X132594059Y-134495692D01*
X132594059Y-134495692D02*
X132546440Y-134590930D01*
X132546440Y-134590930D02*
X132498821Y-134638549D01*
X132498821Y-134638549D02*
X132403583Y-134686168D01*
X132403583Y-134686168D02*
X132308345Y-134686168D01*
X132308345Y-134686168D02*
X132213107Y-134638549D01*
X132213107Y-134638549D02*
X132165488Y-134590930D01*
X132165488Y-134590930D02*
X132117869Y-134495692D01*
X132117869Y-134495692D02*
X132117869Y-134257597D01*
X132117869Y-134257597D02*
X132165488Y-134114740D01*
X132117869Y-133829025D02*
X132117869Y-133257597D01*
X133117869Y-133543311D02*
X132117869Y-133543311D01*
X133117869Y-132448073D02*
X133117869Y-132924263D01*
X133117869Y-132924263D02*
X132117869Y-132924263D01*
X133117869Y-132114739D02*
X132117869Y-132114739D01*
X133117869Y-131638549D02*
X132117869Y-131638549D01*
X132117869Y-131638549D02*
X133117869Y-131067121D01*
X133117869Y-131067121D02*
X132117869Y-131067121D01*
X133117869Y-130590930D02*
X132117869Y-130590930D01*
X133117869Y-130019502D02*
X132546440Y-130448073D01*
X132117869Y-130019502D02*
X132689297Y-130590930D01*
X188610250Y-102986168D02*
X188657869Y-102843311D01*
X188657869Y-102843311D02*
X188657869Y-102605216D01*
X188657869Y-102605216D02*
X188610250Y-102509978D01*
X188610250Y-102509978D02*
X188562630Y-102462359D01*
X188562630Y-102462359D02*
X188467392Y-102414740D01*
X188467392Y-102414740D02*
X188372154Y-102414740D01*
X188372154Y-102414740D02*
X188276916Y-102462359D01*
X188276916Y-102462359D02*
X188229297Y-102509978D01*
X188229297Y-102509978D02*
X188181678Y-102605216D01*
X188181678Y-102605216D02*
X188134059Y-102795692D01*
X188134059Y-102795692D02*
X188086440Y-102890930D01*
X188086440Y-102890930D02*
X188038821Y-102938549D01*
X188038821Y-102938549D02*
X187943583Y-102986168D01*
X187943583Y-102986168D02*
X187848345Y-102986168D01*
X187848345Y-102986168D02*
X187753107Y-102938549D01*
X187753107Y-102938549D02*
X187705488Y-102890930D01*
X187705488Y-102890930D02*
X187657869Y-102795692D01*
X187657869Y-102795692D02*
X187657869Y-102557597D01*
X187657869Y-102557597D02*
X187705488Y-102414740D01*
X188562630Y-101414740D02*
X188610250Y-101462359D01*
X188610250Y-101462359D02*
X188657869Y-101605216D01*
X188657869Y-101605216D02*
X188657869Y-101700454D01*
X188657869Y-101700454D02*
X188610250Y-101843311D01*
X188610250Y-101843311D02*
X188515011Y-101938549D01*
X188515011Y-101938549D02*
X188419773Y-101986168D01*
X188419773Y-101986168D02*
X188229297Y-102033787D01*
X188229297Y-102033787D02*
X188086440Y-102033787D01*
X188086440Y-102033787D02*
X187895964Y-101986168D01*
X187895964Y-101986168D02*
X187800726Y-101938549D01*
X187800726Y-101938549D02*
X187705488Y-101843311D01*
X187705488Y-101843311D02*
X187657869Y-101700454D01*
X187657869Y-101700454D02*
X187657869Y-101605216D01*
X187657869Y-101605216D02*
X187705488Y-101462359D01*
X187705488Y-101462359D02*
X187753107Y-101414740D01*
X188657869Y-100509978D02*
X188657869Y-100986168D01*
X188657869Y-100986168D02*
X187657869Y-100986168D01*
X200932878Y-108117869D02*
X200599545Y-107641678D01*
X200361450Y-108117869D02*
X200361450Y-107117869D01*
X200361450Y-107117869D02*
X200742402Y-107117869D01*
X200742402Y-107117869D02*
X200837640Y-107165488D01*
X200837640Y-107165488D02*
X200885259Y-107213107D01*
X200885259Y-107213107D02*
X200932878Y-107308345D01*
X200932878Y-107308345D02*
X200932878Y-107451202D01*
X200932878Y-107451202D02*
X200885259Y-107546440D01*
X200885259Y-107546440D02*
X200837640Y-107594059D01*
X200837640Y-107594059D02*
X200742402Y-107641678D01*
X200742402Y-107641678D02*
X200361450Y-107641678D01*
X201361450Y-108117869D02*
X201361450Y-107117869D01*
X201361450Y-107117869D02*
X201599545Y-107117869D01*
X201599545Y-107117869D02*
X201742402Y-107165488D01*
X201742402Y-107165488D02*
X201837640Y-107260726D01*
X201837640Y-107260726D02*
X201885259Y-107355964D01*
X201885259Y-107355964D02*
X201932878Y-107546440D01*
X201932878Y-107546440D02*
X201932878Y-107689297D01*
X201932878Y-107689297D02*
X201885259Y-107879773D01*
X201885259Y-107879773D02*
X201837640Y-107975011D01*
X201837640Y-107975011D02*
X201742402Y-108070250D01*
X201742402Y-108070250D02*
X201599545Y-108117869D01*
X201599545Y-108117869D02*
X201361450Y-108117869D01*
X202361450Y-108117869D02*
X202361450Y-107117869D01*
X202361450Y-107117869D02*
X202599545Y-107117869D01*
X202599545Y-107117869D02*
X202742402Y-107165488D01*
X202742402Y-107165488D02*
X202837640Y-107260726D01*
X202837640Y-107260726D02*
X202885259Y-107355964D01*
X202885259Y-107355964D02*
X202932878Y-107546440D01*
X202932878Y-107546440D02*
X202932878Y-107689297D01*
X202932878Y-107689297D02*
X202885259Y-107879773D01*
X202885259Y-107879773D02*
X202837640Y-107975011D01*
X202837640Y-107975011D02*
X202742402Y-108070250D01*
X202742402Y-108070250D02*
X202599545Y-108117869D01*
X202599545Y-108117869D02*
X202361450Y-108117869D01*
X163769500Y-140094059D02*
X163912357Y-140141678D01*
X163912357Y-140141678D02*
X163959976Y-140189297D01*
X163959976Y-140189297D02*
X164007595Y-140284535D01*
X164007595Y-140284535D02*
X164007595Y-140427392D01*
X164007595Y-140427392D02*
X163959976Y-140522630D01*
X163959976Y-140522630D02*
X163912357Y-140570250D01*
X163912357Y-140570250D02*
X163817119Y-140617869D01*
X163817119Y-140617869D02*
X163436167Y-140617869D01*
X163436167Y-140617869D02*
X163436167Y-139617869D01*
X163436167Y-139617869D02*
X163769500Y-139617869D01*
X163769500Y-139617869D02*
X163864738Y-139665488D01*
X163864738Y-139665488D02*
X163912357Y-139713107D01*
X163912357Y-139713107D02*
X163959976Y-139808345D01*
X163959976Y-139808345D02*
X163959976Y-139903583D01*
X163959976Y-139903583D02*
X163912357Y-139998821D01*
X163912357Y-139998821D02*
X163864738Y-140046440D01*
X163864738Y-140046440D02*
X163769500Y-140094059D01*
X163769500Y-140094059D02*
X163436167Y-140094059D01*
X164579024Y-140617869D02*
X164483786Y-140570250D01*
X164483786Y-140570250D02*
X164436167Y-140522630D01*
X164436167Y-140522630D02*
X164388548Y-140427392D01*
X164388548Y-140427392D02*
X164388548Y-140141678D01*
X164388548Y-140141678D02*
X164436167Y-140046440D01*
X164436167Y-140046440D02*
X164483786Y-139998821D01*
X164483786Y-139998821D02*
X164579024Y-139951202D01*
X164579024Y-139951202D02*
X164721881Y-139951202D01*
X164721881Y-139951202D02*
X164817119Y-139998821D01*
X164817119Y-139998821D02*
X164864738Y-140046440D01*
X164864738Y-140046440D02*
X164912357Y-140141678D01*
X164912357Y-140141678D02*
X164912357Y-140427392D01*
X164912357Y-140427392D02*
X164864738Y-140522630D01*
X164864738Y-140522630D02*
X164817119Y-140570250D01*
X164817119Y-140570250D02*
X164721881Y-140617869D01*
X164721881Y-140617869D02*
X164579024Y-140617869D01*
X165769500Y-140617869D02*
X165769500Y-140094059D01*
X165769500Y-140094059D02*
X165721881Y-139998821D01*
X165721881Y-139998821D02*
X165626643Y-139951202D01*
X165626643Y-139951202D02*
X165436167Y-139951202D01*
X165436167Y-139951202D02*
X165340929Y-139998821D01*
X165769500Y-140570250D02*
X165674262Y-140617869D01*
X165674262Y-140617869D02*
X165436167Y-140617869D01*
X165436167Y-140617869D02*
X165340929Y-140570250D01*
X165340929Y-140570250D02*
X165293310Y-140475011D01*
X165293310Y-140475011D02*
X165293310Y-140379773D01*
X165293310Y-140379773D02*
X165340929Y-140284535D01*
X165340929Y-140284535D02*
X165436167Y-140236916D01*
X165436167Y-140236916D02*
X165674262Y-140236916D01*
X165674262Y-140236916D02*
X165769500Y-140189297D01*
X166245691Y-140617869D02*
X166245691Y-139951202D01*
X166245691Y-140141678D02*
X166293310Y-140046440D01*
X166293310Y-140046440D02*
X166340929Y-139998821D01*
X166340929Y-139998821D02*
X166436167Y-139951202D01*
X166436167Y-139951202D02*
X166531405Y-139951202D01*
X167293310Y-140617869D02*
X167293310Y-139617869D01*
X167293310Y-140570250D02*
X167198072Y-140617869D01*
X167198072Y-140617869D02*
X167007596Y-140617869D01*
X167007596Y-140617869D02*
X166912358Y-140570250D01*
X166912358Y-140570250D02*
X166864739Y-140522630D01*
X166864739Y-140522630D02*
X166817120Y-140427392D01*
X166817120Y-140427392D02*
X166817120Y-140141678D01*
X166817120Y-140141678D02*
X166864739Y-140046440D01*
X166864739Y-140046440D02*
X166912358Y-139998821D01*
X166912358Y-139998821D02*
X167007596Y-139951202D01*
X167007596Y-139951202D02*
X167198072Y-139951202D01*
X167198072Y-139951202D02*
X167293310Y-139998821D01*
X169102834Y-140617869D02*
X168769501Y-140141678D01*
X168531406Y-140617869D02*
X168531406Y-139617869D01*
X168531406Y-139617869D02*
X168912358Y-139617869D01*
X168912358Y-139617869D02*
X169007596Y-139665488D01*
X169007596Y-139665488D02*
X169055215Y-139713107D01*
X169055215Y-139713107D02*
X169102834Y-139808345D01*
X169102834Y-139808345D02*
X169102834Y-139951202D01*
X169102834Y-139951202D02*
X169055215Y-140046440D01*
X169055215Y-140046440D02*
X169007596Y-140094059D01*
X169007596Y-140094059D02*
X168912358Y-140141678D01*
X168912358Y-140141678D02*
X168531406Y-140141678D01*
X169912358Y-140570250D02*
X169817120Y-140617869D01*
X169817120Y-140617869D02*
X169626644Y-140617869D01*
X169626644Y-140617869D02*
X169531406Y-140570250D01*
X169531406Y-140570250D02*
X169483787Y-140475011D01*
X169483787Y-140475011D02*
X169483787Y-140094059D01*
X169483787Y-140094059D02*
X169531406Y-139998821D01*
X169531406Y-139998821D02*
X169626644Y-139951202D01*
X169626644Y-139951202D02*
X169817120Y-139951202D01*
X169817120Y-139951202D02*
X169912358Y-139998821D01*
X169912358Y-139998821D02*
X169959977Y-140094059D01*
X169959977Y-140094059D02*
X169959977Y-140189297D01*
X169959977Y-140189297D02*
X169483787Y-140284535D01*
X170293311Y-139951202D02*
X170531406Y-140617869D01*
X170531406Y-140617869D02*
X170769501Y-139951202D01*
X171864740Y-139713107D02*
X171912359Y-139665488D01*
X171912359Y-139665488D02*
X172007597Y-139617869D01*
X172007597Y-139617869D02*
X172245692Y-139617869D01*
X172245692Y-139617869D02*
X172340930Y-139665488D01*
X172340930Y-139665488D02*
X172388549Y-139713107D01*
X172388549Y-139713107D02*
X172436168Y-139808345D01*
X172436168Y-139808345D02*
X172436168Y-139903583D01*
X172436168Y-139903583D02*
X172388549Y-140046440D01*
X172388549Y-140046440D02*
X171817121Y-140617869D01*
X171817121Y-140617869D02*
X172436168Y-140617869D01*
X185776916Y-104688549D02*
X185776916Y-103926645D01*
X186157869Y-104307597D02*
X185395964Y-104307597D01*
X185157869Y-103545692D02*
X185157869Y-102926645D01*
X185157869Y-102926645D02*
X185538821Y-103259978D01*
X185538821Y-103259978D02*
X185538821Y-103117121D01*
X185538821Y-103117121D02*
X185586440Y-103021883D01*
X185586440Y-103021883D02*
X185634059Y-102974264D01*
X185634059Y-102974264D02*
X185729297Y-102926645D01*
X185729297Y-102926645D02*
X185967392Y-102926645D01*
X185967392Y-102926645D02*
X186062630Y-102974264D01*
X186062630Y-102974264D02*
X186110250Y-103021883D01*
X186110250Y-103021883D02*
X186157869Y-103117121D01*
X186157869Y-103117121D02*
X186157869Y-103402835D01*
X186157869Y-103402835D02*
X186110250Y-103498073D01*
X186110250Y-103498073D02*
X186062630Y-103545692D01*
X186062630Y-102498073D02*
X186110250Y-102450454D01*
X186110250Y-102450454D02*
X186157869Y-102498073D01*
X186157869Y-102498073D02*
X186110250Y-102545692D01*
X186110250Y-102545692D02*
X186062630Y-102498073D01*
X186062630Y-102498073D02*
X186157869Y-102498073D01*
X185157869Y-102117121D02*
X185157869Y-101498074D01*
X185157869Y-101498074D02*
X185538821Y-101831407D01*
X185538821Y-101831407D02*
X185538821Y-101688550D01*
X185538821Y-101688550D02*
X185586440Y-101593312D01*
X185586440Y-101593312D02*
X185634059Y-101545693D01*
X185634059Y-101545693D02*
X185729297Y-101498074D01*
X185729297Y-101498074D02*
X185967392Y-101498074D01*
X185967392Y-101498074D02*
X186062630Y-101545693D01*
X186062630Y-101545693D02*
X186110250Y-101593312D01*
X186110250Y-101593312D02*
X186157869Y-101688550D01*
X186157869Y-101688550D02*
X186157869Y-101974264D01*
X186157869Y-101974264D02*
X186110250Y-102069502D01*
X186110250Y-102069502D02*
X186062630Y-102117121D01*
X185157869Y-101212359D02*
X186157869Y-100879026D01*
X186157869Y-100879026D02*
X185157869Y-100545693D01*
X191160250Y-102936168D02*
X191207869Y-102793311D01*
X191207869Y-102793311D02*
X191207869Y-102555216D01*
X191207869Y-102555216D02*
X191160250Y-102459978D01*
X191160250Y-102459978D02*
X191112630Y-102412359D01*
X191112630Y-102412359D02*
X191017392Y-102364740D01*
X191017392Y-102364740D02*
X190922154Y-102364740D01*
X190922154Y-102364740D02*
X190826916Y-102412359D01*
X190826916Y-102412359D02*
X190779297Y-102459978D01*
X190779297Y-102459978D02*
X190731678Y-102555216D01*
X190731678Y-102555216D02*
X190684059Y-102745692D01*
X190684059Y-102745692D02*
X190636440Y-102840930D01*
X190636440Y-102840930D02*
X190588821Y-102888549D01*
X190588821Y-102888549D02*
X190493583Y-102936168D01*
X190493583Y-102936168D02*
X190398345Y-102936168D01*
X190398345Y-102936168D02*
X190303107Y-102888549D01*
X190303107Y-102888549D02*
X190255488Y-102840930D01*
X190255488Y-102840930D02*
X190207869Y-102745692D01*
X190207869Y-102745692D02*
X190207869Y-102507597D01*
X190207869Y-102507597D02*
X190255488Y-102364740D01*
X191207869Y-101936168D02*
X190207869Y-101936168D01*
X190207869Y-101936168D02*
X190207869Y-101698073D01*
X190207869Y-101698073D02*
X190255488Y-101555216D01*
X190255488Y-101555216D02*
X190350726Y-101459978D01*
X190350726Y-101459978D02*
X190445964Y-101412359D01*
X190445964Y-101412359D02*
X190636440Y-101364740D01*
X190636440Y-101364740D02*
X190779297Y-101364740D01*
X190779297Y-101364740D02*
X190969773Y-101412359D01*
X190969773Y-101412359D02*
X191065011Y-101459978D01*
X191065011Y-101459978D02*
X191160250Y-101555216D01*
X191160250Y-101555216D02*
X191207869Y-101698073D01*
X191207869Y-101698073D02*
X191207869Y-101936168D01*
X190922154Y-100983787D02*
X190922154Y-100507597D01*
X191207869Y-101079025D02*
X190207869Y-100745692D01*
X190207869Y-100745692D02*
X191207869Y-100412359D01*
X137401450Y-122117869D02*
X137401450Y-121117869D01*
X137401450Y-121117869D02*
X137782402Y-121117869D01*
X137782402Y-121117869D02*
X137877640Y-121165488D01*
X137877640Y-121165488D02*
X137925259Y-121213107D01*
X137925259Y-121213107D02*
X137972878Y-121308345D01*
X137972878Y-121308345D02*
X137972878Y-121451202D01*
X137972878Y-121451202D02*
X137925259Y-121546440D01*
X137925259Y-121546440D02*
X137877640Y-121594059D01*
X137877640Y-121594059D02*
X137782402Y-121641678D01*
X137782402Y-121641678D02*
X137401450Y-121641678D01*
X138353831Y-121832154D02*
X138830021Y-121832154D01*
X138258593Y-122117869D02*
X138591926Y-121117869D01*
X138591926Y-121117869D02*
X138925259Y-122117869D01*
X139782402Y-122117869D02*
X139210974Y-122117869D01*
X139496688Y-122117869D02*
X139496688Y-121117869D01*
X139496688Y-121117869D02*
X139401450Y-121260726D01*
X139401450Y-121260726D02*
X139306212Y-121355964D01*
X139306212Y-121355964D02*
X139210974Y-121403583D01*
X140401450Y-121117869D02*
X140496688Y-121117869D01*
X140496688Y-121117869D02*
X140591926Y-121165488D01*
X140591926Y-121165488D02*
X140639545Y-121213107D01*
X140639545Y-121213107D02*
X140687164Y-121308345D01*
X140687164Y-121308345D02*
X140734783Y-121498821D01*
X140734783Y-121498821D02*
X140734783Y-121736916D01*
X140734783Y-121736916D02*
X140687164Y-121927392D01*
X140687164Y-121927392D02*
X140639545Y-122022630D01*
X140639545Y-122022630D02*
X140591926Y-122070250D01*
X140591926Y-122070250D02*
X140496688Y-122117869D01*
X140496688Y-122117869D02*
X140401450Y-122117869D01*
X140401450Y-122117869D02*
X140306212Y-122070250D01*
X140306212Y-122070250D02*
X140258593Y-122022630D01*
X140258593Y-122022630D02*
X140210974Y-121927392D01*
X140210974Y-121927392D02*
X140163355Y-121736916D01*
X140163355Y-121736916D02*
X140163355Y-121498821D01*
X140163355Y-121498821D02*
X140210974Y-121308345D01*
X140210974Y-121308345D02*
X140258593Y-121213107D01*
X140258593Y-121213107D02*
X140306212Y-121165488D01*
X140306212Y-121165488D02*
X140401450Y-121117869D01*
X202407869Y-100838549D02*
X201407869Y-100838549D01*
X201407869Y-100838549D02*
X201407869Y-100457597D01*
X201407869Y-100457597D02*
X201455488Y-100362359D01*
X201455488Y-100362359D02*
X201503107Y-100314740D01*
X201503107Y-100314740D02*
X201598345Y-100267121D01*
X201598345Y-100267121D02*
X201741202Y-100267121D01*
X201741202Y-100267121D02*
X201836440Y-100314740D01*
X201836440Y-100314740D02*
X201884059Y-100362359D01*
X201884059Y-100362359D02*
X201931678Y-100457597D01*
X201931678Y-100457597D02*
X201931678Y-100838549D01*
X201407869Y-99933787D02*
X202407869Y-99695692D01*
X202407869Y-99695692D02*
X201693583Y-99505216D01*
X201693583Y-99505216D02*
X202407869Y-99314740D01*
X202407869Y-99314740D02*
X201407869Y-99076645D01*
X202407869Y-98124264D02*
X201931678Y-98457597D01*
X202407869Y-98695692D02*
X201407869Y-98695692D01*
X201407869Y-98695692D02*
X201407869Y-98314740D01*
X201407869Y-98314740D02*
X201455488Y-98219502D01*
X201455488Y-98219502D02*
X201503107Y-98171883D01*
X201503107Y-98171883D02*
X201598345Y-98124264D01*
X201598345Y-98124264D02*
X201741202Y-98124264D01*
X201741202Y-98124264D02*
X201836440Y-98171883D01*
X201836440Y-98171883D02*
X201884059Y-98219502D01*
X201884059Y-98219502D02*
X201931678Y-98314740D01*
X201931678Y-98314740D02*
X201931678Y-98695692D01*
X137885259Y-123665488D02*
X137790021Y-123617869D01*
X137790021Y-123617869D02*
X137647164Y-123617869D01*
X137647164Y-123617869D02*
X137504307Y-123665488D01*
X137504307Y-123665488D02*
X137409069Y-123760726D01*
X137409069Y-123760726D02*
X137361450Y-123855964D01*
X137361450Y-123855964D02*
X137313831Y-124046440D01*
X137313831Y-124046440D02*
X137313831Y-124189297D01*
X137313831Y-124189297D02*
X137361450Y-124379773D01*
X137361450Y-124379773D02*
X137409069Y-124475011D01*
X137409069Y-124475011D02*
X137504307Y-124570250D01*
X137504307Y-124570250D02*
X137647164Y-124617869D01*
X137647164Y-124617869D02*
X137742402Y-124617869D01*
X137742402Y-124617869D02*
X137885259Y-124570250D01*
X137885259Y-124570250D02*
X137932878Y-124522630D01*
X137932878Y-124522630D02*
X137932878Y-124189297D01*
X137932878Y-124189297D02*
X137742402Y-124189297D01*
X138361450Y-124617869D02*
X138361450Y-123617869D01*
X138361450Y-123617869D02*
X138932878Y-124617869D01*
X138932878Y-124617869D02*
X138932878Y-123617869D01*
X139409069Y-124617869D02*
X139409069Y-123617869D01*
X139409069Y-123617869D02*
X139647164Y-123617869D01*
X139647164Y-123617869D02*
X139790021Y-123665488D01*
X139790021Y-123665488D02*
X139885259Y-123760726D01*
X139885259Y-123760726D02*
X139932878Y-123855964D01*
X139932878Y-123855964D02*
X139980497Y-124046440D01*
X139980497Y-124046440D02*
X139980497Y-124189297D01*
X139980497Y-124189297D02*
X139932878Y-124379773D01*
X139932878Y-124379773D02*
X139885259Y-124475011D01*
X139885259Y-124475011D02*
X139790021Y-124570250D01*
X139790021Y-124570250D02*
X139647164Y-124617869D01*
X139647164Y-124617869D02*
X139409069Y-124617869D01*
X141756212Y-140051202D02*
X141994307Y-140717869D01*
X141994307Y-140717869D02*
X142232402Y-140051202D01*
X142613355Y-140717869D02*
X142613355Y-140051202D01*
X142613355Y-139717869D02*
X142565736Y-139765488D01*
X142565736Y-139765488D02*
X142613355Y-139813107D01*
X142613355Y-139813107D02*
X142660974Y-139765488D01*
X142660974Y-139765488D02*
X142613355Y-139717869D01*
X142613355Y-139717869D02*
X142613355Y-139813107D01*
X143089545Y-140051202D02*
X143089545Y-140717869D01*
X143089545Y-140146440D02*
X143137164Y-140098821D01*
X143137164Y-140098821D02*
X143232402Y-140051202D01*
X143232402Y-140051202D02*
X143375259Y-140051202D01*
X143375259Y-140051202D02*
X143470497Y-140098821D01*
X143470497Y-140098821D02*
X143518116Y-140194059D01*
X143518116Y-140194059D02*
X143518116Y-140717869D01*
X144422878Y-140670250D02*
X144327640Y-140717869D01*
X144327640Y-140717869D02*
X144137164Y-140717869D01*
X144137164Y-140717869D02*
X144041926Y-140670250D01*
X144041926Y-140670250D02*
X143994307Y-140622630D01*
X143994307Y-140622630D02*
X143946688Y-140527392D01*
X143946688Y-140527392D02*
X143946688Y-140241678D01*
X143946688Y-140241678D02*
X143994307Y-140146440D01*
X143994307Y-140146440D02*
X144041926Y-140098821D01*
X144041926Y-140098821D02*
X144137164Y-140051202D01*
X144137164Y-140051202D02*
X144327640Y-140051202D01*
X144327640Y-140051202D02*
X144422878Y-140098821D01*
X145232402Y-140670250D02*
X145137164Y-140717869D01*
X145137164Y-140717869D02*
X144946688Y-140717869D01*
X144946688Y-140717869D02*
X144851450Y-140670250D01*
X144851450Y-140670250D02*
X144803831Y-140575011D01*
X144803831Y-140575011D02*
X144803831Y-140194059D01*
X144803831Y-140194059D02*
X144851450Y-140098821D01*
X144851450Y-140098821D02*
X144946688Y-140051202D01*
X144946688Y-140051202D02*
X145137164Y-140051202D01*
X145137164Y-140051202D02*
X145232402Y-140098821D01*
X145232402Y-140098821D02*
X145280021Y-140194059D01*
X145280021Y-140194059D02*
X145280021Y-140289297D01*
X145280021Y-140289297D02*
X144803831Y-140384535D01*
X145708593Y-140051202D02*
X145708593Y-140717869D01*
X145708593Y-140146440D02*
X145756212Y-140098821D01*
X145756212Y-140098821D02*
X145851450Y-140051202D01*
X145851450Y-140051202D02*
X145994307Y-140051202D01*
X145994307Y-140051202D02*
X146089545Y-140098821D01*
X146089545Y-140098821D02*
X146137164Y-140194059D01*
X146137164Y-140194059D02*
X146137164Y-140717869D01*
X146470498Y-140051202D02*
X146851450Y-140051202D01*
X146613355Y-139717869D02*
X146613355Y-140575011D01*
X146613355Y-140575011D02*
X146660974Y-140670250D01*
X146660974Y-140670250D02*
X146756212Y-140717869D01*
X146756212Y-140717869D02*
X146851450Y-140717869D01*
X147803831Y-140241678D02*
X147756212Y-140194059D01*
X147756212Y-140194059D02*
X147660974Y-140146440D01*
X147660974Y-140146440D02*
X147565736Y-140146440D01*
X147565736Y-140146440D02*
X147470498Y-140194059D01*
X147470498Y-140194059D02*
X147422879Y-140241678D01*
X147422879Y-140241678D02*
X147375260Y-140336916D01*
X147375260Y-140336916D02*
X147375260Y-140432154D01*
X147375260Y-140432154D02*
X147422879Y-140527392D01*
X147422879Y-140527392D02*
X147470498Y-140575011D01*
X147470498Y-140575011D02*
X147565736Y-140622630D01*
X147565736Y-140622630D02*
X147660974Y-140622630D01*
X147660974Y-140622630D02*
X147756212Y-140575011D01*
X147756212Y-140575011D02*
X147803831Y-140527392D01*
X147803831Y-140146440D02*
X147803831Y-140527392D01*
X147803831Y-140527392D02*
X147851450Y-140575011D01*
X147851450Y-140575011D02*
X147899069Y-140575011D01*
X147899069Y-140575011D02*
X147994308Y-140527392D01*
X147994308Y-140527392D02*
X148041927Y-140432154D01*
X148041927Y-140432154D02*
X148041927Y-140194059D01*
X148041927Y-140194059D02*
X147946689Y-140051202D01*
X147946689Y-140051202D02*
X147803831Y-139955964D01*
X147803831Y-139955964D02*
X147613355Y-139908345D01*
X147613355Y-139908345D02*
X147422879Y-139955964D01*
X147422879Y-139955964D02*
X147280022Y-140051202D01*
X147280022Y-140051202D02*
X147184784Y-140194059D01*
X147184784Y-140194059D02*
X147137165Y-140384535D01*
X147137165Y-140384535D02*
X147184784Y-140575011D01*
X147184784Y-140575011D02*
X147280022Y-140717869D01*
X147280022Y-140717869D02*
X147422879Y-140813107D01*
X147422879Y-140813107D02*
X147613355Y-140860726D01*
X147613355Y-140860726D02*
X147803831Y-140813107D01*
X147803831Y-140813107D02*
X147946689Y-140717869D01*
X148470498Y-140717869D02*
X148470498Y-139717869D01*
X148470498Y-140098821D02*
X148565736Y-140051202D01*
X148565736Y-140051202D02*
X148756212Y-140051202D01*
X148756212Y-140051202D02*
X148851450Y-140098821D01*
X148851450Y-140098821D02*
X148899069Y-140146440D01*
X148899069Y-140146440D02*
X148946688Y-140241678D01*
X148946688Y-140241678D02*
X148946688Y-140527392D01*
X148946688Y-140527392D02*
X148899069Y-140622630D01*
X148899069Y-140622630D02*
X148851450Y-140670250D01*
X148851450Y-140670250D02*
X148756212Y-140717869D01*
X148756212Y-140717869D02*
X148565736Y-140717869D01*
X148565736Y-140717869D02*
X148470498Y-140670250D01*
X149756212Y-140670250D02*
X149660974Y-140717869D01*
X149660974Y-140717869D02*
X149470498Y-140717869D01*
X149470498Y-140717869D02*
X149375260Y-140670250D01*
X149375260Y-140670250D02*
X149327641Y-140575011D01*
X149327641Y-140575011D02*
X149327641Y-140194059D01*
X149327641Y-140194059D02*
X149375260Y-140098821D01*
X149375260Y-140098821D02*
X149470498Y-140051202D01*
X149470498Y-140051202D02*
X149660974Y-140051202D01*
X149660974Y-140051202D02*
X149756212Y-140098821D01*
X149756212Y-140098821D02*
X149803831Y-140194059D01*
X149803831Y-140194059D02*
X149803831Y-140289297D01*
X149803831Y-140289297D02*
X149327641Y-140384535D01*
X150184784Y-140670250D02*
X150280022Y-140717869D01*
X150280022Y-140717869D02*
X150470498Y-140717869D01*
X150470498Y-140717869D02*
X150565736Y-140670250D01*
X150565736Y-140670250D02*
X150613355Y-140575011D01*
X150613355Y-140575011D02*
X150613355Y-140527392D01*
X150613355Y-140527392D02*
X150565736Y-140432154D01*
X150565736Y-140432154D02*
X150470498Y-140384535D01*
X150470498Y-140384535D02*
X150327641Y-140384535D01*
X150327641Y-140384535D02*
X150232403Y-140336916D01*
X150232403Y-140336916D02*
X150184784Y-140241678D01*
X150184784Y-140241678D02*
X150184784Y-140194059D01*
X150184784Y-140194059D02*
X150232403Y-140098821D01*
X150232403Y-140098821D02*
X150327641Y-140051202D01*
X150327641Y-140051202D02*
X150470498Y-140051202D01*
X150470498Y-140051202D02*
X150565736Y-140098821D01*
X150994308Y-140670250D02*
X151089546Y-140717869D01*
X151089546Y-140717869D02*
X151280022Y-140717869D01*
X151280022Y-140717869D02*
X151375260Y-140670250D01*
X151375260Y-140670250D02*
X151422879Y-140575011D01*
X151422879Y-140575011D02*
X151422879Y-140527392D01*
X151422879Y-140527392D02*
X151375260Y-140432154D01*
X151375260Y-140432154D02*
X151280022Y-140384535D01*
X151280022Y-140384535D02*
X151137165Y-140384535D01*
X151137165Y-140384535D02*
X151041927Y-140336916D01*
X151041927Y-140336916D02*
X150994308Y-140241678D01*
X150994308Y-140241678D02*
X150994308Y-140194059D01*
X150994308Y-140194059D02*
X151041927Y-140098821D01*
X151041927Y-140098821D02*
X151137165Y-140051202D01*
X151137165Y-140051202D02*
X151280022Y-140051202D01*
X151280022Y-140051202D02*
X151375260Y-140098821D01*
X151994308Y-140717869D02*
X151899070Y-140670250D01*
X151899070Y-140670250D02*
X151851451Y-140622630D01*
X151851451Y-140622630D02*
X151803832Y-140527392D01*
X151803832Y-140527392D02*
X151803832Y-140241678D01*
X151803832Y-140241678D02*
X151851451Y-140146440D01*
X151851451Y-140146440D02*
X151899070Y-140098821D01*
X151899070Y-140098821D02*
X151994308Y-140051202D01*
X151994308Y-140051202D02*
X152137165Y-140051202D01*
X152137165Y-140051202D02*
X152232403Y-140098821D01*
X152232403Y-140098821D02*
X152280022Y-140146440D01*
X152280022Y-140146440D02*
X152327641Y-140241678D01*
X152327641Y-140241678D02*
X152327641Y-140527392D01*
X152327641Y-140527392D02*
X152280022Y-140622630D01*
X152280022Y-140622630D02*
X152232403Y-140670250D01*
X152232403Y-140670250D02*
X152137165Y-140717869D01*
X152137165Y-140717869D02*
X151994308Y-140717869D01*
X152756213Y-140051202D02*
X152756213Y-140717869D01*
X152756213Y-140146440D02*
X152803832Y-140098821D01*
X152803832Y-140098821D02*
X152899070Y-140051202D01*
X152899070Y-140051202D02*
X153041927Y-140051202D01*
X153041927Y-140051202D02*
X153137165Y-140098821D01*
X153137165Y-140098821D02*
X153184784Y-140194059D01*
X153184784Y-140194059D02*
X153184784Y-140717869D01*
X153660975Y-140622630D02*
X153708594Y-140670250D01*
X153708594Y-140670250D02*
X153660975Y-140717869D01*
X153660975Y-140717869D02*
X153613356Y-140670250D01*
X153613356Y-140670250D02*
X153660975Y-140622630D01*
X153660975Y-140622630D02*
X153660975Y-140717869D01*
X154137165Y-140717869D02*
X154137165Y-139717869D01*
X154137165Y-140098821D02*
X154232403Y-140051202D01*
X154232403Y-140051202D02*
X154422879Y-140051202D01*
X154422879Y-140051202D02*
X154518117Y-140098821D01*
X154518117Y-140098821D02*
X154565736Y-140146440D01*
X154565736Y-140146440D02*
X154613355Y-140241678D01*
X154613355Y-140241678D02*
X154613355Y-140527392D01*
X154613355Y-140527392D02*
X154565736Y-140622630D01*
X154565736Y-140622630D02*
X154518117Y-140670250D01*
X154518117Y-140670250D02*
X154422879Y-140717869D01*
X154422879Y-140717869D02*
X154232403Y-140717869D01*
X154232403Y-140717869D02*
X154137165Y-140670250D01*
X155422879Y-140670250D02*
X155327641Y-140717869D01*
X155327641Y-140717869D02*
X155137165Y-140717869D01*
X155137165Y-140717869D02*
X155041927Y-140670250D01*
X155041927Y-140670250D02*
X154994308Y-140575011D01*
X154994308Y-140575011D02*
X154994308Y-140194059D01*
X154994308Y-140194059D02*
X155041927Y-140098821D01*
X155041927Y-140098821D02*
X155137165Y-140051202D01*
X155137165Y-140051202D02*
X155327641Y-140051202D01*
X155327641Y-140051202D02*
X155422879Y-140098821D01*
X155422879Y-140098821D02*
X155470498Y-140194059D01*
X155470498Y-140194059D02*
X155470498Y-140289297D01*
X155470498Y-140289297D02*
X154994308Y-140384535D01*
X137258593Y-104367869D02*
X137830021Y-104367869D01*
X137544307Y-105367869D02*
X137544307Y-104367869D01*
X138068117Y-104367869D02*
X138734783Y-105367869D01*
X138734783Y-104367869D02*
X138068117Y-105367869D01*
X132117869Y-108888549D02*
X132927392Y-108888549D01*
X132927392Y-108888549D02*
X133022630Y-108840930D01*
X133022630Y-108840930D02*
X133070250Y-108793311D01*
X133070250Y-108793311D02*
X133117869Y-108698073D01*
X133117869Y-108698073D02*
X133117869Y-108507597D01*
X133117869Y-108507597D02*
X133070250Y-108412359D01*
X133070250Y-108412359D02*
X133022630Y-108364740D01*
X133022630Y-108364740D02*
X132927392Y-108317121D01*
X132927392Y-108317121D02*
X132117869Y-108317121D01*
X132832154Y-107888549D02*
X132832154Y-107412359D01*
X133117869Y-107983787D02*
X132117869Y-107650454D01*
X132117869Y-107650454D02*
X133117869Y-107317121D01*
X133117869Y-106412359D02*
X132641678Y-106745692D01*
X133117869Y-106983787D02*
X132117869Y-106983787D01*
X132117869Y-106983787D02*
X132117869Y-106602835D01*
X132117869Y-106602835D02*
X132165488Y-106507597D01*
X132165488Y-106507597D02*
X132213107Y-106459978D01*
X132213107Y-106459978D02*
X132308345Y-106412359D01*
X132308345Y-106412359D02*
X132451202Y-106412359D01*
X132451202Y-106412359D02*
X132546440Y-106459978D01*
X132546440Y-106459978D02*
X132594059Y-106507597D01*
X132594059Y-106507597D02*
X132641678Y-106602835D01*
X132641678Y-106602835D02*
X132641678Y-106983787D01*
X132117869Y-106126644D02*
X132117869Y-105555216D01*
X133117869Y-105840930D02*
X132117869Y-105840930D01*
X200361450Y-113117869D02*
X200361450Y-112117869D01*
X200361450Y-112117869D02*
X200599545Y-112117869D01*
X200599545Y-112117869D02*
X200742402Y-112165488D01*
X200742402Y-112165488D02*
X200837640Y-112260726D01*
X200837640Y-112260726D02*
X200885259Y-112355964D01*
X200885259Y-112355964D02*
X200932878Y-112546440D01*
X200932878Y-112546440D02*
X200932878Y-112689297D01*
X200932878Y-112689297D02*
X200885259Y-112879773D01*
X200885259Y-112879773D02*
X200837640Y-112975011D01*
X200837640Y-112975011D02*
X200742402Y-113070250D01*
X200742402Y-113070250D02*
X200599545Y-113117869D01*
X200599545Y-113117869D02*
X200361450Y-113117869D01*
X201361450Y-112594059D02*
X201694783Y-112594059D01*
X201837640Y-113117869D02*
X201361450Y-113117869D01*
X201361450Y-113117869D02*
X201361450Y-112117869D01*
X201361450Y-112117869D02*
X201837640Y-112117869D01*
X136643831Y-133570250D02*
X136786688Y-133617869D01*
X136786688Y-133617869D02*
X137024783Y-133617869D01*
X137024783Y-133617869D02*
X137120021Y-133570250D01*
X137120021Y-133570250D02*
X137167640Y-133522630D01*
X137167640Y-133522630D02*
X137215259Y-133427392D01*
X137215259Y-133427392D02*
X137215259Y-133332154D01*
X137215259Y-133332154D02*
X137167640Y-133236916D01*
X137167640Y-133236916D02*
X137120021Y-133189297D01*
X137120021Y-133189297D02*
X137024783Y-133141678D01*
X137024783Y-133141678D02*
X136834307Y-133094059D01*
X136834307Y-133094059D02*
X136739069Y-133046440D01*
X136739069Y-133046440D02*
X136691450Y-132998821D01*
X136691450Y-132998821D02*
X136643831Y-132903583D01*
X136643831Y-132903583D02*
X136643831Y-132808345D01*
X136643831Y-132808345D02*
X136691450Y-132713107D01*
X136691450Y-132713107D02*
X136739069Y-132665488D01*
X136739069Y-132665488D02*
X136834307Y-132617869D01*
X136834307Y-132617869D02*
X137072402Y-132617869D01*
X137072402Y-132617869D02*
X137215259Y-132665488D01*
X138215259Y-133522630D02*
X138167640Y-133570250D01*
X138167640Y-133570250D02*
X138024783Y-133617869D01*
X138024783Y-133617869D02*
X137929545Y-133617869D01*
X137929545Y-133617869D02*
X137786688Y-133570250D01*
X137786688Y-133570250D02*
X137691450Y-133475011D01*
X137691450Y-133475011D02*
X137643831Y-133379773D01*
X137643831Y-133379773D02*
X137596212Y-133189297D01*
X137596212Y-133189297D02*
X137596212Y-133046440D01*
X137596212Y-133046440D02*
X137643831Y-132855964D01*
X137643831Y-132855964D02*
X137691450Y-132760726D01*
X137691450Y-132760726D02*
X137786688Y-132665488D01*
X137786688Y-132665488D02*
X137929545Y-132617869D01*
X137929545Y-132617869D02*
X138024783Y-132617869D01*
X138024783Y-132617869D02*
X138167640Y-132665488D01*
X138167640Y-132665488D02*
X138215259Y-132713107D01*
X138643831Y-133617869D02*
X138643831Y-132617869D01*
X139215259Y-133617869D02*
X138786688Y-133046440D01*
X139215259Y-132617869D02*
X138643831Y-133189297D01*
X137932878Y-107867869D02*
X137599545Y-107391678D01*
X137361450Y-107867869D02*
X137361450Y-106867869D01*
X137361450Y-106867869D02*
X137742402Y-106867869D01*
X137742402Y-106867869D02*
X137837640Y-106915488D01*
X137837640Y-106915488D02*
X137885259Y-106963107D01*
X137885259Y-106963107D02*
X137932878Y-107058345D01*
X137932878Y-107058345D02*
X137932878Y-107201202D01*
X137932878Y-107201202D02*
X137885259Y-107296440D01*
X137885259Y-107296440D02*
X137837640Y-107344059D01*
X137837640Y-107344059D02*
X137742402Y-107391678D01*
X137742402Y-107391678D02*
X137361450Y-107391678D01*
X138266212Y-106867869D02*
X138932878Y-107867869D01*
X138932878Y-106867869D02*
X138266212Y-107867869D01*
X137885259Y-109665488D02*
X137790021Y-109617869D01*
X137790021Y-109617869D02*
X137647164Y-109617869D01*
X137647164Y-109617869D02*
X137504307Y-109665488D01*
X137504307Y-109665488D02*
X137409069Y-109760726D01*
X137409069Y-109760726D02*
X137361450Y-109855964D01*
X137361450Y-109855964D02*
X137313831Y-110046440D01*
X137313831Y-110046440D02*
X137313831Y-110189297D01*
X137313831Y-110189297D02*
X137361450Y-110379773D01*
X137361450Y-110379773D02*
X137409069Y-110475011D01*
X137409069Y-110475011D02*
X137504307Y-110570250D01*
X137504307Y-110570250D02*
X137647164Y-110617869D01*
X137647164Y-110617869D02*
X137742402Y-110617869D01*
X137742402Y-110617869D02*
X137885259Y-110570250D01*
X137885259Y-110570250D02*
X137932878Y-110522630D01*
X137932878Y-110522630D02*
X137932878Y-110189297D01*
X137932878Y-110189297D02*
X137742402Y-110189297D01*
X138361450Y-110617869D02*
X138361450Y-109617869D01*
X138361450Y-109617869D02*
X138932878Y-110617869D01*
X138932878Y-110617869D02*
X138932878Y-109617869D01*
X139409069Y-110617869D02*
X139409069Y-109617869D01*
X139409069Y-109617869D02*
X139647164Y-109617869D01*
X139647164Y-109617869D02*
X139790021Y-109665488D01*
X139790021Y-109665488D02*
X139885259Y-109760726D01*
X139885259Y-109760726D02*
X139932878Y-109855964D01*
X139932878Y-109855964D02*
X139980497Y-110046440D01*
X139980497Y-110046440D02*
X139980497Y-110189297D01*
X139980497Y-110189297D02*
X139932878Y-110379773D01*
X139932878Y-110379773D02*
X139885259Y-110475011D01*
X139885259Y-110475011D02*
X139790021Y-110570250D01*
X139790021Y-110570250D02*
X139647164Y-110617869D01*
X139647164Y-110617869D02*
X139409069Y-110617869D01*
X136516212Y-127867869D02*
X137135259Y-127867869D01*
X137135259Y-127867869D02*
X136801926Y-128248821D01*
X136801926Y-128248821D02*
X136944783Y-128248821D01*
X136944783Y-128248821D02*
X137040021Y-128296440D01*
X137040021Y-128296440D02*
X137087640Y-128344059D01*
X137087640Y-128344059D02*
X137135259Y-128439297D01*
X137135259Y-128439297D02*
X137135259Y-128677392D01*
X137135259Y-128677392D02*
X137087640Y-128772630D01*
X137087640Y-128772630D02*
X137040021Y-128820250D01*
X137040021Y-128820250D02*
X136944783Y-128867869D01*
X136944783Y-128867869D02*
X136659069Y-128867869D01*
X136659069Y-128867869D02*
X136563831Y-128820250D01*
X136563831Y-128820250D02*
X136516212Y-128772630D01*
X137563831Y-128772630D02*
X137611450Y-128820250D01*
X137611450Y-128820250D02*
X137563831Y-128867869D01*
X137563831Y-128867869D02*
X137516212Y-128820250D01*
X137516212Y-128820250D02*
X137563831Y-128772630D01*
X137563831Y-128772630D02*
X137563831Y-128867869D01*
X137944783Y-127867869D02*
X138563830Y-127867869D01*
X138563830Y-127867869D02*
X138230497Y-128248821D01*
X138230497Y-128248821D02*
X138373354Y-128248821D01*
X138373354Y-128248821D02*
X138468592Y-128296440D01*
X138468592Y-128296440D02*
X138516211Y-128344059D01*
X138516211Y-128344059D02*
X138563830Y-128439297D01*
X138563830Y-128439297D02*
X138563830Y-128677392D01*
X138563830Y-128677392D02*
X138516211Y-128772630D01*
X138516211Y-128772630D02*
X138468592Y-128820250D01*
X138468592Y-128820250D02*
X138373354Y-128867869D01*
X138373354Y-128867869D02*
X138087640Y-128867869D01*
X138087640Y-128867869D02*
X137992402Y-128820250D01*
X137992402Y-128820250D02*
X137944783Y-128772630D01*
X138849545Y-127867869D02*
X139182878Y-128867869D01*
X139182878Y-128867869D02*
X139516211Y-127867869D01*
D11*
X175244819Y-91783333D02*
X175959104Y-91783333D01*
X175959104Y-91783333D02*
X176101961Y-91830952D01*
X176101961Y-91830952D02*
X176197200Y-91926190D01*
X176197200Y-91926190D02*
X176244819Y-92069047D01*
X176244819Y-92069047D02*
X176244819Y-92164285D01*
X175340057Y-91354761D02*
X175292438Y-91307142D01*
X175292438Y-91307142D02*
X175244819Y-91211904D01*
X175244819Y-91211904D02*
X175244819Y-90973809D01*
X175244819Y-90973809D02*
X175292438Y-90878571D01*
X175292438Y-90878571D02*
X175340057Y-90830952D01*
X175340057Y-90830952D02*
X175435295Y-90783333D01*
X175435295Y-90783333D02*
X175530533Y-90783333D01*
X175530533Y-90783333D02*
X175673390Y-90830952D01*
X175673390Y-90830952D02*
X176244819Y-91402380D01*
X176244819Y-91402380D02*
X176244819Y-90783333D01*
X204666666Y-104834819D02*
X204666666Y-105549104D01*
X204666666Y-105549104D02*
X204619047Y-105691961D01*
X204619047Y-105691961D02*
X204523809Y-105787200D01*
X204523809Y-105787200D02*
X204380952Y-105834819D01*
X204380952Y-105834819D02*
X204285714Y-105834819D01*
X205047619Y-104834819D02*
X205666666Y-104834819D01*
X205666666Y-104834819D02*
X205333333Y-105215771D01*
X205333333Y-105215771D02*
X205476190Y-105215771D01*
X205476190Y-105215771D02*
X205571428Y-105263390D01*
X205571428Y-105263390D02*
X205619047Y-105311009D01*
X205619047Y-105311009D02*
X205666666Y-105406247D01*
X205666666Y-105406247D02*
X205666666Y-105644342D01*
X205666666Y-105644342D02*
X205619047Y-105739580D01*
X205619047Y-105739580D02*
X205571428Y-105787200D01*
X205571428Y-105787200D02*
X205476190Y-105834819D01*
X205476190Y-105834819D02*
X205190476Y-105834819D01*
X205190476Y-105834819D02*
X205095238Y-105787200D01*
X205095238Y-105787200D02*
X205047619Y-105739580D01*
X185528095Y-128154819D02*
X185528095Y-128964342D01*
X185528095Y-128964342D02*
X185575714Y-129059580D01*
X185575714Y-129059580D02*
X185623333Y-129107200D01*
X185623333Y-129107200D02*
X185718571Y-129154819D01*
X185718571Y-129154819D02*
X185909047Y-129154819D01*
X185909047Y-129154819D02*
X186004285Y-129107200D01*
X186004285Y-129107200D02*
X186051904Y-129059580D01*
X186051904Y-129059580D02*
X186099523Y-128964342D01*
X186099523Y-128964342D02*
X186099523Y-128154819D01*
X186575714Y-129154819D02*
X186575714Y-128154819D01*
X186575714Y-128154819D02*
X186956666Y-128154819D01*
X186956666Y-128154819D02*
X187051904Y-128202438D01*
X187051904Y-128202438D02*
X187099523Y-128250057D01*
X187099523Y-128250057D02*
X187147142Y-128345295D01*
X187147142Y-128345295D02*
X187147142Y-128488152D01*
X187147142Y-128488152D02*
X187099523Y-128583390D01*
X187099523Y-128583390D02*
X187051904Y-128631009D01*
X187051904Y-128631009D02*
X186956666Y-128678628D01*
X186956666Y-128678628D02*
X186575714Y-128678628D01*
X188099523Y-129154819D02*
X187528095Y-129154819D01*
X187813809Y-129154819D02*
X187813809Y-128154819D01*
X187813809Y-128154819D02*
X187718571Y-128297676D01*
X187718571Y-128297676D02*
X187623333Y-128392914D01*
X187623333Y-128392914D02*
X187528095Y-128440533D01*
X134666666Y-113954819D02*
X134666666Y-114669104D01*
X134666666Y-114669104D02*
X134619047Y-114811961D01*
X134619047Y-114811961D02*
X134523809Y-114907200D01*
X134523809Y-114907200D02*
X134380952Y-114954819D01*
X134380952Y-114954819D02*
X134285714Y-114954819D01*
X135619047Y-113954819D02*
X135142857Y-113954819D01*
X135142857Y-113954819D02*
X135095238Y-114431009D01*
X135095238Y-114431009D02*
X135142857Y-114383390D01*
X135142857Y-114383390D02*
X135238095Y-114335771D01*
X135238095Y-114335771D02*
X135476190Y-114335771D01*
X135476190Y-114335771D02*
X135571428Y-114383390D01*
X135571428Y-114383390D02*
X135619047Y-114431009D01*
X135619047Y-114431009D02*
X135666666Y-114526247D01*
X135666666Y-114526247D02*
X135666666Y-114764342D01*
X135666666Y-114764342D02*
X135619047Y-114859580D01*
X135619047Y-114859580D02*
X135571428Y-114907200D01*
X135571428Y-114907200D02*
X135476190Y-114954819D01*
X135476190Y-114954819D02*
X135238095Y-114954819D01*
X135238095Y-114954819D02*
X135142857Y-114907200D01*
X135142857Y-114907200D02*
X135095238Y-114859580D01*
X202054819Y-122396666D02*
X201578628Y-122729999D01*
X202054819Y-122968094D02*
X201054819Y-122968094D01*
X201054819Y-122968094D02*
X201054819Y-122587142D01*
X201054819Y-122587142D02*
X201102438Y-122491904D01*
X201102438Y-122491904D02*
X201150057Y-122444285D01*
X201150057Y-122444285D02*
X201245295Y-122396666D01*
X201245295Y-122396666D02*
X201388152Y-122396666D01*
X201388152Y-122396666D02*
X201483390Y-122444285D01*
X201483390Y-122444285D02*
X201531009Y-122491904D01*
X201531009Y-122491904D02*
X201578628Y-122587142D01*
X201578628Y-122587142D02*
X201578628Y-122968094D01*
X202054819Y-121444285D02*
X202054819Y-122015713D01*
X202054819Y-121729999D02*
X201054819Y-121729999D01*
X201054819Y-121729999D02*
X201197676Y-121825237D01*
X201197676Y-121825237D02*
X201292914Y-121920475D01*
X201292914Y-121920475D02*
X201340533Y-122015713D01*
D12*
D13*
X142869047Y-131183609D02*
X143011904Y-131231228D01*
X143011904Y-131231228D02*
X143059523Y-131278847D01*
X143059523Y-131278847D02*
X143107142Y-131374085D01*
X143107142Y-131374085D02*
X143107142Y-131516942D01*
X143107142Y-131516942D02*
X143059523Y-131612180D01*
X143059523Y-131612180D02*
X143011904Y-131659800D01*
X143011904Y-131659800D02*
X142916666Y-131707419D01*
X142916666Y-131707419D02*
X142535714Y-131707419D01*
X142535714Y-131707419D02*
X142535714Y-130707419D01*
X142535714Y-130707419D02*
X142869047Y-130707419D01*
X142869047Y-130707419D02*
X142964285Y-130755038D01*
X142964285Y-130755038D02*
X143011904Y-130802657D01*
X143011904Y-130802657D02*
X143059523Y-130897895D01*
X143059523Y-130897895D02*
X143059523Y-130993133D01*
X143059523Y-130993133D02*
X143011904Y-131088371D01*
X143011904Y-131088371D02*
X142964285Y-131135990D01*
X142964285Y-131135990D02*
X142869047Y-131183609D01*
X142869047Y-131183609D02*
X142535714Y-131183609D01*
X143440476Y-130707419D02*
X144107142Y-130707419D01*
X144107142Y-130707419D02*
X143440476Y-131707419D01*
X143440476Y-131707419D02*
X144107142Y-131707419D01*
X145011904Y-131707419D02*
X144440476Y-131707419D01*
X144726190Y-131707419D02*
X144726190Y-130707419D01*
X144726190Y-130707419D02*
X144630952Y-130850276D01*
X144630952Y-130850276D02*
X144535714Y-130945514D01*
X144535714Y-130945514D02*
X144440476Y-130993133D01*
X139589598Y-134503371D02*
X139541979Y-134455752D01*
X139541979Y-134455752D02*
X139446741Y-134312895D01*
X139446741Y-134312895D02*
X139399122Y-134217657D01*
X139399122Y-134217657D02*
X139351503Y-134074800D01*
X139351503Y-134074800D02*
X139303884Y-133836704D01*
X139303884Y-133836704D02*
X139303884Y-133646228D01*
X139303884Y-133646228D02*
X139351503Y-133408133D01*
X139351503Y-133408133D02*
X139399122Y-133265276D01*
X139399122Y-133265276D02*
X139446741Y-133170038D01*
X139446741Y-133170038D02*
X139541979Y-133027180D01*
X139541979Y-133027180D02*
X139589598Y-132979561D01*
X139970551Y-133741466D02*
X140732456Y-133741466D01*
X140351503Y-134122419D02*
X140351503Y-133360514D01*
X141113408Y-134503371D02*
X141161027Y-134455752D01*
X141161027Y-134455752D02*
X141256265Y-134312895D01*
X141256265Y-134312895D02*
X141303884Y-134217657D01*
X141303884Y-134217657D02*
X141351503Y-134074800D01*
X141351503Y-134074800D02*
X141399122Y-133836704D01*
X141399122Y-133836704D02*
X141399122Y-133646228D01*
X141399122Y-133646228D02*
X141351503Y-133408133D01*
X141351503Y-133408133D02*
X141303884Y-133265276D01*
X141303884Y-133265276D02*
X141256265Y-133170038D01*
X141256265Y-133170038D02*
X141161027Y-133027180D01*
X141161027Y-133027180D02*
X141113408Y-132979561D01*
X146327693Y-133170038D02*
X146232455Y-133122419D01*
X146232455Y-133122419D02*
X146089598Y-133122419D01*
X146089598Y-133122419D02*
X145946741Y-133170038D01*
X145946741Y-133170038D02*
X145851503Y-133265276D01*
X145851503Y-133265276D02*
X145803884Y-133360514D01*
X145803884Y-133360514D02*
X145756265Y-133550990D01*
X145756265Y-133550990D02*
X145756265Y-133693847D01*
X145756265Y-133693847D02*
X145803884Y-133884323D01*
X145803884Y-133884323D02*
X145851503Y-133979561D01*
X145851503Y-133979561D02*
X145946741Y-134074800D01*
X145946741Y-134074800D02*
X146089598Y-134122419D01*
X146089598Y-134122419D02*
X146184836Y-134122419D01*
X146184836Y-134122419D02*
X146327693Y-134074800D01*
X146327693Y-134074800D02*
X146375312Y-134027180D01*
X146375312Y-134027180D02*
X146375312Y-133693847D01*
X146375312Y-133693847D02*
X146184836Y-133693847D01*
X146803884Y-134122419D02*
X146803884Y-133122419D01*
X146803884Y-133122419D02*
X147375312Y-134122419D01*
X147375312Y-134122419D02*
X147375312Y-133122419D01*
X147851503Y-134122419D02*
X147851503Y-133122419D01*
X147851503Y-133122419D02*
X148089598Y-133122419D01*
X148089598Y-133122419D02*
X148232455Y-133170038D01*
X148232455Y-133170038D02*
X148327693Y-133265276D01*
X148327693Y-133265276D02*
X148375312Y-133360514D01*
X148375312Y-133360514D02*
X148422931Y-133550990D01*
X148422931Y-133550990D02*
X148422931Y-133693847D01*
X148422931Y-133693847D02*
X148375312Y-133884323D01*
X148375312Y-133884323D02*
X148327693Y-133979561D01*
X148327693Y-133979561D02*
X148232455Y-134074800D01*
X148232455Y-134074800D02*
X148089598Y-134122419D01*
X148089598Y-134122419D02*
X147851503Y-134122419D01*
X141637217Y-129098609D02*
X141780074Y-129146228D01*
X141780074Y-129146228D02*
X141827693Y-129193847D01*
X141827693Y-129193847D02*
X141875312Y-129289085D01*
X141875312Y-129289085D02*
X141875312Y-129431942D01*
X141875312Y-129431942D02*
X141827693Y-129527180D01*
X141827693Y-129527180D02*
X141780074Y-129574800D01*
X141780074Y-129574800D02*
X141684836Y-129622419D01*
X141684836Y-129622419D02*
X141303884Y-129622419D01*
X141303884Y-129622419D02*
X141303884Y-128622419D01*
X141303884Y-128622419D02*
X141637217Y-128622419D01*
X141637217Y-128622419D02*
X141732455Y-128670038D01*
X141732455Y-128670038D02*
X141780074Y-128717657D01*
X141780074Y-128717657D02*
X141827693Y-128812895D01*
X141827693Y-128812895D02*
X141827693Y-128908133D01*
X141827693Y-128908133D02*
X141780074Y-129003371D01*
X141780074Y-129003371D02*
X141732455Y-129050990D01*
X141732455Y-129050990D02*
X141637217Y-129098609D01*
X141637217Y-129098609D02*
X141303884Y-129098609D01*
X142303884Y-128622419D02*
X142303884Y-129431942D01*
X142303884Y-129431942D02*
X142351503Y-129527180D01*
X142351503Y-129527180D02*
X142399122Y-129574800D01*
X142399122Y-129574800D02*
X142494360Y-129622419D01*
X142494360Y-129622419D02*
X142684836Y-129622419D01*
X142684836Y-129622419D02*
X142780074Y-129574800D01*
X142780074Y-129574800D02*
X142827693Y-129527180D01*
X142827693Y-129527180D02*
X142875312Y-129431942D01*
X142875312Y-129431942D02*
X142875312Y-128622419D01*
X143256265Y-128622419D02*
X143922931Y-128622419D01*
X143922931Y-128622419D02*
X143256265Y-129622419D01*
X143256265Y-129622419D02*
X143922931Y-129622419D01*
X144208646Y-128622419D02*
X144875312Y-128622419D01*
X144875312Y-128622419D02*
X144208646Y-129622419D01*
X144208646Y-129622419D02*
X144875312Y-129622419D01*
X145256265Y-129098609D02*
X145589598Y-129098609D01*
X145732455Y-129622419D02*
X145256265Y-129622419D01*
X145256265Y-129622419D02*
X145256265Y-128622419D01*
X145256265Y-128622419D02*
X145732455Y-128622419D01*
X146732455Y-129622419D02*
X146399122Y-129146228D01*
X146161027Y-129622419D02*
X146161027Y-128622419D01*
X146161027Y-128622419D02*
X146541979Y-128622419D01*
X146541979Y-128622419D02*
X146637217Y-128670038D01*
X146637217Y-128670038D02*
X146684836Y-128717657D01*
X146684836Y-128717657D02*
X146732455Y-128812895D01*
X146732455Y-128812895D02*
X146732455Y-128955752D01*
X146732455Y-128955752D02*
X146684836Y-129050990D01*
X146684836Y-129050990D02*
X146637217Y-129098609D01*
X146637217Y-129098609D02*
X146541979Y-129146228D01*
X146541979Y-129146228D02*
X146161027Y-129146228D01*
D11*
X134906666Y-102099819D02*
X134906666Y-102814104D01*
X134906666Y-102814104D02*
X134859047Y-102956961D01*
X134859047Y-102956961D02*
X134763809Y-103052200D01*
X134763809Y-103052200D02*
X134620952Y-103099819D01*
X134620952Y-103099819D02*
X134525714Y-103099819D01*
X135811428Y-102433152D02*
X135811428Y-103099819D01*
X135573333Y-102052200D02*
X135335238Y-102766485D01*
X135335238Y-102766485D02*
X135954285Y-102766485D01*
X160408095Y-109818152D02*
X160408095Y-110818152D01*
X160884285Y-110341961D02*
X160931904Y-110437200D01*
X160931904Y-110437200D02*
X161027142Y-110484819D01*
X160408095Y-110341961D02*
X160455714Y-110437200D01*
X160455714Y-110437200D02*
X160550952Y-110484819D01*
X160550952Y-110484819D02*
X160741428Y-110484819D01*
X160741428Y-110484819D02*
X160836666Y-110437200D01*
X160836666Y-110437200D02*
X160884285Y-110341961D01*
X160884285Y-110341961D02*
X160884285Y-109818152D01*
X162027142Y-110389580D02*
X161979523Y-110437200D01*
X161979523Y-110437200D02*
X161836666Y-110484819D01*
X161836666Y-110484819D02*
X161741428Y-110484819D01*
X161741428Y-110484819D02*
X161598571Y-110437200D01*
X161598571Y-110437200D02*
X161503333Y-110341961D01*
X161503333Y-110341961D02*
X161455714Y-110246723D01*
X161455714Y-110246723D02*
X161408095Y-110056247D01*
X161408095Y-110056247D02*
X161408095Y-109913390D01*
X161408095Y-109913390D02*
X161455714Y-109722914D01*
X161455714Y-109722914D02*
X161503333Y-109627676D01*
X161503333Y-109627676D02*
X161598571Y-109532438D01*
X161598571Y-109532438D02*
X161741428Y-109484819D01*
X161741428Y-109484819D02*
X161836666Y-109484819D01*
X161836666Y-109484819D02*
X161979523Y-109532438D01*
X161979523Y-109532438D02*
X162027142Y-109580057D01*
X162979523Y-110484819D02*
X162408095Y-110484819D01*
X162693809Y-110484819D02*
X162693809Y-109484819D01*
X162693809Y-109484819D02*
X162598571Y-109627676D01*
X162598571Y-109627676D02*
X162503333Y-109722914D01*
X162503333Y-109722914D02*
X162408095Y-109770533D01*
D14*
X158892381Y-103642727D02*
X159006667Y-103680822D01*
X159006667Y-103680822D02*
X159044762Y-103718918D01*
X159044762Y-103718918D02*
X159082858Y-103795108D01*
X159082858Y-103795108D02*
X159082858Y-103909394D01*
X159082858Y-103909394D02*
X159044762Y-103985584D01*
X159044762Y-103985584D02*
X159006667Y-104023680D01*
X159006667Y-104023680D02*
X158930477Y-104061775D01*
X158930477Y-104061775D02*
X158625715Y-104061775D01*
X158625715Y-104061775D02*
X158625715Y-103261775D01*
X158625715Y-103261775D02*
X158892381Y-103261775D01*
X158892381Y-103261775D02*
X158968572Y-103299870D01*
X158968572Y-103299870D02*
X159006667Y-103337965D01*
X159006667Y-103337965D02*
X159044762Y-103414156D01*
X159044762Y-103414156D02*
X159044762Y-103490346D01*
X159044762Y-103490346D02*
X159006667Y-103566537D01*
X159006667Y-103566537D02*
X158968572Y-103604632D01*
X158968572Y-103604632D02*
X158892381Y-103642727D01*
X158892381Y-103642727D02*
X158625715Y-103642727D01*
X159806667Y-104061775D02*
X159425715Y-104061775D01*
X159425715Y-104061775D02*
X159425715Y-103261775D01*
X160035238Y-103833203D02*
X160416191Y-103833203D01*
X159959048Y-104061775D02*
X160225715Y-103261775D01*
X160225715Y-103261775D02*
X160492381Y-104061775D01*
X161216191Y-103985584D02*
X161178095Y-104023680D01*
X161178095Y-104023680D02*
X161063810Y-104061775D01*
X161063810Y-104061775D02*
X160987619Y-104061775D01*
X160987619Y-104061775D02*
X160873333Y-104023680D01*
X160873333Y-104023680D02*
X160797143Y-103947489D01*
X160797143Y-103947489D02*
X160759048Y-103871299D01*
X160759048Y-103871299D02*
X160720952Y-103718918D01*
X160720952Y-103718918D02*
X160720952Y-103604632D01*
X160720952Y-103604632D02*
X160759048Y-103452251D01*
X160759048Y-103452251D02*
X160797143Y-103376060D01*
X160797143Y-103376060D02*
X160873333Y-103299870D01*
X160873333Y-103299870D02*
X160987619Y-103261775D01*
X160987619Y-103261775D02*
X161063810Y-103261775D01*
X161063810Y-103261775D02*
X161178095Y-103299870D01*
X161178095Y-103299870D02*
X161216191Y-103337965D01*
X161559048Y-104061775D02*
X161559048Y-103261775D01*
X162016191Y-104061775D02*
X161673333Y-103604632D01*
X162016191Y-103261775D02*
X161559048Y-103718918D01*
X162359048Y-104061775D02*
X162359048Y-103261775D01*
X162359048Y-103261775D02*
X162663810Y-103261775D01*
X162663810Y-103261775D02*
X162740000Y-103299870D01*
X162740000Y-103299870D02*
X162778095Y-103337965D01*
X162778095Y-103337965D02*
X162816191Y-103414156D01*
X162816191Y-103414156D02*
X162816191Y-103528441D01*
X162816191Y-103528441D02*
X162778095Y-103604632D01*
X162778095Y-103604632D02*
X162740000Y-103642727D01*
X162740000Y-103642727D02*
X162663810Y-103680822D01*
X162663810Y-103680822D02*
X162359048Y-103680822D01*
X163159048Y-104061775D02*
X163159048Y-103261775D01*
X163920952Y-104061775D02*
X163540000Y-104061775D01*
X163540000Y-104061775D02*
X163540000Y-103261775D01*
X164568571Y-104061775D02*
X164187619Y-104061775D01*
X164187619Y-104061775D02*
X164187619Y-103261775D01*
X156679523Y-101131775D02*
X157136666Y-101131775D01*
X156908094Y-101931775D02*
X156908094Y-101131775D01*
X157403333Y-101931775D02*
X157403333Y-101131775D01*
X157403333Y-101512727D02*
X157860476Y-101512727D01*
X157860476Y-101931775D02*
X157860476Y-101131775D01*
X158241428Y-101931775D02*
X158241428Y-101131775D01*
X158584284Y-101893680D02*
X158698570Y-101931775D01*
X158698570Y-101931775D02*
X158889046Y-101931775D01*
X158889046Y-101931775D02*
X158965237Y-101893680D01*
X158965237Y-101893680D02*
X159003332Y-101855584D01*
X159003332Y-101855584D02*
X159041427Y-101779394D01*
X159041427Y-101779394D02*
X159041427Y-101703203D01*
X159041427Y-101703203D02*
X159003332Y-101627013D01*
X159003332Y-101627013D02*
X158965237Y-101588918D01*
X158965237Y-101588918D02*
X158889046Y-101550822D01*
X158889046Y-101550822D02*
X158736665Y-101512727D01*
X158736665Y-101512727D02*
X158660475Y-101474632D01*
X158660475Y-101474632D02*
X158622380Y-101436537D01*
X158622380Y-101436537D02*
X158584284Y-101360346D01*
X158584284Y-101360346D02*
X158584284Y-101284156D01*
X158584284Y-101284156D02*
X158622380Y-101207965D01*
X158622380Y-101207965D02*
X158660475Y-101169870D01*
X158660475Y-101169870D02*
X158736665Y-101131775D01*
X158736665Y-101131775D02*
X158927142Y-101131775D01*
X158927142Y-101131775D02*
X159041427Y-101169870D01*
X159955713Y-101893680D02*
X160069999Y-101931775D01*
X160069999Y-101931775D02*
X160260475Y-101931775D01*
X160260475Y-101931775D02*
X160336666Y-101893680D01*
X160336666Y-101893680D02*
X160374761Y-101855584D01*
X160374761Y-101855584D02*
X160412856Y-101779394D01*
X160412856Y-101779394D02*
X160412856Y-101703203D01*
X160412856Y-101703203D02*
X160374761Y-101627013D01*
X160374761Y-101627013D02*
X160336666Y-101588918D01*
X160336666Y-101588918D02*
X160260475Y-101550822D01*
X160260475Y-101550822D02*
X160108094Y-101512727D01*
X160108094Y-101512727D02*
X160031904Y-101474632D01*
X160031904Y-101474632D02*
X159993809Y-101436537D01*
X159993809Y-101436537D02*
X159955713Y-101360346D01*
X159955713Y-101360346D02*
X159955713Y-101284156D01*
X159955713Y-101284156D02*
X159993809Y-101207965D01*
X159993809Y-101207965D02*
X160031904Y-101169870D01*
X160031904Y-101169870D02*
X160108094Y-101131775D01*
X160108094Y-101131775D02*
X160298571Y-101131775D01*
X160298571Y-101131775D02*
X160412856Y-101169870D01*
X160755714Y-101931775D02*
X160755714Y-101131775D01*
X161136666Y-101931775D02*
X161136666Y-101131775D01*
X161136666Y-101131775D02*
X161327142Y-101131775D01*
X161327142Y-101131775D02*
X161441428Y-101169870D01*
X161441428Y-101169870D02*
X161517618Y-101246060D01*
X161517618Y-101246060D02*
X161555713Y-101322251D01*
X161555713Y-101322251D02*
X161593809Y-101474632D01*
X161593809Y-101474632D02*
X161593809Y-101588918D01*
X161593809Y-101588918D02*
X161555713Y-101741299D01*
X161555713Y-101741299D02*
X161517618Y-101817489D01*
X161517618Y-101817489D02*
X161441428Y-101893680D01*
X161441428Y-101893680D02*
X161327142Y-101931775D01*
X161327142Y-101931775D02*
X161136666Y-101931775D01*
X161936666Y-101512727D02*
X162203332Y-101512727D01*
X162317618Y-101931775D02*
X161936666Y-101931775D01*
X161936666Y-101931775D02*
X161936666Y-101131775D01*
X161936666Y-101131775D02*
X162317618Y-101131775D01*
X163536666Y-101512727D02*
X163270000Y-101512727D01*
X163270000Y-101931775D02*
X163270000Y-101131775D01*
X163270000Y-101131775D02*
X163650952Y-101131775D01*
X163917618Y-101703203D02*
X164298571Y-101703203D01*
X163841428Y-101931775D02*
X164108095Y-101131775D01*
X164108095Y-101131775D02*
X164374761Y-101931775D01*
X165098571Y-101855584D02*
X165060475Y-101893680D01*
X165060475Y-101893680D02*
X164946190Y-101931775D01*
X164946190Y-101931775D02*
X164869999Y-101931775D01*
X164869999Y-101931775D02*
X164755713Y-101893680D01*
X164755713Y-101893680D02*
X164679523Y-101817489D01*
X164679523Y-101817489D02*
X164641428Y-101741299D01*
X164641428Y-101741299D02*
X164603332Y-101588918D01*
X164603332Y-101588918D02*
X164603332Y-101474632D01*
X164603332Y-101474632D02*
X164641428Y-101322251D01*
X164641428Y-101322251D02*
X164679523Y-101246060D01*
X164679523Y-101246060D02*
X164755713Y-101169870D01*
X164755713Y-101169870D02*
X164869999Y-101131775D01*
X164869999Y-101131775D02*
X164946190Y-101131775D01*
X164946190Y-101131775D02*
X165060475Y-101169870D01*
X165060475Y-101169870D02*
X165098571Y-101207965D01*
X165441428Y-101512727D02*
X165708094Y-101512727D01*
X165822380Y-101931775D02*
X165441428Y-101931775D01*
X165441428Y-101931775D02*
X165441428Y-101131775D01*
X165441428Y-101131775D02*
X165822380Y-101131775D01*
X166127142Y-101893680D02*
X166241428Y-101931775D01*
X166241428Y-101931775D02*
X166431904Y-101931775D01*
X166431904Y-101931775D02*
X166508095Y-101893680D01*
X166508095Y-101893680D02*
X166546190Y-101855584D01*
X166546190Y-101855584D02*
X166584285Y-101779394D01*
X166584285Y-101779394D02*
X166584285Y-101703203D01*
X166584285Y-101703203D02*
X166546190Y-101627013D01*
X166546190Y-101627013D02*
X166508095Y-101588918D01*
X166508095Y-101588918D02*
X166431904Y-101550822D01*
X166431904Y-101550822D02*
X166279523Y-101512727D01*
X166279523Y-101512727D02*
X166203333Y-101474632D01*
X166203333Y-101474632D02*
X166165238Y-101436537D01*
X166165238Y-101436537D02*
X166127142Y-101360346D01*
X166127142Y-101360346D02*
X166127142Y-101284156D01*
X166127142Y-101284156D02*
X166165238Y-101207965D01*
X166165238Y-101207965D02*
X166203333Y-101169870D01*
X166203333Y-101169870D02*
X166279523Y-101131775D01*
X166279523Y-101131775D02*
X166470000Y-101131775D01*
X166470000Y-101131775D02*
X166584285Y-101169870D01*
X158774762Y-93355584D02*
X158736666Y-93393680D01*
X158736666Y-93393680D02*
X158622381Y-93431775D01*
X158622381Y-93431775D02*
X158546190Y-93431775D01*
X158546190Y-93431775D02*
X158431904Y-93393680D01*
X158431904Y-93393680D02*
X158355714Y-93317489D01*
X158355714Y-93317489D02*
X158317619Y-93241299D01*
X158317619Y-93241299D02*
X158279523Y-93088918D01*
X158279523Y-93088918D02*
X158279523Y-92974632D01*
X158279523Y-92974632D02*
X158317619Y-92822251D01*
X158317619Y-92822251D02*
X158355714Y-92746060D01*
X158355714Y-92746060D02*
X158431904Y-92669870D01*
X158431904Y-92669870D02*
X158546190Y-92631775D01*
X158546190Y-92631775D02*
X158622381Y-92631775D01*
X158622381Y-92631775D02*
X158736666Y-92669870D01*
X158736666Y-92669870D02*
X158774762Y-92707965D01*
X159270000Y-92631775D02*
X159422381Y-92631775D01*
X159422381Y-92631775D02*
X159498571Y-92669870D01*
X159498571Y-92669870D02*
X159574762Y-92746060D01*
X159574762Y-92746060D02*
X159612857Y-92898441D01*
X159612857Y-92898441D02*
X159612857Y-93165108D01*
X159612857Y-93165108D02*
X159574762Y-93317489D01*
X159574762Y-93317489D02*
X159498571Y-93393680D01*
X159498571Y-93393680D02*
X159422381Y-93431775D01*
X159422381Y-93431775D02*
X159270000Y-93431775D01*
X159270000Y-93431775D02*
X159193809Y-93393680D01*
X159193809Y-93393680D02*
X159117619Y-93317489D01*
X159117619Y-93317489D02*
X159079523Y-93165108D01*
X159079523Y-93165108D02*
X159079523Y-92898441D01*
X159079523Y-92898441D02*
X159117619Y-92746060D01*
X159117619Y-92746060D02*
X159193809Y-92669870D01*
X159193809Y-92669870D02*
X159270000Y-92631775D01*
X159955714Y-93431775D02*
X159955714Y-92631775D01*
X159955714Y-92631775D02*
X160412857Y-93431775D01*
X160412857Y-93431775D02*
X160412857Y-92631775D01*
X160793809Y-93431775D02*
X160793809Y-92631775D01*
X160793809Y-92631775D02*
X161250952Y-93431775D01*
X161250952Y-93431775D02*
X161250952Y-92631775D01*
X161631904Y-93012727D02*
X161898570Y-93012727D01*
X162012856Y-93431775D02*
X161631904Y-93431775D01*
X161631904Y-93431775D02*
X161631904Y-92631775D01*
X161631904Y-92631775D02*
X162012856Y-92631775D01*
X162812857Y-93355584D02*
X162774761Y-93393680D01*
X162774761Y-93393680D02*
X162660476Y-93431775D01*
X162660476Y-93431775D02*
X162584285Y-93431775D01*
X162584285Y-93431775D02*
X162469999Y-93393680D01*
X162469999Y-93393680D02*
X162393809Y-93317489D01*
X162393809Y-93317489D02*
X162355714Y-93241299D01*
X162355714Y-93241299D02*
X162317618Y-93088918D01*
X162317618Y-93088918D02*
X162317618Y-92974632D01*
X162317618Y-92974632D02*
X162355714Y-92822251D01*
X162355714Y-92822251D02*
X162393809Y-92746060D01*
X162393809Y-92746060D02*
X162469999Y-92669870D01*
X162469999Y-92669870D02*
X162584285Y-92631775D01*
X162584285Y-92631775D02*
X162660476Y-92631775D01*
X162660476Y-92631775D02*
X162774761Y-92669870D01*
X162774761Y-92669870D02*
X162812857Y-92707965D01*
X163041428Y-92631775D02*
X163498571Y-92631775D01*
X163269999Y-93431775D02*
X163269999Y-92631775D01*
X163917619Y-92631775D02*
X164070000Y-92631775D01*
X164070000Y-92631775D02*
X164146190Y-92669870D01*
X164146190Y-92669870D02*
X164222381Y-92746060D01*
X164222381Y-92746060D02*
X164260476Y-92898441D01*
X164260476Y-92898441D02*
X164260476Y-93165108D01*
X164260476Y-93165108D02*
X164222381Y-93317489D01*
X164222381Y-93317489D02*
X164146190Y-93393680D01*
X164146190Y-93393680D02*
X164070000Y-93431775D01*
X164070000Y-93431775D02*
X163917619Y-93431775D01*
X163917619Y-93431775D02*
X163841428Y-93393680D01*
X163841428Y-93393680D02*
X163765238Y-93317489D01*
X163765238Y-93317489D02*
X163727142Y-93165108D01*
X163727142Y-93165108D02*
X163727142Y-92898441D01*
X163727142Y-92898441D02*
X163765238Y-92746060D01*
X163765238Y-92746060D02*
X163841428Y-92669870D01*
X163841428Y-92669870D02*
X163917619Y-92631775D01*
X165060476Y-93431775D02*
X164793809Y-93050822D01*
X164603333Y-93431775D02*
X164603333Y-92631775D01*
X164603333Y-92631775D02*
X164908095Y-92631775D01*
X164908095Y-92631775D02*
X164984285Y-92669870D01*
X164984285Y-92669870D02*
X165022380Y-92707965D01*
X165022380Y-92707965D02*
X165060476Y-92784156D01*
X165060476Y-92784156D02*
X165060476Y-92898441D01*
X165060476Y-92898441D02*
X165022380Y-92974632D01*
X165022380Y-92974632D02*
X164984285Y-93012727D01*
X164984285Y-93012727D02*
X164908095Y-93050822D01*
X164908095Y-93050822D02*
X164603333Y-93050822D01*
D15*
X166773554Y-87883453D02*
X166289744Y-87883453D01*
X166289744Y-87883453D02*
X166241363Y-88367263D01*
X166241363Y-88367263D02*
X166289744Y-88318882D01*
X166289744Y-88318882D02*
X166386506Y-88270501D01*
X166386506Y-88270501D02*
X166628411Y-88270501D01*
X166628411Y-88270501D02*
X166725173Y-88318882D01*
X166725173Y-88318882D02*
X166773554Y-88367263D01*
X166773554Y-88367263D02*
X166821935Y-88464025D01*
X166821935Y-88464025D02*
X166821935Y-88705930D01*
X166821935Y-88705930D02*
X166773554Y-88802692D01*
X166773554Y-88802692D02*
X166725173Y-88851073D01*
X166725173Y-88851073D02*
X166628411Y-88899453D01*
X166628411Y-88899453D02*
X166386506Y-88899453D01*
X166386506Y-88899453D02*
X166289744Y-88851073D01*
X166289744Y-88851073D02*
X166241363Y-88802692D01*
X167112220Y-87883453D02*
X167450887Y-88899453D01*
X167450887Y-88899453D02*
X167789554Y-87883453D01*
D11*
X201604819Y-102533333D02*
X202319104Y-102533333D01*
X202319104Y-102533333D02*
X202461961Y-102580952D01*
X202461961Y-102580952D02*
X202557200Y-102676190D01*
X202557200Y-102676190D02*
X202604819Y-102819047D01*
X202604819Y-102819047D02*
X202604819Y-102914285D01*
X202604819Y-101533333D02*
X202604819Y-102104761D01*
X202604819Y-101819047D02*
X201604819Y-101819047D01*
X201604819Y-101819047D02*
X201747676Y-101914285D01*
X201747676Y-101914285D02*
X201842914Y-102009523D01*
X201842914Y-102009523D02*
X201890533Y-102104761D01*
X196221009Y-135045237D02*
X196221009Y-134711904D01*
X196744819Y-134569047D02*
X196744819Y-135045237D01*
X196744819Y-135045237D02*
X195744819Y-135045237D01*
X195744819Y-135045237D02*
X195744819Y-134569047D01*
X196744819Y-134140475D02*
X195744819Y-134140475D01*
X195744819Y-134140475D02*
X196744819Y-133569047D01*
X196744819Y-133569047D02*
X195744819Y-133569047D01*
X195744819Y-133235713D02*
X195744819Y-132664285D01*
X196744819Y-132949999D02*
X195744819Y-132949999D01*
X196744819Y-131759523D02*
X196268628Y-132092856D01*
X196744819Y-132330951D02*
X195744819Y-132330951D01*
X195744819Y-132330951D02*
X195744819Y-131949999D01*
X195744819Y-131949999D02*
X195792438Y-131854761D01*
X195792438Y-131854761D02*
X195840057Y-131807142D01*
X195840057Y-131807142D02*
X195935295Y-131759523D01*
X195935295Y-131759523D02*
X196078152Y-131759523D01*
X196078152Y-131759523D02*
X196173390Y-131807142D01*
X196173390Y-131807142D02*
X196221009Y-131854761D01*
X196221009Y-131854761D02*
X196268628Y-131949999D01*
X196268628Y-131949999D02*
X196268628Y-132330951D01*
X196744819Y-130807142D02*
X196744819Y-131378570D01*
X196744819Y-131092856D02*
X195744819Y-131092856D01*
X195744819Y-131092856D02*
X195887676Y-131188094D01*
X195887676Y-131188094D02*
X195982914Y-131283332D01*
X195982914Y-131283332D02*
X196030533Y-131378570D01*
X134666666Y-125704819D02*
X134666666Y-126419104D01*
X134666666Y-126419104D02*
X134619047Y-126561961D01*
X134619047Y-126561961D02*
X134523809Y-126657200D01*
X134523809Y-126657200D02*
X134380952Y-126704819D01*
X134380952Y-126704819D02*
X134285714Y-126704819D01*
X135571428Y-125704819D02*
X135380952Y-125704819D01*
X135380952Y-125704819D02*
X135285714Y-125752438D01*
X135285714Y-125752438D02*
X135238095Y-125800057D01*
X135238095Y-125800057D02*
X135142857Y-125942914D01*
X135142857Y-125942914D02*
X135095238Y-126133390D01*
X135095238Y-126133390D02*
X135095238Y-126514342D01*
X135095238Y-126514342D02*
X135142857Y-126609580D01*
X135142857Y-126609580D02*
X135190476Y-126657200D01*
X135190476Y-126657200D02*
X135285714Y-126704819D01*
X135285714Y-126704819D02*
X135476190Y-126704819D01*
X135476190Y-126704819D02*
X135571428Y-126657200D01*
X135571428Y-126657200D02*
X135619047Y-126609580D01*
X135619047Y-126609580D02*
X135666666Y-126514342D01*
X135666666Y-126514342D02*
X135666666Y-126276247D01*
X135666666Y-126276247D02*
X135619047Y-126181009D01*
X135619047Y-126181009D02*
X135571428Y-126133390D01*
X135571428Y-126133390D02*
X135476190Y-126085771D01*
X135476190Y-126085771D02*
X135285714Y-126085771D01*
X135285714Y-126085771D02*
X135190476Y-126133390D01*
X135190476Y-126133390D02*
X135142857Y-126181009D01*
X135142857Y-126181009D02*
X135095238Y-126276247D01*
X205404819Y-128916666D02*
X204928628Y-129249999D01*
X205404819Y-129488094D02*
X204404819Y-129488094D01*
X204404819Y-129488094D02*
X204404819Y-129107142D01*
X204404819Y-129107142D02*
X204452438Y-129011904D01*
X204452438Y-129011904D02*
X204500057Y-128964285D01*
X204500057Y-128964285D02*
X204595295Y-128916666D01*
X204595295Y-128916666D02*
X204738152Y-128916666D01*
X204738152Y-128916666D02*
X204833390Y-128964285D01*
X204833390Y-128964285D02*
X204881009Y-129011904D01*
X204881009Y-129011904D02*
X204928628Y-129107142D01*
X204928628Y-129107142D02*
X204928628Y-129488094D01*
X204404819Y-128583332D02*
X204404819Y-127964285D01*
X204404819Y-127964285D02*
X204785771Y-128297618D01*
X204785771Y-128297618D02*
X204785771Y-128154761D01*
X204785771Y-128154761D02*
X204833390Y-128059523D01*
X204833390Y-128059523D02*
X204881009Y-128011904D01*
X204881009Y-128011904D02*
X204976247Y-127964285D01*
X204976247Y-127964285D02*
X205214342Y-127964285D01*
X205214342Y-127964285D02*
X205309580Y-128011904D01*
X205309580Y-128011904D02*
X205357200Y-128059523D01*
X205357200Y-128059523D02*
X205404819Y-128154761D01*
X205404819Y-128154761D02*
X205404819Y-128440475D01*
X205404819Y-128440475D02*
X205357200Y-128535713D01*
X205357200Y-128535713D02*
X205309580Y-128583332D01*
D12*
D11*
X186028095Y-109692319D02*
X186028095Y-110501842D01*
X186028095Y-110501842D02*
X186075714Y-110597080D01*
X186075714Y-110597080D02*
X186123333Y-110644700D01*
X186123333Y-110644700D02*
X186218571Y-110692319D01*
X186218571Y-110692319D02*
X186409047Y-110692319D01*
X186409047Y-110692319D02*
X186504285Y-110644700D01*
X186504285Y-110644700D02*
X186551904Y-110597080D01*
X186551904Y-110597080D02*
X186599523Y-110501842D01*
X186599523Y-110501842D02*
X186599523Y-109692319D01*
X187218571Y-110120890D02*
X187123333Y-110073271D01*
X187123333Y-110073271D02*
X187075714Y-110025652D01*
X187075714Y-110025652D02*
X187028095Y-109930414D01*
X187028095Y-109930414D02*
X187028095Y-109882795D01*
X187028095Y-109882795D02*
X187075714Y-109787557D01*
X187075714Y-109787557D02*
X187123333Y-109739938D01*
X187123333Y-109739938D02*
X187218571Y-109692319D01*
X187218571Y-109692319D02*
X187409047Y-109692319D01*
X187409047Y-109692319D02*
X187504285Y-109739938D01*
X187504285Y-109739938D02*
X187551904Y-109787557D01*
X187551904Y-109787557D02*
X187599523Y-109882795D01*
X187599523Y-109882795D02*
X187599523Y-109930414D01*
X187599523Y-109930414D02*
X187551904Y-110025652D01*
X187551904Y-110025652D02*
X187504285Y-110073271D01*
X187504285Y-110073271D02*
X187409047Y-110120890D01*
X187409047Y-110120890D02*
X187218571Y-110120890D01*
X187218571Y-110120890D02*
X187123333Y-110168509D01*
X187123333Y-110168509D02*
X187075714Y-110216128D01*
X187075714Y-110216128D02*
X187028095Y-110311366D01*
X187028095Y-110311366D02*
X187028095Y-110501842D01*
X187028095Y-110501842D02*
X187075714Y-110597080D01*
X187075714Y-110597080D02*
X187123333Y-110644700D01*
X187123333Y-110644700D02*
X187218571Y-110692319D01*
X187218571Y-110692319D02*
X187409047Y-110692319D01*
X187409047Y-110692319D02*
X187504285Y-110644700D01*
X187504285Y-110644700D02*
X187551904Y-110597080D01*
X187551904Y-110597080D02*
X187599523Y-110501842D01*
X187599523Y-110501842D02*
X187599523Y-110311366D01*
X187599523Y-110311366D02*
X187551904Y-110216128D01*
X187551904Y-110216128D02*
X187504285Y-110168509D01*
X187504285Y-110168509D02*
X187409047Y-110120890D01*
X141988095Y-92204819D02*
X141988095Y-93014342D01*
X141988095Y-93014342D02*
X142035714Y-93109580D01*
X142035714Y-93109580D02*
X142083333Y-93157200D01*
X142083333Y-93157200D02*
X142178571Y-93204819D01*
X142178571Y-93204819D02*
X142369047Y-93204819D01*
X142369047Y-93204819D02*
X142464285Y-93157200D01*
X142464285Y-93157200D02*
X142511904Y-93109580D01*
X142511904Y-93109580D02*
X142559523Y-93014342D01*
X142559523Y-93014342D02*
X142559523Y-92204819D01*
X142988095Y-92300057D02*
X143035714Y-92252438D01*
X143035714Y-92252438D02*
X143130952Y-92204819D01*
X143130952Y-92204819D02*
X143369047Y-92204819D01*
X143369047Y-92204819D02*
X143464285Y-92252438D01*
X143464285Y-92252438D02*
X143511904Y-92300057D01*
X143511904Y-92300057D02*
X143559523Y-92395295D01*
X143559523Y-92395295D02*
X143559523Y-92490533D01*
X143559523Y-92490533D02*
X143511904Y-92633390D01*
X143511904Y-92633390D02*
X142940476Y-93204819D01*
X142940476Y-93204819D02*
X143559523Y-93204819D01*
X202054819Y-134746666D02*
X201578628Y-135079999D01*
X202054819Y-135318094D02*
X201054819Y-135318094D01*
X201054819Y-135318094D02*
X201054819Y-134937142D01*
X201054819Y-134937142D02*
X201102438Y-134841904D01*
X201102438Y-134841904D02*
X201150057Y-134794285D01*
X201150057Y-134794285D02*
X201245295Y-134746666D01*
X201245295Y-134746666D02*
X201388152Y-134746666D01*
X201388152Y-134746666D02*
X201483390Y-134794285D01*
X201483390Y-134794285D02*
X201531009Y-134841904D01*
X201531009Y-134841904D02*
X201578628Y-134937142D01*
X201578628Y-134937142D02*
X201578628Y-135318094D01*
X201150057Y-134365713D02*
X201102438Y-134318094D01*
X201102438Y-134318094D02*
X201054819Y-134222856D01*
X201054819Y-134222856D02*
X201054819Y-133984761D01*
X201054819Y-133984761D02*
X201102438Y-133889523D01*
X201102438Y-133889523D02*
X201150057Y-133841904D01*
X201150057Y-133841904D02*
X201245295Y-133794285D01*
X201245295Y-133794285D02*
X201340533Y-133794285D01*
X201340533Y-133794285D02*
X201483390Y-133841904D01*
X201483390Y-133841904D02*
X202054819Y-134413332D01*
X202054819Y-134413332D02*
X202054819Y-133794285D01*
X177744819Y-133950000D02*
X177268628Y-134283333D01*
X177744819Y-134521428D02*
X176744819Y-134521428D01*
X176744819Y-134521428D02*
X176744819Y-134140476D01*
X176744819Y-134140476D02*
X176792438Y-134045238D01*
X176792438Y-134045238D02*
X176840057Y-133997619D01*
X176840057Y-133997619D02*
X176935295Y-133950000D01*
X176935295Y-133950000D02*
X177078152Y-133950000D01*
X177078152Y-133950000D02*
X177173390Y-133997619D01*
X177173390Y-133997619D02*
X177221009Y-134045238D01*
X177221009Y-134045238D02*
X177268628Y-134140476D01*
X177268628Y-134140476D02*
X177268628Y-134521428D01*
X177221009Y-133521428D02*
X177221009Y-133188095D01*
X177744819Y-133045238D02*
X177744819Y-133521428D01*
X177744819Y-133521428D02*
X176744819Y-133521428D01*
X176744819Y-133521428D02*
X176744819Y-133045238D01*
X176744819Y-132759523D02*
X176744819Y-132188095D01*
X177744819Y-132473809D02*
X176744819Y-132473809D01*
X177744819Y-131330952D02*
X177744819Y-131902380D01*
X177744819Y-131616666D02*
X176744819Y-131616666D01*
X176744819Y-131616666D02*
X176887676Y-131711904D01*
X176887676Y-131711904D02*
X176982914Y-131807142D01*
X176982914Y-131807142D02*
X177030533Y-131902380D01*
X184432857Y-137654819D02*
X184432857Y-136654819D01*
X184432857Y-136654819D02*
X184670952Y-136654819D01*
X184670952Y-136654819D02*
X184813809Y-136702438D01*
X184813809Y-136702438D02*
X184909047Y-136797676D01*
X184909047Y-136797676D02*
X184956666Y-136892914D01*
X184956666Y-136892914D02*
X185004285Y-137083390D01*
X185004285Y-137083390D02*
X185004285Y-137226247D01*
X185004285Y-137226247D02*
X184956666Y-137416723D01*
X184956666Y-137416723D02*
X184909047Y-137511961D01*
X184909047Y-137511961D02*
X184813809Y-137607200D01*
X184813809Y-137607200D02*
X184670952Y-137654819D01*
X184670952Y-137654819D02*
X184432857Y-137654819D01*
X185623333Y-136654819D02*
X185813809Y-136654819D01*
X185813809Y-136654819D02*
X185909047Y-136702438D01*
X185909047Y-136702438D02*
X186004285Y-136797676D01*
X186004285Y-136797676D02*
X186051904Y-136988152D01*
X186051904Y-136988152D02*
X186051904Y-137321485D01*
X186051904Y-137321485D02*
X186004285Y-137511961D01*
X186004285Y-137511961D02*
X185909047Y-137607200D01*
X185909047Y-137607200D02*
X185813809Y-137654819D01*
X185813809Y-137654819D02*
X185623333Y-137654819D01*
X185623333Y-137654819D02*
X185528095Y-137607200D01*
X185528095Y-137607200D02*
X185432857Y-137511961D01*
X185432857Y-137511961D02*
X185385238Y-137321485D01*
X185385238Y-137321485D02*
X185385238Y-136988152D01*
X185385238Y-136988152D02*
X185432857Y-136797676D01*
X185432857Y-136797676D02*
X185528095Y-136702438D01*
X185528095Y-136702438D02*
X185623333Y-136654819D01*
X186385238Y-136654819D02*
X186623333Y-137654819D01*
X186623333Y-137654819D02*
X186813809Y-136940533D01*
X186813809Y-136940533D02*
X187004285Y-137654819D01*
X187004285Y-137654819D02*
X187242381Y-136654819D01*
X187623333Y-137654819D02*
X187623333Y-136654819D01*
X187623333Y-136654819D02*
X188194761Y-137654819D01*
X188194761Y-137654819D02*
X188194761Y-136654819D01*
X189194761Y-137654819D02*
X188623333Y-137654819D01*
X188909047Y-137654819D02*
X188909047Y-136654819D01*
X188909047Y-136654819D02*
X188813809Y-136797676D01*
X188813809Y-136797676D02*
X188718571Y-136892914D01*
X188718571Y-136892914D02*
X188623333Y-136940533D01*
D16*
%TO.C,J2*%
X173080000Y-86660000D02*
X206360000Y-86660000D01*
X173080000Y-95780000D02*
X173080000Y-86660000D01*
X174380000Y-87970000D02*
X205060000Y-87970000D01*
X174380000Y-94470000D02*
X174380000Y-87970000D01*
X177790000Y-97170000D02*
X178790000Y-97170000D01*
X178290000Y-96170000D02*
X177790000Y-97170000D01*
X178790000Y-97170000D02*
X178290000Y-96170000D01*
X187670000Y-94470000D02*
X174380000Y-94470000D01*
X187670000Y-95780000D02*
X187670000Y-94470000D01*
X191770000Y-94470000D02*
X191770000Y-94470000D01*
X191770000Y-94470000D02*
X191770000Y-95780000D01*
X205060000Y-87970000D02*
X205060000Y-94470000D01*
X205060000Y-94470000D02*
X191770000Y-94470000D01*
X206360000Y-86660000D02*
X206360000Y-95780000D01*
X206360000Y-95780000D02*
X173080000Y-95780000D01*
%TO.C,J3*%
X203670000Y-106380000D02*
X205000000Y-106380000D01*
X203670000Y-107710000D02*
X203670000Y-106380000D01*
X203670000Y-108980000D02*
X203670000Y-121740000D01*
X203670000Y-108980000D02*
X206330000Y-108980000D01*
X203670000Y-121740000D02*
X206330000Y-121740000D01*
X206330000Y-108980000D02*
X206330000Y-121740000D01*
%TO.C,UP1*%
X183290000Y-127950000D02*
X183290000Y-129450000D01*
X184540000Y-131950000D02*
X189040000Y-131950000D01*
X189040000Y-125450000D02*
X184540000Y-125450000D01*
X190290000Y-129450000D02*
X190290000Y-127950000D01*
%TO.C,J5*%
X133670000Y-115170000D02*
X135000000Y-115170000D01*
X133670000Y-116500000D02*
X133670000Y-115170000D01*
X133670000Y-117770000D02*
X133670000Y-125450000D01*
X133670000Y-117770000D02*
X136330000Y-117770000D01*
X133670000Y-125450000D02*
X136330000Y-125450000D01*
X136330000Y-117770000D02*
X136330000Y-125450000D01*
%TO.C,R1*%
X200230000Y-118980000D02*
X200230000Y-125520000D01*
X200230000Y-125520000D02*
X202970000Y-125520000D01*
X201600000Y-118210000D02*
X201600000Y-118980000D01*
X201600000Y-126290000D02*
X201600000Y-125520000D01*
X202970000Y-118980000D02*
X200230000Y-118980000D01*
X202970000Y-125520000D02*
X202970000Y-118980000D01*
D17*
%TO.C, *%
G36*
X144341600Y-115627583D02*
G01*
X144355154Y-115639919D01*
X144364017Y-115669567D01*
X144369181Y-115723960D01*
X144371637Y-115810534D01*
X144372377Y-115936723D01*
X144372414Y-116000493D01*
X144372086Y-116144758D01*
X144370441Y-116246411D01*
X144366488Y-116312884D01*
X144359236Y-116351614D01*
X144347693Y-116370035D01*
X144330867Y-116375583D01*
X144322365Y-116375862D01*
X144303129Y-116373403D01*
X144289576Y-116361067D01*
X144280712Y-116331419D01*
X144275548Y-116277026D01*
X144273092Y-116190452D01*
X144272353Y-116064263D01*
X144272315Y-116000493D01*
X144272643Y-115856227D01*
X144274288Y-115754575D01*
X144278241Y-115688102D01*
X144285494Y-115649372D01*
X144297037Y-115630950D01*
X144313862Y-115625403D01*
X144322365Y-115625123D01*
X144341600Y-115627583D01*
G37*
G36*
X144836491Y-117305254D02*
G01*
X144925848Y-117337822D01*
X145036343Y-117383376D01*
X145160349Y-117438305D01*
X145290240Y-117498997D01*
X145418390Y-117561840D01*
X145537173Y-117623222D01*
X145638962Y-117679530D01*
X145716132Y-117727154D01*
X145761056Y-117762479D01*
X145769278Y-117775490D01*
X145771622Y-117816905D01*
X145767181Y-117827291D01*
X145740659Y-117817022D01*
X145677128Y-117788755D01*
X145584626Y-117746302D01*
X145471191Y-117693473D01*
X145344862Y-117634079D01*
X145213677Y-117571932D01*
X145085674Y-117510842D01*
X144968892Y-117454619D01*
X144871370Y-117407076D01*
X144801145Y-117372022D01*
X144766257Y-117353270D01*
X144764205Y-117351790D01*
X144750082Y-117312712D01*
X144751693Y-117293527D01*
X144775897Y-117289285D01*
X144836491Y-117305254D01*
G37*
G36*
X144836491Y-118806732D02*
G01*
X144925848Y-118839299D01*
X145036343Y-118884854D01*
X145160349Y-118939783D01*
X145290240Y-119000475D01*
X145418390Y-119063318D01*
X145537173Y-119124700D01*
X145638962Y-119181008D01*
X145716132Y-119228631D01*
X145761056Y-119263957D01*
X145769278Y-119276968D01*
X145771622Y-119318383D01*
X145767181Y-119328769D01*
X145740659Y-119318500D01*
X145677128Y-119290233D01*
X145584626Y-119247780D01*
X145471191Y-119194951D01*
X145344862Y-119135557D01*
X145213677Y-119073410D01*
X145085674Y-119012319D01*
X144968892Y-118956097D01*
X144871370Y-118908554D01*
X144801145Y-118873500D01*
X144766257Y-118854748D01*
X144764205Y-118853268D01*
X144750082Y-118814190D01*
X144751693Y-118795005D01*
X144775897Y-118790763D01*
X144836491Y-118806732D01*
G37*
G36*
X145843078Y-109621672D02*
G01*
X145856631Y-109634008D01*
X145865495Y-109663655D01*
X145870659Y-109718048D01*
X145873115Y-109804622D01*
X145873854Y-109930812D01*
X145873892Y-109994582D01*
X145873564Y-110138847D01*
X145871919Y-110240499D01*
X145867966Y-110306973D01*
X145860714Y-110345703D01*
X145849170Y-110364124D01*
X145832345Y-110369671D01*
X145823842Y-110369951D01*
X145804607Y-110367491D01*
X145791053Y-110355155D01*
X145782190Y-110325508D01*
X145777026Y-110271115D01*
X145774570Y-110184541D01*
X145773830Y-110058351D01*
X145773793Y-109994582D01*
X145774121Y-109850316D01*
X145775766Y-109748664D01*
X145779719Y-109682190D01*
X145786971Y-109643460D01*
X145798515Y-109625039D01*
X145815340Y-109619492D01*
X145823842Y-109619212D01*
X145843078Y-109621672D01*
G37*
G36*
X145843078Y-112624628D02*
G01*
X145856631Y-112636964D01*
X145865495Y-112666611D01*
X145870659Y-112721004D01*
X145873115Y-112807578D01*
X145873854Y-112933767D01*
X145873892Y-112997537D01*
X145873564Y-113141803D01*
X145871919Y-113243455D01*
X145867966Y-113309929D01*
X145860714Y-113348659D01*
X145849170Y-113367080D01*
X145832345Y-113372627D01*
X145823842Y-113372907D01*
X145804607Y-113370447D01*
X145791053Y-113358111D01*
X145782190Y-113328464D01*
X145777026Y-113274071D01*
X145774570Y-113187497D01*
X145773830Y-113061307D01*
X145773793Y-112997537D01*
X145774121Y-112853272D01*
X145775766Y-112751620D01*
X145779719Y-112685146D01*
X145786971Y-112646416D01*
X145798515Y-112627995D01*
X145815340Y-112622447D01*
X145823842Y-112622168D01*
X145843078Y-112624628D01*
G37*
G36*
X145843078Y-114876844D02*
G01*
X145856631Y-114889180D01*
X145865495Y-114918828D01*
X145870659Y-114973221D01*
X145873115Y-115059795D01*
X145873854Y-115185984D01*
X145873892Y-115249754D01*
X145873564Y-115394019D01*
X145871919Y-115495672D01*
X145867966Y-115562145D01*
X145860714Y-115600875D01*
X145849170Y-115619297D01*
X145832345Y-115624844D01*
X145823842Y-115625123D01*
X145804607Y-115622664D01*
X145791053Y-115610328D01*
X145782190Y-115580680D01*
X145777026Y-115526287D01*
X145774570Y-115439713D01*
X145773830Y-115313524D01*
X145773793Y-115249754D01*
X145774121Y-115105489D01*
X145775766Y-115003836D01*
X145779719Y-114937363D01*
X145786971Y-114898633D01*
X145798515Y-114880212D01*
X145815340Y-114874664D01*
X145823842Y-114874385D01*
X145843078Y-114876844D01*
G37*
G36*
X145843078Y-116403347D02*
G01*
X145856631Y-116415683D01*
X145865495Y-116445330D01*
X145870659Y-116499723D01*
X145873115Y-116586297D01*
X145873854Y-116712487D01*
X145873892Y-116776256D01*
X145873564Y-116920522D01*
X145871919Y-117022174D01*
X145867966Y-117088648D01*
X145860714Y-117127378D01*
X145849170Y-117145799D01*
X145832345Y-117151346D01*
X145823842Y-117151626D01*
X145804607Y-117149166D01*
X145791053Y-117136830D01*
X145782190Y-117107183D01*
X145777026Y-117052790D01*
X145774570Y-116966216D01*
X145773830Y-116840026D01*
X145773793Y-116776256D01*
X145774121Y-116631991D01*
X145775766Y-116530339D01*
X145779719Y-116463865D01*
X145786971Y-116425135D01*
X145798515Y-116406714D01*
X145815340Y-116401167D01*
X145823842Y-116400887D01*
X145843078Y-116403347D01*
G37*
G36*
X146337968Y-108246338D02*
G01*
X146427326Y-108278905D01*
X146537821Y-108324460D01*
X146661827Y-108379389D01*
X146791718Y-108440081D01*
X146919868Y-108502924D01*
X147038651Y-108564306D01*
X147140440Y-108620614D01*
X147217610Y-108668237D01*
X147262534Y-108703563D01*
X147270755Y-108716574D01*
X147273100Y-108757989D01*
X147268659Y-108768375D01*
X147242137Y-108758106D01*
X147178606Y-108729839D01*
X147086104Y-108687386D01*
X146972669Y-108634557D01*
X146846340Y-108575163D01*
X146715154Y-108513016D01*
X146587152Y-108451925D01*
X146470370Y-108395703D01*
X146372848Y-108348160D01*
X146302623Y-108313106D01*
X146267735Y-108294353D01*
X146265683Y-108292874D01*
X146251560Y-108253796D01*
X146253171Y-108234611D01*
X146277375Y-108230369D01*
X146337968Y-108246338D01*
G37*
G36*
X146337968Y-118055993D02*
G01*
X146427326Y-118088561D01*
X146537821Y-118134115D01*
X146661827Y-118189044D01*
X146791718Y-118249736D01*
X146919868Y-118312579D01*
X147038651Y-118373961D01*
X147140440Y-118430269D01*
X147217610Y-118477892D01*
X147262534Y-118513218D01*
X147270755Y-118526229D01*
X147273100Y-118567644D01*
X147268659Y-118578030D01*
X147242137Y-118567761D01*
X147178606Y-118539494D01*
X147086104Y-118497041D01*
X146972669Y-118444212D01*
X146846340Y-118384818D01*
X146715154Y-118322671D01*
X146587152Y-118261580D01*
X146470370Y-118205358D01*
X146372848Y-118157815D01*
X146302623Y-118122761D01*
X146267735Y-118104009D01*
X146265683Y-118102529D01*
X146251560Y-118063451D01*
X146253171Y-118044266D01*
X146277375Y-118040024D01*
X146337968Y-118055993D01*
G37*
G36*
X147344556Y-112624628D02*
G01*
X147358109Y-112636964D01*
X147366972Y-112666611D01*
X147372136Y-112721004D01*
X147374593Y-112807578D01*
X147375332Y-112933767D01*
X147375370Y-112997537D01*
X147375042Y-113141803D01*
X147373397Y-113243455D01*
X147369444Y-113309929D01*
X147362191Y-113348659D01*
X147350648Y-113367080D01*
X147333823Y-113372627D01*
X147325320Y-113372907D01*
X147306085Y-113370447D01*
X147292531Y-113358111D01*
X147283668Y-113328464D01*
X147278504Y-113274071D01*
X147276048Y-113187497D01*
X147275308Y-113061307D01*
X147275271Y-112997537D01*
X147275599Y-112853272D01*
X147277244Y-112751620D01*
X147281197Y-112685146D01*
X147288449Y-112646416D01*
X147299992Y-112627995D01*
X147316818Y-112622447D01*
X147325320Y-112622168D01*
X147344556Y-112624628D01*
G37*
G36*
X147839446Y-111274318D02*
G01*
X147928804Y-111306886D01*
X148039299Y-111352440D01*
X148163305Y-111407369D01*
X148293196Y-111468061D01*
X148421346Y-111530904D01*
X148540128Y-111592286D01*
X148641918Y-111648594D01*
X148719087Y-111696218D01*
X148764011Y-111731543D01*
X148772233Y-111744554D01*
X148774578Y-111785969D01*
X148770136Y-111796355D01*
X148743615Y-111786086D01*
X148680084Y-111757819D01*
X148587582Y-111715366D01*
X148474147Y-111662537D01*
X148347817Y-111603143D01*
X148216632Y-111540996D01*
X148088630Y-111479906D01*
X147971848Y-111423683D01*
X147874326Y-111376140D01*
X147804101Y-111341086D01*
X147769213Y-111322334D01*
X147767161Y-111320854D01*
X147753038Y-111281776D01*
X147754648Y-111262591D01*
X147778852Y-111258349D01*
X147839446Y-111274318D01*
G37*
G36*
X147839446Y-118806732D02*
G01*
X147928804Y-118839299D01*
X148039299Y-118884854D01*
X148163305Y-118939783D01*
X148293196Y-119000475D01*
X148421346Y-119063318D01*
X148540128Y-119124700D01*
X148641918Y-119181008D01*
X148719087Y-119228631D01*
X148764011Y-119263957D01*
X148772233Y-119276968D01*
X148774578Y-119318383D01*
X148770136Y-119328769D01*
X148743615Y-119318500D01*
X148680084Y-119290233D01*
X148587582Y-119247780D01*
X148474147Y-119194951D01*
X148347817Y-119135557D01*
X148216632Y-119073410D01*
X148088630Y-119012319D01*
X147971848Y-118956097D01*
X147874326Y-118908554D01*
X147804101Y-118873500D01*
X147769213Y-118854748D01*
X147767161Y-118853268D01*
X147753038Y-118814190D01*
X147754648Y-118795005D01*
X147778852Y-118790763D01*
X147839446Y-118806732D01*
G37*
G36*
X148846034Y-108870933D02*
G01*
X148859587Y-108883269D01*
X148868450Y-108912916D01*
X148873614Y-108967309D01*
X148876070Y-109053883D01*
X148876810Y-109180073D01*
X148876847Y-109243843D01*
X148876519Y-109388108D01*
X148874875Y-109489760D01*
X148870922Y-109556234D01*
X148863669Y-109594964D01*
X148852126Y-109613385D01*
X148835301Y-109618933D01*
X148826798Y-109619212D01*
X148807563Y-109616752D01*
X148794009Y-109604416D01*
X148785146Y-109574769D01*
X148779982Y-109520376D01*
X148777526Y-109433802D01*
X148776786Y-109307612D01*
X148776749Y-109243843D01*
X148777077Y-109099577D01*
X148778722Y-108997925D01*
X148782675Y-108931451D01*
X148789927Y-108892721D01*
X148801470Y-108874300D01*
X148818295Y-108868753D01*
X148826798Y-108868473D01*
X148846034Y-108870933D01*
G37*
G36*
X148846034Y-110372411D02*
G01*
X148859587Y-110384747D01*
X148868450Y-110414394D01*
X148873614Y-110468787D01*
X148876070Y-110555361D01*
X148876810Y-110681551D01*
X148876847Y-110745321D01*
X148876519Y-110889586D01*
X148874875Y-110991238D01*
X148870922Y-111057712D01*
X148863669Y-111096442D01*
X148852126Y-111114863D01*
X148835301Y-111120410D01*
X148826798Y-111120690D01*
X148807563Y-111118230D01*
X148794009Y-111105894D01*
X148785146Y-111076247D01*
X148779982Y-111021854D01*
X148777526Y-110935280D01*
X148776786Y-110809090D01*
X148776749Y-110745321D01*
X148777077Y-110601055D01*
X148778722Y-110499403D01*
X148782675Y-110432929D01*
X148789927Y-110394199D01*
X148801470Y-110375778D01*
X148818295Y-110370231D01*
X148826798Y-110369951D01*
X148846034Y-110372411D01*
G37*
G36*
X148846034Y-116403347D02*
G01*
X148859587Y-116415683D01*
X148868450Y-116445330D01*
X148873614Y-116499723D01*
X148876070Y-116586297D01*
X148876810Y-116712487D01*
X148876847Y-116776256D01*
X148876519Y-116920522D01*
X148874875Y-117022174D01*
X148870922Y-117088648D01*
X148863669Y-117127378D01*
X148852126Y-117145799D01*
X148835301Y-117151346D01*
X148826798Y-117151626D01*
X148807563Y-117149166D01*
X148794009Y-117136830D01*
X148785146Y-117107183D01*
X148779982Y-117052790D01*
X148777526Y-116966216D01*
X148776786Y-116840026D01*
X148776749Y-116776256D01*
X148777077Y-116631991D01*
X148778722Y-116530339D01*
X148782675Y-116463865D01*
X148789927Y-116425135D01*
X148801470Y-116406714D01*
X148818295Y-116401167D01*
X148826798Y-116400887D01*
X148846034Y-116403347D01*
G37*
G36*
X148846034Y-119406303D02*
G01*
X148859587Y-119418639D01*
X148868450Y-119448286D01*
X148873614Y-119502679D01*
X148876070Y-119589253D01*
X148876810Y-119715442D01*
X148876847Y-119779212D01*
X148876519Y-119923478D01*
X148874875Y-120025130D01*
X148870922Y-120091603D01*
X148863669Y-120130333D01*
X148852126Y-120148755D01*
X148835301Y-120154302D01*
X148826798Y-120154582D01*
X148807563Y-120152122D01*
X148794009Y-120139786D01*
X148785146Y-120110139D01*
X148779982Y-120055745D01*
X148777526Y-119969172D01*
X148776786Y-119842982D01*
X148776749Y-119779212D01*
X148777077Y-119634947D01*
X148778722Y-119533295D01*
X148782675Y-119466821D01*
X148789927Y-119428091D01*
X148801470Y-119409670D01*
X148818295Y-119404122D01*
X148826798Y-119403843D01*
X148846034Y-119406303D01*
G37*
G36*
X145769257Y-108214026D02*
G01*
X145773721Y-108224538D01*
X145773841Y-108240901D01*
X145773793Y-108245558D01*
X145761288Y-108278301D01*
X145718912Y-108313613D01*
X145639374Y-108356856D01*
X145592365Y-108379026D01*
X145499429Y-108422057D01*
X145376594Y-108479461D01*
X145239140Y-108544072D01*
X145102345Y-108608727D01*
X145088410Y-108615336D01*
X144972463Y-108670014D01*
X144873460Y-108716057D01*
X144799761Y-108749628D01*
X144759724Y-108766890D01*
X144755094Y-108768375D01*
X144749673Y-108747618D01*
X144752299Y-108716799D01*
X144765881Y-108692661D01*
X144803193Y-108662021D01*
X144869251Y-108621964D01*
X144969068Y-108569578D01*
X145107662Y-108501947D01*
X145185714Y-108464963D01*
X145364140Y-108380956D01*
X145502333Y-108316189D01*
X145605421Y-108268751D01*
X145678530Y-108236728D01*
X145726788Y-108218209D01*
X145755321Y-108211279D01*
X145769257Y-108214026D01*
G37*
G36*
X145769257Y-120275898D02*
G01*
X145773721Y-120286410D01*
X145773841Y-120302773D01*
X145773793Y-120307430D01*
X145761288Y-120340173D01*
X145718912Y-120375484D01*
X145639374Y-120418728D01*
X145592365Y-120440898D01*
X145499429Y-120483929D01*
X145376594Y-120541333D01*
X145239140Y-120605944D01*
X145102345Y-120670599D01*
X145088410Y-120677208D01*
X144972463Y-120731886D01*
X144873460Y-120777929D01*
X144799761Y-120811500D01*
X144759724Y-120828762D01*
X144755094Y-120830247D01*
X144749673Y-120809490D01*
X144752299Y-120778671D01*
X144765881Y-120754533D01*
X144803193Y-120723893D01*
X144869251Y-120683836D01*
X144969068Y-120631450D01*
X145107662Y-120563819D01*
X145185714Y-120526835D01*
X145364140Y-120442827D01*
X145502333Y-120378061D01*
X145605421Y-120330623D01*
X145678530Y-120298600D01*
X145726788Y-120280080D01*
X145755321Y-120273151D01*
X145769257Y-120275898D01*
G37*
G36*
X145769257Y-121777376D02*
G01*
X145773721Y-121787888D01*
X145773841Y-121804251D01*
X145773793Y-121808908D01*
X145761288Y-121841651D01*
X145718912Y-121876962D01*
X145639374Y-121920206D01*
X145592365Y-121942376D01*
X145499429Y-121985407D01*
X145376594Y-122042810D01*
X145239140Y-122107422D01*
X145102345Y-122172077D01*
X145088410Y-122178686D01*
X144972463Y-122233364D01*
X144873460Y-122279407D01*
X144799761Y-122312978D01*
X144759724Y-122330239D01*
X144755094Y-122331724D01*
X144749673Y-122310968D01*
X144752299Y-122280149D01*
X144765881Y-122256011D01*
X144803193Y-122225370D01*
X144869251Y-122185314D01*
X144969068Y-122132927D01*
X145107662Y-122065296D01*
X145185714Y-122028313D01*
X145364140Y-121944305D01*
X145502333Y-121879539D01*
X145605421Y-121832101D01*
X145678530Y-121800078D01*
X145726788Y-121781558D01*
X145755321Y-121774628D01*
X145769257Y-121777376D01*
G37*
G36*
X147270734Y-111242006D02*
G01*
X147275199Y-111252518D01*
X147275319Y-111268881D01*
X147275271Y-111273538D01*
X147262766Y-111306281D01*
X147220390Y-111341593D01*
X147140852Y-111384836D01*
X147093842Y-111407006D01*
X147000907Y-111450037D01*
X146878072Y-111507441D01*
X146740617Y-111572053D01*
X146603823Y-111636707D01*
X146589888Y-111643317D01*
X146473941Y-111697994D01*
X146374938Y-111744037D01*
X146301239Y-111777608D01*
X146261202Y-111794870D01*
X146256571Y-111796355D01*
X146251151Y-111775599D01*
X146253777Y-111744780D01*
X146267359Y-111720641D01*
X146304671Y-111690001D01*
X146370728Y-111649945D01*
X146470546Y-111597558D01*
X146609140Y-111529927D01*
X146687192Y-111492943D01*
X146865618Y-111408936D01*
X147003811Y-111344169D01*
X147106899Y-111296731D01*
X147180008Y-111264709D01*
X147228266Y-111246189D01*
X147256799Y-111239259D01*
X147270734Y-111242006D01*
G37*
G36*
X147270734Y-121026637D02*
G01*
X147275199Y-121037149D01*
X147275319Y-121053512D01*
X147275271Y-121058169D01*
X147262766Y-121090912D01*
X147220390Y-121126223D01*
X147140852Y-121169467D01*
X147093842Y-121191637D01*
X147000907Y-121234668D01*
X146878072Y-121292072D01*
X146740617Y-121356683D01*
X146603823Y-121421338D01*
X146589888Y-121427947D01*
X146473941Y-121482625D01*
X146374938Y-121528668D01*
X146301239Y-121562239D01*
X146261202Y-121579500D01*
X146256571Y-121580986D01*
X146251151Y-121560229D01*
X146253777Y-121529410D01*
X146267359Y-121505272D01*
X146304671Y-121474632D01*
X146370728Y-121434575D01*
X146470546Y-121382189D01*
X146609140Y-121314558D01*
X146687192Y-121277574D01*
X146865618Y-121193566D01*
X147003811Y-121128800D01*
X147106899Y-121081362D01*
X147180008Y-121049339D01*
X147228266Y-121030819D01*
X147256799Y-121023890D01*
X147270734Y-121026637D01*
G37*
G36*
X148772212Y-108214026D02*
G01*
X148776677Y-108224538D01*
X148776797Y-108240901D01*
X148776749Y-108245558D01*
X148764244Y-108278301D01*
X148721868Y-108313613D01*
X148642329Y-108356856D01*
X148595320Y-108379026D01*
X148502384Y-108422057D01*
X148379550Y-108479461D01*
X148242095Y-108544072D01*
X148105301Y-108608727D01*
X148091366Y-108615336D01*
X147975418Y-108670014D01*
X147876416Y-108716057D01*
X147802717Y-108749628D01*
X147762680Y-108766890D01*
X147758049Y-108768375D01*
X147752629Y-108747618D01*
X147755255Y-108716799D01*
X147768837Y-108692661D01*
X147806149Y-108662021D01*
X147872206Y-108621964D01*
X147972024Y-108569578D01*
X148110617Y-108501947D01*
X148188670Y-108464963D01*
X148367095Y-108380956D01*
X148505289Y-108316189D01*
X148608377Y-108268751D01*
X148681486Y-108236728D01*
X148729744Y-108218209D01*
X148758277Y-108211279D01*
X148772212Y-108214026D01*
G37*
G36*
X148772212Y-120275898D02*
G01*
X148776677Y-120286410D01*
X148776797Y-120302773D01*
X148776749Y-120307430D01*
X148764244Y-120340173D01*
X148721868Y-120375484D01*
X148642329Y-120418728D01*
X148595320Y-120440898D01*
X148502384Y-120483929D01*
X148379550Y-120541333D01*
X148242095Y-120605944D01*
X148105301Y-120670599D01*
X148091366Y-120677208D01*
X147975418Y-120731886D01*
X147876416Y-120777929D01*
X147802717Y-120811500D01*
X147762680Y-120828762D01*
X147758049Y-120830247D01*
X147752629Y-120809490D01*
X147755255Y-120778671D01*
X147768837Y-120754533D01*
X147806149Y-120723893D01*
X147872206Y-120683836D01*
X147972024Y-120631450D01*
X148110617Y-120563819D01*
X148188670Y-120526835D01*
X148367095Y-120442827D01*
X148505289Y-120378061D01*
X148608377Y-120330623D01*
X148681486Y-120298600D01*
X148729744Y-120280080D01*
X148758277Y-120273151D01*
X148772212Y-120275898D01*
G37*
G36*
X144337268Y-121657635D02*
G01*
X144348875Y-121666067D01*
X144357599Y-121686909D01*
X144363849Y-121725718D01*
X144368038Y-121788048D01*
X144370578Y-121879456D01*
X144371879Y-122005497D01*
X144372353Y-122171726D01*
X144372414Y-122331724D01*
X144372297Y-122532919D01*
X144371673Y-122689621D01*
X144370129Y-122807384D01*
X144367254Y-122891764D01*
X144362637Y-122948317D01*
X144355866Y-122982599D01*
X144346530Y-123000164D01*
X144334216Y-123006568D01*
X144322365Y-123007389D01*
X144307461Y-123005814D01*
X144295854Y-122997382D01*
X144287131Y-122976540D01*
X144280880Y-122937731D01*
X144276691Y-122875401D01*
X144274152Y-122783993D01*
X144272851Y-122657952D01*
X144272376Y-122491723D01*
X144272315Y-122331724D01*
X144272432Y-122130529D01*
X144273057Y-121973828D01*
X144274601Y-121856065D01*
X144277475Y-121771685D01*
X144282092Y-121715132D01*
X144288863Y-121680850D01*
X144298200Y-121663285D01*
X144310513Y-121656881D01*
X144322365Y-121656059D01*
X144337268Y-121657635D01*
G37*
G36*
X145318242Y-111410099D02*
G01*
X145405068Y-111417050D01*
X145475516Y-111432435D01*
X145546397Y-111459364D01*
X145595158Y-111481892D01*
X145692247Y-111535213D01*
X145741977Y-111579530D01*
X145748769Y-111599006D01*
X145744156Y-111620195D01*
X145723812Y-111624730D01*
X145677977Y-111611190D01*
X145596890Y-111578155D01*
X145592365Y-111576234D01*
X145505566Y-111542864D01*
X145425984Y-111522728D01*
X145335294Y-111512734D01*
X145215170Y-111509793D01*
X145198227Y-111509767D01*
X145073427Y-111512081D01*
X144980222Y-111521083D01*
X144900284Y-111539864D01*
X144815288Y-111571514D01*
X144804089Y-111576234D01*
X144721229Y-111610158D01*
X144674049Y-111624525D01*
X144652790Y-111620754D01*
X144647691Y-111600268D01*
X144647685Y-111599006D01*
X144672001Y-111559767D01*
X144744239Y-111511094D01*
X144801295Y-111481892D01*
X144880302Y-111446706D01*
X144948971Y-111424895D01*
X145024112Y-111413351D01*
X145122537Y-111408964D01*
X145198227Y-111408473D01*
X145318242Y-111410099D01*
G37*
G36*
X145516088Y-114424075D02*
G01*
X145664550Y-114424783D01*
X145774507Y-114426527D01*
X145851732Y-114429769D01*
X145901998Y-114434972D01*
X145931077Y-114442596D01*
X145944741Y-114453104D01*
X145948763Y-114466957D01*
X145948966Y-114473990D01*
X145947299Y-114489410D01*
X145938449Y-114501286D01*
X145916645Y-114510083D01*
X145876114Y-114516261D01*
X145811084Y-114520282D01*
X145715782Y-114522609D01*
X145584435Y-114523702D01*
X145411271Y-114524024D01*
X145323350Y-114524040D01*
X145130612Y-114523906D01*
X144982150Y-114523198D01*
X144872193Y-114521454D01*
X144794967Y-114518212D01*
X144744702Y-114513009D01*
X144715623Y-114505385D01*
X144701959Y-114494877D01*
X144697937Y-114481024D01*
X144697734Y-114473990D01*
X144699401Y-114458571D01*
X144708250Y-114446695D01*
X144730054Y-114437898D01*
X144770585Y-114431720D01*
X144835616Y-114427699D01*
X144930918Y-114425372D01*
X145062265Y-114424279D01*
X145235428Y-114423957D01*
X145323350Y-114423941D01*
X145516088Y-114424075D01*
G37*
G36*
X147017566Y-114424075D02*
G01*
X147166027Y-114424783D01*
X147275985Y-114426527D01*
X147353210Y-114429769D01*
X147403476Y-114434972D01*
X147432555Y-114442596D01*
X147446219Y-114453104D01*
X147450241Y-114466957D01*
X147450443Y-114473990D01*
X147448776Y-114489410D01*
X147439927Y-114501286D01*
X147418123Y-114510083D01*
X147377592Y-114516261D01*
X147312562Y-114520282D01*
X147217259Y-114522609D01*
X147085913Y-114523702D01*
X146912749Y-114524024D01*
X146824828Y-114524040D01*
X146632089Y-114523906D01*
X146483628Y-114523198D01*
X146373671Y-114521454D01*
X146296445Y-114518212D01*
X146246179Y-114513009D01*
X146217101Y-114505385D01*
X146203436Y-114494877D01*
X146199414Y-114481024D01*
X146199212Y-114473990D01*
X146200879Y-114458571D01*
X146209728Y-114446695D01*
X146231532Y-114437898D01*
X146272063Y-114431720D01*
X146337093Y-114427699D01*
X146432396Y-114425372D01*
X146563743Y-114424279D01*
X146736906Y-114423957D01*
X146824828Y-114423941D01*
X147017566Y-114424075D01*
G37*
G36*
X147017566Y-115174813D02*
G01*
X147166027Y-115175521D01*
X147275985Y-115177266D01*
X147353210Y-115180508D01*
X147403476Y-115185711D01*
X147432555Y-115193335D01*
X147446219Y-115203843D01*
X147450241Y-115217696D01*
X147450443Y-115224729D01*
X147448776Y-115240148D01*
X147439927Y-115252025D01*
X147418123Y-115260822D01*
X147377592Y-115267000D01*
X147312562Y-115271021D01*
X147217259Y-115273348D01*
X147085913Y-115274441D01*
X146912749Y-115274762D01*
X146824828Y-115274779D01*
X146632089Y-115274645D01*
X146483628Y-115273937D01*
X146373671Y-115272193D01*
X146296445Y-115268951D01*
X146246179Y-115263748D01*
X146217101Y-115256124D01*
X146203436Y-115245616D01*
X146199414Y-115231763D01*
X146199212Y-115224729D01*
X146200879Y-115209310D01*
X146209728Y-115197433D01*
X146231532Y-115188637D01*
X146272063Y-115182459D01*
X146337093Y-115178438D01*
X146432396Y-115176111D01*
X146563743Y-115175018D01*
X146736906Y-115174696D01*
X146824828Y-115174680D01*
X147017566Y-115174813D01*
G37*
G36*
X147017566Y-116701316D02*
G01*
X147166027Y-116702024D01*
X147275985Y-116703768D01*
X147353210Y-116707011D01*
X147403476Y-116712213D01*
X147432555Y-116719837D01*
X147446219Y-116730345D01*
X147450241Y-116744198D01*
X147450443Y-116751232D01*
X147448776Y-116766651D01*
X147439927Y-116778528D01*
X147418123Y-116787324D01*
X147377592Y-116793502D01*
X147312562Y-116797524D01*
X147217259Y-116799850D01*
X147085913Y-116800943D01*
X146912749Y-116801265D01*
X146824828Y-116801281D01*
X146632089Y-116801148D01*
X146483628Y-116800440D01*
X146373671Y-116798696D01*
X146296445Y-116795453D01*
X146246179Y-116790251D01*
X146217101Y-116782626D01*
X146203436Y-116772119D01*
X146199414Y-116758266D01*
X146199212Y-116751232D01*
X146200879Y-116735813D01*
X146209728Y-116723936D01*
X146231532Y-116715139D01*
X146272063Y-116708961D01*
X146337093Y-116704940D01*
X146432396Y-116702614D01*
X146563743Y-116701521D01*
X146736906Y-116701199D01*
X146824828Y-116701183D01*
X147017566Y-116701316D01*
G37*
G36*
X148519044Y-109919641D02*
G01*
X148667505Y-109920349D01*
X148777463Y-109922093D01*
X148854688Y-109925336D01*
X148904954Y-109930538D01*
X148934033Y-109938162D01*
X148947697Y-109948670D01*
X148951719Y-109962523D01*
X148951921Y-109969557D01*
X148950254Y-109984976D01*
X148941405Y-109996853D01*
X148919601Y-110005650D01*
X148879070Y-110011828D01*
X148814040Y-110015849D01*
X148718737Y-110018175D01*
X148587391Y-110019268D01*
X148414227Y-110019590D01*
X148326306Y-110019606D01*
X148133567Y-110019473D01*
X147985106Y-110018765D01*
X147875148Y-110017021D01*
X147797923Y-110013778D01*
X147747657Y-110008576D01*
X147718578Y-110000952D01*
X147704914Y-109990444D01*
X147700892Y-109976591D01*
X147700690Y-109969557D01*
X147702357Y-109954138D01*
X147711206Y-109942261D01*
X147733010Y-109933464D01*
X147773541Y-109927286D01*
X147838571Y-109923265D01*
X147933874Y-109920939D01*
X148065220Y-109919846D01*
X148238384Y-109919524D01*
X148326306Y-109919508D01*
X148519044Y-109919641D01*
G37*
G36*
X148519044Y-114424075D02*
G01*
X148667505Y-114424783D01*
X148777463Y-114426527D01*
X148854688Y-114429769D01*
X148904954Y-114434972D01*
X148934033Y-114442596D01*
X148947697Y-114453104D01*
X148951719Y-114466957D01*
X148951921Y-114473990D01*
X148950254Y-114489410D01*
X148941405Y-114501286D01*
X148919601Y-114510083D01*
X148879070Y-114516261D01*
X148814040Y-114520282D01*
X148718737Y-114522609D01*
X148587391Y-114523702D01*
X148414227Y-114524024D01*
X148326306Y-114524040D01*
X148133567Y-114523906D01*
X147985106Y-114523198D01*
X147875148Y-114521454D01*
X147797923Y-114518212D01*
X147747657Y-114513009D01*
X147718578Y-114505385D01*
X147704914Y-114494877D01*
X147700892Y-114481024D01*
X147700690Y-114473990D01*
X147702357Y-114458571D01*
X147711206Y-114446695D01*
X147733010Y-114437898D01*
X147773541Y-114431720D01*
X147838571Y-114427699D01*
X147933874Y-114425372D01*
X148065220Y-114424279D01*
X148238384Y-114423957D01*
X148326306Y-114423941D01*
X148519044Y-114424075D01*
G37*
G36*
X148519044Y-117452055D02*
G01*
X148667505Y-117452763D01*
X148777463Y-117454507D01*
X148854688Y-117457750D01*
X148904954Y-117462952D01*
X148934033Y-117470576D01*
X148947697Y-117481084D01*
X148951719Y-117494937D01*
X148951921Y-117501971D01*
X148950254Y-117517390D01*
X148941405Y-117529267D01*
X148919601Y-117538063D01*
X148879070Y-117544241D01*
X148814040Y-117548263D01*
X148718737Y-117550589D01*
X148587391Y-117551682D01*
X148414227Y-117552004D01*
X148326306Y-117552020D01*
X148133567Y-117551887D01*
X147985106Y-117551179D01*
X147875148Y-117549434D01*
X147797923Y-117546192D01*
X147747657Y-117540990D01*
X147718578Y-117533365D01*
X147704914Y-117522858D01*
X147700892Y-117509005D01*
X147700690Y-117501971D01*
X147702357Y-117486552D01*
X147711206Y-117474675D01*
X147733010Y-117465878D01*
X147773541Y-117459700D01*
X147838571Y-117455679D01*
X147933874Y-117453353D01*
X148065220Y-117452259D01*
X148238384Y-117451938D01*
X148326306Y-117451922D01*
X148519044Y-117452055D01*
G37*
G36*
X148841019Y-114875845D02*
G01*
X148852256Y-114883741D01*
X148860858Y-114903344D01*
X148867178Y-114939925D01*
X148871567Y-114998755D01*
X148874377Y-115085107D01*
X148875958Y-115204251D01*
X148876663Y-115361459D01*
X148876843Y-115562003D01*
X148876847Y-115625123D01*
X148876750Y-115838443D01*
X148876224Y-116006985D01*
X148874917Y-116136021D01*
X148872478Y-116230821D01*
X148868556Y-116296658D01*
X148862799Y-116338803D01*
X148854856Y-116362528D01*
X148844376Y-116373103D01*
X148831006Y-116375801D01*
X148826798Y-116375862D01*
X148812577Y-116374402D01*
X148801341Y-116366506D01*
X148792738Y-116346903D01*
X148786418Y-116310322D01*
X148782029Y-116251492D01*
X148779219Y-116165140D01*
X148777638Y-116045996D01*
X148776933Y-115888788D01*
X148776753Y-115688244D01*
X148776749Y-115625123D01*
X148776846Y-115411804D01*
X148777373Y-115243262D01*
X148778679Y-115114226D01*
X148781118Y-115019426D01*
X148785040Y-114953589D01*
X148790797Y-114911443D01*
X148798740Y-114887719D01*
X148809220Y-114877144D01*
X148822590Y-114874446D01*
X148826798Y-114874385D01*
X148841019Y-114875845D01*
G37*
G36*
X144334208Y-109620312D02*
G01*
X144344019Y-109626482D01*
X144351988Y-109642028D01*
X144358307Y-109671256D01*
X144363167Y-109718473D01*
X144366760Y-109787984D01*
X144369276Y-109884096D01*
X144370908Y-110011114D01*
X144371846Y-110173345D01*
X144372282Y-110375095D01*
X144372408Y-110620669D01*
X144372414Y-110745321D01*
X144372365Y-111011806D01*
X144372091Y-111232549D01*
X144371400Y-111411855D01*
X144370101Y-111554029D01*
X144368002Y-111663378D01*
X144364913Y-111744209D01*
X144360641Y-111800827D01*
X144354996Y-111837537D01*
X144347786Y-111858647D01*
X144338819Y-111868463D01*
X144327905Y-111871290D01*
X144322365Y-111871429D01*
X144310521Y-111870329D01*
X144300710Y-111864159D01*
X144292741Y-111848613D01*
X144286422Y-111819385D01*
X144281562Y-111772168D01*
X144277970Y-111702657D01*
X144275453Y-111606545D01*
X144273822Y-111479527D01*
X144272883Y-111317296D01*
X144272447Y-111115546D01*
X144272322Y-110869972D01*
X144272315Y-110745321D01*
X144272364Y-110478835D01*
X144272638Y-110258092D01*
X144273329Y-110078787D01*
X144274628Y-109936612D01*
X144276727Y-109827263D01*
X144279816Y-109746432D01*
X144284088Y-109689814D01*
X144289733Y-109653104D01*
X144296943Y-109631994D01*
X144305910Y-109622178D01*
X144316825Y-109619351D01*
X144322365Y-109619212D01*
X144334208Y-109620312D01*
G37*
G36*
X144334208Y-112623268D02*
G01*
X144344019Y-112629437D01*
X144351988Y-112644984D01*
X144358307Y-112674212D01*
X144363167Y-112721429D01*
X144366760Y-112790940D01*
X144369276Y-112887052D01*
X144370908Y-113014070D01*
X144371846Y-113176301D01*
X144372282Y-113378050D01*
X144372408Y-113623625D01*
X144372414Y-113748276D01*
X144372365Y-114014762D01*
X144372091Y-114235505D01*
X144371400Y-114414810D01*
X144370101Y-114556985D01*
X144368002Y-114666334D01*
X144364913Y-114747165D01*
X144360641Y-114803782D01*
X144354996Y-114840493D01*
X144347786Y-114861603D01*
X144338819Y-114871419D01*
X144327905Y-114874245D01*
X144322365Y-114874385D01*
X144310521Y-114873285D01*
X144300710Y-114867115D01*
X144292741Y-114851569D01*
X144286422Y-114822340D01*
X144281562Y-114775124D01*
X144277970Y-114705612D01*
X144275453Y-114609501D01*
X144273822Y-114482482D01*
X144272883Y-114320252D01*
X144272447Y-114118502D01*
X144272322Y-113872928D01*
X144272315Y-113748276D01*
X144272364Y-113481790D01*
X144272638Y-113261048D01*
X144273329Y-113081742D01*
X144274628Y-112939568D01*
X144276727Y-112830218D01*
X144279816Y-112749388D01*
X144284088Y-112692770D01*
X144289733Y-112656059D01*
X144296943Y-112634949D01*
X144305910Y-112625134D01*
X144316825Y-112622307D01*
X144322365Y-112622168D01*
X144334208Y-112623268D01*
G37*
G36*
X146291880Y-119460459D02*
G01*
X146357497Y-119478404D01*
X146452719Y-119505093D01*
X146568323Y-119537889D01*
X146695090Y-119574159D01*
X146823798Y-119611266D01*
X146945224Y-119646578D01*
X147050149Y-119677457D01*
X147106355Y-119694274D01*
X147142145Y-119729637D01*
X147150148Y-119779212D01*
X147135247Y-119842137D01*
X147106355Y-119863488D01*
X147068269Y-119874527D01*
X146991331Y-119896904D01*
X146884736Y-119927941D01*
X146757679Y-119964962D01*
X146670769Y-119990298D01*
X146538312Y-120028665D01*
X146423144Y-120061545D01*
X146333628Y-120086589D01*
X146278129Y-120101446D01*
X146264119Y-120104532D01*
X146251966Y-120083531D01*
X146249261Y-120055288D01*
X146252380Y-120037150D01*
X146265508Y-120020192D01*
X146294307Y-120002241D01*
X146344435Y-119981124D01*
X146421552Y-119954670D01*
X146531318Y-119920707D01*
X146679392Y-119877062D01*
X146818537Y-119836799D01*
X146898363Y-119811721D01*
X146954725Y-119790069D01*
X146974941Y-119777059D01*
X146952840Y-119763466D01*
X146895021Y-119742237D01*
X146818572Y-119719277D01*
X146633360Y-119667422D01*
X146491512Y-119625562D01*
X146387799Y-119591705D01*
X146316993Y-119563859D01*
X146273865Y-119540033D01*
X146253186Y-119518235D01*
X146249261Y-119502427D01*
X146256099Y-119462541D01*
X146265090Y-119453892D01*
X146291880Y-119460459D01*
G37*
G36*
X148838642Y-111872529D02*
G01*
X148848453Y-111878699D01*
X148856422Y-111894245D01*
X148862741Y-111923473D01*
X148867601Y-111970690D01*
X148871193Y-112040201D01*
X148873709Y-112136313D01*
X148875341Y-112263331D01*
X148876279Y-112425562D01*
X148876716Y-112627311D01*
X148876841Y-112872886D01*
X148876847Y-112997537D01*
X148876798Y-113264023D01*
X148876524Y-113484766D01*
X148875833Y-113664071D01*
X148874534Y-113806246D01*
X148872436Y-113915595D01*
X148869346Y-113996426D01*
X148865075Y-114053043D01*
X148859429Y-114089754D01*
X148852219Y-114110864D01*
X148843253Y-114120680D01*
X148832338Y-114123506D01*
X148826798Y-114123646D01*
X148814954Y-114122546D01*
X148805144Y-114116376D01*
X148797174Y-114100830D01*
X148790856Y-114071601D01*
X148785996Y-114024385D01*
X148782403Y-113954873D01*
X148779887Y-113858762D01*
X148778255Y-113731743D01*
X148777317Y-113569513D01*
X148776881Y-113367763D01*
X148776755Y-113122189D01*
X148776749Y-112997537D01*
X148776798Y-112731051D01*
X148777072Y-112510309D01*
X148777763Y-112331003D01*
X148779062Y-112188829D01*
X148781160Y-112079479D01*
X148784250Y-111998649D01*
X148788521Y-111942031D01*
X148794167Y-111905320D01*
X148801377Y-111884210D01*
X148810344Y-111874395D01*
X148821258Y-111871568D01*
X148826798Y-111871429D01*
X148838642Y-111872529D01*
G37*
G36*
X149593093Y-109007050D02*
G01*
X149672826Y-109044251D01*
X149730836Y-109086267D01*
X149808584Y-109151245D01*
X149890836Y-109226347D01*
X149904304Y-109239326D01*
X150053005Y-109383934D01*
X150053005Y-109188765D01*
X150054102Y-109090526D01*
X150059134Y-109032133D01*
X150070714Y-109003397D01*
X150091453Y-108994132D01*
X150103054Y-108993596D01*
X150125382Y-108996891D01*
X150139863Y-109012674D01*
X150148182Y-109049793D01*
X150152026Y-109117099D01*
X150153079Y-109223438D01*
X150153104Y-109256355D01*
X150152655Y-109373301D01*
X150150017Y-109449108D01*
X150143252Y-109492688D01*
X150130421Y-109512950D01*
X150109586Y-109518805D01*
X150095943Y-109519114D01*
X150042733Y-109499109D01*
X149966965Y-109441785D01*
X149902002Y-109380075D01*
X149785405Y-109270525D01*
X149674400Y-109182899D01*
X149576791Y-109122563D01*
X149500380Y-109094883D01*
X149485660Y-109093695D01*
X149410976Y-109115198D01*
X149358220Y-109172495D01*
X149331090Y-109254773D01*
X149333284Y-109351214D01*
X149365470Y-109445282D01*
X149389032Y-109495453D01*
X149384399Y-109515426D01*
X149347039Y-109519106D01*
X149341410Y-109519114D01*
X149299215Y-109510857D01*
X149272026Y-109477543D01*
X149250776Y-109413663D01*
X149234510Y-109282101D01*
X149256130Y-109168566D01*
X149309217Y-109078675D01*
X149387352Y-109018046D01*
X149484117Y-108992298D01*
X149593093Y-109007050D01*
G37*
G36*
X149593093Y-110508528D02*
G01*
X149672826Y-110545729D01*
X149730836Y-110587744D01*
X149808584Y-110652723D01*
X149890836Y-110727824D01*
X149904304Y-110740804D01*
X150053005Y-110885412D01*
X150053005Y-110690243D01*
X150054102Y-110592004D01*
X150059134Y-110533610D01*
X150070714Y-110504875D01*
X150091453Y-110495610D01*
X150103054Y-110495074D01*
X150125382Y-110498369D01*
X150139863Y-110514152D01*
X150148182Y-110551271D01*
X150152026Y-110618576D01*
X150153079Y-110724916D01*
X150153104Y-110757833D01*
X150152655Y-110874779D01*
X150150017Y-110950586D01*
X150143252Y-110994166D01*
X150130421Y-111014428D01*
X150109586Y-111020282D01*
X150095943Y-111020591D01*
X150042733Y-111000586D01*
X149966965Y-110943263D01*
X149902002Y-110881552D01*
X149785405Y-110772003D01*
X149674400Y-110684377D01*
X149576791Y-110624041D01*
X149500380Y-110596361D01*
X149485660Y-110595173D01*
X149410976Y-110616675D01*
X149358220Y-110673973D01*
X149331090Y-110756251D01*
X149333284Y-110852692D01*
X149365470Y-110946760D01*
X149389032Y-110996931D01*
X149384399Y-111016904D01*
X149347039Y-111020584D01*
X149341410Y-111020591D01*
X149299215Y-111012334D01*
X149272026Y-110979021D01*
X149250776Y-110915141D01*
X149234510Y-110783579D01*
X149256130Y-110670044D01*
X149309217Y-110580152D01*
X149387352Y-110519524D01*
X149484117Y-110493776D01*
X149593093Y-110508528D01*
G37*
G36*
X144332743Y-116401793D02*
G01*
X144341578Y-116406997D01*
X144348993Y-116420230D01*
X144355113Y-116445221D01*
X144360061Y-116485699D01*
X144363963Y-116545395D01*
X144366943Y-116628038D01*
X144369124Y-116737357D01*
X144370632Y-116877084D01*
X144371591Y-117050946D01*
X144372124Y-117262675D01*
X144372357Y-117516000D01*
X144372413Y-117814650D01*
X144372414Y-117902365D01*
X144372384Y-118213724D01*
X144372210Y-118478763D01*
X144371769Y-118701213D01*
X144370936Y-118884802D01*
X144369587Y-119033261D01*
X144367597Y-119150320D01*
X144364842Y-119239707D01*
X144361198Y-119305154D01*
X144356541Y-119350389D01*
X144350745Y-119379143D01*
X144343688Y-119395144D01*
X144335243Y-119402124D01*
X144325288Y-119403811D01*
X144322365Y-119403843D01*
X144311986Y-119402937D01*
X144303151Y-119397732D01*
X144295736Y-119384500D01*
X144289617Y-119359509D01*
X144284668Y-119319031D01*
X144280766Y-119259335D01*
X144277787Y-119176692D01*
X144275605Y-119067372D01*
X144274097Y-118927646D01*
X144273139Y-118753783D01*
X144272605Y-118542054D01*
X144272373Y-118288730D01*
X144272316Y-117990080D01*
X144272315Y-117902365D01*
X144272346Y-117591006D01*
X144272519Y-117325967D01*
X144272960Y-117103517D01*
X144273793Y-116919928D01*
X144275142Y-116771469D01*
X144277132Y-116654410D01*
X144279887Y-116565022D01*
X144283531Y-116499576D01*
X144288189Y-116454341D01*
X144293984Y-116425587D01*
X144301042Y-116409585D01*
X144309486Y-116402606D01*
X144319441Y-116400919D01*
X144322365Y-116400887D01*
X144332743Y-116401793D01*
G37*
G36*
X149919656Y-108185479D02*
G01*
X149927882Y-108217833D01*
X149935250Y-108249110D01*
X149965845Y-108263900D01*
X150032403Y-108267863D01*
X150040493Y-108267882D01*
X150109982Y-108270475D01*
X150142906Y-108283221D01*
X150152673Y-108313569D01*
X150153104Y-108330444D01*
X150148436Y-108369049D01*
X150125494Y-108387340D01*
X150070866Y-108392766D01*
X150040493Y-108393005D01*
X149927882Y-108393005D01*
X149927882Y-108580690D01*
X149927230Y-108676126D01*
X149922737Y-108732065D01*
X149910595Y-108759056D01*
X149886995Y-108767652D01*
X149860150Y-108768375D01*
X149813651Y-108755376D01*
X149806610Y-108753408D01*
X149719584Y-108710563D01*
X149604909Y-108642926D01*
X149522317Y-108589783D01*
X149410099Y-108514445D01*
X149333715Y-108459343D01*
X149286495Y-108418294D01*
X149274087Y-108401648D01*
X149377340Y-108401648D01*
X149397099Y-108417584D01*
X149448978Y-108451981D01*
X149521878Y-108498057D01*
X149604704Y-108549031D01*
X149686356Y-108598121D01*
X149755737Y-108638545D01*
X149801751Y-108663522D01*
X149813651Y-108668276D01*
X149821392Y-108645638D01*
X149826525Y-108587244D01*
X149827783Y-108530641D01*
X149827783Y-108393005D01*
X149602562Y-108393005D01*
X149503374Y-108393894D01*
X149426474Y-108396275D01*
X149383031Y-108399719D01*
X149377340Y-108401648D01*
X149274087Y-108401648D01*
X149261764Y-108385117D01*
X149252850Y-108353628D01*
X149252217Y-108339537D01*
X149252217Y-108267882D01*
X149540000Y-108267882D01*
X149663649Y-108267351D01*
X149745719Y-108264777D01*
X149794679Y-108258687D01*
X149818994Y-108247609D01*
X149827133Y-108230069D01*
X149827783Y-108217833D01*
X149845478Y-108176009D01*
X149877833Y-108167784D01*
X149919656Y-108185479D01*
G37*
G36*
X149868208Y-109718246D02*
G01*
X149992289Y-109746382D01*
X150080395Y-109795536D01*
X150129922Y-109853270D01*
X150172028Y-109960604D01*
X150164633Y-110065914D01*
X150140514Y-110122671D01*
X150076336Y-110196171D01*
X149979354Y-110243636D01*
X149975053Y-110245741D01*
X149833612Y-110272464D01*
X149760779Y-110275637D01*
X149702660Y-110278169D01*
X149531516Y-110267812D01*
X149402485Y-110235853D01*
X149311915Y-110180955D01*
X149263627Y-110117573D01*
X149230462Y-110015543D01*
X149232935Y-109997069D01*
X149327291Y-109997069D01*
X149342670Y-110063000D01*
X149391836Y-110110593D01*
X149479331Y-110142106D01*
X149609696Y-110159796D01*
X149660977Y-110162896D01*
X149760779Y-110167166D01*
X149818014Y-110167100D01*
X149840098Y-110160877D01*
X149834449Y-110146675D01*
X149812062Y-110125810D01*
X149765633Y-110090886D01*
X149690489Y-110040361D01*
X149601119Y-109983900D01*
X149580449Y-109971316D01*
X149473942Y-109912818D01*
X149400147Y-109888017D01*
X149354336Y-109897394D01*
X149331784Y-109941430D01*
X149327291Y-109997069D01*
X149232935Y-109997069D01*
X149243547Y-109917805D01*
X149275398Y-109853270D01*
X149298375Y-109828325D01*
X149539365Y-109828325D01*
X149540000Y-109839097D01*
X149574196Y-109866086D01*
X149636587Y-109909414D01*
X149715904Y-109961887D01*
X149800879Y-110016306D01*
X149880242Y-110065474D01*
X149942727Y-110102195D01*
X149977063Y-110119272D01*
X149979354Y-110119705D01*
X150021279Y-110098501D01*
X150058794Y-110048229D01*
X150077681Y-109988898D01*
X150078030Y-109980859D01*
X150054894Y-109917095D01*
X150012800Y-109877922D01*
X149967434Y-109859951D01*
X149895929Y-109844072D01*
X149809514Y-109831207D01*
X149719420Y-109822278D01*
X149636877Y-109818206D01*
X149573115Y-109819914D01*
X149539365Y-109828325D01*
X149298375Y-109828325D01*
X149337943Y-109785368D01*
X149431928Y-109740013D01*
X149562847Y-109715354D01*
X149702660Y-109709279D01*
X149868208Y-109718246D01*
G37*
D13*
%TO.C,BZ1*%
X141000000Y-126250000D02*
X146500000Y-126250000D01*
X149924545Y-131750000D02*
G75*
G02*
X137575455Y-131750000I-6174545J0D01*
G01*
X137575455Y-131750000D02*
G75*
G02*
X149924545Y-131750000I6174545J0D01*
G01*
D16*
%TO.C,J4*%
X133910000Y-103645000D02*
X135240000Y-103645000D01*
X133910000Y-104975000D02*
X133910000Y-103645000D01*
X133910000Y-106245000D02*
X133910000Y-111385000D01*
X133910000Y-106245000D02*
X136570000Y-106245000D01*
X133910000Y-111385000D02*
X136570000Y-111385000D01*
X136570000Y-106245000D02*
X136570000Y-111385000D01*
D18*
%TO.C,\u03BCC1*%
X151170000Y-138069994D02*
X151170000Y-87070000D01*
X152170000Y-86070000D02*
X171170000Y-86070003D01*
D16*
X161670000Y-87805000D02*
X161035000Y-88440000D01*
X161670000Y-87805000D02*
X162305000Y-88440000D01*
X161670000Y-90980000D02*
X161670000Y-87805000D01*
D18*
X171170000Y-139070000D02*
X152170000Y-139069994D01*
X172170000Y-87070003D02*
X172170000Y-138070000D01*
X151169997Y-87069997D02*
G75*
G02*
X152170000Y-86070000I999999J-2D01*
G01*
X152169997Y-139069997D02*
G75*
G02*
X151170000Y-138069994I2J999999D01*
G01*
X171170003Y-86070000D02*
G75*
G02*
X172170000Y-87070003I-3J-1000000D01*
G01*
X172170003Y-138070003D02*
G75*
G02*
X171170000Y-139070003I-1000003J3D01*
G01*
D16*
%TO.C,J1*%
X203670000Y-97480000D02*
X205000000Y-97480000D01*
X203670000Y-98810000D02*
X203670000Y-97480000D01*
X203670000Y-100080000D02*
X203670000Y-102680000D01*
X203670000Y-100080000D02*
X206330000Y-100080000D01*
X203670000Y-102680000D02*
X206330000Y-102680000D01*
X206330000Y-100080000D02*
X206330000Y-102680000D01*
%TO.C,ENTR1*%
X193040000Y-130700000D02*
X193040000Y-135200000D01*
X195540000Y-136450000D02*
X197040000Y-136450000D01*
X197040000Y-129450000D02*
X195540000Y-129450000D01*
X199540000Y-135200000D02*
X199540000Y-130700000D01*
%TO.C,J6*%
X133670000Y-126850000D02*
X135000000Y-126850000D01*
X133670000Y-128180000D02*
X133670000Y-126850000D01*
X133670000Y-129450000D02*
X133670000Y-137130000D01*
X133670000Y-129450000D02*
X136330000Y-129450000D01*
X133670000Y-137130000D02*
X136330000Y-137130000D01*
X136330000Y-129450000D02*
X136330000Y-137130000D01*
%TO.C,R3*%
X203580000Y-125480000D02*
X203580000Y-132020000D01*
X203580000Y-132020000D02*
X206320000Y-132020000D01*
X204950000Y-124710000D02*
X204950000Y-125480000D01*
X204950000Y-132790000D02*
X204950000Y-132020000D01*
X206320000Y-125480000D02*
X203580000Y-125480000D01*
X206320000Y-132020000D02*
X206320000Y-125480000D01*
D17*
%TO.C, *%
G36*
X136661542Y-139644324D02*
G01*
X136711936Y-139670819D01*
X136739986Y-139699954D01*
X136752013Y-139736895D01*
X136753896Y-139774330D01*
X136743798Y-139841649D01*
X136712769Y-139885206D01*
X136659706Y-139906162D01*
X136626498Y-139908534D01*
X136562007Y-139897274D01*
X136530949Y-139876685D01*
X136504014Y-139829852D01*
X136496974Y-139771789D01*
X136509220Y-139714889D01*
X136540142Y-139671550D01*
X136541059Y-139670819D01*
X136600142Y-139642121D01*
X136661542Y-139644324D01*
G37*
G36*
X136680415Y-139956011D02*
G01*
X136752370Y-139958600D01*
X136811757Y-139963346D01*
X136851187Y-139970249D01*
X136862184Y-139975418D01*
X136871387Y-140000460D01*
X136877552Y-140054725D01*
X136880758Y-140139170D01*
X136881294Y-140206327D01*
X136881294Y-140418127D01*
X136825557Y-140418127D01*
X136769820Y-140418127D01*
X136769820Y-140649036D01*
X136769820Y-140879945D01*
X136626498Y-140879945D01*
X136483175Y-140879945D01*
X136483175Y-140649036D01*
X136483175Y-140418127D01*
X136427438Y-140418127D01*
X136371701Y-140418127D01*
X136371701Y-140206327D01*
X136373130Y-140102894D01*
X136377470Y-140030227D01*
X136384800Y-139987370D01*
X136390811Y-139975418D01*
X136414741Y-139967223D01*
X136463057Y-139961185D01*
X136528369Y-139957303D01*
X136603285Y-139955578D01*
X136680415Y-139956011D01*
G37*
G36*
X134530212Y-139964258D02*
G01*
X134549931Y-139973015D01*
X134589257Y-139997266D01*
X134626487Y-140028455D01*
X134654771Y-140059558D01*
X134667256Y-140083549D01*
X134665043Y-140091052D01*
X134648880Y-140100409D01*
X134614462Y-140118509D01*
X134598147Y-140126834D01*
X134536505Y-140158034D01*
X134499341Y-140120871D01*
X134450514Y-140091146D01*
X134394504Y-140084995D01*
X134343837Y-140103767D01*
X134343440Y-140104056D01*
X134313401Y-140143847D01*
X134298047Y-140201865D01*
X134297384Y-140268068D01*
X134311418Y-140332419D01*
X134340153Y-140384877D01*
X134343280Y-140388472D01*
X134385835Y-140414061D01*
X134438746Y-140417083D01*
X134490624Y-140398244D01*
X134515566Y-140377781D01*
X134541061Y-140352646D01*
X134561820Y-140346013D01*
X134591608Y-140355999D01*
X134610355Y-140364806D01*
X134646599Y-140384746D01*
X134666463Y-140400841D01*
X134667751Y-140403930D01*
X134655932Y-140429484D01*
X134626108Y-140464438D01*
X134586731Y-140500459D01*
X134546253Y-140529213D01*
X134534151Y-140535660D01*
X134453264Y-140558321D01*
X134363191Y-140558190D01*
X134276485Y-140535753D01*
X134253071Y-140524779D01*
X134182528Y-140470452D01*
X134135364Y-140395276D01*
X134112511Y-140300999D01*
X134110385Y-140257411D01*
X134116297Y-140170066D01*
X134136311Y-140102583D01*
X134173846Y-140044821D01*
X134187040Y-140029990D01*
X134258661Y-139975536D01*
X134344573Y-139945668D01*
X134437511Y-139941529D01*
X134530212Y-139964258D01*
G37*
G36*
X135110666Y-139964951D02*
G01*
X135113528Y-139966082D01*
X135150100Y-139986534D01*
X135187834Y-140016298D01*
X135219687Y-140048373D01*
X135238613Y-140075760D01*
X135238799Y-140090587D01*
X135222324Y-140100243D01*
X135187687Y-140118535D01*
X135171438Y-140126834D01*
X135109796Y-140158034D01*
X135072633Y-140120871D01*
X135023805Y-140091146D01*
X134967795Y-140084995D01*
X134917129Y-140103767D01*
X134916731Y-140104056D01*
X134886692Y-140143847D01*
X134871339Y-140201865D01*
X134870676Y-140268068D01*
X134884709Y-140332419D01*
X134913445Y-140384877D01*
X134916571Y-140388472D01*
X134959127Y-140414061D01*
X135012037Y-140417083D01*
X135063915Y-140398244D01*
X135088858Y-140377781D01*
X135114352Y-140352646D01*
X135135111Y-140346013D01*
X135164899Y-140355999D01*
X135183646Y-140364806D01*
X135220044Y-140386566D01*
X135239840Y-140406966D01*
X135241043Y-140411464D01*
X135229013Y-140434377D01*
X135198562Y-140466956D01*
X135158150Y-140501783D01*
X135116235Y-140531439D01*
X135086952Y-140546592D01*
X135013138Y-140561098D01*
X134928943Y-140556914D01*
X134848852Y-140535253D01*
X134826362Y-140524779D01*
X134755820Y-140470452D01*
X134708655Y-140395276D01*
X134685802Y-140300999D01*
X134683676Y-140257411D01*
X134689588Y-140170066D01*
X134709602Y-140102583D01*
X134747138Y-140044821D01*
X134760332Y-140029990D01*
X134832220Y-139975370D01*
X134918943Y-139945533D01*
X135013944Y-139941664D01*
X135110666Y-139964951D01*
G37*
G36*
X140559055Y-139768288D02*
G01*
X140663448Y-139801447D01*
X140754520Y-139857537D01*
X140772723Y-139873557D01*
X140841750Y-139955143D01*
X140894956Y-140050553D01*
X140908699Y-140086627D01*
X140921789Y-140151811D01*
X140927180Y-140235517D01*
X140925080Y-140325417D01*
X140915697Y-140409180D01*
X140902322Y-140465825D01*
X140860659Y-140550277D01*
X140796479Y-140631438D01*
X140718451Y-140699541D01*
X140667145Y-140730810D01*
X140589475Y-140759018D01*
X140497487Y-140775728D01*
X140404004Y-140779764D01*
X140321846Y-140769953D01*
X140301812Y-140764297D01*
X140200186Y-140714552D01*
X140117178Y-140641462D01*
X140056730Y-140549448D01*
X140024766Y-140453575D01*
X140014491Y-140402202D01*
X140135918Y-140402202D01*
X140199125Y-140403346D01*
X140236458Y-140407578D01*
X140253834Y-140416102D01*
X140257344Y-140426880D01*
X140270382Y-140476661D01*
X140303091Y-140525125D01*
X140345863Y-140558422D01*
X140349809Y-140560173D01*
X140418237Y-140577555D01*
X140489842Y-140578195D01*
X140551953Y-140562644D01*
X140573478Y-140550474D01*
X140606501Y-140517474D01*
X140640546Y-140470092D01*
X140652588Y-140449044D01*
X140671211Y-140408739D01*
X140681619Y-140369865D01*
X140685406Y-140321859D01*
X140684169Y-140254155D01*
X140683705Y-140242947D01*
X140674600Y-140145745D01*
X140655341Y-140073823D01*
X140623599Y-140021590D01*
X140577046Y-139983452D01*
X140575205Y-139982354D01*
X140508877Y-139958745D01*
X140436411Y-139957556D01*
X140367069Y-139976613D01*
X140310111Y-140013739D01*
X140281501Y-140051336D01*
X140261058Y-140098376D01*
X140260954Y-140122549D01*
X140281382Y-140125655D01*
X140289193Y-140123519D01*
X140313503Y-140119334D01*
X140315575Y-140130012D01*
X140294537Y-140156941D01*
X140249518Y-140201511D01*
X140227497Y-140221937D01*
X140137549Y-140304432D01*
X140046161Y-140216611D01*
X140003470Y-140174836D01*
X139971435Y-140142062D01*
X139955570Y-140123973D01*
X139954773Y-140122361D01*
X139968156Y-140118761D01*
X139989528Y-140119725D01*
X140016633Y-140114942D01*
X140031697Y-140087844D01*
X140034690Y-140075744D01*
X140056608Y-140010156D01*
X140091368Y-139941663D01*
X140131327Y-139884338D01*
X140148302Y-139866538D01*
X140235964Y-139807185D01*
X140338311Y-139771078D01*
X140448342Y-139758139D01*
X140559055Y-139768288D01*
G37*
G36*
X134867932Y-139273312D02*
G01*
X135006218Y-139307043D01*
X135107731Y-139348182D01*
X135262067Y-139440661D01*
X135391240Y-139550363D01*
X135496666Y-139679183D01*
X135579765Y-139829013D01*
X135641955Y-140001750D01*
X135664426Y-140091669D01*
X135670641Y-140114362D01*
X135676519Y-140115842D01*
X135684110Y-140092766D01*
X135695458Y-140041788D01*
X135695724Y-140040527D01*
X135740446Y-139899897D01*
X135813297Y-139762192D01*
X135910714Y-139633487D01*
X135971126Y-139570963D01*
X136068036Y-139485693D01*
X136158739Y-139422540D01*
X136252840Y-139375972D01*
X136359944Y-139340458D01*
X136381024Y-139334895D01*
X136536397Y-139309170D01*
X136697705Y-139307928D01*
X136855947Y-139330430D01*
X137002125Y-139375938D01*
X137029948Y-139388118D01*
X137155428Y-139460445D01*
X137271623Y-139554747D01*
X137374254Y-139665598D01*
X137459042Y-139787572D01*
X137521708Y-139915244D01*
X137557974Y-140043187D01*
X137560759Y-140061232D01*
X137570312Y-140104959D01*
X137582086Y-140128453D01*
X137592447Y-140128497D01*
X137597766Y-140101872D01*
X137597908Y-140094162D01*
X137604951Y-140048033D01*
X137624098Y-139982392D01*
X137652375Y-139905781D01*
X137686807Y-139826743D01*
X137687626Y-139825065D01*
X137884846Y-139825065D01*
X137898691Y-139835628D01*
X137936181Y-139855683D01*
X137991607Y-139882358D01*
X138059261Y-139912784D01*
X138059803Y-139913020D01*
X138234469Y-139989166D01*
X138302364Y-139918416D01*
X138363440Y-139865198D01*
X138420425Y-139838622D01*
X138429977Y-139836515D01*
X138467059Y-139827706D01*
X138484357Y-139812940D01*
X138489407Y-139781988D01*
X138489695Y-139755477D01*
X138490979Y-139712154D01*
X138499495Y-139691903D01*
X138522243Y-139685949D01*
X138545432Y-139685588D01*
X138580335Y-139687293D01*
X138596401Y-139698342D01*
X138600939Y-139727638D01*
X138601168Y-139753481D01*
X138601168Y-139821373D01*
X138679805Y-139840053D01*
X138735543Y-139856834D01*
X138784996Y-139877524D01*
X138800398Y-139886223D01*
X138842354Y-139913714D01*
X138779698Y-139976370D01*
X138743252Y-140011651D01*
X138719403Y-140027621D01*
X138698298Y-140027558D01*
X138670085Y-140014743D01*
X138667859Y-140013592D01*
X138612377Y-139994118D01*
X138554925Y-139988569D01*
X138502840Y-139995500D01*
X138463458Y-140013470D01*
X138444113Y-140041034D01*
X138444170Y-140057601D01*
X138459002Y-140072537D01*
X138499825Y-140097371D01*
X138567426Y-140132500D01*
X138662598Y-140178326D01*
X138786129Y-140235247D01*
X138871889Y-140273863D01*
X138997910Y-140330528D01*
X139097555Y-140375051D01*
X139173914Y-140407384D01*
X139230075Y-140427478D01*
X139269128Y-140435283D01*
X139294162Y-140430752D01*
X139308266Y-140413835D01*
X139314529Y-140384484D01*
X139316039Y-140342649D01*
X139315916Y-140298631D01*
X139671292Y-140298631D01*
X139684122Y-140418560D01*
X139711130Y-140523953D01*
X139714379Y-140532656D01*
X139781880Y-140664767D01*
X139875285Y-140783431D01*
X139990072Y-140884621D01*
X140121720Y-140964312D01*
X140257344Y-141016172D01*
X140354064Y-141033139D01*
X140465825Y-141036524D01*
X140578958Y-141026536D01*
X140657764Y-141010043D01*
X140783077Y-140964225D01*
X140894899Y-140898072D01*
X141002279Y-140806173D01*
X141007936Y-140800563D01*
X141106359Y-140681875D01*
X141175606Y-140550960D01*
X141216114Y-140406748D01*
X141228377Y-140258879D01*
X141214893Y-140103135D01*
X141173668Y-139961945D01*
X141103542Y-139832516D01*
X141003354Y-139712056D01*
X140999320Y-139708000D01*
X140879640Y-139607048D01*
X140751243Y-139536082D01*
X140610934Y-139493777D01*
X140455521Y-139478812D01*
X140446137Y-139478755D01*
X140295229Y-139493814D01*
X140152415Y-139537601D01*
X140021291Y-139607315D01*
X139905450Y-139700153D01*
X139808486Y-139813314D01*
X139733993Y-139943996D01*
X139690818Y-140067572D01*
X139673302Y-140177268D01*
X139671292Y-140298631D01*
X139315916Y-140298631D01*
X139315887Y-140288281D01*
X139316006Y-140266842D01*
X139303572Y-140107638D01*
X139262411Y-139962087D01*
X139192212Y-139829458D01*
X139092667Y-139709020D01*
X139069787Y-139686872D01*
X138955221Y-139594821D01*
X138836267Y-139531199D01*
X138706615Y-139493543D01*
X138559954Y-139479390D01*
X138537469Y-139479144D01*
X138386387Y-139491399D01*
X138250112Y-139529870D01*
X138124491Y-139596316D01*
X138005368Y-139692495D01*
X137984084Y-139713314D01*
X137939705Y-139759156D01*
X137905590Y-139796834D01*
X137886877Y-139820560D01*
X137884846Y-139825065D01*
X137687626Y-139825065D01*
X137701465Y-139796703D01*
X137748000Y-139723572D01*
X137814960Y-139642820D01*
X137894690Y-139561856D01*
X137979533Y-139488091D01*
X138061834Y-139428934D01*
X138108530Y-139402696D01*
X138267345Y-139343005D01*
X138436191Y-139311163D01*
X138608884Y-139307606D01*
X138779237Y-139332773D01*
X138844532Y-139350726D01*
X138981323Y-139408818D01*
X139109945Y-139492380D01*
X139225979Y-139596552D01*
X139325002Y-139716478D01*
X139402595Y-139847297D01*
X139454337Y-139984151D01*
X139465671Y-140033365D01*
X139476828Y-140084222D01*
X139487456Y-140119683D01*
X139494547Y-140131481D01*
X139502349Y-140117245D01*
X139510857Y-140080955D01*
X139514973Y-140054620D01*
X139526826Y-140004570D01*
X139549506Y-139938281D01*
X139578807Y-139867596D01*
X139589494Y-139844742D01*
X139654535Y-139734875D01*
X139739943Y-139626957D01*
X139838229Y-139528687D01*
X139941903Y-139447765D01*
X140019501Y-139402696D01*
X140177389Y-139343366D01*
X140345610Y-139311428D01*
X140517454Y-139307367D01*
X140686210Y-139331667D01*
X140752160Y-139349693D01*
X140894724Y-139410369D01*
X141028119Y-139497834D01*
X141147644Y-139607343D01*
X141248596Y-139734151D01*
X141326273Y-139873513D01*
X141360515Y-139963610D01*
X141385032Y-140074670D01*
X141396833Y-140202675D01*
X141395917Y-140335639D01*
X141382280Y-140461578D01*
X141360684Y-140554149D01*
X141296725Y-140706646D01*
X141207907Y-140842737D01*
X141097741Y-140960488D01*
X140969739Y-141057965D01*
X140827413Y-141133232D01*
X140674275Y-141184356D01*
X140513837Y-141209404D01*
X140349611Y-141206439D01*
X140219061Y-141182907D01*
X140081263Y-141137816D01*
X139959693Y-141075227D01*
X139845306Y-140989900D01*
X139778283Y-140927525D01*
X139663774Y-140793690D01*
X139579371Y-140649540D01*
X139525001Y-140494948D01*
X139518377Y-140465901D01*
X139506784Y-140414942D01*
X139497518Y-140390385D01*
X139488682Y-140393415D01*
X139478380Y-140425217D01*
X139464715Y-140486977D01*
X139461772Y-140501265D01*
X139425940Y-140622041D01*
X139368038Y-140735219D01*
X139284714Y-140846503D01*
X139215520Y-140920339D01*
X139107096Y-141018097D01*
X139000511Y-141091319D01*
X138886616Y-141145359D01*
X138766849Y-141182907D01*
X138601307Y-141210490D01*
X138437862Y-141207111D01*
X138308089Y-141182907D01*
X138170291Y-141137816D01*
X138048721Y-141075227D01*
X137934334Y-140989900D01*
X137867311Y-140927525D01*
X137752803Y-140793690D01*
X137668399Y-140649540D01*
X137614029Y-140494948D01*
X137607405Y-140465901D01*
X137595812Y-140414942D01*
X137586546Y-140390385D01*
X137577710Y-140393415D01*
X137567408Y-140425217D01*
X137553743Y-140486977D01*
X137550801Y-140501265D01*
X137514968Y-140622041D01*
X137457067Y-140735219D01*
X137373742Y-140846503D01*
X137304548Y-140920339D01*
X137196124Y-141018097D01*
X137089540Y-141091319D01*
X136975644Y-141145359D01*
X136855878Y-141182907D01*
X136684440Y-141210644D01*
X136511035Y-141206618D01*
X136415379Y-141191009D01*
X136273897Y-141145845D01*
X136137707Y-141073771D01*
X136011299Y-140979236D01*
X135899160Y-140866692D01*
X135805781Y-140740589D01*
X135735648Y-140605376D01*
X135695659Y-140477435D01*
X135684618Y-140428745D01*
X135675842Y-140405508D01*
X135667183Y-140409098D01*
X135656491Y-140440891D01*
X135641618Y-140502260D01*
X135638991Y-140513675D01*
X135590679Y-140656051D01*
X135514533Y-140792177D01*
X135414503Y-140917853D01*
X135294541Y-141028877D01*
X135158595Y-141121046D01*
X135010617Y-141190160D01*
X134999095Y-141194314D01*
X134897916Y-141220720D01*
X134778996Y-141237166D01*
X134654254Y-141243064D01*
X134535608Y-141237826D01*
X134439047Y-141221914D01*
X134275992Y-141164814D01*
X134126061Y-141080695D01*
X133992436Y-140972798D01*
X133878297Y-140844360D01*
X133786823Y-140698622D01*
X133721195Y-140538821D01*
X133703028Y-140472264D01*
X133684696Y-140346351D01*
X133683366Y-140225258D01*
X133870426Y-140225258D01*
X133878442Y-140370919D01*
X133914016Y-140514585D01*
X133978182Y-140652584D01*
X134009035Y-140700976D01*
X134107423Y-140817580D01*
X134225129Y-140913094D01*
X134357431Y-140985708D01*
X134499608Y-141033613D01*
X134646941Y-141054999D01*
X134794709Y-141048058D01*
X134872688Y-141031983D01*
X135017413Y-140979119D01*
X135148739Y-140900019D01*
X135235367Y-140827661D01*
X135337612Y-140716820D01*
X135410521Y-140600890D01*
X135456417Y-140474490D01*
X135477621Y-140332239D01*
X135479725Y-140261442D01*
X135475230Y-140203143D01*
X135850508Y-140203143D01*
X135854220Y-140363762D01*
X135887084Y-140511577D01*
X135949135Y-140646661D01*
X136040409Y-140769091D01*
X136160940Y-140878942D01*
X136166437Y-140883126D01*
X136299860Y-140964843D01*
X136443120Y-141016850D01*
X136593186Y-141038572D01*
X136747029Y-141029437D01*
X136835820Y-141010043D01*
X136961133Y-140964225D01*
X137072956Y-140898072D01*
X137180336Y-140806173D01*
X137185993Y-140800563D01*
X137284415Y-140681875D01*
X137353663Y-140550960D01*
X137394171Y-140406748D01*
X137406433Y-140258879D01*
X137406065Y-140254623D01*
X137757156Y-140254623D01*
X137770883Y-140410054D01*
X137812730Y-140551347D01*
X137883692Y-140680915D01*
X137981296Y-140797686D01*
X138103991Y-140900475D01*
X138239387Y-140975465D01*
X138384288Y-141021660D01*
X138535498Y-141038063D01*
X138689823Y-141023678D01*
X138699914Y-141021648D01*
X138824931Y-140982114D01*
X138948235Y-140918492D01*
X139060960Y-140836593D01*
X139154238Y-140742226D01*
X139181461Y-140706159D01*
X139206260Y-140667870D01*
X139219823Y-140641894D01*
X139220619Y-140635709D01*
X139201158Y-140625477D01*
X139160822Y-140606882D01*
X139106508Y-140582864D01*
X139045112Y-140556362D01*
X138983531Y-140530317D01*
X138928664Y-140507668D01*
X138887406Y-140491355D01*
X138866654Y-140484317D01*
X138865484Y-140484345D01*
X138857496Y-140501313D01*
X138843066Y-140535983D01*
X138840256Y-140542994D01*
X138805314Y-140595037D01*
X138749174Y-140641458D01*
X138682409Y-140674392D01*
X138652663Y-140682530D01*
X138620548Y-140691434D01*
X138605627Y-140707762D01*
X138601358Y-140741672D01*
X138601168Y-140762500D01*
X138599873Y-140805735D01*
X138591298Y-140825912D01*
X138568412Y-140831819D01*
X138545432Y-140832171D01*
X138510836Y-140830549D01*
X138494696Y-140819823D01*
X138489975Y-140791199D01*
X138489695Y-140762545D01*
X138488224Y-140719078D01*
X138478316Y-140697337D01*
X138451730Y-140687196D01*
X138424535Y-140682499D01*
X138362487Y-140666577D01*
X138299306Y-140640862D01*
X138246912Y-140610846D01*
X138222294Y-140589338D01*
X138215964Y-140571300D01*
X138227867Y-140547346D01*
X138261389Y-140510960D01*
X138264713Y-140507701D01*
X138325567Y-140448278D01*
X138402041Y-140488939D01*
X138481466Y-140520081D01*
X138555244Y-140528107D01*
X138616676Y-140512548D01*
X138629475Y-140504810D01*
X138657599Y-140468907D01*
X138664033Y-140424131D01*
X138652680Y-140393381D01*
X138636696Y-140384141D01*
X138596047Y-140363998D01*
X138535173Y-140334980D01*
X138458515Y-140299113D01*
X138370515Y-140258423D01*
X138275613Y-140214939D01*
X138178252Y-140170687D01*
X138082871Y-140127694D01*
X137993913Y-140087986D01*
X137915818Y-140053592D01*
X137853027Y-140026537D01*
X137811026Y-140009256D01*
X137795841Y-140018211D01*
X137781487Y-140052737D01*
X137769342Y-140106560D01*
X137760783Y-140173405D01*
X137757189Y-140246998D01*
X137757156Y-140254623D01*
X137406065Y-140254623D01*
X137392959Y-140103174D01*
X137351758Y-139962023D01*
X137281661Y-139832618D01*
X137181500Y-139712149D01*
X137177284Y-139707908D01*
X137057302Y-139606882D01*
X136928454Y-139535888D01*
X136788364Y-139494035D01*
X136634659Y-139480430D01*
X136576686Y-139482207D01*
X136421394Y-139506400D01*
X136278958Y-139559586D01*
X136150545Y-139641130D01*
X136037324Y-139750396D01*
X136001650Y-139794873D01*
X135924275Y-139917856D01*
X135875322Y-140046047D01*
X135851601Y-140188060D01*
X135850508Y-140203143D01*
X135475230Y-140203143D01*
X135467403Y-140101627D01*
X135429776Y-139959229D01*
X135365159Y-139830294D01*
X135271866Y-139710871D01*
X135224584Y-139663407D01*
X135114700Y-139572648D01*
X135002844Y-139508330D01*
X134882661Y-139468221D01*
X134747800Y-139450084D01*
X134618430Y-139450201D01*
X134539634Y-139455336D01*
X134480326Y-139463757D01*
X134428143Y-139478369D01*
X134370727Y-139502081D01*
X134343148Y-139514944D01*
X134207529Y-139595494D01*
X134093264Y-139696072D01*
X134001388Y-139813009D01*
X133932933Y-139942632D01*
X133888934Y-140081272D01*
X133870426Y-140225258D01*
X133683366Y-140225258D01*
X133683167Y-140207122D01*
X133697724Y-140067858D01*
X133727649Y-139941841D01*
X133732485Y-139927536D01*
X133800878Y-139776663D01*
X133893825Y-139637824D01*
X134007112Y-139514927D01*
X134136525Y-139411880D01*
X134277851Y-139332592D01*
X134426876Y-139280971D01*
X134430522Y-139280102D01*
X134570509Y-139258880D01*
X134719504Y-139256937D01*
X134867932Y-139273312D01*
G37*
D19*
%TO.C,U8*%
X173790000Y-97450000D02*
X199790000Y-97450000D01*
X173790000Y-123450000D02*
X173790000Y-97450000D01*
X179790000Y-121450000D02*
X179790000Y-123450000D01*
X179790000Y-123450000D02*
X173790000Y-123450000D01*
X193790000Y-121450000D02*
X179790000Y-121450000D01*
X193790000Y-123450000D02*
X193790000Y-121450000D01*
X199790000Y-97450000D02*
X199790000Y-123450000D01*
X199790000Y-123450000D02*
X193790000Y-123450000D01*
D20*
X182890000Y-96950000D02*
G75*
G02*
X182690000Y-96950000I-100000J0D01*
G01*
X182690000Y-96950000D02*
G75*
G02*
X182890000Y-96950000I100000J0D01*
G01*
D18*
%TO.C,U2*%
X134040000Y-85950000D02*
X134040000Y-89150000D01*
X134040000Y-92150000D02*
X134040000Y-99150000D01*
X137040000Y-85950000D02*
X134040000Y-85950000D01*
X137340000Y-86250000D02*
X137040000Y-85950000D01*
X137740000Y-86450000D02*
X137340000Y-86250000D01*
X138340000Y-86550000D02*
X137740000Y-86450000D01*
X138390000Y-100450000D02*
X135890000Y-100450000D01*
X139040000Y-86650000D02*
X138340000Y-86550000D01*
X148740000Y-86650000D02*
X139040000Y-86650000D01*
X148740000Y-86650000D02*
X148740000Y-89150000D01*
X148740000Y-99150000D02*
X148740000Y-92150000D01*
D16*
%TO.C,R2*%
X200230000Y-131310000D02*
X200230000Y-137850000D01*
X200230000Y-137850000D02*
X202970000Y-137850000D01*
X201600000Y-130540000D02*
X201600000Y-131310000D01*
X201600000Y-138620000D02*
X201600000Y-137850000D01*
X202970000Y-131310000D02*
X200230000Y-131310000D01*
X202970000Y-137850000D02*
X202970000Y-131310000D01*
%TO.C,RET1*%
X174040000Y-130700000D02*
X174040000Y-135200000D01*
X176540000Y-136450000D02*
X178040000Y-136450000D01*
X178040000Y-129450000D02*
X176540000Y-129450000D01*
X180540000Y-135200000D02*
X180540000Y-130700000D01*
%TO.C,DOWN1*%
X183290000Y-136450000D02*
X183290000Y-137950000D01*
X184540000Y-140450000D02*
X189040000Y-140450000D01*
X189040000Y-133950000D02*
X184540000Y-133950000D01*
X190290000Y-137950000D02*
X190290000Y-136450000D01*
%TD*%
M02*
