%TF.GenerationSoftware,KiCad,Pcbnew,9.0.3*%
%TF.CreationDate,2025-10-24T12:45:13+02:00*%
%TF.ProjectId,sdiskII_stm32,73646973-6b49-4495-9f73-746d33322e6b,7*%
%TF.SameCoordinates,Original*%
%TF.FileFunction,Legend,Bot*%
%TF.FilePolarity,Positive*%
%FSLAX46Y46*%
G04 Gerber Fmt 4.6, Leading zero omitted, Abs format (unit mm)*
G04 Created by KiCad (PCBNEW 9.0.3) date 2025-10-24 12:45:13*
%MOMM*%
%LPD*%
G01*
G04 APERTURE LIST*
%ADD10C,0.150000*%
%ADD11C,0.203200*%
%ADD12C,0.250000*%
%ADD13C,0.120000*%
%ADD14C,0.000000*%
G04 APERTURE END LIST*
D10*
X159268571Y-107202295D02*
X158773333Y-107202295D01*
X158773333Y-107202295D02*
X159039999Y-107507057D01*
X159039999Y-107507057D02*
X158925714Y-107507057D01*
X158925714Y-107507057D02*
X158849523Y-107545152D01*
X158849523Y-107545152D02*
X158811428Y-107583247D01*
X158811428Y-107583247D02*
X158773333Y-107659438D01*
X158773333Y-107659438D02*
X158773333Y-107849914D01*
X158773333Y-107849914D02*
X158811428Y-107926104D01*
X158811428Y-107926104D02*
X158849523Y-107964200D01*
X158849523Y-107964200D02*
X158925714Y-108002295D01*
X158925714Y-108002295D02*
X159154285Y-108002295D01*
X159154285Y-108002295D02*
X159230476Y-107964200D01*
X159230476Y-107964200D02*
X159268571Y-107926104D01*
X158506666Y-107202295D02*
X158011428Y-107202295D01*
X158011428Y-107202295D02*
X158278094Y-107507057D01*
X158278094Y-107507057D02*
X158163809Y-107507057D01*
X158163809Y-107507057D02*
X158087618Y-107545152D01*
X158087618Y-107545152D02*
X158049523Y-107583247D01*
X158049523Y-107583247D02*
X158011428Y-107659438D01*
X158011428Y-107659438D02*
X158011428Y-107849914D01*
X158011428Y-107849914D02*
X158049523Y-107926104D01*
X158049523Y-107926104D02*
X158087618Y-107964200D01*
X158087618Y-107964200D02*
X158163809Y-108002295D01*
X158163809Y-108002295D02*
X158392380Y-108002295D01*
X158392380Y-108002295D02*
X158468571Y-107964200D01*
X158468571Y-107964200D02*
X158506666Y-107926104D01*
X157516189Y-107202295D02*
X157439999Y-107202295D01*
X157439999Y-107202295D02*
X157363808Y-107240390D01*
X157363808Y-107240390D02*
X157325713Y-107278485D01*
X157325713Y-107278485D02*
X157287618Y-107354676D01*
X157287618Y-107354676D02*
X157249523Y-107507057D01*
X157249523Y-107507057D02*
X157249523Y-107697533D01*
X157249523Y-107697533D02*
X157287618Y-107849914D01*
X157287618Y-107849914D02*
X157325713Y-107926104D01*
X157325713Y-107926104D02*
X157363808Y-107964200D01*
X157363808Y-107964200D02*
X157439999Y-108002295D01*
X157439999Y-108002295D02*
X157516189Y-108002295D01*
X157516189Y-108002295D02*
X157592380Y-107964200D01*
X157592380Y-107964200D02*
X157630475Y-107926104D01*
X157630475Y-107926104D02*
X157668570Y-107849914D01*
X157668570Y-107849914D02*
X157706666Y-107697533D01*
X157706666Y-107697533D02*
X157706666Y-107507057D01*
X157706666Y-107507057D02*
X157668570Y-107354676D01*
X157668570Y-107354676D02*
X157630475Y-107278485D01*
X157630475Y-107278485D02*
X157592380Y-107240390D01*
X157592380Y-107240390D02*
X157516189Y-107202295D01*
X156449522Y-108002295D02*
X156716189Y-107621342D01*
X156906665Y-108002295D02*
X156906665Y-107202295D01*
X156906665Y-107202295D02*
X156601903Y-107202295D01*
X156601903Y-107202295D02*
X156525713Y-107240390D01*
X156525713Y-107240390D02*
X156487618Y-107278485D01*
X156487618Y-107278485D02*
X156449522Y-107354676D01*
X156449522Y-107354676D02*
X156449522Y-107468961D01*
X156449522Y-107468961D02*
X156487618Y-107545152D01*
X156487618Y-107545152D02*
X156525713Y-107583247D01*
X156525713Y-107583247D02*
X156601903Y-107621342D01*
X156601903Y-107621342D02*
X156906665Y-107621342D01*
X159278571Y-127672295D02*
X158783333Y-127672295D01*
X158783333Y-127672295D02*
X159049999Y-127977057D01*
X159049999Y-127977057D02*
X158935714Y-127977057D01*
X158935714Y-127977057D02*
X158859523Y-128015152D01*
X158859523Y-128015152D02*
X158821428Y-128053247D01*
X158821428Y-128053247D02*
X158783333Y-128129438D01*
X158783333Y-128129438D02*
X158783333Y-128319914D01*
X158783333Y-128319914D02*
X158821428Y-128396104D01*
X158821428Y-128396104D02*
X158859523Y-128434200D01*
X158859523Y-128434200D02*
X158935714Y-128472295D01*
X158935714Y-128472295D02*
X159164285Y-128472295D01*
X159164285Y-128472295D02*
X159240476Y-128434200D01*
X159240476Y-128434200D02*
X159278571Y-128396104D01*
X158516666Y-127672295D02*
X158021428Y-127672295D01*
X158021428Y-127672295D02*
X158288094Y-127977057D01*
X158288094Y-127977057D02*
X158173809Y-127977057D01*
X158173809Y-127977057D02*
X158097618Y-128015152D01*
X158097618Y-128015152D02*
X158059523Y-128053247D01*
X158059523Y-128053247D02*
X158021428Y-128129438D01*
X158021428Y-128129438D02*
X158021428Y-128319914D01*
X158021428Y-128319914D02*
X158059523Y-128396104D01*
X158059523Y-128396104D02*
X158097618Y-128434200D01*
X158097618Y-128434200D02*
X158173809Y-128472295D01*
X158173809Y-128472295D02*
X158402380Y-128472295D01*
X158402380Y-128472295D02*
X158478571Y-128434200D01*
X158478571Y-128434200D02*
X158516666Y-128396104D01*
X157526189Y-127672295D02*
X157449999Y-127672295D01*
X157449999Y-127672295D02*
X157373808Y-127710390D01*
X157373808Y-127710390D02*
X157335713Y-127748485D01*
X157335713Y-127748485D02*
X157297618Y-127824676D01*
X157297618Y-127824676D02*
X157259523Y-127977057D01*
X157259523Y-127977057D02*
X157259523Y-128167533D01*
X157259523Y-128167533D02*
X157297618Y-128319914D01*
X157297618Y-128319914D02*
X157335713Y-128396104D01*
X157335713Y-128396104D02*
X157373808Y-128434200D01*
X157373808Y-128434200D02*
X157449999Y-128472295D01*
X157449999Y-128472295D02*
X157526189Y-128472295D01*
X157526189Y-128472295D02*
X157602380Y-128434200D01*
X157602380Y-128434200D02*
X157640475Y-128396104D01*
X157640475Y-128396104D02*
X157678570Y-128319914D01*
X157678570Y-128319914D02*
X157716666Y-128167533D01*
X157716666Y-128167533D02*
X157716666Y-127977057D01*
X157716666Y-127977057D02*
X157678570Y-127824676D01*
X157678570Y-127824676D02*
X157640475Y-127748485D01*
X157640475Y-127748485D02*
X157602380Y-127710390D01*
X157602380Y-127710390D02*
X157526189Y-127672295D01*
X156459522Y-128472295D02*
X156726189Y-128091342D01*
X156916665Y-128472295D02*
X156916665Y-127672295D01*
X156916665Y-127672295D02*
X156611903Y-127672295D01*
X156611903Y-127672295D02*
X156535713Y-127710390D01*
X156535713Y-127710390D02*
X156497618Y-127748485D01*
X156497618Y-127748485D02*
X156459522Y-127824676D01*
X156459522Y-127824676D02*
X156459522Y-127938961D01*
X156459522Y-127938961D02*
X156497618Y-128015152D01*
X156497618Y-128015152D02*
X156535713Y-128053247D01*
X156535713Y-128053247D02*
X156611903Y-128091342D01*
X156611903Y-128091342D02*
X156916665Y-128091342D01*
X183588571Y-96442295D02*
X183093333Y-96442295D01*
X183093333Y-96442295D02*
X183359999Y-96747057D01*
X183359999Y-96747057D02*
X183245714Y-96747057D01*
X183245714Y-96747057D02*
X183169523Y-96785152D01*
X183169523Y-96785152D02*
X183131428Y-96823247D01*
X183131428Y-96823247D02*
X183093333Y-96899438D01*
X183093333Y-96899438D02*
X183093333Y-97089914D01*
X183093333Y-97089914D02*
X183131428Y-97166104D01*
X183131428Y-97166104D02*
X183169523Y-97204200D01*
X183169523Y-97204200D02*
X183245714Y-97242295D01*
X183245714Y-97242295D02*
X183474285Y-97242295D01*
X183474285Y-97242295D02*
X183550476Y-97204200D01*
X183550476Y-97204200D02*
X183588571Y-97166104D01*
X182826666Y-96442295D02*
X182331428Y-96442295D01*
X182331428Y-96442295D02*
X182598094Y-96747057D01*
X182598094Y-96747057D02*
X182483809Y-96747057D01*
X182483809Y-96747057D02*
X182407618Y-96785152D01*
X182407618Y-96785152D02*
X182369523Y-96823247D01*
X182369523Y-96823247D02*
X182331428Y-96899438D01*
X182331428Y-96899438D02*
X182331428Y-97089914D01*
X182331428Y-97089914D02*
X182369523Y-97166104D01*
X182369523Y-97166104D02*
X182407618Y-97204200D01*
X182407618Y-97204200D02*
X182483809Y-97242295D01*
X182483809Y-97242295D02*
X182712380Y-97242295D01*
X182712380Y-97242295D02*
X182788571Y-97204200D01*
X182788571Y-97204200D02*
X182826666Y-97166104D01*
X181836189Y-96442295D02*
X181759999Y-96442295D01*
X181759999Y-96442295D02*
X181683808Y-96480390D01*
X181683808Y-96480390D02*
X181645713Y-96518485D01*
X181645713Y-96518485D02*
X181607618Y-96594676D01*
X181607618Y-96594676D02*
X181569523Y-96747057D01*
X181569523Y-96747057D02*
X181569523Y-96937533D01*
X181569523Y-96937533D02*
X181607618Y-97089914D01*
X181607618Y-97089914D02*
X181645713Y-97166104D01*
X181645713Y-97166104D02*
X181683808Y-97204200D01*
X181683808Y-97204200D02*
X181759999Y-97242295D01*
X181759999Y-97242295D02*
X181836189Y-97242295D01*
X181836189Y-97242295D02*
X181912380Y-97204200D01*
X181912380Y-97204200D02*
X181950475Y-97166104D01*
X181950475Y-97166104D02*
X181988570Y-97089914D01*
X181988570Y-97089914D02*
X182026666Y-96937533D01*
X182026666Y-96937533D02*
X182026666Y-96747057D01*
X182026666Y-96747057D02*
X181988570Y-96594676D01*
X181988570Y-96594676D02*
X181950475Y-96518485D01*
X181950475Y-96518485D02*
X181912380Y-96480390D01*
X181912380Y-96480390D02*
X181836189Y-96442295D01*
X180769522Y-97242295D02*
X181036189Y-96861342D01*
X181226665Y-97242295D02*
X181226665Y-96442295D01*
X181226665Y-96442295D02*
X180921903Y-96442295D01*
X180921903Y-96442295D02*
X180845713Y-96480390D01*
X180845713Y-96480390D02*
X180807618Y-96518485D01*
X180807618Y-96518485D02*
X180769522Y-96594676D01*
X180769522Y-96594676D02*
X180769522Y-96708961D01*
X180769522Y-96708961D02*
X180807618Y-96785152D01*
X180807618Y-96785152D02*
X180845713Y-96823247D01*
X180845713Y-96823247D02*
X180921903Y-96861342D01*
X180921903Y-96861342D02*
X181226665Y-96861342D01*
X166552381Y-113612295D02*
X167009524Y-113612295D01*
X166780952Y-113612295D02*
X166780952Y-112812295D01*
X166780952Y-112812295D02*
X166857143Y-112926580D01*
X166857143Y-112926580D02*
X166933333Y-113002771D01*
X166933333Y-113002771D02*
X167009524Y-113040866D01*
X166209523Y-113612295D02*
X166209523Y-112812295D01*
X165752380Y-113612295D02*
X166095238Y-113155152D01*
X165752380Y-112812295D02*
X166209523Y-113269438D01*
X165028571Y-112812295D02*
X165409523Y-112812295D01*
X165409523Y-112812295D02*
X165447619Y-113193247D01*
X165447619Y-113193247D02*
X165409523Y-113155152D01*
X165409523Y-113155152D02*
X165333333Y-113117057D01*
X165333333Y-113117057D02*
X165142857Y-113117057D01*
X165142857Y-113117057D02*
X165066666Y-113155152D01*
X165066666Y-113155152D02*
X165028571Y-113193247D01*
X165028571Y-113193247D02*
X164990476Y-113269438D01*
X164990476Y-113269438D02*
X164990476Y-113459914D01*
X164990476Y-113459914D02*
X165028571Y-113536104D01*
X165028571Y-113536104D02*
X165066666Y-113574200D01*
X165066666Y-113574200D02*
X165142857Y-113612295D01*
X165142857Y-113612295D02*
X165333333Y-113612295D01*
X165333333Y-113612295D02*
X165409523Y-113574200D01*
X165409523Y-113574200D02*
X165447619Y-113536104D01*
D11*
X167160601Y-87883453D02*
X167644411Y-87883453D01*
X167644411Y-87883453D02*
X167692792Y-88367263D01*
X167692792Y-88367263D02*
X167644411Y-88318882D01*
X167644411Y-88318882D02*
X167547649Y-88270501D01*
X167547649Y-88270501D02*
X167305744Y-88270501D01*
X167305744Y-88270501D02*
X167208982Y-88318882D01*
X167208982Y-88318882D02*
X167160601Y-88367263D01*
X167160601Y-88367263D02*
X167112220Y-88464025D01*
X167112220Y-88464025D02*
X167112220Y-88705930D01*
X167112220Y-88705930D02*
X167160601Y-88802692D01*
X167160601Y-88802692D02*
X167208982Y-88851073D01*
X167208982Y-88851073D02*
X167305744Y-88899453D01*
X167305744Y-88899453D02*
X167547649Y-88899453D01*
X167547649Y-88899453D02*
X167644411Y-88851073D01*
X167644411Y-88851073D02*
X167692792Y-88802692D01*
X166821935Y-87883453D02*
X166483268Y-88899453D01*
X166483268Y-88899453D02*
X166144601Y-87883453D01*
D10*
X166133332Y-110592295D02*
X166399999Y-110211342D01*
X166590475Y-110592295D02*
X166590475Y-109792295D01*
X166590475Y-109792295D02*
X166285713Y-109792295D01*
X166285713Y-109792295D02*
X166209523Y-109830390D01*
X166209523Y-109830390D02*
X166171428Y-109868485D01*
X166171428Y-109868485D02*
X166133332Y-109944676D01*
X166133332Y-109944676D02*
X166133332Y-110058961D01*
X166133332Y-110058961D02*
X166171428Y-110135152D01*
X166171428Y-110135152D02*
X166209523Y-110173247D01*
X166209523Y-110173247D02*
X166285713Y-110211342D01*
X166285713Y-110211342D02*
X166590475Y-110211342D01*
X165409523Y-109792295D02*
X165790475Y-109792295D01*
X165790475Y-109792295D02*
X165828571Y-110173247D01*
X165828571Y-110173247D02*
X165790475Y-110135152D01*
X165790475Y-110135152D02*
X165714285Y-110097057D01*
X165714285Y-110097057D02*
X165523809Y-110097057D01*
X165523809Y-110097057D02*
X165447618Y-110135152D01*
X165447618Y-110135152D02*
X165409523Y-110173247D01*
X165409523Y-110173247D02*
X165371428Y-110249438D01*
X165371428Y-110249438D02*
X165371428Y-110439914D01*
X165371428Y-110439914D02*
X165409523Y-110516104D01*
X165409523Y-110516104D02*
X165447618Y-110554200D01*
X165447618Y-110554200D02*
X165523809Y-110592295D01*
X165523809Y-110592295D02*
X165714285Y-110592295D01*
X165714285Y-110592295D02*
X165790475Y-110554200D01*
X165790475Y-110554200D02*
X165828571Y-110516104D01*
X157983332Y-125442295D02*
X158249999Y-125061342D01*
X158440475Y-125442295D02*
X158440475Y-124642295D01*
X158440475Y-124642295D02*
X158135713Y-124642295D01*
X158135713Y-124642295D02*
X158059523Y-124680390D01*
X158059523Y-124680390D02*
X158021428Y-124718485D01*
X158021428Y-124718485D02*
X157983332Y-124794676D01*
X157983332Y-124794676D02*
X157983332Y-124908961D01*
X157983332Y-124908961D02*
X158021428Y-124985152D01*
X158021428Y-124985152D02*
X158059523Y-125023247D01*
X158059523Y-125023247D02*
X158135713Y-125061342D01*
X158135713Y-125061342D02*
X158440475Y-125061342D01*
X157716666Y-124642295D02*
X157221428Y-124642295D01*
X157221428Y-124642295D02*
X157488094Y-124947057D01*
X157488094Y-124947057D02*
X157373809Y-124947057D01*
X157373809Y-124947057D02*
X157297618Y-124985152D01*
X157297618Y-124985152D02*
X157259523Y-125023247D01*
X157259523Y-125023247D02*
X157221428Y-125099438D01*
X157221428Y-125099438D02*
X157221428Y-125289914D01*
X157221428Y-125289914D02*
X157259523Y-125366104D01*
X157259523Y-125366104D02*
X157297618Y-125404200D01*
X157297618Y-125404200D02*
X157373809Y-125442295D01*
X157373809Y-125442295D02*
X157602380Y-125442295D01*
X157602380Y-125442295D02*
X157678571Y-125404200D01*
X157678571Y-125404200D02*
X157716666Y-125366104D01*
X182066268Y-94302295D02*
X182332935Y-93921342D01*
X182523411Y-94302295D02*
X182523411Y-93502295D01*
X182523411Y-93502295D02*
X182218649Y-93502295D01*
X182218649Y-93502295D02*
X182142459Y-93540390D01*
X182142459Y-93540390D02*
X182104364Y-93578485D01*
X182104364Y-93578485D02*
X182066268Y-93654676D01*
X182066268Y-93654676D02*
X182066268Y-93768961D01*
X182066268Y-93768961D02*
X182104364Y-93845152D01*
X182104364Y-93845152D02*
X182142459Y-93883247D01*
X182142459Y-93883247D02*
X182218649Y-93921342D01*
X182218649Y-93921342D02*
X182523411Y-93921342D01*
X181304364Y-94302295D02*
X181761507Y-94302295D01*
X181532935Y-94302295D02*
X181532935Y-93502295D01*
X181532935Y-93502295D02*
X181609126Y-93616580D01*
X181609126Y-93616580D02*
X181685316Y-93692771D01*
X181685316Y-93692771D02*
X181761507Y-93730866D01*
X158953809Y-100933247D02*
X158839523Y-100971342D01*
X158839523Y-100971342D02*
X158801428Y-101009438D01*
X158801428Y-101009438D02*
X158763332Y-101085628D01*
X158763332Y-101085628D02*
X158763332Y-101199914D01*
X158763332Y-101199914D02*
X158801428Y-101276104D01*
X158801428Y-101276104D02*
X158839523Y-101314200D01*
X158839523Y-101314200D02*
X158915713Y-101352295D01*
X158915713Y-101352295D02*
X159220475Y-101352295D01*
X159220475Y-101352295D02*
X159220475Y-100552295D01*
X159220475Y-100552295D02*
X158953809Y-100552295D01*
X158953809Y-100552295D02*
X158877618Y-100590390D01*
X158877618Y-100590390D02*
X158839523Y-100628485D01*
X158839523Y-100628485D02*
X158801428Y-100704676D01*
X158801428Y-100704676D02*
X158801428Y-100780866D01*
X158801428Y-100780866D02*
X158839523Y-100857057D01*
X158839523Y-100857057D02*
X158877618Y-100895152D01*
X158877618Y-100895152D02*
X158953809Y-100933247D01*
X158953809Y-100933247D02*
X159220475Y-100933247D01*
X158420475Y-101352295D02*
X158420475Y-100552295D01*
X158420475Y-100552295D02*
X158115713Y-100552295D01*
X158115713Y-100552295D02*
X158039523Y-100590390D01*
X158039523Y-100590390D02*
X158001428Y-100628485D01*
X158001428Y-100628485D02*
X157963332Y-100704676D01*
X157963332Y-100704676D02*
X157963332Y-100818961D01*
X157963332Y-100818961D02*
X158001428Y-100895152D01*
X158001428Y-100895152D02*
X158039523Y-100933247D01*
X158039523Y-100933247D02*
X158115713Y-100971342D01*
X158115713Y-100971342D02*
X158420475Y-100971342D01*
X157163332Y-101352295D02*
X157429999Y-100971342D01*
X157620475Y-101352295D02*
X157620475Y-100552295D01*
X157620475Y-100552295D02*
X157315713Y-100552295D01*
X157315713Y-100552295D02*
X157239523Y-100590390D01*
X157239523Y-100590390D02*
X157201428Y-100628485D01*
X157201428Y-100628485D02*
X157163332Y-100704676D01*
X157163332Y-100704676D02*
X157163332Y-100818961D01*
X157163332Y-100818961D02*
X157201428Y-100895152D01*
X157201428Y-100895152D02*
X157239523Y-100933247D01*
X157239523Y-100933247D02*
X157315713Y-100971342D01*
X157315713Y-100971342D02*
X157620475Y-100971342D01*
X156858571Y-100628485D02*
X156820475Y-100590390D01*
X156820475Y-100590390D02*
X156744285Y-100552295D01*
X156744285Y-100552295D02*
X156553809Y-100552295D01*
X156553809Y-100552295D02*
X156477618Y-100590390D01*
X156477618Y-100590390D02*
X156439523Y-100628485D01*
X156439523Y-100628485D02*
X156401428Y-100704676D01*
X156401428Y-100704676D02*
X156401428Y-100780866D01*
X156401428Y-100780866D02*
X156439523Y-100895152D01*
X156439523Y-100895152D02*
X156896666Y-101352295D01*
X156896666Y-101352295D02*
X156401428Y-101352295D01*
X157973332Y-104952295D02*
X158239999Y-104571342D01*
X158430475Y-104952295D02*
X158430475Y-104152295D01*
X158430475Y-104152295D02*
X158125713Y-104152295D01*
X158125713Y-104152295D02*
X158049523Y-104190390D01*
X158049523Y-104190390D02*
X158011428Y-104228485D01*
X158011428Y-104228485D02*
X157973332Y-104304676D01*
X157973332Y-104304676D02*
X157973332Y-104418961D01*
X157973332Y-104418961D02*
X158011428Y-104495152D01*
X158011428Y-104495152D02*
X158049523Y-104533247D01*
X158049523Y-104533247D02*
X158125713Y-104571342D01*
X158125713Y-104571342D02*
X158430475Y-104571342D01*
X157668571Y-104228485D02*
X157630475Y-104190390D01*
X157630475Y-104190390D02*
X157554285Y-104152295D01*
X157554285Y-104152295D02*
X157363809Y-104152295D01*
X157363809Y-104152295D02*
X157287618Y-104190390D01*
X157287618Y-104190390D02*
X157249523Y-104228485D01*
X157249523Y-104228485D02*
X157211428Y-104304676D01*
X157211428Y-104304676D02*
X157211428Y-104380866D01*
X157211428Y-104380866D02*
X157249523Y-104495152D01*
X157249523Y-104495152D02*
X157706666Y-104952295D01*
X157706666Y-104952295D02*
X157211428Y-104952295D01*
X158963809Y-121463247D02*
X158849523Y-121501342D01*
X158849523Y-121501342D02*
X158811428Y-121539438D01*
X158811428Y-121539438D02*
X158773332Y-121615628D01*
X158773332Y-121615628D02*
X158773332Y-121729914D01*
X158773332Y-121729914D02*
X158811428Y-121806104D01*
X158811428Y-121806104D02*
X158849523Y-121844200D01*
X158849523Y-121844200D02*
X158925713Y-121882295D01*
X158925713Y-121882295D02*
X159230475Y-121882295D01*
X159230475Y-121882295D02*
X159230475Y-121082295D01*
X159230475Y-121082295D02*
X158963809Y-121082295D01*
X158963809Y-121082295D02*
X158887618Y-121120390D01*
X158887618Y-121120390D02*
X158849523Y-121158485D01*
X158849523Y-121158485D02*
X158811428Y-121234676D01*
X158811428Y-121234676D02*
X158811428Y-121310866D01*
X158811428Y-121310866D02*
X158849523Y-121387057D01*
X158849523Y-121387057D02*
X158887618Y-121425152D01*
X158887618Y-121425152D02*
X158963809Y-121463247D01*
X158963809Y-121463247D02*
X159230475Y-121463247D01*
X158430475Y-121882295D02*
X158430475Y-121082295D01*
X158430475Y-121082295D02*
X158125713Y-121082295D01*
X158125713Y-121082295D02*
X158049523Y-121120390D01*
X158049523Y-121120390D02*
X158011428Y-121158485D01*
X158011428Y-121158485D02*
X157973332Y-121234676D01*
X157973332Y-121234676D02*
X157973332Y-121348961D01*
X157973332Y-121348961D02*
X158011428Y-121425152D01*
X158011428Y-121425152D02*
X158049523Y-121463247D01*
X158049523Y-121463247D02*
X158125713Y-121501342D01*
X158125713Y-121501342D02*
X158430475Y-121501342D01*
X157173332Y-121882295D02*
X157439999Y-121501342D01*
X157630475Y-121882295D02*
X157630475Y-121082295D01*
X157630475Y-121082295D02*
X157325713Y-121082295D01*
X157325713Y-121082295D02*
X157249523Y-121120390D01*
X157249523Y-121120390D02*
X157211428Y-121158485D01*
X157211428Y-121158485D02*
X157173332Y-121234676D01*
X157173332Y-121234676D02*
X157173332Y-121348961D01*
X157173332Y-121348961D02*
X157211428Y-121425152D01*
X157211428Y-121425152D02*
X157249523Y-121463247D01*
X157249523Y-121463247D02*
X157325713Y-121501342D01*
X157325713Y-121501342D02*
X157630475Y-121501342D01*
X156906666Y-121082295D02*
X156411428Y-121082295D01*
X156411428Y-121082295D02*
X156678094Y-121387057D01*
X156678094Y-121387057D02*
X156563809Y-121387057D01*
X156563809Y-121387057D02*
X156487618Y-121425152D01*
X156487618Y-121425152D02*
X156449523Y-121463247D01*
X156449523Y-121463247D02*
X156411428Y-121539438D01*
X156411428Y-121539438D02*
X156411428Y-121729914D01*
X156411428Y-121729914D02*
X156449523Y-121806104D01*
X156449523Y-121806104D02*
X156487618Y-121844200D01*
X156487618Y-121844200D02*
X156563809Y-121882295D01*
X156563809Y-121882295D02*
X156792380Y-121882295D01*
X156792380Y-121882295D02*
X156868571Y-121844200D01*
X156868571Y-121844200D02*
X156906666Y-121806104D01*
X179833809Y-93933247D02*
X179719523Y-93971342D01*
X179719523Y-93971342D02*
X179681428Y-94009438D01*
X179681428Y-94009438D02*
X179643332Y-94085628D01*
X179643332Y-94085628D02*
X179643332Y-94199914D01*
X179643332Y-94199914D02*
X179681428Y-94276104D01*
X179681428Y-94276104D02*
X179719523Y-94314200D01*
X179719523Y-94314200D02*
X179795713Y-94352295D01*
X179795713Y-94352295D02*
X180100475Y-94352295D01*
X180100475Y-94352295D02*
X180100475Y-93552295D01*
X180100475Y-93552295D02*
X179833809Y-93552295D01*
X179833809Y-93552295D02*
X179757618Y-93590390D01*
X179757618Y-93590390D02*
X179719523Y-93628485D01*
X179719523Y-93628485D02*
X179681428Y-93704676D01*
X179681428Y-93704676D02*
X179681428Y-93780866D01*
X179681428Y-93780866D02*
X179719523Y-93857057D01*
X179719523Y-93857057D02*
X179757618Y-93895152D01*
X179757618Y-93895152D02*
X179833809Y-93933247D01*
X179833809Y-93933247D02*
X180100475Y-93933247D01*
X179300475Y-94352295D02*
X179300475Y-93552295D01*
X179300475Y-93552295D02*
X178995713Y-93552295D01*
X178995713Y-93552295D02*
X178919523Y-93590390D01*
X178919523Y-93590390D02*
X178881428Y-93628485D01*
X178881428Y-93628485D02*
X178843332Y-93704676D01*
X178843332Y-93704676D02*
X178843332Y-93818961D01*
X178843332Y-93818961D02*
X178881428Y-93895152D01*
X178881428Y-93895152D02*
X178919523Y-93933247D01*
X178919523Y-93933247D02*
X178995713Y-93971342D01*
X178995713Y-93971342D02*
X179300475Y-93971342D01*
X178043332Y-94352295D02*
X178309999Y-93971342D01*
X178500475Y-94352295D02*
X178500475Y-93552295D01*
X178500475Y-93552295D02*
X178195713Y-93552295D01*
X178195713Y-93552295D02*
X178119523Y-93590390D01*
X178119523Y-93590390D02*
X178081428Y-93628485D01*
X178081428Y-93628485D02*
X178043332Y-93704676D01*
X178043332Y-93704676D02*
X178043332Y-93818961D01*
X178043332Y-93818961D02*
X178081428Y-93895152D01*
X178081428Y-93895152D02*
X178119523Y-93933247D01*
X178119523Y-93933247D02*
X178195713Y-93971342D01*
X178195713Y-93971342D02*
X178500475Y-93971342D01*
X177281428Y-94352295D02*
X177738571Y-94352295D01*
X177509999Y-94352295D02*
X177509999Y-93552295D01*
X177509999Y-93552295D02*
X177586190Y-93666580D01*
X177586190Y-93666580D02*
X177662380Y-93742771D01*
X177662380Y-93742771D02*
X177738571Y-93780866D01*
D12*
%TO.C,\u03BCC1*%
X151170000Y-138069994D02*
X151170000Y-87070000D01*
X152170000Y-86070000D02*
X171170000Y-86070000D01*
X171170000Y-139070000D02*
X152170000Y-139069994D01*
X172170000Y-87070000D02*
X172170000Y-138070000D01*
X151169997Y-87069997D02*
G75*
G02*
X152170000Y-86070000I999999J-2D01*
G01*
X152169997Y-139069997D02*
G75*
G02*
X151170000Y-138069994I2J999999D01*
G01*
X171170003Y-86070000D02*
G75*
G02*
X172170000Y-87070003I-3J-1000000D01*
G01*
X172170003Y-138070003D02*
G75*
G02*
X171170000Y-139070003I-1000003J3D01*
G01*
D13*
%TO.C,R5*%
X166227064Y-110955000D02*
X165772936Y-110955000D01*
X166227064Y-112425000D02*
X165772936Y-112425000D01*
%TO.C,R3*%
X158077064Y-125815000D02*
X157622936Y-125815000D01*
X158077064Y-127285000D02*
X157622936Y-127285000D01*
%TO.C,R1*%
X182387064Y-94625000D02*
X181932936Y-94625000D01*
X182387064Y-96095000D02*
X181932936Y-96095000D01*
%TO.C,BPR2*%
X156430000Y-102490000D02*
X156430000Y-103090000D01*
X157130000Y-103790000D02*
X158530000Y-103790000D01*
X158530000Y-101790000D02*
X157130000Y-101790000D01*
X159230000Y-103090000D02*
X159230000Y-102490000D01*
X156430000Y-102490000D02*
G75*
G02*
X157130000Y-101790000I700000J0D01*
G01*
X157130000Y-103790000D02*
G75*
G02*
X156430000Y-103090000I0J700000D01*
G01*
X158530000Y-101790000D02*
G75*
G02*
X159230000Y-102490000I1J-699999D01*
G01*
X159230000Y-103090000D02*
G75*
G02*
X158530000Y-103790000I-699999J-1D01*
G01*
D14*
%TO.C,G\u002A\u002A\u002A*%
G36*
X197709957Y-111079062D02*
G01*
X197698962Y-111090057D01*
X197687966Y-111079062D01*
X197698962Y-111068066D01*
X197709957Y-111079062D01*
G37*
G36*
X195510823Y-107263564D02*
G01*
X195509236Y-107275206D01*
X195496162Y-107278225D01*
X195493530Y-107275002D01*
X195496162Y-107248903D01*
X195502777Y-107245463D01*
X195510823Y-107263564D01*
G37*
G36*
X197394748Y-106919033D02*
G01*
X197398189Y-106925647D01*
X197380087Y-106933694D01*
X197368445Y-106932107D01*
X197365426Y-106919033D01*
X197368650Y-106916401D01*
X197394748Y-106919033D01*
G37*
G36*
X195347159Y-106934683D02*
G01*
X195367880Y-106955685D01*
X195371976Y-106963471D01*
X195370475Y-106977676D01*
X195366609Y-106976687D01*
X195345888Y-106955685D01*
X195341792Y-106947899D01*
X195343293Y-106933694D01*
X195347159Y-106934683D01*
G37*
G36*
X194470676Y-111110062D02*
G01*
X194485800Y-111167027D01*
X194489936Y-111186908D01*
X194491352Y-111212428D01*
X194478235Y-111200014D01*
X194467378Y-111178722D01*
X194455576Y-111124877D01*
X194455640Y-111115283D01*
X194460161Y-111092171D01*
X194470676Y-111110062D01*
G37*
G36*
X194541238Y-111530903D02*
G01*
X194535315Y-111584863D01*
X194532912Y-111600485D01*
X194523495Y-111663551D01*
X194517613Y-111705815D01*
X194515797Y-111711274D01*
X194510742Y-111692440D01*
X194504965Y-111642351D01*
X194503850Y-111626337D01*
X194507034Y-111559987D01*
X194522667Y-111521399D01*
X194535236Y-111513846D01*
X194541238Y-111530903D01*
G37*
G36*
X197675759Y-111168266D02*
G01*
X197666950Y-111217935D01*
X197648509Y-111306351D01*
X197620384Y-111435587D01*
X197603416Y-111507239D01*
X197581875Y-111583323D01*
X197563357Y-111632835D01*
X197550594Y-111647484D01*
X197546784Y-111644169D01*
X197539373Y-111608866D01*
X197549516Y-111539585D01*
X197577610Y-111434391D01*
X197624056Y-111291347D01*
X197644929Y-111231034D01*
X197664696Y-111176888D01*
X197674991Y-111155275D01*
X197675759Y-111168266D01*
G37*
G36*
X196216872Y-109350219D02*
G01*
X196234217Y-109391661D01*
X196248269Y-109446205D01*
X196253266Y-109498362D01*
X196243449Y-109526695D01*
X196221140Y-109514596D01*
X196191722Y-109460687D01*
X196163561Y-109392701D01*
X196128982Y-109449691D01*
X196114471Y-109470281D01*
X196079401Y-109500619D01*
X196050657Y-109504808D01*
X196039347Y-109479192D01*
X196047955Y-109448192D01*
X196079566Y-109404192D01*
X196120936Y-109372207D01*
X196157636Y-109366039D01*
X196177168Y-109369346D01*
X196192555Y-109350696D01*
X196192960Y-109342050D01*
X196201399Y-109330731D01*
X196216872Y-109350219D01*
G37*
G36*
X194480494Y-110795708D02*
G01*
X194470854Y-110848554D01*
X194463094Y-110903131D01*
X194459617Y-110927582D01*
X194455239Y-110985066D01*
X194455159Y-110992618D01*
X194448058Y-111031118D01*
X194427750Y-111031497D01*
X194416684Y-111025472D01*
X194367876Y-111009436D01*
X194347595Y-111001995D01*
X194310473Y-110970332D01*
X194292202Y-110952430D01*
X194250642Y-110936118D01*
X194236369Y-110932267D01*
X194197957Y-110903949D01*
X194197258Y-110903131D01*
X194279308Y-110903131D01*
X194290304Y-110914127D01*
X194301299Y-110903131D01*
X194290304Y-110892135D01*
X194279308Y-110903131D01*
X194197258Y-110903131D01*
X194162769Y-110862747D01*
X194147360Y-110826269D01*
X194149069Y-110822816D01*
X194157191Y-110816360D01*
X194350941Y-110816360D01*
X194364765Y-110863310D01*
X194374185Y-110879060D01*
X194385973Y-110889223D01*
X194388596Y-110858049D01*
X194393104Y-110829709D01*
X194415654Y-110786577D01*
X194428757Y-110766053D01*
X194403969Y-110760187D01*
X194383449Y-110764392D01*
X194353747Y-110791839D01*
X194350941Y-110816360D01*
X194157191Y-110816360D01*
X194175693Y-110801653D01*
X194224330Y-110772721D01*
X194240061Y-110763857D01*
X194283751Y-110733935D01*
X194301299Y-110712742D01*
X194319611Y-110699767D01*
X194364921Y-110694213D01*
X194409675Y-110686692D01*
X194442611Y-110657549D01*
X194457035Y-110635442D01*
X194481215Y-110645419D01*
X194491987Y-110665961D01*
X194493451Y-110714502D01*
X194485226Y-110766053D01*
X194480494Y-110795708D01*
G37*
G36*
X198290761Y-110793258D02*
G01*
X198309736Y-110824777D01*
X198309744Y-110824863D01*
X198311865Y-110849172D01*
X198285734Y-110868002D01*
X198259352Y-110877503D01*
X198196060Y-110891146D01*
X198119228Y-110901402D01*
X198117543Y-110901564D01*
X198009558Y-110922552D01*
X197933798Y-110959942D01*
X197874893Y-111006479D01*
X197861702Y-110910822D01*
X197854028Y-110862678D01*
X197848525Y-110850781D01*
X197845209Y-110879722D01*
X197830077Y-110937401D01*
X197794089Y-110995177D01*
X197780367Y-111009142D01*
X197739504Y-111040555D01*
X197717249Y-111040315D01*
X197718654Y-111007590D01*
X197721903Y-110996154D01*
X197735628Y-110941622D01*
X197751256Y-110873549D01*
X197774155Y-110804170D01*
X197937201Y-110804170D01*
X197938759Y-110828740D01*
X197955365Y-110864739D01*
X197985995Y-110861148D01*
X198006382Y-110838455D01*
X198149784Y-110838455D01*
X198150356Y-110840650D01*
X198171776Y-110848153D01*
X198177803Y-110847258D01*
X198193767Y-110824863D01*
X198192040Y-110816909D01*
X198171776Y-110815166D01*
X198165194Y-110819679D01*
X198149784Y-110838455D01*
X198006382Y-110838455D01*
X198025476Y-110817201D01*
X198042774Y-110788962D01*
X198047667Y-110764821D01*
X198026207Y-110751227D01*
X197977472Y-110738869D01*
X197946255Y-110753882D01*
X197937201Y-110804170D01*
X197774155Y-110804170D01*
X197774892Y-110801937D01*
X197831176Y-110720102D01*
X197906746Y-110670950D01*
X197994839Y-110658243D01*
X198088695Y-110685744D01*
X198099752Y-110691359D01*
X198146953Y-110712810D01*
X198171776Y-110719875D01*
X198198026Y-110720620D01*
X198247115Y-110746426D01*
X198264259Y-110764821D01*
X198290761Y-110793258D01*
G37*
G36*
X195960586Y-109611863D02*
G01*
X195928436Y-109669370D01*
X195879758Y-109732493D01*
X195823762Y-109789447D01*
X195769655Y-109828445D01*
X195768263Y-109829167D01*
X195698618Y-109859469D01*
X195631776Y-109880344D01*
X195562664Y-109888167D01*
X195462822Y-109867372D01*
X195376039Y-109805026D01*
X195301437Y-109700653D01*
X195280816Y-109661269D01*
X195257478Y-109605187D01*
X195242876Y-109544806D01*
X195234199Y-109466900D01*
X195233112Y-109445680D01*
X195299929Y-109445680D01*
X195300159Y-109452515D01*
X195317668Y-109568883D01*
X195357086Y-109673708D01*
X195413069Y-109756307D01*
X195480270Y-109805998D01*
X195525873Y-109823645D01*
X195574557Y-109833415D01*
X195625468Y-109826600D01*
X195697750Y-109802930D01*
X195720512Y-109794763D01*
X195768548Y-109777812D01*
X195789419Y-109770908D01*
X195799624Y-109759895D01*
X195823625Y-109722499D01*
X195851672Y-109673392D01*
X195874957Y-109628155D01*
X195884676Y-109602370D01*
X195867049Y-109581648D01*
X195823555Y-109559227D01*
X195814943Y-109555994D01*
X195778857Y-109546171D01*
X195767420Y-109561309D01*
X195771140Y-109610735D01*
X195772255Y-109639285D01*
X195751441Y-109711768D01*
X195702199Y-109763327D01*
X195634219Y-109789415D01*
X195557190Y-109785485D01*
X195480802Y-109746989D01*
X195443318Y-109706759D01*
X195420255Y-109637302D01*
X195436229Y-109565325D01*
X195490839Y-109500648D01*
X195558821Y-109447444D01*
X195436085Y-109397630D01*
X195382848Y-109373323D01*
X195338274Y-109345041D01*
X195327519Y-109324889D01*
X195331464Y-109316153D01*
X195319248Y-109315832D01*
X195311047Y-109329586D01*
X195302101Y-109377876D01*
X195299929Y-109445680D01*
X195233112Y-109445680D01*
X195228632Y-109358239D01*
X195226786Y-109289161D01*
X195227154Y-109208426D01*
X195230612Y-109153257D01*
X195236826Y-109132828D01*
X195247771Y-109138538D01*
X195281965Y-109169399D01*
X195326673Y-109218076D01*
X195377672Y-109267214D01*
X195488505Y-109342615D01*
X195636770Y-109417751D01*
X195818601Y-109490485D01*
X195891506Y-109520810D01*
X195945104Y-109551079D01*
X195967815Y-109574829D01*
X195962439Y-109602370D01*
X195960586Y-109611863D01*
G37*
G36*
X197107723Y-109522842D02*
G01*
X197072475Y-109653920D01*
X197006396Y-109758003D01*
X196907274Y-109839617D01*
X196840421Y-109865879D01*
X196748014Y-109879357D01*
X196654945Y-109876080D01*
X196581455Y-109855087D01*
X196575467Y-109851765D01*
X196519967Y-109808974D01*
X196465264Y-109749380D01*
X196417454Y-109682529D01*
X196382632Y-109617965D01*
X196375984Y-109595692D01*
X196448290Y-109595692D01*
X196469383Y-109644397D01*
X196471033Y-109647756D01*
X196515958Y-109711336D01*
X196573760Y-109763812D01*
X196585746Y-109771629D01*
X196681784Y-109816897D01*
X196772147Y-109823051D01*
X196867672Y-109791098D01*
X196902502Y-109770431D01*
X196980830Y-109691640D01*
X197031936Y-109587094D01*
X197050217Y-109466751D01*
X197050103Y-109448110D01*
X197045283Y-109400639D01*
X197026500Y-109379800D01*
X196984449Y-109381195D01*
X196909825Y-109400431D01*
X196848977Y-109420631D01*
X196804585Y-109441082D01*
X196787081Y-109456564D01*
X196803914Y-109462698D01*
X196825421Y-109467242D01*
X196870080Y-109502091D01*
X196904491Y-109559153D01*
X196918269Y-109623800D01*
X196904320Y-109690635D01*
X196858797Y-109750623D01*
X196792221Y-109785774D01*
X196715561Y-109790721D01*
X196639788Y-109760094D01*
X196592758Y-109706051D01*
X196577384Y-109631202D01*
X196600262Y-109548986D01*
X196604661Y-109540463D01*
X196623185Y-109501243D01*
X196619233Y-109492048D01*
X196591213Y-109505175D01*
X196551728Y-109524406D01*
X196491000Y-109550070D01*
X196478593Y-109554859D01*
X196450180Y-109570994D01*
X196448290Y-109595692D01*
X196375984Y-109595692D01*
X196366894Y-109565236D01*
X196376337Y-109533885D01*
X196385734Y-109528459D01*
X196431485Y-109507262D01*
X196502656Y-109477260D01*
X196588399Y-109443100D01*
X196602388Y-109437651D01*
X196716375Y-109392098D01*
X196836962Y-109342337D01*
X196940261Y-109298206D01*
X196960619Y-109289303D01*
X197040791Y-109254814D01*
X197105738Y-109227730D01*
X197142976Y-109213280D01*
X197150600Y-109211053D01*
X197186074Y-109213537D01*
X197191117Y-109236066D01*
X197160790Y-109264446D01*
X197153242Y-109268864D01*
X197130122Y-109293889D01*
X197118695Y-109338179D01*
X197115226Y-109413991D01*
X197111589Y-109466751D01*
X197107723Y-109522842D01*
G37*
G36*
X196923811Y-110342634D02*
G01*
X196909848Y-110381173D01*
X196893817Y-110425420D01*
X196878418Y-110467922D01*
X196820484Y-110604834D01*
X196792380Y-110664224D01*
X196755251Y-110742684D01*
X196687962Y-110870786D01*
X196623861Y-110978457D01*
X196578680Y-111040586D01*
X196568191Y-111055009D01*
X196528205Y-111102033D01*
X196486103Y-111153654D01*
X196462923Y-111184836D01*
X196436816Y-111216049D01*
X196367629Y-111266514D01*
X196281442Y-111306478D01*
X196195096Y-111327002D01*
X196163896Y-111330385D01*
X196109907Y-111338361D01*
X196084431Y-111345391D01*
X196047060Y-111355717D01*
X195985166Y-111344372D01*
X195911659Y-111314893D01*
X195838238Y-111272024D01*
X195776600Y-111220512D01*
X195761540Y-111203293D01*
X195713216Y-111138131D01*
X195653557Y-111048430D01*
X195588865Y-110944489D01*
X195525444Y-110836609D01*
X195469596Y-110735089D01*
X195467624Y-110731101D01*
X195558705Y-110731101D01*
X195570269Y-110767086D01*
X195597951Y-110823406D01*
X195637619Y-110893313D01*
X195685138Y-110970055D01*
X195736377Y-111046883D01*
X195787202Y-111117048D01*
X195833480Y-111173799D01*
X195871077Y-111210386D01*
X195879167Y-111216342D01*
X195940303Y-111252658D01*
X195994633Y-111273113D01*
X195996751Y-111273506D01*
X196083534Y-111275510D01*
X196186504Y-111258783D01*
X196285689Y-111227976D01*
X196361120Y-111187740D01*
X196364150Y-111185425D01*
X196421497Y-111136969D01*
X196453670Y-111092395D01*
X196462722Y-111040586D01*
X196450705Y-110970428D01*
X196436014Y-110923261D01*
X196547202Y-110923261D01*
X196554034Y-110938719D01*
X196575540Y-110923969D01*
X196606428Y-110883510D01*
X196641410Y-110821843D01*
X196659779Y-110783836D01*
X196690459Y-110707908D01*
X196696301Y-110664224D01*
X196677846Y-110650231D01*
X196661978Y-110640058D01*
X196642240Y-110602666D01*
X196642199Y-110602536D01*
X196625905Y-110574197D01*
X196609353Y-110588346D01*
X196593241Y-110643506D01*
X196578267Y-110738196D01*
X196571822Y-110786420D01*
X196561115Y-110854731D01*
X196552339Y-110897633D01*
X196547202Y-110923261D01*
X196436014Y-110923261D01*
X196419675Y-110870803D01*
X196408801Y-110839179D01*
X196381524Y-110765085D01*
X196359876Y-110713567D01*
X196347783Y-110694270D01*
X196347037Y-110694424D01*
X196332423Y-110716998D01*
X196309521Y-110770678D01*
X196281851Y-110845161D01*
X196252930Y-110930143D01*
X196226278Y-111015318D01*
X196205414Y-111090384D01*
X196193856Y-111145036D01*
X196191460Y-111159785D01*
X196174738Y-111212854D01*
X196152552Y-111233001D01*
X196134865Y-111220699D01*
X196105876Y-111171473D01*
X196072453Y-111090638D01*
X196037190Y-110984655D01*
X196002682Y-110859982D01*
X195978564Y-110769398D01*
X195958815Y-110713145D01*
X195941368Y-110692486D01*
X195922871Y-110703593D01*
X195899974Y-110742637D01*
X195883005Y-110780704D01*
X195853942Y-110859308D01*
X195827860Y-110943499D01*
X195808779Y-111009126D01*
X195793888Y-111044380D01*
X195780199Y-111049109D01*
X195762943Y-111029643D01*
X195758281Y-111021841D01*
X195740988Y-110966611D01*
X195734621Y-110898391D01*
X195734646Y-110895585D01*
X195728391Y-110820543D01*
X195711914Y-110738548D01*
X195689462Y-110666555D01*
X195665281Y-110621518D01*
X195663353Y-110619984D01*
X195644118Y-110630532D01*
X195621403Y-110670719D01*
X195618697Y-110676987D01*
X195594637Y-110716124D01*
X195574245Y-110725623D01*
X195567393Y-110722201D01*
X195558705Y-110731101D01*
X195467624Y-110731101D01*
X195427625Y-110650231D01*
X195414134Y-110618192D01*
X195383150Y-110536599D01*
X195368792Y-110495856D01*
X195449500Y-110495856D01*
X195455448Y-110529248D01*
X195482568Y-110588583D01*
X195530086Y-110683218D01*
X195531450Y-110580057D01*
X195531162Y-110543436D01*
X195522955Y-110484375D01*
X195502176Y-110462740D01*
X195466388Y-110474579D01*
X195463069Y-110476750D01*
X195449500Y-110495856D01*
X195368792Y-110495856D01*
X195347717Y-110436053D01*
X195313148Y-110331356D01*
X195282409Y-110243436D01*
X195359371Y-110243436D01*
X195368204Y-110276378D01*
X195381655Y-110318713D01*
X195403259Y-110380837D01*
X195416587Y-110412248D01*
X195427811Y-110428581D01*
X195461796Y-110415406D01*
X195473764Y-110401346D01*
X195556479Y-110401346D01*
X195556876Y-110404049D01*
X195566821Y-110439902D01*
X195585298Y-110494414D01*
X195612444Y-110569507D01*
X195641564Y-110499207D01*
X195644814Y-110491178D01*
X195650448Y-110474275D01*
X195730629Y-110474275D01*
X195736406Y-110542093D01*
X195741397Y-110580057D01*
X195742092Y-110585346D01*
X195757727Y-110666289D01*
X195775616Y-110727200D01*
X195802245Y-110793174D01*
X195870950Y-110645265D01*
X195873642Y-110639508D01*
X195911023Y-110567931D01*
X195941936Y-110523571D01*
X195961646Y-110513316D01*
X195973209Y-110534276D01*
X195993358Y-110590510D01*
X196017939Y-110672169D01*
X196043960Y-110769930D01*
X196066244Y-110855263D01*
X196090547Y-110940341D01*
X196110458Y-111001536D01*
X196123093Y-111029392D01*
X196125263Y-111030827D01*
X196143207Y-111016817D01*
X196167293Y-110970977D01*
X196194133Y-110902704D01*
X196220337Y-110821396D01*
X196242516Y-110736453D01*
X196257282Y-110657270D01*
X196271253Y-110575729D01*
X196289608Y-110525669D01*
X196313179Y-110518682D01*
X196344398Y-110554289D01*
X196385698Y-110632011D01*
X196420341Y-110707002D01*
X196450279Y-110776658D01*
X196467348Y-110822321D01*
X196473531Y-110841201D01*
X196486347Y-110861530D01*
X196498035Y-110846569D01*
X196509899Y-110793450D01*
X196523242Y-110699305D01*
X196535835Y-110618258D01*
X196550524Y-110549828D01*
X196747501Y-110549828D01*
X196752998Y-110568601D01*
X196764334Y-110560358D01*
X196783255Y-110512593D01*
X196794735Y-110473723D01*
X196802386Y-110425420D01*
X196798981Y-110398811D01*
X196786258Y-110401195D01*
X196765953Y-110439871D01*
X196750325Y-110496708D01*
X196747501Y-110549828D01*
X196550524Y-110549828D01*
X196552589Y-110540209D01*
X196568995Y-110488399D01*
X196586447Y-110454271D01*
X196605611Y-110444142D01*
X196635421Y-110466055D01*
X196660165Y-110485813D01*
X196679348Y-110482622D01*
X196697797Y-110442784D01*
X196707698Y-110416608D01*
X196717101Y-110381173D01*
X196701726Y-110374105D01*
X196654590Y-110386272D01*
X196635508Y-110391544D01*
X196511478Y-110418687D01*
X196493830Y-110421348D01*
X196370569Y-110439933D01*
X196222756Y-110454707D01*
X196078017Y-110462435D01*
X195946328Y-110462545D01*
X195837666Y-110454461D01*
X195762006Y-110437611D01*
X195746834Y-110433302D01*
X195733372Y-110441005D01*
X195730629Y-110474275D01*
X195650448Y-110474275D01*
X195660390Y-110444448D01*
X195662225Y-110421348D01*
X195648013Y-110412554D01*
X195609722Y-110399924D01*
X195572514Y-110394921D01*
X195556479Y-110401346D01*
X195473764Y-110401346D01*
X195486631Y-110386229D01*
X195472848Y-110344356D01*
X195420246Y-110285990D01*
X195392057Y-110259614D01*
X195365065Y-110237432D01*
X195359371Y-110243436D01*
X195282409Y-110243436D01*
X195271820Y-110213151D01*
X195228273Y-110116977D01*
X195188887Y-110061962D01*
X195162769Y-110036737D01*
X195152230Y-110017341D01*
X195172668Y-110012482D01*
X195178724Y-110012633D01*
X195233259Y-110022348D01*
X195291535Y-110042605D01*
X195337946Y-110066932D01*
X195356884Y-110088859D01*
X195366292Y-110118293D01*
X195404086Y-110171051D01*
X195461154Y-110229059D01*
X195527038Y-110282020D01*
X195591278Y-110319636D01*
X195606032Y-110325638D01*
X195684127Y-110349567D01*
X195783510Y-110372054D01*
X195869979Y-110386229D01*
X195886339Y-110388911D01*
X195915994Y-110392599D01*
X195997952Y-110400583D01*
X196071715Y-110402474D01*
X196150115Y-110397653D01*
X196245986Y-110385497D01*
X196372161Y-110365385D01*
X196449081Y-110352046D01*
X196543838Y-110332654D01*
X196808312Y-110332654D01*
X196808884Y-110334849D01*
X196830304Y-110342352D01*
X196836331Y-110341457D01*
X196852295Y-110319063D01*
X196850568Y-110311108D01*
X196830304Y-110309365D01*
X196823723Y-110313878D01*
X196808312Y-110332654D01*
X196543838Y-110332654D01*
X196581933Y-110324858D01*
X196683925Y-110295850D01*
X196763856Y-110261615D01*
X196830527Y-110218747D01*
X196892738Y-110163838D01*
X196913069Y-110143499D01*
X196943921Y-110107826D01*
X196946958Y-110088318D01*
X196925725Y-110075478D01*
X196910347Y-110069310D01*
X196897326Y-110060633D01*
X196925234Y-110058010D01*
X196936579Y-110056060D01*
X196985247Y-110034816D01*
X197041703Y-109998102D01*
X197068463Y-109979380D01*
X197118799Y-109956624D01*
X197143301Y-109963089D01*
X197136854Y-109994187D01*
X197094345Y-110045330D01*
X197079299Y-110060270D01*
X197042820Y-110102188D01*
X197028226Y-110128656D01*
X197028209Y-110129262D01*
X197015895Y-110160670D01*
X196987588Y-110207009D01*
X196955948Y-110259545D01*
X196934067Y-110309365D01*
X196931077Y-110319063D01*
X196923811Y-110342634D01*
G37*
G36*
X197463895Y-104063824D02*
G01*
X197475769Y-104080341D01*
X197490880Y-104107806D01*
X197541902Y-104200538D01*
X197558769Y-104236887D01*
X197583809Y-104313728D01*
X197597068Y-104401711D01*
X197598906Y-104508737D01*
X197589685Y-104642709D01*
X197569765Y-104811529D01*
X197565955Y-104839393D01*
X197547613Y-104948222D01*
X197523653Y-105038853D01*
X197488263Y-105129836D01*
X197435631Y-105239724D01*
X197405610Y-105299628D01*
X197369584Y-105375582D01*
X197348497Y-105432388D01*
X197339272Y-105482612D01*
X197338832Y-105538819D01*
X197344100Y-105613577D01*
X197344265Y-105615614D01*
X197371192Y-105833272D01*
X197414426Y-106014252D01*
X197475448Y-106163247D01*
X197555735Y-106284949D01*
X197562011Y-106293351D01*
X197589700Y-106364788D01*
X197596263Y-106457077D01*
X197580240Y-106554176D01*
X197577130Y-106564734D01*
X197567070Y-106605343D01*
X197575406Y-106611331D01*
X197607082Y-106589136D01*
X197608441Y-106588095D01*
X197671420Y-106522672D01*
X197731778Y-106431126D01*
X197778507Y-106330091D01*
X197787229Y-106303229D01*
X197795605Y-106236309D01*
X197781468Y-106158299D01*
X197780762Y-106155701D01*
X197767501Y-106095615D01*
X197770862Y-106061245D01*
X197792177Y-106037547D01*
X197821879Y-106020288D01*
X197878396Y-106015708D01*
X197925279Y-106045991D01*
X197955598Y-106105061D01*
X197962425Y-106186840D01*
X197959713Y-106205068D01*
X197944048Y-106266531D01*
X197917864Y-106349805D01*
X197884590Y-106445792D01*
X197847656Y-106545398D01*
X197810493Y-106639526D01*
X197776531Y-106719080D01*
X197749200Y-106774963D01*
X197731930Y-106798080D01*
X197723640Y-106803044D01*
X197709957Y-106834995D01*
X197706118Y-106853687D01*
X197681440Y-106893638D01*
X197663053Y-106920510D01*
X197632890Y-106978730D01*
X197600997Y-107051412D01*
X197585240Y-107093235D01*
X197563223Y-107173839D01*
X197551729Y-107264200D01*
X197548036Y-107381282D01*
X197549799Y-107491603D01*
X197557060Y-107602742D01*
X197568982Y-107690696D01*
X197584587Y-107748544D01*
X197602896Y-107769365D01*
X197607388Y-107769983D01*
X197621992Y-107791356D01*
X197628812Y-107810573D01*
X197659294Y-107849839D01*
X197699245Y-107885658D01*
X197731949Y-107901313D01*
X197737124Y-107901853D01*
X197753940Y-107920493D01*
X197755725Y-107924688D01*
X197785033Y-107940269D01*
X197838901Y-107953260D01*
X197919736Y-107981484D01*
X198004353Y-108040573D01*
X198048312Y-108084446D01*
X198073835Y-108125263D01*
X198087051Y-108178484D01*
X198094446Y-108259897D01*
X198095469Y-108276852D01*
X198095347Y-108370702D01*
X198080990Y-108455426D01*
X198048718Y-108554745D01*
X198047387Y-108558341D01*
X198018963Y-108637111D01*
X197996694Y-108702378D01*
X197985298Y-108740331D01*
X197985111Y-108741151D01*
X197969164Y-108786292D01*
X197942797Y-108843207D01*
X197929163Y-108876530D01*
X197911045Y-108951349D01*
X197900423Y-109036673D01*
X197898055Y-109119201D01*
X197904702Y-109185630D01*
X197921123Y-109222659D01*
X197935458Y-109238718D01*
X197940266Y-109265748D01*
X197937833Y-109272357D01*
X197950859Y-109297143D01*
X197961511Y-109300486D01*
X197979439Y-109283307D01*
X197986678Y-109241583D01*
X197982117Y-109188261D01*
X197964647Y-109136289D01*
X197958732Y-109124520D01*
X197953718Y-109109859D01*
X198019728Y-109109859D01*
X198037099Y-109138692D01*
X198039995Y-109141534D01*
X198056105Y-109152074D01*
X198049409Y-109126382D01*
X198038442Y-109105859D01*
X198022083Y-109099259D01*
X198019728Y-109109859D01*
X197953718Y-109109859D01*
X197935250Y-109055858D01*
X197995845Y-109055858D01*
X198006841Y-109066854D01*
X198017836Y-109055858D01*
X198006841Y-109044863D01*
X197995845Y-109055858D01*
X197935250Y-109055858D01*
X197932906Y-109049005D01*
X197941885Y-108995836D01*
X197986252Y-108960259D01*
X198045929Y-108951497D01*
X198089151Y-108979662D01*
X198105802Y-109038187D01*
X198107747Y-109051565D01*
X198109433Y-109055858D01*
X198127684Y-109102318D01*
X198156639Y-109152074D01*
X198162218Y-109161660D01*
X198165240Y-109166149D01*
X198199005Y-109227439D01*
X198215530Y-109290582D01*
X198214797Y-109365224D01*
X198196790Y-109461010D01*
X198161493Y-109587585D01*
X198150739Y-109627336D01*
X198133754Y-109713692D01*
X198127087Y-109785507D01*
X198127347Y-109885942D01*
X198128423Y-109987480D01*
X198130691Y-110055748D01*
X198134544Y-110096898D01*
X198140373Y-110117078D01*
X198148570Y-110122438D01*
X198164789Y-110111319D01*
X198184253Y-110072958D01*
X198187265Y-110064153D01*
X198220251Y-110011739D01*
X198263492Y-109990827D01*
X198266081Y-109991194D01*
X198275467Y-110002505D01*
X198285386Y-110035114D01*
X198297690Y-110096443D01*
X198314234Y-110193910D01*
X198332618Y-110253236D01*
X198357635Y-110275902D01*
X198381313Y-110260145D01*
X198385705Y-110243391D01*
X198435672Y-110243391D01*
X198446667Y-110254386D01*
X198457663Y-110243391D01*
X198446667Y-110232395D01*
X198435672Y-110243391D01*
X198385705Y-110243391D01*
X198395794Y-110204906D01*
X198413175Y-110146845D01*
X198446093Y-110123747D01*
X198484749Y-110138887D01*
X198519560Y-110193175D01*
X198521425Y-110197814D01*
X198540519Y-110243391D01*
X198545327Y-110254867D01*
X198563543Y-110294569D01*
X198584424Y-110315046D01*
X198609567Y-110311748D01*
X198616136Y-110282525D01*
X198624055Y-110263616D01*
X198665617Y-110254386D01*
X198698214Y-110257785D01*
X198717332Y-110278616D01*
X198721559Y-110330058D01*
X198725294Y-110376000D01*
X198738394Y-110412734D01*
X198755774Y-110418118D01*
X198771979Y-110386087D01*
X198785777Y-110361171D01*
X198826268Y-110342352D01*
X198847797Y-110346825D01*
X198863315Y-110367641D01*
X198873577Y-110414024D01*
X198881931Y-110495171D01*
X198891318Y-110576315D01*
X198904427Y-110648036D01*
X198918108Y-110691647D01*
X198927921Y-110722326D01*
X198937691Y-110788757D01*
X198939830Y-110833545D01*
X198941473Y-110867952D01*
X198939401Y-110924749D01*
X198915906Y-111046788D01*
X198866997Y-111135774D01*
X198793618Y-111189653D01*
X198785167Y-111193400D01*
X198739980Y-111222558D01*
X198721559Y-111251178D01*
X198714201Y-111280953D01*
X198681644Y-111311004D01*
X198617417Y-111336931D01*
X198515397Y-111362024D01*
X198509894Y-111363189D01*
X198401559Y-111392980D01*
X198331204Y-111430113D01*
X198293154Y-111479013D01*
X198281732Y-111544102D01*
X198273958Y-111598227D01*
X198237750Y-111644945D01*
X198211729Y-111668136D01*
X198210785Y-111668977D01*
X198193767Y-111706438D01*
X198193294Y-111713865D01*
X198169628Y-111768755D01*
X198118941Y-111826464D01*
X198053319Y-111875534D01*
X197984849Y-111904507D01*
X197929728Y-111915395D01*
X197809405Y-111925558D01*
X197711177Y-111913991D01*
X197643430Y-111881266D01*
X197621075Y-111864100D01*
X197583507Y-111853660D01*
X197556700Y-111881590D01*
X197536367Y-111950669D01*
X197531231Y-111968526D01*
X197488936Y-112036806D01*
X197419181Y-112101569D01*
X197334245Y-112153044D01*
X197246407Y-112181457D01*
X197227741Y-112184612D01*
X197179507Y-112194819D01*
X197160174Y-112202431D01*
X197162575Y-112209138D01*
X197187910Y-112239084D01*
X197228977Y-112276358D01*
X197270863Y-112308131D01*
X197298657Y-112321573D01*
X197304432Y-112322196D01*
X197339684Y-112349119D01*
X197374512Y-112409173D01*
X197378692Y-112420534D01*
X197405431Y-112493211D01*
X197428955Y-112592087D01*
X197441599Y-112696654D01*
X197443160Y-112720512D01*
X197450957Y-112797356D01*
X197460780Y-112851117D01*
X197470878Y-112871356D01*
X197473019Y-112871824D01*
X197485110Y-112896256D01*
X197490044Y-112946351D01*
X197485609Y-112985475D01*
X197458061Y-113052174D01*
X197400729Y-113134338D01*
X197359420Y-113191131D01*
X197311991Y-113267955D01*
X197281889Y-113331012D01*
X197252365Y-113414694D01*
X197388978Y-113409952D01*
X197452759Y-113405417D01*
X197525617Y-113394394D01*
X197572346Y-113380188D01*
X197595568Y-113369773D01*
X197648611Y-113356998D01*
X197691994Y-113358391D01*
X197709957Y-113374593D01*
X197723447Y-113390545D01*
X197762316Y-113403587D01*
X197805836Y-113406720D01*
X197832733Y-113396199D01*
X197851554Y-113384321D01*
X197896721Y-113377157D01*
X197905723Y-113377411D01*
X197941546Y-113392022D01*
X197955899Y-113437633D01*
X197956815Y-113445159D01*
X197966606Y-113480072D01*
X197992462Y-113492618D01*
X198048093Y-113490688D01*
X198133329Y-113483267D01*
X198118220Y-113633632D01*
X198113723Y-113677813D01*
X198102911Y-113761783D01*
X198087463Y-113818213D01*
X198060946Y-113858671D01*
X198016925Y-113894726D01*
X197948967Y-113937945D01*
X197815341Y-114020423D01*
X197151470Y-114023162D01*
X197016580Y-114023643D01*
X196854023Y-114023794D01*
X196726916Y-114023061D01*
X196630203Y-114021179D01*
X196558830Y-114017885D01*
X196507740Y-114012916D01*
X196471878Y-114006007D01*
X196446188Y-113996896D01*
X196425614Y-113985319D01*
X196423437Y-113983890D01*
X196390362Y-113958717D01*
X196373575Y-113930240D01*
X196369010Y-113884962D01*
X196372599Y-113809388D01*
X196375396Y-113776315D01*
X196396514Y-113672482D01*
X196438702Y-113586075D01*
X196451268Y-113565768D01*
X196492649Y-113487129D01*
X196515014Y-113432135D01*
X196566408Y-113432135D01*
X196577403Y-113443131D01*
X196588399Y-113432135D01*
X196577403Y-113421140D01*
X196566408Y-113432135D01*
X196515014Y-113432135D01*
X196522303Y-113414213D01*
X196542125Y-113362756D01*
X196567028Y-113338480D01*
X196607083Y-113336433D01*
X196634437Y-113338108D01*
X196686206Y-113326526D01*
X196712822Y-113286371D01*
X196720347Y-113210924D01*
X196721350Y-113182515D01*
X196729601Y-113132898D01*
X196743461Y-113113261D01*
X196753317Y-113110582D01*
X196779642Y-113077559D01*
X196801283Y-113015714D01*
X196815073Y-112936243D01*
X196817845Y-112850338D01*
X196813210Y-112782723D01*
X196800273Y-112739289D01*
X196769388Y-112707855D01*
X196710726Y-112672060D01*
X196666982Y-112645800D01*
X196577522Y-112581514D01*
X196520472Y-112522814D01*
X196500434Y-112474031D01*
X196485877Y-112436280D01*
X196440722Y-112420893D01*
X196370831Y-112434007D01*
X196366668Y-112435345D01*
X196304623Y-112444862D01*
X196211966Y-112448262D01*
X196100373Y-112446012D01*
X195981518Y-112438575D01*
X195867074Y-112426419D01*
X195768716Y-112410007D01*
X195697379Y-112398351D01*
X195627450Y-112400997D01*
X195593003Y-112426682D01*
X195592536Y-112475968D01*
X195595826Y-112542617D01*
X195563969Y-112623773D01*
X195492152Y-112713961D01*
X195486839Y-112719578D01*
X195414186Y-112820763D01*
X195359016Y-112952692D01*
X195355612Y-112963411D01*
X195329498Y-113067249D01*
X195327748Y-113141551D01*
X195351475Y-113193542D01*
X195401792Y-113230451D01*
X195412103Y-113235979D01*
X195440690Y-113261842D01*
X195457029Y-113305412D01*
X195466841Y-113379823D01*
X195468304Y-113395232D01*
X195480179Y-113469948D01*
X195503280Y-113528735D01*
X195545307Y-113586069D01*
X195613959Y-113656425D01*
X195620050Y-113662361D01*
X195662935Y-113712172D01*
X195682256Y-113762618D01*
X195686754Y-113835161D01*
X195678079Y-113923403D01*
X195651913Y-113972462D01*
X195641204Y-113978512D01*
X195587330Y-113993194D01*
X195501771Y-114006066D01*
X195393311Y-114015661D01*
X195388148Y-114015996D01*
X195262415Y-114027981D01*
X195165030Y-114044938D01*
X195103780Y-114065527D01*
X195082908Y-114075038D01*
X195022393Y-114090322D01*
X194934576Y-114098965D01*
X194811236Y-114101991D01*
X194747058Y-114101874D01*
X194655311Y-114098793D01*
X194587268Y-114090260D01*
X194529810Y-114074224D01*
X194469818Y-114048635D01*
X194440324Y-114034133D01*
X194379824Y-113995800D01*
X194336640Y-113947057D01*
X194295249Y-113872217D01*
X194276541Y-113831480D01*
X194241788Y-113716137D01*
X194243004Y-113611793D01*
X194279755Y-113508229D01*
X194288811Y-113491283D01*
X194329689Y-113437521D01*
X194373218Y-113420440D01*
X194378572Y-113420230D01*
X194434432Y-113404827D01*
X194480232Y-113373102D01*
X194499222Y-113336248D01*
X194512889Y-113319754D01*
X194554200Y-113311183D01*
X194564332Y-113311415D01*
X194600095Y-113324311D01*
X194609178Y-113366161D01*
X194609410Y-113376293D01*
X194622307Y-113412057D01*
X194664157Y-113421140D01*
X194674288Y-113421372D01*
X194710052Y-113434268D01*
X194719135Y-113476118D01*
X194725591Y-113511979D01*
X194752122Y-113531096D01*
X194767297Y-113528615D01*
X194785109Y-113509105D01*
X194793356Y-113496323D01*
X194829092Y-113487114D01*
X194862686Y-113481556D01*
X194869809Y-113457768D01*
X194844095Y-113409539D01*
X194832324Y-113390872D01*
X194782214Y-113281053D01*
X194752419Y-113161322D01*
X194748406Y-113052109D01*
X194766249Y-112915185D01*
X194794742Y-112769490D01*
X194829709Y-112660851D01*
X194872158Y-112585469D01*
X194892871Y-112557203D01*
X194937391Y-112475817D01*
X194949503Y-112410075D01*
X194927840Y-112365379D01*
X194906151Y-112331892D01*
X194895066Y-112276691D01*
X194892283Y-112248958D01*
X194868630Y-112207166D01*
X194812598Y-112166346D01*
X194774176Y-112143350D01*
X194676042Y-112080964D01*
X194609465Y-112030836D01*
X194568259Y-111987871D01*
X194546241Y-111946977D01*
X194524362Y-111884216D01*
X194435884Y-111926963D01*
X194376694Y-111948970D01*
X194272711Y-111968034D01*
X194163968Y-111970417D01*
X194065640Y-111956173D01*
X193992901Y-111925358D01*
X193975486Y-111911558D01*
X193918773Y-111833557D01*
X193890159Y-111723574D01*
X193889276Y-111580383D01*
X193898002Y-111505328D01*
X193915063Y-111443604D01*
X193941512Y-111409406D01*
X193944746Y-111407032D01*
X193967961Y-111385245D01*
X193964039Y-111362977D01*
X193931082Y-111324837D01*
X193874718Y-111283022D01*
X193806112Y-111256372D01*
X193799510Y-111254939D01*
X193728540Y-111221753D01*
X193653037Y-111161716D01*
X193585699Y-111086630D01*
X193539224Y-111008296D01*
X193516047Y-110929576D01*
X193509209Y-110832187D01*
X193553594Y-110832187D01*
X193553743Y-110837788D01*
X193569617Y-110905017D01*
X193604970Y-110980912D01*
X193650276Y-111048242D01*
X193696007Y-111089773D01*
X193730298Y-111114660D01*
X193739135Y-111136282D01*
X193740235Y-111142854D01*
X193768459Y-111161544D01*
X193822353Y-111181448D01*
X193878398Y-111205286D01*
X193956899Y-111252272D01*
X194031577Y-111308971D01*
X194036262Y-111313044D01*
X194093817Y-111365042D01*
X194122095Y-111397775D01*
X194125851Y-111418986D01*
X194109841Y-111436421D01*
X194071580Y-111459839D01*
X194050301Y-111455042D01*
X194052285Y-111414430D01*
X194050534Y-111401454D01*
X194030928Y-111419009D01*
X193995248Y-111469343D01*
X193969416Y-111513345D01*
X193939216Y-111580071D01*
X193927447Y-111629487D01*
X193927498Y-111634117D01*
X193944914Y-111723255D01*
X193987107Y-111807000D01*
X194044625Y-111866255D01*
X194091044Y-111888037D01*
X194185993Y-111902170D01*
X194289428Y-111890321D01*
X194386427Y-111854916D01*
X194462071Y-111798380D01*
X194478984Y-111780561D01*
X194500805Y-111769332D01*
X194527227Y-111782788D01*
X194571582Y-111824054D01*
X194588914Y-111841893D01*
X194620097Y-111884838D01*
X194620174Y-111909397D01*
X194619872Y-111909630D01*
X194618661Y-111933016D01*
X194656371Y-111971258D01*
X194733634Y-112024863D01*
X194851083Y-112094339D01*
X194913156Y-112129975D01*
X194973776Y-112169101D01*
X195007932Y-112201170D01*
X195023080Y-112233844D01*
X195026677Y-112274785D01*
X195026212Y-112296374D01*
X195017145Y-112314085D01*
X194988529Y-112296776D01*
X194972317Y-112284283D01*
X194961248Y-112279109D01*
X194980480Y-112305386D01*
X194986394Y-112314134D01*
X195002428Y-112377439D01*
X194994675Y-112459382D01*
X194965772Y-112546387D01*
X194918360Y-112624877D01*
X194912631Y-112632152D01*
X194874778Y-112691860D01*
X194851972Y-112760224D01*
X194838060Y-112854863D01*
X194837872Y-112856699D01*
X194827711Y-112930622D01*
X194815579Y-112983252D01*
X194804063Y-113003304D01*
X194787407Y-113012952D01*
X194783450Y-113056492D01*
X194800887Y-113132219D01*
X194838917Y-113236975D01*
X194896735Y-113367607D01*
X194905781Y-113388147D01*
X194929526Y-113459674D01*
X194939048Y-113518612D01*
X194937755Y-113546909D01*
X194923864Y-113571324D01*
X194884837Y-113569843D01*
X194847744Y-113567758D01*
X194824255Y-113578594D01*
X194816462Y-113584056D01*
X194776083Y-113588179D01*
X194714301Y-113583509D01*
X194675476Y-113577807D01*
X194634464Y-113567380D01*
X194623880Y-113551213D01*
X194635139Y-113522715D01*
X194648755Y-113495568D01*
X194646300Y-113489271D01*
X194616144Y-113514603D01*
X194577767Y-113538720D01*
X194522450Y-113553088D01*
X194489394Y-113550733D01*
X194485716Y-113535729D01*
X194509445Y-113496201D01*
X194513366Y-113490113D01*
X194535836Y-113444236D01*
X194529379Y-113427896D01*
X194497864Y-113441692D01*
X194445160Y-113486225D01*
X194421207Y-113509169D01*
X194389001Y-113536604D01*
X194378323Y-113535723D01*
X194382980Y-113508772D01*
X194386462Y-113493399D01*
X194385218Y-113469151D01*
X194369270Y-113477620D01*
X194343411Y-113514322D01*
X194312433Y-113574774D01*
X194271945Y-113664559D01*
X194334844Y-113796158D01*
X194362529Y-113851069D01*
X194400140Y-113907437D01*
X194445755Y-113946413D01*
X194513094Y-113982327D01*
X194606363Y-114014232D01*
X194723351Y-114033869D01*
X194844145Y-114038292D01*
X194953908Y-114027016D01*
X195037806Y-113999553D01*
X195039359Y-113998731D01*
X195102104Y-113978254D01*
X195200693Y-113961459D01*
X195327337Y-113949687D01*
X195372901Y-113946337D01*
X195473256Y-113935255D01*
X195547196Y-113921483D01*
X195585939Y-113906488D01*
X195597389Y-113895394D01*
X195619621Y-113840868D01*
X195604596Y-113777323D01*
X195553798Y-113713659D01*
X195479561Y-113635520D01*
X195420173Y-113529851D01*
X195400867Y-113415739D01*
X195400224Y-113393600D01*
X195390113Y-113329301D01*
X195370892Y-113291692D01*
X195359616Y-113283477D01*
X195347005Y-113287344D01*
X195349080Y-113327484D01*
X195350152Y-113336685D01*
X195347718Y-113353883D01*
X195332514Y-113335151D01*
X195302368Y-113278196D01*
X195262474Y-113174977D01*
X195249850Y-113051660D01*
X195279042Y-112931813D01*
X195284446Y-112918231D01*
X195299087Y-112868763D01*
X195298635Y-112842428D01*
X195296924Y-112832468D01*
X195313156Y-112794551D01*
X195348945Y-112740226D01*
X195397263Y-112679618D01*
X195451079Y-112622852D01*
X195483311Y-112588857D01*
X195502594Y-112555972D01*
X195490298Y-112545746D01*
X195446733Y-112562469D01*
X195413800Y-112575506D01*
X195403869Y-112564203D01*
X195420152Y-112524123D01*
X195463085Y-112452328D01*
X195473314Y-112436295D01*
X195520591Y-112367109D01*
X195561296Y-112327151D01*
X195607768Y-112311666D01*
X195672344Y-112315902D01*
X195767362Y-112335106D01*
X195800639Y-112341877D01*
X195948470Y-112362357D01*
X196106733Y-112371838D01*
X196257918Y-112369743D01*
X196384515Y-112355492D01*
X196419090Y-112350015D01*
X196481773Y-112351442D01*
X196534681Y-112375355D01*
X196536131Y-112376316D01*
X196572169Y-112410888D01*
X196580717Y-112441821D01*
X196579007Y-112453579D01*
X196601833Y-112495940D01*
X196664913Y-112549826D01*
X196766966Y-112614051D01*
X196789119Y-112627732D01*
X196868094Y-112697600D01*
X196921000Y-112780226D01*
X196939592Y-112863684D01*
X196939167Y-112878799D01*
X196934067Y-112892070D01*
X196916508Y-112865858D01*
X196907710Y-112852030D01*
X196881350Y-112828145D01*
X196869420Y-112842028D01*
X196879385Y-112889021D01*
X196888027Y-112920014D01*
X196886861Y-112960942D01*
X196869603Y-113015324D01*
X196833492Y-113095585D01*
X196832133Y-113098442D01*
X196797799Y-113177541D01*
X196773155Y-113247092D01*
X196763457Y-113292336D01*
X196754338Y-113324274D01*
X196719102Y-113383550D01*
X196679626Y-113432135D01*
X196664496Y-113450756D01*
X196657572Y-113458241D01*
X196605084Y-113510738D01*
X196575616Y-113529890D01*
X196566408Y-113517578D01*
X196565323Y-113508520D01*
X196552260Y-113511785D01*
X196525793Y-113553936D01*
X196523603Y-113558036D01*
X196485128Y-113629556D01*
X196448958Y-113696031D01*
X196444112Y-113705120D01*
X196414264Y-113793781D01*
X196423650Y-113866546D01*
X196472015Y-113920936D01*
X196474576Y-113922582D01*
X196496340Y-113933822D01*
X196525138Y-113942506D01*
X196566249Y-113948915D01*
X196624951Y-113953332D01*
X196706520Y-113956040D01*
X196816235Y-113957320D01*
X196959374Y-113957454D01*
X197141214Y-113956726D01*
X197750866Y-113953524D01*
X197882840Y-113872065D01*
X197884676Y-113870930D01*
X197952037Y-113825907D01*
X198003146Y-113785621D01*
X198027069Y-113758670D01*
X198030328Y-113743620D01*
X198017584Y-113740170D01*
X198002539Y-113740907D01*
X197997283Y-113714863D01*
X198006430Y-113670128D01*
X198028832Y-113619062D01*
X198033765Y-113610324D01*
X198057482Y-113559928D01*
X198053608Y-113542202D01*
X198021975Y-113555606D01*
X197983815Y-113564326D01*
X197934263Y-113555604D01*
X197888312Y-113534543D01*
X197859271Y-113507354D01*
X197860450Y-113480246D01*
X197863390Y-113465436D01*
X197835052Y-113456967D01*
X197768543Y-113454861D01*
X197727746Y-113456290D01*
X197662841Y-113463631D01*
X197623753Y-113474962D01*
X197603015Y-113482814D01*
X197605606Y-113460245D01*
X197610432Y-113443542D01*
X197599915Y-113437523D01*
X197559862Y-113454057D01*
X197552712Y-113457264D01*
X197486954Y-113478933D01*
X197413074Y-113494466D01*
X197387691Y-113498012D01*
X197349347Y-113501709D01*
X197348302Y-113495378D01*
X197380087Y-113476598D01*
X197400103Y-113465240D01*
X197414113Y-113453417D01*
X197394443Y-113451405D01*
X197336105Y-113456981D01*
X197310745Y-113459843D01*
X197243775Y-113468335D01*
X197198659Y-113475370D01*
X197180238Y-113478025D01*
X197165529Y-113472331D01*
X197164055Y-113448486D01*
X197175948Y-113398599D01*
X197201340Y-113314783D01*
X197222624Y-113257630D01*
X197268741Y-113163974D01*
X197318882Y-113087412D01*
X197359784Y-113035497D01*
X197403986Y-112974876D01*
X197420592Y-112943967D01*
X197408675Y-112944249D01*
X197404465Y-112944402D01*
X197392277Y-112916780D01*
X197381123Y-112849831D01*
X197371657Y-112747042D01*
X197370235Y-112728026D01*
X197358323Y-112619372D01*
X197342531Y-112537067D01*
X197324477Y-112489927D01*
X197304372Y-112462450D01*
X197293413Y-112460215D01*
X197291098Y-112498108D01*
X197290250Y-112512250D01*
X197282998Y-112523150D01*
X197265316Y-112501113D01*
X197233455Y-112442525D01*
X197220967Y-112420534D01*
X197270131Y-112420534D01*
X197281126Y-112431529D01*
X197292122Y-112420534D01*
X197281126Y-112409538D01*
X197270131Y-112420534D01*
X197220967Y-112420534D01*
X197211343Y-112403585D01*
X197157030Y-112325210D01*
X197102531Y-112263628D01*
X197080841Y-112242500D01*
X197043143Y-112199325D01*
X197028226Y-112171724D01*
X197038842Y-112160079D01*
X197082191Y-112141335D01*
X197147570Y-112123984D01*
X197188152Y-112113355D01*
X197279766Y-112077752D01*
X197356488Y-112034322D01*
X197412671Y-111992116D01*
X197440651Y-111965682D01*
X197434736Y-111957448D01*
X197396581Y-111964534D01*
X197379224Y-111968077D01*
X197368673Y-111962801D01*
X197383892Y-111938111D01*
X197427314Y-111887936D01*
X197457313Y-111852516D01*
X197499422Y-111794854D01*
X197522147Y-111752583D01*
X197536766Y-111706523D01*
X197606275Y-111755650D01*
X197614520Y-111761525D01*
X197668635Y-111802128D01*
X197707754Y-111834583D01*
X197736874Y-111848433D01*
X197801317Y-111854206D01*
X197879853Y-111846138D01*
X197957140Y-111826134D01*
X198017836Y-111796098D01*
X198056521Y-111754338D01*
X198075490Y-111705196D01*
X198076904Y-111696117D01*
X198083810Y-111696117D01*
X198084024Y-111699191D01*
X198096754Y-111704034D01*
X198118897Y-111680426D01*
X198124248Y-111668136D01*
X198109199Y-111670728D01*
X198099430Y-111677517D01*
X198083810Y-111696117D01*
X198076904Y-111696117D01*
X198077000Y-111695498D01*
X198101966Y-111646306D01*
X198147160Y-111597595D01*
X198166887Y-111579639D01*
X198198963Y-111541323D01*
X198216813Y-111508466D01*
X198216063Y-111490730D01*
X198192340Y-111497779D01*
X198188210Y-111499667D01*
X198146948Y-111503194D01*
X198087881Y-111496291D01*
X198006841Y-111480330D01*
X198109380Y-111444631D01*
X198140061Y-111432922D01*
X198208792Y-111399976D01*
X198256782Y-111367980D01*
X198296734Y-111344422D01*
X198366905Y-111317879D01*
X198449423Y-111296050D01*
X198546623Y-111272225D01*
X198615950Y-111246127D01*
X198644022Y-111220972D01*
X198629508Y-111197489D01*
X198623158Y-111189371D01*
X198641516Y-111166988D01*
X198701844Y-111135631D01*
X198741607Y-111114663D01*
X198820793Y-111041606D01*
X198864425Y-110945806D01*
X198869028Y-110833545D01*
X198865695Y-110810601D01*
X198851439Y-110731657D01*
X198834452Y-110656987D01*
X198817385Y-110596341D01*
X198802889Y-110559468D01*
X198793614Y-110556118D01*
X198784520Y-110564972D01*
X198756049Y-110554238D01*
X198718733Y-110517885D01*
X198681500Y-110463304D01*
X198656923Y-110419321D01*
X198655917Y-110463304D01*
X198655647Y-110471561D01*
X198650236Y-110492998D01*
X198633594Y-110474300D01*
X198621543Y-110458445D01*
X198611939Y-110456807D01*
X198611840Y-110458020D01*
X198598939Y-110457303D01*
X198571430Y-110432917D01*
X198539353Y-110396253D01*
X198512746Y-110358702D01*
X198501646Y-110331654D01*
X198500060Y-110319263D01*
X198479654Y-110287373D01*
X198468662Y-110285026D01*
X198457663Y-110306769D01*
X198457662Y-110307147D01*
X198444482Y-110344729D01*
X198401924Y-110359491D01*
X198324908Y-110353211D01*
X198237750Y-110338486D01*
X198235964Y-110224964D01*
X198234817Y-110175189D01*
X198231336Y-110139577D01*
X198223393Y-110139134D01*
X198208474Y-110168717D01*
X198174514Y-110231090D01*
X198135630Y-110279671D01*
X198103109Y-110298369D01*
X198094637Y-110285762D01*
X198086404Y-110239862D01*
X198082840Y-110171919D01*
X198081029Y-110125831D01*
X198070304Y-110025178D01*
X198053356Y-109937242D01*
X198040523Y-109880356D01*
X198036626Y-109824365D01*
X198044925Y-109761106D01*
X198066263Y-109673346D01*
X198084361Y-109593470D01*
X198100401Y-109493101D01*
X198110100Y-109395596D01*
X198112823Y-109311007D01*
X198107936Y-109249388D01*
X198094806Y-109220793D01*
X198093590Y-109220571D01*
X198077664Y-109240802D01*
X198052734Y-109294733D01*
X198021955Y-109374864D01*
X197988479Y-109473694D01*
X197986918Y-109478577D01*
X197953292Y-109583034D01*
X197923318Y-109674863D01*
X197900210Y-109744298D01*
X197887181Y-109781573D01*
X197881392Y-109780672D01*
X197877243Y-109743595D01*
X197875600Y-109675766D01*
X197876822Y-109584021D01*
X197878442Y-109473135D01*
X197875575Y-109390195D01*
X197867369Y-109337808D01*
X197853237Y-109309130D01*
X197835933Y-109287169D01*
X197818681Y-109253780D01*
X197816405Y-109244113D01*
X197802843Y-109201895D01*
X197802488Y-109200919D01*
X197799498Y-109177204D01*
X197802102Y-109134135D01*
X197811072Y-109065772D01*
X197827177Y-108966173D01*
X197851190Y-108829397D01*
X197861257Y-108794488D01*
X197886760Y-108746929D01*
X197899365Y-108728541D01*
X197898803Y-108714992D01*
X197895472Y-108703539D01*
X197909342Y-108668277D01*
X197924985Y-108633108D01*
X197941783Y-108574813D01*
X197943268Y-108566168D01*
X197955276Y-108508607D01*
X197971677Y-108440101D01*
X197973231Y-108433595D01*
X197980435Y-108369794D01*
X197977496Y-108302575D01*
X197966516Y-108243781D01*
X197949598Y-108205252D01*
X197928845Y-108198830D01*
X197918084Y-108200587D01*
X197907880Y-108177502D01*
X197903739Y-108160922D01*
X197874893Y-108143218D01*
X197859718Y-108140736D01*
X197841906Y-108121226D01*
X197841124Y-108115478D01*
X197821050Y-108104733D01*
X197815354Y-108105341D01*
X197775200Y-108091736D01*
X197724377Y-108059354D01*
X197678521Y-108019495D01*
X197653268Y-107983461D01*
X197643290Y-107963518D01*
X197623625Y-107955282D01*
X197612045Y-107953908D01*
X197586664Y-107919746D01*
X197555560Y-107849462D01*
X197520869Y-107747373D01*
X197515259Y-107726658D01*
X197502347Y-107642506D01*
X197496910Y-107526773D01*
X197498595Y-107373521D01*
X197501625Y-107288680D01*
X197508296Y-107184065D01*
X197518785Y-107104908D01*
X197534792Y-107039885D01*
X197558018Y-106977676D01*
X197582468Y-106923516D01*
X197609438Y-106872107D01*
X197626661Y-106849394D01*
X197633143Y-106844490D01*
X197643983Y-106812480D01*
X197650090Y-106789439D01*
X197677674Y-106749206D01*
X197704326Y-106710564D01*
X197740714Y-106639205D01*
X197780759Y-106548197D01*
X197819881Y-106449175D01*
X197853497Y-106353775D01*
X197877027Y-106273634D01*
X197885888Y-106220388D01*
X197885810Y-106213075D01*
X197880341Y-106161068D01*
X197868895Y-106134099D01*
X197865752Y-106133545D01*
X197855601Y-106154983D01*
X197851113Y-106204273D01*
X197850664Y-106216905D01*
X197826932Y-106323502D01*
X197770277Y-106444220D01*
X197684917Y-106571520D01*
X197575068Y-106697862D01*
X197534221Y-106740311D01*
X197477499Y-106802054D01*
X197438545Y-106848164D01*
X197424070Y-106870951D01*
X197423550Y-106875052D01*
X197402628Y-106889711D01*
X197396669Y-106887540D01*
X197390171Y-106858313D01*
X197398846Y-106803326D01*
X197420387Y-106733261D01*
X197452488Y-106658802D01*
X197465115Y-106633075D01*
X197486373Y-106586355D01*
X197493296Y-106565339D01*
X197492191Y-106543347D01*
X197489261Y-106429214D01*
X197447904Y-106307788D01*
X197436046Y-106284277D01*
X197411748Y-106228076D01*
X197402079Y-106192334D01*
X197400379Y-106181439D01*
X197380087Y-106163997D01*
X197367556Y-106156336D01*
X197358096Y-106121312D01*
X197355044Y-106096186D01*
X197339293Y-106067006D01*
X197336317Y-106063691D01*
X197324568Y-106026109D01*
X197312775Y-105955476D01*
X197301820Y-105860433D01*
X197292588Y-105749621D01*
X197285963Y-105631681D01*
X197282830Y-105515252D01*
X197282652Y-105447159D01*
X197286715Y-105378753D01*
X197300171Y-105325622D01*
X197327852Y-105271087D01*
X197374590Y-105198466D01*
X197382279Y-105186761D01*
X197425833Y-105115551D01*
X197456613Y-105056903D01*
X197468373Y-105022535D01*
X197469166Y-105012923D01*
X197480100Y-104962409D01*
X197499703Y-104898492D01*
X197506212Y-104876455D01*
X197521833Y-104800285D01*
X197535967Y-104702497D01*
X197546185Y-104598748D01*
X197552415Y-104502671D01*
X197553305Y-104430618D01*
X197546617Y-104375523D01*
X197530610Y-104323593D01*
X197503543Y-104261034D01*
X197474344Y-104200583D01*
X197449810Y-104156498D01*
X197437418Y-104142942D01*
X197436766Y-104144784D01*
X197438827Y-104176456D01*
X197448316Y-104237682D01*
X197463566Y-104317355D01*
X197497724Y-104482921D01*
X197438469Y-104612351D01*
X197432313Y-104625332D01*
X197385544Y-104710425D01*
X197324368Y-104807363D01*
X197260357Y-104897608D01*
X197218665Y-104954806D01*
X197156801Y-105050495D01*
X197109292Y-105137932D01*
X197080617Y-105208504D01*
X197075252Y-105253598D01*
X197076522Y-105272766D01*
X197069962Y-105330714D01*
X197054950Y-105406888D01*
X197034645Y-105486243D01*
X197012208Y-105553737D01*
X196995201Y-105591168D01*
X196968283Y-105629088D01*
X196948058Y-105632270D01*
X196939481Y-105597720D01*
X196938755Y-105585672D01*
X196930983Y-105578597D01*
X196910690Y-105609702D01*
X196886350Y-105640858D01*
X196828113Y-105690766D01*
X196759513Y-105734157D01*
X196698935Y-105758142D01*
X196683145Y-105761632D01*
X196659871Y-105769219D01*
X196637880Y-105777480D01*
X196592626Y-105790074D01*
X196540639Y-105816780D01*
X196531140Y-105847109D01*
X196533917Y-105862250D01*
X196519382Y-105878109D01*
X196508829Y-105883469D01*
X196508998Y-105912689D01*
X196511425Y-105944838D01*
X196495683Y-105995157D01*
X196479773Y-106029610D01*
X196473770Y-106059538D01*
X196474225Y-106063848D01*
X196456451Y-106076031D01*
X196446054Y-106080086D01*
X196434460Y-106109935D01*
X196431930Y-106130506D01*
X196410110Y-106196035D01*
X196371909Y-106277083D01*
X196324634Y-106360295D01*
X196275594Y-106432316D01*
X196232094Y-106479793D01*
X196142536Y-106551086D01*
X196051752Y-106620752D01*
X195982503Y-106669359D01*
X195928110Y-106701160D01*
X195881894Y-106720412D01*
X195837175Y-106731370D01*
X195763090Y-106743100D01*
X195709142Y-106745791D01*
X195681007Y-106735744D01*
X195669647Y-106711907D01*
X195670794Y-106699980D01*
X195697608Y-106660784D01*
X195751814Y-106615453D01*
X195759505Y-106610100D01*
X195816103Y-106568347D01*
X195837459Y-106547354D01*
X195823049Y-106548224D01*
X195772351Y-106572061D01*
X195710531Y-106593180D01*
X195651584Y-106594245D01*
X195616402Y-106590369D01*
X195535235Y-106609287D01*
X195453009Y-106659970D01*
X195380809Y-106736592D01*
X195353404Y-106778323D01*
X195343344Y-106793642D01*
X195328332Y-106836236D01*
X195336237Y-106870232D01*
X195339168Y-106875898D01*
X195348165Y-106906989D01*
X195334324Y-106910232D01*
X195305117Y-106888449D01*
X195268017Y-106844462D01*
X195252977Y-106824331D01*
X195221209Y-106791586D01*
X195208745Y-106793567D01*
X195217646Y-106825788D01*
X195249969Y-106883766D01*
X195324676Y-107010224D01*
X195403988Y-107178623D01*
X195457582Y-107339444D01*
X195483155Y-107485379D01*
X195478407Y-107609121D01*
X195457205Y-107687336D01*
X195398762Y-107819122D01*
X195316667Y-107952511D01*
X195219073Y-108076337D01*
X195114133Y-108179433D01*
X195009999Y-108250635D01*
X194976592Y-108270626D01*
X194904984Y-108326273D01*
X194841119Y-108389862D01*
X194813099Y-108423632D01*
X194779336Y-108475197D01*
X194766044Y-108525510D01*
X194766065Y-108594040D01*
X194778873Y-108679118D01*
X194832087Y-108799743D01*
X194892500Y-108895488D01*
X194840698Y-108947290D01*
X194788073Y-108987339D01*
X194728842Y-109014164D01*
X194694383Y-109021174D01*
X194676828Y-109012140D01*
X194682809Y-108973369D01*
X194686541Y-108931807D01*
X194664224Y-108904988D01*
X194639986Y-108906147D01*
X194618661Y-108944100D01*
X194606671Y-108967989D01*
X194562328Y-109016361D01*
X194497485Y-109065848D01*
X194450456Y-109098184D01*
X194405253Y-109134312D01*
X194386821Y-109156391D01*
X194385513Y-109174205D01*
X194384378Y-109220793D01*
X194384598Y-109252463D01*
X194388820Y-109326704D01*
X194400296Y-109373119D01*
X194421477Y-109403803D01*
X194441842Y-109431341D01*
X194475674Y-109489985D01*
X194511354Y-109562083D01*
X194522459Y-109588097D01*
X194552198Y-109690031D01*
X194560598Y-109785410D01*
X194547604Y-109863630D01*
X194513161Y-109914087D01*
X194493786Y-109934810D01*
X194477024Y-109981919D01*
X194470535Y-110010215D01*
X194447916Y-110064831D01*
X194415543Y-110129039D01*
X194380238Y-110190355D01*
X194348823Y-110236298D01*
X194328119Y-110254386D01*
X194326253Y-110254636D01*
X194297780Y-110271379D01*
X194255838Y-110306320D01*
X194202318Y-110350428D01*
X194151603Y-110384063D01*
X194130244Y-110394581D01*
X194107633Y-110394261D01*
X194101983Y-110359619D01*
X194101022Y-110335727D01*
X194096172Y-110324029D01*
X194082194Y-110353347D01*
X194058265Y-110391961D01*
X194009474Y-110445413D01*
X193945998Y-110501807D01*
X193875639Y-110555649D01*
X193806202Y-110601442D01*
X193745489Y-110633691D01*
X193701304Y-110646901D01*
X193681451Y-110635575D01*
X193670634Y-110628799D01*
X193646390Y-110649547D01*
X193615855Y-110690576D01*
X193585738Y-110741570D01*
X193562748Y-110792213D01*
X193553594Y-110832187D01*
X193509209Y-110832187D01*
X193508528Y-110822494D01*
X193525066Y-110722941D01*
X193564590Y-110646220D01*
X193572562Y-110636310D01*
X193606001Y-110582811D01*
X193619568Y-110539623D01*
X193619986Y-110529945D01*
X193629775Y-110510706D01*
X193660904Y-110505322D01*
X193724344Y-110510773D01*
X193767639Y-110514984D01*
X193818268Y-110511760D01*
X193861620Y-110490387D01*
X193916768Y-110444273D01*
X193951802Y-110413844D01*
X193996576Y-110378738D01*
X194020910Y-110364853D01*
X194031664Y-110351330D01*
X194037403Y-110310138D01*
X194038363Y-110297217D01*
X194059125Y-110252811D01*
X194097508Y-110224651D01*
X194140898Y-110215991D01*
X194176682Y-110230086D01*
X194192245Y-110270190D01*
X194192269Y-110270959D01*
X194201946Y-110283073D01*
X194230916Y-110263671D01*
X194282362Y-110210649D01*
X194283683Y-110209185D01*
X194360113Y-110116582D01*
X194407219Y-110035971D01*
X194431047Y-109953516D01*
X194437646Y-109855382D01*
X194439802Y-109788726D01*
X194449151Y-109741157D01*
X194467136Y-109726594D01*
X194498019Y-109717930D01*
X194507894Y-109687218D01*
X194492495Y-109631420D01*
X194450959Y-109547553D01*
X194382429Y-109432632D01*
X194359860Y-109394219D01*
X194324836Y-109308032D01*
X194313847Y-109216190D01*
X194313722Y-109205756D01*
X194316061Y-109147900D01*
X194329429Y-109105962D01*
X194361402Y-109065238D01*
X194419558Y-109011024D01*
X194456746Y-108976077D01*
X194504718Y-108918603D01*
X194513711Y-108881102D01*
X194509223Y-108863286D01*
X194512496Y-108815944D01*
X194522553Y-108804557D01*
X194565804Y-108799028D01*
X194632509Y-108814794D01*
X194713604Y-108850308D01*
X194743601Y-108863678D01*
X194772145Y-108862616D01*
X194772114Y-108830040D01*
X194743991Y-108764590D01*
X194735934Y-108747932D01*
X194703189Y-108630379D01*
X194712015Y-108516427D01*
X194762091Y-108412327D01*
X194792022Y-108373124D01*
X194828929Y-108332821D01*
X194875211Y-108293214D01*
X194940255Y-108246427D01*
X195033444Y-108184583D01*
X195095054Y-108140744D01*
X195154803Y-108086002D01*
X195209742Y-108017824D01*
X195267054Y-107927129D01*
X195333923Y-107804840D01*
X195335547Y-107801744D01*
X195378322Y-107718262D01*
X195403775Y-107658465D01*
X195415273Y-107607733D01*
X195416180Y-107551442D01*
X195409865Y-107474969D01*
X195405623Y-107432965D01*
X195394249Y-107349347D01*
X195377411Y-107281072D01*
X195350242Y-107215247D01*
X195307875Y-107138978D01*
X195245442Y-107039369D01*
X195221188Y-107001133D01*
X195177983Y-106930693D01*
X195148119Y-106878730D01*
X195136970Y-106854405D01*
X195135332Y-106849484D01*
X195112051Y-106819923D01*
X195069989Y-106778855D01*
X195023337Y-106737204D01*
X195142362Y-106737204D01*
X195147966Y-106757763D01*
X195152484Y-106764273D01*
X195172553Y-106779754D01*
X195175561Y-106778323D01*
X195169957Y-106757763D01*
X195165439Y-106751253D01*
X195145370Y-106735772D01*
X195142362Y-106737204D01*
X195023337Y-106737204D01*
X195003007Y-106719053D01*
X195078702Y-106704853D01*
X195145281Y-106701839D01*
X195211331Y-106716593D01*
X195247067Y-106729475D01*
X195278743Y-106722246D01*
X195314516Y-106683735D01*
X195360533Y-106635757D01*
X195460933Y-106578932D01*
X195583322Y-106559841D01*
X195600774Y-106559330D01*
X195681798Y-106547423D01*
X195750474Y-106524682D01*
X195785315Y-106504164D01*
X195811411Y-106484169D01*
X195884676Y-106484169D01*
X195884890Y-106487243D01*
X195897620Y-106492086D01*
X195919763Y-106468478D01*
X195925114Y-106456188D01*
X195910065Y-106458780D01*
X195900296Y-106465568D01*
X195884676Y-106484169D01*
X195811411Y-106484169D01*
X195852077Y-106453011D01*
X195919970Y-106389828D01*
X195979861Y-106324148D01*
X196022617Y-106265503D01*
X196039104Y-106223426D01*
X196050636Y-106175830D01*
X196081041Y-106121061D01*
X196122489Y-106067130D01*
X196147665Y-106160627D01*
X196153173Y-106183447D01*
X196162595Y-106248525D01*
X196160303Y-106293630D01*
X196153625Y-106306749D01*
X196121064Y-106351834D01*
X196069168Y-106414361D01*
X196031457Y-106456188D01*
X196005505Y-106484973D01*
X195957329Y-106537040D01*
X195895633Y-106607606D01*
X195865992Y-106649186D01*
X195868857Y-106662072D01*
X195904679Y-106646559D01*
X195973909Y-106602940D01*
X196076998Y-106531508D01*
X196094769Y-106518804D01*
X196187405Y-106446949D01*
X196250809Y-106383420D01*
X196293570Y-106318123D01*
X196324277Y-106240966D01*
X196339546Y-106194142D01*
X196368338Y-106108439D01*
X196398436Y-106021053D01*
X196419004Y-105956633D01*
X196434528Y-105894459D01*
X196437943Y-105858969D01*
X196440015Y-105822705D01*
X196455966Y-105769325D01*
X196468878Y-105744294D01*
X196496418Y-105718510D01*
X196544804Y-105699403D01*
X196625451Y-105681027D01*
X196729184Y-105653797D01*
X196800457Y-105615851D01*
X196843289Y-105561544D01*
X196865487Y-105484484D01*
X196885974Y-105416710D01*
X196920774Y-105387273D01*
X196945096Y-105385750D01*
X196962921Y-105401856D01*
X196967364Y-105419616D01*
X196977624Y-105404873D01*
X196990661Y-105365081D01*
X197003472Y-105309493D01*
X197013056Y-105247362D01*
X197018999Y-105205558D01*
X197042991Y-105115556D01*
X197085543Y-105026255D01*
X197151784Y-104928099D01*
X197246839Y-104811529D01*
X197300419Y-104746628D01*
X197375836Y-104636841D01*
X197419111Y-104537850D01*
X197433403Y-104441103D01*
X197421874Y-104338054D01*
X197410214Y-104291821D01*
X197387726Y-104227564D01*
X197366010Y-104189549D01*
X197357672Y-104180743D01*
X197320123Y-104136787D01*
X197297176Y-104107806D01*
X197402079Y-104107806D01*
X197413074Y-104118802D01*
X197424070Y-104107806D01*
X197413074Y-104096811D01*
X197402079Y-104107806D01*
X197297176Y-104107806D01*
X197276282Y-104081418D01*
X197263066Y-104063824D01*
X197358096Y-104063824D01*
X197369092Y-104074819D01*
X197380087Y-104063824D01*
X197369092Y-104052828D01*
X197358096Y-104063824D01*
X197263066Y-104063824D01*
X197254250Y-104052087D01*
X197234698Y-104019841D01*
X197314113Y-104019841D01*
X197325109Y-104030837D01*
X197336105Y-104019841D01*
X197325109Y-104008845D01*
X197314113Y-104019841D01*
X197234698Y-104019841D01*
X197232487Y-104016194D01*
X197234730Y-103994394D01*
X197258826Y-103973365D01*
X197261805Y-103971225D01*
X197314260Y-103948009D01*
X197365223Y-103956704D01*
X197417967Y-103999939D01*
X197432275Y-104019841D01*
X197463895Y-104063824D01*
G37*
D13*
%TO.C,R2*%
X158067064Y-105335000D02*
X157612936Y-105335000D01*
X158067064Y-106805000D02*
X157612936Y-106805000D01*
%TO.C,BPR3*%
X156440000Y-123000000D02*
X156440000Y-123600000D01*
X157140000Y-124300000D02*
X158540000Y-124300000D01*
X158540000Y-122300000D02*
X157140000Y-122300000D01*
X159240000Y-123600000D02*
X159240000Y-123000000D01*
X156440000Y-123000000D02*
G75*
G02*
X157140000Y-122300000I700000J0D01*
G01*
X157140000Y-124300000D02*
G75*
G02*
X156440000Y-123600000I0J700000D01*
G01*
X158540000Y-122300000D02*
G75*
G02*
X159240000Y-123000000I1J-699999D01*
G01*
X159240000Y-123600000D02*
G75*
G02*
X158540000Y-124300000I-699999J-1D01*
G01*
%TO.C,BPR1*%
X177800000Y-95380000D02*
X177800000Y-96780000D01*
X178500000Y-97480000D02*
X179100000Y-97480000D01*
X179100000Y-94680000D02*
X178500000Y-94680000D01*
X179800000Y-96780000D02*
X179800000Y-95380000D01*
X177800000Y-95380000D02*
G75*
G02*
X178500000Y-94680000I699999J1D01*
G01*
X178500000Y-97480000D02*
G75*
G02*
X177800000Y-96780000I0J700000D01*
G01*
X179100000Y-94680000D02*
G75*
G02*
X179800000Y-95380000I1J-699999D01*
G01*
X179800000Y-96780000D02*
G75*
G02*
X179100000Y-97480000I-700000J0D01*
G01*
D14*
%TO.C,G\u002A\u002A\u002A*%
G36*
X185293952Y-116140805D02*
G01*
X185298448Y-116147044D01*
X185319504Y-116185646D01*
X185355673Y-116259145D01*
X185407978Y-116369717D01*
X185477441Y-116519540D01*
X185565085Y-116710790D01*
X185671930Y-116945643D01*
X185691202Y-116988309D01*
X185718812Y-117053370D01*
X185727115Y-117086695D01*
X185717273Y-117097698D01*
X185690445Y-117095791D01*
X185689102Y-117095561D01*
X185666361Y-117083010D01*
X185638534Y-117050129D01*
X185602725Y-116991772D01*
X185556037Y-116902790D01*
X185495574Y-116778036D01*
X185418440Y-116612364D01*
X185356200Y-116475839D01*
X185297000Y-116341605D01*
X185257133Y-116244175D01*
X185234934Y-116179108D01*
X185228736Y-116141961D01*
X185236873Y-116128293D01*
X185254609Y-116126651D01*
X185293952Y-116140805D01*
G37*
G36*
X193251785Y-114689376D02*
G01*
X193256281Y-114695615D01*
X193277337Y-114734217D01*
X193313506Y-114807716D01*
X193365811Y-114918289D01*
X193435274Y-115068111D01*
X193522917Y-115259361D01*
X193629763Y-115494215D01*
X193649034Y-115536881D01*
X193676644Y-115601942D01*
X193684948Y-115635267D01*
X193675105Y-115646270D01*
X193648278Y-115644363D01*
X193646934Y-115644132D01*
X193624194Y-115631581D01*
X193596367Y-115598701D01*
X193560558Y-115540343D01*
X193513869Y-115451361D01*
X193453406Y-115326607D01*
X193376272Y-115160935D01*
X193314032Y-115024410D01*
X193254832Y-114890176D01*
X193214966Y-114792746D01*
X193192767Y-114727679D01*
X193186569Y-114690532D01*
X193194706Y-114676864D01*
X193212442Y-114675223D01*
X193251785Y-114689376D01*
G37*
G36*
X193902425Y-116140805D02*
G01*
X193906921Y-116147044D01*
X193927977Y-116185646D01*
X193964146Y-116259145D01*
X194016451Y-116369717D01*
X194085914Y-116519540D01*
X194173557Y-116710790D01*
X194280403Y-116945643D01*
X194299675Y-116988309D01*
X194327285Y-117053370D01*
X194335588Y-117086695D01*
X194325746Y-117097698D01*
X194298918Y-117095791D01*
X194297575Y-117095561D01*
X194274834Y-117083010D01*
X194247007Y-117050129D01*
X194211198Y-116991772D01*
X194164510Y-116902790D01*
X194104047Y-116778036D01*
X194026913Y-116612364D01*
X193964673Y-116475839D01*
X193905473Y-116341605D01*
X193865606Y-116244175D01*
X193843407Y-116179108D01*
X193837209Y-116141961D01*
X193845346Y-116128293D01*
X193863082Y-116126651D01*
X193902425Y-116140805D01*
G37*
G36*
X194578090Y-114689376D02*
G01*
X194582586Y-114695615D01*
X194603642Y-114734217D01*
X194639811Y-114807716D01*
X194692116Y-114918289D01*
X194761579Y-115068111D01*
X194849222Y-115259361D01*
X194956068Y-115494215D01*
X194975340Y-115536881D01*
X195002950Y-115601942D01*
X195011253Y-115635267D01*
X195001411Y-115646270D01*
X194974583Y-115644363D01*
X194973240Y-115644132D01*
X194950499Y-115631581D01*
X194922672Y-115598701D01*
X194886863Y-115540343D01*
X194840175Y-115451361D01*
X194779712Y-115326607D01*
X194702578Y-115160935D01*
X194640338Y-115024410D01*
X194581138Y-114890176D01*
X194541271Y-114792746D01*
X194519072Y-114727679D01*
X194512874Y-114690532D01*
X194521011Y-114676864D01*
X194538747Y-114675223D01*
X194578090Y-114689376D01*
G37*
G36*
X186127156Y-118526766D02*
G01*
X186255752Y-118527405D01*
X186344015Y-118529734D01*
X186399503Y-118534794D01*
X186429778Y-118543630D01*
X186442399Y-118557283D01*
X186444926Y-118576797D01*
X186444794Y-118583016D01*
X186440161Y-118600753D01*
X186423279Y-118612928D01*
X186386589Y-118620581D01*
X186322531Y-118624757D01*
X186223544Y-118626498D01*
X186082069Y-118626846D01*
X186036983Y-118626828D01*
X185908387Y-118626189D01*
X185820124Y-118623861D01*
X185764635Y-118618800D01*
X185734360Y-118609964D01*
X185721739Y-118596311D01*
X185719212Y-118576797D01*
X185719344Y-118570578D01*
X185723978Y-118552841D01*
X185740859Y-118540667D01*
X185777550Y-118533013D01*
X185841608Y-118528837D01*
X185940595Y-118527096D01*
X186082069Y-118526748D01*
X186127156Y-118526766D01*
G37*
G36*
X186802821Y-115648934D02*
G01*
X186931417Y-115649573D01*
X187019680Y-115651901D01*
X187075168Y-115656962D01*
X187105443Y-115665798D01*
X187118064Y-115679451D01*
X187120591Y-115698965D01*
X187120459Y-115705183D01*
X187115826Y-115722921D01*
X187098944Y-115735095D01*
X187062254Y-115742749D01*
X186998196Y-115746924D01*
X186899209Y-115748665D01*
X186757734Y-115749014D01*
X186712648Y-115748996D01*
X186584052Y-115748357D01*
X186495789Y-115746028D01*
X186440300Y-115740967D01*
X186410025Y-115732132D01*
X186397404Y-115718478D01*
X186394877Y-115698965D01*
X186395009Y-115692746D01*
X186399643Y-115675008D01*
X186416524Y-115662834D01*
X186453215Y-115655181D01*
X186517273Y-115651005D01*
X186616260Y-115649264D01*
X186757734Y-115648915D01*
X186802821Y-115648934D01*
G37*
G36*
X187453461Y-118526766D02*
G01*
X187582057Y-118527405D01*
X187670320Y-118529734D01*
X187725809Y-118534794D01*
X187756084Y-118543630D01*
X187768705Y-118557283D01*
X187771232Y-118576797D01*
X187771100Y-118583016D01*
X187766466Y-118600753D01*
X187749585Y-118612928D01*
X187712894Y-118620581D01*
X187648836Y-118624757D01*
X187549849Y-118626498D01*
X187408375Y-118626846D01*
X187363288Y-118626828D01*
X187234692Y-118626189D01*
X187146429Y-118623861D01*
X187090941Y-118618800D01*
X187060666Y-118609964D01*
X187048045Y-118596311D01*
X187045518Y-118576797D01*
X187045650Y-118570578D01*
X187050283Y-118552841D01*
X187067165Y-118540667D01*
X187103855Y-118533013D01*
X187167913Y-118528837D01*
X187266900Y-118527096D01*
X187408375Y-118526748D01*
X187453461Y-118526766D01*
G37*
G36*
X189455432Y-115648934D02*
G01*
X189584028Y-115649573D01*
X189672290Y-115651901D01*
X189727779Y-115656962D01*
X189758054Y-115665798D01*
X189770675Y-115679451D01*
X189773202Y-115698965D01*
X189773070Y-115705183D01*
X189768437Y-115722921D01*
X189751555Y-115735095D01*
X189714865Y-115742749D01*
X189650807Y-115746924D01*
X189551820Y-115748665D01*
X189410345Y-115749014D01*
X189365259Y-115748996D01*
X189236662Y-115748357D01*
X189148400Y-115746028D01*
X189092911Y-115740967D01*
X189062636Y-115732132D01*
X189050015Y-115718478D01*
X189047488Y-115698965D01*
X189047620Y-115692746D01*
X189052253Y-115675008D01*
X189069135Y-115662834D01*
X189105825Y-115655181D01*
X189169884Y-115651005D01*
X189268870Y-115649264D01*
X189410345Y-115648915D01*
X189455432Y-115648934D01*
G37*
G36*
X189455432Y-117100362D02*
G01*
X189584028Y-117101001D01*
X189672290Y-117103330D01*
X189727779Y-117108390D01*
X189758054Y-117117226D01*
X189770675Y-117130879D01*
X189773202Y-117150393D01*
X189773070Y-117156612D01*
X189768437Y-117174349D01*
X189751555Y-117186524D01*
X189714865Y-117194177D01*
X189650807Y-117198353D01*
X189551820Y-117200094D01*
X189410345Y-117200442D01*
X189365259Y-117200424D01*
X189236662Y-117199785D01*
X189148400Y-117197457D01*
X189092911Y-117192396D01*
X189062636Y-117183560D01*
X189050015Y-117169907D01*
X189047488Y-117150393D01*
X189047620Y-117144174D01*
X189052253Y-117126437D01*
X189069135Y-117114263D01*
X189105825Y-117106609D01*
X189169884Y-117102433D01*
X189268870Y-117100692D01*
X189410345Y-117100344D01*
X189455432Y-117100362D01*
G37*
G36*
X191432377Y-115648934D02*
G01*
X191560974Y-115649573D01*
X191649236Y-115651901D01*
X191704725Y-115656962D01*
X191735000Y-115665798D01*
X191747621Y-115679451D01*
X191750148Y-115698965D01*
X191750016Y-115705183D01*
X191745383Y-115722921D01*
X191728501Y-115735095D01*
X191691811Y-115742749D01*
X191627752Y-115746924D01*
X191528766Y-115748665D01*
X191387291Y-115749014D01*
X191342204Y-115748996D01*
X191213608Y-115748357D01*
X191125346Y-115746028D01*
X191069857Y-115740967D01*
X191039582Y-115732132D01*
X191026961Y-115718478D01*
X191024434Y-115698965D01*
X191024566Y-115692746D01*
X191029199Y-115675008D01*
X191046081Y-115662834D01*
X191082771Y-115655181D01*
X191146830Y-115651005D01*
X191245816Y-115649264D01*
X191387291Y-115648915D01*
X191432377Y-115648934D01*
G37*
G36*
X192758683Y-115648934D02*
G01*
X192887279Y-115649573D01*
X192975542Y-115651901D01*
X193031031Y-115656962D01*
X193061305Y-115665798D01*
X193073927Y-115679451D01*
X193076454Y-115698965D01*
X193076321Y-115705183D01*
X193071688Y-115722921D01*
X193054806Y-115735095D01*
X193018116Y-115742749D01*
X192954058Y-115746924D01*
X192855071Y-115748665D01*
X192713596Y-115749014D01*
X192668510Y-115748996D01*
X192539914Y-115748357D01*
X192451651Y-115746028D01*
X192396162Y-115740967D01*
X192365887Y-115732132D01*
X192353266Y-115718478D01*
X192350739Y-115698965D01*
X192350871Y-115692746D01*
X192355505Y-115675008D01*
X192372386Y-115662834D01*
X192409077Y-115655181D01*
X192473135Y-115651005D01*
X192572122Y-115649264D01*
X192713596Y-115648915D01*
X192758683Y-115648934D01*
G37*
G36*
X185723854Y-114680617D02*
G01*
X185722861Y-114699202D01*
X185710844Y-114735899D01*
X185685846Y-114796192D01*
X185645911Y-114885560D01*
X185589081Y-115009485D01*
X185513401Y-115173447D01*
X185474875Y-115257120D01*
X185417798Y-115381546D01*
X185367107Y-115492511D01*
X185364700Y-115497777D01*
X185319269Y-115586498D01*
X185281596Y-115634500D01*
X185246168Y-115648915D01*
X185236005Y-115649244D01*
X185222357Y-115649086D01*
X185214379Y-115643680D01*
X185213957Y-115627991D01*
X185222975Y-115596980D01*
X185243320Y-115545611D01*
X185276876Y-115468847D01*
X185325531Y-115361650D01*
X185391168Y-115218984D01*
X185475674Y-115035812D01*
X185478729Y-115029190D01*
X185544448Y-114889967D01*
X185594976Y-114791031D01*
X185633816Y-114726539D01*
X185664470Y-114690645D01*
X185690441Y-114677507D01*
X185700594Y-114675863D01*
X185715779Y-114674665D01*
X185723854Y-114680617D01*
G37*
G36*
X185723854Y-117558449D02*
G01*
X185722861Y-117577034D01*
X185710844Y-117613732D01*
X185685846Y-117674024D01*
X185645911Y-117763392D01*
X185589081Y-117887317D01*
X185513401Y-118051280D01*
X185474875Y-118134952D01*
X185417798Y-118259379D01*
X185367107Y-118370344D01*
X185364700Y-118375609D01*
X185319269Y-118464330D01*
X185281596Y-118512332D01*
X185246168Y-118526748D01*
X185236005Y-118527076D01*
X185222357Y-118526918D01*
X185214379Y-118521513D01*
X185213957Y-118505823D01*
X185222975Y-118474812D01*
X185243320Y-118423443D01*
X185276876Y-118346679D01*
X185325531Y-118239482D01*
X185391168Y-118096817D01*
X185475674Y-117913644D01*
X185478729Y-117907023D01*
X185544448Y-117767800D01*
X185594976Y-117668864D01*
X185633816Y-117604371D01*
X185664470Y-117568478D01*
X185690441Y-117555340D01*
X185700594Y-117553696D01*
X185715779Y-117552497D01*
X185723854Y-117558449D01*
G37*
G36*
X188376465Y-116132046D02*
G01*
X188375472Y-116150630D01*
X188363455Y-116187328D01*
X188338457Y-116247620D01*
X188298522Y-116336989D01*
X188241692Y-116460913D01*
X188166012Y-116624876D01*
X188127485Y-116708548D01*
X188070409Y-116832975D01*
X188019718Y-116943940D01*
X188017311Y-116949206D01*
X187971879Y-117037926D01*
X187934207Y-117085928D01*
X187898779Y-117100344D01*
X187888616Y-117100672D01*
X187874968Y-117100514D01*
X187866990Y-117095109D01*
X187866567Y-117079419D01*
X187875586Y-117048408D01*
X187895930Y-116997039D01*
X187929487Y-116920275D01*
X187978141Y-116813079D01*
X188043779Y-116670413D01*
X188128284Y-116487240D01*
X188131340Y-116480619D01*
X188197059Y-116341396D01*
X188247587Y-116242460D01*
X188286427Y-116177967D01*
X188317081Y-116142074D01*
X188343051Y-116128936D01*
X188353204Y-116127292D01*
X188368390Y-116126093D01*
X188376465Y-116132046D01*
G37*
G36*
X196334297Y-114680617D02*
G01*
X196333305Y-114699202D01*
X196321287Y-114735899D01*
X196296290Y-114796192D01*
X196256354Y-114885560D01*
X196199525Y-115009485D01*
X196123845Y-115173447D01*
X196085318Y-115257120D01*
X196028241Y-115381546D01*
X195977550Y-115492511D01*
X195975143Y-115497777D01*
X195929712Y-115586498D01*
X195892040Y-115634500D01*
X195856611Y-115648915D01*
X195846448Y-115649244D01*
X195832801Y-115649086D01*
X195824823Y-115643680D01*
X195824400Y-115627991D01*
X195833418Y-115596980D01*
X195853763Y-115545611D01*
X195887320Y-115468847D01*
X195935974Y-115361650D01*
X196001611Y-115218984D01*
X196086117Y-115035812D01*
X196089172Y-115029190D01*
X196154891Y-114889967D01*
X196205420Y-114791031D01*
X196244259Y-114726539D01*
X196274913Y-114690645D01*
X196300884Y-114677507D01*
X196311037Y-114675863D01*
X196326223Y-114674665D01*
X196334297Y-114680617D01*
G37*
G36*
X196334297Y-117558449D02*
G01*
X196333305Y-117577034D01*
X196321287Y-117613732D01*
X196296290Y-117674024D01*
X196256354Y-117763392D01*
X196199525Y-117887317D01*
X196123845Y-118051280D01*
X196085318Y-118134952D01*
X196028241Y-118259379D01*
X195977550Y-118370344D01*
X195975143Y-118375609D01*
X195929712Y-118464330D01*
X195892040Y-118512332D01*
X195856611Y-118526748D01*
X195846448Y-118527076D01*
X195832801Y-118526918D01*
X195824823Y-118521513D01*
X195824400Y-118505823D01*
X195833418Y-118474812D01*
X195853763Y-118423443D01*
X195887320Y-118346679D01*
X195935974Y-118239482D01*
X196001611Y-118096817D01*
X196086117Y-117913644D01*
X196089172Y-117907023D01*
X196154891Y-117767800D01*
X196205420Y-117668864D01*
X196244259Y-117604371D01*
X196274913Y-117568478D01*
X196300884Y-117555340D01*
X196311037Y-117553696D01*
X196326223Y-117552497D01*
X196334297Y-117558449D01*
G37*
G36*
X196984938Y-116132046D02*
G01*
X196983945Y-116150630D01*
X196971928Y-116187328D01*
X196946930Y-116247620D01*
X196906995Y-116336989D01*
X196850165Y-116460913D01*
X196774485Y-116624876D01*
X196735958Y-116708548D01*
X196678882Y-116832975D01*
X196628191Y-116943940D01*
X196625784Y-116949206D01*
X196580352Y-117037926D01*
X196542680Y-117085928D01*
X196507252Y-117100344D01*
X196497089Y-117100672D01*
X196483441Y-117100514D01*
X196475463Y-117095109D01*
X196475040Y-117079419D01*
X196484059Y-117048408D01*
X196504403Y-116997039D01*
X196537960Y-116920275D01*
X196586614Y-116813079D01*
X196652252Y-116670413D01*
X196736757Y-116487240D01*
X196739813Y-116480619D01*
X196805532Y-116341396D01*
X196856060Y-116242460D01*
X196894900Y-116177967D01*
X196925553Y-116142074D01*
X196951524Y-116128936D01*
X196961677Y-116127292D01*
X196976863Y-116126093D01*
X196984938Y-116132046D01*
G37*
G36*
X197660603Y-114680617D02*
G01*
X197659610Y-114699202D01*
X197647593Y-114735899D01*
X197622595Y-114796192D01*
X197582660Y-114885560D01*
X197525830Y-115009485D01*
X197450150Y-115173447D01*
X197411623Y-115257120D01*
X197354547Y-115381546D01*
X197303856Y-115492511D01*
X197301449Y-115497777D01*
X197256017Y-115586498D01*
X197218345Y-115634500D01*
X197182917Y-115648915D01*
X197172754Y-115649244D01*
X197159106Y-115649086D01*
X197151128Y-115643680D01*
X197150705Y-115627991D01*
X197159724Y-115596980D01*
X197180068Y-115545611D01*
X197213625Y-115468847D01*
X197262279Y-115361650D01*
X197327917Y-115218984D01*
X197412422Y-115035812D01*
X197415478Y-115029190D01*
X197481197Y-114889967D01*
X197531725Y-114791031D01*
X197570565Y-114726539D01*
X197601218Y-114690645D01*
X197627189Y-114677507D01*
X197637342Y-114675863D01*
X197652528Y-114674665D01*
X197660603Y-114680617D01*
G37*
G36*
X188201309Y-114573009D02*
G01*
X188220942Y-114578609D01*
X188223891Y-114599782D01*
X188209052Y-114646632D01*
X188175320Y-114729260D01*
X188146100Y-114805335D01*
X188123623Y-114890629D01*
X188112652Y-114985824D01*
X188109758Y-115110886D01*
X188111611Y-115215686D01*
X188120832Y-115314895D01*
X188140924Y-115400515D01*
X188175320Y-115492511D01*
X188187378Y-115521390D01*
X188215382Y-115592335D01*
X188224822Y-115630503D01*
X188216802Y-115645996D01*
X188192427Y-115648915D01*
X188189020Y-115648771D01*
X188153948Y-115630140D01*
X188113826Y-115575941D01*
X188063956Y-115479999D01*
X188025911Y-115394380D01*
X187999268Y-115311376D01*
X187986941Y-115224551D01*
X187983941Y-115110886D01*
X187986061Y-115011222D01*
X187996756Y-114921983D01*
X188021058Y-114839840D01*
X188063956Y-114741772D01*
X188069512Y-114730133D01*
X188118196Y-114638640D01*
X188157602Y-114588273D01*
X188192427Y-114572856D01*
X188201309Y-114573009D01*
G37*
G36*
X186749456Y-117500797D02*
G01*
X186764203Y-117503781D01*
X186775391Y-117515579D01*
X186783511Y-117542080D01*
X186789054Y-117589177D01*
X186792510Y-117662759D01*
X186794371Y-117768718D01*
X186795128Y-117912944D01*
X186795271Y-118101329D01*
X186795266Y-118152131D01*
X186795018Y-118329097D01*
X186794035Y-118463354D01*
X186791826Y-118560794D01*
X186787901Y-118627309D01*
X186781770Y-118668787D01*
X186772940Y-118691122D01*
X186760921Y-118700202D01*
X186745222Y-118701920D01*
X186740988Y-118701861D01*
X186726241Y-118698877D01*
X186715053Y-118687080D01*
X186706933Y-118660578D01*
X186701390Y-118613481D01*
X186697934Y-118539899D01*
X186696073Y-118433940D01*
X186695316Y-118289714D01*
X186695173Y-118101329D01*
X186695178Y-118050527D01*
X186695426Y-117873562D01*
X186696409Y-117739304D01*
X186698618Y-117641864D01*
X186702543Y-117575350D01*
X186708675Y-117533871D01*
X186717504Y-117511536D01*
X186729523Y-117502456D01*
X186745222Y-117500738D01*
X186749456Y-117500797D01*
G37*
G36*
X190728372Y-114622965D02*
G01*
X190743119Y-114625949D01*
X190754307Y-114637746D01*
X190762427Y-114664248D01*
X190767970Y-114711344D01*
X190771426Y-114784927D01*
X190773288Y-114890886D01*
X190774044Y-115035112D01*
X190774188Y-115223497D01*
X190774183Y-115274299D01*
X190773934Y-115451264D01*
X190772951Y-115585521D01*
X190770742Y-115682962D01*
X190766818Y-115749476D01*
X190760686Y-115790955D01*
X190751856Y-115813289D01*
X190739837Y-115822370D01*
X190724138Y-115824088D01*
X190719905Y-115824028D01*
X190705158Y-115821044D01*
X190693970Y-115809247D01*
X190685850Y-115782745D01*
X190680307Y-115735649D01*
X190676850Y-115662067D01*
X190674989Y-115556108D01*
X190674232Y-115411881D01*
X190674089Y-115223497D01*
X190674094Y-115172694D01*
X190674343Y-114995729D01*
X190675326Y-114861472D01*
X190677534Y-114764031D01*
X190681459Y-114697517D01*
X190687591Y-114656038D01*
X190696421Y-114633704D01*
X190708440Y-114624623D01*
X190724138Y-114622905D01*
X190728372Y-114622965D01*
G37*
G36*
X190728372Y-116074393D02*
G01*
X190743119Y-116077377D01*
X190754307Y-116089175D01*
X190762427Y-116115676D01*
X190767970Y-116162773D01*
X190771426Y-116236355D01*
X190773288Y-116342314D01*
X190774044Y-116486541D01*
X190774188Y-116674925D01*
X190774183Y-116725727D01*
X190773934Y-116902693D01*
X190772951Y-117036950D01*
X190770742Y-117134390D01*
X190766818Y-117200905D01*
X190760686Y-117242383D01*
X190751856Y-117264718D01*
X190739837Y-117273799D01*
X190724138Y-117275516D01*
X190719905Y-117275457D01*
X190705158Y-117272473D01*
X190693970Y-117260676D01*
X190685850Y-117234174D01*
X190680307Y-117187078D01*
X190676850Y-117113495D01*
X190674989Y-117007536D01*
X190674232Y-116863310D01*
X190674089Y-116674925D01*
X190674094Y-116624123D01*
X190674343Y-116447158D01*
X190675326Y-116312900D01*
X190677534Y-116215460D01*
X190681459Y-116148946D01*
X190687591Y-116107467D01*
X190696421Y-116085133D01*
X190708440Y-116076052D01*
X190724138Y-116074334D01*
X190728372Y-116074393D01*
G37*
G36*
X190728372Y-117500797D02*
G01*
X190743119Y-117503781D01*
X190754307Y-117515579D01*
X190762427Y-117542080D01*
X190767970Y-117589177D01*
X190771426Y-117662759D01*
X190773288Y-117768718D01*
X190774044Y-117912944D01*
X190774188Y-118101329D01*
X190774183Y-118152131D01*
X190773934Y-118329097D01*
X190772951Y-118463354D01*
X190770742Y-118560794D01*
X190766818Y-118627309D01*
X190760686Y-118668787D01*
X190751856Y-118691122D01*
X190739837Y-118700202D01*
X190724138Y-118701920D01*
X190719905Y-118701861D01*
X190705158Y-118698877D01*
X190693970Y-118687080D01*
X190685850Y-118660578D01*
X190680307Y-118613481D01*
X190676850Y-118539899D01*
X190674989Y-118433940D01*
X190674232Y-118289714D01*
X190674089Y-118101329D01*
X190674094Y-118050527D01*
X190674343Y-117873562D01*
X190675326Y-117739304D01*
X190677534Y-117641864D01*
X190681459Y-117575350D01*
X190687591Y-117533871D01*
X190696421Y-117511536D01*
X190708440Y-117502456D01*
X190724138Y-117500738D01*
X190728372Y-117500797D01*
G37*
G36*
X191379012Y-116074393D02*
G01*
X191393759Y-116077377D01*
X191404947Y-116089175D01*
X191413067Y-116115676D01*
X191418610Y-116162773D01*
X191422067Y-116236355D01*
X191423928Y-116342314D01*
X191424685Y-116486541D01*
X191424828Y-116674925D01*
X191424823Y-116725727D01*
X191424574Y-116902693D01*
X191423591Y-117036950D01*
X191421383Y-117134390D01*
X191417458Y-117200905D01*
X191411326Y-117242383D01*
X191402496Y-117264718D01*
X191390477Y-117273799D01*
X191374779Y-117275516D01*
X191370545Y-117275457D01*
X191355798Y-117272473D01*
X191344610Y-117260676D01*
X191336490Y-117234174D01*
X191330947Y-117187078D01*
X191327490Y-117113495D01*
X191325629Y-117007536D01*
X191324873Y-116863310D01*
X191324729Y-116674925D01*
X191324734Y-116624123D01*
X191324983Y-116447158D01*
X191325966Y-116312900D01*
X191328175Y-116215460D01*
X191332099Y-116148946D01*
X191338231Y-116107467D01*
X191347061Y-116085133D01*
X191359080Y-116076052D01*
X191374779Y-116074334D01*
X191379012Y-116074393D01*
G37*
G36*
X192705318Y-116074393D02*
G01*
X192720065Y-116077377D01*
X192731253Y-116089175D01*
X192739373Y-116115676D01*
X192744916Y-116162773D01*
X192748372Y-116236355D01*
X192750233Y-116342314D01*
X192750990Y-116486541D01*
X192751133Y-116674925D01*
X192751128Y-116725727D01*
X192750880Y-116902693D01*
X192749897Y-117036950D01*
X192747688Y-117134390D01*
X192743763Y-117200905D01*
X192737632Y-117242383D01*
X192728802Y-117264718D01*
X192716783Y-117273799D01*
X192701084Y-117275516D01*
X192696851Y-117275457D01*
X192682103Y-117272473D01*
X192670915Y-117260676D01*
X192662795Y-117234174D01*
X192657252Y-117187078D01*
X192653796Y-117113495D01*
X192651935Y-117007536D01*
X192651178Y-116863310D01*
X192651035Y-116674925D01*
X192651040Y-116624123D01*
X192651288Y-116447158D01*
X192652272Y-116312900D01*
X192654480Y-116215460D01*
X192658405Y-116148946D01*
X192664537Y-116107467D01*
X192673366Y-116085133D01*
X192685385Y-116076052D01*
X192701084Y-116074334D01*
X192705318Y-116074393D01*
G37*
G36*
X193380983Y-117500797D02*
G01*
X193395730Y-117503781D01*
X193406918Y-117515579D01*
X193415038Y-117542080D01*
X193420581Y-117589177D01*
X193424037Y-117662759D01*
X193425898Y-117768718D01*
X193426655Y-117912944D01*
X193426798Y-118101329D01*
X193426793Y-118152131D01*
X193426545Y-118329097D01*
X193425562Y-118463354D01*
X193423353Y-118560794D01*
X193419428Y-118627309D01*
X193413297Y-118668787D01*
X193404467Y-118691122D01*
X193392448Y-118700202D01*
X193376749Y-118701920D01*
X193372516Y-118701861D01*
X193357768Y-118698877D01*
X193346580Y-118687080D01*
X193338460Y-118660578D01*
X193332917Y-118613481D01*
X193329461Y-118539899D01*
X193327600Y-118433940D01*
X193326843Y-118289714D01*
X193326700Y-118101329D01*
X193326705Y-118050527D01*
X193326953Y-117873562D01*
X193327937Y-117739304D01*
X193330145Y-117641864D01*
X193334070Y-117575350D01*
X193340202Y-117533871D01*
X193349032Y-117511536D01*
X193361050Y-117502456D01*
X193376749Y-117500738D01*
X193380983Y-117500797D01*
G37*
G36*
X197545795Y-114197564D02*
G01*
X197710414Y-114198077D01*
X197835224Y-114199427D01*
X197925729Y-114202015D01*
X197987434Y-114206242D01*
X198025845Y-114212507D01*
X198046465Y-114221210D01*
X198054800Y-114232753D01*
X198056355Y-114247536D01*
X198055300Y-114260454D01*
X198048245Y-114272426D01*
X198029676Y-114281503D01*
X197994087Y-114288085D01*
X197935974Y-114292573D01*
X197849831Y-114295366D01*
X197730154Y-114296866D01*
X197571438Y-114297472D01*
X197368178Y-114297585D01*
X197190561Y-114297509D01*
X197025941Y-114296995D01*
X196901131Y-114295645D01*
X196810626Y-114293057D01*
X196748921Y-114288830D01*
X196710511Y-114282565D01*
X196689891Y-114273862D01*
X196681555Y-114262319D01*
X196680000Y-114247536D01*
X196681056Y-114234618D01*
X196688110Y-114222646D01*
X196706680Y-114213569D01*
X196742268Y-114206987D01*
X196800382Y-114202499D01*
X196886524Y-114199706D01*
X197006201Y-114198206D01*
X197164917Y-114197600D01*
X197368178Y-114197487D01*
X197545795Y-114197564D01*
G37*
G36*
X187327702Y-114197531D02*
G01*
X187539436Y-114197817D01*
X187709730Y-114198563D01*
X187843095Y-114199990D01*
X187944043Y-114202319D01*
X188017085Y-114205769D01*
X188066731Y-114210559D01*
X188097492Y-114216912D01*
X188113880Y-114225045D01*
X188120404Y-114235180D01*
X188121577Y-114247536D01*
X188120665Y-114258860D01*
X188114816Y-114269188D01*
X188099516Y-114277495D01*
X188070254Y-114284001D01*
X188022519Y-114288925D01*
X187951801Y-114292488D01*
X187853587Y-114294910D01*
X187723368Y-114296410D01*
X187556632Y-114297210D01*
X187348868Y-114297528D01*
X187095567Y-114297585D01*
X186863431Y-114297541D01*
X186651698Y-114297256D01*
X186481404Y-114296509D01*
X186348038Y-114295082D01*
X186247090Y-114292753D01*
X186174049Y-114289304D01*
X186124403Y-114284513D01*
X186093641Y-114278160D01*
X186077254Y-114270027D01*
X186070729Y-114259892D01*
X186069557Y-114247536D01*
X186070468Y-114236212D01*
X186076317Y-114225884D01*
X186091617Y-114217577D01*
X186120879Y-114211071D01*
X186168614Y-114206147D01*
X186239333Y-114202584D01*
X186337547Y-114200162D01*
X186467766Y-114198662D01*
X186634502Y-114197862D01*
X186842265Y-114197544D01*
X187095567Y-114197487D01*
X187327702Y-114197531D01*
G37*
G36*
X189980313Y-114197531D02*
G01*
X190192046Y-114197817D01*
X190362340Y-114198563D01*
X190495706Y-114199990D01*
X190596654Y-114202319D01*
X190669696Y-114205769D01*
X190719342Y-114210559D01*
X190750103Y-114216912D01*
X190766491Y-114225045D01*
X190773015Y-114235180D01*
X190774188Y-114247536D01*
X190773276Y-114258860D01*
X190767427Y-114269188D01*
X190752127Y-114277495D01*
X190722865Y-114284001D01*
X190675130Y-114288925D01*
X190604411Y-114292488D01*
X190506198Y-114294910D01*
X190375978Y-114296410D01*
X190209243Y-114297210D01*
X190001479Y-114297528D01*
X189748178Y-114297585D01*
X189516042Y-114297541D01*
X189304309Y-114297256D01*
X189134015Y-114296509D01*
X189000649Y-114295082D01*
X188899701Y-114292753D01*
X188826659Y-114289304D01*
X188777013Y-114284513D01*
X188746252Y-114278160D01*
X188729865Y-114270027D01*
X188723340Y-114259892D01*
X188722168Y-114247536D01*
X188723079Y-114236212D01*
X188728928Y-114225884D01*
X188744228Y-114217577D01*
X188773490Y-114211071D01*
X188821225Y-114206147D01*
X188891944Y-114202584D01*
X188990158Y-114200162D01*
X189120377Y-114198662D01*
X189287113Y-114197862D01*
X189494876Y-114197544D01*
X189748178Y-114197487D01*
X189980313Y-114197531D01*
G37*
G36*
X192282579Y-118526792D02*
G01*
X192494312Y-118527078D01*
X192664606Y-118527824D01*
X192797972Y-118529251D01*
X192898920Y-118531580D01*
X192971962Y-118535030D01*
X193021608Y-118539821D01*
X193052369Y-118546173D01*
X193068757Y-118554306D01*
X193075281Y-118564441D01*
X193076454Y-118576797D01*
X193075542Y-118588121D01*
X193069693Y-118598449D01*
X193054393Y-118606756D01*
X193025131Y-118613262D01*
X192977396Y-118618186D01*
X192906677Y-118621749D01*
X192808464Y-118624171D01*
X192678244Y-118625672D01*
X192511509Y-118626471D01*
X192303745Y-118626789D01*
X192050444Y-118626846D01*
X191818308Y-118626802D01*
X191606575Y-118626517D01*
X191436281Y-118625770D01*
X191302915Y-118624343D01*
X191201967Y-118622014D01*
X191128925Y-118618565D01*
X191079279Y-118613774D01*
X191048518Y-118607422D01*
X191032131Y-118599288D01*
X191025606Y-118589153D01*
X191024434Y-118576797D01*
X191025345Y-118565473D01*
X191031194Y-118555145D01*
X191046494Y-118546838D01*
X191075756Y-118540332D01*
X191123491Y-118535408D01*
X191194210Y-118531845D01*
X191292424Y-118529423D01*
X191422643Y-118527923D01*
X191589379Y-118527123D01*
X191797142Y-118526805D01*
X192050444Y-118526748D01*
X192282579Y-118526792D01*
G37*
G36*
X194531170Y-117555280D02*
G01*
X194533514Y-117555717D01*
X194556375Y-117568770D01*
X194584170Y-117601868D01*
X194619829Y-117660213D01*
X194666280Y-117749009D01*
X194726451Y-117873459D01*
X194803271Y-118038768D01*
X195021691Y-118514236D01*
X195375378Y-118521179D01*
X195394510Y-118521558D01*
X195528556Y-118524725D01*
X195621105Y-118528732D01*
X195679793Y-118534796D01*
X195712257Y-118544132D01*
X195726135Y-118557956D01*
X195729064Y-118577484D01*
X195728954Y-118582953D01*
X195724377Y-118600647D01*
X195707519Y-118612819D01*
X195670826Y-118620497D01*
X195606746Y-118624709D01*
X195507724Y-118626483D01*
X195366207Y-118626846D01*
X195343446Y-118626841D01*
X195208179Y-118626280D01*
X195114377Y-118624104D01*
X195054517Y-118619338D01*
X195021075Y-118611002D01*
X195006527Y-118598120D01*
X195003350Y-118579716D01*
X194996322Y-118552301D01*
X194959557Y-118520834D01*
X194940748Y-118506259D01*
X194900541Y-118448746D01*
X194848132Y-118352901D01*
X194786524Y-118223876D01*
X194739535Y-118120326D01*
X194675705Y-117980026D01*
X194615489Y-117848020D01*
X194567387Y-117742965D01*
X194530058Y-117660721D01*
X194504385Y-117598368D01*
X194497100Y-117565646D01*
X194506572Y-117554101D01*
X194531170Y-117555280D01*
G37*
G36*
X187107614Y-119452659D02*
G01*
X187101866Y-119580020D01*
X187076677Y-119711992D01*
X187030644Y-119802084D01*
X186962877Y-119852758D01*
X186850920Y-119876249D01*
X186743162Y-119859862D01*
X186652944Y-119807319D01*
X186592343Y-119722854D01*
X186574770Y-119655814D01*
X186562218Y-119555046D01*
X186560008Y-119500793D01*
X186651267Y-119500793D01*
X186657376Y-119577556D01*
X186669327Y-119652056D01*
X186688729Y-119699239D01*
X186719498Y-119732396D01*
X186774660Y-119764878D01*
X186861475Y-119773316D01*
X186945641Y-119732783D01*
X186961737Y-119718007D01*
X186987698Y-119677005D01*
X187003563Y-119613535D01*
X187013609Y-119513817D01*
X187014585Y-119357929D01*
X186991950Y-119233014D01*
X186945762Y-119149511D01*
X186876747Y-119108703D01*
X186785632Y-119111869D01*
X186727695Y-119142514D01*
X186677609Y-119219620D01*
X186652048Y-119339289D01*
X186651267Y-119500793D01*
X186560008Y-119500793D01*
X186557537Y-119440147D01*
X186561950Y-119328608D01*
X186574296Y-119227146D01*
X186592343Y-119157440D01*
X186593140Y-119155570D01*
X186652971Y-119071539D01*
X186737258Y-119021244D01*
X186833718Y-119004687D01*
X186930063Y-119021868D01*
X187014010Y-119072785D01*
X187073274Y-119157440D01*
X187090550Y-119222655D01*
X187103191Y-119327550D01*
X187104265Y-119357929D01*
X187107614Y-119452659D01*
G37*
G36*
X186358195Y-119024477D02*
G01*
X186439525Y-119073904D01*
X186495444Y-119153495D01*
X186510051Y-119192323D01*
X186513966Y-119231042D01*
X186492713Y-119254390D01*
X186470507Y-119267061D01*
X186431956Y-119273469D01*
X186419902Y-119239950D01*
X186419721Y-119233859D01*
X186394615Y-119172206D01*
X186337354Y-119128943D01*
X186262634Y-119108358D01*
X186185153Y-119114736D01*
X186119606Y-119152364D01*
X186083922Y-119195854D01*
X186067833Y-119244396D01*
X186079270Y-119299271D01*
X186121088Y-119366754D01*
X186196142Y-119453118D01*
X186307291Y-119564638D01*
X186324558Y-119581489D01*
X186410802Y-119669164D01*
X186480832Y-119746101D01*
X186527842Y-119804512D01*
X186545025Y-119836610D01*
X186545001Y-119838180D01*
X186538422Y-119855687D01*
X186514539Y-119867252D01*
X186465170Y-119874052D01*
X186382132Y-119877268D01*
X186257242Y-119878078D01*
X186186884Y-119877965D01*
X186086031Y-119876549D01*
X186022329Y-119872321D01*
X185987312Y-119863806D01*
X185972511Y-119849533D01*
X185969458Y-119828029D01*
X185971209Y-119809756D01*
X185984240Y-119792538D01*
X186018351Y-119782963D01*
X186083195Y-119778818D01*
X186188424Y-119777894D01*
X186407389Y-119777808D01*
X186216981Y-119603919D01*
X186123192Y-119514327D01*
X186042011Y-119422372D01*
X185994272Y-119342973D01*
X185975312Y-119267950D01*
X185980465Y-119189124D01*
X186011977Y-119112268D01*
X186078344Y-119049109D01*
X186165944Y-119012886D01*
X186263114Y-119004407D01*
X186358195Y-119024477D01*
G37*
G36*
X187559377Y-119024477D02*
G01*
X187640708Y-119073904D01*
X187696627Y-119153495D01*
X187711234Y-119192323D01*
X187715148Y-119231042D01*
X187693895Y-119254390D01*
X187671689Y-119267061D01*
X187633138Y-119273469D01*
X187621084Y-119239950D01*
X187620904Y-119233859D01*
X187595797Y-119172206D01*
X187538536Y-119128943D01*
X187463817Y-119108358D01*
X187386336Y-119114736D01*
X187320789Y-119152364D01*
X187285104Y-119195854D01*
X187269016Y-119244396D01*
X187280452Y-119299271D01*
X187322270Y-119366754D01*
X187397325Y-119453118D01*
X187508473Y-119564638D01*
X187525740Y-119581489D01*
X187611984Y-119669164D01*
X187682014Y-119746101D01*
X187729024Y-119804512D01*
X187746207Y-119836610D01*
X187746183Y-119838180D01*
X187739604Y-119855687D01*
X187715721Y-119867252D01*
X187666352Y-119874052D01*
X187583314Y-119877268D01*
X187458424Y-119878078D01*
X187388066Y-119877965D01*
X187287213Y-119876549D01*
X187223512Y-119872321D01*
X187188494Y-119863806D01*
X187173693Y-119849533D01*
X187170641Y-119828029D01*
X187172391Y-119809756D01*
X187185423Y-119792538D01*
X187219534Y-119782963D01*
X187284377Y-119778818D01*
X187389606Y-119777894D01*
X187608572Y-119777808D01*
X187418163Y-119603919D01*
X187324375Y-119514327D01*
X187243194Y-119422372D01*
X187195455Y-119342973D01*
X187176494Y-119267950D01*
X187181648Y-119189124D01*
X187213159Y-119112268D01*
X187279526Y-119049109D01*
X187367126Y-119012886D01*
X187464296Y-119004407D01*
X187559377Y-119024477D01*
G37*
G36*
X195695710Y-116132549D02*
G01*
X195694255Y-116166130D01*
X195688523Y-116184722D01*
X195668869Y-116250322D01*
X195641131Y-116344211D01*
X195608085Y-116456851D01*
X195572507Y-116578705D01*
X195537173Y-116700233D01*
X195504858Y-116811899D01*
X195478340Y-116904164D01*
X195460393Y-116967490D01*
X195453793Y-116992339D01*
X195453789Y-116992421D01*
X195431482Y-116997950D01*
X195378720Y-117000245D01*
X195377937Y-117000245D01*
X195325441Y-116997896D01*
X195303646Y-116992339D01*
X195302080Y-116985855D01*
X195289706Y-116941408D01*
X195267312Y-116863048D01*
X195237674Y-116760311D01*
X195203568Y-116642737D01*
X195167771Y-116519863D01*
X195133058Y-116401227D01*
X195102205Y-116296368D01*
X195077988Y-116214822D01*
X195063184Y-116166130D01*
X195060994Y-116158604D01*
X195064485Y-116130071D01*
X195104921Y-116128593D01*
X195123290Y-116134040D01*
X195144754Y-116152466D01*
X195166378Y-116190387D01*
X195191307Y-116255028D01*
X195222687Y-116353618D01*
X195263660Y-116493381D01*
X195281212Y-116553766D01*
X195316345Y-116670727D01*
X195346113Y-116764657D01*
X195367807Y-116827167D01*
X195378720Y-116849867D01*
X195382321Y-116844715D01*
X195398625Y-116802307D01*
X195424441Y-116724023D01*
X195457062Y-116618252D01*
X195493779Y-116493381D01*
X195526253Y-116381986D01*
X195559570Y-116274526D01*
X195585710Y-116202684D01*
X195607818Y-116159232D01*
X195629040Y-116136943D01*
X195652518Y-116128593D01*
X195661729Y-116127382D01*
X195695710Y-116132549D01*
G37*
G36*
X187899643Y-117555280D02*
G01*
X187901983Y-117555716D01*
X187924844Y-117568767D01*
X187952642Y-117601864D01*
X187988306Y-117660210D01*
X188034763Y-117749007D01*
X188094943Y-117873459D01*
X188171774Y-118038768D01*
X188390223Y-118514236D01*
X189407033Y-118520772D01*
X189615504Y-118522150D01*
X189830243Y-118523799D01*
X190003146Y-118525634D01*
X190138742Y-118527904D01*
X190241561Y-118530862D01*
X190316133Y-118534757D01*
X190366989Y-118539840D01*
X190398657Y-118546363D01*
X190415669Y-118554577D01*
X190422554Y-118564731D01*
X190423843Y-118577078D01*
X190422946Y-118588097D01*
X190417110Y-118598413D01*
X190401817Y-118606714D01*
X190372559Y-118613219D01*
X190324825Y-118618148D01*
X190254104Y-118621717D01*
X190155886Y-118624147D01*
X190025660Y-118625656D01*
X189858916Y-118626463D01*
X189651144Y-118626787D01*
X189397833Y-118626846D01*
X189221913Y-118626815D01*
X188999615Y-118626557D01*
X188819831Y-118625860D01*
X188678061Y-118624520D01*
X188569800Y-118622328D01*
X188490547Y-118619077D01*
X188435801Y-118614562D01*
X188401057Y-118608575D01*
X188381814Y-118600910D01*
X188373570Y-118591359D01*
X188371823Y-118579716D01*
X188364795Y-118552301D01*
X188328030Y-118520834D01*
X188309221Y-118506259D01*
X188269014Y-118448746D01*
X188216605Y-118352901D01*
X188154997Y-118223876D01*
X188108008Y-118120326D01*
X188044178Y-117980026D01*
X187983962Y-117848020D01*
X187935860Y-117742965D01*
X187898531Y-117660721D01*
X187872857Y-117598368D01*
X187865573Y-117565646D01*
X187875045Y-117554101D01*
X187899643Y-117555280D01*
G37*
G36*
X193422841Y-114197518D02*
G01*
X193704023Y-114197678D01*
X193942502Y-114198070D01*
X194141795Y-114198799D01*
X194305417Y-114199969D01*
X194436886Y-114201684D01*
X194539718Y-114204049D01*
X194617430Y-114207167D01*
X194673538Y-114211143D01*
X194711559Y-114216081D01*
X194735010Y-114222085D01*
X194747406Y-114229259D01*
X194752266Y-114237708D01*
X194753104Y-114247536D01*
X194753101Y-114248469D01*
X194752048Y-114258170D01*
X194746660Y-114266501D01*
X194733423Y-114273567D01*
X194708818Y-114279472D01*
X194669330Y-114284321D01*
X194611441Y-114288216D01*
X194531636Y-114291263D01*
X194426398Y-114293565D01*
X194292210Y-114295228D01*
X194125555Y-114296354D01*
X193922917Y-114297049D01*
X193680780Y-114297416D01*
X193395627Y-114297560D01*
X193063941Y-114297585D01*
X193032443Y-114297585D01*
X192705041Y-114297554D01*
X192423859Y-114297394D01*
X192185380Y-114297002D01*
X191986088Y-114296273D01*
X191822465Y-114295103D01*
X191690996Y-114293388D01*
X191588164Y-114291023D01*
X191510452Y-114287905D01*
X191454344Y-114283929D01*
X191416323Y-114278991D01*
X191392872Y-114272987D01*
X191380476Y-114265813D01*
X191375617Y-114257364D01*
X191374779Y-114247536D01*
X191374781Y-114246603D01*
X191375835Y-114236902D01*
X191381222Y-114228571D01*
X191394460Y-114221505D01*
X191419064Y-114215600D01*
X191458553Y-114210752D01*
X191516441Y-114206856D01*
X191596246Y-114203809D01*
X191701485Y-114201507D01*
X191835673Y-114199844D01*
X192002327Y-114198718D01*
X192204965Y-114198023D01*
X192447102Y-114197656D01*
X192732255Y-114197512D01*
X193063941Y-114197487D01*
X193095440Y-114197487D01*
X193422841Y-114197518D01*
G37*
G36*
X185653965Y-119002457D02*
G01*
X185730939Y-119005290D01*
X185774734Y-119013657D01*
X185796229Y-119030441D01*
X185806304Y-119058521D01*
X185821423Y-119124299D01*
X185849798Y-119250042D01*
X185868140Y-119337716D01*
X185877496Y-119394818D01*
X185878916Y-119428843D01*
X185873447Y-119447289D01*
X185862139Y-119457652D01*
X185830727Y-119473658D01*
X185798739Y-119467835D01*
X185756749Y-119427635D01*
X185712674Y-119395896D01*
X185627747Y-119377585D01*
X185609859Y-119378243D01*
X185521831Y-119406324D01*
X185464451Y-119471177D01*
X185443941Y-119566408D01*
X185446479Y-119599647D01*
X185478722Y-119683085D01*
X185538824Y-119743444D01*
X185615084Y-119774911D01*
X185695797Y-119771676D01*
X185769261Y-119727930D01*
X185803158Y-119687379D01*
X185819311Y-119652856D01*
X185828696Y-119638311D01*
X185869360Y-119627832D01*
X185902436Y-119634861D01*
X185917275Y-119667376D01*
X185894214Y-119721774D01*
X185834325Y-119792994D01*
X185796644Y-119827798D01*
X185731127Y-119867195D01*
X185657910Y-119878078D01*
X185591686Y-119871999D01*
X185482454Y-119828997D01*
X185402008Y-119750855D01*
X185356475Y-119644782D01*
X185351982Y-119517992D01*
X185379888Y-119427537D01*
X185442878Y-119345247D01*
X185528364Y-119293161D01*
X185625448Y-119277544D01*
X185723225Y-119304659D01*
X185740408Y-119313404D01*
X185764442Y-119317048D01*
X185760306Y-119285891D01*
X185747616Y-119240067D01*
X185730200Y-119171132D01*
X185727996Y-119162129D01*
X185715249Y-119128557D01*
X185690406Y-119110687D01*
X185640819Y-119103585D01*
X185553839Y-119102314D01*
X185473683Y-119101065D01*
X185421927Y-119094636D01*
X185399044Y-119079531D01*
X185393892Y-119052265D01*
X185394608Y-119039216D01*
X185404584Y-119019240D01*
X185434358Y-119008098D01*
X185494008Y-119003265D01*
X185593612Y-119002216D01*
X185653965Y-119002457D01*
G37*
%TD*%
M02*
