%TF.GenerationSoftware,KiCad,Pcbnew,8.0.5*%
%TF.CreationDate,2024-10-08T11:28:01+02:00*%
%TF.ProjectId,sdiskII_stm32,73646973-6b49-4495-9f73-746d33322e6b,rev?*%
%TF.SameCoordinates,Original*%
%TF.FileFunction,Soldermask,Bot*%
%TF.FilePolarity,Negative*%
%FSLAX46Y46*%
G04 Gerber Fmt 4.6, Leading zero omitted, Abs format (unit mm)*
G04 Created by KiCad (PCBNEW 8.0.5) date 2024-10-08 11:28:01*
%MOMM*%
%LPD*%
G01*
G04 APERTURE LIST*
G04 Aperture macros list*
%AMRoundRect*
0 Rectangle with rounded corners*
0 $1 Rounding radius*
0 $2 $3 $4 $5 $6 $7 $8 $9 X,Y pos of 4 corners*
0 Add a 4 corners polygon primitive as box body*
4,1,4,$2,$3,$4,$5,$6,$7,$8,$9,$2,$3,0*
0 Add four circle primitives for the rounded corners*
1,1,$1+$1,$2,$3*
1,1,$1+$1,$4,$5*
1,1,$1+$1,$6,$7*
1,1,$1+$1,$8,$9*
0 Add four rect primitives between the rounded corners*
20,1,$1+$1,$2,$3,$4,$5,0*
20,1,$1+$1,$4,$5,$6,$7,0*
20,1,$1+$1,$6,$7,$8,$9,0*
20,1,$1+$1,$8,$9,$2,$3,0*%
G04 Aperture macros list end*
%ADD10RoundRect,0.250000X0.600000X-0.600000X0.600000X0.600000X-0.600000X0.600000X-0.600000X-0.600000X0*%
%ADD11C,1.700000*%
%ADD12C,2.000000*%
%ADD13C,1.600000*%
%ADD14O,1.600000X1.600000*%
%ADD15R,1.700000X1.700000*%
%ADD16O,1.700000X1.700000*%
%ADD17R,1.524000X1.524000*%
%ADD18RoundRect,0.102000X-0.754000X-0.754000X0.754000X-0.754000X0.754000X0.754000X-0.754000X0.754000X0*%
%ADD19C,1.712000*%
%ADD20C,3.204000*%
%ADD21C,1.000000*%
G04 APERTURE END LIST*
D10*
%TO.C,J2*%
X178290000Y-92490000D03*
D11*
X178290000Y-89950000D03*
X180830000Y-92490000D03*
X180830000Y-89950000D03*
X183370000Y-92490000D03*
X183370000Y-89950000D03*
X185910000Y-92490000D03*
X185910000Y-89950000D03*
X188450000Y-92490000D03*
X188450000Y-89950000D03*
X190990000Y-92490000D03*
X190990000Y-89950000D03*
X193530000Y-92490000D03*
X193530000Y-89950000D03*
X196070000Y-92490000D03*
X196070000Y-89950000D03*
X198610000Y-92490000D03*
X198610000Y-89950000D03*
X201150000Y-92490000D03*
X201150000Y-89950000D03*
%TD*%
D12*
%TO.C,UP1*%
X190040000Y-130950000D03*
X183540000Y-130950000D03*
X190040000Y-126450000D03*
X183540000Y-126450000D03*
%TD*%
D13*
%TO.C,R1*%
X201600000Y-127330000D03*
D14*
X201600000Y-117170000D03*
%TD*%
D15*
%TO.C,J5*%
X135240000Y-116670000D03*
D16*
X135240000Y-119210000D03*
X135240000Y-121750000D03*
%TD*%
D15*
%TO.C,J4*%
X135240000Y-104975000D03*
D16*
X135240000Y-107515000D03*
X135240000Y-110055000D03*
%TD*%
D15*
%TO.C,\u03BCC1*%
X154050000Y-88440000D03*
D11*
X154050000Y-90980000D03*
X154050000Y-93520000D03*
X154050000Y-96060000D03*
X154050000Y-98600000D03*
X154050000Y-101140000D03*
X154050000Y-103680000D03*
X154050000Y-106220000D03*
X154050000Y-108760000D03*
X154050000Y-111300000D03*
X154050000Y-113840000D03*
X154050000Y-116380000D03*
X154050000Y-118920000D03*
X154050000Y-121460000D03*
X154050000Y-124000000D03*
X154050000Y-126540000D03*
X154050000Y-129080000D03*
X154050000Y-131620000D03*
X154050000Y-134160000D03*
X154050000Y-136700000D03*
X169290000Y-136700000D03*
X169290000Y-134160000D03*
X169290000Y-131620000D03*
X169290000Y-129080000D03*
X169290000Y-126540000D03*
X169290000Y-124000000D03*
X169290000Y-121460000D03*
X169290000Y-118920000D03*
X169290000Y-116380000D03*
X169290000Y-113840000D03*
X169290000Y-111300000D03*
X169290000Y-108760000D03*
X169290000Y-106220000D03*
X169290000Y-103680000D03*
X169290000Y-101140000D03*
X169290000Y-98600000D03*
X169290000Y-96060000D03*
X169290000Y-93520000D03*
X169290000Y-90980000D03*
D15*
X169290000Y-88440000D03*
D17*
X157860000Y-132890000D03*
D11*
X160400000Y-132890000D03*
X162940000Y-132890000D03*
X165480000Y-132890000D03*
%TD*%
D15*
%TO.C,J1*%
X204840000Y-98810000D03*
D16*
X204840000Y-101350000D03*
%TD*%
D12*
%TO.C,ENTR1*%
X198540000Y-129700000D03*
X198540000Y-136200000D03*
X194040000Y-129700000D03*
X194040000Y-136200000D03*
%TD*%
D15*
%TO.C,J6*%
X135240000Y-128180000D03*
D16*
X135240000Y-130720000D03*
X135240000Y-133260000D03*
X135240000Y-135800000D03*
%TD*%
D13*
%TO.C,R3*%
X204950000Y-121120000D03*
D14*
X204950000Y-131280000D03*
%TD*%
D18*
%TO.C,U8*%
X182980000Y-98950000D03*
D19*
X185520000Y-98950000D03*
X188060000Y-98950000D03*
X190600000Y-98950000D03*
D20*
X175790000Y-99450000D03*
X197790000Y-99450000D03*
X197790000Y-121450000D03*
X175790000Y-121450000D03*
%TD*%
D21*
%TO.C,U2*%
X138340000Y-90350000D03*
X146340000Y-90350000D03*
%TD*%
D13*
%TO.C,R2*%
X201600000Y-129500000D03*
D14*
X201600000Y-139660000D03*
%TD*%
D15*
%TO.C,J3*%
X204940000Y-118030000D03*
D16*
X204940000Y-115490000D03*
X204940000Y-112950000D03*
X204940000Y-110410000D03*
X204940000Y-107870000D03*
%TD*%
D12*
%TO.C,RET1*%
X179540000Y-129700000D03*
X179540000Y-136200000D03*
X175040000Y-129700000D03*
X175040000Y-136200000D03*
%TD*%
%TO.C,DOWN1*%
X183540000Y-134950000D03*
X190040000Y-134950000D03*
X183540000Y-139450000D03*
X190040000Y-139450000D03*
%TD*%
M02*
