%TF.GenerationSoftware,KiCad,Pcbnew,8.0.5*%
%TF.CreationDate,2024-10-08T11:28:01+02:00*%
%TF.ProjectId,sdiskII_stm32,73646973-6b49-4495-9f73-746d33322e6b,rev?*%
%TF.SameCoordinates,Original*%
%TF.FileFunction,Legend,Top*%
%TF.FilePolarity,Positive*%
%FSLAX46Y46*%
G04 Gerber Fmt 4.6, Leading zero omitted, Abs format (unit mm)*
G04 Created by KiCad (PCBNEW 8.0.5) date 2024-10-08 11:28:01*
%MOMM*%
%LPD*%
G01*
G04 APERTURE LIST*
%ADD10C,0.187500*%
%ADD11C,0.150000*%
%ADD12C,0.300000*%
%ADD13C,0.160000*%
%ADD14C,0.203200*%
%ADD15C,0.120000*%
%ADD16C,0.000000*%
%ADD17C,0.250000*%
%ADD18C,0.127000*%
%ADD19C,0.200000*%
G04 APERTURE END LIST*
D10*
X137258593Y-116367869D02*
X137830021Y-116367869D01*
X137544307Y-117367869D02*
X137544307Y-116367869D01*
X138163355Y-117367869D02*
X138163355Y-116367869D01*
X138639545Y-117367869D02*
X138639545Y-116367869D01*
X138639545Y-116367869D02*
X138972878Y-117082154D01*
X138972878Y-117082154D02*
X139306211Y-116367869D01*
X139306211Y-116367869D02*
X139306211Y-117367869D01*
X139734783Y-116463107D02*
X139782402Y-116415488D01*
X139782402Y-116415488D02*
X139877640Y-116367869D01*
X139877640Y-116367869D02*
X140115735Y-116367869D01*
X140115735Y-116367869D02*
X140210973Y-116415488D01*
X140210973Y-116415488D02*
X140258592Y-116463107D01*
X140258592Y-116463107D02*
X140306211Y-116558345D01*
X140306211Y-116558345D02*
X140306211Y-116653583D01*
X140306211Y-116653583D02*
X140258592Y-116796440D01*
X140258592Y-116796440D02*
X139687164Y-117367869D01*
X139687164Y-117367869D02*
X140306211Y-117367869D01*
X141306211Y-117272630D02*
X141258592Y-117320250D01*
X141258592Y-117320250D02*
X141115735Y-117367869D01*
X141115735Y-117367869D02*
X141020497Y-117367869D01*
X141020497Y-117367869D02*
X140877640Y-117320250D01*
X140877640Y-117320250D02*
X140782402Y-117225011D01*
X140782402Y-117225011D02*
X140734783Y-117129773D01*
X140734783Y-117129773D02*
X140687164Y-116939297D01*
X140687164Y-116939297D02*
X140687164Y-116796440D01*
X140687164Y-116796440D02*
X140734783Y-116605964D01*
X140734783Y-116605964D02*
X140782402Y-116510726D01*
X140782402Y-116510726D02*
X140877640Y-116415488D01*
X140877640Y-116415488D02*
X141020497Y-116367869D01*
X141020497Y-116367869D02*
X141115735Y-116367869D01*
X141115735Y-116367869D02*
X141258592Y-116415488D01*
X141258592Y-116415488D02*
X141306211Y-116463107D01*
X141734783Y-117367869D02*
X141734783Y-116367869D01*
X141734783Y-116844059D02*
X142306211Y-116844059D01*
X142306211Y-117367869D02*
X142306211Y-116367869D01*
X142687164Y-116367869D02*
X143306211Y-116367869D01*
X143306211Y-116367869D02*
X142972878Y-116748821D01*
X142972878Y-116748821D02*
X143115735Y-116748821D01*
X143115735Y-116748821D02*
X143210973Y-116796440D01*
X143210973Y-116796440D02*
X143258592Y-116844059D01*
X143258592Y-116844059D02*
X143306211Y-116939297D01*
X143306211Y-116939297D02*
X143306211Y-117177392D01*
X143306211Y-117177392D02*
X143258592Y-117272630D01*
X143258592Y-117272630D02*
X143210973Y-117320250D01*
X143210973Y-117320250D02*
X143115735Y-117367869D01*
X143115735Y-117367869D02*
X142830021Y-117367869D01*
X142830021Y-117367869D02*
X142734783Y-117320250D01*
X142734783Y-117320250D02*
X142687164Y-117272630D01*
X137925259Y-135565488D02*
X137830021Y-135517869D01*
X137830021Y-135517869D02*
X137687164Y-135517869D01*
X137687164Y-135517869D02*
X137544307Y-135565488D01*
X137544307Y-135565488D02*
X137449069Y-135660726D01*
X137449069Y-135660726D02*
X137401450Y-135755964D01*
X137401450Y-135755964D02*
X137353831Y-135946440D01*
X137353831Y-135946440D02*
X137353831Y-136089297D01*
X137353831Y-136089297D02*
X137401450Y-136279773D01*
X137401450Y-136279773D02*
X137449069Y-136375011D01*
X137449069Y-136375011D02*
X137544307Y-136470250D01*
X137544307Y-136470250D02*
X137687164Y-136517869D01*
X137687164Y-136517869D02*
X137782402Y-136517869D01*
X137782402Y-136517869D02*
X137925259Y-136470250D01*
X137925259Y-136470250D02*
X137972878Y-136422630D01*
X137972878Y-136422630D02*
X137972878Y-136089297D01*
X137972878Y-136089297D02*
X137782402Y-136089297D01*
X138401450Y-136517869D02*
X138401450Y-135517869D01*
X138401450Y-135517869D02*
X138972878Y-136517869D01*
X138972878Y-136517869D02*
X138972878Y-135517869D01*
X139449069Y-136517869D02*
X139449069Y-135517869D01*
X139449069Y-135517869D02*
X139687164Y-135517869D01*
X139687164Y-135517869D02*
X139830021Y-135565488D01*
X139830021Y-135565488D02*
X139925259Y-135660726D01*
X139925259Y-135660726D02*
X139972878Y-135755964D01*
X139972878Y-135755964D02*
X140020497Y-135946440D01*
X140020497Y-135946440D02*
X140020497Y-136089297D01*
X140020497Y-136089297D02*
X139972878Y-136279773D01*
X139972878Y-136279773D02*
X139925259Y-136375011D01*
X139925259Y-136375011D02*
X139830021Y-136470250D01*
X139830021Y-136470250D02*
X139687164Y-136517869D01*
X139687164Y-136517869D02*
X139449069Y-136517869D01*
X137401450Y-114667869D02*
X137401450Y-113667869D01*
X137401450Y-113667869D02*
X137639545Y-113667869D01*
X137639545Y-113667869D02*
X137782402Y-113715488D01*
X137782402Y-113715488D02*
X137877640Y-113810726D01*
X137877640Y-113810726D02*
X137925259Y-113905964D01*
X137925259Y-113905964D02*
X137972878Y-114096440D01*
X137972878Y-114096440D02*
X137972878Y-114239297D01*
X137972878Y-114239297D02*
X137925259Y-114429773D01*
X137925259Y-114429773D02*
X137877640Y-114525011D01*
X137877640Y-114525011D02*
X137782402Y-114620250D01*
X137782402Y-114620250D02*
X137639545Y-114667869D01*
X137639545Y-114667869D02*
X137401450Y-114667869D01*
X138401450Y-114144059D02*
X138734783Y-114144059D01*
X138877640Y-114667869D02*
X138401450Y-114667869D01*
X138401450Y-114667869D02*
X138401450Y-113667869D01*
X138401450Y-113667869D02*
X138877640Y-113667869D01*
X139639545Y-114144059D02*
X139782402Y-114191678D01*
X139782402Y-114191678D02*
X139830021Y-114239297D01*
X139830021Y-114239297D02*
X139877640Y-114334535D01*
X139877640Y-114334535D02*
X139877640Y-114477392D01*
X139877640Y-114477392D02*
X139830021Y-114572630D01*
X139830021Y-114572630D02*
X139782402Y-114620250D01*
X139782402Y-114620250D02*
X139687164Y-114667869D01*
X139687164Y-114667869D02*
X139306212Y-114667869D01*
X139306212Y-114667869D02*
X139306212Y-113667869D01*
X139306212Y-113667869D02*
X139639545Y-113667869D01*
X139639545Y-113667869D02*
X139734783Y-113715488D01*
X139734783Y-113715488D02*
X139782402Y-113763107D01*
X139782402Y-113763107D02*
X139830021Y-113858345D01*
X139830021Y-113858345D02*
X139830021Y-113953583D01*
X139830021Y-113953583D02*
X139782402Y-114048821D01*
X139782402Y-114048821D02*
X139734783Y-114096440D01*
X139734783Y-114096440D02*
X139639545Y-114144059D01*
X139639545Y-114144059D02*
X139306212Y-114144059D01*
X140306212Y-113667869D02*
X140306212Y-114477392D01*
X140306212Y-114477392D02*
X140353831Y-114572630D01*
X140353831Y-114572630D02*
X140401450Y-114620250D01*
X140401450Y-114620250D02*
X140496688Y-114667869D01*
X140496688Y-114667869D02*
X140687164Y-114667869D01*
X140687164Y-114667869D02*
X140782402Y-114620250D01*
X140782402Y-114620250D02*
X140830021Y-114572630D01*
X140830021Y-114572630D02*
X140877640Y-114477392D01*
X140877640Y-114477392D02*
X140877640Y-113667869D01*
X141877640Y-113715488D02*
X141782402Y-113667869D01*
X141782402Y-113667869D02*
X141639545Y-113667869D01*
X141639545Y-113667869D02*
X141496688Y-113715488D01*
X141496688Y-113715488D02*
X141401450Y-113810726D01*
X141401450Y-113810726D02*
X141353831Y-113905964D01*
X141353831Y-113905964D02*
X141306212Y-114096440D01*
X141306212Y-114096440D02*
X141306212Y-114239297D01*
X141306212Y-114239297D02*
X141353831Y-114429773D01*
X141353831Y-114429773D02*
X141401450Y-114525011D01*
X141401450Y-114525011D02*
X141496688Y-114620250D01*
X141496688Y-114620250D02*
X141639545Y-114667869D01*
X141639545Y-114667869D02*
X141734783Y-114667869D01*
X141734783Y-114667869D02*
X141877640Y-114620250D01*
X141877640Y-114620250D02*
X141925259Y-114572630D01*
X141925259Y-114572630D02*
X141925259Y-114239297D01*
X141925259Y-114239297D02*
X141734783Y-114239297D01*
X182605488Y-102564740D02*
X182557869Y-102659978D01*
X182557869Y-102659978D02*
X182557869Y-102802835D01*
X182557869Y-102802835D02*
X182605488Y-102945692D01*
X182605488Y-102945692D02*
X182700726Y-103040930D01*
X182700726Y-103040930D02*
X182795964Y-103088549D01*
X182795964Y-103088549D02*
X182986440Y-103136168D01*
X182986440Y-103136168D02*
X183129297Y-103136168D01*
X183129297Y-103136168D02*
X183319773Y-103088549D01*
X183319773Y-103088549D02*
X183415011Y-103040930D01*
X183415011Y-103040930D02*
X183510250Y-102945692D01*
X183510250Y-102945692D02*
X183557869Y-102802835D01*
X183557869Y-102802835D02*
X183557869Y-102707597D01*
X183557869Y-102707597D02*
X183510250Y-102564740D01*
X183510250Y-102564740D02*
X183462630Y-102517121D01*
X183462630Y-102517121D02*
X183129297Y-102517121D01*
X183129297Y-102517121D02*
X183129297Y-102707597D01*
X183557869Y-102088549D02*
X182557869Y-102088549D01*
X182557869Y-102088549D02*
X183557869Y-101517121D01*
X183557869Y-101517121D02*
X182557869Y-101517121D01*
X183557869Y-101040930D02*
X182557869Y-101040930D01*
X182557869Y-101040930D02*
X182557869Y-100802835D01*
X182557869Y-100802835D02*
X182605488Y-100659978D01*
X182605488Y-100659978D02*
X182700726Y-100564740D01*
X182700726Y-100564740D02*
X182795964Y-100517121D01*
X182795964Y-100517121D02*
X182986440Y-100469502D01*
X182986440Y-100469502D02*
X183129297Y-100469502D01*
X183129297Y-100469502D02*
X183319773Y-100517121D01*
X183319773Y-100517121D02*
X183415011Y-100564740D01*
X183415011Y-100564740D02*
X183510250Y-100659978D01*
X183510250Y-100659978D02*
X183557869Y-100802835D01*
X183557869Y-100802835D02*
X183557869Y-101040930D01*
X200306212Y-110117869D02*
X200544307Y-111117869D01*
X200544307Y-111117869D02*
X200734783Y-110403583D01*
X200734783Y-110403583D02*
X200925259Y-111117869D01*
X200925259Y-111117869D02*
X201163355Y-110117869D01*
X202115735Y-111117869D02*
X201782402Y-110641678D01*
X201544307Y-111117869D02*
X201544307Y-110117869D01*
X201544307Y-110117869D02*
X201925259Y-110117869D01*
X201925259Y-110117869D02*
X202020497Y-110165488D01*
X202020497Y-110165488D02*
X202068116Y-110213107D01*
X202068116Y-110213107D02*
X202115735Y-110308345D01*
X202115735Y-110308345D02*
X202115735Y-110451202D01*
X202115735Y-110451202D02*
X202068116Y-110546440D01*
X202068116Y-110546440D02*
X202020497Y-110594059D01*
X202020497Y-110594059D02*
X201925259Y-110641678D01*
X201925259Y-110641678D02*
X201544307Y-110641678D01*
X203210973Y-111213107D02*
X203115735Y-111165488D01*
X203115735Y-111165488D02*
X203020497Y-111070250D01*
X203020497Y-111070250D02*
X202877640Y-110927392D01*
X202877640Y-110927392D02*
X202782402Y-110879773D01*
X202782402Y-110879773D02*
X202687164Y-110879773D01*
X202734783Y-111117869D02*
X202639545Y-111070250D01*
X202639545Y-111070250D02*
X202544307Y-110975011D01*
X202544307Y-110975011D02*
X202496688Y-110784535D01*
X202496688Y-110784535D02*
X202496688Y-110451202D01*
X202496688Y-110451202D02*
X202544307Y-110260726D01*
X202544307Y-110260726D02*
X202639545Y-110165488D01*
X202639545Y-110165488D02*
X202734783Y-110117869D01*
X202734783Y-110117869D02*
X202925259Y-110117869D01*
X202925259Y-110117869D02*
X203020497Y-110165488D01*
X203020497Y-110165488D02*
X203115735Y-110260726D01*
X203115735Y-110260726D02*
X203163354Y-110451202D01*
X203163354Y-110451202D02*
X203163354Y-110784535D01*
X203163354Y-110784535D02*
X203115735Y-110975011D01*
X203115735Y-110975011D02*
X203020497Y-111070250D01*
X203020497Y-111070250D02*
X202925259Y-111117869D01*
X202925259Y-111117869D02*
X202734783Y-111117869D01*
X137258593Y-118967869D02*
X137830021Y-118967869D01*
X137544307Y-119967869D02*
X137544307Y-118967869D01*
X138163355Y-119967869D02*
X138163355Y-118967869D01*
X138639545Y-119967869D02*
X138639545Y-118967869D01*
X138639545Y-118967869D02*
X138972878Y-119682154D01*
X138972878Y-119682154D02*
X139306211Y-118967869D01*
X139306211Y-118967869D02*
X139306211Y-119967869D01*
X139687164Y-118967869D02*
X140306211Y-118967869D01*
X140306211Y-118967869D02*
X139972878Y-119348821D01*
X139972878Y-119348821D02*
X140115735Y-119348821D01*
X140115735Y-119348821D02*
X140210973Y-119396440D01*
X140210973Y-119396440D02*
X140258592Y-119444059D01*
X140258592Y-119444059D02*
X140306211Y-119539297D01*
X140306211Y-119539297D02*
X140306211Y-119777392D01*
X140306211Y-119777392D02*
X140258592Y-119872630D01*
X140258592Y-119872630D02*
X140210973Y-119920250D01*
X140210973Y-119920250D02*
X140115735Y-119967869D01*
X140115735Y-119967869D02*
X139830021Y-119967869D01*
X139830021Y-119967869D02*
X139734783Y-119920250D01*
X139734783Y-119920250D02*
X139687164Y-119872630D01*
X141306211Y-119872630D02*
X141258592Y-119920250D01*
X141258592Y-119920250D02*
X141115735Y-119967869D01*
X141115735Y-119967869D02*
X141020497Y-119967869D01*
X141020497Y-119967869D02*
X140877640Y-119920250D01*
X140877640Y-119920250D02*
X140782402Y-119825011D01*
X140782402Y-119825011D02*
X140734783Y-119729773D01*
X140734783Y-119729773D02*
X140687164Y-119539297D01*
X140687164Y-119539297D02*
X140687164Y-119396440D01*
X140687164Y-119396440D02*
X140734783Y-119205964D01*
X140734783Y-119205964D02*
X140782402Y-119110726D01*
X140782402Y-119110726D02*
X140877640Y-119015488D01*
X140877640Y-119015488D02*
X141020497Y-118967869D01*
X141020497Y-118967869D02*
X141115735Y-118967869D01*
X141115735Y-118967869D02*
X141258592Y-119015488D01*
X141258592Y-119015488D02*
X141306211Y-119063107D01*
X141734783Y-119967869D02*
X141734783Y-118967869D01*
X141734783Y-119444059D02*
X142306211Y-119444059D01*
X142306211Y-119967869D02*
X142306211Y-118967869D01*
X143210973Y-119301202D02*
X143210973Y-119967869D01*
X142972878Y-118920250D02*
X142734783Y-119634535D01*
X142734783Y-119634535D02*
X143353830Y-119634535D01*
X200216212Y-115217869D02*
X200454307Y-116217869D01*
X200454307Y-116217869D02*
X200644783Y-115503583D01*
X200644783Y-115503583D02*
X200835259Y-116217869D01*
X200835259Y-116217869D02*
X201073355Y-115217869D01*
X202025735Y-116217869D02*
X201692402Y-115741678D01*
X201454307Y-116217869D02*
X201454307Y-115217869D01*
X201454307Y-115217869D02*
X201835259Y-115217869D01*
X201835259Y-115217869D02*
X201930497Y-115265488D01*
X201930497Y-115265488D02*
X201978116Y-115313107D01*
X201978116Y-115313107D02*
X202025735Y-115408345D01*
X202025735Y-115408345D02*
X202025735Y-115551202D01*
X202025735Y-115551202D02*
X201978116Y-115646440D01*
X201978116Y-115646440D02*
X201930497Y-115694059D01*
X201930497Y-115694059D02*
X201835259Y-115741678D01*
X201835259Y-115741678D02*
X201454307Y-115741678D01*
X202454307Y-116217869D02*
X202454307Y-115217869D01*
X202454307Y-115217869D02*
X202835259Y-115217869D01*
X202835259Y-115217869D02*
X202930497Y-115265488D01*
X202930497Y-115265488D02*
X202978116Y-115313107D01*
X202978116Y-115313107D02*
X203025735Y-115408345D01*
X203025735Y-115408345D02*
X203025735Y-115551202D01*
X203025735Y-115551202D02*
X202978116Y-115646440D01*
X202978116Y-115646440D02*
X202930497Y-115694059D01*
X202930497Y-115694059D02*
X202835259Y-115741678D01*
X202835259Y-115741678D02*
X202454307Y-115741678D01*
X137303831Y-131370250D02*
X137446688Y-131417869D01*
X137446688Y-131417869D02*
X137684783Y-131417869D01*
X137684783Y-131417869D02*
X137780021Y-131370250D01*
X137780021Y-131370250D02*
X137827640Y-131322630D01*
X137827640Y-131322630D02*
X137875259Y-131227392D01*
X137875259Y-131227392D02*
X137875259Y-131132154D01*
X137875259Y-131132154D02*
X137827640Y-131036916D01*
X137827640Y-131036916D02*
X137780021Y-130989297D01*
X137780021Y-130989297D02*
X137684783Y-130941678D01*
X137684783Y-130941678D02*
X137494307Y-130894059D01*
X137494307Y-130894059D02*
X137399069Y-130846440D01*
X137399069Y-130846440D02*
X137351450Y-130798821D01*
X137351450Y-130798821D02*
X137303831Y-130703583D01*
X137303831Y-130703583D02*
X137303831Y-130608345D01*
X137303831Y-130608345D02*
X137351450Y-130513107D01*
X137351450Y-130513107D02*
X137399069Y-130465488D01*
X137399069Y-130465488D02*
X137494307Y-130417869D01*
X137494307Y-130417869D02*
X137732402Y-130417869D01*
X137732402Y-130417869D02*
X137875259Y-130465488D01*
X138303831Y-131417869D02*
X138303831Y-130417869D01*
X138303831Y-130417869D02*
X138541926Y-130417869D01*
X138541926Y-130417869D02*
X138684783Y-130465488D01*
X138684783Y-130465488D02*
X138780021Y-130560726D01*
X138780021Y-130560726D02*
X138827640Y-130655964D01*
X138827640Y-130655964D02*
X138875259Y-130846440D01*
X138875259Y-130846440D02*
X138875259Y-130989297D01*
X138875259Y-130989297D02*
X138827640Y-131179773D01*
X138827640Y-131179773D02*
X138780021Y-131275011D01*
X138780021Y-131275011D02*
X138684783Y-131370250D01*
X138684783Y-131370250D02*
X138541926Y-131417869D01*
X138541926Y-131417869D02*
X138303831Y-131417869D01*
X139303831Y-131417869D02*
X139303831Y-130417869D01*
X139970497Y-130417869D02*
X140160973Y-130417869D01*
X140160973Y-130417869D02*
X140256211Y-130465488D01*
X140256211Y-130465488D02*
X140351449Y-130560726D01*
X140351449Y-130560726D02*
X140399068Y-130751202D01*
X140399068Y-130751202D02*
X140399068Y-131084535D01*
X140399068Y-131084535D02*
X140351449Y-131275011D01*
X140351449Y-131275011D02*
X140256211Y-131370250D01*
X140256211Y-131370250D02*
X140160973Y-131417869D01*
X140160973Y-131417869D02*
X139970497Y-131417869D01*
X139970497Y-131417869D02*
X139875259Y-131370250D01*
X139875259Y-131370250D02*
X139780021Y-131275011D01*
X139780021Y-131275011D02*
X139732402Y-131084535D01*
X139732402Y-131084535D02*
X139732402Y-130751202D01*
X139732402Y-130751202D02*
X139780021Y-130560726D01*
X139780021Y-130560726D02*
X139875259Y-130465488D01*
X139875259Y-130465488D02*
X139970497Y-130417869D01*
X157603831Y-114820250D02*
X157746688Y-114867869D01*
X157746688Y-114867869D02*
X157984783Y-114867869D01*
X157984783Y-114867869D02*
X158080021Y-114820250D01*
X158080021Y-114820250D02*
X158127640Y-114772630D01*
X158127640Y-114772630D02*
X158175259Y-114677392D01*
X158175259Y-114677392D02*
X158175259Y-114582154D01*
X158175259Y-114582154D02*
X158127640Y-114486916D01*
X158127640Y-114486916D02*
X158080021Y-114439297D01*
X158080021Y-114439297D02*
X157984783Y-114391678D01*
X157984783Y-114391678D02*
X157794307Y-114344059D01*
X157794307Y-114344059D02*
X157699069Y-114296440D01*
X157699069Y-114296440D02*
X157651450Y-114248821D01*
X157651450Y-114248821D02*
X157603831Y-114153583D01*
X157603831Y-114153583D02*
X157603831Y-114058345D01*
X157603831Y-114058345D02*
X157651450Y-113963107D01*
X157651450Y-113963107D02*
X157699069Y-113915488D01*
X157699069Y-113915488D02*
X157794307Y-113867869D01*
X157794307Y-113867869D02*
X158032402Y-113867869D01*
X158032402Y-113867869D02*
X158175259Y-113915488D01*
X158460974Y-113867869D02*
X159032402Y-113867869D01*
X158746688Y-114867869D02*
X158746688Y-113867869D01*
X159365736Y-114867869D02*
X159365736Y-113867869D01*
X159365736Y-113867869D02*
X159699069Y-114582154D01*
X159699069Y-114582154D02*
X160032402Y-113867869D01*
X160032402Y-113867869D02*
X160032402Y-114867869D01*
X160413355Y-113867869D02*
X161032402Y-113867869D01*
X161032402Y-113867869D02*
X160699069Y-114248821D01*
X160699069Y-114248821D02*
X160841926Y-114248821D01*
X160841926Y-114248821D02*
X160937164Y-114296440D01*
X160937164Y-114296440D02*
X160984783Y-114344059D01*
X160984783Y-114344059D02*
X161032402Y-114439297D01*
X161032402Y-114439297D02*
X161032402Y-114677392D01*
X161032402Y-114677392D02*
X160984783Y-114772630D01*
X160984783Y-114772630D02*
X160937164Y-114820250D01*
X160937164Y-114820250D02*
X160841926Y-114867869D01*
X160841926Y-114867869D02*
X160556212Y-114867869D01*
X160556212Y-114867869D02*
X160460974Y-114820250D01*
X160460974Y-114820250D02*
X160413355Y-114772630D01*
X161413355Y-113963107D02*
X161460974Y-113915488D01*
X161460974Y-113915488D02*
X161556212Y-113867869D01*
X161556212Y-113867869D02*
X161794307Y-113867869D01*
X161794307Y-113867869D02*
X161889545Y-113915488D01*
X161889545Y-113915488D02*
X161937164Y-113963107D01*
X161937164Y-113963107D02*
X161984783Y-114058345D01*
X161984783Y-114058345D02*
X161984783Y-114153583D01*
X161984783Y-114153583D02*
X161937164Y-114296440D01*
X161937164Y-114296440D02*
X161365736Y-114867869D01*
X161365736Y-114867869D02*
X161984783Y-114867869D01*
X162746688Y-114344059D02*
X162413355Y-114344059D01*
X162413355Y-114867869D02*
X162413355Y-113867869D01*
X162413355Y-113867869D02*
X162889545Y-113867869D01*
X163699069Y-114201202D02*
X163699069Y-114867869D01*
X163460974Y-113820250D02*
X163222879Y-114534535D01*
X163222879Y-114534535D02*
X163841926Y-114534535D01*
X164746688Y-114867869D02*
X164175260Y-114867869D01*
X164460974Y-114867869D02*
X164460974Y-113867869D01*
X164460974Y-113867869D02*
X164365736Y-114010726D01*
X164365736Y-114010726D02*
X164270498Y-114105964D01*
X164270498Y-114105964D02*
X164175260Y-114153583D01*
X165699069Y-114867869D02*
X165127641Y-114867869D01*
X165413355Y-114867869D02*
X165413355Y-113867869D01*
X165413355Y-113867869D02*
X165318117Y-114010726D01*
X165318117Y-114010726D02*
X165222879Y-114105964D01*
X165222879Y-114105964D02*
X165127641Y-114153583D01*
X137303831Y-126220250D02*
X137446688Y-126267869D01*
X137446688Y-126267869D02*
X137684783Y-126267869D01*
X137684783Y-126267869D02*
X137780021Y-126220250D01*
X137780021Y-126220250D02*
X137827640Y-126172630D01*
X137827640Y-126172630D02*
X137875259Y-126077392D01*
X137875259Y-126077392D02*
X137875259Y-125982154D01*
X137875259Y-125982154D02*
X137827640Y-125886916D01*
X137827640Y-125886916D02*
X137780021Y-125839297D01*
X137780021Y-125839297D02*
X137684783Y-125791678D01*
X137684783Y-125791678D02*
X137494307Y-125744059D01*
X137494307Y-125744059D02*
X137399069Y-125696440D01*
X137399069Y-125696440D02*
X137351450Y-125648821D01*
X137351450Y-125648821D02*
X137303831Y-125553583D01*
X137303831Y-125553583D02*
X137303831Y-125458345D01*
X137303831Y-125458345D02*
X137351450Y-125363107D01*
X137351450Y-125363107D02*
X137399069Y-125315488D01*
X137399069Y-125315488D02*
X137494307Y-125267869D01*
X137494307Y-125267869D02*
X137732402Y-125267869D01*
X137732402Y-125267869D02*
X137875259Y-125315488D01*
X138160974Y-125267869D02*
X138732402Y-125267869D01*
X138446688Y-126267869D02*
X138446688Y-125267869D01*
X139541926Y-126267869D02*
X139065736Y-126267869D01*
X139065736Y-126267869D02*
X139065736Y-125267869D01*
X139875260Y-126267869D02*
X139875260Y-125267869D01*
X140351450Y-126267869D02*
X140351450Y-125267869D01*
X140351450Y-125267869D02*
X140922878Y-126267869D01*
X140922878Y-126267869D02*
X140922878Y-125267869D01*
X141399069Y-126267869D02*
X141399069Y-125267869D01*
X141970497Y-126267869D02*
X141541926Y-125696440D01*
X141970497Y-125267869D02*
X141399069Y-125839297D01*
X188610250Y-102986168D02*
X188657869Y-102843311D01*
X188657869Y-102843311D02*
X188657869Y-102605216D01*
X188657869Y-102605216D02*
X188610250Y-102509978D01*
X188610250Y-102509978D02*
X188562630Y-102462359D01*
X188562630Y-102462359D02*
X188467392Y-102414740D01*
X188467392Y-102414740D02*
X188372154Y-102414740D01*
X188372154Y-102414740D02*
X188276916Y-102462359D01*
X188276916Y-102462359D02*
X188229297Y-102509978D01*
X188229297Y-102509978D02*
X188181678Y-102605216D01*
X188181678Y-102605216D02*
X188134059Y-102795692D01*
X188134059Y-102795692D02*
X188086440Y-102890930D01*
X188086440Y-102890930D02*
X188038821Y-102938549D01*
X188038821Y-102938549D02*
X187943583Y-102986168D01*
X187943583Y-102986168D02*
X187848345Y-102986168D01*
X187848345Y-102986168D02*
X187753107Y-102938549D01*
X187753107Y-102938549D02*
X187705488Y-102890930D01*
X187705488Y-102890930D02*
X187657869Y-102795692D01*
X187657869Y-102795692D02*
X187657869Y-102557597D01*
X187657869Y-102557597D02*
X187705488Y-102414740D01*
X188562630Y-101414740D02*
X188610250Y-101462359D01*
X188610250Y-101462359D02*
X188657869Y-101605216D01*
X188657869Y-101605216D02*
X188657869Y-101700454D01*
X188657869Y-101700454D02*
X188610250Y-101843311D01*
X188610250Y-101843311D02*
X188515011Y-101938549D01*
X188515011Y-101938549D02*
X188419773Y-101986168D01*
X188419773Y-101986168D02*
X188229297Y-102033787D01*
X188229297Y-102033787D02*
X188086440Y-102033787D01*
X188086440Y-102033787D02*
X187895964Y-101986168D01*
X187895964Y-101986168D02*
X187800726Y-101938549D01*
X187800726Y-101938549D02*
X187705488Y-101843311D01*
X187705488Y-101843311D02*
X187657869Y-101700454D01*
X187657869Y-101700454D02*
X187657869Y-101605216D01*
X187657869Y-101605216D02*
X187705488Y-101462359D01*
X187705488Y-101462359D02*
X187753107Y-101414740D01*
X188657869Y-100509978D02*
X188657869Y-100986168D01*
X188657869Y-100986168D02*
X187657869Y-100986168D01*
X200972878Y-108567869D02*
X200639545Y-108091678D01*
X200401450Y-108567869D02*
X200401450Y-107567869D01*
X200401450Y-107567869D02*
X200782402Y-107567869D01*
X200782402Y-107567869D02*
X200877640Y-107615488D01*
X200877640Y-107615488D02*
X200925259Y-107663107D01*
X200925259Y-107663107D02*
X200972878Y-107758345D01*
X200972878Y-107758345D02*
X200972878Y-107901202D01*
X200972878Y-107901202D02*
X200925259Y-107996440D01*
X200925259Y-107996440D02*
X200877640Y-108044059D01*
X200877640Y-108044059D02*
X200782402Y-108091678D01*
X200782402Y-108091678D02*
X200401450Y-108091678D01*
X201401450Y-108567869D02*
X201401450Y-107567869D01*
X201401450Y-107567869D02*
X201639545Y-107567869D01*
X201639545Y-107567869D02*
X201782402Y-107615488D01*
X201782402Y-107615488D02*
X201877640Y-107710726D01*
X201877640Y-107710726D02*
X201925259Y-107805964D01*
X201925259Y-107805964D02*
X201972878Y-107996440D01*
X201972878Y-107996440D02*
X201972878Y-108139297D01*
X201972878Y-108139297D02*
X201925259Y-108329773D01*
X201925259Y-108329773D02*
X201877640Y-108425011D01*
X201877640Y-108425011D02*
X201782402Y-108520250D01*
X201782402Y-108520250D02*
X201639545Y-108567869D01*
X201639545Y-108567869D02*
X201401450Y-108567869D01*
X202401450Y-108567869D02*
X202401450Y-107567869D01*
X202401450Y-107567869D02*
X202639545Y-107567869D01*
X202639545Y-107567869D02*
X202782402Y-107615488D01*
X202782402Y-107615488D02*
X202877640Y-107710726D01*
X202877640Y-107710726D02*
X202925259Y-107805964D01*
X202925259Y-107805964D02*
X202972878Y-107996440D01*
X202972878Y-107996440D02*
X202972878Y-108139297D01*
X202972878Y-108139297D02*
X202925259Y-108329773D01*
X202925259Y-108329773D02*
X202877640Y-108425011D01*
X202877640Y-108425011D02*
X202782402Y-108520250D01*
X202782402Y-108520250D02*
X202639545Y-108567869D01*
X202639545Y-108567869D02*
X202401450Y-108567869D01*
X145904739Y-135934115D02*
X146047596Y-135981734D01*
X146047596Y-135981734D02*
X146095215Y-136029353D01*
X146095215Y-136029353D02*
X146142834Y-136124591D01*
X146142834Y-136124591D02*
X146142834Y-136267448D01*
X146142834Y-136267448D02*
X146095215Y-136362686D01*
X146095215Y-136362686D02*
X146047596Y-136410306D01*
X146047596Y-136410306D02*
X145952358Y-136457925D01*
X145952358Y-136457925D02*
X145571406Y-136457925D01*
X145571406Y-136457925D02*
X145571406Y-135457925D01*
X145571406Y-135457925D02*
X145904739Y-135457925D01*
X145904739Y-135457925D02*
X145999977Y-135505544D01*
X145999977Y-135505544D02*
X146047596Y-135553163D01*
X146047596Y-135553163D02*
X146095215Y-135648401D01*
X146095215Y-135648401D02*
X146095215Y-135743639D01*
X146095215Y-135743639D02*
X146047596Y-135838877D01*
X146047596Y-135838877D02*
X145999977Y-135886496D01*
X145999977Y-135886496D02*
X145904739Y-135934115D01*
X145904739Y-135934115D02*
X145571406Y-135934115D01*
X146714263Y-136457925D02*
X146619025Y-136410306D01*
X146619025Y-136410306D02*
X146571406Y-136362686D01*
X146571406Y-136362686D02*
X146523787Y-136267448D01*
X146523787Y-136267448D02*
X146523787Y-135981734D01*
X146523787Y-135981734D02*
X146571406Y-135886496D01*
X146571406Y-135886496D02*
X146619025Y-135838877D01*
X146619025Y-135838877D02*
X146714263Y-135791258D01*
X146714263Y-135791258D02*
X146857120Y-135791258D01*
X146857120Y-135791258D02*
X146952358Y-135838877D01*
X146952358Y-135838877D02*
X146999977Y-135886496D01*
X146999977Y-135886496D02*
X147047596Y-135981734D01*
X147047596Y-135981734D02*
X147047596Y-136267448D01*
X147047596Y-136267448D02*
X146999977Y-136362686D01*
X146999977Y-136362686D02*
X146952358Y-136410306D01*
X146952358Y-136410306D02*
X146857120Y-136457925D01*
X146857120Y-136457925D02*
X146714263Y-136457925D01*
X147904739Y-136457925D02*
X147904739Y-135934115D01*
X147904739Y-135934115D02*
X147857120Y-135838877D01*
X147857120Y-135838877D02*
X147761882Y-135791258D01*
X147761882Y-135791258D02*
X147571406Y-135791258D01*
X147571406Y-135791258D02*
X147476168Y-135838877D01*
X147904739Y-136410306D02*
X147809501Y-136457925D01*
X147809501Y-136457925D02*
X147571406Y-136457925D01*
X147571406Y-136457925D02*
X147476168Y-136410306D01*
X147476168Y-136410306D02*
X147428549Y-136315067D01*
X147428549Y-136315067D02*
X147428549Y-136219829D01*
X147428549Y-136219829D02*
X147476168Y-136124591D01*
X147476168Y-136124591D02*
X147571406Y-136076972D01*
X147571406Y-136076972D02*
X147809501Y-136076972D01*
X147809501Y-136076972D02*
X147904739Y-136029353D01*
X148380930Y-136457925D02*
X148380930Y-135791258D01*
X148380930Y-135981734D02*
X148428549Y-135886496D01*
X148428549Y-135886496D02*
X148476168Y-135838877D01*
X148476168Y-135838877D02*
X148571406Y-135791258D01*
X148571406Y-135791258D02*
X148666644Y-135791258D01*
X149428549Y-136457925D02*
X149428549Y-135457925D01*
X149428549Y-136410306D02*
X149333311Y-136457925D01*
X149333311Y-136457925D02*
X149142835Y-136457925D01*
X149142835Y-136457925D02*
X149047597Y-136410306D01*
X149047597Y-136410306D02*
X148999978Y-136362686D01*
X148999978Y-136362686D02*
X148952359Y-136267448D01*
X148952359Y-136267448D02*
X148952359Y-135981734D01*
X148952359Y-135981734D02*
X148999978Y-135886496D01*
X148999978Y-135886496D02*
X149047597Y-135838877D01*
X149047597Y-135838877D02*
X149142835Y-135791258D01*
X149142835Y-135791258D02*
X149333311Y-135791258D01*
X149333311Y-135791258D02*
X149428549Y-135838877D01*
X146142834Y-138067869D02*
X145809501Y-137591678D01*
X145571406Y-138067869D02*
X145571406Y-137067869D01*
X145571406Y-137067869D02*
X145952358Y-137067869D01*
X145952358Y-137067869D02*
X146047596Y-137115488D01*
X146047596Y-137115488D02*
X146095215Y-137163107D01*
X146095215Y-137163107D02*
X146142834Y-137258345D01*
X146142834Y-137258345D02*
X146142834Y-137401202D01*
X146142834Y-137401202D02*
X146095215Y-137496440D01*
X146095215Y-137496440D02*
X146047596Y-137544059D01*
X146047596Y-137544059D02*
X145952358Y-137591678D01*
X145952358Y-137591678D02*
X145571406Y-137591678D01*
X146952358Y-138020250D02*
X146857120Y-138067869D01*
X146857120Y-138067869D02*
X146666644Y-138067869D01*
X146666644Y-138067869D02*
X146571406Y-138020250D01*
X146571406Y-138020250D02*
X146523787Y-137925011D01*
X146523787Y-137925011D02*
X146523787Y-137544059D01*
X146523787Y-137544059D02*
X146571406Y-137448821D01*
X146571406Y-137448821D02*
X146666644Y-137401202D01*
X146666644Y-137401202D02*
X146857120Y-137401202D01*
X146857120Y-137401202D02*
X146952358Y-137448821D01*
X146952358Y-137448821D02*
X146999977Y-137544059D01*
X146999977Y-137544059D02*
X146999977Y-137639297D01*
X146999977Y-137639297D02*
X146523787Y-137734535D01*
X147333311Y-137401202D02*
X147571406Y-138067869D01*
X147571406Y-138067869D02*
X147809501Y-137401202D01*
X149476168Y-138067869D02*
X148904740Y-138067869D01*
X149190454Y-138067869D02*
X149190454Y-137067869D01*
X149190454Y-137067869D02*
X149095216Y-137210726D01*
X149095216Y-137210726D02*
X148999978Y-137305964D01*
X148999978Y-137305964D02*
X148904740Y-137353583D01*
X185776916Y-104688549D02*
X185776916Y-103926645D01*
X186157869Y-104307597D02*
X185395964Y-104307597D01*
X185157869Y-103545692D02*
X185157869Y-102926645D01*
X185157869Y-102926645D02*
X185538821Y-103259978D01*
X185538821Y-103259978D02*
X185538821Y-103117121D01*
X185538821Y-103117121D02*
X185586440Y-103021883D01*
X185586440Y-103021883D02*
X185634059Y-102974264D01*
X185634059Y-102974264D02*
X185729297Y-102926645D01*
X185729297Y-102926645D02*
X185967392Y-102926645D01*
X185967392Y-102926645D02*
X186062630Y-102974264D01*
X186062630Y-102974264D02*
X186110250Y-103021883D01*
X186110250Y-103021883D02*
X186157869Y-103117121D01*
X186157869Y-103117121D02*
X186157869Y-103402835D01*
X186157869Y-103402835D02*
X186110250Y-103498073D01*
X186110250Y-103498073D02*
X186062630Y-103545692D01*
X186062630Y-102498073D02*
X186110250Y-102450454D01*
X186110250Y-102450454D02*
X186157869Y-102498073D01*
X186157869Y-102498073D02*
X186110250Y-102545692D01*
X186110250Y-102545692D02*
X186062630Y-102498073D01*
X186062630Y-102498073D02*
X186157869Y-102498073D01*
X185157869Y-102117121D02*
X185157869Y-101498074D01*
X185157869Y-101498074D02*
X185538821Y-101831407D01*
X185538821Y-101831407D02*
X185538821Y-101688550D01*
X185538821Y-101688550D02*
X185586440Y-101593312D01*
X185586440Y-101593312D02*
X185634059Y-101545693D01*
X185634059Y-101545693D02*
X185729297Y-101498074D01*
X185729297Y-101498074D02*
X185967392Y-101498074D01*
X185967392Y-101498074D02*
X186062630Y-101545693D01*
X186062630Y-101545693D02*
X186110250Y-101593312D01*
X186110250Y-101593312D02*
X186157869Y-101688550D01*
X186157869Y-101688550D02*
X186157869Y-101974264D01*
X186157869Y-101974264D02*
X186110250Y-102069502D01*
X186110250Y-102069502D02*
X186062630Y-102117121D01*
X185157869Y-101212359D02*
X186157869Y-100879026D01*
X186157869Y-100879026D02*
X185157869Y-100545693D01*
X191160250Y-102936168D02*
X191207869Y-102793311D01*
X191207869Y-102793311D02*
X191207869Y-102555216D01*
X191207869Y-102555216D02*
X191160250Y-102459978D01*
X191160250Y-102459978D02*
X191112630Y-102412359D01*
X191112630Y-102412359D02*
X191017392Y-102364740D01*
X191017392Y-102364740D02*
X190922154Y-102364740D01*
X190922154Y-102364740D02*
X190826916Y-102412359D01*
X190826916Y-102412359D02*
X190779297Y-102459978D01*
X190779297Y-102459978D02*
X190731678Y-102555216D01*
X190731678Y-102555216D02*
X190684059Y-102745692D01*
X190684059Y-102745692D02*
X190636440Y-102840930D01*
X190636440Y-102840930D02*
X190588821Y-102888549D01*
X190588821Y-102888549D02*
X190493583Y-102936168D01*
X190493583Y-102936168D02*
X190398345Y-102936168D01*
X190398345Y-102936168D02*
X190303107Y-102888549D01*
X190303107Y-102888549D02*
X190255488Y-102840930D01*
X190255488Y-102840930D02*
X190207869Y-102745692D01*
X190207869Y-102745692D02*
X190207869Y-102507597D01*
X190207869Y-102507597D02*
X190255488Y-102364740D01*
X191207869Y-101936168D02*
X190207869Y-101936168D01*
X190207869Y-101936168D02*
X190207869Y-101698073D01*
X190207869Y-101698073D02*
X190255488Y-101555216D01*
X190255488Y-101555216D02*
X190350726Y-101459978D01*
X190350726Y-101459978D02*
X190445964Y-101412359D01*
X190445964Y-101412359D02*
X190636440Y-101364740D01*
X190636440Y-101364740D02*
X190779297Y-101364740D01*
X190779297Y-101364740D02*
X190969773Y-101412359D01*
X190969773Y-101412359D02*
X191065011Y-101459978D01*
X191065011Y-101459978D02*
X191160250Y-101555216D01*
X191160250Y-101555216D02*
X191207869Y-101698073D01*
X191207869Y-101698073D02*
X191207869Y-101936168D01*
X190922154Y-100983787D02*
X190922154Y-100507597D01*
X191207869Y-101079025D02*
X190207869Y-100745692D01*
X190207869Y-100745692D02*
X191207869Y-100412359D01*
X137401450Y-122467869D02*
X137401450Y-121467869D01*
X137401450Y-121467869D02*
X137782402Y-121467869D01*
X137782402Y-121467869D02*
X137877640Y-121515488D01*
X137877640Y-121515488D02*
X137925259Y-121563107D01*
X137925259Y-121563107D02*
X137972878Y-121658345D01*
X137972878Y-121658345D02*
X137972878Y-121801202D01*
X137972878Y-121801202D02*
X137925259Y-121896440D01*
X137925259Y-121896440D02*
X137877640Y-121944059D01*
X137877640Y-121944059D02*
X137782402Y-121991678D01*
X137782402Y-121991678D02*
X137401450Y-121991678D01*
X138734783Y-121944059D02*
X138877640Y-121991678D01*
X138877640Y-121991678D02*
X138925259Y-122039297D01*
X138925259Y-122039297D02*
X138972878Y-122134535D01*
X138972878Y-122134535D02*
X138972878Y-122277392D01*
X138972878Y-122277392D02*
X138925259Y-122372630D01*
X138925259Y-122372630D02*
X138877640Y-122420250D01*
X138877640Y-122420250D02*
X138782402Y-122467869D01*
X138782402Y-122467869D02*
X138401450Y-122467869D01*
X138401450Y-122467869D02*
X138401450Y-121467869D01*
X138401450Y-121467869D02*
X138734783Y-121467869D01*
X138734783Y-121467869D02*
X138830021Y-121515488D01*
X138830021Y-121515488D02*
X138877640Y-121563107D01*
X138877640Y-121563107D02*
X138925259Y-121658345D01*
X138925259Y-121658345D02*
X138925259Y-121753583D01*
X138925259Y-121753583D02*
X138877640Y-121848821D01*
X138877640Y-121848821D02*
X138830021Y-121896440D01*
X138830021Y-121896440D02*
X138734783Y-121944059D01*
X138734783Y-121944059D02*
X138401450Y-121944059D01*
X139925259Y-122467869D02*
X139353831Y-122467869D01*
X139639545Y-122467869D02*
X139639545Y-121467869D01*
X139639545Y-121467869D02*
X139544307Y-121610726D01*
X139544307Y-121610726D02*
X139449069Y-121705964D01*
X139449069Y-121705964D02*
X139353831Y-121753583D01*
X140782402Y-121801202D02*
X140782402Y-122467869D01*
X140544307Y-121420250D02*
X140306212Y-122134535D01*
X140306212Y-122134535D02*
X140925259Y-122134535D01*
X202407869Y-100838549D02*
X201407869Y-100838549D01*
X201407869Y-100838549D02*
X201407869Y-100457597D01*
X201407869Y-100457597D02*
X201455488Y-100362359D01*
X201455488Y-100362359D02*
X201503107Y-100314740D01*
X201503107Y-100314740D02*
X201598345Y-100267121D01*
X201598345Y-100267121D02*
X201741202Y-100267121D01*
X201741202Y-100267121D02*
X201836440Y-100314740D01*
X201836440Y-100314740D02*
X201884059Y-100362359D01*
X201884059Y-100362359D02*
X201931678Y-100457597D01*
X201931678Y-100457597D02*
X201931678Y-100838549D01*
X201407869Y-99933787D02*
X202407869Y-99695692D01*
X202407869Y-99695692D02*
X201693583Y-99505216D01*
X201693583Y-99505216D02*
X202407869Y-99314740D01*
X202407869Y-99314740D02*
X201407869Y-99076645D01*
X202407869Y-98124264D02*
X201931678Y-98457597D01*
X202407869Y-98695692D02*
X201407869Y-98695692D01*
X201407869Y-98695692D02*
X201407869Y-98314740D01*
X201407869Y-98314740D02*
X201455488Y-98219502D01*
X201455488Y-98219502D02*
X201503107Y-98171883D01*
X201503107Y-98171883D02*
X201598345Y-98124264D01*
X201598345Y-98124264D02*
X201741202Y-98124264D01*
X201741202Y-98124264D02*
X201836440Y-98171883D01*
X201836440Y-98171883D02*
X201884059Y-98219502D01*
X201884059Y-98219502D02*
X201931678Y-98314740D01*
X201931678Y-98314740D02*
X201931678Y-98695692D01*
X141756212Y-140051202D02*
X141994307Y-140717869D01*
X141994307Y-140717869D02*
X142232402Y-140051202D01*
X142613355Y-140717869D02*
X142613355Y-140051202D01*
X142613355Y-139717869D02*
X142565736Y-139765488D01*
X142565736Y-139765488D02*
X142613355Y-139813107D01*
X142613355Y-139813107D02*
X142660974Y-139765488D01*
X142660974Y-139765488D02*
X142613355Y-139717869D01*
X142613355Y-139717869D02*
X142613355Y-139813107D01*
X143089545Y-140051202D02*
X143089545Y-140717869D01*
X143089545Y-140146440D02*
X143137164Y-140098821D01*
X143137164Y-140098821D02*
X143232402Y-140051202D01*
X143232402Y-140051202D02*
X143375259Y-140051202D01*
X143375259Y-140051202D02*
X143470497Y-140098821D01*
X143470497Y-140098821D02*
X143518116Y-140194059D01*
X143518116Y-140194059D02*
X143518116Y-140717869D01*
X144422878Y-140670250D02*
X144327640Y-140717869D01*
X144327640Y-140717869D02*
X144137164Y-140717869D01*
X144137164Y-140717869D02*
X144041926Y-140670250D01*
X144041926Y-140670250D02*
X143994307Y-140622630D01*
X143994307Y-140622630D02*
X143946688Y-140527392D01*
X143946688Y-140527392D02*
X143946688Y-140241678D01*
X143946688Y-140241678D02*
X143994307Y-140146440D01*
X143994307Y-140146440D02*
X144041926Y-140098821D01*
X144041926Y-140098821D02*
X144137164Y-140051202D01*
X144137164Y-140051202D02*
X144327640Y-140051202D01*
X144327640Y-140051202D02*
X144422878Y-140098821D01*
X145232402Y-140670250D02*
X145137164Y-140717869D01*
X145137164Y-140717869D02*
X144946688Y-140717869D01*
X144946688Y-140717869D02*
X144851450Y-140670250D01*
X144851450Y-140670250D02*
X144803831Y-140575011D01*
X144803831Y-140575011D02*
X144803831Y-140194059D01*
X144803831Y-140194059D02*
X144851450Y-140098821D01*
X144851450Y-140098821D02*
X144946688Y-140051202D01*
X144946688Y-140051202D02*
X145137164Y-140051202D01*
X145137164Y-140051202D02*
X145232402Y-140098821D01*
X145232402Y-140098821D02*
X145280021Y-140194059D01*
X145280021Y-140194059D02*
X145280021Y-140289297D01*
X145280021Y-140289297D02*
X144803831Y-140384535D01*
X145708593Y-140051202D02*
X145708593Y-140717869D01*
X145708593Y-140146440D02*
X145756212Y-140098821D01*
X145756212Y-140098821D02*
X145851450Y-140051202D01*
X145851450Y-140051202D02*
X145994307Y-140051202D01*
X145994307Y-140051202D02*
X146089545Y-140098821D01*
X146089545Y-140098821D02*
X146137164Y-140194059D01*
X146137164Y-140194059D02*
X146137164Y-140717869D01*
X146470498Y-140051202D02*
X146851450Y-140051202D01*
X146613355Y-139717869D02*
X146613355Y-140575011D01*
X146613355Y-140575011D02*
X146660974Y-140670250D01*
X146660974Y-140670250D02*
X146756212Y-140717869D01*
X146756212Y-140717869D02*
X146851450Y-140717869D01*
X147803831Y-140241678D02*
X147756212Y-140194059D01*
X147756212Y-140194059D02*
X147660974Y-140146440D01*
X147660974Y-140146440D02*
X147565736Y-140146440D01*
X147565736Y-140146440D02*
X147470498Y-140194059D01*
X147470498Y-140194059D02*
X147422879Y-140241678D01*
X147422879Y-140241678D02*
X147375260Y-140336916D01*
X147375260Y-140336916D02*
X147375260Y-140432154D01*
X147375260Y-140432154D02*
X147422879Y-140527392D01*
X147422879Y-140527392D02*
X147470498Y-140575011D01*
X147470498Y-140575011D02*
X147565736Y-140622630D01*
X147565736Y-140622630D02*
X147660974Y-140622630D01*
X147660974Y-140622630D02*
X147756212Y-140575011D01*
X147756212Y-140575011D02*
X147803831Y-140527392D01*
X147803831Y-140146440D02*
X147803831Y-140527392D01*
X147803831Y-140527392D02*
X147851450Y-140575011D01*
X147851450Y-140575011D02*
X147899069Y-140575011D01*
X147899069Y-140575011D02*
X147994308Y-140527392D01*
X147994308Y-140527392D02*
X148041927Y-140432154D01*
X148041927Y-140432154D02*
X148041927Y-140194059D01*
X148041927Y-140194059D02*
X147946689Y-140051202D01*
X147946689Y-140051202D02*
X147803831Y-139955964D01*
X147803831Y-139955964D02*
X147613355Y-139908345D01*
X147613355Y-139908345D02*
X147422879Y-139955964D01*
X147422879Y-139955964D02*
X147280022Y-140051202D01*
X147280022Y-140051202D02*
X147184784Y-140194059D01*
X147184784Y-140194059D02*
X147137165Y-140384535D01*
X147137165Y-140384535D02*
X147184784Y-140575011D01*
X147184784Y-140575011D02*
X147280022Y-140717869D01*
X147280022Y-140717869D02*
X147422879Y-140813107D01*
X147422879Y-140813107D02*
X147613355Y-140860726D01*
X147613355Y-140860726D02*
X147803831Y-140813107D01*
X147803831Y-140813107D02*
X147946689Y-140717869D01*
X148470498Y-140717869D02*
X148470498Y-139717869D01*
X148470498Y-140098821D02*
X148565736Y-140051202D01*
X148565736Y-140051202D02*
X148756212Y-140051202D01*
X148756212Y-140051202D02*
X148851450Y-140098821D01*
X148851450Y-140098821D02*
X148899069Y-140146440D01*
X148899069Y-140146440D02*
X148946688Y-140241678D01*
X148946688Y-140241678D02*
X148946688Y-140527392D01*
X148946688Y-140527392D02*
X148899069Y-140622630D01*
X148899069Y-140622630D02*
X148851450Y-140670250D01*
X148851450Y-140670250D02*
X148756212Y-140717869D01*
X148756212Y-140717869D02*
X148565736Y-140717869D01*
X148565736Y-140717869D02*
X148470498Y-140670250D01*
X149756212Y-140670250D02*
X149660974Y-140717869D01*
X149660974Y-140717869D02*
X149470498Y-140717869D01*
X149470498Y-140717869D02*
X149375260Y-140670250D01*
X149375260Y-140670250D02*
X149327641Y-140575011D01*
X149327641Y-140575011D02*
X149327641Y-140194059D01*
X149327641Y-140194059D02*
X149375260Y-140098821D01*
X149375260Y-140098821D02*
X149470498Y-140051202D01*
X149470498Y-140051202D02*
X149660974Y-140051202D01*
X149660974Y-140051202D02*
X149756212Y-140098821D01*
X149756212Y-140098821D02*
X149803831Y-140194059D01*
X149803831Y-140194059D02*
X149803831Y-140289297D01*
X149803831Y-140289297D02*
X149327641Y-140384535D01*
X150184784Y-140670250D02*
X150280022Y-140717869D01*
X150280022Y-140717869D02*
X150470498Y-140717869D01*
X150470498Y-140717869D02*
X150565736Y-140670250D01*
X150565736Y-140670250D02*
X150613355Y-140575011D01*
X150613355Y-140575011D02*
X150613355Y-140527392D01*
X150613355Y-140527392D02*
X150565736Y-140432154D01*
X150565736Y-140432154D02*
X150470498Y-140384535D01*
X150470498Y-140384535D02*
X150327641Y-140384535D01*
X150327641Y-140384535D02*
X150232403Y-140336916D01*
X150232403Y-140336916D02*
X150184784Y-140241678D01*
X150184784Y-140241678D02*
X150184784Y-140194059D01*
X150184784Y-140194059D02*
X150232403Y-140098821D01*
X150232403Y-140098821D02*
X150327641Y-140051202D01*
X150327641Y-140051202D02*
X150470498Y-140051202D01*
X150470498Y-140051202D02*
X150565736Y-140098821D01*
X150994308Y-140670250D02*
X151089546Y-140717869D01*
X151089546Y-140717869D02*
X151280022Y-140717869D01*
X151280022Y-140717869D02*
X151375260Y-140670250D01*
X151375260Y-140670250D02*
X151422879Y-140575011D01*
X151422879Y-140575011D02*
X151422879Y-140527392D01*
X151422879Y-140527392D02*
X151375260Y-140432154D01*
X151375260Y-140432154D02*
X151280022Y-140384535D01*
X151280022Y-140384535D02*
X151137165Y-140384535D01*
X151137165Y-140384535D02*
X151041927Y-140336916D01*
X151041927Y-140336916D02*
X150994308Y-140241678D01*
X150994308Y-140241678D02*
X150994308Y-140194059D01*
X150994308Y-140194059D02*
X151041927Y-140098821D01*
X151041927Y-140098821D02*
X151137165Y-140051202D01*
X151137165Y-140051202D02*
X151280022Y-140051202D01*
X151280022Y-140051202D02*
X151375260Y-140098821D01*
X151994308Y-140717869D02*
X151899070Y-140670250D01*
X151899070Y-140670250D02*
X151851451Y-140622630D01*
X151851451Y-140622630D02*
X151803832Y-140527392D01*
X151803832Y-140527392D02*
X151803832Y-140241678D01*
X151803832Y-140241678D02*
X151851451Y-140146440D01*
X151851451Y-140146440D02*
X151899070Y-140098821D01*
X151899070Y-140098821D02*
X151994308Y-140051202D01*
X151994308Y-140051202D02*
X152137165Y-140051202D01*
X152137165Y-140051202D02*
X152232403Y-140098821D01*
X152232403Y-140098821D02*
X152280022Y-140146440D01*
X152280022Y-140146440D02*
X152327641Y-140241678D01*
X152327641Y-140241678D02*
X152327641Y-140527392D01*
X152327641Y-140527392D02*
X152280022Y-140622630D01*
X152280022Y-140622630D02*
X152232403Y-140670250D01*
X152232403Y-140670250D02*
X152137165Y-140717869D01*
X152137165Y-140717869D02*
X151994308Y-140717869D01*
X152756213Y-140051202D02*
X152756213Y-140717869D01*
X152756213Y-140146440D02*
X152803832Y-140098821D01*
X152803832Y-140098821D02*
X152899070Y-140051202D01*
X152899070Y-140051202D02*
X153041927Y-140051202D01*
X153041927Y-140051202D02*
X153137165Y-140098821D01*
X153137165Y-140098821D02*
X153184784Y-140194059D01*
X153184784Y-140194059D02*
X153184784Y-140717869D01*
X153660975Y-140622630D02*
X153708594Y-140670250D01*
X153708594Y-140670250D02*
X153660975Y-140717869D01*
X153660975Y-140717869D02*
X153613356Y-140670250D01*
X153613356Y-140670250D02*
X153660975Y-140622630D01*
X153660975Y-140622630D02*
X153660975Y-140717869D01*
X154137165Y-140717869D02*
X154137165Y-139717869D01*
X154137165Y-140098821D02*
X154232403Y-140051202D01*
X154232403Y-140051202D02*
X154422879Y-140051202D01*
X154422879Y-140051202D02*
X154518117Y-140098821D01*
X154518117Y-140098821D02*
X154565736Y-140146440D01*
X154565736Y-140146440D02*
X154613355Y-140241678D01*
X154613355Y-140241678D02*
X154613355Y-140527392D01*
X154613355Y-140527392D02*
X154565736Y-140622630D01*
X154565736Y-140622630D02*
X154518117Y-140670250D01*
X154518117Y-140670250D02*
X154422879Y-140717869D01*
X154422879Y-140717869D02*
X154232403Y-140717869D01*
X154232403Y-140717869D02*
X154137165Y-140670250D01*
X155422879Y-140670250D02*
X155327641Y-140717869D01*
X155327641Y-140717869D02*
X155137165Y-140717869D01*
X155137165Y-140717869D02*
X155041927Y-140670250D01*
X155041927Y-140670250D02*
X154994308Y-140575011D01*
X154994308Y-140575011D02*
X154994308Y-140194059D01*
X154994308Y-140194059D02*
X155041927Y-140098821D01*
X155041927Y-140098821D02*
X155137165Y-140051202D01*
X155137165Y-140051202D02*
X155327641Y-140051202D01*
X155327641Y-140051202D02*
X155422879Y-140098821D01*
X155422879Y-140098821D02*
X155470498Y-140194059D01*
X155470498Y-140194059D02*
X155470498Y-140289297D01*
X155470498Y-140289297D02*
X154994308Y-140384535D01*
X137972878Y-105717869D02*
X137639545Y-105241678D01*
X137401450Y-105717869D02*
X137401450Y-104717869D01*
X137401450Y-104717869D02*
X137782402Y-104717869D01*
X137782402Y-104717869D02*
X137877640Y-104765488D01*
X137877640Y-104765488D02*
X137925259Y-104813107D01*
X137925259Y-104813107D02*
X137972878Y-104908345D01*
X137972878Y-104908345D02*
X137972878Y-105051202D01*
X137972878Y-105051202D02*
X137925259Y-105146440D01*
X137925259Y-105146440D02*
X137877640Y-105194059D01*
X137877640Y-105194059D02*
X137782402Y-105241678D01*
X137782402Y-105241678D02*
X137401450Y-105241678D01*
X138306212Y-104717869D02*
X138972878Y-105717869D01*
X138972878Y-104717869D02*
X138306212Y-105717869D01*
X137251450Y-102067869D02*
X137251450Y-102877392D01*
X137251450Y-102877392D02*
X137299069Y-102972630D01*
X137299069Y-102972630D02*
X137346688Y-103020250D01*
X137346688Y-103020250D02*
X137441926Y-103067869D01*
X137441926Y-103067869D02*
X137632402Y-103067869D01*
X137632402Y-103067869D02*
X137727640Y-103020250D01*
X137727640Y-103020250D02*
X137775259Y-102972630D01*
X137775259Y-102972630D02*
X137822878Y-102877392D01*
X137822878Y-102877392D02*
X137822878Y-102067869D01*
X138251450Y-102782154D02*
X138727640Y-102782154D01*
X138156212Y-103067869D02*
X138489545Y-102067869D01*
X138489545Y-102067869D02*
X138822878Y-103067869D01*
X139727640Y-103067869D02*
X139394307Y-102591678D01*
X139156212Y-103067869D02*
X139156212Y-102067869D01*
X139156212Y-102067869D02*
X139537164Y-102067869D01*
X139537164Y-102067869D02*
X139632402Y-102115488D01*
X139632402Y-102115488D02*
X139680021Y-102163107D01*
X139680021Y-102163107D02*
X139727640Y-102258345D01*
X139727640Y-102258345D02*
X139727640Y-102401202D01*
X139727640Y-102401202D02*
X139680021Y-102496440D01*
X139680021Y-102496440D02*
X139632402Y-102544059D01*
X139632402Y-102544059D02*
X139537164Y-102591678D01*
X139537164Y-102591678D02*
X139156212Y-102591678D01*
X140013355Y-102067869D02*
X140584783Y-102067869D01*
X140299069Y-103067869D02*
X140299069Y-102067869D01*
X200401450Y-113667869D02*
X200401450Y-112667869D01*
X200401450Y-112667869D02*
X200639545Y-112667869D01*
X200639545Y-112667869D02*
X200782402Y-112715488D01*
X200782402Y-112715488D02*
X200877640Y-112810726D01*
X200877640Y-112810726D02*
X200925259Y-112905964D01*
X200925259Y-112905964D02*
X200972878Y-113096440D01*
X200972878Y-113096440D02*
X200972878Y-113239297D01*
X200972878Y-113239297D02*
X200925259Y-113429773D01*
X200925259Y-113429773D02*
X200877640Y-113525011D01*
X200877640Y-113525011D02*
X200782402Y-113620250D01*
X200782402Y-113620250D02*
X200639545Y-113667869D01*
X200639545Y-113667869D02*
X200401450Y-113667869D01*
X201401450Y-113144059D02*
X201734783Y-113144059D01*
X201877640Y-113667869D02*
X201401450Y-113667869D01*
X201401450Y-113667869D02*
X201401450Y-112667869D01*
X201401450Y-112667869D02*
X201877640Y-112667869D01*
X137303831Y-134020250D02*
X137446688Y-134067869D01*
X137446688Y-134067869D02*
X137684783Y-134067869D01*
X137684783Y-134067869D02*
X137780021Y-134020250D01*
X137780021Y-134020250D02*
X137827640Y-133972630D01*
X137827640Y-133972630D02*
X137875259Y-133877392D01*
X137875259Y-133877392D02*
X137875259Y-133782154D01*
X137875259Y-133782154D02*
X137827640Y-133686916D01*
X137827640Y-133686916D02*
X137780021Y-133639297D01*
X137780021Y-133639297D02*
X137684783Y-133591678D01*
X137684783Y-133591678D02*
X137494307Y-133544059D01*
X137494307Y-133544059D02*
X137399069Y-133496440D01*
X137399069Y-133496440D02*
X137351450Y-133448821D01*
X137351450Y-133448821D02*
X137303831Y-133353583D01*
X137303831Y-133353583D02*
X137303831Y-133258345D01*
X137303831Y-133258345D02*
X137351450Y-133163107D01*
X137351450Y-133163107D02*
X137399069Y-133115488D01*
X137399069Y-133115488D02*
X137494307Y-133067869D01*
X137494307Y-133067869D02*
X137732402Y-133067869D01*
X137732402Y-133067869D02*
X137875259Y-133115488D01*
X138875259Y-133972630D02*
X138827640Y-134020250D01*
X138827640Y-134020250D02*
X138684783Y-134067869D01*
X138684783Y-134067869D02*
X138589545Y-134067869D01*
X138589545Y-134067869D02*
X138446688Y-134020250D01*
X138446688Y-134020250D02*
X138351450Y-133925011D01*
X138351450Y-133925011D02*
X138303831Y-133829773D01*
X138303831Y-133829773D02*
X138256212Y-133639297D01*
X138256212Y-133639297D02*
X138256212Y-133496440D01*
X138256212Y-133496440D02*
X138303831Y-133305964D01*
X138303831Y-133305964D02*
X138351450Y-133210726D01*
X138351450Y-133210726D02*
X138446688Y-133115488D01*
X138446688Y-133115488D02*
X138589545Y-133067869D01*
X138589545Y-133067869D02*
X138684783Y-133067869D01*
X138684783Y-133067869D02*
X138827640Y-133115488D01*
X138827640Y-133115488D02*
X138875259Y-133163107D01*
X139303831Y-134067869D02*
X139303831Y-133067869D01*
X139875259Y-134067869D02*
X139446688Y-133496440D01*
X139875259Y-133067869D02*
X139303831Y-133639297D01*
X137258593Y-107267869D02*
X137830021Y-107267869D01*
X137544307Y-108267869D02*
X137544307Y-107267869D01*
X138068117Y-107267869D02*
X138734783Y-108267869D01*
X138734783Y-107267869D02*
X138068117Y-108267869D01*
X137925259Y-109865488D02*
X137830021Y-109817869D01*
X137830021Y-109817869D02*
X137687164Y-109817869D01*
X137687164Y-109817869D02*
X137544307Y-109865488D01*
X137544307Y-109865488D02*
X137449069Y-109960726D01*
X137449069Y-109960726D02*
X137401450Y-110055964D01*
X137401450Y-110055964D02*
X137353831Y-110246440D01*
X137353831Y-110246440D02*
X137353831Y-110389297D01*
X137353831Y-110389297D02*
X137401450Y-110579773D01*
X137401450Y-110579773D02*
X137449069Y-110675011D01*
X137449069Y-110675011D02*
X137544307Y-110770250D01*
X137544307Y-110770250D02*
X137687164Y-110817869D01*
X137687164Y-110817869D02*
X137782402Y-110817869D01*
X137782402Y-110817869D02*
X137925259Y-110770250D01*
X137925259Y-110770250D02*
X137972878Y-110722630D01*
X137972878Y-110722630D02*
X137972878Y-110389297D01*
X137972878Y-110389297D02*
X137782402Y-110389297D01*
X138401450Y-110817869D02*
X138401450Y-109817869D01*
X138401450Y-109817869D02*
X138972878Y-110817869D01*
X138972878Y-110817869D02*
X138972878Y-109817869D01*
X139449069Y-110817869D02*
X139449069Y-109817869D01*
X139449069Y-109817869D02*
X139687164Y-109817869D01*
X139687164Y-109817869D02*
X139830021Y-109865488D01*
X139830021Y-109865488D02*
X139925259Y-109960726D01*
X139925259Y-109960726D02*
X139972878Y-110055964D01*
X139972878Y-110055964D02*
X140020497Y-110246440D01*
X140020497Y-110246440D02*
X140020497Y-110389297D01*
X140020497Y-110389297D02*
X139972878Y-110579773D01*
X139972878Y-110579773D02*
X139925259Y-110675011D01*
X139925259Y-110675011D02*
X139830021Y-110770250D01*
X139830021Y-110770250D02*
X139687164Y-110817869D01*
X139687164Y-110817869D02*
X139449069Y-110817869D01*
X137351450Y-128486916D02*
X138113355Y-128486916D01*
X137732402Y-128867869D02*
X137732402Y-128105964D01*
X138494307Y-127867869D02*
X139113354Y-127867869D01*
X139113354Y-127867869D02*
X138780021Y-128248821D01*
X138780021Y-128248821D02*
X138922878Y-128248821D01*
X138922878Y-128248821D02*
X139018116Y-128296440D01*
X139018116Y-128296440D02*
X139065735Y-128344059D01*
X139065735Y-128344059D02*
X139113354Y-128439297D01*
X139113354Y-128439297D02*
X139113354Y-128677392D01*
X139113354Y-128677392D02*
X139065735Y-128772630D01*
X139065735Y-128772630D02*
X139018116Y-128820250D01*
X139018116Y-128820250D02*
X138922878Y-128867869D01*
X138922878Y-128867869D02*
X138637164Y-128867869D01*
X138637164Y-128867869D02*
X138541926Y-128820250D01*
X138541926Y-128820250D02*
X138494307Y-128772630D01*
X139541926Y-128772630D02*
X139589545Y-128820250D01*
X139589545Y-128820250D02*
X139541926Y-128867869D01*
X139541926Y-128867869D02*
X139494307Y-128820250D01*
X139494307Y-128820250D02*
X139541926Y-128772630D01*
X139541926Y-128772630D02*
X139541926Y-128867869D01*
X139922878Y-127867869D02*
X140541925Y-127867869D01*
X140541925Y-127867869D02*
X140208592Y-128248821D01*
X140208592Y-128248821D02*
X140351449Y-128248821D01*
X140351449Y-128248821D02*
X140446687Y-128296440D01*
X140446687Y-128296440D02*
X140494306Y-128344059D01*
X140494306Y-128344059D02*
X140541925Y-128439297D01*
X140541925Y-128439297D02*
X140541925Y-128677392D01*
X140541925Y-128677392D02*
X140494306Y-128772630D01*
X140494306Y-128772630D02*
X140446687Y-128820250D01*
X140446687Y-128820250D02*
X140351449Y-128867869D01*
X140351449Y-128867869D02*
X140065735Y-128867869D01*
X140065735Y-128867869D02*
X139970497Y-128820250D01*
X139970497Y-128820250D02*
X139922878Y-128772630D01*
X140827640Y-127867869D02*
X141160973Y-128867869D01*
X141160973Y-128867869D02*
X141494306Y-127867869D01*
D11*
X175244819Y-91783333D02*
X175959104Y-91783333D01*
X175959104Y-91783333D02*
X176101961Y-91830952D01*
X176101961Y-91830952D02*
X176197200Y-91926190D01*
X176197200Y-91926190D02*
X176244819Y-92069047D01*
X176244819Y-92069047D02*
X176244819Y-92164285D01*
X175340057Y-91354761D02*
X175292438Y-91307142D01*
X175292438Y-91307142D02*
X175244819Y-91211904D01*
X175244819Y-91211904D02*
X175244819Y-90973809D01*
X175244819Y-90973809D02*
X175292438Y-90878571D01*
X175292438Y-90878571D02*
X175340057Y-90830952D01*
X175340057Y-90830952D02*
X175435295Y-90783333D01*
X175435295Y-90783333D02*
X175530533Y-90783333D01*
X175530533Y-90783333D02*
X175673390Y-90830952D01*
X175673390Y-90830952D02*
X176244819Y-91402380D01*
X176244819Y-91402380D02*
X176244819Y-90783333D01*
X185528095Y-128154819D02*
X185528095Y-128964342D01*
X185528095Y-128964342D02*
X185575714Y-129059580D01*
X185575714Y-129059580D02*
X185623333Y-129107200D01*
X185623333Y-129107200D02*
X185718571Y-129154819D01*
X185718571Y-129154819D02*
X185909047Y-129154819D01*
X185909047Y-129154819D02*
X186004285Y-129107200D01*
X186004285Y-129107200D02*
X186051904Y-129059580D01*
X186051904Y-129059580D02*
X186099523Y-128964342D01*
X186099523Y-128964342D02*
X186099523Y-128154819D01*
X186575714Y-129154819D02*
X186575714Y-128154819D01*
X186575714Y-128154819D02*
X186956666Y-128154819D01*
X186956666Y-128154819D02*
X187051904Y-128202438D01*
X187051904Y-128202438D02*
X187099523Y-128250057D01*
X187099523Y-128250057D02*
X187147142Y-128345295D01*
X187147142Y-128345295D02*
X187147142Y-128488152D01*
X187147142Y-128488152D02*
X187099523Y-128583390D01*
X187099523Y-128583390D02*
X187051904Y-128631009D01*
X187051904Y-128631009D02*
X186956666Y-128678628D01*
X186956666Y-128678628D02*
X186575714Y-128678628D01*
X188099523Y-129154819D02*
X187528095Y-129154819D01*
X187813809Y-129154819D02*
X187813809Y-128154819D01*
X187813809Y-128154819D02*
X187718571Y-128297676D01*
X187718571Y-128297676D02*
X187623333Y-128392914D01*
X187623333Y-128392914D02*
X187528095Y-128440533D01*
X202054819Y-122396666D02*
X201578628Y-122729999D01*
X202054819Y-122968094D02*
X201054819Y-122968094D01*
X201054819Y-122968094D02*
X201054819Y-122587142D01*
X201054819Y-122587142D02*
X201102438Y-122491904D01*
X201102438Y-122491904D02*
X201150057Y-122444285D01*
X201150057Y-122444285D02*
X201245295Y-122396666D01*
X201245295Y-122396666D02*
X201388152Y-122396666D01*
X201388152Y-122396666D02*
X201483390Y-122444285D01*
X201483390Y-122444285D02*
X201531009Y-122491904D01*
X201531009Y-122491904D02*
X201578628Y-122587142D01*
X201578628Y-122587142D02*
X201578628Y-122968094D01*
X202054819Y-121444285D02*
X202054819Y-122015713D01*
X202054819Y-121729999D02*
X201054819Y-121729999D01*
X201054819Y-121729999D02*
X201197676Y-121825237D01*
X201197676Y-121825237D02*
X201292914Y-121920475D01*
X201292914Y-121920475D02*
X201340533Y-122015713D01*
D12*
D11*
X134906666Y-113754819D02*
X134906666Y-114469104D01*
X134906666Y-114469104D02*
X134859047Y-114611961D01*
X134859047Y-114611961D02*
X134763809Y-114707200D01*
X134763809Y-114707200D02*
X134620952Y-114754819D01*
X134620952Y-114754819D02*
X134525714Y-114754819D01*
X135859047Y-113754819D02*
X135382857Y-113754819D01*
X135382857Y-113754819D02*
X135335238Y-114231009D01*
X135335238Y-114231009D02*
X135382857Y-114183390D01*
X135382857Y-114183390D02*
X135478095Y-114135771D01*
X135478095Y-114135771D02*
X135716190Y-114135771D01*
X135716190Y-114135771D02*
X135811428Y-114183390D01*
X135811428Y-114183390D02*
X135859047Y-114231009D01*
X135859047Y-114231009D02*
X135906666Y-114326247D01*
X135906666Y-114326247D02*
X135906666Y-114564342D01*
X135906666Y-114564342D02*
X135859047Y-114659580D01*
X135859047Y-114659580D02*
X135811428Y-114707200D01*
X135811428Y-114707200D02*
X135716190Y-114754819D01*
X135716190Y-114754819D02*
X135478095Y-114754819D01*
X135478095Y-114754819D02*
X135382857Y-114707200D01*
X135382857Y-114707200D02*
X135335238Y-114659580D01*
X134906666Y-102099819D02*
X134906666Y-102814104D01*
X134906666Y-102814104D02*
X134859047Y-102956961D01*
X134859047Y-102956961D02*
X134763809Y-103052200D01*
X134763809Y-103052200D02*
X134620952Y-103099819D01*
X134620952Y-103099819D02*
X134525714Y-103099819D01*
X135811428Y-102433152D02*
X135811428Y-103099819D01*
X135573333Y-102052200D02*
X135335238Y-102766485D01*
X135335238Y-102766485D02*
X135954285Y-102766485D01*
X160408095Y-109818152D02*
X160408095Y-110818152D01*
X160884285Y-110341961D02*
X160931904Y-110437200D01*
X160931904Y-110437200D02*
X161027142Y-110484819D01*
X160408095Y-110341961D02*
X160455714Y-110437200D01*
X160455714Y-110437200D02*
X160550952Y-110484819D01*
X160550952Y-110484819D02*
X160741428Y-110484819D01*
X160741428Y-110484819D02*
X160836666Y-110437200D01*
X160836666Y-110437200D02*
X160884285Y-110341961D01*
X160884285Y-110341961D02*
X160884285Y-109818152D01*
X162027142Y-110389580D02*
X161979523Y-110437200D01*
X161979523Y-110437200D02*
X161836666Y-110484819D01*
X161836666Y-110484819D02*
X161741428Y-110484819D01*
X161741428Y-110484819D02*
X161598571Y-110437200D01*
X161598571Y-110437200D02*
X161503333Y-110341961D01*
X161503333Y-110341961D02*
X161455714Y-110246723D01*
X161455714Y-110246723D02*
X161408095Y-110056247D01*
X161408095Y-110056247D02*
X161408095Y-109913390D01*
X161408095Y-109913390D02*
X161455714Y-109722914D01*
X161455714Y-109722914D02*
X161503333Y-109627676D01*
X161503333Y-109627676D02*
X161598571Y-109532438D01*
X161598571Y-109532438D02*
X161741428Y-109484819D01*
X161741428Y-109484819D02*
X161836666Y-109484819D01*
X161836666Y-109484819D02*
X161979523Y-109532438D01*
X161979523Y-109532438D02*
X162027142Y-109580057D01*
X162979523Y-110484819D02*
X162408095Y-110484819D01*
X162693809Y-110484819D02*
X162693809Y-109484819D01*
X162693809Y-109484819D02*
X162598571Y-109627676D01*
X162598571Y-109627676D02*
X162503333Y-109722914D01*
X162503333Y-109722914D02*
X162408095Y-109770533D01*
D13*
X158892381Y-103642727D02*
X159006667Y-103680822D01*
X159006667Y-103680822D02*
X159044762Y-103718918D01*
X159044762Y-103718918D02*
X159082858Y-103795108D01*
X159082858Y-103795108D02*
X159082858Y-103909394D01*
X159082858Y-103909394D02*
X159044762Y-103985584D01*
X159044762Y-103985584D02*
X159006667Y-104023680D01*
X159006667Y-104023680D02*
X158930477Y-104061775D01*
X158930477Y-104061775D02*
X158625715Y-104061775D01*
X158625715Y-104061775D02*
X158625715Y-103261775D01*
X158625715Y-103261775D02*
X158892381Y-103261775D01*
X158892381Y-103261775D02*
X158968572Y-103299870D01*
X158968572Y-103299870D02*
X159006667Y-103337965D01*
X159006667Y-103337965D02*
X159044762Y-103414156D01*
X159044762Y-103414156D02*
X159044762Y-103490346D01*
X159044762Y-103490346D02*
X159006667Y-103566537D01*
X159006667Y-103566537D02*
X158968572Y-103604632D01*
X158968572Y-103604632D02*
X158892381Y-103642727D01*
X158892381Y-103642727D02*
X158625715Y-103642727D01*
X159806667Y-104061775D02*
X159425715Y-104061775D01*
X159425715Y-104061775D02*
X159425715Y-103261775D01*
X160035238Y-103833203D02*
X160416191Y-103833203D01*
X159959048Y-104061775D02*
X160225715Y-103261775D01*
X160225715Y-103261775D02*
X160492381Y-104061775D01*
X161216191Y-103985584D02*
X161178095Y-104023680D01*
X161178095Y-104023680D02*
X161063810Y-104061775D01*
X161063810Y-104061775D02*
X160987619Y-104061775D01*
X160987619Y-104061775D02*
X160873333Y-104023680D01*
X160873333Y-104023680D02*
X160797143Y-103947489D01*
X160797143Y-103947489D02*
X160759048Y-103871299D01*
X160759048Y-103871299D02*
X160720952Y-103718918D01*
X160720952Y-103718918D02*
X160720952Y-103604632D01*
X160720952Y-103604632D02*
X160759048Y-103452251D01*
X160759048Y-103452251D02*
X160797143Y-103376060D01*
X160797143Y-103376060D02*
X160873333Y-103299870D01*
X160873333Y-103299870D02*
X160987619Y-103261775D01*
X160987619Y-103261775D02*
X161063810Y-103261775D01*
X161063810Y-103261775D02*
X161178095Y-103299870D01*
X161178095Y-103299870D02*
X161216191Y-103337965D01*
X161559048Y-104061775D02*
X161559048Y-103261775D01*
X162016191Y-104061775D02*
X161673333Y-103604632D01*
X162016191Y-103261775D02*
X161559048Y-103718918D01*
X162359048Y-104061775D02*
X162359048Y-103261775D01*
X162359048Y-103261775D02*
X162663810Y-103261775D01*
X162663810Y-103261775D02*
X162740000Y-103299870D01*
X162740000Y-103299870D02*
X162778095Y-103337965D01*
X162778095Y-103337965D02*
X162816191Y-103414156D01*
X162816191Y-103414156D02*
X162816191Y-103528441D01*
X162816191Y-103528441D02*
X162778095Y-103604632D01*
X162778095Y-103604632D02*
X162740000Y-103642727D01*
X162740000Y-103642727D02*
X162663810Y-103680822D01*
X162663810Y-103680822D02*
X162359048Y-103680822D01*
X163159048Y-104061775D02*
X163159048Y-103261775D01*
X163920952Y-104061775D02*
X163540000Y-104061775D01*
X163540000Y-104061775D02*
X163540000Y-103261775D01*
X164568571Y-104061775D02*
X164187619Y-104061775D01*
X164187619Y-104061775D02*
X164187619Y-103261775D01*
X156679523Y-101131775D02*
X157136666Y-101131775D01*
X156908094Y-101931775D02*
X156908094Y-101131775D01*
X157403333Y-101931775D02*
X157403333Y-101131775D01*
X157403333Y-101512727D02*
X157860476Y-101512727D01*
X157860476Y-101931775D02*
X157860476Y-101131775D01*
X158241428Y-101931775D02*
X158241428Y-101131775D01*
X158584284Y-101893680D02*
X158698570Y-101931775D01*
X158698570Y-101931775D02*
X158889046Y-101931775D01*
X158889046Y-101931775D02*
X158965237Y-101893680D01*
X158965237Y-101893680D02*
X159003332Y-101855584D01*
X159003332Y-101855584D02*
X159041427Y-101779394D01*
X159041427Y-101779394D02*
X159041427Y-101703203D01*
X159041427Y-101703203D02*
X159003332Y-101627013D01*
X159003332Y-101627013D02*
X158965237Y-101588918D01*
X158965237Y-101588918D02*
X158889046Y-101550822D01*
X158889046Y-101550822D02*
X158736665Y-101512727D01*
X158736665Y-101512727D02*
X158660475Y-101474632D01*
X158660475Y-101474632D02*
X158622380Y-101436537D01*
X158622380Y-101436537D02*
X158584284Y-101360346D01*
X158584284Y-101360346D02*
X158584284Y-101284156D01*
X158584284Y-101284156D02*
X158622380Y-101207965D01*
X158622380Y-101207965D02*
X158660475Y-101169870D01*
X158660475Y-101169870D02*
X158736665Y-101131775D01*
X158736665Y-101131775D02*
X158927142Y-101131775D01*
X158927142Y-101131775D02*
X159041427Y-101169870D01*
X159955713Y-101893680D02*
X160069999Y-101931775D01*
X160069999Y-101931775D02*
X160260475Y-101931775D01*
X160260475Y-101931775D02*
X160336666Y-101893680D01*
X160336666Y-101893680D02*
X160374761Y-101855584D01*
X160374761Y-101855584D02*
X160412856Y-101779394D01*
X160412856Y-101779394D02*
X160412856Y-101703203D01*
X160412856Y-101703203D02*
X160374761Y-101627013D01*
X160374761Y-101627013D02*
X160336666Y-101588918D01*
X160336666Y-101588918D02*
X160260475Y-101550822D01*
X160260475Y-101550822D02*
X160108094Y-101512727D01*
X160108094Y-101512727D02*
X160031904Y-101474632D01*
X160031904Y-101474632D02*
X159993809Y-101436537D01*
X159993809Y-101436537D02*
X159955713Y-101360346D01*
X159955713Y-101360346D02*
X159955713Y-101284156D01*
X159955713Y-101284156D02*
X159993809Y-101207965D01*
X159993809Y-101207965D02*
X160031904Y-101169870D01*
X160031904Y-101169870D02*
X160108094Y-101131775D01*
X160108094Y-101131775D02*
X160298571Y-101131775D01*
X160298571Y-101131775D02*
X160412856Y-101169870D01*
X160755714Y-101931775D02*
X160755714Y-101131775D01*
X161136666Y-101931775D02*
X161136666Y-101131775D01*
X161136666Y-101131775D02*
X161327142Y-101131775D01*
X161327142Y-101131775D02*
X161441428Y-101169870D01*
X161441428Y-101169870D02*
X161517618Y-101246060D01*
X161517618Y-101246060D02*
X161555713Y-101322251D01*
X161555713Y-101322251D02*
X161593809Y-101474632D01*
X161593809Y-101474632D02*
X161593809Y-101588918D01*
X161593809Y-101588918D02*
X161555713Y-101741299D01*
X161555713Y-101741299D02*
X161517618Y-101817489D01*
X161517618Y-101817489D02*
X161441428Y-101893680D01*
X161441428Y-101893680D02*
X161327142Y-101931775D01*
X161327142Y-101931775D02*
X161136666Y-101931775D01*
X161936666Y-101512727D02*
X162203332Y-101512727D01*
X162317618Y-101931775D02*
X161936666Y-101931775D01*
X161936666Y-101931775D02*
X161936666Y-101131775D01*
X161936666Y-101131775D02*
X162317618Y-101131775D01*
X163536666Y-101512727D02*
X163270000Y-101512727D01*
X163270000Y-101931775D02*
X163270000Y-101131775D01*
X163270000Y-101131775D02*
X163650952Y-101131775D01*
X163917618Y-101703203D02*
X164298571Y-101703203D01*
X163841428Y-101931775D02*
X164108095Y-101131775D01*
X164108095Y-101131775D02*
X164374761Y-101931775D01*
X165098571Y-101855584D02*
X165060475Y-101893680D01*
X165060475Y-101893680D02*
X164946190Y-101931775D01*
X164946190Y-101931775D02*
X164869999Y-101931775D01*
X164869999Y-101931775D02*
X164755713Y-101893680D01*
X164755713Y-101893680D02*
X164679523Y-101817489D01*
X164679523Y-101817489D02*
X164641428Y-101741299D01*
X164641428Y-101741299D02*
X164603332Y-101588918D01*
X164603332Y-101588918D02*
X164603332Y-101474632D01*
X164603332Y-101474632D02*
X164641428Y-101322251D01*
X164641428Y-101322251D02*
X164679523Y-101246060D01*
X164679523Y-101246060D02*
X164755713Y-101169870D01*
X164755713Y-101169870D02*
X164869999Y-101131775D01*
X164869999Y-101131775D02*
X164946190Y-101131775D01*
X164946190Y-101131775D02*
X165060475Y-101169870D01*
X165060475Y-101169870D02*
X165098571Y-101207965D01*
X165441428Y-101512727D02*
X165708094Y-101512727D01*
X165822380Y-101931775D02*
X165441428Y-101931775D01*
X165441428Y-101931775D02*
X165441428Y-101131775D01*
X165441428Y-101131775D02*
X165822380Y-101131775D01*
X166127142Y-101893680D02*
X166241428Y-101931775D01*
X166241428Y-101931775D02*
X166431904Y-101931775D01*
X166431904Y-101931775D02*
X166508095Y-101893680D01*
X166508095Y-101893680D02*
X166546190Y-101855584D01*
X166546190Y-101855584D02*
X166584285Y-101779394D01*
X166584285Y-101779394D02*
X166584285Y-101703203D01*
X166584285Y-101703203D02*
X166546190Y-101627013D01*
X166546190Y-101627013D02*
X166508095Y-101588918D01*
X166508095Y-101588918D02*
X166431904Y-101550822D01*
X166431904Y-101550822D02*
X166279523Y-101512727D01*
X166279523Y-101512727D02*
X166203333Y-101474632D01*
X166203333Y-101474632D02*
X166165238Y-101436537D01*
X166165238Y-101436537D02*
X166127142Y-101360346D01*
X166127142Y-101360346D02*
X166127142Y-101284156D01*
X166127142Y-101284156D02*
X166165238Y-101207965D01*
X166165238Y-101207965D02*
X166203333Y-101169870D01*
X166203333Y-101169870D02*
X166279523Y-101131775D01*
X166279523Y-101131775D02*
X166470000Y-101131775D01*
X166470000Y-101131775D02*
X166584285Y-101169870D01*
X158774762Y-93355584D02*
X158736666Y-93393680D01*
X158736666Y-93393680D02*
X158622381Y-93431775D01*
X158622381Y-93431775D02*
X158546190Y-93431775D01*
X158546190Y-93431775D02*
X158431904Y-93393680D01*
X158431904Y-93393680D02*
X158355714Y-93317489D01*
X158355714Y-93317489D02*
X158317619Y-93241299D01*
X158317619Y-93241299D02*
X158279523Y-93088918D01*
X158279523Y-93088918D02*
X158279523Y-92974632D01*
X158279523Y-92974632D02*
X158317619Y-92822251D01*
X158317619Y-92822251D02*
X158355714Y-92746060D01*
X158355714Y-92746060D02*
X158431904Y-92669870D01*
X158431904Y-92669870D02*
X158546190Y-92631775D01*
X158546190Y-92631775D02*
X158622381Y-92631775D01*
X158622381Y-92631775D02*
X158736666Y-92669870D01*
X158736666Y-92669870D02*
X158774762Y-92707965D01*
X159270000Y-92631775D02*
X159422381Y-92631775D01*
X159422381Y-92631775D02*
X159498571Y-92669870D01*
X159498571Y-92669870D02*
X159574762Y-92746060D01*
X159574762Y-92746060D02*
X159612857Y-92898441D01*
X159612857Y-92898441D02*
X159612857Y-93165108D01*
X159612857Y-93165108D02*
X159574762Y-93317489D01*
X159574762Y-93317489D02*
X159498571Y-93393680D01*
X159498571Y-93393680D02*
X159422381Y-93431775D01*
X159422381Y-93431775D02*
X159270000Y-93431775D01*
X159270000Y-93431775D02*
X159193809Y-93393680D01*
X159193809Y-93393680D02*
X159117619Y-93317489D01*
X159117619Y-93317489D02*
X159079523Y-93165108D01*
X159079523Y-93165108D02*
X159079523Y-92898441D01*
X159079523Y-92898441D02*
X159117619Y-92746060D01*
X159117619Y-92746060D02*
X159193809Y-92669870D01*
X159193809Y-92669870D02*
X159270000Y-92631775D01*
X159955714Y-93431775D02*
X159955714Y-92631775D01*
X159955714Y-92631775D02*
X160412857Y-93431775D01*
X160412857Y-93431775D02*
X160412857Y-92631775D01*
X160793809Y-93431775D02*
X160793809Y-92631775D01*
X160793809Y-92631775D02*
X161250952Y-93431775D01*
X161250952Y-93431775D02*
X161250952Y-92631775D01*
X161631904Y-93012727D02*
X161898570Y-93012727D01*
X162012856Y-93431775D02*
X161631904Y-93431775D01*
X161631904Y-93431775D02*
X161631904Y-92631775D01*
X161631904Y-92631775D02*
X162012856Y-92631775D01*
X162812857Y-93355584D02*
X162774761Y-93393680D01*
X162774761Y-93393680D02*
X162660476Y-93431775D01*
X162660476Y-93431775D02*
X162584285Y-93431775D01*
X162584285Y-93431775D02*
X162469999Y-93393680D01*
X162469999Y-93393680D02*
X162393809Y-93317489D01*
X162393809Y-93317489D02*
X162355714Y-93241299D01*
X162355714Y-93241299D02*
X162317618Y-93088918D01*
X162317618Y-93088918D02*
X162317618Y-92974632D01*
X162317618Y-92974632D02*
X162355714Y-92822251D01*
X162355714Y-92822251D02*
X162393809Y-92746060D01*
X162393809Y-92746060D02*
X162469999Y-92669870D01*
X162469999Y-92669870D02*
X162584285Y-92631775D01*
X162584285Y-92631775D02*
X162660476Y-92631775D01*
X162660476Y-92631775D02*
X162774761Y-92669870D01*
X162774761Y-92669870D02*
X162812857Y-92707965D01*
X163041428Y-92631775D02*
X163498571Y-92631775D01*
X163269999Y-93431775D02*
X163269999Y-92631775D01*
X163917619Y-92631775D02*
X164070000Y-92631775D01*
X164070000Y-92631775D02*
X164146190Y-92669870D01*
X164146190Y-92669870D02*
X164222381Y-92746060D01*
X164222381Y-92746060D02*
X164260476Y-92898441D01*
X164260476Y-92898441D02*
X164260476Y-93165108D01*
X164260476Y-93165108D02*
X164222381Y-93317489D01*
X164222381Y-93317489D02*
X164146190Y-93393680D01*
X164146190Y-93393680D02*
X164070000Y-93431775D01*
X164070000Y-93431775D02*
X163917619Y-93431775D01*
X163917619Y-93431775D02*
X163841428Y-93393680D01*
X163841428Y-93393680D02*
X163765238Y-93317489D01*
X163765238Y-93317489D02*
X163727142Y-93165108D01*
X163727142Y-93165108D02*
X163727142Y-92898441D01*
X163727142Y-92898441D02*
X163765238Y-92746060D01*
X163765238Y-92746060D02*
X163841428Y-92669870D01*
X163841428Y-92669870D02*
X163917619Y-92631775D01*
X165060476Y-93431775D02*
X164793809Y-93050822D01*
X164603333Y-93431775D02*
X164603333Y-92631775D01*
X164603333Y-92631775D02*
X164908095Y-92631775D01*
X164908095Y-92631775D02*
X164984285Y-92669870D01*
X164984285Y-92669870D02*
X165022380Y-92707965D01*
X165022380Y-92707965D02*
X165060476Y-92784156D01*
X165060476Y-92784156D02*
X165060476Y-92898441D01*
X165060476Y-92898441D02*
X165022380Y-92974632D01*
X165022380Y-92974632D02*
X164984285Y-93012727D01*
X164984285Y-93012727D02*
X164908095Y-93050822D01*
X164908095Y-93050822D02*
X164603333Y-93050822D01*
D14*
X166773554Y-87883453D02*
X166289744Y-87883453D01*
X166289744Y-87883453D02*
X166241363Y-88367263D01*
X166241363Y-88367263D02*
X166289744Y-88318882D01*
X166289744Y-88318882D02*
X166386506Y-88270501D01*
X166386506Y-88270501D02*
X166628411Y-88270501D01*
X166628411Y-88270501D02*
X166725173Y-88318882D01*
X166725173Y-88318882D02*
X166773554Y-88367263D01*
X166773554Y-88367263D02*
X166821935Y-88464025D01*
X166821935Y-88464025D02*
X166821935Y-88705930D01*
X166821935Y-88705930D02*
X166773554Y-88802692D01*
X166773554Y-88802692D02*
X166725173Y-88851073D01*
X166725173Y-88851073D02*
X166628411Y-88899453D01*
X166628411Y-88899453D02*
X166386506Y-88899453D01*
X166386506Y-88899453D02*
X166289744Y-88851073D01*
X166289744Y-88851073D02*
X166241363Y-88802692D01*
X167112220Y-87883453D02*
X167450887Y-88899453D01*
X167450887Y-88899453D02*
X167789554Y-87883453D01*
D11*
X201444819Y-102533333D02*
X202159104Y-102533333D01*
X202159104Y-102533333D02*
X202301961Y-102580952D01*
X202301961Y-102580952D02*
X202397200Y-102676190D01*
X202397200Y-102676190D02*
X202444819Y-102819047D01*
X202444819Y-102819047D02*
X202444819Y-102914285D01*
X202444819Y-101533333D02*
X202444819Y-102104761D01*
X202444819Y-101819047D02*
X201444819Y-101819047D01*
X201444819Y-101819047D02*
X201587676Y-101914285D01*
X201587676Y-101914285D02*
X201682914Y-102009523D01*
X201682914Y-102009523D02*
X201730533Y-102104761D01*
X196221009Y-135045237D02*
X196221009Y-134711904D01*
X196744819Y-134569047D02*
X196744819Y-135045237D01*
X196744819Y-135045237D02*
X195744819Y-135045237D01*
X195744819Y-135045237D02*
X195744819Y-134569047D01*
X196744819Y-134140475D02*
X195744819Y-134140475D01*
X195744819Y-134140475D02*
X196744819Y-133569047D01*
X196744819Y-133569047D02*
X195744819Y-133569047D01*
X195744819Y-133235713D02*
X195744819Y-132664285D01*
X196744819Y-132949999D02*
X195744819Y-132949999D01*
X196744819Y-131759523D02*
X196268628Y-132092856D01*
X196744819Y-132330951D02*
X195744819Y-132330951D01*
X195744819Y-132330951D02*
X195744819Y-131949999D01*
X195744819Y-131949999D02*
X195792438Y-131854761D01*
X195792438Y-131854761D02*
X195840057Y-131807142D01*
X195840057Y-131807142D02*
X195935295Y-131759523D01*
X195935295Y-131759523D02*
X196078152Y-131759523D01*
X196078152Y-131759523D02*
X196173390Y-131807142D01*
X196173390Y-131807142D02*
X196221009Y-131854761D01*
X196221009Y-131854761D02*
X196268628Y-131949999D01*
X196268628Y-131949999D02*
X196268628Y-132330951D01*
X196744819Y-130807142D02*
X196744819Y-131378570D01*
X196744819Y-131092856D02*
X195744819Y-131092856D01*
X195744819Y-131092856D02*
X195887676Y-131188094D01*
X195887676Y-131188094D02*
X195982914Y-131283332D01*
X195982914Y-131283332D02*
X196030533Y-131378570D01*
X134906666Y-125254819D02*
X134906666Y-125969104D01*
X134906666Y-125969104D02*
X134859047Y-126111961D01*
X134859047Y-126111961D02*
X134763809Y-126207200D01*
X134763809Y-126207200D02*
X134620952Y-126254819D01*
X134620952Y-126254819D02*
X134525714Y-126254819D01*
X135811428Y-125254819D02*
X135620952Y-125254819D01*
X135620952Y-125254819D02*
X135525714Y-125302438D01*
X135525714Y-125302438D02*
X135478095Y-125350057D01*
X135478095Y-125350057D02*
X135382857Y-125492914D01*
X135382857Y-125492914D02*
X135335238Y-125683390D01*
X135335238Y-125683390D02*
X135335238Y-126064342D01*
X135335238Y-126064342D02*
X135382857Y-126159580D01*
X135382857Y-126159580D02*
X135430476Y-126207200D01*
X135430476Y-126207200D02*
X135525714Y-126254819D01*
X135525714Y-126254819D02*
X135716190Y-126254819D01*
X135716190Y-126254819D02*
X135811428Y-126207200D01*
X135811428Y-126207200D02*
X135859047Y-126159580D01*
X135859047Y-126159580D02*
X135906666Y-126064342D01*
X135906666Y-126064342D02*
X135906666Y-125826247D01*
X135906666Y-125826247D02*
X135859047Y-125731009D01*
X135859047Y-125731009D02*
X135811428Y-125683390D01*
X135811428Y-125683390D02*
X135716190Y-125635771D01*
X135716190Y-125635771D02*
X135525714Y-125635771D01*
X135525714Y-125635771D02*
X135430476Y-125683390D01*
X135430476Y-125683390D02*
X135382857Y-125731009D01*
X135382857Y-125731009D02*
X135335238Y-125826247D01*
X205404819Y-126366666D02*
X204928628Y-126699999D01*
X205404819Y-126938094D02*
X204404819Y-126938094D01*
X204404819Y-126938094D02*
X204404819Y-126557142D01*
X204404819Y-126557142D02*
X204452438Y-126461904D01*
X204452438Y-126461904D02*
X204500057Y-126414285D01*
X204500057Y-126414285D02*
X204595295Y-126366666D01*
X204595295Y-126366666D02*
X204738152Y-126366666D01*
X204738152Y-126366666D02*
X204833390Y-126414285D01*
X204833390Y-126414285D02*
X204881009Y-126461904D01*
X204881009Y-126461904D02*
X204928628Y-126557142D01*
X204928628Y-126557142D02*
X204928628Y-126938094D01*
X204404819Y-126033332D02*
X204404819Y-125414285D01*
X204404819Y-125414285D02*
X204785771Y-125747618D01*
X204785771Y-125747618D02*
X204785771Y-125604761D01*
X204785771Y-125604761D02*
X204833390Y-125509523D01*
X204833390Y-125509523D02*
X204881009Y-125461904D01*
X204881009Y-125461904D02*
X204976247Y-125414285D01*
X204976247Y-125414285D02*
X205214342Y-125414285D01*
X205214342Y-125414285D02*
X205309580Y-125461904D01*
X205309580Y-125461904D02*
X205357200Y-125509523D01*
X205357200Y-125509523D02*
X205404819Y-125604761D01*
X205404819Y-125604761D02*
X205404819Y-125890475D01*
X205404819Y-125890475D02*
X205357200Y-125985713D01*
X205357200Y-125985713D02*
X205309580Y-126033332D01*
D12*
D11*
X186028095Y-109692319D02*
X186028095Y-110501842D01*
X186028095Y-110501842D02*
X186075714Y-110597080D01*
X186075714Y-110597080D02*
X186123333Y-110644700D01*
X186123333Y-110644700D02*
X186218571Y-110692319D01*
X186218571Y-110692319D02*
X186409047Y-110692319D01*
X186409047Y-110692319D02*
X186504285Y-110644700D01*
X186504285Y-110644700D02*
X186551904Y-110597080D01*
X186551904Y-110597080D02*
X186599523Y-110501842D01*
X186599523Y-110501842D02*
X186599523Y-109692319D01*
X187218571Y-110120890D02*
X187123333Y-110073271D01*
X187123333Y-110073271D02*
X187075714Y-110025652D01*
X187075714Y-110025652D02*
X187028095Y-109930414D01*
X187028095Y-109930414D02*
X187028095Y-109882795D01*
X187028095Y-109882795D02*
X187075714Y-109787557D01*
X187075714Y-109787557D02*
X187123333Y-109739938D01*
X187123333Y-109739938D02*
X187218571Y-109692319D01*
X187218571Y-109692319D02*
X187409047Y-109692319D01*
X187409047Y-109692319D02*
X187504285Y-109739938D01*
X187504285Y-109739938D02*
X187551904Y-109787557D01*
X187551904Y-109787557D02*
X187599523Y-109882795D01*
X187599523Y-109882795D02*
X187599523Y-109930414D01*
X187599523Y-109930414D02*
X187551904Y-110025652D01*
X187551904Y-110025652D02*
X187504285Y-110073271D01*
X187504285Y-110073271D02*
X187409047Y-110120890D01*
X187409047Y-110120890D02*
X187218571Y-110120890D01*
X187218571Y-110120890D02*
X187123333Y-110168509D01*
X187123333Y-110168509D02*
X187075714Y-110216128D01*
X187075714Y-110216128D02*
X187028095Y-110311366D01*
X187028095Y-110311366D02*
X187028095Y-110501842D01*
X187028095Y-110501842D02*
X187075714Y-110597080D01*
X187075714Y-110597080D02*
X187123333Y-110644700D01*
X187123333Y-110644700D02*
X187218571Y-110692319D01*
X187218571Y-110692319D02*
X187409047Y-110692319D01*
X187409047Y-110692319D02*
X187504285Y-110644700D01*
X187504285Y-110644700D02*
X187551904Y-110597080D01*
X187551904Y-110597080D02*
X187599523Y-110501842D01*
X187599523Y-110501842D02*
X187599523Y-110311366D01*
X187599523Y-110311366D02*
X187551904Y-110216128D01*
X187551904Y-110216128D02*
X187504285Y-110168509D01*
X187504285Y-110168509D02*
X187409047Y-110120890D01*
X140628095Y-93004819D02*
X140628095Y-93814342D01*
X140628095Y-93814342D02*
X140675714Y-93909580D01*
X140675714Y-93909580D02*
X140723333Y-93957200D01*
X140723333Y-93957200D02*
X140818571Y-94004819D01*
X140818571Y-94004819D02*
X141009047Y-94004819D01*
X141009047Y-94004819D02*
X141104285Y-93957200D01*
X141104285Y-93957200D02*
X141151904Y-93909580D01*
X141151904Y-93909580D02*
X141199523Y-93814342D01*
X141199523Y-93814342D02*
X141199523Y-93004819D01*
X141628095Y-93100057D02*
X141675714Y-93052438D01*
X141675714Y-93052438D02*
X141770952Y-93004819D01*
X141770952Y-93004819D02*
X142009047Y-93004819D01*
X142009047Y-93004819D02*
X142104285Y-93052438D01*
X142104285Y-93052438D02*
X142151904Y-93100057D01*
X142151904Y-93100057D02*
X142199523Y-93195295D01*
X142199523Y-93195295D02*
X142199523Y-93290533D01*
X142199523Y-93290533D02*
X142151904Y-93433390D01*
X142151904Y-93433390D02*
X141580476Y-94004819D01*
X141580476Y-94004819D02*
X142199523Y-94004819D01*
X202054819Y-134746666D02*
X201578628Y-135079999D01*
X202054819Y-135318094D02*
X201054819Y-135318094D01*
X201054819Y-135318094D02*
X201054819Y-134937142D01*
X201054819Y-134937142D02*
X201102438Y-134841904D01*
X201102438Y-134841904D02*
X201150057Y-134794285D01*
X201150057Y-134794285D02*
X201245295Y-134746666D01*
X201245295Y-134746666D02*
X201388152Y-134746666D01*
X201388152Y-134746666D02*
X201483390Y-134794285D01*
X201483390Y-134794285D02*
X201531009Y-134841904D01*
X201531009Y-134841904D02*
X201578628Y-134937142D01*
X201578628Y-134937142D02*
X201578628Y-135318094D01*
X201150057Y-134365713D02*
X201102438Y-134318094D01*
X201102438Y-134318094D02*
X201054819Y-134222856D01*
X201054819Y-134222856D02*
X201054819Y-133984761D01*
X201054819Y-133984761D02*
X201102438Y-133889523D01*
X201102438Y-133889523D02*
X201150057Y-133841904D01*
X201150057Y-133841904D02*
X201245295Y-133794285D01*
X201245295Y-133794285D02*
X201340533Y-133794285D01*
X201340533Y-133794285D02*
X201483390Y-133841904D01*
X201483390Y-133841904D02*
X202054819Y-134413332D01*
X202054819Y-134413332D02*
X202054819Y-133794285D01*
X204516666Y-105104819D02*
X204516666Y-105819104D01*
X204516666Y-105819104D02*
X204469047Y-105961961D01*
X204469047Y-105961961D02*
X204373809Y-106057200D01*
X204373809Y-106057200D02*
X204230952Y-106104819D01*
X204230952Y-106104819D02*
X204135714Y-106104819D01*
X204897619Y-105104819D02*
X205516666Y-105104819D01*
X205516666Y-105104819D02*
X205183333Y-105485771D01*
X205183333Y-105485771D02*
X205326190Y-105485771D01*
X205326190Y-105485771D02*
X205421428Y-105533390D01*
X205421428Y-105533390D02*
X205469047Y-105581009D01*
X205469047Y-105581009D02*
X205516666Y-105676247D01*
X205516666Y-105676247D02*
X205516666Y-105914342D01*
X205516666Y-105914342D02*
X205469047Y-106009580D01*
X205469047Y-106009580D02*
X205421428Y-106057200D01*
X205421428Y-106057200D02*
X205326190Y-106104819D01*
X205326190Y-106104819D02*
X205040476Y-106104819D01*
X205040476Y-106104819D02*
X204945238Y-106057200D01*
X204945238Y-106057200D02*
X204897619Y-106009580D01*
X177744819Y-133950000D02*
X177268628Y-134283333D01*
X177744819Y-134521428D02*
X176744819Y-134521428D01*
X176744819Y-134521428D02*
X176744819Y-134140476D01*
X176744819Y-134140476D02*
X176792438Y-134045238D01*
X176792438Y-134045238D02*
X176840057Y-133997619D01*
X176840057Y-133997619D02*
X176935295Y-133950000D01*
X176935295Y-133950000D02*
X177078152Y-133950000D01*
X177078152Y-133950000D02*
X177173390Y-133997619D01*
X177173390Y-133997619D02*
X177221009Y-134045238D01*
X177221009Y-134045238D02*
X177268628Y-134140476D01*
X177268628Y-134140476D02*
X177268628Y-134521428D01*
X177221009Y-133521428D02*
X177221009Y-133188095D01*
X177744819Y-133045238D02*
X177744819Y-133521428D01*
X177744819Y-133521428D02*
X176744819Y-133521428D01*
X176744819Y-133521428D02*
X176744819Y-133045238D01*
X176744819Y-132759523D02*
X176744819Y-132188095D01*
X177744819Y-132473809D02*
X176744819Y-132473809D01*
X177744819Y-131330952D02*
X177744819Y-131902380D01*
X177744819Y-131616666D02*
X176744819Y-131616666D01*
X176744819Y-131616666D02*
X176887676Y-131711904D01*
X176887676Y-131711904D02*
X176982914Y-131807142D01*
X176982914Y-131807142D02*
X177030533Y-131902380D01*
X184432857Y-137654819D02*
X184432857Y-136654819D01*
X184432857Y-136654819D02*
X184670952Y-136654819D01*
X184670952Y-136654819D02*
X184813809Y-136702438D01*
X184813809Y-136702438D02*
X184909047Y-136797676D01*
X184909047Y-136797676D02*
X184956666Y-136892914D01*
X184956666Y-136892914D02*
X185004285Y-137083390D01*
X185004285Y-137083390D02*
X185004285Y-137226247D01*
X185004285Y-137226247D02*
X184956666Y-137416723D01*
X184956666Y-137416723D02*
X184909047Y-137511961D01*
X184909047Y-137511961D02*
X184813809Y-137607200D01*
X184813809Y-137607200D02*
X184670952Y-137654819D01*
X184670952Y-137654819D02*
X184432857Y-137654819D01*
X185623333Y-136654819D02*
X185813809Y-136654819D01*
X185813809Y-136654819D02*
X185909047Y-136702438D01*
X185909047Y-136702438D02*
X186004285Y-136797676D01*
X186004285Y-136797676D02*
X186051904Y-136988152D01*
X186051904Y-136988152D02*
X186051904Y-137321485D01*
X186051904Y-137321485D02*
X186004285Y-137511961D01*
X186004285Y-137511961D02*
X185909047Y-137607200D01*
X185909047Y-137607200D02*
X185813809Y-137654819D01*
X185813809Y-137654819D02*
X185623333Y-137654819D01*
X185623333Y-137654819D02*
X185528095Y-137607200D01*
X185528095Y-137607200D02*
X185432857Y-137511961D01*
X185432857Y-137511961D02*
X185385238Y-137321485D01*
X185385238Y-137321485D02*
X185385238Y-136988152D01*
X185385238Y-136988152D02*
X185432857Y-136797676D01*
X185432857Y-136797676D02*
X185528095Y-136702438D01*
X185528095Y-136702438D02*
X185623333Y-136654819D01*
X186385238Y-136654819D02*
X186623333Y-137654819D01*
X186623333Y-137654819D02*
X186813809Y-136940533D01*
X186813809Y-136940533D02*
X187004285Y-137654819D01*
X187004285Y-137654819D02*
X187242381Y-136654819D01*
X187623333Y-137654819D02*
X187623333Y-136654819D01*
X187623333Y-136654819D02*
X188194761Y-137654819D01*
X188194761Y-137654819D02*
X188194761Y-136654819D01*
X189194761Y-137654819D02*
X188623333Y-137654819D01*
X188909047Y-137654819D02*
X188909047Y-136654819D01*
X188909047Y-136654819D02*
X188813809Y-136797676D01*
X188813809Y-136797676D02*
X188718571Y-136892914D01*
X188718571Y-136892914D02*
X188623333Y-136940533D01*
D15*
%TO.C,J2*%
X173080000Y-86660000D02*
X206360000Y-86660000D01*
X173080000Y-95780000D02*
X173080000Y-86660000D01*
X174380000Y-87970000D02*
X205060000Y-87970000D01*
X174380000Y-94470000D02*
X174380000Y-87970000D01*
X177790000Y-97170000D02*
X178790000Y-97170000D01*
X178290000Y-96170000D02*
X177790000Y-97170000D01*
X178790000Y-97170000D02*
X178290000Y-96170000D01*
X187670000Y-94470000D02*
X174380000Y-94470000D01*
X187670000Y-95780000D02*
X187670000Y-94470000D01*
X191770000Y-94470000D02*
X191770000Y-94470000D01*
X191770000Y-94470000D02*
X191770000Y-95780000D01*
X205060000Y-87970000D02*
X205060000Y-94470000D01*
X205060000Y-94470000D02*
X191770000Y-94470000D01*
X206360000Y-86660000D02*
X206360000Y-95780000D01*
X206360000Y-95780000D02*
X173080000Y-95780000D01*
%TO.C,UP1*%
X183290000Y-127950000D02*
X183290000Y-129450000D01*
X184540000Y-131950000D02*
X189040000Y-131950000D01*
X189040000Y-125450000D02*
X184540000Y-125450000D01*
X190290000Y-129450000D02*
X190290000Y-127950000D01*
%TO.C,R1*%
X200230000Y-118980000D02*
X200230000Y-125520000D01*
X200230000Y-125520000D02*
X202970000Y-125520000D01*
X201600000Y-118210000D02*
X201600000Y-118980000D01*
X201600000Y-126290000D02*
X201600000Y-125520000D01*
X202970000Y-118980000D02*
X200230000Y-118980000D01*
X202970000Y-125520000D02*
X202970000Y-118980000D01*
D16*
%TO.C, *%
G36*
X144341600Y-121827583D02*
G01*
X144355154Y-121839919D01*
X144364017Y-121869567D01*
X144369181Y-121923960D01*
X144371637Y-122010534D01*
X144372377Y-122136723D01*
X144372414Y-122200493D01*
X144372086Y-122344758D01*
X144370441Y-122446411D01*
X144366488Y-122512884D01*
X144359236Y-122551614D01*
X144347693Y-122570035D01*
X144330867Y-122575583D01*
X144322365Y-122575862D01*
X144303129Y-122573403D01*
X144289576Y-122561067D01*
X144280712Y-122531419D01*
X144275548Y-122477026D01*
X144273092Y-122390452D01*
X144272353Y-122264263D01*
X144272315Y-122200493D01*
X144272643Y-122056227D01*
X144274288Y-121954575D01*
X144278241Y-121888102D01*
X144285494Y-121849372D01*
X144297037Y-121830950D01*
X144313862Y-121825403D01*
X144322365Y-121825123D01*
X144341600Y-121827583D01*
G37*
G36*
X144836491Y-123505254D02*
G01*
X144925848Y-123537822D01*
X145036343Y-123583376D01*
X145160349Y-123638305D01*
X145290240Y-123698997D01*
X145418390Y-123761840D01*
X145537173Y-123823222D01*
X145638962Y-123879530D01*
X145716132Y-123927154D01*
X145761056Y-123962479D01*
X145769278Y-123975490D01*
X145771622Y-124016905D01*
X145767181Y-124027291D01*
X145740659Y-124017022D01*
X145677128Y-123988755D01*
X145584626Y-123946302D01*
X145471191Y-123893473D01*
X145344862Y-123834079D01*
X145213677Y-123771932D01*
X145085674Y-123710842D01*
X144968892Y-123654619D01*
X144871370Y-123607076D01*
X144801145Y-123572022D01*
X144766257Y-123553270D01*
X144764205Y-123551790D01*
X144750082Y-123512712D01*
X144751693Y-123493527D01*
X144775897Y-123489285D01*
X144836491Y-123505254D01*
G37*
G36*
X144836491Y-125006732D02*
G01*
X144925848Y-125039299D01*
X145036343Y-125084854D01*
X145160349Y-125139783D01*
X145290240Y-125200475D01*
X145418390Y-125263318D01*
X145537173Y-125324700D01*
X145638962Y-125381008D01*
X145716132Y-125428631D01*
X145761056Y-125463957D01*
X145769278Y-125476968D01*
X145771622Y-125518383D01*
X145767181Y-125528769D01*
X145740659Y-125518500D01*
X145677128Y-125490233D01*
X145584626Y-125447780D01*
X145471191Y-125394951D01*
X145344862Y-125335557D01*
X145213677Y-125273410D01*
X145085674Y-125212319D01*
X144968892Y-125156097D01*
X144871370Y-125108554D01*
X144801145Y-125073500D01*
X144766257Y-125054748D01*
X144764205Y-125053268D01*
X144750082Y-125014190D01*
X144751693Y-124995005D01*
X144775897Y-124990763D01*
X144836491Y-125006732D01*
G37*
G36*
X145843078Y-115821672D02*
G01*
X145856631Y-115834008D01*
X145865495Y-115863655D01*
X145870659Y-115918048D01*
X145873115Y-116004622D01*
X145873854Y-116130812D01*
X145873892Y-116194582D01*
X145873564Y-116338847D01*
X145871919Y-116440499D01*
X145867966Y-116506973D01*
X145860714Y-116545703D01*
X145849170Y-116564124D01*
X145832345Y-116569671D01*
X145823842Y-116569951D01*
X145804607Y-116567491D01*
X145791053Y-116555155D01*
X145782190Y-116525508D01*
X145777026Y-116471115D01*
X145774570Y-116384541D01*
X145773830Y-116258351D01*
X145773793Y-116194582D01*
X145774121Y-116050316D01*
X145775766Y-115948664D01*
X145779719Y-115882190D01*
X145786971Y-115843460D01*
X145798515Y-115825039D01*
X145815340Y-115819492D01*
X145823842Y-115819212D01*
X145843078Y-115821672D01*
G37*
G36*
X145843078Y-118824628D02*
G01*
X145856631Y-118836964D01*
X145865495Y-118866611D01*
X145870659Y-118921004D01*
X145873115Y-119007578D01*
X145873854Y-119133767D01*
X145873892Y-119197537D01*
X145873564Y-119341803D01*
X145871919Y-119443455D01*
X145867966Y-119509929D01*
X145860714Y-119548659D01*
X145849170Y-119567080D01*
X145832345Y-119572627D01*
X145823842Y-119572907D01*
X145804607Y-119570447D01*
X145791053Y-119558111D01*
X145782190Y-119528464D01*
X145777026Y-119474071D01*
X145774570Y-119387497D01*
X145773830Y-119261307D01*
X145773793Y-119197537D01*
X145774121Y-119053272D01*
X145775766Y-118951620D01*
X145779719Y-118885146D01*
X145786971Y-118846416D01*
X145798515Y-118827995D01*
X145815340Y-118822447D01*
X145823842Y-118822168D01*
X145843078Y-118824628D01*
G37*
G36*
X145843078Y-121076844D02*
G01*
X145856631Y-121089180D01*
X145865495Y-121118828D01*
X145870659Y-121173221D01*
X145873115Y-121259795D01*
X145873854Y-121385984D01*
X145873892Y-121449754D01*
X145873564Y-121594019D01*
X145871919Y-121695672D01*
X145867966Y-121762145D01*
X145860714Y-121800875D01*
X145849170Y-121819297D01*
X145832345Y-121824844D01*
X145823842Y-121825123D01*
X145804607Y-121822664D01*
X145791053Y-121810328D01*
X145782190Y-121780680D01*
X145777026Y-121726287D01*
X145774570Y-121639713D01*
X145773830Y-121513524D01*
X145773793Y-121449754D01*
X145774121Y-121305489D01*
X145775766Y-121203836D01*
X145779719Y-121137363D01*
X145786971Y-121098633D01*
X145798515Y-121080212D01*
X145815340Y-121074664D01*
X145823842Y-121074385D01*
X145843078Y-121076844D01*
G37*
G36*
X145843078Y-122603347D02*
G01*
X145856631Y-122615683D01*
X145865495Y-122645330D01*
X145870659Y-122699723D01*
X145873115Y-122786297D01*
X145873854Y-122912487D01*
X145873892Y-122976256D01*
X145873564Y-123120522D01*
X145871919Y-123222174D01*
X145867966Y-123288648D01*
X145860714Y-123327378D01*
X145849170Y-123345799D01*
X145832345Y-123351346D01*
X145823842Y-123351626D01*
X145804607Y-123349166D01*
X145791053Y-123336830D01*
X145782190Y-123307183D01*
X145777026Y-123252790D01*
X145774570Y-123166216D01*
X145773830Y-123040026D01*
X145773793Y-122976256D01*
X145774121Y-122831991D01*
X145775766Y-122730339D01*
X145779719Y-122663865D01*
X145786971Y-122625135D01*
X145798515Y-122606714D01*
X145815340Y-122601167D01*
X145823842Y-122600887D01*
X145843078Y-122603347D01*
G37*
G36*
X146337968Y-114446338D02*
G01*
X146427326Y-114478905D01*
X146537821Y-114524460D01*
X146661827Y-114579389D01*
X146791718Y-114640081D01*
X146919868Y-114702924D01*
X147038651Y-114764306D01*
X147140440Y-114820614D01*
X147217610Y-114868237D01*
X147262534Y-114903563D01*
X147270755Y-114916574D01*
X147273100Y-114957989D01*
X147268659Y-114968375D01*
X147242137Y-114958106D01*
X147178606Y-114929839D01*
X147086104Y-114887386D01*
X146972669Y-114834557D01*
X146846340Y-114775163D01*
X146715154Y-114713016D01*
X146587152Y-114651925D01*
X146470370Y-114595703D01*
X146372848Y-114548160D01*
X146302623Y-114513106D01*
X146267735Y-114494353D01*
X146265683Y-114492874D01*
X146251560Y-114453796D01*
X146253171Y-114434611D01*
X146277375Y-114430369D01*
X146337968Y-114446338D01*
G37*
G36*
X146337968Y-124255993D02*
G01*
X146427326Y-124288561D01*
X146537821Y-124334115D01*
X146661827Y-124389044D01*
X146791718Y-124449736D01*
X146919868Y-124512579D01*
X147038651Y-124573961D01*
X147140440Y-124630269D01*
X147217610Y-124677892D01*
X147262534Y-124713218D01*
X147270755Y-124726229D01*
X147273100Y-124767644D01*
X147268659Y-124778030D01*
X147242137Y-124767761D01*
X147178606Y-124739494D01*
X147086104Y-124697041D01*
X146972669Y-124644212D01*
X146846340Y-124584818D01*
X146715154Y-124522671D01*
X146587152Y-124461580D01*
X146470370Y-124405358D01*
X146372848Y-124357815D01*
X146302623Y-124322761D01*
X146267735Y-124304009D01*
X146265683Y-124302529D01*
X146251560Y-124263451D01*
X146253171Y-124244266D01*
X146277375Y-124240024D01*
X146337968Y-124255993D01*
G37*
G36*
X147344556Y-118824628D02*
G01*
X147358109Y-118836964D01*
X147366972Y-118866611D01*
X147372136Y-118921004D01*
X147374593Y-119007578D01*
X147375332Y-119133767D01*
X147375370Y-119197537D01*
X147375042Y-119341803D01*
X147373397Y-119443455D01*
X147369444Y-119509929D01*
X147362191Y-119548659D01*
X147350648Y-119567080D01*
X147333823Y-119572627D01*
X147325320Y-119572907D01*
X147306085Y-119570447D01*
X147292531Y-119558111D01*
X147283668Y-119528464D01*
X147278504Y-119474071D01*
X147276048Y-119387497D01*
X147275308Y-119261307D01*
X147275271Y-119197537D01*
X147275599Y-119053272D01*
X147277244Y-118951620D01*
X147281197Y-118885146D01*
X147288449Y-118846416D01*
X147299992Y-118827995D01*
X147316818Y-118822447D01*
X147325320Y-118822168D01*
X147344556Y-118824628D01*
G37*
G36*
X147839446Y-117474318D02*
G01*
X147928804Y-117506886D01*
X148039299Y-117552440D01*
X148163305Y-117607369D01*
X148293196Y-117668061D01*
X148421346Y-117730904D01*
X148540128Y-117792286D01*
X148641918Y-117848594D01*
X148719087Y-117896218D01*
X148764011Y-117931543D01*
X148772233Y-117944554D01*
X148774578Y-117985969D01*
X148770136Y-117996355D01*
X148743615Y-117986086D01*
X148680084Y-117957819D01*
X148587582Y-117915366D01*
X148474147Y-117862537D01*
X148347817Y-117803143D01*
X148216632Y-117740996D01*
X148088630Y-117679906D01*
X147971848Y-117623683D01*
X147874326Y-117576140D01*
X147804101Y-117541086D01*
X147769213Y-117522334D01*
X147767161Y-117520854D01*
X147753038Y-117481776D01*
X147754648Y-117462591D01*
X147778852Y-117458349D01*
X147839446Y-117474318D01*
G37*
G36*
X147839446Y-125006732D02*
G01*
X147928804Y-125039299D01*
X148039299Y-125084854D01*
X148163305Y-125139783D01*
X148293196Y-125200475D01*
X148421346Y-125263318D01*
X148540128Y-125324700D01*
X148641918Y-125381008D01*
X148719087Y-125428631D01*
X148764011Y-125463957D01*
X148772233Y-125476968D01*
X148774578Y-125518383D01*
X148770136Y-125528769D01*
X148743615Y-125518500D01*
X148680084Y-125490233D01*
X148587582Y-125447780D01*
X148474147Y-125394951D01*
X148347817Y-125335557D01*
X148216632Y-125273410D01*
X148088630Y-125212319D01*
X147971848Y-125156097D01*
X147874326Y-125108554D01*
X147804101Y-125073500D01*
X147769213Y-125054748D01*
X147767161Y-125053268D01*
X147753038Y-125014190D01*
X147754648Y-124995005D01*
X147778852Y-124990763D01*
X147839446Y-125006732D01*
G37*
G36*
X148846034Y-115070933D02*
G01*
X148859587Y-115083269D01*
X148868450Y-115112916D01*
X148873614Y-115167309D01*
X148876070Y-115253883D01*
X148876810Y-115380073D01*
X148876847Y-115443843D01*
X148876519Y-115588108D01*
X148874875Y-115689760D01*
X148870922Y-115756234D01*
X148863669Y-115794964D01*
X148852126Y-115813385D01*
X148835301Y-115818933D01*
X148826798Y-115819212D01*
X148807563Y-115816752D01*
X148794009Y-115804416D01*
X148785146Y-115774769D01*
X148779982Y-115720376D01*
X148777526Y-115633802D01*
X148776786Y-115507612D01*
X148776749Y-115443843D01*
X148777077Y-115299577D01*
X148778722Y-115197925D01*
X148782675Y-115131451D01*
X148789927Y-115092721D01*
X148801470Y-115074300D01*
X148818295Y-115068753D01*
X148826798Y-115068473D01*
X148846034Y-115070933D01*
G37*
G36*
X148846034Y-116572411D02*
G01*
X148859587Y-116584747D01*
X148868450Y-116614394D01*
X148873614Y-116668787D01*
X148876070Y-116755361D01*
X148876810Y-116881551D01*
X148876847Y-116945321D01*
X148876519Y-117089586D01*
X148874875Y-117191238D01*
X148870922Y-117257712D01*
X148863669Y-117296442D01*
X148852126Y-117314863D01*
X148835301Y-117320410D01*
X148826798Y-117320690D01*
X148807563Y-117318230D01*
X148794009Y-117305894D01*
X148785146Y-117276247D01*
X148779982Y-117221854D01*
X148777526Y-117135280D01*
X148776786Y-117009090D01*
X148776749Y-116945321D01*
X148777077Y-116801055D01*
X148778722Y-116699403D01*
X148782675Y-116632929D01*
X148789927Y-116594199D01*
X148801470Y-116575778D01*
X148818295Y-116570231D01*
X148826798Y-116569951D01*
X148846034Y-116572411D01*
G37*
G36*
X148846034Y-122603347D02*
G01*
X148859587Y-122615683D01*
X148868450Y-122645330D01*
X148873614Y-122699723D01*
X148876070Y-122786297D01*
X148876810Y-122912487D01*
X148876847Y-122976256D01*
X148876519Y-123120522D01*
X148874875Y-123222174D01*
X148870922Y-123288648D01*
X148863669Y-123327378D01*
X148852126Y-123345799D01*
X148835301Y-123351346D01*
X148826798Y-123351626D01*
X148807563Y-123349166D01*
X148794009Y-123336830D01*
X148785146Y-123307183D01*
X148779982Y-123252790D01*
X148777526Y-123166216D01*
X148776786Y-123040026D01*
X148776749Y-122976256D01*
X148777077Y-122831991D01*
X148778722Y-122730339D01*
X148782675Y-122663865D01*
X148789927Y-122625135D01*
X148801470Y-122606714D01*
X148818295Y-122601167D01*
X148826798Y-122600887D01*
X148846034Y-122603347D01*
G37*
G36*
X148846034Y-125606303D02*
G01*
X148859587Y-125618639D01*
X148868450Y-125648286D01*
X148873614Y-125702679D01*
X148876070Y-125789253D01*
X148876810Y-125915442D01*
X148876847Y-125979212D01*
X148876519Y-126123478D01*
X148874875Y-126225130D01*
X148870922Y-126291603D01*
X148863669Y-126330333D01*
X148852126Y-126348755D01*
X148835301Y-126354302D01*
X148826798Y-126354582D01*
X148807563Y-126352122D01*
X148794009Y-126339786D01*
X148785146Y-126310139D01*
X148779982Y-126255745D01*
X148777526Y-126169172D01*
X148776786Y-126042982D01*
X148776749Y-125979212D01*
X148777077Y-125834947D01*
X148778722Y-125733295D01*
X148782675Y-125666821D01*
X148789927Y-125628091D01*
X148801470Y-125609670D01*
X148818295Y-125604122D01*
X148826798Y-125603843D01*
X148846034Y-125606303D01*
G37*
G36*
X145769257Y-114414026D02*
G01*
X145773721Y-114424538D01*
X145773841Y-114440901D01*
X145773793Y-114445558D01*
X145761288Y-114478301D01*
X145718912Y-114513613D01*
X145639374Y-114556856D01*
X145592365Y-114579026D01*
X145499429Y-114622057D01*
X145376594Y-114679461D01*
X145239140Y-114744072D01*
X145102345Y-114808727D01*
X145088410Y-114815336D01*
X144972463Y-114870014D01*
X144873460Y-114916057D01*
X144799761Y-114949628D01*
X144759724Y-114966890D01*
X144755094Y-114968375D01*
X144749673Y-114947618D01*
X144752299Y-114916799D01*
X144765881Y-114892661D01*
X144803193Y-114862021D01*
X144869251Y-114821964D01*
X144969068Y-114769578D01*
X145107662Y-114701947D01*
X145185714Y-114664963D01*
X145364140Y-114580956D01*
X145502333Y-114516189D01*
X145605421Y-114468751D01*
X145678530Y-114436728D01*
X145726788Y-114418209D01*
X145755321Y-114411279D01*
X145769257Y-114414026D01*
G37*
G36*
X145769257Y-126475898D02*
G01*
X145773721Y-126486410D01*
X145773841Y-126502773D01*
X145773793Y-126507430D01*
X145761288Y-126540173D01*
X145718912Y-126575484D01*
X145639374Y-126618728D01*
X145592365Y-126640898D01*
X145499429Y-126683929D01*
X145376594Y-126741333D01*
X145239140Y-126805944D01*
X145102345Y-126870599D01*
X145088410Y-126877208D01*
X144972463Y-126931886D01*
X144873460Y-126977929D01*
X144799761Y-127011500D01*
X144759724Y-127028762D01*
X144755094Y-127030247D01*
X144749673Y-127009490D01*
X144752299Y-126978671D01*
X144765881Y-126954533D01*
X144803193Y-126923893D01*
X144869251Y-126883836D01*
X144969068Y-126831450D01*
X145107662Y-126763819D01*
X145185714Y-126726835D01*
X145364140Y-126642827D01*
X145502333Y-126578061D01*
X145605421Y-126530623D01*
X145678530Y-126498600D01*
X145726788Y-126480080D01*
X145755321Y-126473151D01*
X145769257Y-126475898D01*
G37*
G36*
X145769257Y-127977376D02*
G01*
X145773721Y-127987888D01*
X145773841Y-128004251D01*
X145773793Y-128008908D01*
X145761288Y-128041651D01*
X145718912Y-128076962D01*
X145639374Y-128120206D01*
X145592365Y-128142376D01*
X145499429Y-128185407D01*
X145376594Y-128242810D01*
X145239140Y-128307422D01*
X145102345Y-128372077D01*
X145088410Y-128378686D01*
X144972463Y-128433364D01*
X144873460Y-128479407D01*
X144799761Y-128512978D01*
X144759724Y-128530239D01*
X144755094Y-128531724D01*
X144749673Y-128510968D01*
X144752299Y-128480149D01*
X144765881Y-128456011D01*
X144803193Y-128425370D01*
X144869251Y-128385314D01*
X144969068Y-128332927D01*
X145107662Y-128265296D01*
X145185714Y-128228313D01*
X145364140Y-128144305D01*
X145502333Y-128079539D01*
X145605421Y-128032101D01*
X145678530Y-128000078D01*
X145726788Y-127981558D01*
X145755321Y-127974628D01*
X145769257Y-127977376D01*
G37*
G36*
X147270734Y-117442006D02*
G01*
X147275199Y-117452518D01*
X147275319Y-117468881D01*
X147275271Y-117473538D01*
X147262766Y-117506281D01*
X147220390Y-117541593D01*
X147140852Y-117584836D01*
X147093842Y-117607006D01*
X147000907Y-117650037D01*
X146878072Y-117707441D01*
X146740617Y-117772053D01*
X146603823Y-117836707D01*
X146589888Y-117843317D01*
X146473941Y-117897994D01*
X146374938Y-117944037D01*
X146301239Y-117977608D01*
X146261202Y-117994870D01*
X146256571Y-117996355D01*
X146251151Y-117975599D01*
X146253777Y-117944780D01*
X146267359Y-117920641D01*
X146304671Y-117890001D01*
X146370728Y-117849945D01*
X146470546Y-117797558D01*
X146609140Y-117729927D01*
X146687192Y-117692943D01*
X146865618Y-117608936D01*
X147003811Y-117544169D01*
X147106899Y-117496731D01*
X147180008Y-117464709D01*
X147228266Y-117446189D01*
X147256799Y-117439259D01*
X147270734Y-117442006D01*
G37*
G36*
X147270734Y-127226637D02*
G01*
X147275199Y-127237149D01*
X147275319Y-127253512D01*
X147275271Y-127258169D01*
X147262766Y-127290912D01*
X147220390Y-127326223D01*
X147140852Y-127369467D01*
X147093842Y-127391637D01*
X147000907Y-127434668D01*
X146878072Y-127492072D01*
X146740617Y-127556683D01*
X146603823Y-127621338D01*
X146589888Y-127627947D01*
X146473941Y-127682625D01*
X146374938Y-127728668D01*
X146301239Y-127762239D01*
X146261202Y-127779500D01*
X146256571Y-127780986D01*
X146251151Y-127760229D01*
X146253777Y-127729410D01*
X146267359Y-127705272D01*
X146304671Y-127674632D01*
X146370728Y-127634575D01*
X146470546Y-127582189D01*
X146609140Y-127514558D01*
X146687192Y-127477574D01*
X146865618Y-127393566D01*
X147003811Y-127328800D01*
X147106899Y-127281362D01*
X147180008Y-127249339D01*
X147228266Y-127230819D01*
X147256799Y-127223890D01*
X147270734Y-127226637D01*
G37*
G36*
X148772212Y-114414026D02*
G01*
X148776677Y-114424538D01*
X148776797Y-114440901D01*
X148776749Y-114445558D01*
X148764244Y-114478301D01*
X148721868Y-114513613D01*
X148642329Y-114556856D01*
X148595320Y-114579026D01*
X148502384Y-114622057D01*
X148379550Y-114679461D01*
X148242095Y-114744072D01*
X148105301Y-114808727D01*
X148091366Y-114815336D01*
X147975418Y-114870014D01*
X147876416Y-114916057D01*
X147802717Y-114949628D01*
X147762680Y-114966890D01*
X147758049Y-114968375D01*
X147752629Y-114947618D01*
X147755255Y-114916799D01*
X147768837Y-114892661D01*
X147806149Y-114862021D01*
X147872206Y-114821964D01*
X147972024Y-114769578D01*
X148110617Y-114701947D01*
X148188670Y-114664963D01*
X148367095Y-114580956D01*
X148505289Y-114516189D01*
X148608377Y-114468751D01*
X148681486Y-114436728D01*
X148729744Y-114418209D01*
X148758277Y-114411279D01*
X148772212Y-114414026D01*
G37*
G36*
X148772212Y-126475898D02*
G01*
X148776677Y-126486410D01*
X148776797Y-126502773D01*
X148776749Y-126507430D01*
X148764244Y-126540173D01*
X148721868Y-126575484D01*
X148642329Y-126618728D01*
X148595320Y-126640898D01*
X148502384Y-126683929D01*
X148379550Y-126741333D01*
X148242095Y-126805944D01*
X148105301Y-126870599D01*
X148091366Y-126877208D01*
X147975418Y-126931886D01*
X147876416Y-126977929D01*
X147802717Y-127011500D01*
X147762680Y-127028762D01*
X147758049Y-127030247D01*
X147752629Y-127009490D01*
X147755255Y-126978671D01*
X147768837Y-126954533D01*
X147806149Y-126923893D01*
X147872206Y-126883836D01*
X147972024Y-126831450D01*
X148110617Y-126763819D01*
X148188670Y-126726835D01*
X148367095Y-126642827D01*
X148505289Y-126578061D01*
X148608377Y-126530623D01*
X148681486Y-126498600D01*
X148729744Y-126480080D01*
X148758277Y-126473151D01*
X148772212Y-126475898D01*
G37*
G36*
X144337268Y-127857635D02*
G01*
X144348875Y-127866067D01*
X144357599Y-127886909D01*
X144363849Y-127925718D01*
X144368038Y-127988048D01*
X144370578Y-128079456D01*
X144371879Y-128205497D01*
X144372353Y-128371726D01*
X144372414Y-128531724D01*
X144372297Y-128732919D01*
X144371673Y-128889621D01*
X144370129Y-129007384D01*
X144367254Y-129091764D01*
X144362637Y-129148317D01*
X144355866Y-129182599D01*
X144346530Y-129200164D01*
X144334216Y-129206568D01*
X144322365Y-129207389D01*
X144307461Y-129205814D01*
X144295854Y-129197382D01*
X144287131Y-129176540D01*
X144280880Y-129137731D01*
X144276691Y-129075401D01*
X144274152Y-128983993D01*
X144272851Y-128857952D01*
X144272376Y-128691723D01*
X144272315Y-128531724D01*
X144272432Y-128330529D01*
X144273057Y-128173828D01*
X144274601Y-128056065D01*
X144277475Y-127971685D01*
X144282092Y-127915132D01*
X144288863Y-127880850D01*
X144298200Y-127863285D01*
X144310513Y-127856881D01*
X144322365Y-127856059D01*
X144337268Y-127857635D01*
G37*
G36*
X145318242Y-117610099D02*
G01*
X145405068Y-117617050D01*
X145475516Y-117632435D01*
X145546397Y-117659364D01*
X145595158Y-117681892D01*
X145692247Y-117735213D01*
X145741977Y-117779530D01*
X145748769Y-117799006D01*
X145744156Y-117820195D01*
X145723812Y-117824730D01*
X145677977Y-117811190D01*
X145596890Y-117778155D01*
X145592365Y-117776234D01*
X145505566Y-117742864D01*
X145425984Y-117722728D01*
X145335294Y-117712734D01*
X145215170Y-117709793D01*
X145198227Y-117709767D01*
X145073427Y-117712081D01*
X144980222Y-117721083D01*
X144900284Y-117739864D01*
X144815288Y-117771514D01*
X144804089Y-117776234D01*
X144721229Y-117810158D01*
X144674049Y-117824525D01*
X144652790Y-117820754D01*
X144647691Y-117800268D01*
X144647685Y-117799006D01*
X144672001Y-117759767D01*
X144744239Y-117711094D01*
X144801295Y-117681892D01*
X144880302Y-117646706D01*
X144948971Y-117624895D01*
X145024112Y-117613351D01*
X145122537Y-117608964D01*
X145198227Y-117608473D01*
X145318242Y-117610099D01*
G37*
G36*
X145516088Y-120624075D02*
G01*
X145664550Y-120624783D01*
X145774507Y-120626527D01*
X145851732Y-120629769D01*
X145901998Y-120634972D01*
X145931077Y-120642596D01*
X145944741Y-120653104D01*
X145948763Y-120666957D01*
X145948966Y-120673990D01*
X145947299Y-120689410D01*
X145938449Y-120701286D01*
X145916645Y-120710083D01*
X145876114Y-120716261D01*
X145811084Y-120720282D01*
X145715782Y-120722609D01*
X145584435Y-120723702D01*
X145411271Y-120724024D01*
X145323350Y-120724040D01*
X145130612Y-120723906D01*
X144982150Y-120723198D01*
X144872193Y-120721454D01*
X144794967Y-120718212D01*
X144744702Y-120713009D01*
X144715623Y-120705385D01*
X144701959Y-120694877D01*
X144697937Y-120681024D01*
X144697734Y-120673990D01*
X144699401Y-120658571D01*
X144708250Y-120646695D01*
X144730054Y-120637898D01*
X144770585Y-120631720D01*
X144835616Y-120627699D01*
X144930918Y-120625372D01*
X145062265Y-120624279D01*
X145235428Y-120623957D01*
X145323350Y-120623941D01*
X145516088Y-120624075D01*
G37*
G36*
X147017566Y-120624075D02*
G01*
X147166027Y-120624783D01*
X147275985Y-120626527D01*
X147353210Y-120629769D01*
X147403476Y-120634972D01*
X147432555Y-120642596D01*
X147446219Y-120653104D01*
X147450241Y-120666957D01*
X147450443Y-120673990D01*
X147448776Y-120689410D01*
X147439927Y-120701286D01*
X147418123Y-120710083D01*
X147377592Y-120716261D01*
X147312562Y-120720282D01*
X147217259Y-120722609D01*
X147085913Y-120723702D01*
X146912749Y-120724024D01*
X146824828Y-120724040D01*
X146632089Y-120723906D01*
X146483628Y-120723198D01*
X146373671Y-120721454D01*
X146296445Y-120718212D01*
X146246179Y-120713009D01*
X146217101Y-120705385D01*
X146203436Y-120694877D01*
X146199414Y-120681024D01*
X146199212Y-120673990D01*
X146200879Y-120658571D01*
X146209728Y-120646695D01*
X146231532Y-120637898D01*
X146272063Y-120631720D01*
X146337093Y-120627699D01*
X146432396Y-120625372D01*
X146563743Y-120624279D01*
X146736906Y-120623957D01*
X146824828Y-120623941D01*
X147017566Y-120624075D01*
G37*
G36*
X147017566Y-121374813D02*
G01*
X147166027Y-121375521D01*
X147275985Y-121377266D01*
X147353210Y-121380508D01*
X147403476Y-121385711D01*
X147432555Y-121393335D01*
X147446219Y-121403843D01*
X147450241Y-121417696D01*
X147450443Y-121424729D01*
X147448776Y-121440148D01*
X147439927Y-121452025D01*
X147418123Y-121460822D01*
X147377592Y-121467000D01*
X147312562Y-121471021D01*
X147217259Y-121473348D01*
X147085913Y-121474441D01*
X146912749Y-121474762D01*
X146824828Y-121474779D01*
X146632089Y-121474645D01*
X146483628Y-121473937D01*
X146373671Y-121472193D01*
X146296445Y-121468951D01*
X146246179Y-121463748D01*
X146217101Y-121456124D01*
X146203436Y-121445616D01*
X146199414Y-121431763D01*
X146199212Y-121424729D01*
X146200879Y-121409310D01*
X146209728Y-121397433D01*
X146231532Y-121388637D01*
X146272063Y-121382459D01*
X146337093Y-121378438D01*
X146432396Y-121376111D01*
X146563743Y-121375018D01*
X146736906Y-121374696D01*
X146824828Y-121374680D01*
X147017566Y-121374813D01*
G37*
G36*
X147017566Y-122901316D02*
G01*
X147166027Y-122902024D01*
X147275985Y-122903768D01*
X147353210Y-122907011D01*
X147403476Y-122912213D01*
X147432555Y-122919837D01*
X147446219Y-122930345D01*
X147450241Y-122944198D01*
X147450443Y-122951232D01*
X147448776Y-122966651D01*
X147439927Y-122978528D01*
X147418123Y-122987324D01*
X147377592Y-122993502D01*
X147312562Y-122997524D01*
X147217259Y-122999850D01*
X147085913Y-123000943D01*
X146912749Y-123001265D01*
X146824828Y-123001281D01*
X146632089Y-123001148D01*
X146483628Y-123000440D01*
X146373671Y-122998696D01*
X146296445Y-122995453D01*
X146246179Y-122990251D01*
X146217101Y-122982626D01*
X146203436Y-122972119D01*
X146199414Y-122958266D01*
X146199212Y-122951232D01*
X146200879Y-122935813D01*
X146209728Y-122923936D01*
X146231532Y-122915139D01*
X146272063Y-122908961D01*
X146337093Y-122904940D01*
X146432396Y-122902614D01*
X146563743Y-122901521D01*
X146736906Y-122901199D01*
X146824828Y-122901183D01*
X147017566Y-122901316D01*
G37*
G36*
X148519044Y-116119641D02*
G01*
X148667505Y-116120349D01*
X148777463Y-116122093D01*
X148854688Y-116125336D01*
X148904954Y-116130538D01*
X148934033Y-116138162D01*
X148947697Y-116148670D01*
X148951719Y-116162523D01*
X148951921Y-116169557D01*
X148950254Y-116184976D01*
X148941405Y-116196853D01*
X148919601Y-116205650D01*
X148879070Y-116211828D01*
X148814040Y-116215849D01*
X148718737Y-116218175D01*
X148587391Y-116219268D01*
X148414227Y-116219590D01*
X148326306Y-116219606D01*
X148133567Y-116219473D01*
X147985106Y-116218765D01*
X147875148Y-116217021D01*
X147797923Y-116213778D01*
X147747657Y-116208576D01*
X147718578Y-116200952D01*
X147704914Y-116190444D01*
X147700892Y-116176591D01*
X147700690Y-116169557D01*
X147702357Y-116154138D01*
X147711206Y-116142261D01*
X147733010Y-116133464D01*
X147773541Y-116127286D01*
X147838571Y-116123265D01*
X147933874Y-116120939D01*
X148065220Y-116119846D01*
X148238384Y-116119524D01*
X148326306Y-116119508D01*
X148519044Y-116119641D01*
G37*
G36*
X148519044Y-120624075D02*
G01*
X148667505Y-120624783D01*
X148777463Y-120626527D01*
X148854688Y-120629769D01*
X148904954Y-120634972D01*
X148934033Y-120642596D01*
X148947697Y-120653104D01*
X148951719Y-120666957D01*
X148951921Y-120673990D01*
X148950254Y-120689410D01*
X148941405Y-120701286D01*
X148919601Y-120710083D01*
X148879070Y-120716261D01*
X148814040Y-120720282D01*
X148718737Y-120722609D01*
X148587391Y-120723702D01*
X148414227Y-120724024D01*
X148326306Y-120724040D01*
X148133567Y-120723906D01*
X147985106Y-120723198D01*
X147875148Y-120721454D01*
X147797923Y-120718212D01*
X147747657Y-120713009D01*
X147718578Y-120705385D01*
X147704914Y-120694877D01*
X147700892Y-120681024D01*
X147700690Y-120673990D01*
X147702357Y-120658571D01*
X147711206Y-120646695D01*
X147733010Y-120637898D01*
X147773541Y-120631720D01*
X147838571Y-120627699D01*
X147933874Y-120625372D01*
X148065220Y-120624279D01*
X148238384Y-120623957D01*
X148326306Y-120623941D01*
X148519044Y-120624075D01*
G37*
G36*
X148519044Y-123652055D02*
G01*
X148667505Y-123652763D01*
X148777463Y-123654507D01*
X148854688Y-123657750D01*
X148904954Y-123662952D01*
X148934033Y-123670576D01*
X148947697Y-123681084D01*
X148951719Y-123694937D01*
X148951921Y-123701971D01*
X148950254Y-123717390D01*
X148941405Y-123729267D01*
X148919601Y-123738063D01*
X148879070Y-123744241D01*
X148814040Y-123748263D01*
X148718737Y-123750589D01*
X148587391Y-123751682D01*
X148414227Y-123752004D01*
X148326306Y-123752020D01*
X148133567Y-123751887D01*
X147985106Y-123751179D01*
X147875148Y-123749434D01*
X147797923Y-123746192D01*
X147747657Y-123740990D01*
X147718578Y-123733365D01*
X147704914Y-123722858D01*
X147700892Y-123709005D01*
X147700690Y-123701971D01*
X147702357Y-123686552D01*
X147711206Y-123674675D01*
X147733010Y-123665878D01*
X147773541Y-123659700D01*
X147838571Y-123655679D01*
X147933874Y-123653353D01*
X148065220Y-123652259D01*
X148238384Y-123651938D01*
X148326306Y-123651922D01*
X148519044Y-123652055D01*
G37*
G36*
X148841019Y-121075845D02*
G01*
X148852256Y-121083741D01*
X148860858Y-121103344D01*
X148867178Y-121139925D01*
X148871567Y-121198755D01*
X148874377Y-121285107D01*
X148875958Y-121404251D01*
X148876663Y-121561459D01*
X148876843Y-121762003D01*
X148876847Y-121825123D01*
X148876750Y-122038443D01*
X148876224Y-122206985D01*
X148874917Y-122336021D01*
X148872478Y-122430821D01*
X148868556Y-122496658D01*
X148862799Y-122538803D01*
X148854856Y-122562528D01*
X148844376Y-122573103D01*
X148831006Y-122575801D01*
X148826798Y-122575862D01*
X148812577Y-122574402D01*
X148801341Y-122566506D01*
X148792738Y-122546903D01*
X148786418Y-122510322D01*
X148782029Y-122451492D01*
X148779219Y-122365140D01*
X148777638Y-122245996D01*
X148776933Y-122088788D01*
X148776753Y-121888244D01*
X148776749Y-121825123D01*
X148776846Y-121611804D01*
X148777373Y-121443262D01*
X148778679Y-121314226D01*
X148781118Y-121219426D01*
X148785040Y-121153589D01*
X148790797Y-121111443D01*
X148798740Y-121087719D01*
X148809220Y-121077144D01*
X148822590Y-121074446D01*
X148826798Y-121074385D01*
X148841019Y-121075845D01*
G37*
G36*
X144334208Y-115820312D02*
G01*
X144344019Y-115826482D01*
X144351988Y-115842028D01*
X144358307Y-115871256D01*
X144363167Y-115918473D01*
X144366760Y-115987984D01*
X144369276Y-116084096D01*
X144370908Y-116211114D01*
X144371846Y-116373345D01*
X144372282Y-116575095D01*
X144372408Y-116820669D01*
X144372414Y-116945321D01*
X144372365Y-117211806D01*
X144372091Y-117432549D01*
X144371400Y-117611855D01*
X144370101Y-117754029D01*
X144368002Y-117863378D01*
X144364913Y-117944209D01*
X144360641Y-118000827D01*
X144354996Y-118037537D01*
X144347786Y-118058647D01*
X144338819Y-118068463D01*
X144327905Y-118071290D01*
X144322365Y-118071429D01*
X144310521Y-118070329D01*
X144300710Y-118064159D01*
X144292741Y-118048613D01*
X144286422Y-118019385D01*
X144281562Y-117972168D01*
X144277970Y-117902657D01*
X144275453Y-117806545D01*
X144273822Y-117679527D01*
X144272883Y-117517296D01*
X144272447Y-117315546D01*
X144272322Y-117069972D01*
X144272315Y-116945321D01*
X144272364Y-116678835D01*
X144272638Y-116458092D01*
X144273329Y-116278787D01*
X144274628Y-116136612D01*
X144276727Y-116027263D01*
X144279816Y-115946432D01*
X144284088Y-115889814D01*
X144289733Y-115853104D01*
X144296943Y-115831994D01*
X144305910Y-115822178D01*
X144316825Y-115819351D01*
X144322365Y-115819212D01*
X144334208Y-115820312D01*
G37*
G36*
X144334208Y-118823268D02*
G01*
X144344019Y-118829437D01*
X144351988Y-118844984D01*
X144358307Y-118874212D01*
X144363167Y-118921429D01*
X144366760Y-118990940D01*
X144369276Y-119087052D01*
X144370908Y-119214070D01*
X144371846Y-119376301D01*
X144372282Y-119578050D01*
X144372408Y-119823625D01*
X144372414Y-119948276D01*
X144372365Y-120214762D01*
X144372091Y-120435505D01*
X144371400Y-120614810D01*
X144370101Y-120756985D01*
X144368002Y-120866334D01*
X144364913Y-120947165D01*
X144360641Y-121003782D01*
X144354996Y-121040493D01*
X144347786Y-121061603D01*
X144338819Y-121071419D01*
X144327905Y-121074245D01*
X144322365Y-121074385D01*
X144310521Y-121073285D01*
X144300710Y-121067115D01*
X144292741Y-121051569D01*
X144286422Y-121022340D01*
X144281562Y-120975124D01*
X144277970Y-120905612D01*
X144275453Y-120809501D01*
X144273822Y-120682482D01*
X144272883Y-120520252D01*
X144272447Y-120318502D01*
X144272322Y-120072928D01*
X144272315Y-119948276D01*
X144272364Y-119681790D01*
X144272638Y-119461048D01*
X144273329Y-119281742D01*
X144274628Y-119139568D01*
X144276727Y-119030218D01*
X144279816Y-118949388D01*
X144284088Y-118892770D01*
X144289733Y-118856059D01*
X144296943Y-118834949D01*
X144305910Y-118825134D01*
X144316825Y-118822307D01*
X144322365Y-118822168D01*
X144334208Y-118823268D01*
G37*
G36*
X146291880Y-125660459D02*
G01*
X146357497Y-125678404D01*
X146452719Y-125705093D01*
X146568323Y-125737889D01*
X146695090Y-125774159D01*
X146823798Y-125811266D01*
X146945224Y-125846578D01*
X147050149Y-125877457D01*
X147106355Y-125894274D01*
X147142145Y-125929637D01*
X147150148Y-125979212D01*
X147135247Y-126042137D01*
X147106355Y-126063488D01*
X147068269Y-126074527D01*
X146991331Y-126096904D01*
X146884736Y-126127941D01*
X146757679Y-126164962D01*
X146670769Y-126190298D01*
X146538312Y-126228665D01*
X146423144Y-126261545D01*
X146333628Y-126286589D01*
X146278129Y-126301446D01*
X146264119Y-126304532D01*
X146251966Y-126283531D01*
X146249261Y-126255288D01*
X146252380Y-126237150D01*
X146265508Y-126220192D01*
X146294307Y-126202241D01*
X146344435Y-126181124D01*
X146421552Y-126154670D01*
X146531318Y-126120707D01*
X146679392Y-126077062D01*
X146818537Y-126036799D01*
X146898363Y-126011721D01*
X146954725Y-125990069D01*
X146974941Y-125977059D01*
X146952840Y-125963466D01*
X146895021Y-125942237D01*
X146818572Y-125919277D01*
X146633360Y-125867422D01*
X146491512Y-125825562D01*
X146387799Y-125791705D01*
X146316993Y-125763859D01*
X146273865Y-125740033D01*
X146253186Y-125718235D01*
X146249261Y-125702427D01*
X146256099Y-125662541D01*
X146265090Y-125653892D01*
X146291880Y-125660459D01*
G37*
G36*
X148838642Y-118072529D02*
G01*
X148848453Y-118078699D01*
X148856422Y-118094245D01*
X148862741Y-118123473D01*
X148867601Y-118170690D01*
X148871193Y-118240201D01*
X148873709Y-118336313D01*
X148875341Y-118463331D01*
X148876279Y-118625562D01*
X148876716Y-118827311D01*
X148876841Y-119072886D01*
X148876847Y-119197537D01*
X148876798Y-119464023D01*
X148876524Y-119684766D01*
X148875833Y-119864071D01*
X148874534Y-120006246D01*
X148872436Y-120115595D01*
X148869346Y-120196426D01*
X148865075Y-120253043D01*
X148859429Y-120289754D01*
X148852219Y-120310864D01*
X148843253Y-120320680D01*
X148832338Y-120323506D01*
X148826798Y-120323646D01*
X148814954Y-120322546D01*
X148805144Y-120316376D01*
X148797174Y-120300830D01*
X148790856Y-120271601D01*
X148785996Y-120224385D01*
X148782403Y-120154873D01*
X148779887Y-120058762D01*
X148778255Y-119931743D01*
X148777317Y-119769513D01*
X148776881Y-119567763D01*
X148776755Y-119322189D01*
X148776749Y-119197537D01*
X148776798Y-118931051D01*
X148777072Y-118710309D01*
X148777763Y-118531003D01*
X148779062Y-118388829D01*
X148781160Y-118279479D01*
X148784250Y-118198649D01*
X148788521Y-118142031D01*
X148794167Y-118105320D01*
X148801377Y-118084210D01*
X148810344Y-118074395D01*
X148821258Y-118071568D01*
X148826798Y-118071429D01*
X148838642Y-118072529D01*
G37*
G36*
X149593093Y-115207050D02*
G01*
X149672826Y-115244251D01*
X149730836Y-115286267D01*
X149808584Y-115351245D01*
X149890836Y-115426347D01*
X149904304Y-115439326D01*
X150053005Y-115583934D01*
X150053005Y-115388765D01*
X150054102Y-115290526D01*
X150059134Y-115232133D01*
X150070714Y-115203397D01*
X150091453Y-115194132D01*
X150103054Y-115193596D01*
X150125382Y-115196891D01*
X150139863Y-115212674D01*
X150148182Y-115249793D01*
X150152026Y-115317099D01*
X150153079Y-115423438D01*
X150153104Y-115456355D01*
X150152655Y-115573301D01*
X150150017Y-115649108D01*
X150143252Y-115692688D01*
X150130421Y-115712950D01*
X150109586Y-115718805D01*
X150095943Y-115719114D01*
X150042733Y-115699109D01*
X149966965Y-115641785D01*
X149902002Y-115580075D01*
X149785405Y-115470525D01*
X149674400Y-115382899D01*
X149576791Y-115322563D01*
X149500380Y-115294883D01*
X149485660Y-115293695D01*
X149410976Y-115315198D01*
X149358220Y-115372495D01*
X149331090Y-115454773D01*
X149333284Y-115551214D01*
X149365470Y-115645282D01*
X149389032Y-115695453D01*
X149384399Y-115715426D01*
X149347039Y-115719106D01*
X149341410Y-115719114D01*
X149299215Y-115710857D01*
X149272026Y-115677543D01*
X149250776Y-115613663D01*
X149234510Y-115482101D01*
X149256130Y-115368566D01*
X149309217Y-115278675D01*
X149387352Y-115218046D01*
X149484117Y-115192298D01*
X149593093Y-115207050D01*
G37*
G36*
X149593093Y-116708528D02*
G01*
X149672826Y-116745729D01*
X149730836Y-116787744D01*
X149808584Y-116852723D01*
X149890836Y-116927824D01*
X149904304Y-116940804D01*
X150053005Y-117085412D01*
X150053005Y-116890243D01*
X150054102Y-116792004D01*
X150059134Y-116733610D01*
X150070714Y-116704875D01*
X150091453Y-116695610D01*
X150103054Y-116695074D01*
X150125382Y-116698369D01*
X150139863Y-116714152D01*
X150148182Y-116751271D01*
X150152026Y-116818576D01*
X150153079Y-116924916D01*
X150153104Y-116957833D01*
X150152655Y-117074779D01*
X150150017Y-117150586D01*
X150143252Y-117194166D01*
X150130421Y-117214428D01*
X150109586Y-117220282D01*
X150095943Y-117220591D01*
X150042733Y-117200586D01*
X149966965Y-117143263D01*
X149902002Y-117081552D01*
X149785405Y-116972003D01*
X149674400Y-116884377D01*
X149576791Y-116824041D01*
X149500380Y-116796361D01*
X149485660Y-116795173D01*
X149410976Y-116816675D01*
X149358220Y-116873973D01*
X149331090Y-116956251D01*
X149333284Y-117052692D01*
X149365470Y-117146760D01*
X149389032Y-117196931D01*
X149384399Y-117216904D01*
X149347039Y-117220584D01*
X149341410Y-117220591D01*
X149299215Y-117212334D01*
X149272026Y-117179021D01*
X149250776Y-117115141D01*
X149234510Y-116983579D01*
X149256130Y-116870044D01*
X149309217Y-116780152D01*
X149387352Y-116719524D01*
X149484117Y-116693776D01*
X149593093Y-116708528D01*
G37*
G36*
X144332743Y-122601793D02*
G01*
X144341578Y-122606997D01*
X144348993Y-122620230D01*
X144355113Y-122645221D01*
X144360061Y-122685699D01*
X144363963Y-122745395D01*
X144366943Y-122828038D01*
X144369124Y-122937357D01*
X144370632Y-123077084D01*
X144371591Y-123250946D01*
X144372124Y-123462675D01*
X144372357Y-123716000D01*
X144372413Y-124014650D01*
X144372414Y-124102365D01*
X144372384Y-124413724D01*
X144372210Y-124678763D01*
X144371769Y-124901213D01*
X144370936Y-125084802D01*
X144369587Y-125233261D01*
X144367597Y-125350320D01*
X144364842Y-125439707D01*
X144361198Y-125505154D01*
X144356541Y-125550389D01*
X144350745Y-125579143D01*
X144343688Y-125595144D01*
X144335243Y-125602124D01*
X144325288Y-125603811D01*
X144322365Y-125603843D01*
X144311986Y-125602937D01*
X144303151Y-125597732D01*
X144295736Y-125584500D01*
X144289617Y-125559509D01*
X144284668Y-125519031D01*
X144280766Y-125459335D01*
X144277787Y-125376692D01*
X144275605Y-125267372D01*
X144274097Y-125127646D01*
X144273139Y-124953783D01*
X144272605Y-124742054D01*
X144272373Y-124488730D01*
X144272316Y-124190080D01*
X144272315Y-124102365D01*
X144272346Y-123791006D01*
X144272519Y-123525967D01*
X144272960Y-123303517D01*
X144273793Y-123119928D01*
X144275142Y-122971469D01*
X144277132Y-122854410D01*
X144279887Y-122765022D01*
X144283531Y-122699576D01*
X144288189Y-122654341D01*
X144293984Y-122625587D01*
X144301042Y-122609585D01*
X144309486Y-122602606D01*
X144319441Y-122600919D01*
X144322365Y-122600887D01*
X144332743Y-122601793D01*
G37*
G36*
X149919656Y-114385479D02*
G01*
X149927882Y-114417833D01*
X149935250Y-114449110D01*
X149965845Y-114463900D01*
X150032403Y-114467863D01*
X150040493Y-114467882D01*
X150109982Y-114470475D01*
X150142906Y-114483221D01*
X150152673Y-114513569D01*
X150153104Y-114530444D01*
X150148436Y-114569049D01*
X150125494Y-114587340D01*
X150070866Y-114592766D01*
X150040493Y-114593005D01*
X149927882Y-114593005D01*
X149927882Y-114780690D01*
X149927230Y-114876126D01*
X149922737Y-114932065D01*
X149910595Y-114959056D01*
X149886995Y-114967652D01*
X149860150Y-114968375D01*
X149813651Y-114955376D01*
X149806610Y-114953408D01*
X149719584Y-114910563D01*
X149604909Y-114842926D01*
X149522317Y-114789783D01*
X149410099Y-114714445D01*
X149333715Y-114659343D01*
X149286495Y-114618294D01*
X149274087Y-114601648D01*
X149377340Y-114601648D01*
X149397099Y-114617584D01*
X149448978Y-114651981D01*
X149521878Y-114698057D01*
X149604704Y-114749031D01*
X149686356Y-114798121D01*
X149755737Y-114838545D01*
X149801751Y-114863522D01*
X149813651Y-114868276D01*
X149821392Y-114845638D01*
X149826525Y-114787244D01*
X149827783Y-114730641D01*
X149827783Y-114593005D01*
X149602562Y-114593005D01*
X149503374Y-114593894D01*
X149426474Y-114596275D01*
X149383031Y-114599719D01*
X149377340Y-114601648D01*
X149274087Y-114601648D01*
X149261764Y-114585117D01*
X149252850Y-114553628D01*
X149252217Y-114539537D01*
X149252217Y-114467882D01*
X149540000Y-114467882D01*
X149663649Y-114467351D01*
X149745719Y-114464777D01*
X149794679Y-114458687D01*
X149818994Y-114447609D01*
X149827133Y-114430069D01*
X149827783Y-114417833D01*
X149845478Y-114376009D01*
X149877833Y-114367784D01*
X149919656Y-114385479D01*
G37*
G36*
X149868208Y-115918246D02*
G01*
X149992289Y-115946382D01*
X150080395Y-115995536D01*
X150129922Y-116053270D01*
X150172028Y-116160604D01*
X150164633Y-116265914D01*
X150140514Y-116322671D01*
X150076336Y-116396171D01*
X149979354Y-116443636D01*
X149975053Y-116445741D01*
X149833612Y-116472464D01*
X149760779Y-116475637D01*
X149702660Y-116478169D01*
X149531516Y-116467812D01*
X149402485Y-116435853D01*
X149311915Y-116380955D01*
X149263627Y-116317573D01*
X149230462Y-116215543D01*
X149232935Y-116197069D01*
X149327291Y-116197069D01*
X149342670Y-116263000D01*
X149391836Y-116310593D01*
X149479331Y-116342106D01*
X149609696Y-116359796D01*
X149660977Y-116362896D01*
X149760779Y-116367166D01*
X149818014Y-116367100D01*
X149840098Y-116360877D01*
X149834449Y-116346675D01*
X149812062Y-116325810D01*
X149765633Y-116290886D01*
X149690489Y-116240361D01*
X149601119Y-116183900D01*
X149580449Y-116171316D01*
X149473942Y-116112818D01*
X149400147Y-116088017D01*
X149354336Y-116097394D01*
X149331784Y-116141430D01*
X149327291Y-116197069D01*
X149232935Y-116197069D01*
X149243547Y-116117805D01*
X149275398Y-116053270D01*
X149298375Y-116028325D01*
X149539365Y-116028325D01*
X149540000Y-116039097D01*
X149574196Y-116066086D01*
X149636587Y-116109414D01*
X149715904Y-116161887D01*
X149800879Y-116216306D01*
X149880242Y-116265474D01*
X149942727Y-116302195D01*
X149977063Y-116319272D01*
X149979354Y-116319705D01*
X150021279Y-116298501D01*
X150058794Y-116248229D01*
X150077681Y-116188898D01*
X150078030Y-116180859D01*
X150054894Y-116117095D01*
X150012800Y-116077922D01*
X149967434Y-116059951D01*
X149895929Y-116044072D01*
X149809514Y-116031207D01*
X149719420Y-116022278D01*
X149636877Y-116018206D01*
X149573115Y-116019914D01*
X149539365Y-116028325D01*
X149298375Y-116028325D01*
X149337943Y-115985368D01*
X149431928Y-115940013D01*
X149562847Y-115915354D01*
X149702660Y-115909279D01*
X149868208Y-115918246D01*
G37*
D15*
%TO.C,J5*%
X133910000Y-115340000D02*
X135240000Y-115340000D01*
X133910000Y-116670000D02*
X133910000Y-115340000D01*
X133910000Y-117940000D02*
X133910000Y-123080000D01*
X133910000Y-117940000D02*
X136570000Y-117940000D01*
X133910000Y-123080000D02*
X136570000Y-123080000D01*
X136570000Y-117940000D02*
X136570000Y-123080000D01*
%TO.C,J4*%
X133910000Y-103645000D02*
X135240000Y-103645000D01*
X133910000Y-104975000D02*
X133910000Y-103645000D01*
X133910000Y-106245000D02*
X133910000Y-111385000D01*
X133910000Y-106245000D02*
X136570000Y-106245000D01*
X133910000Y-111385000D02*
X136570000Y-111385000D01*
X136570000Y-106245000D02*
X136570000Y-111385000D01*
D17*
%TO.C,\u03BCC1*%
X151170000Y-138069994D02*
X151170000Y-87070000D01*
X152170000Y-86070000D02*
X171170000Y-86070003D01*
D15*
X161670000Y-87805000D02*
X161035000Y-88440000D01*
X161670000Y-87805000D02*
X162305000Y-88440000D01*
X161670000Y-90980000D02*
X161670000Y-87805000D01*
D17*
X171170000Y-139070000D02*
X152170000Y-139069994D01*
X172170000Y-87070003D02*
X172170000Y-138070000D01*
X151169997Y-87069997D02*
G75*
G02*
X152170000Y-86070000I999999J-2D01*
G01*
X152169997Y-139069997D02*
G75*
G02*
X151170000Y-138069994I2J999999D01*
G01*
X171170003Y-86070000D02*
G75*
G02*
X172170000Y-87070003I-3J-1000000D01*
G01*
X172170003Y-138070003D02*
G75*
G02*
X171170000Y-139070003I-1000003J3D01*
G01*
D15*
%TO.C,J1*%
X203510000Y-97480000D02*
X204840000Y-97480000D01*
X203510000Y-98810000D02*
X203510000Y-97480000D01*
X203510000Y-100080000D02*
X203510000Y-102680000D01*
X203510000Y-100080000D02*
X206170000Y-100080000D01*
X203510000Y-102680000D02*
X206170000Y-102680000D01*
X206170000Y-100080000D02*
X206170000Y-102680000D01*
%TO.C,ENTR1*%
X193040000Y-130700000D02*
X193040000Y-135200000D01*
X195540000Y-136450000D02*
X197040000Y-136450000D01*
X197040000Y-129450000D02*
X195540000Y-129450000D01*
X199540000Y-135200000D02*
X199540000Y-130700000D01*
%TO.C,J6*%
X133910000Y-126850000D02*
X135240000Y-126850000D01*
X133910000Y-128180000D02*
X133910000Y-126850000D01*
X133910000Y-129450000D02*
X133910000Y-137130000D01*
X133910000Y-129450000D02*
X136570000Y-129450000D01*
X133910000Y-137130000D02*
X136570000Y-137130000D01*
X136570000Y-129450000D02*
X136570000Y-137130000D01*
%TO.C,R3*%
X203580000Y-122930000D02*
X203580000Y-129470000D01*
X203580000Y-129470000D02*
X206320000Y-129470000D01*
X204950000Y-122160000D02*
X204950000Y-122930000D01*
X204950000Y-130240000D02*
X204950000Y-129470000D01*
X206320000Y-122930000D02*
X203580000Y-122930000D01*
X206320000Y-129470000D02*
X206320000Y-122930000D01*
D16*
%TO.C, *%
G36*
X136661542Y-139644324D02*
G01*
X136711936Y-139670819D01*
X136739986Y-139699954D01*
X136752013Y-139736895D01*
X136753896Y-139774330D01*
X136743798Y-139841649D01*
X136712769Y-139885206D01*
X136659706Y-139906162D01*
X136626498Y-139908534D01*
X136562007Y-139897274D01*
X136530949Y-139876685D01*
X136504014Y-139829852D01*
X136496974Y-139771789D01*
X136509220Y-139714889D01*
X136540142Y-139671550D01*
X136541059Y-139670819D01*
X136600142Y-139642121D01*
X136661542Y-139644324D01*
G37*
G36*
X136680415Y-139956011D02*
G01*
X136752370Y-139958600D01*
X136811757Y-139963346D01*
X136851187Y-139970249D01*
X136862184Y-139975418D01*
X136871387Y-140000460D01*
X136877552Y-140054725D01*
X136880758Y-140139170D01*
X136881294Y-140206327D01*
X136881294Y-140418127D01*
X136825557Y-140418127D01*
X136769820Y-140418127D01*
X136769820Y-140649036D01*
X136769820Y-140879945D01*
X136626498Y-140879945D01*
X136483175Y-140879945D01*
X136483175Y-140649036D01*
X136483175Y-140418127D01*
X136427438Y-140418127D01*
X136371701Y-140418127D01*
X136371701Y-140206327D01*
X136373130Y-140102894D01*
X136377470Y-140030227D01*
X136384800Y-139987370D01*
X136390811Y-139975418D01*
X136414741Y-139967223D01*
X136463057Y-139961185D01*
X136528369Y-139957303D01*
X136603285Y-139955578D01*
X136680415Y-139956011D01*
G37*
G36*
X134530212Y-139964258D02*
G01*
X134549931Y-139973015D01*
X134589257Y-139997266D01*
X134626487Y-140028455D01*
X134654771Y-140059558D01*
X134667256Y-140083549D01*
X134665043Y-140091052D01*
X134648880Y-140100409D01*
X134614462Y-140118509D01*
X134598147Y-140126834D01*
X134536505Y-140158034D01*
X134499341Y-140120871D01*
X134450514Y-140091146D01*
X134394504Y-140084995D01*
X134343837Y-140103767D01*
X134343440Y-140104056D01*
X134313401Y-140143847D01*
X134298047Y-140201865D01*
X134297384Y-140268068D01*
X134311418Y-140332419D01*
X134340153Y-140384877D01*
X134343280Y-140388472D01*
X134385835Y-140414061D01*
X134438746Y-140417083D01*
X134490624Y-140398244D01*
X134515566Y-140377781D01*
X134541061Y-140352646D01*
X134561820Y-140346013D01*
X134591608Y-140355999D01*
X134610355Y-140364806D01*
X134646599Y-140384746D01*
X134666463Y-140400841D01*
X134667751Y-140403930D01*
X134655932Y-140429484D01*
X134626108Y-140464438D01*
X134586731Y-140500459D01*
X134546253Y-140529213D01*
X134534151Y-140535660D01*
X134453264Y-140558321D01*
X134363191Y-140558190D01*
X134276485Y-140535753D01*
X134253071Y-140524779D01*
X134182528Y-140470452D01*
X134135364Y-140395276D01*
X134112511Y-140300999D01*
X134110385Y-140257411D01*
X134116297Y-140170066D01*
X134136311Y-140102583D01*
X134173846Y-140044821D01*
X134187040Y-140029990D01*
X134258661Y-139975536D01*
X134344573Y-139945668D01*
X134437511Y-139941529D01*
X134530212Y-139964258D01*
G37*
G36*
X135110666Y-139964951D02*
G01*
X135113528Y-139966082D01*
X135150100Y-139986534D01*
X135187834Y-140016298D01*
X135219687Y-140048373D01*
X135238613Y-140075760D01*
X135238799Y-140090587D01*
X135222324Y-140100243D01*
X135187687Y-140118535D01*
X135171438Y-140126834D01*
X135109796Y-140158034D01*
X135072633Y-140120871D01*
X135023805Y-140091146D01*
X134967795Y-140084995D01*
X134917129Y-140103767D01*
X134916731Y-140104056D01*
X134886692Y-140143847D01*
X134871339Y-140201865D01*
X134870676Y-140268068D01*
X134884709Y-140332419D01*
X134913445Y-140384877D01*
X134916571Y-140388472D01*
X134959127Y-140414061D01*
X135012037Y-140417083D01*
X135063915Y-140398244D01*
X135088858Y-140377781D01*
X135114352Y-140352646D01*
X135135111Y-140346013D01*
X135164899Y-140355999D01*
X135183646Y-140364806D01*
X135220044Y-140386566D01*
X135239840Y-140406966D01*
X135241043Y-140411464D01*
X135229013Y-140434377D01*
X135198562Y-140466956D01*
X135158150Y-140501783D01*
X135116235Y-140531439D01*
X135086952Y-140546592D01*
X135013138Y-140561098D01*
X134928943Y-140556914D01*
X134848852Y-140535253D01*
X134826362Y-140524779D01*
X134755820Y-140470452D01*
X134708655Y-140395276D01*
X134685802Y-140300999D01*
X134683676Y-140257411D01*
X134689588Y-140170066D01*
X134709602Y-140102583D01*
X134747138Y-140044821D01*
X134760332Y-140029990D01*
X134832220Y-139975370D01*
X134918943Y-139945533D01*
X135013944Y-139941664D01*
X135110666Y-139964951D01*
G37*
G36*
X140559055Y-139768288D02*
G01*
X140663448Y-139801447D01*
X140754520Y-139857537D01*
X140772723Y-139873557D01*
X140841750Y-139955143D01*
X140894956Y-140050553D01*
X140908699Y-140086627D01*
X140921789Y-140151811D01*
X140927180Y-140235517D01*
X140925080Y-140325417D01*
X140915697Y-140409180D01*
X140902322Y-140465825D01*
X140860659Y-140550277D01*
X140796479Y-140631438D01*
X140718451Y-140699541D01*
X140667145Y-140730810D01*
X140589475Y-140759018D01*
X140497487Y-140775728D01*
X140404004Y-140779764D01*
X140321846Y-140769953D01*
X140301812Y-140764297D01*
X140200186Y-140714552D01*
X140117178Y-140641462D01*
X140056730Y-140549448D01*
X140024766Y-140453575D01*
X140014491Y-140402202D01*
X140135918Y-140402202D01*
X140199125Y-140403346D01*
X140236458Y-140407578D01*
X140253834Y-140416102D01*
X140257344Y-140426880D01*
X140270382Y-140476661D01*
X140303091Y-140525125D01*
X140345863Y-140558422D01*
X140349809Y-140560173D01*
X140418237Y-140577555D01*
X140489842Y-140578195D01*
X140551953Y-140562644D01*
X140573478Y-140550474D01*
X140606501Y-140517474D01*
X140640546Y-140470092D01*
X140652588Y-140449044D01*
X140671211Y-140408739D01*
X140681619Y-140369865D01*
X140685406Y-140321859D01*
X140684169Y-140254155D01*
X140683705Y-140242947D01*
X140674600Y-140145745D01*
X140655341Y-140073823D01*
X140623599Y-140021590D01*
X140577046Y-139983452D01*
X140575205Y-139982354D01*
X140508877Y-139958745D01*
X140436411Y-139957556D01*
X140367069Y-139976613D01*
X140310111Y-140013739D01*
X140281501Y-140051336D01*
X140261058Y-140098376D01*
X140260954Y-140122549D01*
X140281382Y-140125655D01*
X140289193Y-140123519D01*
X140313503Y-140119334D01*
X140315575Y-140130012D01*
X140294537Y-140156941D01*
X140249518Y-140201511D01*
X140227497Y-140221937D01*
X140137549Y-140304432D01*
X140046161Y-140216611D01*
X140003470Y-140174836D01*
X139971435Y-140142062D01*
X139955570Y-140123973D01*
X139954773Y-140122361D01*
X139968156Y-140118761D01*
X139989528Y-140119725D01*
X140016633Y-140114942D01*
X140031697Y-140087844D01*
X140034690Y-140075744D01*
X140056608Y-140010156D01*
X140091368Y-139941663D01*
X140131327Y-139884338D01*
X140148302Y-139866538D01*
X140235964Y-139807185D01*
X140338311Y-139771078D01*
X140448342Y-139758139D01*
X140559055Y-139768288D01*
G37*
G36*
X134867932Y-139273312D02*
G01*
X135006218Y-139307043D01*
X135107731Y-139348182D01*
X135262067Y-139440661D01*
X135391240Y-139550363D01*
X135496666Y-139679183D01*
X135579765Y-139829013D01*
X135641955Y-140001750D01*
X135664426Y-140091669D01*
X135670641Y-140114362D01*
X135676519Y-140115842D01*
X135684110Y-140092766D01*
X135695458Y-140041788D01*
X135695724Y-140040527D01*
X135740446Y-139899897D01*
X135813297Y-139762192D01*
X135910714Y-139633487D01*
X135971126Y-139570963D01*
X136068036Y-139485693D01*
X136158739Y-139422540D01*
X136252840Y-139375972D01*
X136359944Y-139340458D01*
X136381024Y-139334895D01*
X136536397Y-139309170D01*
X136697705Y-139307928D01*
X136855947Y-139330430D01*
X137002125Y-139375938D01*
X137029948Y-139388118D01*
X137155428Y-139460445D01*
X137271623Y-139554747D01*
X137374254Y-139665598D01*
X137459042Y-139787572D01*
X137521708Y-139915244D01*
X137557974Y-140043187D01*
X137560759Y-140061232D01*
X137570312Y-140104959D01*
X137582086Y-140128453D01*
X137592447Y-140128497D01*
X137597766Y-140101872D01*
X137597908Y-140094162D01*
X137604951Y-140048033D01*
X137624098Y-139982392D01*
X137652375Y-139905781D01*
X137686807Y-139826743D01*
X137687626Y-139825065D01*
X137884846Y-139825065D01*
X137898691Y-139835628D01*
X137936181Y-139855683D01*
X137991607Y-139882358D01*
X138059261Y-139912784D01*
X138059803Y-139913020D01*
X138234469Y-139989166D01*
X138302364Y-139918416D01*
X138363440Y-139865198D01*
X138420425Y-139838622D01*
X138429977Y-139836515D01*
X138467059Y-139827706D01*
X138484357Y-139812940D01*
X138489407Y-139781988D01*
X138489695Y-139755477D01*
X138490979Y-139712154D01*
X138499495Y-139691903D01*
X138522243Y-139685949D01*
X138545432Y-139685588D01*
X138580335Y-139687293D01*
X138596401Y-139698342D01*
X138600939Y-139727638D01*
X138601168Y-139753481D01*
X138601168Y-139821373D01*
X138679805Y-139840053D01*
X138735543Y-139856834D01*
X138784996Y-139877524D01*
X138800398Y-139886223D01*
X138842354Y-139913714D01*
X138779698Y-139976370D01*
X138743252Y-140011651D01*
X138719403Y-140027621D01*
X138698298Y-140027558D01*
X138670085Y-140014743D01*
X138667859Y-140013592D01*
X138612377Y-139994118D01*
X138554925Y-139988569D01*
X138502840Y-139995500D01*
X138463458Y-140013470D01*
X138444113Y-140041034D01*
X138444170Y-140057601D01*
X138459002Y-140072537D01*
X138499825Y-140097371D01*
X138567426Y-140132500D01*
X138662598Y-140178326D01*
X138786129Y-140235247D01*
X138871889Y-140273863D01*
X138997910Y-140330528D01*
X139097555Y-140375051D01*
X139173914Y-140407384D01*
X139230075Y-140427478D01*
X139269128Y-140435283D01*
X139294162Y-140430752D01*
X139308266Y-140413835D01*
X139314529Y-140384484D01*
X139316039Y-140342649D01*
X139315916Y-140298631D01*
X139671292Y-140298631D01*
X139684122Y-140418560D01*
X139711130Y-140523953D01*
X139714379Y-140532656D01*
X139781880Y-140664767D01*
X139875285Y-140783431D01*
X139990072Y-140884621D01*
X140121720Y-140964312D01*
X140257344Y-141016172D01*
X140354064Y-141033139D01*
X140465825Y-141036524D01*
X140578958Y-141026536D01*
X140657764Y-141010043D01*
X140783077Y-140964225D01*
X140894899Y-140898072D01*
X141002279Y-140806173D01*
X141007936Y-140800563D01*
X141106359Y-140681875D01*
X141175606Y-140550960D01*
X141216114Y-140406748D01*
X141228377Y-140258879D01*
X141214893Y-140103135D01*
X141173668Y-139961945D01*
X141103542Y-139832516D01*
X141003354Y-139712056D01*
X140999320Y-139708000D01*
X140879640Y-139607048D01*
X140751243Y-139536082D01*
X140610934Y-139493777D01*
X140455521Y-139478812D01*
X140446137Y-139478755D01*
X140295229Y-139493814D01*
X140152415Y-139537601D01*
X140021291Y-139607315D01*
X139905450Y-139700153D01*
X139808486Y-139813314D01*
X139733993Y-139943996D01*
X139690818Y-140067572D01*
X139673302Y-140177268D01*
X139671292Y-140298631D01*
X139315916Y-140298631D01*
X139315887Y-140288281D01*
X139316006Y-140266842D01*
X139303572Y-140107638D01*
X139262411Y-139962087D01*
X139192212Y-139829458D01*
X139092667Y-139709020D01*
X139069787Y-139686872D01*
X138955221Y-139594821D01*
X138836267Y-139531199D01*
X138706615Y-139493543D01*
X138559954Y-139479390D01*
X138537469Y-139479144D01*
X138386387Y-139491399D01*
X138250112Y-139529870D01*
X138124491Y-139596316D01*
X138005368Y-139692495D01*
X137984084Y-139713314D01*
X137939705Y-139759156D01*
X137905590Y-139796834D01*
X137886877Y-139820560D01*
X137884846Y-139825065D01*
X137687626Y-139825065D01*
X137701465Y-139796703D01*
X137748000Y-139723572D01*
X137814960Y-139642820D01*
X137894690Y-139561856D01*
X137979533Y-139488091D01*
X138061834Y-139428934D01*
X138108530Y-139402696D01*
X138267345Y-139343005D01*
X138436191Y-139311163D01*
X138608884Y-139307606D01*
X138779237Y-139332773D01*
X138844532Y-139350726D01*
X138981323Y-139408818D01*
X139109945Y-139492380D01*
X139225979Y-139596552D01*
X139325002Y-139716478D01*
X139402595Y-139847297D01*
X139454337Y-139984151D01*
X139465671Y-140033365D01*
X139476828Y-140084222D01*
X139487456Y-140119683D01*
X139494547Y-140131481D01*
X139502349Y-140117245D01*
X139510857Y-140080955D01*
X139514973Y-140054620D01*
X139526826Y-140004570D01*
X139549506Y-139938281D01*
X139578807Y-139867596D01*
X139589494Y-139844742D01*
X139654535Y-139734875D01*
X139739943Y-139626957D01*
X139838229Y-139528687D01*
X139941903Y-139447765D01*
X140019501Y-139402696D01*
X140177389Y-139343366D01*
X140345610Y-139311428D01*
X140517454Y-139307367D01*
X140686210Y-139331667D01*
X140752160Y-139349693D01*
X140894724Y-139410369D01*
X141028119Y-139497834D01*
X141147644Y-139607343D01*
X141248596Y-139734151D01*
X141326273Y-139873513D01*
X141360515Y-139963610D01*
X141385032Y-140074670D01*
X141396833Y-140202675D01*
X141395917Y-140335639D01*
X141382280Y-140461578D01*
X141360684Y-140554149D01*
X141296725Y-140706646D01*
X141207907Y-140842737D01*
X141097741Y-140960488D01*
X140969739Y-141057965D01*
X140827413Y-141133232D01*
X140674275Y-141184356D01*
X140513837Y-141209404D01*
X140349611Y-141206439D01*
X140219061Y-141182907D01*
X140081263Y-141137816D01*
X139959693Y-141075227D01*
X139845306Y-140989900D01*
X139778283Y-140927525D01*
X139663774Y-140793690D01*
X139579371Y-140649540D01*
X139525001Y-140494948D01*
X139518377Y-140465901D01*
X139506784Y-140414942D01*
X139497518Y-140390385D01*
X139488682Y-140393415D01*
X139478380Y-140425217D01*
X139464715Y-140486977D01*
X139461772Y-140501265D01*
X139425940Y-140622041D01*
X139368038Y-140735219D01*
X139284714Y-140846503D01*
X139215520Y-140920339D01*
X139107096Y-141018097D01*
X139000511Y-141091319D01*
X138886616Y-141145359D01*
X138766849Y-141182907D01*
X138601307Y-141210490D01*
X138437862Y-141207111D01*
X138308089Y-141182907D01*
X138170291Y-141137816D01*
X138048721Y-141075227D01*
X137934334Y-140989900D01*
X137867311Y-140927525D01*
X137752803Y-140793690D01*
X137668399Y-140649540D01*
X137614029Y-140494948D01*
X137607405Y-140465901D01*
X137595812Y-140414942D01*
X137586546Y-140390385D01*
X137577710Y-140393415D01*
X137567408Y-140425217D01*
X137553743Y-140486977D01*
X137550801Y-140501265D01*
X137514968Y-140622041D01*
X137457067Y-140735219D01*
X137373742Y-140846503D01*
X137304548Y-140920339D01*
X137196124Y-141018097D01*
X137089540Y-141091319D01*
X136975644Y-141145359D01*
X136855878Y-141182907D01*
X136684440Y-141210644D01*
X136511035Y-141206618D01*
X136415379Y-141191009D01*
X136273897Y-141145845D01*
X136137707Y-141073771D01*
X136011299Y-140979236D01*
X135899160Y-140866692D01*
X135805781Y-140740589D01*
X135735648Y-140605376D01*
X135695659Y-140477435D01*
X135684618Y-140428745D01*
X135675842Y-140405508D01*
X135667183Y-140409098D01*
X135656491Y-140440891D01*
X135641618Y-140502260D01*
X135638991Y-140513675D01*
X135590679Y-140656051D01*
X135514533Y-140792177D01*
X135414503Y-140917853D01*
X135294541Y-141028877D01*
X135158595Y-141121046D01*
X135010617Y-141190160D01*
X134999095Y-141194314D01*
X134897916Y-141220720D01*
X134778996Y-141237166D01*
X134654254Y-141243064D01*
X134535608Y-141237826D01*
X134439047Y-141221914D01*
X134275992Y-141164814D01*
X134126061Y-141080695D01*
X133992436Y-140972798D01*
X133878297Y-140844360D01*
X133786823Y-140698622D01*
X133721195Y-140538821D01*
X133703028Y-140472264D01*
X133684696Y-140346351D01*
X133683366Y-140225258D01*
X133870426Y-140225258D01*
X133878442Y-140370919D01*
X133914016Y-140514585D01*
X133978182Y-140652584D01*
X134009035Y-140700976D01*
X134107423Y-140817580D01*
X134225129Y-140913094D01*
X134357431Y-140985708D01*
X134499608Y-141033613D01*
X134646941Y-141054999D01*
X134794709Y-141048058D01*
X134872688Y-141031983D01*
X135017413Y-140979119D01*
X135148739Y-140900019D01*
X135235367Y-140827661D01*
X135337612Y-140716820D01*
X135410521Y-140600890D01*
X135456417Y-140474490D01*
X135477621Y-140332239D01*
X135479725Y-140261442D01*
X135475230Y-140203143D01*
X135850508Y-140203143D01*
X135854220Y-140363762D01*
X135887084Y-140511577D01*
X135949135Y-140646661D01*
X136040409Y-140769091D01*
X136160940Y-140878942D01*
X136166437Y-140883126D01*
X136299860Y-140964843D01*
X136443120Y-141016850D01*
X136593186Y-141038572D01*
X136747029Y-141029437D01*
X136835820Y-141010043D01*
X136961133Y-140964225D01*
X137072956Y-140898072D01*
X137180336Y-140806173D01*
X137185993Y-140800563D01*
X137284415Y-140681875D01*
X137353663Y-140550960D01*
X137394171Y-140406748D01*
X137406433Y-140258879D01*
X137406065Y-140254623D01*
X137757156Y-140254623D01*
X137770883Y-140410054D01*
X137812730Y-140551347D01*
X137883692Y-140680915D01*
X137981296Y-140797686D01*
X138103991Y-140900475D01*
X138239387Y-140975465D01*
X138384288Y-141021660D01*
X138535498Y-141038063D01*
X138689823Y-141023678D01*
X138699914Y-141021648D01*
X138824931Y-140982114D01*
X138948235Y-140918492D01*
X139060960Y-140836593D01*
X139154238Y-140742226D01*
X139181461Y-140706159D01*
X139206260Y-140667870D01*
X139219823Y-140641894D01*
X139220619Y-140635709D01*
X139201158Y-140625477D01*
X139160822Y-140606882D01*
X139106508Y-140582864D01*
X139045112Y-140556362D01*
X138983531Y-140530317D01*
X138928664Y-140507668D01*
X138887406Y-140491355D01*
X138866654Y-140484317D01*
X138865484Y-140484345D01*
X138857496Y-140501313D01*
X138843066Y-140535983D01*
X138840256Y-140542994D01*
X138805314Y-140595037D01*
X138749174Y-140641458D01*
X138682409Y-140674392D01*
X138652663Y-140682530D01*
X138620548Y-140691434D01*
X138605627Y-140707762D01*
X138601358Y-140741672D01*
X138601168Y-140762500D01*
X138599873Y-140805735D01*
X138591298Y-140825912D01*
X138568412Y-140831819D01*
X138545432Y-140832171D01*
X138510836Y-140830549D01*
X138494696Y-140819823D01*
X138489975Y-140791199D01*
X138489695Y-140762545D01*
X138488224Y-140719078D01*
X138478316Y-140697337D01*
X138451730Y-140687196D01*
X138424535Y-140682499D01*
X138362487Y-140666577D01*
X138299306Y-140640862D01*
X138246912Y-140610846D01*
X138222294Y-140589338D01*
X138215964Y-140571300D01*
X138227867Y-140547346D01*
X138261389Y-140510960D01*
X138264713Y-140507701D01*
X138325567Y-140448278D01*
X138402041Y-140488939D01*
X138481466Y-140520081D01*
X138555244Y-140528107D01*
X138616676Y-140512548D01*
X138629475Y-140504810D01*
X138657599Y-140468907D01*
X138664033Y-140424131D01*
X138652680Y-140393381D01*
X138636696Y-140384141D01*
X138596047Y-140363998D01*
X138535173Y-140334980D01*
X138458515Y-140299113D01*
X138370515Y-140258423D01*
X138275613Y-140214939D01*
X138178252Y-140170687D01*
X138082871Y-140127694D01*
X137993913Y-140087986D01*
X137915818Y-140053592D01*
X137853027Y-140026537D01*
X137811026Y-140009256D01*
X137795841Y-140018211D01*
X137781487Y-140052737D01*
X137769342Y-140106560D01*
X137760783Y-140173405D01*
X137757189Y-140246998D01*
X137757156Y-140254623D01*
X137406065Y-140254623D01*
X137392959Y-140103174D01*
X137351758Y-139962023D01*
X137281661Y-139832618D01*
X137181500Y-139712149D01*
X137177284Y-139707908D01*
X137057302Y-139606882D01*
X136928454Y-139535888D01*
X136788364Y-139494035D01*
X136634659Y-139480430D01*
X136576686Y-139482207D01*
X136421394Y-139506400D01*
X136278958Y-139559586D01*
X136150545Y-139641130D01*
X136037324Y-139750396D01*
X136001650Y-139794873D01*
X135924275Y-139917856D01*
X135875322Y-140046047D01*
X135851601Y-140188060D01*
X135850508Y-140203143D01*
X135475230Y-140203143D01*
X135467403Y-140101627D01*
X135429776Y-139959229D01*
X135365159Y-139830294D01*
X135271866Y-139710871D01*
X135224584Y-139663407D01*
X135114700Y-139572648D01*
X135002844Y-139508330D01*
X134882661Y-139468221D01*
X134747800Y-139450084D01*
X134618430Y-139450201D01*
X134539634Y-139455336D01*
X134480326Y-139463757D01*
X134428143Y-139478369D01*
X134370727Y-139502081D01*
X134343148Y-139514944D01*
X134207529Y-139595494D01*
X134093264Y-139696072D01*
X134001388Y-139813009D01*
X133932933Y-139942632D01*
X133888934Y-140081272D01*
X133870426Y-140225258D01*
X133683366Y-140225258D01*
X133683167Y-140207122D01*
X133697724Y-140067858D01*
X133727649Y-139941841D01*
X133732485Y-139927536D01*
X133800878Y-139776663D01*
X133893825Y-139637824D01*
X134007112Y-139514927D01*
X134136525Y-139411880D01*
X134277851Y-139332592D01*
X134426876Y-139280971D01*
X134430522Y-139280102D01*
X134570509Y-139258880D01*
X134719504Y-139256937D01*
X134867932Y-139273312D01*
G37*
D18*
%TO.C,U8*%
X173790000Y-97450000D02*
X199790000Y-97450000D01*
X173790000Y-123450000D02*
X173790000Y-97450000D01*
X179790000Y-121450000D02*
X179790000Y-123450000D01*
X179790000Y-123450000D02*
X173790000Y-123450000D01*
X193790000Y-121450000D02*
X179790000Y-121450000D01*
X193790000Y-123450000D02*
X193790000Y-121450000D01*
X199790000Y-97450000D02*
X199790000Y-123450000D01*
X199790000Y-123450000D02*
X193790000Y-123450000D01*
D19*
X182890000Y-96950000D02*
G75*
G02*
X182690000Y-96950000I-100000J0D01*
G01*
X182690000Y-96950000D02*
G75*
G02*
X182890000Y-96950000I100000J0D01*
G01*
D17*
%TO.C,U2*%
X134040000Y-85950000D02*
X134040000Y-89150000D01*
X134040000Y-92150000D02*
X134040000Y-99150000D01*
X137040000Y-85950000D02*
X134040000Y-85950000D01*
X137340000Y-86250000D02*
X137040000Y-85950000D01*
X137740000Y-86450000D02*
X137340000Y-86250000D01*
X138340000Y-86550000D02*
X137740000Y-86450000D01*
X138390000Y-100450000D02*
X135890000Y-100450000D01*
X139040000Y-86650000D02*
X138340000Y-86550000D01*
X148740000Y-86650000D02*
X139040000Y-86650000D01*
X148740000Y-86650000D02*
X148740000Y-89150000D01*
X148740000Y-99150000D02*
X148740000Y-92150000D01*
D15*
%TO.C,R2*%
X200230000Y-131310000D02*
X200230000Y-137850000D01*
X200230000Y-137850000D02*
X202970000Y-137850000D01*
X201600000Y-130540000D02*
X201600000Y-131310000D01*
X201600000Y-138620000D02*
X201600000Y-137850000D01*
X202970000Y-131310000D02*
X200230000Y-131310000D01*
X202970000Y-137850000D02*
X202970000Y-131310000D01*
%TO.C,J3*%
X203610000Y-116760000D02*
X203610000Y-106540000D01*
X206270000Y-106540000D02*
X203610000Y-106540000D01*
X206270000Y-116760000D02*
X203610000Y-116760000D01*
X206270000Y-116760000D02*
X206270000Y-106540000D01*
X206270000Y-118030000D02*
X206270000Y-119360000D01*
X206270000Y-119360000D02*
X204940000Y-119360000D01*
%TO.C,RET1*%
X174040000Y-130700000D02*
X174040000Y-135200000D01*
X176540000Y-136450000D02*
X178040000Y-136450000D01*
X178040000Y-129450000D02*
X176540000Y-129450000D01*
X180540000Y-135200000D02*
X180540000Y-130700000D01*
%TO.C,DOWN1*%
X183290000Y-136450000D02*
X183290000Y-137950000D01*
X184540000Y-140450000D02*
X189040000Y-140450000D01*
X189040000Y-133950000D02*
X184540000Y-133950000D01*
X190290000Y-137950000D02*
X190290000Y-136450000D01*
%TD*%
M02*
